<svg width="24" height="24" viewBox="0 0 24 24" fill="none" xmlns="http://www.w3.org/2000/svg">
<g clip-path="url(#clip0_362_10016)">
<path d="M21.0011 12.8674L21.8511 12.8664L21.0011 12.8674ZM20.867 14.0352L21.6947 14.2285L20.867 14.0352ZM20.8354 14.1707L20.0076 13.9774L20.8354 14.1707ZM20.8037 14.3061L21.6315 14.4994L20.8037 14.3061ZM20.5225 15.4744L21.3475 15.6789L20.5225 15.4744ZM20.4881 15.613L19.6631 15.4086L20.4881 15.613ZM19.5118 16.8609L19.0477 16.1488L19.5118 16.8609ZM18.7739 17.8218L17.965 17.5606L18.7739 17.8218ZM18.7279 17.9644L17.919 17.7032L18.7279 17.9644ZM18.6818 18.107L19.4907 18.3682L18.6818 18.107ZM17.9081 18.9434L18.2208 19.7338L17.9081 18.9434ZM17.7727 18.997L17.46 18.2066L17.7727 18.997ZM17.6373 19.0506L17.95 19.841L17.6373 19.0506ZM16.6137 19.6759L17.1786 20.311L16.6137 19.6759ZM16.509 19.769L15.9441 19.1339L16.509 19.769ZM16.4043 19.8621L15.8394 19.227L16.4043 19.8621ZM15.4188 20.527L15.7971 21.2882L15.4188 20.527ZM15.1658 20.6528L15.5441 21.4139L15.1658 20.6528ZM14.0195 20.9196L14.0212 20.0696L14.0195 20.9196ZM13.7347 20.919L13.7331 21.769L13.7347 20.919ZM12.5444 20.944L12.5826 21.7932L12.5444 20.944ZM12.2708 20.9563L12.2326 20.1072L12.2708 20.9563ZM11.1055 20.9262L11.0236 21.7723L11.1055 20.9262ZM10.9689 20.913L10.8871 21.7591L10.9689 20.913ZM10.8324 20.8998L10.9143 20.0538L10.8324 20.8998ZM9.64827 20.7879L9.72634 19.9415L9.64827 20.7879ZM9.50705 20.7749L9.42898 21.6213L9.50705 20.7749ZM9.36583 20.7619L9.44389 19.9155L9.36583 20.7619ZM8.29431 20.3152L7.75018 20.9682L8.29431 20.3152ZM8.18419 20.2234L8.72832 19.5704L8.18419 20.2234ZM8.07407 20.1317L8.6182 19.4787L8.07407 20.1317ZM7.10353 19.444L7.53641 18.7125L7.10353 19.444ZM6.98599 19.3744L6.55312 20.1059L6.98599 19.3744ZM6.86845 19.3049L6.43558 20.0364L6.86845 19.3049ZM5.88975 18.6551L6.39522 17.9717L5.88975 18.6551ZM5.77771 18.5722L5.27224 19.2556L5.77771 18.5722ZM5.66568 18.4893L6.17115 17.806L5.66568 18.4893ZM4.8132 17.6714L4.15168 18.2052L4.8132 17.6714ZM4.72527 17.5625L5.38678 17.0287V17.0287L4.72527 17.5625ZM4.63734 17.4535L3.97582 17.9872L4.63734 17.4535ZM3.96166 16.4699L3.22624 16.8961L3.96166 16.4699ZM3.8911 16.3481L4.62652 15.9219L3.8911 16.3481ZM3.82054 16.2264L3.08512 16.6526L3.82054 16.2264ZM3.474 14.9552L2.62556 15.0068L3.474 14.9552ZM3.46531 14.8123L4.31374 14.7607L3.46531 14.8123ZM3.37089 13.498L2.52369 13.5669L3.37089 13.498ZM3.35998 13.364L4.20718 13.295L3.35998 13.364ZM3.29941 12.2257L2.44967 12.2468L3.29941 12.2257ZM3.24443 10.5304L2.3951 10.5641L3.24443 10.5304ZM3.49195 9.42372L2.73813 9.03096L3.49195 9.42372ZM3.61901 9.17986L4.37282 9.57262L3.61901 9.17986ZM4.17391 8.16805L3.43778 7.74305L4.17391 8.16805ZM4.24054 8.05264L4.97666 8.47764L4.24054 8.05264ZM4.30717 7.93723L3.57104 7.51223L4.30717 7.93723ZM4.92306 6.98783L4.23504 6.48869L4.92306 6.98783ZM5.0009 6.88054L5.68891 7.37967L5.0009 6.88054ZM5.821 5.92836L6.40451 6.54643L5.821 5.92836ZM5.91728 5.83747L5.33377 5.21939L5.91728 5.83747ZM6.01355 5.74658L6.59706 6.36465L6.01355 5.74658ZM6.83853 4.95815L7.42947 5.56913L6.83853 4.95815ZM7.03301 4.77005L6.44208 4.15907L7.03301 4.77005ZM7.92482 4.01182L8.43422 4.69227L7.92482 4.01182ZM8.14872 3.8442L7.63931 3.16375L8.14872 3.8442ZM9.21795 3.41818L9.11992 2.57386L9.21795 3.41818ZM12.054 2.92737L11.6829 3.69209L12.054 2.92737ZM12.1901 2.99344L12.5612 2.22871L12.1901 2.99344ZM12.3263 3.05951L11.9552 3.82423V3.82423L12.3263 3.05951ZM13.8164 3.15098L13.9904 3.98299L13.8164 3.15098ZM14.8915 3.47477L15.4908 2.87198L14.8915 3.47477ZM14.9985 3.58109L14.3992 4.18388L14.9985 3.58109ZM15.1054 3.68741L15.7047 3.08462L15.1054 3.68741ZM16.176 4.2248L16.0607 5.06695L16.176 4.2248ZM16.3202 4.24454L16.4355 3.40239L16.3202 4.24454ZM16.4644 4.26427L16.3491 5.10642L16.4644 4.26427ZM17.4824 4.78807L16.856 5.36265L17.4824 4.78807ZM17.577 4.8912L18.2034 4.31662L17.577 4.8912ZM17.6716 4.99433L17.0452 5.56891L17.6716 4.99433ZM18.5512 5.79682L18.0361 6.47297L18.5512 5.79682ZM18.7746 5.96704L18.2595 6.64319L18.7746 5.96704ZM19.6374 6.79742L18.9823 7.33903L19.6374 6.79742ZM20.2499 8.1122L21.0978 8.05192L20.2499 8.1122ZM20.2709 8.40676L19.423 8.46704L20.2709 8.40676ZM20.5918 9.56501L19.838 9.95773L20.5918 9.56501ZM20.6566 9.68941L21.4105 9.29669L20.6566 9.68941ZM20.7214 9.81382L19.9676 10.2065L20.7214 9.81382ZM21.0828 10.9349L20.2415 11.056L21.0828 10.9349ZM21.1027 11.0734L21.9441 10.9523L21.1027 11.0734ZM21.1227 11.212L20.2814 11.3331L21.1227 11.212ZM21.1236 11.8826L21.7091 12.4988L21.1236 11.8826ZM21.1039 11.9013L20.5184 11.2851L21.1039 11.9013ZM21.0841 11.9201L21.6696 12.5363L21.0841 11.9201ZM21.0007 12.5904L20.1507 12.5915L21.0007 12.5904ZM21.0009 12.7289L20.1509 12.73L20.1511 12.8685L21.0011 12.8674L21.8511 12.8664L21.8509 12.7279L21.0009 12.7289ZM21.0011 12.8674L20.1511 12.8685C20.1515 13.1964 20.1143 13.5205 20.0393 13.8419L20.867 14.0352L21.6947 14.2285C21.7994 13.7802 21.8517 13.3257 21.8511 12.8664L21.0011 12.8674ZM20.867 14.0352L20.0393 13.8419L20.0076 13.9774L20.8354 14.1707L21.6631 14.364L21.6947 14.2285L20.867 14.0352ZM20.8354 14.1707L20.0076 13.9774L19.976 14.1128L20.8037 14.3061L21.6315 14.4994L21.6631 14.364L20.8354 14.1707ZM20.8037 14.3061L19.976 14.1128C19.887 14.4939 19.7942 14.8796 19.6974 15.27L20.5225 15.4744L21.3475 15.6789C21.446 15.2813 21.5407 14.8881 21.6315 14.4994L20.8037 14.3061ZM20.5225 15.4744L19.6974 15.27L19.6631 15.4086L20.4881 15.613L21.3132 15.8175L21.3475 15.6789L20.5225 15.4744ZM20.4881 15.613L19.6631 15.4086L19.6287 15.5472L20.4538 15.7516L21.2788 15.9561L21.3132 15.8175L20.4881 15.613ZM20.4538 15.7516L19.6287 15.5472C19.5863 15.7186 19.4948 15.8575 19.3018 15.9832L19.7658 16.6954L20.2298 17.4076C20.7589 17.0628 21.1261 16.5726 21.2788 15.9561L20.4538 15.7516ZM19.7658 16.6954L19.3018 15.9832L19.1748 16.066L19.6388 16.7782L20.1028 17.4903L20.2298 17.4076L19.7658 16.6954ZM19.6388 16.7782L19.1748 16.066L19.0477 16.1488L19.5118 16.8609L19.9758 17.5731L20.1028 17.4903L19.6388 16.7782ZM19.5118 16.8609L19.0477 16.1488C18.5255 16.489 18.1565 16.9675 17.965 17.5606L18.7739 17.8218L19.5828 18.083C19.653 17.8654 19.7759 17.7033 19.9758 17.5731L19.5118 16.8609ZM18.7739 17.8218L17.965 17.5606L17.919 17.7032L18.7279 17.9644L19.5367 18.2256L19.5828 18.083L18.7739 17.8218ZM18.7279 17.9644L17.919 17.7032L17.8729 17.8459L18.6818 18.107L19.4907 18.3682L19.5367 18.2256L18.7279 17.9644ZM18.6818 18.107L17.8729 17.8459C17.8175 18.0176 17.7364 18.0973 17.5955 18.153L17.9081 18.9434L18.2208 19.7338C18.8497 19.485 19.2844 19.0071 19.4907 18.3682L18.6818 18.107ZM17.9081 18.9434L17.5955 18.153L17.46 18.2066L17.7727 18.997L18.0854 19.7874L18.2208 19.7338L17.9081 18.9434ZM17.7727 18.997L17.46 18.2066L17.3246 18.2602L17.6373 19.0506L17.95 19.841L18.0854 19.7874L17.7727 18.997ZM17.6373 19.0506L17.3246 18.2602C16.8509 18.4476 16.4235 18.7074 16.0488 19.0408L16.6137 19.6759L17.1786 20.311C17.3988 20.1151 17.6539 19.9581 17.95 19.841L17.6373 19.0506ZM16.6137 19.6759L16.0488 19.0408L15.9441 19.1339L16.509 19.769L17.0739 20.4041L17.1786 20.311L16.6137 19.6759ZM16.509 19.769L15.9441 19.1339L15.8394 19.227L16.4043 19.8621L16.9692 20.4972L17.0739 20.4041L16.509 19.769ZM16.4043 19.8621L15.8394 19.227C15.5987 19.4411 15.333 19.6205 15.0405 19.7659L15.4188 20.527L15.7971 21.2882C16.2235 21.0763 16.6149 20.8124 16.9692 20.4972L16.4043 19.8621ZM15.4188 20.527L15.0405 19.7659L14.914 19.8287L15.2923 20.5899L15.6706 21.3511L15.7971 21.2882L15.4188 20.527ZM15.2923 20.5899L14.914 19.8287L14.7875 19.8916L15.1658 20.6528L15.5441 21.4139L15.6706 21.3511L15.2923 20.5899ZM15.1658 20.6528L14.7875 19.8916C14.5471 20.0111 14.2952 20.0701 14.0212 20.0696L14.0195 20.9196L14.0179 21.7696C14.5533 21.7706 15.0656 21.6518 15.5441 21.4139L15.1658 20.6528ZM14.0195 20.9196L14.0212 20.0696L13.8788 20.0693L13.8771 20.9193L13.8755 21.7693L14.0179 21.7696L14.0195 20.9196ZM13.8771 20.9193L13.8788 20.0693L13.7364 20.069L13.7347 20.919L13.7331 21.769L13.8755 21.7693L13.8771 20.9193ZM13.7347 20.919L13.7364 20.069C13.319 20.0682 12.9089 20.0768 12.5063 20.0949L12.5444 20.944L12.5826 21.7932C12.9577 21.7763 13.3411 21.7682 13.7331 21.769L13.7347 20.919ZM12.5444 20.944L12.5063 20.0949L12.3694 20.101L12.4076 20.9502L12.4458 21.7993L12.5826 21.7932L12.5444 20.944ZM12.4076 20.9502L12.3694 20.101L12.2326 20.1072L12.2708 20.9563L12.309 21.8055L12.4458 21.7993L12.4076 20.9502ZM12.2708 20.9563L12.2326 20.1072C11.8839 20.1229 11.5356 20.1139 11.1874 20.0802L11.1055 20.9262L11.0236 21.7723C11.4515 21.8137 11.88 21.8248 12.309 21.8055L12.2708 20.9563ZM11.1055 20.9262L11.1874 20.0802L11.0508 20.067L10.9689 20.913L10.8871 21.7591L11.0236 21.7723L11.1055 20.9262ZM10.9689 20.913L11.0508 20.067L10.9143 20.0538L10.8324 20.8998L10.7505 21.7459L10.8871 21.7591L10.9689 20.913ZM10.8324 20.8998L10.9143 20.0538C10.5249 20.0161 10.1289 19.9787 9.72634 19.9415L9.64827 20.7879L9.57021 21.6343C9.97035 21.6713 10.3638 21.7084 10.7505 21.7459L10.8324 20.8998ZM9.64827 20.7879L9.72634 19.9415L9.58512 19.9285L9.50705 20.7749L9.42898 21.6213L9.57021 21.6343L9.64827 20.7879ZM9.50705 20.7749L9.58512 19.9285L9.44389 19.9155L9.36583 20.7619L9.28776 21.6083L9.42898 21.6213L9.50705 20.7749ZM9.36583 20.7619L9.44389 19.9155C9.21581 19.8944 9.02072 19.8141 8.83844 19.6622L8.29431 20.3152L7.75018 20.9682C8.19384 21.3379 8.71309 21.5553 9.28776 21.6083L9.36583 20.7619ZM8.29431 20.3152L8.83844 19.6622L8.72832 19.5704L8.18419 20.2234L7.64006 20.8764L7.75018 20.9682L8.29431 20.3152ZM8.18419 20.2234L8.72832 19.5704L8.6182 19.4787L8.07407 20.1317L7.52994 20.7847L7.64006 20.8764L8.18419 20.2234ZM8.07407 20.1317L8.6182 19.4787C8.27202 19.1902 7.91147 18.9344 7.53641 18.7125L7.10353 19.444L6.67066 20.1755C6.96371 20.3489 7.25018 20.5516 7.52994 20.7847L8.07407 20.1317ZM7.10353 19.444L7.53641 18.7125L7.41887 18.6429L6.98599 19.3744L6.55312 20.1059L6.67066 20.1755L7.10353 19.444ZM6.98599 19.3744L7.41887 18.6429L7.30133 18.5733L6.86845 19.3049L6.43558 20.0364L6.55312 20.1059L6.98599 19.3744ZM6.86845 19.3049L7.30133 18.5733C6.99278 18.3908 6.69075 18.1903 6.39522 17.9717L5.88975 18.6551L5.38427 19.3384C5.72557 19.5909 6.07601 19.8236 6.43558 20.0364L6.86845 19.3049ZM5.88975 18.6551L6.39522 17.9717L6.28319 17.8888L5.77771 18.5722L5.27224 19.2556L5.38427 19.3384L5.88975 18.6551ZM5.77771 18.5722L6.28319 17.8888L6.17115 17.806L5.66568 18.4893L5.1602 19.1727L5.27224 19.2556L5.77771 18.5722ZM5.66568 18.4893L6.17115 17.806C5.9112 17.6137 5.67941 17.3914 5.47471 17.1377L4.8132 17.6714L4.15168 18.2052C4.4468 18.571 4.78334 18.8939 5.1602 19.1727L5.66568 18.4893ZM4.8132 17.6714L5.47471 17.1377L5.38678 17.0287L4.72527 17.5625L4.06375 18.0962L4.15168 18.2052L4.8132 17.6714ZM4.72527 17.5625L5.38678 17.0287L5.29885 16.9197L4.63734 17.4535L3.97582 17.9872L4.06375 18.0962L4.72527 17.5625ZM4.63734 17.4535L5.29885 16.9197C5.07643 16.6441 4.87589 16.3522 4.69708 16.0436L3.96166 16.4699L3.22624 16.8961C3.44852 17.2796 3.69842 17.6435 3.97582 17.9872L4.63734 17.4535ZM3.96166 16.4699L4.69708 16.0436L4.62652 15.9219L3.8911 16.3481L3.15568 16.7743L3.22624 16.8961L3.96166 16.4699ZM3.8911 16.3481L4.62652 15.9219L4.55595 15.8001L3.82054 16.2264L3.08512 16.6526L3.15568 16.7743L3.8911 16.3481ZM3.82054 16.2264L4.55595 15.8001C4.42289 15.5705 4.34793 15.3231 4.33112 15.0465L3.48269 15.0981L2.63425 15.1497C2.66682 15.6854 2.81709 16.1901 3.08512 16.6526L3.82054 16.2264ZM3.48269 15.0981L4.33112 15.0465L4.32243 14.9036L3.474 14.9552L2.62556 15.0068L2.63425 15.1497L3.48269 15.0981ZM3.474 14.9552L4.32243 14.9036L4.31374 14.7607L3.46531 14.8123L2.61688 14.8639L2.62556 15.0068L3.474 14.9552ZM3.46531 14.8123L4.31374 14.7607C4.28873 14.3492 4.26048 13.9499 4.22899 13.563L3.38179 13.6319L2.53459 13.7009C2.56508 14.0755 2.59252 14.4632 2.61688 14.8639L3.46531 14.8123ZM3.38179 13.6319L4.22899 13.563L4.21809 13.429L3.37089 13.498L2.52369 13.5669L2.53459 13.7009L3.38179 13.6319ZM3.37089 13.498L4.21809 13.429L4.20718 13.295L3.35998 13.364L2.51279 13.4329L2.52369 13.5669L3.37089 13.498ZM3.35998 13.364L4.20718 13.295C4.17748 12.93 4.15814 12.5665 4.14914 12.2046L3.29941 12.2257L2.44967 12.2468C2.45947 12.641 2.48051 13.0364 2.51279 13.4329L3.35998 13.364ZM3.29941 12.2257L4.14914 12.2046L4.14584 12.0715L3.2961 12.0927L2.44636 12.1138L2.44967 12.2468L3.29941 12.2257ZM3.2961 12.0927L4.14584 12.0715L4.14253 11.9385L3.29279 11.9596L2.44306 11.9807L2.44636 12.1138L3.2961 12.0927ZM3.29279 11.9596L4.14253 11.9385C4.13303 11.5561 4.12041 11.1672 4.1047 10.7719L3.25537 10.8057L2.40604 10.8394C2.42143 11.2266 2.43377 11.607 2.44306 11.9807L3.29279 11.9596ZM3.25537 10.8057L4.1047 10.7719L4.09923 10.6343L3.2499 10.668L2.40057 10.7018L2.40604 10.8394L3.25537 10.8057ZM3.2499 10.668L4.09923 10.6343L4.09376 10.4966L3.24443 10.5304L2.3951 10.5641L2.40057 10.7018L3.2499 10.668ZM3.24443 10.5304L4.09376 10.4966C4.08408 10.2532 4.13381 10.0313 4.24576 9.81649L3.49195 9.42372L2.73813 9.03096C2.48896 9.50919 2.37368 10.0251 2.3951 10.5641L3.24443 10.5304ZM3.49195 9.42372L4.24576 9.81649L4.30929 9.69456L3.55548 9.30179L2.80166 8.90903L2.73813 9.03096L3.49195 9.42372ZM3.55548 9.30179L4.30929 9.69456L4.37282 9.57262L3.61901 9.17986L2.8652 8.78709L2.80166 8.90903L3.55548 9.30179ZM3.61901 9.17986L4.37282 9.57262C4.5479 9.23661 4.72698 8.9101 4.91003 8.59305L4.17391 8.16805L3.43778 7.74305C3.2421 8.08199 3.05124 8.43002 2.8652 8.78709L3.61901 9.17986ZM4.17391 8.16805L4.91003 8.59305L4.97666 8.47764L4.24054 8.05264L3.50441 7.62764L3.43778 7.74305L4.17391 8.16805ZM4.24054 8.05264L4.97666 8.47764L5.04329 8.36223L4.30717 7.93723L3.57104 7.51223L3.50441 7.62764L4.24054 8.05264ZM4.30717 7.93723L5.04329 8.36223C5.218 8.05963 5.40725 7.76792 5.61107 7.48697L4.92306 6.98783L4.23504 6.48869C3.99642 6.81762 3.77507 7.15884 3.57104 7.51223L4.30717 7.93723ZM4.92306 6.98783L5.61107 7.48697L5.68891 7.37967L5.0009 6.88054L4.31288 6.3814L4.23504 6.48869L4.92306 6.98783ZM5.0009 6.88054L5.68891 7.37967L5.76675 7.27238L5.07874 6.77324L4.39072 6.27411L4.31288 6.3814L5.0009 6.88054ZM5.07874 6.77324L5.76675 7.27238C5.95695 7.0102 6.1694 6.7684 6.40451 6.54643L5.821 5.92836L5.2375 5.31028C4.92537 5.60495 4.64297 5.92641 4.39072 6.27411L5.07874 6.77324ZM5.821 5.92836L6.40451 6.54643L6.50079 6.45554L5.91728 5.83747L5.33377 5.21939L5.2375 5.31028L5.821 5.92836ZM5.91728 5.83747L6.50079 6.45554L6.59706 6.36465L6.01355 5.74658L5.43004 5.1285L5.33377 5.21939L5.91728 5.83747ZM6.01355 5.74658L6.59706 6.36465C6.87323 6.10393 7.15069 5.83876 7.42947 5.56913L6.83853 4.95815L6.2476 4.34717C5.97364 4.61214 5.70112 4.87258 5.43004 5.1285L6.01355 5.74658ZM6.83853 4.95815L7.42947 5.56913L7.52671 5.47508L6.93577 4.8641L6.34484 4.25312L6.2476 4.34717L6.83853 4.95815ZM6.93577 4.8641L7.52671 5.47508L7.62395 5.38103L7.03301 4.77005L6.44208 4.15907L6.34484 4.25312L6.93577 4.8641ZM7.03301 4.77005L7.62395 5.38103C7.87377 5.1394 8.1437 4.90976 8.43422 4.69227L7.92482 4.01182L7.41542 3.33137C7.06959 3.59026 6.74498 3.86611 6.44208 4.15907L7.03301 4.77005ZM7.92482 4.01182L8.43422 4.69227L8.54617 4.60846L8.03677 3.92801L7.52737 3.24756L7.41542 3.33137L7.92482 4.01182ZM8.03677 3.92801L8.54617 4.60846L8.65812 4.52465L8.14872 3.8442L7.63931 3.16375L7.52737 3.24756L8.03677 3.92801ZM8.14872 3.8442L8.65812 4.52465C8.8561 4.37644 9.07058 4.291 9.31599 4.26251L9.21795 3.41818L9.11992 2.57386C8.57602 2.63701 8.07767 2.83559 7.63931 3.16375L8.14872 3.8442ZM9.21795 3.41818L9.31599 4.26251L9.45485 4.24639L9.35681 3.40206L9.25878 2.55773L9.11992 2.57386L9.21795 3.41818ZM9.35681 3.40206L9.45485 4.24639L9.5937 4.23027L9.49567 3.38594L9.39764 2.54161L9.25878 2.55773L9.35681 3.40206ZM9.49567 3.38594L9.5937 4.23027C10.0874 4.17295 10.5636 4.03109 11.0196 3.81018L10.6489 3.04524L10.2783 2.28031C9.98584 2.42201 9.69326 2.50729 9.39764 2.54161L9.49567 3.38594ZM10.6489 3.04524L11.0196 3.81018L11.1512 3.74638L10.7806 2.98145L10.4099 2.21652L10.2783 2.28031L10.6489 3.04524ZM10.7806 2.98145L11.1512 3.74638L11.2829 3.68259L10.9122 2.91766L10.5416 2.15273L10.4099 2.21652L10.7806 2.98145ZM10.9122 2.91766L11.2829 3.68259C11.4136 3.61926 11.5207 3.61338 11.6829 3.69209L12.054 2.92737L12.425 2.16264C11.8133 1.8658 11.1592 1.85344 10.5416 2.15273L10.9122 2.91766ZM12.054 2.92737L11.6829 3.69209L11.819 3.75816L12.1901 2.99344L12.5612 2.22871L12.425 2.16264L12.054 2.92737ZM12.1901 2.99344L11.819 3.75816L11.9552 3.82423L12.3263 3.05951L12.6974 2.29478L12.5612 2.22871L12.1901 2.99344ZM12.3263 3.05951L11.9552 3.82423C12.5078 4.09236 13.0991 4.16935 13.6999 4.04372L13.5259 3.21172L13.352 2.37971C13.1272 2.4267 12.9188 2.40222 12.6974 2.29478L12.3263 3.05951ZM13.5259 3.21172L13.6999 4.04372L13.8451 4.01336L13.6712 3.18135L13.4972 2.34934L13.352 2.37971L13.5259 3.21172ZM13.6712 3.18135L13.8451 4.01336L13.9904 3.98299L13.8164 3.15098L13.6425 2.31897L13.4972 2.34934L13.6712 3.18135ZM13.8164 3.15098L13.9904 3.98299C14.1178 3.95634 14.1871 3.97303 14.2922 4.07756L14.8915 3.47477L15.4908 2.87198C14.9881 2.37217 14.3406 2.173 13.6425 2.31897L13.8164 3.15098ZM14.8915 3.47477L14.2922 4.07756L14.3992 4.18388L14.9985 3.58109L15.5977 2.9783L15.4908 2.87198L14.8915 3.47477ZM14.9985 3.58109L14.3992 4.18388L14.5061 4.2902L15.1054 3.68741L15.7047 3.08462L15.5977 2.9783L14.9985 3.58109ZM15.1054 3.68741L14.5061 4.2902C14.936 4.71759 15.4609 4.98485 16.0607 5.06695L16.176 4.2248L16.2913 3.38265C16.0715 3.35258 15.8827 3.26158 15.7047 3.08462L15.1054 3.68741ZM16.176 4.2248L16.0607 5.06695L16.2049 5.08668L16.3202 4.24454L16.4355 3.40239L16.2913 3.38265L16.176 4.2248ZM16.3202 4.24454L16.2049 5.08668L16.3491 5.10642L16.4644 4.26427L16.5797 3.42212L16.4355 3.40239L16.3202 4.24454ZM16.4644 4.26427L16.3491 5.10642C16.5711 5.1368 16.7268 5.2218 16.856 5.36265L17.4824 4.78807L18.1088 4.21349C17.7002 3.76812 17.1773 3.50392 16.5797 3.42212L16.4644 4.26427ZM17.4824 4.78807L16.856 5.36265L16.9506 5.46578L17.577 4.8912L18.2034 4.31662L18.1088 4.21349L17.4824 4.78807ZM17.577 4.8912L16.9506 5.46578L17.0452 5.56891L17.6716 4.99433L18.298 4.41975L18.2034 4.31662L17.577 4.8912ZM17.6716 4.99433L17.0452 5.56891C17.3482 5.89923 17.6787 6.20069 18.0361 6.47297L18.5512 5.79682L19.0663 5.12067C18.7886 4.90917 18.5327 4.67564 18.298 4.41975L17.6716 4.99433ZM18.5512 5.79682L18.0361 6.47297L18.1478 6.55808L18.6629 5.88193L19.178 5.20578L19.0663 5.12067L18.5512 5.79682ZM18.6629 5.88193L18.1478 6.55808L18.2595 6.64319L18.7746 5.96704L19.2897 5.29089L19.178 5.20578L18.6629 5.88193ZM18.7746 5.96704L18.2595 6.64319C18.5247 6.8452 18.7655 7.07671 18.9823 7.33903L19.6374 6.79742L20.2925 6.25581C19.994 5.89473 19.6596 5.57265 19.2897 5.29089L18.7746 5.96704ZM19.6374 6.79742L18.9823 7.33903L19.073 7.4487L19.7281 6.90709L20.3832 6.36548L20.2925 6.25581L19.6374 6.79742ZM19.7281 6.90709L19.073 7.4487L19.1637 7.55837L19.8188 7.01676L20.4739 6.47516L20.3832 6.36548L19.7281 6.90709ZM19.8188 7.01676L19.1637 7.55837C19.3041 7.72824 19.3844 7.9234 19.4021 8.17248L20.2499 8.1122L21.0978 8.05192C21.056 7.46381 20.8488 6.92868 20.4739 6.47516L19.8188 7.01676ZM20.2499 8.1122L19.4021 8.17248L19.4126 8.31976L20.2604 8.25948L21.1083 8.1992L21.0978 8.05192L20.2499 8.1122ZM20.2604 8.25948L19.4126 8.31976L19.423 8.46704L20.2709 8.40676L21.1188 8.34648L21.1083 8.1992L20.2604 8.25948ZM20.2709 8.40676L19.423 8.46704C19.4606 8.99549 19.5972 9.49556 19.838 9.95773L20.5918 9.56501L21.3457 9.17229C21.218 8.92731 21.1407 8.65521 21.1188 8.34648L20.2709 8.40676ZM20.5918 9.56501L19.838 9.95773L19.9028 10.0821L20.6566 9.68941L21.4105 9.29669L21.3457 9.17229L20.5918 9.56501ZM20.6566 9.68941L19.9028 10.0821L19.9676 10.2065L20.7214 9.81382L21.4753 9.4211L21.4105 9.29669L20.6566 9.68941ZM20.7214 9.81382L19.9676 10.2065C20.1076 10.4753 20.1985 10.7572 20.2415 11.056L21.0828 10.9349L21.9241 10.8137C21.8537 10.3249 21.7036 9.85944 21.4753 9.4211L20.7214 9.81382ZM21.0828 10.9349L20.2415 11.056L20.2614 11.1945L21.1027 11.0734L21.9441 10.9523L21.9241 10.8137L21.0828 10.9349ZM21.1027 11.0734L20.2614 11.1945L20.2814 11.3331L21.1227 11.212L21.964 11.0908L21.9441 10.9523L21.1027 11.0734ZM21.1227 11.212L20.2814 11.3331C20.3077 11.5158 20.3154 11.6239 20.3154 11.6761C20.3155 11.704 20.3131 11.6863 20.3218 11.6428C20.3265 11.6197 20.3375 11.5726 20.3634 11.5135C20.3885 11.4563 20.4397 11.3599 20.5381 11.2663L21.1236 11.8826L21.7091 12.4988C21.9175 12.3008 21.9716 12.0619 21.9883 11.9786C22.0111 11.8659 22.0156 11.7577 22.0154 11.6738C22.0152 11.5025 21.9944 11.302 21.964 11.0908L21.1227 11.212ZM21.1236 11.8826L20.5381 11.2663L20.5184 11.2851L21.1039 11.9013L21.6893 12.5176L21.7091 12.4988L21.1236 11.8826ZM21.1039 11.9013L20.5184 11.2851L20.4987 11.3038L21.0841 11.9201L21.6696 12.5363L21.6893 12.5176L21.1039 11.9013ZM21.0841 11.9201L20.4987 11.3038C20.3204 11.4732 20.2559 11.6729 20.2339 11.7454C20.2039 11.8443 20.1877 11.9422 20.1777 12.0227C20.1574 12.1862 20.1505 12.3812 20.1507 12.5915L21.0007 12.5904L21.8507 12.5894C21.8506 12.5005 21.8521 12.426 21.8548 12.3647C21.8576 12.3025 21.8614 12.2596 21.8647 12.2326C21.8686 12.2014 21.8698 12.2088 21.8608 12.2385C21.856 12.2543 21.8444 12.2897 21.8212 12.3351C21.7994 12.3777 21.7536 12.4565 21.6696 12.5363L21.0841 11.9201ZM21.0007 12.5904L20.1507 12.5915L20.1509 12.73L21.0009 12.7289L21.8509 12.7279L21.8507 12.5894L21.0007 12.5904Z" fill="#D8F789"/>
<path d="M6.65237 5.06897C7.0885 5.24265 7.58285 5.02989 7.75653 4.59375C7.9302 4.15762 7.71744 3.66327 7.28131 3.4896L6.96684 4.27928L6.65237 5.06897ZM6.87393 4.24229L7.1884 3.4526L7.03703 3.39232L6.8741 3.39229L6.87393 4.24229ZM6.61166 4.24224L6.61149 5.09224V5.09224L6.61166 4.24224ZM5.03715 3.8352L4.47157 4.46972L5.03715 3.8352ZM4.93009 3.73977L5.49566 3.10524L4.93009 3.73977ZM3.79354 3.04146L4.06869 2.23722L3.79354 3.04146ZM3.65911 2.99547L3.38396 3.7997L3.65911 2.99547ZM3.52468 2.94948L3.79984 2.14524L3.52468 2.94948ZM2.58916 2.10947L1.84843 2.5264L2.58916 2.10947ZM1.99263 2.06996L1.2 1.76298L1.99263 2.06996ZM1.89389 3.25306L1.06623 3.44666V3.44666L1.89389 3.25306ZM1.97439 4.7205L1.1396 4.56045L1.97439 4.7205ZM2.25116 6.0574L1.66435 6.67234L2.25116 6.0574ZM2.46257 6.25915L3.04938 5.6442L2.46257 6.25915ZM3.24063 7.15301L2.54622 7.6432L3.24063 7.15301ZM3.31744 7.26181L4.01185 6.77161L3.31744 7.26181ZM3.39424 7.3706L2.69982 7.8608L3.39424 7.3706ZM3.72552 7.94758L4.57503 7.91859L3.72552 7.94758ZM3.72643 7.97412L4.48793 8.35175L4.58325 8.15954L4.57593 7.94513L3.72643 7.97412ZM3.70502 8.01728L2.94351 7.63965L2.80025 7.92854L2.88465 8.23976L3.70502 8.01728ZM2.91082 8.33627C3.03369 8.78935 3.50059 9.05704 3.95367 8.93417C4.40675 8.8113 4.67443 8.3444 4.55156 7.89132L3.73119 8.1138L2.91082 8.33627ZM6.96684 4.27928L7.28131 3.4896L7.1884 3.4526L6.87393 4.24229L6.55946 5.03198L6.65237 5.06897L6.96684 4.27928ZM6.87393 4.24229L6.8741 3.39229L6.61183 3.39224L6.61166 4.24224L6.61149 5.09224L6.87376 5.09229L6.87393 4.24229ZM6.61166 4.24224L6.61183 3.39224C5.92082 3.3921 5.6656 3.25672 5.60272 3.20067L5.03715 3.8352L4.47157 4.46972C5.01724 4.9561 5.8117 5.09208 6.61149 5.09224L6.61166 4.24224ZM5.03715 3.8352L5.60272 3.20067L5.49566 3.10524L4.93009 3.73977L4.36451 4.37429L4.47157 4.46972L5.03715 3.8352ZM4.93009 3.73977L5.49566 3.10524L5.3886 3.00982L4.82303 3.64434L4.25745 4.27887L4.36451 4.37429L4.93009 3.73977ZM4.82303 3.64434L5.3886 3.00982C5.00061 2.66399 4.55892 2.40495 4.06869 2.23722L3.79354 3.04146L3.51838 3.84569C3.79226 3.93939 4.03689 4.08228 4.25745 4.27887L4.82303 3.64434ZM3.79354 3.04146L4.06869 2.23722L3.93426 2.19123L3.65911 2.99547L3.38396 3.7997L3.51838 3.84569L3.79354 3.04146ZM3.65911 2.99547L3.93426 2.19123L3.79984 2.14524L3.52468 2.94948L3.24953 3.75371L3.38396 3.7997L3.65911 2.99547ZM3.52468 2.94948L3.79984 2.14524C3.61266 2.0812 3.49075 1.97835 3.39875 1.8149L2.65803 2.23182L1.9173 2.64874C2.21674 3.18074 2.67261 3.55632 3.24953 3.75371L3.52468 2.94948ZM2.65803 2.23182L3.39875 1.8149L3.32989 1.69255L2.58916 2.10947L1.84843 2.5264L1.9173 2.64874L2.65803 2.23182ZM2.58916 2.10947L3.32989 1.69255L3.26102 1.5702L2.5203 1.98712L1.77957 2.40405L1.84843 2.5264L2.58916 2.10947ZM2.5203 1.98712L3.26102 1.5702C3.19347 1.45019 3.103 1.31099 2.9824 1.18984C2.87071 1.07766 2.64462 0.892424 2.30888 0.870187C1.93224 0.84524 1.65963 1.03683 1.50991 1.20126C1.37254 1.35212 1.29286 1.5232 1.24447 1.64814L2.0371 1.95512L2.82973 2.2621C2.84455 2.22385 2.8324 2.27386 2.76691 2.34579C2.68905 2.4313 2.49265 2.58608 2.19653 2.56647C1.94133 2.54957 1.8001 2.4118 1.77761 2.38921C1.74621 2.35767 1.74926 2.3502 1.77957 2.40405L2.5203 1.98712ZM2.0371 1.95512L1.24447 1.64814L1.2 1.76298L1.99263 2.06996L2.78526 2.37694L2.82973 2.2621L2.0371 1.95512ZM1.99263 2.06996L1.2 1.76298L1.15552 1.87782L1.94815 2.1848L2.74078 2.49178L2.78526 2.37694L1.99263 2.06996ZM1.94815 2.1848L1.15552 1.87782C0.95939 2.38423 0.942356 2.91705 1.06623 3.44666L1.89389 3.25306L2.72155 3.05947C2.66496 2.8175 2.68409 2.63815 2.74078 2.49178L1.94815 2.1848ZM1.89389 3.25306L1.06623 3.44666L1.09798 3.5824L1.92564 3.3888L2.7533 3.19521L2.72155 3.05947L1.89389 3.25306ZM1.92564 3.3888L1.09798 3.5824L1.12973 3.71814L1.95739 3.52454L2.78505 3.33095L2.7533 3.19521L1.92564 3.3888ZM1.95739 3.52454L1.12973 3.71814C1.19127 3.98122 1.19737 4.25913 1.1396 4.56045L1.97439 4.7205L2.80919 4.88056C2.90922 4.35883 2.90399 3.83944 2.78505 3.33095L1.95739 3.52454ZM1.97439 4.7205L1.1396 4.56045L1.11184 4.70524L1.94663 4.8653L2.78143 5.02536L2.80919 4.88056L1.97439 4.7205ZM1.94663 4.8653L1.11184 4.70524L1.08407 4.85004L1.91887 5.01009L2.75366 5.17015L2.78143 5.02536L1.94663 4.8653ZM1.91887 5.01009L1.08407 4.85004C0.951378 5.54213 1.15266 6.18406 1.66435 6.67234L2.25116 6.0574L2.83797 5.44246C2.7488 5.35737 2.72856 5.3011 2.75366 5.17015L1.91887 5.01009ZM2.25116 6.0574L1.66435 6.67234L1.77005 6.77322L2.35687 6.15827L2.94368 5.54333L2.83797 5.44246L2.25116 6.0574ZM2.35687 6.15827L1.77005 6.77322L1.87576 6.87409L2.46257 6.25915L3.04938 5.6442L2.94368 5.54333L2.35687 6.15827ZM2.46257 6.25915L1.87576 6.87409C2.14017 7.1264 2.36258 7.38304 2.54622 7.6432L3.24063 7.15301L3.93505 6.66281C3.68213 6.30453 3.38583 5.96526 3.04938 5.6442L2.46257 6.25915ZM3.24063 7.15301L2.54622 7.6432L2.62302 7.752L3.31744 7.26181L4.01185 6.77161L3.93505 6.66281L3.24063 7.15301ZM3.31744 7.26181L2.62302 7.752L2.69982 7.8608L3.39424 7.3706L4.08865 6.88041L4.01185 6.77161L3.31744 7.26181ZM3.39424 7.3706L2.69982 7.8608C2.80272 8.00656 2.86761 8.10726 2.90364 8.17C2.92198 8.20195 2.92458 8.20985 2.92025 8.19959C2.91786 8.19392 2.9099 8.1746 2.90146 8.1447C2.89397 8.11818 2.8788 8.05815 2.87601 7.97657L3.72552 7.94758L4.57503 7.91859C4.56891 7.73946 4.51069 7.59595 4.48648 7.53859C4.4539 7.46139 4.41478 7.38774 4.3779 7.32352C4.3035 7.19394 4.20404 7.04387 4.08865 6.88041L3.39424 7.3706ZM3.72552 7.94758L2.87601 7.97657L2.87692 8.00311L3.72643 7.97412L4.57593 7.94513L4.57503 7.91859L3.72552 7.94758ZM3.72643 7.97412L2.96492 7.59648L2.94351 7.63965L3.70502 8.01728L4.46653 8.39492L4.48793 8.35175L3.72643 7.97412ZM3.70502 8.01728L2.88465 8.23976L2.91082 8.33627L3.73119 8.1138L4.55156 7.89132L4.52539 7.79481L3.70502 8.01728Z" fill="#D8F789"/>
<path d="M17.459 5.06897C17.0228 5.24265 16.5285 5.02989 16.3548 4.59375C16.1811 4.15762 16.3939 3.66327 16.83 3.4896L17.1445 4.27928L17.459 5.06897ZM17.2374 4.24229L17.5681 5.02533L17.56 5.02874L17.5519 5.03198L17.2374 4.24229ZM17.4722 4.14315L17.8028 4.92619L17.4722 4.14315ZM19.0611 3.65539L19.1546 4.50023L19.0611 3.65539ZM19.337 3.62484L19.2435 2.78L19.337 3.62484ZM20.4111 3.2198L20.8983 3.91632L20.4111 3.2198ZM21.5754 1.97311L22.3034 2.41187L21.5754 1.97311ZM21.9231 2.23042L22.7719 2.18481L21.9231 2.23042ZM21.9843 3.42747L22.8332 3.38588L21.9843 3.42747ZM21.9561 4.65674L22.801 4.75019L21.9561 4.65674ZM21.9418 4.7866L21.0969 4.69315L21.9418 4.7866ZM21.9274 4.91646L22.7722 5.00991L21.9274 4.91646ZM21.627 5.98394L22.3977 6.34256L21.627 5.98394ZM21.5709 6.10448L20.8003 5.74587L21.5709 6.10448ZM21.5149 6.22502L22.2855 6.58363L21.5149 6.22502ZM20.9855 7.24775L20.2471 6.82659L20.9855 7.24775ZM20.8493 7.48648L21.5876 7.90764L20.8493 7.48648ZM20.4866 8.04332L20.0173 7.33462L20.4866 8.04332ZM20.4696 8.05457L20.9389 8.76327L20.4958 9.05667L20.038 8.78685L20.4696 8.05457ZM20.4063 8.01728L19.5859 7.79481L19.8777 6.71908L20.8379 7.285L20.4063 8.01728ZM21.2005 8.33627C21.0776 8.78935 20.6107 9.05704 20.1577 8.93417C19.7046 8.8113 19.4369 8.3444 19.5598 7.89132L20.3801 8.1138L21.2005 8.33627ZM17.1445 4.27928L16.83 3.4896L16.9229 3.4526L17.2374 4.24229L17.5519 5.03198L17.459 5.06897L17.1445 4.27928ZM17.2374 4.24229L16.9067 3.45925L17.1415 3.36011L17.4722 4.14315L17.8028 4.92619L17.5681 5.02533L17.2374 4.24229ZM17.4722 4.14315L17.1415 3.36011C17.8324 3.06834 18.4522 2.86762 18.9675 2.81056L19.0611 3.65539L19.1546 4.50023C18.8858 4.53 18.4463 4.65445 17.8028 4.92619L17.4722 4.14315ZM19.0611 3.65539L18.9675 2.81056L19.1055 2.79528L19.1991 3.64012L19.2926 4.48495L19.1546 4.50023L19.0611 3.65539ZM19.1991 3.64012L19.1055 2.79528L19.2435 2.78L19.337 3.62484L19.4306 4.46968L19.2926 4.48495L19.1991 3.64012ZM19.337 3.62484L19.2435 2.78C19.4937 2.7523 19.7164 2.66844 19.9239 2.52329L20.4111 3.2198L20.8983 3.91632C20.4579 4.22438 19.9646 4.41054 19.4306 4.46968L19.337 3.62484ZM20.4111 3.2198L19.9239 2.52329L20.0379 2.44356L20.5251 3.14007L21.0123 3.83658L20.8983 3.91632L20.4111 3.2198ZM20.5251 3.14007L20.0379 2.44356L20.1518 2.36383L20.6391 3.06034L21.1263 3.75685L21.0123 3.83658L20.5251 3.14007ZM20.6391 3.06034L20.1518 2.36383C20.3782 2.20547 20.5604 2.01046 20.7036 1.77299L21.4316 2.21175L22.1596 2.65051C21.8939 3.09128 21.5478 3.46201 21.1263 3.75685L20.6391 3.06034ZM21.4316 2.21175L20.7036 1.77299L20.7755 1.65367L21.5035 2.09243L22.2315 2.53119L22.1596 2.65051L21.4316 2.21175ZM21.5035 2.09243L20.7755 1.65367L20.8474 1.53435L21.5754 1.97311L22.3034 2.41187L22.2315 2.53119L21.5035 2.09243ZM21.5754 1.97311L20.8474 1.53435C20.9109 1.42902 20.9926 1.30628 21.093 1.19987C21.1435 1.14636 21.2209 1.07294 21.3258 1.00939C21.4288 0.947054 21.6093 0.863621 21.8446 0.872557C22.4153 0.894232 22.6292 1.36884 22.6757 1.49447C22.737 1.65999 22.7527 1.82774 22.7588 1.9402L21.91 1.98582L21.0612 2.03143C21.0579 1.97009 21.0527 2.00697 21.0814 2.08453C21.0954 2.12221 21.2652 2.55177 21.7801 2.57133C21.9875 2.57921 22.1372 2.50545 22.2065 2.46352C22.2777 2.42036 22.3186 2.37807 22.3296 2.36643C22.351 2.34373 22.3421 2.34764 22.3034 2.41187L21.5754 1.97311ZM21.91 1.98582L22.7588 1.9402L22.7653 2.06251L21.9166 2.10812L21.0678 2.15373L21.0612 2.03143L21.91 1.98582ZM21.9166 2.10812L22.7653 2.06251L22.7719 2.18481L21.9231 2.23042L21.0744 2.27604L21.0678 2.15373L21.9166 2.10812ZM21.9231 2.23042L22.7719 2.18481C22.7907 2.53381 22.809 2.89138 22.827 3.25751L21.978 3.2991L21.129 3.34069C21.1112 2.97711 21.093 2.62222 21.0744 2.27604L21.9231 2.23042ZM21.978 3.2991L22.827 3.25751L22.8332 3.38588L21.9843 3.42747L21.1353 3.46906L21.129 3.34069L21.978 3.2991ZM21.9843 3.42747L22.8332 3.38588L22.8395 3.51426L21.9905 3.55585L21.1416 3.59744L21.1353 3.46906L21.9843 3.42747ZM21.9905 3.55585L22.8395 3.51426C22.8596 3.9249 22.8467 4.33703 22.801 4.75019L21.9561 4.65674L21.1113 4.56329C21.1472 4.23831 21.1572 3.9165 21.1416 3.59744L21.9905 3.55585ZM21.9561 4.65674L22.801 4.75019L22.7866 4.88005L21.9418 4.7866L21.0969 4.69315L21.1113 4.56329L21.9561 4.65674ZM21.9418 4.7866L22.7866 4.88005L22.7722 5.00991L21.9274 4.91646L21.0825 4.82301L21.0969 4.69315L21.9418 4.7866ZM21.9274 4.91646L22.7722 5.00991C22.7211 5.47245 22.5954 5.91771 22.3977 6.34256L21.627 5.98394L20.8564 5.62533C20.9775 5.36502 21.0521 5.09863 21.0825 4.82301L21.9274 4.91646ZM21.627 5.98394L22.3977 6.34256L22.3416 6.46309L21.5709 6.10448L20.8003 5.74587L20.8564 5.62533L21.627 5.98394ZM21.5709 6.10448L22.3416 6.46309L22.2855 6.58363L21.5149 6.22502L20.7442 5.8664L20.8003 5.74587L21.5709 6.10448ZM21.5149 6.22502L22.2855 6.58363C22.1159 6.94819 21.9285 7.30995 21.7238 7.66891L20.9855 7.24775L20.2471 6.82659C20.4294 6.50706 20.595 6.187 20.7442 5.8664L21.5149 6.22502ZM20.9855 7.24775L21.7238 7.66891L21.6557 7.78827L20.9174 7.36711L20.179 6.94595L20.2471 6.82659L20.9855 7.24775ZM20.9174 7.36711L21.6557 7.78827L21.5876 7.90764L20.8493 7.48648L20.111 7.06532L20.179 6.94595L20.9174 7.36711ZM20.8493 7.48648L21.5876 7.90764C21.4878 8.08264 21.3996 8.23058 21.3257 8.34405C21.2893 8.39997 21.2491 8.45869 21.2074 8.5123C21.1863 8.53948 21.0958 8.65937 20.9559 8.75201L20.4866 8.04332L20.0173 7.33462C19.9774 7.36099 19.9482 7.38555 19.9306 7.40126C19.9121 7.41773 19.8985 7.43166 19.89 7.44064C19.8812 7.44992 19.875 7.45713 19.8715 7.46128C19.8679 7.46556 19.8658 7.46821 19.8654 7.46875C19.8648 7.46951 19.8677 7.46579 19.8745 7.456C19.8812 7.44653 19.89 7.43346 19.9012 7.41619C19.9482 7.34405 20.0173 7.22956 20.111 7.06532L20.8493 7.48648ZM20.4866 8.04332L20.9559 8.75201L20.9389 8.76327L20.4696 8.05457L20.0003 7.34587L20.0173 7.33462L20.4866 8.04332ZM20.4696 8.05457L20.038 8.78685L19.9747 8.74957L20.4063 8.01728L20.8379 7.285L20.9012 7.32229L20.4696 8.05457ZM20.4063 8.01728L21.2267 8.23976L21.2005 8.33627L20.3801 8.1138L19.5598 7.89132L19.5859 7.79481L20.4063 8.01728Z" fill="#D8F789"/>
<path d="M8.45996 10.7151L10.009 11.2063" stroke="#D8F789" stroke-width="1.7" stroke-linecap="round"/>
<path d="M15.5391 10.7151L13.99 11.2063" stroke="#D8F789" stroke-width="1.7" stroke-linecap="round"/>
<path d="M14.8279 15.6779C15.2973 15.6779 15.6779 15.2973 15.6779 14.8279C15.6779 14.3584 15.2973 13.9779 14.8279 13.9779V14.8279V15.6779ZM14.7279 14.8279V13.9779H14.1888L13.959 14.4655L14.7279 14.8279ZM13.4688 15.7502L13.901 15.0183L13.4688 15.7502ZM12.9747 15.8899L13.7417 16.2563L12.9747 15.8899ZM12.0389 16.0024L11.6158 15.2652L12.0389 16.0024ZM11.5463 16.1752L11.4252 15.3338L11.5463 16.1752ZM11.0829 16.0195L10.5053 16.6431L11.0829 16.0195ZM10.2107 15.5701L9.86951 16.3487L10.2107 15.5701ZM9.71874 15.4425L9.62021 16.2868H9.62021L9.71874 15.4425ZM9.23639 14.8282L9.22815 13.9783L9.23186 15.6782L9.23639 14.8282ZM9.27188 14.8279L9.28011 15.6778L9.27188 13.9779V14.8279ZM9.17188 13.9779C8.70243 13.9779 8.32187 14.3584 8.32187 14.8279C8.32187 15.2973 8.70243 15.6779 9.17188 15.6779V14.8279V13.9779ZM14.8279 14.8279V13.9779H14.7279V14.8279V15.6779H14.8279V14.8279ZM14.7279 14.8279L13.959 14.4655C13.9107 14.5679 13.8708 14.6347 13.8424 14.675C13.8126 14.7173 13.8078 14.7126 13.8361 14.6917L14.3422 15.3746L14.8484 16.0575C15.1503 15.8337 15.3522 15.497 15.4968 15.1902L14.7279 14.8279ZM14.3422 15.3746L13.8361 14.6917C13.6403 14.8368 13.4662 15.0087 13.3116 15.2008L13.9738 15.7337L14.636 16.2667C14.7103 16.1743 14.7818 16.1068 14.8484 16.0575L14.3422 15.3746ZM13.9738 15.7337L13.3116 15.2008C13.3459 15.1582 13.402 15.1043 13.4843 15.0613C13.5684 15.0174 13.6557 14.9975 13.734 14.995C13.8756 14.9903 13.9416 15.0423 13.901 15.0183L13.4688 15.7502L13.0366 16.4821C13.2182 16.5894 13.4795 16.7042 13.7894 16.694C14.1436 16.6825 14.4382 16.5124 14.636 16.2667L13.9738 15.7337ZM13.4688 15.7502L13.901 15.0183C13.6907 14.8941 13.3454 14.7562 12.9473 14.8688C12.5393 14.9841 12.3179 15.2928 12.2077 15.5236L12.9747 15.8899L13.7417 16.2563C13.7386 16.2626 13.6531 16.4358 13.4099 16.5046C13.2967 16.5366 13.1978 16.5301 13.1312 16.5155C13.0993 16.5085 13.0755 16.4999 13.0606 16.4937C13.0458 16.4875 13.0377 16.4828 13.0366 16.4821L13.4688 15.7502ZM12.9747 15.8899L12.2077 15.5236C12.1924 15.5555 12.2596 15.3847 12.496 15.2986C12.7739 15.1974 12.9817 15.316 13.0176 15.34L12.5449 16.0464L12.0722 16.7529C12.2874 16.8969 12.6565 17.0494 13.0777 16.896C13.4573 16.7578 13.6498 16.4487 13.7417 16.2563L12.9747 15.8899ZM12.5449 16.0464L13.0176 15.34C12.8408 15.2217 12.6186 15.1213 12.3576 15.0986C12.087 15.075 11.8333 15.1403 11.6158 15.2652L12.0389 16.0024L12.462 16.7396C12.4025 16.7738 12.312 16.8011 12.2101 16.7922C12.1178 16.7842 12.0696 16.7511 12.0722 16.7529L12.5449 16.0464ZM12.0389 16.0024L11.6158 15.2652C11.5456 15.3055 11.4833 15.3255 11.4252 15.3338L11.5463 16.1752L11.6674 17.0165C11.9502 16.9758 12.2163 16.8806 12.462 16.7396L12.0389 16.0024ZM11.5463 16.1752L11.4252 15.3338C11.4639 15.3283 11.5174 15.3301 11.5733 15.3489C11.6268 15.3669 11.6554 15.3912 11.6605 15.3959L11.0829 16.0195L10.5053 16.6431C10.8113 16.9265 11.2165 17.0814 11.6674 17.0165L11.5463 16.1752ZM11.0829 16.0195L11.6605 15.3959C11.4544 15.205 11.2153 15.0462 10.941 14.947L10.652 15.7464L10.3631 16.5458C10.3862 16.5541 10.4344 16.5774 10.5053 16.6431L11.0829 16.0195ZM10.652 15.7464L10.941 14.947C10.8099 14.8997 10.6802 14.8479 10.5519 14.7916L10.2107 15.5701L9.86951 16.3487C10.0321 16.4199 10.1966 16.4856 10.3631 16.5458L10.652 15.7464ZM10.2107 15.5701L10.5519 14.7916C10.3182 14.6892 10.0706 14.6279 9.81728 14.5983L9.71874 15.4425L9.62021 16.2868C9.73181 16.2998 9.81219 16.3235 9.86951 16.3487L10.2107 15.5701ZM9.71874 15.4425L9.81728 14.5983C9.87551 14.6051 9.97965 14.635 10.0756 14.7246C10.1667 14.8097 10.193 14.895 10.198 14.9153L9.37296 15.1196L8.54788 15.3239C8.60094 15.5382 8.70893 15.7743 8.91524 15.967C9.12648 16.1643 9.3795 16.2587 9.62021 16.2868L9.71874 15.4425ZM9.37296 15.1196L10.198 14.9153C10.17 14.8021 10.1309 14.6651 10.0724 14.5405C10.0446 14.4812 9.9908 14.3768 9.89796 14.2747C9.81109 14.1792 9.59101 13.9801 9.24092 13.9782L9.23639 14.8282L9.23186 15.6782C8.90326 15.6765 8.70501 15.4896 8.64027 15.4184C8.56956 15.3407 8.53817 15.2727 8.53314 15.262C8.52023 15.2344 8.52787 15.2431 8.54788 15.3239L9.37296 15.1196ZM9.23639 14.8282L9.24462 15.6782L9.28011 15.6778L9.27188 14.8279L9.26364 13.9779L9.22815 13.9783L9.23639 14.8282ZM9.27188 14.8279V13.9779H9.17188V14.8279V15.6779H9.27188V14.8279Z" fill="#D8F789"/>
</g>
<defs>
<clipPath id="clip0_362_10016">
<rect width="24" height="24" fill="white"/>
</clipPath>
</defs>
</svg>
