<svg width="24" height="24" viewBox="0 0 24 24" fill="none" xmlns="http://www.w3.org/2000/svg">
<path xmlns="http://www.w3.org/2000/svg" id="Vector" d="M3.4715 7.29276C3.0809 7.03236 2.55316 7.13791 2.29276 7.5285C2.03236 7.9191 2.13791 8.44684 2.5285 8.70724L3 8L3.4715 7.29276ZM3.08321 8.05547L3.59918 7.37999L3.57745 7.36339L3.5547 7.34823L3.08321 8.05547ZM5.8626 10.0347L5.88166 10.8845L5.8626 10.0347ZM8.62195 11.3203L8.27269 12.0952L8.62195 11.3203ZM11.8961 13.7393L11.6488 14.5526L11.8961 13.7393ZM12.8167 13.4669L13.4575 14.0253L12.8167 13.4669ZM13.5994 12.7295L13.0904 12.0488L13.5994 12.7295ZM15.3486 11.7369L15.5641 12.5591L15.3486 11.7369ZM16.3194 11.3849L16.6841 12.1527L16.3194 11.3849ZM17.112 10.7656L17.765 11.3097L17.112 10.7656ZM18.9229 9.86557L19.4721 10.5143L18.9229 9.86557ZM20.3022 8.3182L20.2578 7.46936L20.3022 8.3182ZM20.9423 8.14389L21.7313 8.46018L21.84 8.18893L21.759 7.90816L20.9423 8.14389ZM20.9168 8.05547L20.4453 7.34823L19.9276 7.69338L20.1001 8.2912L20.9168 8.05547ZM21.4715 8.70724C21.8621 8.44684 21.9676 7.9191 21.7072 7.5285C21.4468 7.13791 20.9191 7.03236 20.5285 7.29276L21 8L21.4715 8.70724ZM8.5105 19.0326L8.17174 19.8122L8.5105 19.0326ZM10.5165 18.7126L10.7655 19.5253L10.5165 18.7126ZM17.5375 19.1946L17.104 18.4634L17.5375 19.1946ZM19.4704 19.0091L18.8382 18.4409L19.4704 19.0091ZM20.3419 18.318L20.7207 19.079L20.3419 18.318ZM21.1092 13.58L21.8148 13.1061L21.1092 13.58ZM21.0662 12.577L20.3328 12.1473L21.0662 12.577ZM19.7773 4.83821L20.0921 4.04863L19.7773 4.83821ZM16.6855 5.08685L16.5413 4.24918L16.6855 5.08685ZM3.83129 5.49925L3.16392 4.97283L3.83129 5.49925ZM2.95015 9.22394L2.23983 8.75708L2.95015 9.22394ZM2.72313 17.2834L3.52404 16.9987L2.72313 17.2834ZM3 8L2.5285 8.70724L2.61171 8.76271L3.08321 8.05547L3.5547 7.34823L3.4715 7.29276L3 8ZM3.08321 8.05547L2.56723 8.73095C3.02242 9.07865 3.30075 9.34871 3.44817 9.54193L4.12395 9.02635L4.79973 8.51078C4.51827 8.14186 4.10277 7.76466 3.59918 7.37999L3.08321 8.05547ZM4.12395 9.02635L3.44817 9.54193C3.70782 9.88226 4.00486 10.1796 4.33997 10.4296L4.84816 9.74821L5.35636 9.06686C5.15472 8.91647 4.96896 8.73259 4.79973 8.51078L4.12395 9.02635ZM4.84816 9.74821L4.33997 10.4296C4.79137 10.7662 5.32678 10.897 5.88166 10.8845L5.8626 10.0347L5.84354 9.18495C5.58259 9.19081 5.4417 9.13052 5.35636 9.06686L4.84816 9.74821ZM5.8626 10.0347L5.88166 10.8845C5.92118 10.8836 5.94192 10.8876 5.94847 10.8891C5.95398 10.8904 5.94911 10.8899 5.93947 10.884C5.93512 10.8814 5.93124 10.8785 5.92811 10.8758C5.92501 10.8731 5.92361 10.8714 5.92377 10.8716C5.92401 10.8719 5.93279 10.8824 5.94559 10.9105L6.71913 10.5581L7.49267 10.2058C7.3534 9.90004 7.13758 9.62389 6.82588 9.43342C6.51636 9.24428 6.17439 9.17753 5.84354 9.18495L5.8626 10.0347ZM6.71913 10.5581L5.94559 10.9105C6.08231 11.2106 6.29088 11.4828 6.58997 11.6765C6.88843 11.8697 7.22144 11.9488 7.54965 11.9532L7.56113 11.1033L7.57261 10.2534C7.53621 10.2529 7.51691 10.2486 7.51034 10.2468C7.50468 10.2452 7.50748 10.2453 7.51394 10.2495C7.52045 10.2537 7.52254 10.2568 7.52011 10.2538C7.51708 10.2502 7.50658 10.2363 7.49267 10.2058L6.71913 10.5581ZM7.56113 11.1033L7.54965 11.9532C7.85149 11.9573 8.08692 12.0115 8.27269 12.0952L8.62195 11.3203L8.97121 10.5453C8.53901 10.3506 8.06723 10.2601 7.57261 10.2534L7.56113 11.1033ZM8.62195 11.3203L8.27269 12.0952C8.55037 12.2204 8.81701 12.3607 9.07286 12.5162L9.51434 11.7899L9.95583 11.0635C9.63978 10.8714 9.31149 10.6987 8.97121 10.5453L8.62195 11.3203ZM9.51434 11.7899L9.07286 12.5162C9.24679 12.6219 9.40444 12.7701 9.54427 12.976L10.2474 12.4984L10.9506 12.0209C10.6849 11.6296 10.3538 11.3054 9.95583 11.0635L9.51434 11.7899ZM10.2474 12.4984L9.54427 12.976C9.7936 13.3431 10.0886 13.6632 10.4303 13.9303L10.9538 13.2607L11.4773 12.591C11.2827 12.4389 11.1068 12.2509 10.9506 12.0209L10.2474 12.4984ZM10.9538 13.2607L10.4303 13.9303C10.7891 14.2109 11.1992 14.4158 11.6488 14.5526L11.8961 13.7393L12.1434 12.9261C11.8729 12.8438 11.6547 12.7297 11.4773 12.591L10.9538 13.2607ZM11.8961 13.7393L11.6488 14.5526C11.9594 14.647 12.2981 14.6688 12.6375 14.5684C12.9752 14.4685 13.2467 14.2673 13.4575 14.0253L12.8167 13.4669L12.1758 12.9085C12.1537 12.934 12.1403 12.9436 12.1379 12.9453C12.1363 12.9463 12.1424 12.9421 12.1551 12.9383C12.161 12.9366 12.1666 12.9354 12.1715 12.9348C12.1764 12.9342 12.1794 12.9342 12.18 12.9342C12.1814 12.9343 12.17 12.9342 12.1434 12.9261L11.8961 13.7393ZM12.8167 13.4669L13.4575 14.0253C13.6776 13.7728 13.8951 13.5697 14.1084 13.4102L13.5994 12.7295L13.0904 12.0488C12.7674 12.2903 12.4631 12.5788 12.1758 12.9085L12.8167 13.4669ZM13.5994 12.7295L14.1084 13.4102C14.3646 13.2187 14.6254 13.0342 14.8909 12.8567L14.4186 12.15L13.9462 11.4434C13.6558 11.6375 13.3705 11.8393 13.0904 12.0488L13.5994 12.7295ZM14.4186 12.15L14.8909 12.8567C15.0858 12.7264 15.3082 12.6262 15.5641 12.5591L15.3486 11.7369L15.1331 10.9146C14.7049 11.0269 14.3072 11.2021 13.9462 11.4434L14.4186 12.15ZM15.3486 11.7369L15.5641 12.5591C15.9551 12.4566 16.3289 12.3215 16.6841 12.1527L16.3194 11.3849L15.9546 10.6172C15.6996 10.7383 15.4262 10.8378 15.1331 10.9146L15.3486 11.7369ZM16.3194 11.3849L16.6841 12.1527C17.1041 11.9532 17.4656 11.669 17.765 11.3097L17.112 10.7656L16.4589 10.2215C16.3119 10.398 16.145 10.5267 15.9546 10.6172L16.3194 11.3849ZM17.112 10.7656L17.765 11.3097C17.8485 11.2095 17.9523 11.1445 18.1246 11.1174L17.9922 10.2777L17.8598 9.43812C17.3049 9.52561 16.8219 9.78587 16.4589 10.2215L17.112 10.7656ZM17.9922 10.2777L18.1246 11.1174C18.6271 11.0381 19.0854 10.8417 19.4721 10.5143L18.9229 9.86557L18.3736 9.21685C18.2466 9.32436 18.0845 9.40269 17.8598 9.43812L17.9922 10.2777ZM18.9229 9.86557L19.4721 10.5143C19.871 10.1765 20.1425 9.72744 20.3173 9.22171L19.5139 8.94401L18.7106 8.66631C18.611 8.95442 18.4884 9.1197 18.3736 9.21685L18.9229 9.86557ZM19.5139 8.94401L20.3173 9.22171C20.3319 9.17946 20.3445 9.15793 20.3496 9.15009C20.3542 9.14318 20.3525 9.14756 20.3424 9.15557C20.3319 9.16389 20.3217 9.16877 20.3164 9.17061C20.3123 9.17207 20.3204 9.16841 20.3465 9.16704L20.3022 8.3182L20.2578 7.46936C19.9162 7.48721 19.5763 7.59319 19.2854 7.82416C18.9989 8.05158 18.8188 8.35336 18.7106 8.66631L19.5139 8.94401ZM20.3022 8.3182L20.3465 9.16704C20.563 9.15573 20.7837 9.13213 20.9768 9.07954C21.0731 9.05331 21.1992 9.01031 21.3242 8.93386C21.4471 8.85868 21.6299 8.7131 21.7313 8.46018L20.9423 8.14389L20.1534 7.82759C20.2355 7.62263 20.3772 7.52029 20.4372 7.48362C20.4992 7.44568 20.5404 7.43646 20.5301 7.43927C20.5098 7.44479 20.4296 7.46038 20.2578 7.46936L20.3022 8.3182ZM20.9423 8.14389L21.759 7.90816L21.7335 7.81974L20.9168 8.05547L20.1001 8.2912L20.1257 8.37962L20.9423 8.14389ZM20.9168 8.05547L21.3883 8.76271L21.4715 8.70724L21 8L20.5285 7.29276L20.4453 7.34823L20.9168 8.05547ZM5.5015 18.8429L5.75561 19.654C5.99503 19.579 6.22504 19.5516 6.45055 19.566L6.5045 18.7177L6.55845 17.8694C6.11529 17.8412 5.67664 17.8973 5.24739 18.0318L5.5015 18.8429ZM6.5045 18.7177L6.45055 19.566C6.78452 19.5872 7.11849 19.6087 7.45246 19.6303L7.5075 18.7821L7.56254 17.9339C7.22784 17.9122 6.89315 17.8907 6.55845 17.8694L6.5045 18.7177ZM7.5075 18.7821L7.45246 19.6303C7.68071 19.6451 7.9194 19.7025 8.17174 19.8122L8.5105 19.0326L8.84926 18.253C8.43294 18.0721 8.00296 17.9625 7.56254 17.9339L7.5075 18.7821ZM8.5105 19.0326L8.17174 19.8122C8.70606 20.0443 9.27115 20.0615 9.81753 19.8522L9.5135 19.0584L9.20947 18.2646C9.08718 18.3115 8.9836 18.3114 8.84926 18.253L8.5105 19.0326ZM9.5135 19.0584L9.81753 19.8522C10.1342 19.7309 10.4502 19.622 10.7655 19.5253L10.5165 18.7126L10.2675 17.8999C9.91414 18.0082 9.56148 18.1298 9.20947 18.2646L9.5135 19.0584ZM10.5165 18.7126L10.7655 19.5253C10.7901 19.5178 10.848 19.4918 11.0123 19.6139L11.5195 18.9318L12.0267 18.2497C11.5223 17.8747 10.9115 17.7026 10.2675 17.8999L10.5165 18.7126ZM11.5195 18.9318L11.0123 19.6139C11.473 19.9564 12.0116 20.1593 12.6022 20.1037L12.5225 19.2574L12.4428 18.4112C12.3648 18.4185 12.2347 18.4044 12.0267 18.2497L11.5195 18.9318ZM12.5225 19.2574L12.6022 20.1037C13.1079 20.0561 13.578 19.8609 14.0069 19.5661L13.5255 18.8656L13.0441 18.165C12.8043 18.3298 12.6058 18.3958 12.4428 18.4112L12.5225 19.2574ZM13.5255 18.8656L14.0069 19.5661C14.0298 19.5504 14.0349 19.5512 14.0225 19.555C14.0162 19.5569 14.0068 19.5591 13.9948 19.5604C13.9827 19.5618 13.9701 19.562 13.9575 19.5609C13.9451 19.5599 13.9349 19.5579 13.9275 19.5558C13.9203 19.5539 13.9172 19.5523 13.9183 19.5528C13.9212 19.5542 13.9413 19.5642 13.9775 19.595L14.5285 18.9478L15.0795 18.3006C14.8184 18.0783 14.4888 17.8988 14.0965 17.8666C13.6958 17.8338 13.3375 17.9634 13.0441 18.165L13.5255 18.8656ZM14.5285 18.9478L13.9775 19.595C14.2458 19.8234 14.5921 20.0064 15.0063 20.0179C15.424 20.0296 15.7811 19.8633 16.0606 19.641L15.5315 18.9758L15.0024 18.3106C14.974 18.3332 14.965 18.3344 14.9762 18.3301C14.9898 18.3249 15.0175 18.3176 15.0537 18.3186C15.0896 18.3196 15.1137 18.3282 15.1213 18.3315C15.1268 18.3339 15.1124 18.3286 15.0795 18.3006L14.5285 18.9478ZM15.5315 18.9758L16.0606 19.641C16.087 19.62 16.0925 19.6214 16.0762 19.6274C16.0571 19.6345 16.024 19.6419 15.9834 19.6396C15.9437 19.6372 15.9186 19.6268 15.9126 19.6239C15.9088 19.622 15.9258 19.6296 15.9616 19.6624L16.5345 19.0344L17.1074 18.4064C16.8467 18.1686 16.503 17.967 16.0826 17.9424C15.6539 17.9174 15.2867 18.0844 15.0024 18.3106L15.5315 18.9758ZM16.5345 19.0344L15.9616 19.6624C16.211 19.8898 16.5244 20.0823 16.902 20.1426C17.2937 20.2051 17.6598 20.1102 17.971 19.9257L17.5375 19.1946L17.104 18.4634C17.0885 18.4726 17.0898 18.469 17.1068 18.4653C17.1151 18.4635 17.1254 18.4621 17.1372 18.4618C17.149 18.4614 17.1602 18.4622 17.17 18.4638C17.1906 18.4671 17.1968 18.4722 17.1868 18.4668C17.1756 18.4608 17.1487 18.4442 17.1074 18.4064L16.5345 19.0344ZM17.5375 19.1946L17.971 19.9257C18.0016 19.9076 18.0221 19.8999 18.0328 19.8967C18.0429 19.8937 18.0471 19.8937 18.0475 19.8937C18.0479 19.8937 18.0521 19.8936 18.0622 19.8964C18.073 19.8995 18.0936 19.9068 18.1245 19.9244L18.5455 19.186L18.9665 18.4476C18.3634 18.1037 17.7012 18.1094 17.104 18.4634L17.5375 19.1946ZM18.5455 19.186L18.1245 19.9244C18.4258 20.0962 18.7925 20.197 19.1896 20.121C19.5781 20.0467 19.8797 19.8253 20.1026 19.5773L19.4704 19.0091L18.8382 18.4409C18.7822 18.5033 18.7901 18.4666 18.8703 18.4513C18.9084 18.444 18.9424 18.4461 18.9653 18.4508C18.986 18.4551 18.9868 18.4592 18.9665 18.4476L18.5455 19.186ZM19.4704 19.0091L20.1026 19.5773C20.3264 19.3283 20.5343 19.1717 20.7207 19.079L20.3419 18.318L19.9632 17.5571C19.5455 17.7649 19.1724 18.0691 18.8382 18.4409L19.4704 19.0091ZM20.3419 18.318L20.7207 19.079C20.9925 18.9437 21.244 18.7377 21.4121 18.4398C21.58 18.1422 21.6264 17.8208 21.6029 17.5191L20.7555 17.5851L19.908 17.6511C19.9096 17.6709 19.9074 17.6728 19.9096 17.6614C19.912 17.649 19.9182 17.6281 19.9315 17.6044C19.9449 17.5806 19.9599 17.5641 19.9701 17.555C19.9794 17.5466 19.9798 17.5488 19.9632 17.5571L20.3419 18.318ZM20.7555 17.5851L21.6029 17.5191C21.5916 17.3739 21.6222 17.21 21.7386 17.0097L21.0037 16.5826L20.2688 16.1555C20.0015 16.6154 19.8666 17.1198 19.908 17.6511L20.7555 17.5851ZM21.0037 16.5826L21.7386 17.0097C21.9922 16.5733 22.1413 16.1021 22.1523 15.6048L21.3025 15.586L20.4527 15.5672C20.4489 15.7387 20.3988 15.9319 20.2688 16.1555L21.0037 16.5826ZM21.3025 15.586L22.1523 15.6048C22.159 15.3017 22.1824 14.9982 22.2225 14.6943L21.3798 14.583L20.5371 14.4718C20.489 14.8365 20.4608 15.2017 20.4527 15.5672L21.3025 15.586ZM21.3798 14.583L22.2225 14.6943C22.2988 14.1163 22.1312 13.5772 21.8148 13.1061L21.1092 13.58L20.4036 14.0539C20.5363 14.2515 20.5491 14.3811 20.5371 14.4718L21.3798 14.583ZM21.1092 13.58L21.8148 13.1061C21.7928 13.0733 21.7839 13.0524 21.7807 13.0433C21.7777 13.0351 21.779 13.0355 21.7793 13.0421C21.7795 13.0489 21.7784 13.0527 21.779 13.0505C21.7798 13.0474 21.7842 13.033 21.7996 13.0067L21.0662 12.577L20.3328 12.1473C20.1656 12.4327 20.0656 12.76 20.0808 13.1149C20.0959 13.4675 20.2219 13.7835 20.4036 14.0539L21.1092 13.58ZM21.0662 12.577L21.7996 13.0067C21.9694 12.7169 22.0684 12.3831 22.0454 12.0216C22.0227 11.6639 21.8849 11.3476 21.6945 11.0805L21.0024 11.574L20.3103 12.0675C20.3347 12.1017 20.3446 12.1234 20.3481 12.1325C20.3513 12.1406 20.3495 12.1388 20.3489 12.1295C20.3486 12.1253 20.3487 12.1211 20.3491 12.1173C20.3492 12.1155 20.3495 12.1141 20.3497 12.113C20.3498 12.112 20.35 12.1115 20.35 12.1115C20.35 12.1115 20.3492 12.1144 20.3468 12.1202C20.3443 12.126 20.34 12.1351 20.3328 12.1473L21.0662 12.577ZM21.0024 11.574L21.6945 11.0805C21.5255 10.8435 21.4643 10.6536 21.4524 10.5039L20.6051 10.571L19.7577 10.6382C19.7989 11.1571 20.0025 11.6358 20.3103 12.0675L21.0024 11.574ZM20.6051 10.571L21.4524 10.5039C21.4285 10.2018 21.4219 9.90003 21.4326 9.59825L20.5832 9.56802L19.7337 9.53779C19.7207 9.90468 19.7287 10.2715 19.7577 10.6382L20.6051 10.571ZM20.5832 9.56802L21.4326 9.59825C21.436 9.50281 21.4773 9.34329 21.6722 9.10985L21.0198 8.56502L20.3674 8.02019C20.0039 8.45542 19.7541 8.96456 19.7337 9.53779L20.5832 9.56802ZM21.0198 8.56502L21.6722 9.10985C21.888 8.85143 22.0608 8.53151 22.1013 8.15433C22.1428 7.76809 22.0358 7.41363 21.85 7.11403L21.1276 7.56202L20.4052 8.01001C20.4178 8.03029 20.4169 8.03467 20.4141 8.02385C20.4128 8.01856 20.4113 8.01085 20.4106 8.00126C20.4099 7.99161 20.41 7.98189 20.411 7.97271C20.4131 7.9533 20.4177 7.94551 20.4147 7.95191C20.4111 7.95953 20.3988 7.98261 20.3674 8.02019L21.0198 8.56502ZM21.1276 7.56202L21.85 7.11403C21.74 6.93671 21.7191 6.79503 21.7409 6.65699L20.9014 6.52425L20.0618 6.39152C19.9706 6.9685 20.1005 7.51866 20.4052 8.01001L21.1276 7.56202ZM20.9014 6.52425L21.7409 6.65699C21.8341 6.06751 21.69 5.51101 21.3481 5.02982L20.6552 5.5221L19.9622 6.01438C20.0617 6.15437 20.0816 6.26597 20.0618 6.39152L20.9014 6.52425ZM20.6552 5.5221L21.3481 5.02982C21.0297 4.58159 20.6039 4.25265 20.0921 4.04863L19.7773 4.83821L19.4625 5.62778C19.6799 5.71444 19.8394 5.84144 19.9622 6.01438L20.6552 5.5221ZM19.7773 4.83821L20.0921 4.04863C19.4199 3.78066 18.755 3.9143 18.2007 4.32941L18.7102 5.00977L19.2198 5.69012C19.3051 5.62617 19.355 5.61405 19.372 5.61131C19.3848 5.60926 19.4097 5.60672 19.4625 5.62778L19.7773 4.83821ZM18.7102 5.00977L18.2007 4.32941C18.1062 4.40015 18.053 4.41387 18.0392 4.41644C18.0323 4.41771 18.0293 4.41747 18.0276 4.4173C18.0257 4.4171 18.0179 4.41615 18.0026 4.41007L17.6885 5.19992L17.3745 5.98976C18.0433 6.25574 18.6926 6.08494 19.2198 5.69012L18.7102 5.00977ZM17.6885 5.19992L18.0026 4.41007C17.532 4.22293 17.0394 4.16341 16.5413 4.24918L16.6855 5.08685L16.8298 5.92452C17.0004 5.89514 17.1764 5.911 17.3745 5.98976L17.6885 5.19992ZM16.6855 5.08685L16.5413 4.24918C16.4006 4.27341 16.2469 4.25735 16.0568 4.16411L15.6825 4.92728L15.3083 5.69045C15.7868 5.92511 16.3018 6.01544 16.8298 5.92452L16.6855 5.08685ZM15.6825 4.92728L16.0568 4.16411C15.4789 3.8807 14.862 3.88969 14.2914 4.18248L14.6795 4.93871L15.0676 5.69494C15.1658 5.64456 15.2175 5.64593 15.3083 5.69045L15.6825 4.92728ZM14.6795 4.93871L14.2914 4.18248C14.2402 4.20878 14.2201 4.20625 14.2193 4.20621C14.2166 4.20609 14.1859 4.20503 14.1194 4.16445L13.6765 4.88999L13.2337 5.61553C13.8078 5.96589 14.4566 6.00852 15.0676 5.69494L14.6795 4.93871ZM13.6765 4.88999L14.1194 4.16445C13.6524 3.87946 13.1324 3.73356 12.582 3.79319L12.6735 4.63824L12.7651 5.4833C12.8834 5.47049 13.032 5.49242 13.2337 5.61553L13.6765 4.88999ZM12.6735 4.63824L12.582 3.79319C12.1345 3.84167 11.7015 3.97814 11.2861 4.18885L11.6705 4.94693L12.055 5.705C12.3082 5.57658 12.5439 5.50726 12.7651 5.4833L12.6735 4.63824ZM11.6705 4.94693L11.2861 4.18885C11.108 4.27916 10.972 4.28904 10.8472 4.26204L10.6675 5.09284L10.4879 5.92364C11.0317 6.04123 11.5644 5.95383 12.055 5.705L11.6705 4.94693ZM10.6675 5.09284L10.8472 4.26204C10.5082 4.18873 10.1691 4.11843 9.83004 4.05112L9.66454 4.88485L9.49904 5.71858C9.82863 5.78401 10.1583 5.85236 10.4879 5.92364L10.6675 5.09284ZM9.66454 4.88485L9.83004 4.05112C9.49265 3.98414 9.15525 3.9191 8.81784 3.85598L8.66154 4.69148L8.50524 5.52699C8.8365 5.58896 9.16776 5.65282 9.49904 5.71858L9.66454 4.88485ZM8.66154 4.69148L8.81784 3.85598C8.20395 3.74114 7.63607 3.92781 7.15676 4.27836L7.65854 4.96445L8.16032 5.65054C8.34967 5.51205 8.45046 5.51674 8.50524 5.52699L8.66154 4.69148ZM7.65854 4.96445L7.15676 4.27836C6.95549 4.42556 6.83436 4.43349 6.76247 4.42438L6.65554 5.26763L6.54861 6.11087C7.14539 6.18655 7.69293 5.99237 8.16032 5.65054L7.65854 4.96445ZM6.65554 5.26763L6.76247 4.42438C6.42159 4.38115 6.08068 4.34195 5.73975 4.30679L5.65254 5.1523L5.56533 5.99782C5.89307 6.03162 6.22082 6.0693 6.54861 6.11087L6.65554 5.26763ZM5.65254 5.1523L5.73975 4.30679C5.37466 4.26913 5.00829 4.25144 4.64077 4.25368L4.64597 5.10367L4.65117 5.95365C4.95708 5.95178 5.26175 5.96651 5.56533 5.99782L5.65254 5.1523ZM4.64597 5.10367L4.64077 4.25368C4.04874 4.25731 3.53231 4.50582 3.16392 4.97283L3.83129 5.49925L4.49865 6.02568C4.53076 5.98497 4.55223 5.97301 4.56104 5.96873C4.57011 5.96433 4.59491 5.954 4.65117 5.95365L4.64597 5.10367ZM3.83129 5.49925L3.16392 4.97283C2.98997 5.19335 2.77774 5.42006 2.52367 5.65214L3.09693 6.27973L3.67019 6.90732C3.98245 6.62209 4.25979 6.32849 4.49865 6.02568L3.83129 5.49925ZM3.09693 6.27973L2.52367 5.65214C2.28253 5.8724 2.08288 6.16066 2.00423 6.52087C1.92548 6.88155 1.9871 7.22715 2.11604 7.52822L2.8974 7.19358L3.67875 6.85893C3.66755 6.83279 3.66764 6.82438 3.66857 6.83163C3.66968 6.84033 3.67039 6.85928 3.6651 6.88351C3.65982 6.90769 3.6514 6.9241 3.64733 6.93066C3.64402 6.93599 3.64821 6.9274 3.67019 6.90732L3.09693 6.27973ZM2.8974 7.19358L2.11604 7.52822C2.24181 7.82188 2.32128 8.09622 2.36143 8.35251L3.20119 8.22094L4.04094 8.08937C3.97634 7.67699 3.85327 7.26642 3.67875 6.85893L2.8974 7.19358ZM3.20119 8.22094L2.36143 8.35251C2.37532 8.44115 2.36599 8.56514 2.23983 8.75708L2.95015 9.22394L3.66046 9.6908C3.97379 9.21407 4.13182 8.66939 4.04094 8.08937L3.20119 8.22094ZM2.95015 9.22394L2.23983 8.75708C1.92886 9.23022 1.7684 9.76937 1.8489 10.3447L2.6907 10.2269L3.5325 10.1092C3.51944 10.0158 3.53195 9.88632 3.66046 9.6908L2.95015 9.22394ZM2.6907 10.2269L1.8489 10.3447C1.89673 10.6866 1.94925 11.0284 2.00645 11.3702L2.84479 11.2299L3.68313 11.0896C3.62843 10.7628 3.57822 10.4359 3.5325 10.1092L2.6907 10.2269ZM2.84479 11.2299L2.00645 11.3702C2.03469 11.5389 2.01801 11.714 1.93724 11.9123L2.72444 12.2329L3.51163 12.5536C3.70324 12.0832 3.76681 11.5896 3.68313 11.0896L2.84479 11.2299ZM2.72444 12.2329L1.93724 11.9123C1.74544 12.3831 1.68225 12.8773 1.76689 13.3777L2.60499 13.2359L3.44308 13.0942C3.41462 12.9259 3.43106 12.7514 3.51163 12.5536L2.72444 12.2329ZM2.60499 13.2359L1.76689 13.3777C1.82508 13.7217 1.88934 14.0655 1.95968 14.4093L2.79242 14.2389L3.62517 14.0686C3.5587 13.7437 3.49801 13.4189 3.44308 13.0942L2.60499 13.2359ZM2.79242 14.2389L1.95968 14.4093C2.00608 14.6361 2.00785 14.8593 1.96545 15.0851L2.80085 15.2419L3.63624 15.3988C3.71942 14.9559 3.71558 14.5104 3.62517 14.0686L2.79242 14.2389ZM2.80085 15.2419L1.96545 15.0851C1.90196 15.4231 1.84082 15.7612 1.78202 16.0993L2.61946 16.2449L3.45689 16.3906C3.51437 16.06 3.57416 15.7294 3.63624 15.3988L2.80085 15.2419ZM2.61946 16.2449L1.78202 16.0993C1.69592 16.5945 1.75193 17.0891 1.92223 17.5681L2.72313 17.2834L3.52404 16.9987C3.43982 16.7618 3.42672 16.5641 3.45689 16.3906L2.61946 16.2449ZM2.72313 17.2834L1.92223 17.5681C2.10123 18.0717 2.40201 18.499 2.82549 18.8232L3.34221 18.1483L3.85892 17.4734C3.71149 17.3605 3.59955 17.2112 3.52404 16.9987L2.72313 17.2834ZM3.34221 18.1483L2.82549 18.8232C3.07962 19.0177 3.3248 19.2334 3.56094 19.4709L4.16363 18.8715L4.76632 18.2721C4.47815 17.9823 4.17571 17.7159 3.85892 17.4734L3.34221 18.1483ZM4.16363 18.8715L3.56094 19.4709C3.7245 19.6353 3.93215 19.8107 4.18076 19.9167C4.45333 20.0328 4.84312 20.0867 5.21697 19.8616L4.77843 19.1334L4.33989 18.4053C4.43727 18.3467 4.54747 18.3176 4.65295 18.3171C4.7509 18.3167 4.81886 18.3407 4.84713 18.3527C4.87494 18.3646 4.8796 18.3712 4.86008 18.3566C4.84166 18.3427 4.81045 18.3165 4.76632 18.2721L4.16363 18.8715ZM4.77843 19.1334L5.21697 19.8616C5.27367 19.8274 5.43391 19.7548 5.75561 19.654L5.5015 18.8429L5.24739 18.0318C4.90042 18.1405 4.57862 18.2615 4.33989 18.4053L4.77843 19.1334Z" fill="#D8F789" />

</svg>