<svg width="24" height="24" viewBox="0 0 24 24" fill="none" xmlns="http://www.w3.org/2000/svg">
<path xmlns="http://www.w3.org/2000/svg" id="Vector" d="M1.91798 16.7837L1.18323 16.3564L1.91798 16.7837ZM2.05995 16.5396L2.79471 16.967L2.05995 16.5396ZM2.51001 15.2961L1.67714 15.1263L2.51001 15.2961ZM2.95695 14.0513L2.21985 13.628L2.95695 14.0513ZM3.0272 13.929L3.7643 14.3523L3.0272 13.929ZM3.09746 13.8067L2.36035 13.3834L3.09746 13.8067ZM3.90185 12.9526L3.43436 12.2427L3.90185 12.9526ZM4.02028 12.8746L4.48777 13.5845L4.02028 12.8746ZM4.13871 12.7967L3.67122 12.0868L4.13871 12.7967ZM5.12887 12.1412L5.59985 12.8488L5.12887 12.1412ZM5.35653 11.9896L4.88555 11.282L5.35653 11.9896ZM6.33944 11.3292L5.86239 10.6257L6.33944 11.3292ZM6.45618 11.25L5.97913 10.5465L6.45618 11.25ZM9.39226 10.7814L9.19949 11.6093L9.39226 10.7814ZM10.5887 10.7434L10.3535 9.92661L10.5887 10.7434ZM10.7313 10.7024L10.9664 11.5192L10.7313 10.7024ZM12.0335 10.7325L12.38 9.95636L12.0335 10.7325ZM12.1629 10.7903L11.8165 11.5665L12.1629 10.7903ZM12.2923 10.8481L12.6388 10.0719L12.2923 10.8481ZM13.4236 11.2788L13.6814 10.4688L13.4236 11.2788ZM13.5596 11.322L13.3018 12.132L13.5596 11.322ZM14.6413 12.0502L13.9552 12.552L14.6413 12.0502ZM15.6104 13.1782L15.0379 13.8066L15.6104 13.1782ZM15.7115 13.2704L16.2839 12.642L15.7115 13.2704ZM15.8127 13.3626L15.2403 13.991L15.8127 13.3626ZM16.6033 14.226L15.9277 14.7419L16.6033 14.226ZM16.6876 14.3364L17.3632 13.8206L16.6876 14.3364ZM16.7719 14.4468L17.4475 13.9309L16.7719 14.4468ZM17.4472 15.4382L18.1739 14.9972L17.4472 15.4382ZM17.5213 15.5604L16.7947 16.0013L17.5213 15.5604ZM17.7834 16.8333L18.6164 17.0028L17.7834 16.8333ZM17.7233 17.1287L16.8904 16.9592L17.7233 17.1287ZM17.5756 18.3129L18.4251 18.3428L17.5756 18.3129ZM17.571 18.4429L16.7215 18.4129L17.571 18.4429ZM17.5664 18.5729L18.4159 18.6029L17.5664 18.5729ZM16.9616 18.9876L16.7644 19.8144L16.9616 18.9876ZM16.6871 18.9221L16.8843 18.0953L16.6871 18.9221ZM15.5166 18.8625L15.4015 18.0203L15.5166 18.8625ZM15.3794 18.8812L15.2642 18.0391L15.3794 18.8812ZM15.2421 18.9L15.3572 19.7422L15.2421 18.9ZM14.0716 18.768L13.7821 19.5671L14.0716 18.768ZM13.7971 18.6685L14.0866 17.8693L13.7971 18.6685ZM12.6266 18.7313L12.988 19.5007L12.6266 18.7313ZM12.4894 18.7958L12.128 18.0265L12.4894 18.7958ZM12.3521 18.8603L12.7135 19.6297L12.3521 18.8603ZM11.1816 19.0578L11.293 18.2151L11.1816 19.0578ZM10.9071 19.0215L10.7957 19.8642L10.9071 19.0215ZM9.46209 18.8974L9.41592 19.7461L9.46209 18.8974ZM8.29164 18.8902L8.25588 18.0409L8.29164 18.8902ZM8.15436 18.896L8.19012 19.7452L8.15436 18.896ZM8.01709 18.9017L7.98133 18.0525L8.01709 18.9017ZM6.84664 18.7423L7.10165 17.9315L6.84664 18.7423ZM6.57209 18.656L6.31707 19.4668L6.57209 18.656ZM5.40164 18.6073L5.59319 19.4354L5.40164 18.6073ZM5.12709 18.6708L4.93553 17.8427L5.12709 18.6708ZM3.95664 18.8175L3.97308 19.6673L3.95664 18.8175ZM3.81936 18.8201L3.80292 17.9703L3.81936 18.8201ZM3.68209 18.8228L3.69853 19.6726L3.68209 18.8228ZM2.23709 18.5877L2.00293 19.4049L2.23709 18.5877ZM1.64573 18.561L0.796532 18.5241L1.64573 18.561ZM1.64429 18.5941L2.49349 18.631L1.64429 18.5941ZM1.64285 18.6272L0.793655 18.5902L1.64285 18.6272ZM1.62604 18.0361L2.47595 18.0237L2.47392 17.8846L1.62401 17.897L0.774103 17.9094L0.776132 18.0485L1.62604 18.0361ZM1.62401 17.897L2.47392 17.8846C2.47044 17.646 2.52737 17.4266 2.65274 17.2111L1.91798 16.7837L1.18323 16.3564C0.905104 16.8345 0.766051 17.3573 0.774103 17.9094L1.62401 17.897ZM1.91798 16.7837L2.65274 17.2111L2.72372 17.089L1.98897 16.6617L1.25421 16.2343L1.18323 16.3564L1.91798 16.7837ZM1.98897 16.6617L2.72372 17.089L2.79471 16.967L2.05995 16.5396L1.32519 16.1123L1.25421 16.2343L1.98897 16.6617ZM2.05995 16.5396L2.79471 16.967C3.04263 16.5407 3.21665 16.0851 3.31486 15.6033L2.482 15.4335L1.64913 15.2637C1.58811 15.563 1.48076 15.8448 1.32519 16.1123L2.05995 16.5396ZM2.482 15.4335L3.31486 15.6033L3.34288 15.4659L2.51001 15.2961L1.67714 15.1263L1.64913 15.2637L2.482 15.4335ZM2.51001 15.2961L3.34288 15.4659L3.37089 15.3285L2.53802 15.1587L1.70515 14.9889L1.67714 15.1263L2.51001 15.2961ZM2.53802 15.1587L3.37089 15.3285C3.43224 15.0275 3.53939 14.7439 3.69405 14.4746L2.95695 14.0513L2.21985 13.628C1.97518 14.0541 1.80304 14.5087 1.70515 14.9889L2.53802 15.1587ZM2.95695 14.0513L3.69405 14.4746L3.7643 14.3523L3.0272 13.929L2.2901 13.5057L2.21985 13.628L2.95695 14.0513ZM3.0272 13.929L3.7643 14.3523L3.83456 14.23L3.09746 13.8067L2.36035 13.3834L2.2901 13.5057L3.0272 13.929ZM3.09746 13.8067L3.83456 14.23C3.96765 13.9982 4.14319 13.8115 4.36934 13.6625L3.90185 12.9526L3.43436 12.2427C2.98731 12.5371 2.62659 12.9197 2.36035 13.3834L3.09746 13.8067ZM3.90185 12.9526L4.36934 13.6625L4.48777 13.5845L4.02028 12.8746L3.55279 12.1648L3.43436 12.2427L3.90185 12.9526ZM4.02028 12.8746L4.48777 13.5845L4.60621 13.5065L4.13871 12.7967L3.67122 12.0868L3.55279 12.1648L4.02028 12.8746ZM4.13871 12.7967L4.60621 13.5065C4.94392 13.2841 5.27514 13.0649 5.59985 12.8488L5.12887 12.1412L4.65789 11.4336C4.33559 11.6481 4.00669 11.8658 3.67122 12.0868L4.13871 12.7967ZM5.12887 12.1412L5.59985 12.8488L5.71368 12.773L5.2427 12.0654L4.77172 11.3578L4.65789 11.4336L5.12887 12.1412ZM5.2427 12.0654L5.71368 12.773L5.8275 12.6972L5.35653 11.9896L4.88555 11.282L4.77172 11.3578L5.2427 12.0654ZM5.35653 11.9896L5.8275 12.6972C6.15311 12.4805 6.48277 12.259 6.81649 12.0327L6.33944 11.3292L5.86239 10.6257C5.53258 10.8493 5.20697 11.0681 4.88555 11.282L5.35653 11.9896ZM6.33944 11.3292L6.81649 12.0327L6.93323 11.9535L6.45618 11.25L5.97913 10.5465L5.86239 10.6257L6.33944 11.3292ZM6.45618 11.25L6.93323 11.9535L7.04996 11.8744L6.57291 11.1709L6.09586 10.4674L5.97913 10.5465L6.45618 11.25ZM6.57291 11.1709L7.04996 11.8744C7.28236 11.7168 7.53204 11.6159 7.80629 11.5683L7.66074 10.7308L7.5152 9.89339C7.00253 9.98249 6.52699 10.175 6.09586 10.4674L6.57291 11.1709ZM7.66074 10.7308L7.80629 11.5683L7.94473 11.5442L7.79918 10.7068L7.65364 9.86933L7.5152 9.89339L7.66074 10.7308ZM7.79918 10.7068L7.94473 11.5442L8.08316 11.5202L7.93762 10.6827L7.79208 9.84527L7.65364 9.86933L7.79918 10.7068ZM7.93762 10.6827L8.08316 11.5202C8.36336 11.4715 8.64118 11.4793 8.92344 11.545L9.11621 10.7172L9.30898 9.88931C8.8067 9.77235 8.29879 9.75721 7.79208 9.84527L7.93762 10.6827ZM9.11621 10.7172L8.92344 11.545L9.06146 11.5772L9.25423 10.7493L9.447 9.92145L9.30898 9.88931L9.11621 10.7172ZM9.25423 10.7493L9.06146 11.5772L9.19949 11.6093L9.39226 10.7814L9.58503 9.95358L9.447 9.92145L9.25423 10.7493ZM9.39226 10.7814L9.19949 11.6093C9.73976 11.7351 10.2859 11.7151 10.8238 11.5603L10.5887 10.7434L10.3535 9.92661C10.0807 10.0051 9.8293 10.0105 9.58503 9.95358L9.39226 10.7814ZM10.5887 10.7434L10.8238 11.5603L10.9664 11.5192L10.7313 10.7024L10.4962 9.88556L10.3535 9.92661L10.5887 10.7434ZM10.7313 10.7024L10.9664 11.5192L11.109 11.4782L10.8739 10.6613L10.6388 9.8445L10.4962 9.88556L10.7313 10.7024ZM10.8739 10.6613L11.109 11.4782C11.3317 11.4141 11.5115 11.4304 11.6871 11.5087L12.0335 10.7325L12.38 9.95636C11.82 9.70642 11.2268 9.67525 10.6388 9.8445L10.8739 10.6613ZM12.0335 10.7325L11.6871 11.5087L11.8165 11.5665L12.1629 10.7903L12.5094 10.0141L12.38 9.95636L12.0335 10.7325ZM12.1629 10.7903L11.8165 11.5665L11.9459 11.6242L12.2923 10.8481L12.6388 10.0719L12.5094 10.0141L12.1629 10.7903ZM12.2923 10.8481L11.9459 11.6242C12.3427 11.8014 12.7494 11.9562 13.1659 12.0887L13.4236 11.2788L13.6814 10.4688C13.3249 10.3553 12.9774 10.223 12.6388 10.0719L12.2923 10.8481ZM13.4236 11.2788L13.1659 12.0887L13.3018 12.132L13.5596 11.322L13.8174 10.5121L13.6814 10.4688L13.4236 11.2788ZM13.5596 11.322L13.3018 12.132L13.4378 12.1753L13.6956 11.3653L13.9534 10.5553L13.8174 10.5121L13.5596 11.322ZM13.6956 11.3653L13.4378 12.1753C13.649 12.2425 13.8155 12.361 13.9552 12.552L14.6413 12.0502L15.3273 11.5483C14.9791 11.0722 14.5151 10.7341 13.9534 10.5553L13.6956 11.3653ZM14.6413 12.0502L13.9552 12.552L14.0411 12.6694L14.7271 12.1675L15.4132 11.6657L15.3273 11.5483L14.6413 12.0502ZM14.7271 12.1675L14.0411 12.6694L14.1269 12.7867L14.813 12.2849L15.499 11.7831L15.4132 11.6657L14.7271 12.1675ZM14.813 12.2849L14.1269 12.7867C14.4024 13.1633 14.7058 13.5041 15.0379 13.8066L15.6104 13.1782L16.1828 12.5499C15.9397 12.3285 15.7115 12.0736 15.499 11.7831L14.813 12.2849ZM15.6104 13.1782L15.0379 13.8066L15.1391 13.8988L15.7115 13.2704L16.2839 12.642L16.1828 12.5499L15.6104 13.1782ZM15.7115 13.2704L15.1391 13.8988L15.2403 13.991L15.8127 13.3626L16.3851 12.7342L16.2839 12.642L15.7115 13.2704ZM15.8127 13.3626L15.2403 13.991C15.4897 14.2181 15.7188 14.4682 15.9277 14.7419L16.6033 14.226L17.2789 13.7102C17.0089 13.3566 16.711 13.031 16.3851 12.7342L15.8127 13.3626ZM16.6033 14.226L15.9277 14.7419L16.012 14.8522L16.6876 14.3364L17.3632 13.8206L17.2789 13.7102L16.6033 14.226ZM16.6876 14.3364L16.012 14.8522L16.0963 14.9626L16.7719 14.4468L17.4475 13.9309L17.3632 13.8206L16.6876 14.3364ZM16.7719 14.4468L16.0963 14.9626C16.3169 15.2515 16.525 15.557 16.7205 15.8791L17.4472 15.4382L18.1739 14.9972C17.9479 14.6249 17.7058 14.2693 17.4475 13.9309L16.7719 14.4468ZM17.4472 15.4382L16.7205 15.8791L16.7947 16.0013L17.5213 15.5604L18.248 15.1194L18.1739 14.9972L17.4472 15.4382ZM17.5213 15.5604L16.7947 16.0013L16.8688 16.1235L17.5955 15.6826L18.3222 15.2416L18.248 15.1194L17.5213 15.5604ZM17.5955 15.6826L16.8688 16.1235C16.9621 16.2772 16.9959 16.4409 16.9505 16.6638L17.7834 16.8333L18.6164 17.0028C18.7419 16.3859 18.6504 15.7825 18.3222 15.2416L17.5955 15.6826ZM17.7834 16.8333L16.9505 16.6638L16.9205 16.8115L17.7534 16.981L18.5863 17.1505L18.6164 17.0028L17.7834 16.8333ZM17.7534 16.981L16.9205 16.8115L16.8904 16.9592L17.7233 17.1287L18.5562 17.2983L18.5863 17.1505L17.7534 16.981ZM17.7233 17.1287L16.8904 16.9592C16.797 17.418 16.7411 17.8598 16.7261 18.2829L17.5756 18.3129L18.4251 18.3428C18.4362 18.0268 18.4787 17.6792 18.5562 17.2983L17.7233 17.1287ZM17.5756 18.3129L16.7261 18.2829L16.7215 18.4129L17.571 18.4429L18.4205 18.4729L18.4251 18.3428L17.5756 18.3129ZM17.571 18.4429L16.7215 18.4129L16.7169 18.5429L17.5664 18.5729L18.4159 18.6029L18.4205 18.4729L17.571 18.4429ZM17.5664 18.5729L16.7169 18.5429C16.7149 18.6013 16.7068 18.4021 16.9248 18.2527C17.1183 18.12 17.2651 18.1861 17.1589 18.1608L16.9616 18.9876L16.7644 19.8144C17.0483 19.8821 17.491 19.9257 17.8861 19.6548C18.3057 19.3671 18.4049 18.914 18.4159 18.6029L17.5664 18.5729ZM16.9616 18.9876L17.1589 18.1608L17.0216 18.128L16.8244 18.9548L16.6271 19.7816L16.7644 19.8144L16.9616 18.9876ZM16.8244 18.9548L17.0216 18.128L16.8843 18.0953L16.6871 18.9221L16.4898 19.7489L16.6271 19.7816L16.8244 18.9548ZM16.6871 18.9221L16.8843 18.0953C16.3939 17.9783 15.8978 17.9524 15.4015 18.0203L15.5166 18.8625L15.6318 19.7046C15.9158 19.6658 16.2 19.6797 16.4898 19.7489L16.6871 18.9221ZM15.5166 18.8625L15.4015 18.0203L15.2642 18.0391L15.3794 18.8812L15.4945 19.7234L15.6318 19.7046L15.5166 18.8625ZM15.3794 18.8812L15.2642 18.0391L15.127 18.0578L15.2421 18.9L15.3572 19.7422L15.4945 19.7234L15.3794 18.8812ZM15.2421 18.9L15.127 18.0578C14.8806 18.0915 14.6291 18.0659 14.3612 17.9688L14.0716 18.768L13.7821 19.5671C14.2945 19.7528 14.8233 19.8151 15.3572 19.7422L15.2421 18.9ZM14.0716 18.768L14.3612 17.9688L14.2239 17.9191L13.9344 18.7182L13.6448 19.5174L13.7821 19.5671L14.0716 18.768ZM13.9344 18.7182L14.2239 17.9191L14.0866 17.8693L13.7971 18.6685L13.5075 19.4677L13.6448 19.5174L13.9344 18.7182ZM13.7971 18.6685L14.0866 17.8693C13.4752 17.6478 12.851 17.6869 12.2653 17.962L12.6266 18.7313L12.988 19.5007C13.1826 19.4093 13.3387 19.4065 13.5075 19.4677L13.7971 18.6685ZM12.6266 18.7313L12.2653 17.962L12.128 18.0265L12.4894 18.7958L12.8507 19.5652L12.988 19.5007L12.6266 18.7313ZM12.4894 18.7958L12.128 18.0265L11.9907 18.0909L12.3521 18.8603L12.7135 19.6297L12.8507 19.5652L12.4894 18.7958ZM12.3521 18.8603L11.9907 18.0909C11.7333 18.2118 11.5066 18.2434 11.293 18.2151L11.1816 19.0578L11.0702 19.9005C11.637 19.9754 12.1906 19.8752 12.7135 19.6297L12.3521 18.8603ZM11.1816 19.0578L11.293 18.2151L11.1558 18.197L11.0444 19.0397L10.933 19.8823L11.0702 19.9005L11.1816 19.0578ZM11.0444 19.0397L11.1558 18.197L11.0185 18.1788L10.9071 19.0215L10.7957 19.8642L10.933 19.8823L11.0444 19.0397ZM10.9071 19.0215L11.0185 18.1788C10.6068 18.1244 10.1949 18.086 9.7828 18.0636L9.73664 18.9123L9.69047 19.7611C10.0587 19.7811 10.427 19.8154 10.7957 19.8642L10.9071 19.0215ZM9.73664 18.9123L9.7828 18.0636L9.64553 18.0561L9.59936 18.9048L9.5532 19.7536L9.69047 19.7611L9.73664 18.9123ZM9.59936 18.9048L9.64553 18.0561L9.50825 18.0486L9.46209 18.8974L9.41592 19.7461L9.5532 19.7536L9.59936 18.9048ZM9.46209 18.8974L9.50825 18.0486C9.09084 18.0259 8.67335 18.0234 8.25588 18.0409L8.29164 18.8902L8.32739 19.7394C8.69023 19.7242 9.05304 19.7264 9.41592 19.7461L9.46209 18.8974ZM8.29164 18.8902L8.25588 18.0409L8.11861 18.0467L8.15436 18.896L8.19012 19.7452L8.32739 19.7394L8.29164 18.8902ZM8.15436 18.896L8.11861 18.0467L7.98133 18.0525L8.01709 18.9017L8.05284 19.751L8.19012 19.7452L8.15436 18.896ZM8.01709 18.9017L7.98133 18.0525C7.6942 18.0646 7.40233 18.0261 7.10165 17.9315L6.84664 18.7423L6.59162 19.5532C7.07124 19.704 7.55967 19.7718 8.05284 19.751L8.01709 18.9017ZM6.84664 18.7423L7.10165 17.9315L6.96438 17.8883L6.70936 18.6992L6.45435 19.51L6.59162 19.5532L6.84664 18.7423ZM6.70936 18.6992L6.96438 17.8883L6.8271 17.8451L6.57209 18.656L6.31707 19.4668L6.45435 19.51L6.70936 18.6992ZM6.57209 18.656L6.8271 17.8451C6.29554 17.678 5.75124 17.654 5.21008 17.7792L5.40164 18.6073L5.59319 19.4354C5.83233 19.3801 6.06834 19.3886 6.31707 19.4668L6.57209 18.656ZM5.40164 18.6073L5.21008 17.7792L5.07281 17.8109L5.26436 18.639L5.45591 19.4672L5.59319 19.4354L5.40164 18.6073ZM5.26436 18.639L5.07281 17.8109L4.93553 17.8427L5.12709 18.6708L5.31864 19.4989L5.45591 19.4672L5.26436 18.639ZM5.12709 18.6708L4.93553 17.8427C4.60134 17.92 4.26985 17.9613 3.94019 17.9676L3.95664 18.8175L3.97308 19.6673C4.42372 19.6586 4.87254 19.6021 5.31864 19.4989L5.12709 18.6708ZM3.95664 18.8175L3.94019 17.9676L3.80292 17.9703L3.81936 18.8201L3.8358 19.67L3.97308 19.6673L3.95664 18.8175ZM3.81936 18.8201L3.80292 17.9703L3.66564 17.973L3.68209 18.8228L3.69853 19.6726L3.8358 19.67L3.81936 18.8201ZM3.68209 18.8228L3.66564 17.973C3.36354 17.9788 3.05779 17.9387 2.74579 17.8493L2.51164 18.6664L2.27748 19.4835C2.74578 19.6177 3.22033 19.6819 3.69853 19.6726L3.68209 18.8228ZM2.51164 18.6664L2.74579 17.8493L2.60852 17.81L2.37436 18.6271L2.1402 19.4442L2.27748 19.4835L2.51164 18.6664ZM2.37436 18.6271L2.60852 17.81L2.47124 17.7706L2.23709 18.5877L2.00293 19.4049L2.1402 19.4442L2.37436 18.6271ZM2.23709 18.5877L2.47124 17.7706C2.2646 17.7114 2.03812 17.6573 1.83499 17.6481C1.74533 17.644 1.55523 17.6418 1.35391 17.727C1.24167 17.7744 1.09892 17.8606 0.981771 18.0134C0.85916 18.1733 0.803876 18.3552 0.796532 18.5241L1.64573 18.561L2.49493 18.598C2.4886 18.7433 2.44037 18.905 2.33085 19.0478C2.22679 19.1835 2.10316 19.2559 2.01607 19.2927C1.93142 19.3285 1.86187 19.3394 1.8272 19.3433C1.79002 19.3475 1.76517 19.3467 1.75828 19.3463C1.75227 19.3461 1.81942 19.3523 2.00293 19.4049L2.23709 18.5877ZM1.64573 18.561L0.796532 18.5241L0.795093 18.5572L1.64429 18.5941L2.49349 18.631L2.49493 18.598L1.64573 18.561ZM1.64429 18.5941L0.795093 18.5572L0.793655 18.5902L1.64285 18.6272L2.49205 18.6641L2.49349 18.631L1.64429 18.5941ZM1.64285 18.6272L0.793655 18.5902C0.792941 18.6066 0.793491 18.5787 0.798471 18.5406C0.799685 18.5313 0.80443 18.4948 0.815875 18.4487C0.820917 18.4283 0.834741 18.3747 0.863333 18.3101C0.877734 18.2775 0.905386 18.2202 0.95177 18.1561C0.993458 18.0984 1.08819 17.9818 1.2539 17.8972C1.44957 17.7973 1.69226 17.7703 1.9258 17.8536C2.12545 17.9248 2.2441 18.0501 2.29732 18.1149C2.39793 18.2375 2.43723 18.3579 2.44441 18.379C2.46912 18.4513 2.47791 18.5109 2.47907 18.5182C2.48853 18.5777 2.48783 18.6238 2.48564 18.5569C2.48346 18.4902 2.48087 18.3609 2.47798 18.1628L1.62807 18.1752L0.77816 18.1876C0.781036 18.3847 0.783796 18.5284 0.786544 18.6125C0.786818 18.6208 0.788476 18.7118 0.800186 18.7853C0.801629 18.7944 0.810699 18.8554 0.835685 18.9285C0.843004 18.9499 0.88244 19.0706 0.983188 19.1934C1.03648 19.2583 1.1552 19.3837 1.35492 19.4549C1.58853 19.5382 1.83129 19.5112 2.02702 19.4113C2.1928 19.3266 2.28761 19.2099 2.32936 19.1522C2.37582 19.088 2.40354 19.0305 2.418 18.9978C2.44673 18.9329 2.46069 18.8788 2.46587 18.858C2.47759 18.8107 2.4826 18.7726 2.48409 18.7613C2.49014 18.715 2.49174 18.6712 2.49205 18.6641L1.64285 18.6272ZM1.62807 18.1752L2.47798 18.1628L2.47595 18.0237L1.62604 18.0361L0.776132 18.0485L0.77816 18.1876L1.62807 18.1752Z" fill="#D8F789" />
<path xmlns="http://www.w3.org/2000/svg" id="Ellipse 28" d="M14.3835 6.13457L15.2323 6.17979V6.17979L14.3835 6.13457ZM14.3761 6.27409L13.5273 6.22886L14.3761 6.27409ZM13.8527 7.41939L14.4866 7.98562L13.8527 7.41939ZM13.7593 7.524L13.1253 6.95778L13.7593 7.524ZM13.057 8.47934L12.3271 8.04381L13.057 8.47934ZM12.9857 8.59882L13.7157 9.03435L12.9857 8.59882ZM12.9144 8.71831L13.6444 9.15384L12.9144 8.71831ZM12.0988 9.56039L11.6355 8.84774L12.0988 9.56039ZM11.8587 9.71646L12.322 10.4291L11.8587 9.71646ZM10.7375 10.0361L10.7193 10.8859L10.7375 10.0361ZM10.5945 10.033L10.5763 10.8828L10.5945 10.033ZM10.4516 10.03L10.4697 9.18016L10.4516 10.03ZM9.26851 9.92866L9.39778 9.08855L9.26851 9.92866ZM8.99943 9.88726L8.87015 10.7274L8.99943 9.88726ZM7.84479 9.63011L7.60756 10.4463L7.84479 9.63011ZM7.5722 9.55088L7.33496 10.3671L7.5722 9.55088ZM6.58436 8.93113L5.95325 9.50052L6.58436 8.93113ZM6.48895 8.82538L7.12005 8.25599L6.48895 8.82538ZM6.39353 8.71962L5.76242 9.28901L6.39353 8.71962ZM5.86974 7.68261L5.03619 7.84902L5.86974 7.68261ZM5.84229 7.54512L6.67584 7.37871L5.84229 7.54512ZM5.81484 7.40763L4.98129 7.57404L5.81484 7.40763ZM5.27875 6.16592L4.56257 6.62373L5.27875 6.16592ZM5.19912 6.04136L5.91529 5.58354L5.19912 6.04136ZM5.46749 3.31461L4.65321 3.07079L5.46749 3.31461ZM6.22745 2.27096L6.65201 3.00734L6.22745 2.27096ZM6.35432 2.19782L5.92976 1.46144L6.35432 2.19782ZM6.48118 2.12467L6.05662 1.3883L6.48118 2.12467ZM7.50538 1.49278L7.03609 0.784074L7.50538 1.49278ZM7.73214 1.34263L7.26285 0.633919L7.73214 1.34263ZM8.78874 0.865174L8.5637 0.0455061L8.78874 0.865174ZM9.05767 0.791339L8.83263 -0.0283296L9.05767 0.791339ZM11.5887 1.07805L12.227 0.516745L11.5887 1.07805ZM11.6882 1.19121L11.0499 1.75252L11.6882 1.19121ZM11.7877 1.30437L12.426 0.743066L11.7877 1.30437ZM12.8177 1.99739L12.5386 2.80026L12.8177 1.99739ZM12.9598 2.04678L13.2389 1.24391L12.9598 2.04678ZM13.1019 2.09618L12.8228 2.89905L13.1019 2.09618ZM13.8852 2.90276L13.0706 3.14541L13.8852 2.90276ZM13.9685 3.18236L14.7831 2.93971L13.9685 3.18236ZM14.3419 4.34788L15.1457 4.07139L14.3419 4.34788ZM14.3879 4.48148L15.1917 4.20498L14.3879 4.48148ZM14.4338 4.61507L13.6301 4.89156L14.4338 4.61507ZM14.5459 5.27196L13.9327 4.68326L14.5459 5.27196ZM14.5065 5.31294L15.1197 5.90164L14.5065 5.31294ZM14.391 5.99506L13.5422 5.94984V5.94984L14.391 5.99506ZM14.3835 6.13457L13.5347 6.08935L13.5273 6.22886L14.3761 6.27409L15.2249 6.31931L15.2323 6.17979L14.3835 6.13457ZM14.3761 6.27409L13.5273 6.22886C13.5165 6.43152 13.4495 6.59485 13.3122 6.74857L13.9461 7.31479L14.5801 7.88101C14.9738 7.44015 15.1934 6.90968 15.2249 6.31931L14.3761 6.27409ZM13.9461 7.31479L13.3122 6.74857L13.2187 6.85317L13.8527 7.41939L14.4866 7.98562L14.5801 7.88101L13.9461 7.31479ZM13.8527 7.41939L13.2187 6.85317L13.1253 6.95778L13.7593 7.524L14.3932 8.09022L14.4866 7.98562L13.8527 7.41939ZM13.7593 7.524L13.1253 6.95778C12.824 7.29515 12.5577 7.65732 12.3271 8.04381L13.057 8.47934L13.787 8.91486C13.9616 8.62216 14.1635 8.34743 14.3932 8.09022L13.7593 7.524ZM13.057 8.47934L12.3271 8.04381L12.2558 8.1633L12.9857 8.59882L13.7157 9.03435L13.787 8.91486L13.057 8.47934ZM12.9857 8.59882L12.2558 8.1633L12.1845 8.28279L12.9144 8.71831L13.6444 9.15384L13.7157 9.03435L12.9857 8.59882ZM12.9144 8.71831L12.1845 8.28279C12.0504 8.50757 11.871 8.69463 11.6355 8.84774L12.0988 9.56039L12.5621 10.273C13.0089 9.98258 13.3733 9.60826 13.6444 9.15384L12.9144 8.71831ZM12.0988 9.56039L11.6355 8.84774L11.5155 8.92578L11.9787 9.63842L12.442 10.3511L12.5621 10.273L12.0988 9.56039ZM11.9787 9.63842L11.5155 8.92578L11.3954 9.00381L11.8587 9.71646L12.322 10.4291L12.442 10.3511L11.9787 9.63842ZM11.8587 9.71646L11.3954 9.00381C11.1972 9.1327 10.9912 9.19132 10.7557 9.18628L10.7375 10.0361L10.7193 10.8859C11.2965 10.8982 11.8379 10.7438 12.322 10.4291L11.8587 9.71646ZM10.7375 10.0361L10.7557 9.18628L10.6127 9.18322L10.5945 10.033L10.5763 10.8828L10.7193 10.8859L10.7375 10.0361ZM10.5945 10.033L10.6127 9.18322L10.4697 9.18016L10.4516 10.03L10.4334 10.8798L10.5763 10.8828L10.5945 10.033ZM10.4516 10.03L10.4697 9.18016C10.0988 9.17222 9.74158 9.14145 9.39778 9.08855L9.26851 9.92866L9.13923 10.7688C9.56018 10.8335 9.9917 10.8703 10.4334 10.8798L10.4516 10.03ZM9.26851 9.92866L9.39778 9.08855L9.26324 9.06785L9.13397 9.90796L9.00469 10.7481L9.13923 10.7688L9.26851 9.92866ZM9.13397 9.90796L9.26324 9.06785L9.1287 9.04715L8.99943 9.88726L8.87015 10.7274L9.00469 10.7481L9.13397 9.90796ZM8.99943 9.88726L9.1287 9.04715C8.7843 8.99415 8.43548 8.91662 8.08203 8.81389L7.84479 9.63011L7.60756 10.4463C8.02886 10.5688 8.44979 10.6627 8.87015 10.7274L8.99943 9.88726ZM7.84479 9.63011L8.08203 8.81389L7.94573 8.77428L7.7085 9.5905L7.47126 10.4067L7.60756 10.4463L7.84479 9.63011ZM7.7085 9.5905L7.94573 8.77428L7.80943 8.73466L7.5722 9.55088L7.33496 10.3671L7.47126 10.4067L7.7085 9.5905ZM7.5722 9.55088L7.80943 8.73466C7.57429 8.66632 7.38124 8.54548 7.21547 8.36174L6.58436 8.93113L5.95325 9.50052C6.32985 9.91794 6.79535 10.2103 7.33496 10.3671L7.5722 9.55088ZM6.58436 8.93113L7.21547 8.36174L7.12005 8.25599L6.48895 8.82538L5.85784 9.39477L5.95325 9.50052L6.58436 8.93113ZM6.48895 8.82538L7.12005 8.25599L7.02464 8.15023L6.39353 8.71962L5.76242 9.28901L5.85784 9.39477L6.48895 8.82538ZM6.39353 8.71962L7.02464 8.15023C6.85427 7.9614 6.75084 7.75436 6.70329 7.5162L5.86974 7.68261L5.03619 7.84902C5.14467 8.39239 5.39043 8.87669 5.76242 9.28901L6.39353 8.71962ZM5.86974 7.68261L6.70329 7.5162L6.67584 7.37871L5.84229 7.54512L5.00874 7.71153L5.03619 7.84902L5.86974 7.68261ZM5.84229 7.54512L6.67584 7.37871L6.64839 7.24122L5.81484 7.40763L4.98129 7.57404L5.00874 7.71153L5.84229 7.54512ZM5.81484 7.40763L6.64839 7.24122C6.54859 6.74131 6.3546 6.27076 6.07454 5.83266L5.35837 6.29047L4.6422 6.74829C4.81474 7.0182 4.92507 7.29242 4.98129 7.57404L5.81484 7.40763ZM5.35837 6.29047L6.07454 5.83266L5.99492 5.7081L5.27875 6.16592L4.56257 6.62373L4.6422 6.74829L5.35837 6.29047ZM5.27875 6.16592L5.99492 5.7081L5.91529 5.58354L5.19912 6.04136L4.48295 6.49917L4.56257 6.62373L5.27875 6.16592ZM5.19912 6.04136L5.91529 5.58354C5.81325 5.42391 5.79666 5.29366 5.83863 5.13559L5.01709 4.91746L4.19556 4.69933C4.02763 5.33177 4.13239 5.95079 4.48295 6.49917L5.19912 6.04136ZM5.01709 4.91746L5.83863 5.13559L5.87555 4.99652L5.05402 4.77839L4.23248 4.56025L4.19556 4.69933L5.01709 4.91746ZM5.05402 4.77839L5.87555 4.99652L5.91248 4.85745L5.09095 4.63931L4.26941 4.42118L4.23248 4.56025L5.05402 4.77839ZM5.09095 4.63931L5.91248 4.85745C6.01513 4.47086 6.12434 4.0842 6.24014 3.69747L5.42586 3.45365L4.61157 3.20984C4.49072 3.61347 4.37666 4.01725 4.26941 4.42118L5.09095 4.63931ZM5.42586 3.45365L6.24014 3.69747L6.28177 3.55842L5.46749 3.31461L4.65321 3.07079L4.61157 3.20984L5.42586 3.45365ZM5.46749 3.31461L6.28177 3.55842L6.3234 3.41937L5.50912 3.17556L4.69484 2.93175L4.65321 3.07079L5.46749 3.31461ZM5.50912 3.17556L6.3234 3.41937C6.37886 3.23417 6.47761 3.10789 6.65201 3.00734L6.22745 2.27096L5.80289 1.53459C5.25617 1.8498 4.87604 2.32659 4.69484 2.93175L5.50912 3.17556ZM6.22745 2.27096L6.65201 3.00734L6.77888 2.93419L6.35432 2.19782L5.92976 1.46144L5.80289 1.53459L6.22745 2.27096ZM6.35432 2.19782L6.77888 2.93419L6.90574 2.86105L6.48118 2.12467L6.05662 1.3883L5.92976 1.46144L6.35432 2.19782ZM6.48118 2.12467L6.90574 2.86105C7.28035 2.64507 7.63675 2.42525 7.97467 2.20149L7.50538 1.49278L7.03609 0.784074C6.72954 0.987066 6.40314 1.18851 6.05662 1.3883L6.48118 2.12467ZM7.50538 1.49278L7.97467 2.20149L8.08805 2.12641L7.61876 1.4177L7.14947 0.708997L7.03609 0.784074L7.50538 1.49278ZM7.61876 1.4177L8.08805 2.12641L8.20143 2.05134L7.73214 1.34263L7.26285 0.633919L7.14947 0.708997L7.61876 1.4177ZM7.73214 1.34263L8.20143 2.05134C8.44673 1.8889 8.71616 1.76656 9.01378 1.68484L8.78874 0.865174L8.5637 0.0455061C8.09699 0.173642 7.66202 0.369596 7.26285 0.633919L7.73214 1.34263ZM8.78874 0.865174L9.01378 1.68484L9.14825 1.64792L8.92321 0.828256L8.69816 0.00858819L8.5637 0.0455061L8.78874 0.865174ZM8.92321 0.828256L9.14825 1.64792L9.28271 1.61101L9.05767 0.791339L8.83263 -0.0283296L8.69816 0.00858819L8.92321 0.828256ZM9.05767 0.791339L9.28271 1.61101C9.59548 1.52514 9.92498 1.47687 10.2732 1.46817L10.252 0.618431L10.2308 -0.231303C9.75091 -0.219312 9.28419 -0.152307 8.83263 -0.0283296L9.05767 0.791339ZM10.252 0.618431L10.2732 1.46817L10.4189 1.46453L10.3977 0.614791L10.3764 -0.234944L10.2308 -0.231303L10.252 0.618431ZM10.3977 0.614791L10.4189 1.46453L10.5646 1.46088L10.5434 0.61115L10.5221 -0.238585L10.3764 -0.234944L10.3977 0.614791ZM10.5434 0.61115L10.5646 1.46088C10.7172 1.45707 10.8273 1.49942 10.9504 1.63936L11.5887 1.07805L12.227 0.516745C11.7844 0.0134549 11.1976 -0.255465 10.5221 -0.238585L10.5434 0.61115ZM11.5887 1.07805L10.9504 1.63936L11.0499 1.75252L11.6882 1.19121L12.3265 0.629905L12.227 0.516745L11.5887 1.07805ZM11.6882 1.19121L11.0499 1.75252L11.1494 1.86568L11.7877 1.30437L12.426 0.743066L12.3265 0.629905L11.6882 1.19121ZM11.7877 1.30437L11.1494 1.86568C11.5289 2.29727 11.9959 2.6116 12.5386 2.80026L12.8177 1.99739L13.0968 1.19451C12.8318 1.10238 12.6121 0.954701 12.426 0.743066L11.7877 1.30437ZM12.8177 1.99739L12.5386 2.80026L12.6807 2.84965L12.9598 2.04678L13.2389 1.24391L13.0968 1.19451L12.8177 1.99739ZM12.9598 2.04678L12.6807 2.84965L12.8228 2.89905L13.1019 2.09618L13.381 1.29331L13.2389 1.24391L12.9598 2.04678ZM13.1019 2.09618L12.8228 2.89905C12.978 2.95301 13.0331 3.01964 13.0706 3.14541L13.8852 2.90276L14.6998 2.66011C14.5006 1.99123 14.0335 1.52014 13.381 1.29331L13.1019 2.09618ZM13.8852 2.90276L13.0706 3.14541L13.1122 3.28521L13.9268 3.04256L14.7415 2.79991L14.6998 2.66011L13.8852 2.90276ZM13.9268 3.04256L13.1122 3.28521L13.1539 3.42501L13.9685 3.18236L14.7831 2.93971L14.7415 2.79991L13.9268 3.04256ZM13.9685 3.18236L13.1539 3.42501C13.2755 3.83332 13.4036 4.23312 13.5382 4.62437L14.3419 4.34788L15.1457 4.07139C15.0191 3.70326 14.8982 3.32605 14.7831 2.93971L13.9685 3.18236ZM14.3419 4.34788L13.5382 4.62437L13.5841 4.75797L14.3879 4.48148L15.1917 4.20498L15.1457 4.07139L14.3419 4.34788ZM14.3879 4.48148L13.5841 4.75797L13.6301 4.89156L14.4338 4.61507L15.2376 4.33858L15.1917 4.20498L14.3879 4.48148ZM14.4338 4.61507L13.6301 4.89156C13.6903 5.06666 13.7148 5.16532 13.7219 5.20697C13.7258 5.23002 13.7182 5.20093 13.7222 5.14133C13.7244 5.10962 13.7309 5.04971 13.7556 4.97531C13.7804 4.90035 13.8308 4.78947 13.9327 4.68326L14.5459 5.27196L15.159 5.86066C15.381 5.62948 15.4115 5.35827 15.4184 5.25496C15.4271 5.12606 15.4125 5.00758 15.3977 4.92114C15.3675 4.74383 15.308 4.54317 15.2376 4.33858L14.4338 4.61507ZM14.5459 5.27196L13.9327 4.68326L13.9131 4.70375L14.5262 5.29245L15.1393 5.88115L15.159 5.86066L14.5459 5.27196ZM14.5262 5.29245L13.9131 4.70375L13.8934 4.72424L14.5065 5.31294L15.1197 5.90164L15.1393 5.88115L14.5262 5.29245ZM14.5065 5.31294L13.8934 4.72424C13.745 4.8788 13.6838 5.0519 13.6608 5.12149C13.6304 5.21339 13.6111 5.30576 13.5976 5.38517C13.5705 5.54564 13.5534 5.73868 13.5422 5.94984L14.391 5.99506L15.2398 6.04028C15.2496 5.85493 15.2624 5.73603 15.2738 5.66913C15.2796 5.63484 15.2817 5.63467 15.2749 5.65517C15.2712 5.66622 15.2615 5.69389 15.2427 5.73068C15.2252 5.7647 15.1876 5.83085 15.1197 5.90164L14.5065 5.31294ZM14.391 5.99506L13.5422 5.94984L13.5347 6.08935L14.3835 6.13457L15.2323 6.17979L15.2398 6.04028L14.391 5.99506Z" fill="#D8F789" />

</svg>