<svg width="24" height="24" viewBox="0 0 24 24" fill="none" xmlns="http://www.w3.org/2000/svg">
<path xmlns="http://www.w3.org/2000/svg" id="Vector" d="M9 5L8.79638 4.17475L8.58613 4.22662L8.42633 4.37278L9 5ZM8.92621 5.06749L8.76185 5.90145L9.18307 5.98447L9.49988 5.69471L8.92621 5.06749ZM5.34559 18.102L4.49582 18.1214L5.34559 18.102ZM6.2164 21.1792L5.77654 21.9065L6.2164 21.1792ZM7.09239 21.4113L7.04375 20.5627L7.09239 21.4113ZM7.95846 21.2266L8.26149 22.0208L7.95846 21.2266ZM12.9565 20.8866L12.8578 20.0423L12.9565 20.8866ZM13.7895 20.9317L13.6026 21.7609L13.7895 20.9317ZM14.6225 20.8325L14.265 20.0613L14.6225 20.8325ZM15.4555 20.9915L16.0042 20.3423L15.4555 20.9915ZM17.9766 20.8266L17.8253 19.9902L17.9766 20.8266ZM18.74 20.3924L19.3759 20.9564L18.74 20.3924ZM18.9222 15.3561L19.7493 15.5524L18.9222 15.3561ZM18.8353 14.5231L18.059 14.8694L18.8353 14.5231ZM18.988 13.6901L19.6476 14.2262L18.988 13.6901ZM19.04 12.0241L18.2565 11.6946L19.04 12.0241ZM18.6961 8.69206L17.8475 8.64415L18.6961 8.69206ZM18.6221 5.26866L18.0708 5.9157L18.6221 5.26866ZM16.0026 4.80635L16.0313 3.95683L16.0026 4.80635ZM15 4.86336H14.15V5.01228L14.2006 5.15233L15 4.86336ZM15.0738 5.06749L14.5001 5.69471L15.8732 4.77852L15.0738 5.06749ZM15 5L15.5737 4.37278L15.4139 4.22662L15.2036 4.17475L15 5ZM9.09709 5.02396L9.92601 5.21206L10.1106 4.39854L9.30071 4.1987L9.09709 5.02396ZM10.153 6.42153L10.4491 5.62476L10.153 6.42153ZM10.8381 6.71134L11.2007 5.94254L10.8381 6.71134ZM13.3356 6.9013L13.8528 6.22676L13.3356 6.9013ZM14.1807 6.94593L14.7428 7.58351L14.1807 6.94593ZM14.9881 5L15.2181 5.81829L14.9881 4.15V5ZM14.9029 5.02396L14.6729 4.20566L15.1065 5.84921L14.9029 5.02396ZM9.09709 4.97605L9.30071 5.8013L9.82367 5.67226L9.93028 5.14427L9.09709 4.97605ZM10.0102 3.42623L9.93268 4.27269L10.0102 3.42623ZM10.8407 3.1784L11.3852 3.83107L10.8407 3.1784ZM11.607 2.87001L11.5732 2.02068L11.607 2.87001ZM14.5985 3.95349L14.1772 4.69173L14.5985 3.95349ZM15.1518 5L15.0703 5.84609L15.111 5.85H15.1518V5ZM14.9029 4.97605L14.9844 4.12996L14.6993 5.8013L14.9029 4.97605ZM9 5L8.42633 4.37278L8.35254 4.44027L8.92621 5.06749L9.49988 5.69471L9.57367 5.62722L9 5ZM8.92621 5.06749L9.09057 4.23353C8.59555 4.13597 8.239 4.04951 8.00532 3.97607L7.7505 4.78698L7.49568 5.59789C7.81733 5.69896 8.24459 5.7995 8.76185 5.90145L8.92621 5.06749ZM7.7505 4.78698L8.00532 3.97607C7.65059 3.86461 7.28013 3.8033 6.89728 3.78812L6.86361 4.63745L6.82993 5.48678C7.07428 5.49647 7.29508 5.53485 7.49568 5.59789L7.7505 4.78698ZM6.86361 4.63745L6.89728 3.78812C6.37552 3.76743 5.89547 3.92951 5.48383 4.24108L5.99681 4.91884L6.5098 5.59659C6.62669 5.50811 6.7245 5.4826 6.82993 5.48678L6.86361 4.63745ZM5.99681 4.91884L5.48383 4.24108C5.10782 4.52568 4.81759 4.88747 4.63942 5.32435L5.42648 5.64534L6.21354 5.96633C6.26727 5.83458 6.35726 5.71204 6.5098 5.59659L5.99681 4.91884ZM5.42648 5.64534L4.63942 5.32435C4.55919 5.52106 4.44301 5.71407 4.28382 5.90363L4.93474 6.45025L5.58566 6.99688C5.85022 6.68185 6.06186 6.33824 6.21354 5.96633L5.42648 5.64534ZM4.93474 6.45025L4.28382 5.90363C4.08394 6.14164 3.93245 6.44729 3.91884 6.80982C3.90542 7.16769 4.03015 7.48056 4.19755 7.7312L4.90439 7.25909L5.61123 6.78699C5.58699 6.7507 5.62096 6.7853 5.61765 6.87356C5.6161 6.91491 5.60656 6.95025 5.59585 6.97542C5.58585 6.99894 5.57825 7.00571 5.58566 6.99688L4.93474 6.45025ZM4.90439 7.25909L4.19755 7.7312C4.35309 7.96406 4.45506 8.17544 4.51602 8.36555L5.32542 8.10598L6.13482 7.84641C6.0177 7.48119 5.83898 7.12798 5.61123 6.78699L4.90439 7.25909ZM5.32542 8.10598L4.51602 8.36555C4.51603 8.36555 4.51586 8.36505 4.51562 8.36406C4.51537 8.36306 4.51505 8.36164 4.51472 8.35983C4.51406 8.3561 4.51348 8.35134 4.51327 8.34583C4.51283 8.33392 4.51432 8.32432 4.51558 8.3192C4.51798 8.30946 4.5139 8.33739 4.46081 8.40266L5.12026 8.93898L5.7797 9.4753C6.13959 9.03278 6.33224 8.462 6.13482 7.84641L5.32542 8.10598ZM5.12026 8.93898L4.46081 8.40266C4.27564 8.63034 4.12423 8.91257 4.08092 9.246C4.03647 9.58822 4.11595 9.90822 4.26839 10.1836L5.01206 9.77198L5.75574 9.36034C5.75336 9.35604 5.75924 9.3655 5.76392 9.38759C5.76883 9.41075 5.77027 9.4379 5.76676 9.46496C5.75952 9.52073 5.73904 9.52528 5.7797 9.4753L5.12026 8.93898ZM5.01206 9.77198L4.26839 10.1836C4.35871 10.3468 4.3832 10.4744 4.37994 10.5783L5.22952 10.605L6.0791 10.6317C6.09328 10.1803 5.9728 9.75249 5.75574 9.36034L5.01206 9.77198ZM5.22952 10.605L4.37994 10.5783C4.37616 10.6988 4.34049 10.843 4.24086 11.0186L4.98022 11.438L5.71959 11.8573C5.93491 11.4777 6.06545 11.0665 6.0791 10.6317L5.22952 10.605ZM4.98022 11.438L4.24086 11.0186C3.98958 11.4617 3.89477 11.9611 4.02191 12.4751L4.84704 12.271L5.67217 12.0669C5.66193 12.0255 5.65591 11.9696 5.71959 11.8573L4.98022 11.438ZM4.84704 12.271L4.02191 12.4751C4.07375 12.6846 4.09745 12.8901 4.09489 13.0933L4.94482 13.104L5.79476 13.1147C5.7992 12.7625 5.75771 12.4127 5.67217 12.0669L4.84704 12.271ZM4.94482 13.104L4.09489 13.0933C4.09239 13.2916 4.06256 13.4935 4.00258 13.7008L4.81912 13.937L5.63566 14.1731C5.73629 13.8252 5.79026 13.4717 5.79476 13.1147L4.94482 13.104ZM4.81912 13.937L4.00258 13.7008C3.87778 14.1324 3.87748 14.5735 4.00179 15.0052L4.81861 14.77L5.63542 14.5348C5.59982 14.4112 5.59987 14.2969 5.63566 14.1731L4.81912 13.937ZM4.81861 14.77L4.00179 15.0052C4.10882 15.3768 4.28028 15.7323 4.50379 16.071L5.2133 15.603L5.92282 15.1349C5.77997 14.9184 5.6883 14.7184 5.63542 14.5348L4.81861 14.77ZM5.2133 15.603L4.50379 16.071C4.60362 16.2224 4.61194 16.3146 4.60765 16.3687L5.45498 16.436L6.30231 16.5033C6.34213 16.0021 6.18934 15.5389 5.92282 15.1349L5.2133 15.603ZM5.45498 16.436L4.60765 16.3687C4.58611 16.6397 4.56138 16.9108 4.53346 17.1819L5.37899 17.269L6.22451 17.3561C6.25379 17.0718 6.27972 16.7876 6.30231 16.5033L5.45498 16.436ZM5.37899 17.269L4.53346 17.1819C4.50124 17.4948 4.48866 17.808 4.49582 18.1214L5.34559 18.102L6.19537 18.0826C6.18985 17.8406 6.19954 17.5985 6.22451 17.3561L5.37899 17.269ZM5.34559 18.102L4.49582 18.1214C4.49941 18.279 4.47131 18.445 4.40105 18.625L5.19287 18.9341L5.98468 19.2432C6.13073 18.869 6.20445 18.4803 6.19537 18.0826L5.34559 18.102ZM5.19287 18.9341L4.40105 18.625C4.29854 18.8876 4.24558 19.2107 4.34586 19.549C4.44698 19.8901 4.67028 20.1335 4.90755 20.2966L5.38911 19.5962L5.87068 18.8958C5.86896 18.8946 5.94006 18.9454 5.97576 19.0659C6.01062 19.1835 5.97903 19.2576 5.98468 19.2432L5.19287 18.9341ZM5.38911 19.5962L4.90755 20.2966C4.90861 20.2973 4.90587 20.2955 4.90205 20.2911C4.89824 20.2866 4.89708 20.2839 4.89793 20.2857C4.89987 20.2897 4.91591 20.3254 4.91945 20.4154L5.76879 20.382L6.61814 20.3486C6.5963 19.7929 6.38375 19.2485 5.87068 18.8958L5.38911 19.5962ZM5.76879 20.382L4.91945 20.4154C4.94368 21.0322 5.22465 21.5728 5.77654 21.9065L6.2164 21.1792L6.65627 20.4519C6.64032 20.4422 6.63376 20.4359 6.63244 20.4345C6.63164 20.4337 6.63157 20.4336 6.63188 20.434C6.632 20.4341 6.63214 20.4343 6.63227 20.4345C6.6324 20.4347 6.63246 20.4348 6.63246 20.4348C6.63245 20.4348 6.63234 20.4346 6.63212 20.4342C6.63191 20.4337 6.63156 20.4329 6.6311 20.4318C6.63021 20.4296 6.62876 20.4255 6.62712 20.4193C6.62384 20.4067 6.61953 20.3841 6.61814 20.3486L5.76879 20.382ZM6.2164 21.1792L5.77654 21.9065C6.19134 22.1574 6.65186 22.288 7.14104 22.2599L7.09239 21.4113L7.04375 20.5627C6.9335 20.569 6.81002 20.5449 6.65627 20.4519L6.2164 21.1792ZM7.09239 21.4113L7.14104 22.2599C7.52694 22.2378 7.90149 22.1581 8.26149 22.0208L7.95846 21.2266L7.65543 20.4325C7.46009 20.507 7.25727 20.5505 7.04375 20.5627L7.09239 21.4113ZM7.95846 21.2266L8.26149 22.0208C8.52105 21.9217 8.77993 21.8331 9.03813 21.7548L8.79146 20.9414L8.54479 20.128C8.24766 20.2181 7.9512 20.3196 7.65543 20.4325L7.95846 21.2266ZM8.79146 20.9414L9.03813 21.7548C9.27723 21.6823 9.51417 21.629 9.74923 21.5941L9.62446 20.7533L9.49969 19.9125C9.17942 19.96 8.86103 20.0321 8.54479 20.128L8.79146 20.9414ZM9.62446 20.7533L9.74923 21.5941C9.83357 21.5816 9.93409 21.5905 10.0726 21.6609L10.4575 20.903L10.8423 20.1451C10.4255 19.9334 9.97069 19.8426 9.49969 19.9125L9.62446 20.7533ZM10.4575 20.903L10.0726 21.6609C10.5375 21.897 11.049 21.9518 11.5567 21.7844L11.2905 20.9771L11.0242 20.1699C10.9765 20.1856 10.9328 20.1911 10.8423 20.1451L10.4575 20.903ZM11.2905 20.9771L11.5567 21.7844C11.723 21.7295 11.8769 21.7148 12.0267 21.732L12.1235 20.8875L12.2203 20.043C11.8147 19.9965 11.4132 20.0416 11.0242 20.1699L11.2905 20.9771ZM12.1235 20.8875L12.0267 21.732C12.3693 21.7712 12.7126 21.7709 13.0552 21.7308L12.9565 20.8866L12.8578 20.0423C12.645 20.0672 12.433 20.0674 12.2203 20.043L12.1235 20.8875ZM12.9565 20.8866L13.0552 21.7308C13.2357 21.7097 13.4169 21.7191 13.6026 21.7609L13.7895 20.9317L13.9763 20.1025C13.6067 20.0192 13.2325 19.9985 12.8578 20.0423L12.9565 20.8866ZM13.7895 20.9317L13.6026 21.7609C14.0773 21.8679 14.5459 21.8049 14.98 21.6037L14.6225 20.8325L14.265 20.0613C14.1437 20.1175 14.057 20.1207 13.9763 20.1025L13.7895 20.9317ZM14.6225 20.8325L14.98 21.6037C14.98 21.6036 14.9769 21.6051 14.9708 21.6069C14.9647 21.6087 14.9561 21.6108 14.9456 21.6122C14.923 21.6153 14.8998 21.6145 14.8796 21.6106C14.8394 21.603 14.8483 21.5913 14.9067 21.6406L15.4555 20.9915L16.0042 20.3423C15.7849 20.157 15.5162 20.0014 15.1983 19.9408C14.8701 19.8781 14.5511 19.9287 14.265 20.0613L14.6225 20.8325ZM15.4555 20.9915L14.9067 21.6406C15.2958 21.9695 15.7748 22.1985 16.3247 22.175L16.2885 21.3258L16.2522 20.4765C16.2468 20.4768 16.1705 20.4829 16.0042 20.3423L15.4555 20.9915ZM16.2885 21.3258L16.3247 22.175C16.7297 22.1577 17.1191 22.0517 17.4877 21.8722L17.1155 21.1081L16.7433 20.3439C16.5645 20.431 16.4025 20.4701 16.2522 20.4765L16.2885 21.3258ZM17.1155 21.1081L17.4877 21.8722C17.6912 21.7731 17.9039 21.7036 18.1279 21.663L17.9766 20.8266L17.8253 19.9902C17.4485 20.0583 17.0871 20.1764 16.7433 20.3439L17.1155 21.1081ZM17.9766 20.8266L18.1279 21.663C18.6217 21.5737 19.045 21.3295 19.3759 20.9564L18.74 20.3924L18.1041 19.8284C18.0179 19.9255 17.9322 19.9708 17.8253 19.9902L17.9766 20.8266ZM18.74 20.3924L19.3759 20.9564C19.7995 20.4788 19.8959 19.882 19.7037 19.2992L18.8965 19.5654L18.0892 19.8315C18.0972 19.8558 18.0985 19.8679 18.0986 19.8694C18.0987 19.8702 18.0985 19.8687 18.0986 19.8652C18.0988 19.8617 18.0993 19.8569 18.1003 19.8513C18.1014 19.8456 18.1029 19.8399 18.1048 19.8345C18.1066 19.8291 18.1085 19.8249 18.11 19.822C18.1131 19.816 18.113 19.8183 18.1041 19.8284L18.74 20.3924ZM18.8965 19.5654L19.7037 19.2992C19.6535 19.1468 19.6682 19.0607 19.6934 18.9979L18.9045 18.6813L18.1157 18.3647C17.9216 18.8482 17.9309 19.3515 18.0892 19.8315L18.8965 19.5654ZM18.9045 18.6813L19.6934 18.9979C19.8284 18.6614 19.9203 18.3163 19.9657 17.9636L19.1227 17.8551L18.2796 17.7465C18.2535 17.9492 18.1999 18.1549 18.1157 18.3647L18.9045 18.6813ZM19.1227 17.8551L19.9657 17.9636C20.028 17.4798 19.9158 17.0194 19.6826 16.6051L18.9419 17.0221L18.2012 17.439C18.2806 17.5801 18.2888 17.675 18.2796 17.7465L19.1227 17.8551ZM18.9419 17.0221L19.6826 16.6051C19.6045 16.4664 19.5978 16.3748 19.6073 16.3062L18.7654 16.1891L17.9235 16.0719C17.8558 16.5586 17.9667 17.0224 18.2012 17.439L18.9419 17.0221ZM18.7654 16.1891L19.6073 16.3062C19.6422 16.0556 19.6894 15.8044 19.7493 15.5524L18.9222 15.3561L18.0952 15.1598C18.0232 15.4631 17.9659 15.7672 17.9235 16.0719L18.7654 16.1891ZM18.9222 15.3561L19.7493 15.5524C19.8612 15.0809 19.8061 14.6129 19.6115 14.1768L18.8353 14.5231L18.059 14.8694C18.1122 14.9885 18.1151 15.0759 18.0952 15.1598L18.9222 15.3561ZM18.8353 14.5231L19.6115 14.1768C19.6111 14.1759 19.6155 14.1855 19.6179 14.2041C19.6204 14.2232 19.6197 14.2429 19.6166 14.2598C19.6103 14.2941 19.6012 14.2833 19.6476 14.2262L18.988 13.6901L18.3284 13.1539C18.1491 13.3745 18.0017 13.6413 17.9445 13.9533C17.8857 14.274 17.9329 14.5865 18.059 14.8694L18.8353 14.5231ZM18.988 13.6901L19.6476 14.2262C19.8327 13.9984 19.9841 13.7161 20.0272 13.3826C20.0715 13.0403 19.9918 12.7203 19.8392 12.4451L19.0957 12.8571L18.3523 13.2691C18.3547 13.2734 18.3488 13.264 18.3441 13.2419C18.3392 13.2188 18.3377 13.1916 18.3412 13.1645C18.3485 13.1087 18.369 13.104 18.3284 13.1539L18.988 13.6901ZM19.0957 12.8571L19.8392 12.4451C19.8264 12.4219 19.8203 12.4058 19.8175 12.3967C19.8147 12.388 19.8145 12.384 19.8145 12.3838C19.8145 12.3838 19.8144 12.3831 19.8149 12.3803C19.8154 12.3772 19.8173 12.3685 19.8236 12.3535L19.04 12.0241L18.2565 11.6946C18.0326 12.2271 18.08 12.7777 18.3523 13.2691L19.0957 12.8571ZM19.04 12.0241L19.8236 12.3535C19.953 12.0457 20.0624 11.7358 20.1513 11.4239L19.3338 11.1911L18.5163 10.9582C18.447 11.2016 18.3606 11.4471 18.2565 11.6946L19.04 12.0241ZM19.3338 11.1911L20.1513 11.4239C20.26 11.0422 20.2939 10.6519 20.248 10.2594L19.4038 10.3581L18.5595 10.4568C18.5785 10.6196 18.5658 10.7846 18.5163 10.9582L19.3338 11.1911ZM19.4038 10.3581L20.248 10.2594C20.192 9.78014 19.9729 9.35449 19.6714 8.98637L19.0138 9.52506L18.3563 10.0637C18.5097 10.251 18.5506 10.3806 18.5595 10.4568L19.4038 10.3581ZM19.0138 9.52506L19.6714 8.98637C19.5383 8.82401 19.5443 8.74892 19.5448 8.73996L18.6961 8.69206L17.8475 8.64415C17.8166 9.19053 18.0344 9.67078 18.3563 10.0637L19.0138 9.52506ZM18.6961 8.69206L19.5448 8.73996C19.56 8.4696 19.5788 8.19921 19.6011 7.9288L18.7539 7.85906L17.9068 7.78931C17.8833 8.07424 17.8636 8.35919 17.8475 8.64415L18.6961 8.69206ZM18.7539 7.85906L19.6011 7.9288C19.6277 7.60569 19.6277 7.28761 19.5997 6.97537L18.7531 7.05142L17.9065 7.12747C17.9253 7.33675 17.9259 7.55709 17.9068 7.78931L18.7539 7.85906ZM18.7531 7.05142L19.5997 6.97537C19.588 6.84559 19.6028 6.64251 19.682 6.34754L18.861 6.12721L18.0401 5.90687C17.9285 6.32268 17.8713 6.73574 17.9065 7.12747L18.7531 7.05142ZM18.861 6.12721L19.682 6.34754C19.7597 6.05776 19.781 5.73896 19.6917 5.41811C19.6008 5.09163 19.4128 4.82564 19.1733 4.62163L18.6221 5.26866L18.0708 5.9157C18.0807 5.92411 18.0787 5.92443 18.0723 5.9148C18.0692 5.91014 18.0657 5.90399 18.0622 5.89653C18.0588 5.88904 18.056 5.88137 18.0539 5.87394C18.0496 5.85833 18.0501 5.84988 18.05 5.8528C18.0499 5.8566 18.0489 5.87384 18.0401 5.90687L18.861 6.12721ZM18.6221 5.26866L19.1733 4.62163C18.6767 4.19862 18.0672 4.10596 17.4698 4.29772L17.7296 5.10705L17.9893 5.91638C18.0208 5.90627 18.0407 5.90336 18.0503 5.90253C18.0593 5.90174 18.0605 5.90266 18.0565 5.90193C18.0548 5.90162 18.0529 5.90115 18.0511 5.90056C18.0493 5.89998 18.0485 5.89955 18.0487 5.89966C18.0488 5.89973 18.0564 5.90338 18.0708 5.9157L18.6221 5.26866ZM17.7296 5.10705L17.4698 4.29772C17.3135 4.34789 17.2616 4.31934 17.2361 4.305L16.8191 5.04566L16.4021 5.78633C16.9099 6.07229 17.465 6.08467 17.9893 5.91638L17.7296 5.10705ZM16.8191 5.04566L17.2361 4.305C16.8629 4.09486 16.4587 3.97129 16.0313 3.95683L16.0026 4.80635L15.9738 5.65586C16.1018 5.66019 16.2419 5.69616 16.4021 5.78633L16.8191 5.04566ZM16.0026 4.80635L16.0313 3.95683C15.7674 3.94791 15.5542 3.93339 15.3875 3.91476L15.293 4.75949L15.1986 5.60423C15.4226 5.62928 15.6824 5.646 15.9738 5.65586L16.0026 4.80635ZM15.293 4.75949L15.3875 3.91476C15.2567 3.90014 15.0251 3.88432 14.7893 3.96792C14.6572 4.01473 14.485 4.10665 14.3471 4.28411C14.2026 4.47006 14.15 4.68028 14.15 4.86336H15H15.85C15.85 5.0009 15.8096 5.17263 15.6895 5.32716C15.5761 5.47319 15.4405 5.54074 15.3572 5.57024C15.2191 5.61922 15.134 5.59701 15.1986 5.60423L15.293 4.75949ZM15 4.86336L14.2006 5.15233L14.2744 5.35646L15.0738 5.06749L15.8732 4.77852L15.7994 4.57439L15 4.86336ZM15.0738 5.06749L15.6475 4.44027L15.5737 4.37278L15 5L14.4263 5.62722L14.5001 5.69471L15.0738 5.06749ZM9 5L8.79638 5.82525L8.89347 5.84921L9.09709 5.02396L9.30071 4.1987L9.20362 4.17475L9 5ZM9.09709 5.02396L8.26816 4.83585C8.18737 5.1919 8.14495 5.58207 8.23141 5.94723C8.32945 6.36136 8.59552 6.73034 9.04497 6.90673L9.35551 6.11548L9.66604 5.32424C9.71572 5.34374 9.77515 5.38202 9.82376 5.44161C9.86977 5.49801 9.88327 5.54543 9.88568 5.55559C9.88741 5.56291 9.88134 5.54118 9.88469 5.47808C9.88796 5.41619 9.89951 5.32885 9.92601 5.21206L9.09709 5.02396ZM9.35551 6.11548L9.04497 6.90673C9.35783 7.02951 9.62874 7.1335 9.85692 7.21829L10.153 6.42153L10.4491 5.62476C10.2336 5.54467 9.97281 5.44463 9.66604 5.32424L9.35551 6.11548ZM10.153 6.42153L9.85692 7.21829C10.0542 7.2916 10.2604 7.37866 10.4756 7.48015L10.8381 6.71134L11.2007 5.94254C10.9461 5.82249 10.6955 5.71634 10.4491 5.62476L10.153 6.42153ZM10.8381 6.71134L10.4756 7.48015C10.912 7.68595 11.377 7.7075 11.8266 7.58722L11.607 6.76609L11.3873 5.94496C11.2816 5.97323 11.2341 5.95828 11.2007 5.94254L10.8381 6.71134ZM11.607 6.76609L11.8266 7.58722C12.0729 7.52134 12.318 7.47088 12.5619 7.43553L12.44 6.59432L12.3181 5.75311C12.0067 5.79824 11.6964 5.86229 11.3873 5.94496L11.607 6.76609ZM12.44 6.59432L12.5619 7.43553C12.5296 7.44022 12.6011 7.40922 12.8184 7.57584L13.3356 6.9013L13.8528 6.22676C13.4313 5.90359 12.9057 5.66794 12.3181 5.75311L12.44 6.59432ZM13.3356 6.9013L12.8184 7.57584C13.0585 7.75998 13.3704 7.92534 13.7416 7.94494C14.1388 7.96592 14.4815 7.81386 14.7428 7.58351L14.1807 6.94593L13.6185 6.30835C13.6222 6.30514 13.6449 6.28627 13.688 6.26983C13.7334 6.25256 13.7837 6.2448 13.8312 6.24731C13.9206 6.25203 13.932 6.2875 13.8528 6.22676L13.3356 6.9013ZM14.1807 6.94593L14.7428 7.58351C15.1132 7.25698 15.3683 6.8442 15.4764 6.35817L14.6466 6.17368L13.8169 5.9892C13.7917 6.10255 13.7362 6.2046 13.6185 6.30835L14.1807 6.94593ZM14.6466 6.17368L15.4764 6.35817C15.5387 6.07799 15.6041 5.8322 15.6717 5.61906L14.8614 5.36207L14.0512 5.10508C13.9657 5.3747 13.8879 5.66998 13.8169 5.9892L14.6466 6.17368ZM14.8614 5.36207L15.6717 5.61906C15.7093 5.50023 15.736 5.4194 15.7528 5.37127C15.7621 5.34489 15.764 5.34077 15.7607 5.34875C15.7606 5.34904 15.7494 5.37669 15.7294 5.41328C15.7216 5.42757 15.694 5.47804 15.6472 5.53585C15.6246 5.56382 15.5749 5.62216 15.4974 5.68024C15.4311 5.72999 15.252 5.85 14.9881 5.85V5V4.15C14.7238 4.15 14.5441 4.27024 14.4771 4.32047C14.3991 4.37902 14.3487 4.43807 14.3253 4.46697C14.277 4.52668 14.2476 4.57997 14.2377 4.59803C14.2136 4.64217 14.1972 4.68114 14.1908 4.69651C14.175 4.73467 14.1601 4.7758 14.1482 4.80976C14.1228 4.88232 14.0901 4.98253 14.0512 5.10508L14.8614 5.36207ZM14.9881 5L14.7581 4.18171L14.6729 4.20566L14.9029 5.02396L15.1329 5.84225L15.2181 5.81829L14.9881 5ZM14.9029 5.02396L15.1065 5.84921L15.2036 5.82525L15 5L14.7964 4.17475L14.6993 4.1987L14.9029 5.02396ZM9 5L9.20362 5.82525L9.30071 5.8013L9.09709 4.97605L8.89347 4.15079L8.79638 4.17475L9 5ZM9.09709 4.97605L9.93028 5.14427C10.0286 4.65718 10.1179 4.30523 10.1955 4.07229L9.38904 3.80373L8.58259 3.53517C8.47301 3.86423 8.36768 4.29383 8.2639 4.80782L9.09709 4.97605ZM9.38904 3.80373L10.1955 4.07229C10.1934 4.07867 10.1605 4.16147 10.056 4.22497C9.95978 4.28343 9.89467 4.26921 9.93268 4.27269L10.0102 3.42623L10.0876 2.57977C9.80514 2.55391 9.47627 2.58794 9.17304 2.77224C8.86152 2.96157 8.67829 3.24779 8.58259 3.53517L9.38904 3.80373ZM10.0102 3.42623L9.93268 4.27269C10.4631 4.32124 10.9675 4.1796 11.3852 3.83107L10.8407 3.1784L10.2962 2.52573C10.2475 2.56632 10.1982 2.58989 10.0876 2.57977L10.0102 3.42623ZM10.8407 3.1784L11.3852 3.83107C11.4887 3.74476 11.568 3.72223 11.6407 3.71934L11.607 2.87001L11.5732 2.02068C11.0906 2.03987 10.6591 2.22293 10.2962 2.52573L10.8407 3.1784ZM11.607 2.87001L11.6407 3.71934C11.876 3.70999 12.1115 3.71818 12.3474 3.74404L12.44 2.89909L12.5326 2.05415C12.2132 2.01915 11.8933 2.00796 11.5732 2.02068L11.607 2.87001ZM12.44 2.89909L12.3474 3.74404C12.7573 3.78896 13.1736 3.7378 13.5853 3.61837L13.3485 2.80202L13.1117 1.98567C12.8674 2.05653 12.678 2.07008 12.5326 2.05415L12.44 2.89909ZM13.3485 2.80202L13.5853 3.61837C13.5937 3.61592 13.5692 3.62448 13.5202 3.62129C13.4667 3.61782 13.4007 3.60124 13.3363 3.56377C13.2078 3.48905 13.1966 3.40097 13.2209 3.47155L14.0247 3.19525L14.8286 2.91895C14.73 2.63223 14.5448 2.29997 14.1909 2.09417C13.8202 1.87866 13.4265 1.89436 13.1117 1.98567L13.3485 2.80202ZM14.0247 3.19525L13.2209 3.47155C13.3926 3.97101 13.6946 4.41634 14.1772 4.69173L14.5985 3.95349L15.0198 3.21525C14.983 3.19425 14.9025 3.13408 14.8286 2.91895L14.0247 3.19525ZM14.5985 3.95349L14.1772 4.69173C14.2692 4.74428 14.3183 4.80378 14.352 4.89182L15.1458 4.58789L15.9396 4.28396C15.7629 3.82252 15.4471 3.45909 15.0198 3.21525L14.5985 3.95349ZM15.1458 4.58789L14.352 4.89182C14.4002 5.01772 14.3776 5.00098 14.3763 4.90936C14.3756 4.86543 14.3763 4.67461 14.5192 4.47667C14.6988 4.22788 14.9643 4.15 15.1518 4.15V5V5.85C15.3899 5.85 15.693 5.75495 15.8975 5.47182C16.0652 5.23953 16.0777 4.9972 16.0761 4.88458C16.0727 4.6556 15.9966 4.4328 15.9396 4.28396L15.1458 4.58789ZM15.1518 5L15.2332 4.15391L14.9844 4.12996L14.9029 4.97605L14.8215 5.82213L15.0703 5.84609L15.1518 5ZM14.9029 4.97605L14.6993 5.8013L14.7964 5.82525L15 5L15.2036 4.17475L15.1065 4.15079L14.9029 4.97605Z" fill="#D8F789" />
<path xmlns="http://www.w3.org/2000/svg" id="Vector_2" d="M9 12H9.01M9 16H9.01" stroke="#D8F789" stroke-width="1.7" stroke-linecap="round" />
<path xmlns="http://www.w3.org/2000/svg" id="Vector_3" d="M12 11.15C11.5306 11.15 11.15 11.5306 11.15 12C11.15 12.4694 11.5306 12.85 12 12.85V12V11.15ZM12.1 12L12.3083 11.1759L12.2058 11.15H12.1V12ZM14.9875 11.9041L15.6155 12.4769L15.8813 12.1854L15.8304 11.7942L14.9875 11.9041ZM14.9 12L14.272 11.4272L12.9742 12.85H14.9V12ZM15 12.85C15.4694 12.85 15.85 12.4694 15.85 12C15.85 11.5306 15.4694 11.15 15 11.15V12V12.85ZM12 15.15C11.5306 15.15 11.15 15.5306 11.15 16C11.15 16.4694 11.5306 16.85 12 16.85V16V15.15ZM12.1 16L12.8053 15.5256L12.5526 15.15H12.1V16ZM12.6375 16.227L11.9833 15.6842L12.6375 16.227ZM13.0625 15.7729L13.6419 16.3948L13.0625 15.7729ZM13.9125 16.3397L13.8363 15.4931V15.4931L13.9125 16.3397ZM14.3375 16.1321L14.9014 16.7681L14.3375 16.1321ZM14.7625 16.0518L14.377 16.8094L14.7625 16.0518ZM14.9875 16.08L15.8273 16.2112L15.8978 15.7603L15.5609 15.4525L14.9875 16.08ZM14.9 16V15.15H12.7098L14.3266 16.6275L14.9 16ZM15 16.85C15.4694 16.85 15.85 16.4694 15.85 16C15.85 15.5306 15.4694 15.15 15 15.15V16V16.85ZM12 12V12.85H12.1V12V11.15H12V12ZM12.1 12L11.8917 12.8241C12.0514 12.8644 12.144 12.9074 12.1917 12.9368L12.6375 12.213L13.0833 11.4893C12.8477 11.3442 12.5819 11.2451 12.3083 11.1759L12.1 12ZM12.6375 12.213L12.1917 12.9368C12.3945 13.0616 12.6119 13.1601 12.8434 13.2219L13.0625 12.4006L13.2816 11.5793C13.2298 11.5655 13.1638 11.5389 13.0833 11.4893L12.6375 12.213ZM13.0625 12.4006L12.8434 13.2219C13.1864 13.3134 13.5288 13.2753 13.8375 13.1358L13.4875 12.3613L13.1375 11.5867C13.1446 11.5834 13.1653 11.5756 13.1967 11.5727C13.2287 11.5698 13.2586 11.5732 13.2816 11.5793L13.0625 12.4006ZM13.4875 12.3613L13.8375 13.1358C14.0269 13.0503 14.2102 12.9464 14.3877 12.8267L13.9125 12.1219L13.4373 11.4172C13.3315 11.4885 13.2315 11.5442 13.1375 11.5867L13.4875 12.3613ZM13.9125 12.1219L14.3877 12.8267C14.319 12.873 14.18 12.9328 14.0023 12.9069C13.8418 12.8835 13.7571 12.8051 13.7469 12.7953L14.3375 12.1839L14.9281 11.5726C14.7762 11.4259 14.5499 11.2688 14.2477 11.2247C13.9284 11.1781 13.6477 11.2753 13.4373 11.4172L13.9125 12.1219ZM14.3375 12.1839L13.7469 12.7953C13.9389 12.9807 14.2795 13.1865 14.7172 13.0987C15.0967 13.0225 15.3298 12.7629 15.4486 12.6005L14.7625 12.0987L14.0764 11.5969C14.0535 11.6282 14.145 11.4796 14.3828 11.4319C14.6788 11.3725 14.8777 11.524 14.9281 11.5726L14.3375 12.1839ZM14.7625 12.0987L15.4486 12.6005C15.5198 12.5031 15.5243 12.5103 15.4811 12.5477C15.4657 12.561 15.4259 12.5942 15.3653 12.6281C15.3158 12.6559 15.1762 12.728 14.9781 12.7302C14.7292 12.733 14.4794 12.6227 14.3135 12.412C14.1812 12.244 14.1527 12.0758 14.1446 12.0139L14.9875 11.9041L15.8304 11.7942C15.8202 11.7163 15.7876 11.5362 15.649 11.3602C15.4768 11.1416 15.2187 11.0275 14.9594 11.0303C14.7508 11.0326 14.5988 11.1089 14.5347 11.1448C14.4595 11.1869 14.4031 11.2323 14.3689 11.2619C14.2507 11.3641 14.1468 11.5006 14.0764 11.5969L14.7625 12.0987ZM14.9875 11.9041L14.3595 11.3312L14.272 11.4272L14.9 12L15.528 12.5728L15.6155 12.4769L14.9875 11.9041ZM14.9 12V12.85H15V12V11.15H14.9V12ZM12 16V16.85H12.1V16V15.15H12V16ZM12.1 16L11.3947 16.4744C11.5195 16.6599 11.7349 16.9414 12.0662 17.0813C12.2614 17.1638 12.5072 17.2005 12.7658 17.1238C13.0123 17.0507 13.1832 16.9005 13.2917 16.7697L12.6375 16.227L11.9833 15.6842C12.021 15.6389 12.1163 15.5432 12.2826 15.4939C12.4611 15.441 12.6219 15.4707 12.7275 15.5152C12.7756 15.5356 12.8092 15.5573 12.8282 15.5712C12.8474 15.5852 12.8571 15.5949 12.8579 15.5957C12.858 15.5958 12.8398 15.5769 12.8053 15.5256L12.1 16ZM12.6375 16.227L13.2917 16.7697C13.4134 16.6229 13.5303 16.4987 13.6419 16.3948L13.0625 15.7729L12.4831 15.1509C12.3113 15.3109 12.1449 15.4895 11.9833 15.6842L12.6375 16.227ZM13.0625 15.7729L13.6419 16.3948C13.6039 16.4302 13.5127 16.5027 13.3652 16.5377C13.2034 16.5762 13.0459 16.5522 12.9221 16.4956C12.8129 16.4458 12.7551 16.3831 12.7397 16.3654C12.7225 16.3455 12.7242 16.3424 12.7403 16.372L13.4875 15.9668L14.2347 15.5617C14.1444 15.395 13.9621 15.1016 13.6279 14.9491C13.4332 14.8602 13.2049 14.8285 12.9723 14.8838C12.754 14.9356 12.5919 15.0495 12.4831 15.1509L13.0625 15.7729ZM13.4875 15.9668L12.7403 16.372C12.8346 16.546 12.9623 16.7396 13.1395 16.895C13.3259 17.0585 13.6179 17.2196 13.9887 17.1862L13.9125 16.3397L13.8363 15.4931C14.0655 15.4725 14.2158 15.5778 14.2605 15.617C14.296 15.6482 14.2821 15.649 14.2347 15.5617L13.4875 15.9668ZM13.9125 16.3397L13.9887 17.1862C14.3628 17.1526 14.6685 16.9746 14.9014 16.7681L14.3375 16.1321L13.7736 15.4961C13.7492 15.5178 13.7415 15.5196 13.752 15.5144C13.7642 15.5085 13.7934 15.4969 13.8363 15.4931L13.9125 16.3397ZM14.3375 16.1321L14.9014 16.7681C14.8925 16.776 14.8281 16.8303 14.7078 16.853C14.5749 16.8782 14.4556 16.8493 14.377 16.8094L14.7625 16.0518L15.148 15.2942C14.9278 15.1822 14.6668 15.1307 14.3922 15.1826C14.1302 15.2321 13.9242 15.3625 13.7736 15.4961L14.3375 16.1321ZM14.7625 16.0518L14.377 16.8094C14.4606 16.8519 14.6261 16.9321 14.8194 16.9563C14.915 16.9683 15.133 16.9825 15.365 16.8601C15.6499 16.71 15.7906 16.4458 15.8273 16.2112L14.9875 16.08L14.1477 15.9487C14.1802 15.7407 14.3084 15.4954 14.5725 15.3562C14.7837 15.2449 14.9725 15.2622 15.0306 15.2695C15.1489 15.2843 15.2061 15.3238 15.148 15.2942L14.7625 16.0518ZM14.9875 16.08L15.5609 15.4525L15.4734 15.3725L14.9 16L14.3266 16.6275L14.4141 16.7074L14.9875 16.08ZM14.9 16V16.85H15V16V15.15H14.9V16Z" fill="#D8F789" />

</svg>