<svg width="24" height="24" viewBox="0 0 24 24" fill="none" xmlns="http://www.w3.org/2000/svg">
<path xmlns="http://www.w3.org/2000/svg" id="Vector" d="M2.39896 11.399C2.06701 11.7309 2.06701 12.2691 2.39896 12.601C2.7309 12.933 3.2691 12.933 3.60104 12.601L3 12L2.39896 11.399ZM3.07071 11.9293L3.67175 12.5303L3.68177 12.5203L3.69144 12.51L3.07071 11.9293ZM4.69473 10.0947L3.90453 9.78155L4.69473 10.0947ZM4.90413 9.90413L5.7446 9.77721L5.70286 9.50077L5.50517 9.30309L4.90413 9.90413ZM4.92929 10.0707L4.08882 10.1976L4.34016 11.8619L5.53033 10.6718L4.92929 10.0707ZM5.07071 9.92929L4.58436 9.23218L4.52277 9.27515L4.46967 9.32825L5.07071 9.92929ZM7.52577 7.29672L7.06264 6.58397L7.52577 7.29672ZM9.74165 5.32935L9.05269 4.83152L9.74165 5.32935ZM10.8064 4.30244L10.333 3.59647L10.8064 4.30244ZM11.905 3.57318L12.3706 4.2843L11.905 3.57318ZM12.9671 3.72007L13.4874 3.04795L12.9671 3.72007ZM14.8763 5.99412L14.4924 6.75251L14.8763 5.99412ZM15.9103 7.05175L15.1443 7.42017L15.9103 7.05175ZM18.6723 9.92327L18.4785 10.7509L18.5643 10.771L18.6524 10.773L18.6723 9.92327ZM18.9293 9.92929L19.5303 9.32825L19.2896 9.08749L18.9492 9.07952L18.9293 9.92929ZM5 10.1H4.15V10.2004L4.17339 10.298L5 10.1ZM5.02773 12.2185L4.24104 11.8966L5.02773 12.2185ZM5.67177 20.6445L5.27975 21.3987L5.67177 20.6445ZM8.37012 20.9012L8.52012 21.7378L8.37012 20.9012ZM9 20.8941L9.41162 21.6378L9.85 21.3952V20.8941H9ZM8.92219 20.9372L8.51057 20.1935L7.40547 20.8051L8.38826 21.5986L8.92219 20.9372ZM9 21L8.46607 21.6614L8.69971 21.85H9V21ZM19.0707 10.0707L18.4697 10.6718L18.534 10.7361L18.6105 10.7854L19.0707 10.0707ZM20.2953 11.1047L19.6085 11.6055L20.2953 11.1047ZM21.0836 11.9164L21.1544 12.7634L21.4646 12.7375L21.6846 12.5174L21.0836 11.9164ZM20.9293 11.9293L20.8585 11.0822L19.0327 11.2348L20.3282 12.5303L20.9293 11.9293ZM20.399 12.601C20.7309 12.933 21.2691 12.933 21.601 12.601C21.933 12.2691 21.933 11.7309 21.601 11.399L21 12L20.399 12.601ZM19 10.1L19.8493 10.1349L19.85 10.1174V10.1H19ZM19.32 18.1345L18.4701 18.1464L19.32 18.1345ZM19.0093 19.5638L18.2387 19.2052L19.0093 19.5638ZM18.2135 20.7892L17.5775 20.2253L18.2135 20.7892ZM15 21.0061L14.4363 20.3699L14.15 20.6236V21.0061H15ZM15.0778 20.9372L15.6415 21.5734L14.5439 20.2758L15.0778 20.9372ZM15 21V21.85H15.3003L15.5339 21.6614L15 21ZM9.02698 20.9037L8.35827 20.379L8.25406 20.5118L8.20851 20.6744L9.02698 20.9037ZM9.94841 19.338L9.14894 19.0493L9.94841 19.338ZM9.92668 17.8733L9.13305 18.1777L9.92668 17.8733ZM9.8882 16.411L9.08325 16.138L9.8882 16.411ZM10.6934 15.4893L10.9781 16.2902L10.6934 15.4893ZM11.993 14.9963L11.679 14.2064L11.993 14.9963ZM13.3534 15.1682L12.8432 15.8481L13.3534 15.1682ZM14.9931 20.9919L14.3456 21.5426L15.8219 20.8032L14.9931 20.9919ZM14.973 20.9037L15.7915 20.6744L14.1442 21.0924L14.973 20.9037ZM9.1 21L9.28839 20.1711L9.19538 20.15H9.1V21ZM14.958 20.8148L15.7692 21.0687L15.8376 20.8502L15.787 20.6268L14.958 20.8148ZM14.9 21L14.0888 20.746L13.7432 21.85H14.9V21ZM3 12L3.60104 12.601L3.67175 12.5303L3.07071 11.9293L2.46967 11.3282L2.39896 11.399L3 12ZM3.07071 11.9293L3.69144 12.51C4.15885 12.0103 4.51899 11.6365 4.77534 11.3836L4.17844 10.7784L3.58155 10.1733C3.3009 10.4501 2.92254 10.8435 2.44998 11.3486L3.07071 11.9293ZM4.17844 10.7784L4.77534 11.3836C5.06926 11.0937 5.34323 10.7654 5.48493 10.4079L4.69473 10.0947L3.90453 9.78155C3.90465 9.78124 3.90064 9.79126 3.8883 9.81212C3.87607 9.8328 3.85756 9.86092 3.83056 9.89667C3.77579 9.96921 3.69514 10.0612 3.58155 10.1733L4.17844 10.7784ZM4.69473 10.0947L5.48493 10.4079C5.49442 10.384 5.49626 10.3834 5.48833 10.3972C5.48396 10.4049 5.45013 10.465 5.376 10.5325C5.30093 10.6008 5.12206 10.7309 4.85269 10.7301C4.57491 10.7293 4.38853 10.5906 4.30309 10.5052L4.90413 9.90413L5.50517 9.30309C5.38779 9.1857 5.16871 9.03098 4.8575 9.0301C4.55471 9.02924 4.34167 9.17515 4.2317 9.27525C4.04112 9.44871 3.94669 9.67516 3.90453 9.78155L4.69473 10.0947ZM4.90413 9.90413L4.06366 10.0311L4.08882 10.1976L4.92929 10.0707L5.76976 9.94378L5.7446 9.77721L4.90413 9.90413ZM4.92929 10.0707L5.53033 10.6718L5.60104 10.601L5 10L4.39896 9.39896L4.32825 9.46967L4.92929 10.0707ZM5 10L5.60104 10.601L5.67175 10.5303L5.07071 9.92929L4.46967 9.32825L4.39896 9.39896L5 10ZM5.07071 9.92929L5.55706 10.6264C6.36243 10.0645 7.00416 9.45683 7.32381 8.78216L6.55566 8.41823L5.78751 8.05429C5.65889 8.32577 5.31066 8.72546 4.58436 9.23218L5.07071 9.92929ZM6.55566 8.41823L7.32381 8.78216C7.48327 8.44559 7.70357 8.19487 7.9889 8.00947L7.52577 7.29672L7.06264 6.58397C6.50276 6.94776 6.07632 7.44472 5.78751 8.05429L6.55566 8.41823ZM7.52577 7.29672L7.9889 8.00947C8.43864 7.71723 8.8671 7.40239 9.27399 7.06486L8.73132 6.41064L8.18864 5.75642C7.83336 6.05113 7.45812 6.327 7.06264 6.58397L7.52577 7.29672ZM8.73132 6.41064L9.27399 7.06486C9.71072 6.7026 10.0965 6.28952 10.4306 5.82718L9.74165 5.32935L9.05269 4.83152C8.80184 5.17868 8.5141 5.48645 8.18864 5.75642L8.73132 6.41064ZM9.74165 5.32935L10.4306 5.82718C10.6637 5.50456 10.9455 5.23257 11.2798 5.00841L10.8064 4.30244L10.333 3.59647C9.83254 3.93204 9.40449 4.34466 9.05269 4.83152L9.74165 5.32935ZM10.8064 4.30244L11.2798 5.00841C11.6953 4.72975 12.0589 4.48846 12.3706 4.2843L11.905 3.57318L11.4394 2.86207C11.121 3.07054 10.7521 3.31542 10.333 3.59647L10.8064 4.30244ZM11.905 3.57318L12.3706 4.2843C12.3745 4.2818 12.3648 4.28866 12.3432 4.29374C12.3209 4.29899 12.3014 4.29867 12.2904 4.29716C12.2812 4.29588 12.2891 4.29532 12.3163 4.30819C12.3442 4.32135 12.3877 4.34649 12.4468 4.39218L12.9671 3.72007L13.4874 3.04795C13.2172 2.8387 12.8939 2.66444 12.5233 2.61318C12.1312 2.55896 11.7587 2.65298 11.4394 2.86207L11.905 3.57318ZM12.9671 3.72007L12.4468 4.39218C12.7172 4.60155 12.9317 4.87808 13.0874 5.24302L13.8692 4.90954L14.6511 4.57607C14.3898 3.96351 14.0029 3.44705 13.4874 3.04795L12.9671 3.72007ZM13.8692 4.90954L13.0874 5.24302C13.3723 5.91098 13.8463 6.42548 14.4924 6.75251L14.8763 5.99412L15.2602 5.23574C14.9804 5.09416 14.7831 4.8856 14.6511 4.57607L13.8692 4.90954ZM14.8763 5.99412L14.4924 6.75251C14.7873 6.90175 14.9983 7.1166 15.1443 7.42017L15.9103 7.05175L16.6763 6.68333C16.3694 6.04533 15.8911 5.5551 15.2602 5.23574L14.8763 5.99412ZM15.9103 7.05175L15.1443 7.42017C15.4512 8.05828 15.9297 8.5485 16.5609 8.86769L16.9445 8.10916L17.3281 7.35063C17.0332 7.20151 16.8222 6.98678 16.6763 6.68333L15.9103 7.05175ZM16.9445 8.10916L16.5609 8.86769C16.863 9.02046 17.0811 9.238 17.2343 9.53902L17.9918 9.15347L18.7493 8.76793C18.4322 8.14485 17.9521 7.66618 17.3281 7.35063L16.9445 8.10916ZM17.9918 9.15347L17.2343 9.53902C17.3696 9.80487 17.5228 10.0533 17.7014 10.2554C17.8739 10.4506 18.129 10.6691 18.4785 10.7509L18.6723 9.92327L18.866 9.09565C18.9971 9.12633 19.0295 9.19096 18.9751 9.12951C18.9269 9.07499 18.8492 8.96413 18.7493 8.76793L17.9918 9.15347ZM18.6723 9.92327L18.6524 10.773L18.9094 10.7791L18.9293 9.92929L18.9492 9.07952L18.6922 9.07351L18.6723 9.92327ZM18.9293 9.92929L18.3282 10.5303L18.399 10.601L19 10L19.601 9.39896L19.5303 9.32825L18.9293 9.92929ZM5 10H4.15V10.1H5H5.85V10H5ZM5 10.1L4.17339 10.298C4.38044 11.1624 4.34054 11.6534 4.24104 11.8966L5.02773 12.2185L5.81441 12.5404C6.11838 11.7976 6.06 10.8763 5.82661 9.90199L5 10.1ZM5.02773 12.2185L4.24104 11.8966C3.98576 12.5204 3.89669 13.1669 3.99275 13.821L4.83373 13.6975L5.67471 13.574C5.62596 13.2421 5.66621 12.9026 5.81441 12.5404L5.02773 12.2185ZM4.83373 13.6975L3.99275 13.821C4.05101 14.2177 4.0414 14.6135 3.96297 15.0126L4.79702 15.1765L5.63107 15.3404C5.7464 14.7535 5.76126 14.1633 5.67471 13.574L4.83373 13.6975ZM4.79702 15.1765L3.96297 15.0126C3.837 15.6536 3.88144 16.2945 4.08782 16.9213L4.89518 16.6555L5.70255 16.3897C5.58428 16.0305 5.56327 15.6854 5.63107 15.3404L4.79702 15.1765ZM4.89518 16.6555L4.08782 16.9213C4.21256 17.3002 4.24803 17.6664 4.20263 18.0289L5.04604 18.1345L5.88945 18.2401C5.96756 17.6166 5.90245 16.9968 5.70255 16.3897L4.89518 16.6555ZM5.04604 18.1345L4.20263 18.0289C4.1335 18.5808 4.12281 19.1317 4.17113 19.6806L5.01786 19.6061L5.86458 19.5315C5.82698 19.1043 5.83508 18.6742 5.88945 18.2401L5.04604 18.1345ZM5.01786 19.6061L4.17113 19.6806C4.23636 20.4215 4.5981 21.0444 5.27975 21.3987L5.67177 20.6445L6.06379 19.8903C5.95948 19.8361 5.88529 19.7667 5.86458 19.5315L5.01786 19.6061ZM5.67177 20.6445L5.27975 21.3987C5.79495 21.6665 6.36163 21.806 6.96446 21.8317L7.00074 20.9825L7.03702 20.1333C6.65385 20.1169 6.33455 20.031 6.06379 19.8903L5.67177 20.6445ZM7.00074 20.9825L6.96446 21.8317C7.51035 21.855 8.03008 21.8257 8.52012 21.7378L8.37012 20.9012L8.22012 20.0645C7.87032 20.1272 7.47713 20.1521 7.03702 20.1333L7.00074 20.9825ZM8.37012 20.9012L8.52012 21.7378C8.72082 21.7018 8.82092 21.6932 8.85204 21.6929C8.87975 21.6926 8.80656 21.6985 8.6979 21.6632C8.641 21.6447 8.51298 21.5957 8.3899 21.4729C8.24552 21.3289 8.15 21.1234 8.15 20.8941H9H9.85C9.85 20.6471 9.74792 20.4263 9.59042 20.2692C9.45421 20.1334 9.30651 20.0735 9.22336 20.0465C9.06221 19.9941 8.91029 19.9921 8.83302 19.993C8.65418 19.995 8.43934 20.0252 8.22012 20.0645L8.37012 20.9012ZM9 20.8941L8.58838 20.1504L8.51057 20.1935L8.92219 20.9372L9.33381 21.6809L9.41162 21.6378L9 20.8941ZM8.92219 20.9372L8.38826 21.5986L8.46607 21.6614L9 21L9.53393 20.3386L9.45612 20.2758L8.92219 20.9372ZM19 10L18.399 10.601L18.4697 10.6718L19.0707 10.0707L19.6718 9.46967L19.601 9.39896L19 10ZM19.0707 10.0707L18.6105 10.7854C19.1754 11.1491 19.4773 11.4255 19.6085 11.6055L20.2953 11.1047L20.9821 10.6039C20.6635 10.167 20.149 9.75411 19.5309 9.35606L19.0707 10.0707ZM20.2953 11.1047L19.6085 11.6055C19.8529 11.9406 20.1537 12.2785 20.5219 12.4613L20.8999 11.7001L21.278 10.9388C21.2956 10.9475 21.273 10.9397 21.2115 10.8792C21.1528 10.8214 21.0761 10.7327 20.9821 10.6039L20.2953 11.1047ZM20.8999 11.7001L20.5219 12.4613C20.5966 12.4985 20.5205 12.4755 20.4315 12.3706C20.3807 12.3107 20.2647 12.1523 20.2543 11.9079C20.2424 11.6326 20.3702 11.4278 20.4826 11.3154L21.0836 11.9164L21.6846 12.5174C21.8249 12.3772 21.9659 12.1425 21.9527 11.8351C21.9408 11.5588 21.8089 11.3663 21.7275 11.2704C21.5772 11.0934 21.3815 10.9901 21.278 10.9388L20.8999 11.7001ZM21.0836 11.9164L21.0128 11.0693L20.8585 11.0822L20.9293 11.9293L21.0001 12.7763L21.1544 12.7634L21.0836 11.9164ZM20.9293 11.9293L20.3282 12.5303L20.399 12.601L21 12L21.601 11.399L21.5303 11.3282L20.9293 11.9293ZM19 10H18.15V10.1H19H19.85V10H19ZM19 10.1L18.1507 10.0651C18.1132 10.9802 18.0727 11.67 18.0301 12.1422L18.8767 12.2185L19.7233 12.2948C19.7696 11.781 19.8114 11.0585 19.8493 10.1349L19 10.1ZM18.8767 12.2185L18.0301 12.1422C17.9819 12.677 17.9735 13.2122 18.005 13.7474L18.8535 13.6975L19.702 13.6476C19.6755 13.1968 19.6826 12.746 19.7233 12.2948L18.8767 12.2185ZM18.8535 13.6975L18.005 13.7474C18.0336 14.2339 18.0565 14.7204 18.0739 15.2069L18.9234 15.1765L19.7729 15.1461C19.755 14.6466 19.7314 14.1471 19.702 13.6476L18.8535 13.6975ZM18.9234 15.1765L18.0739 15.2069C18.0937 15.759 18.1707 16.3091 18.3038 16.8564L19.1297 16.6555L19.9557 16.4546C19.8489 16.0159 19.7884 15.58 19.7729 15.1461L18.9234 15.1765ZM19.1297 16.6555L18.3038 16.8564C18.4092 17.2893 18.4641 17.7189 18.4701 18.1464L19.32 18.1345L20.1699 18.1226C20.1621 17.5641 20.0902 17.0077 19.9557 16.4546L19.1297 16.6555ZM19.32 18.1345L18.4701 18.1464C18.4751 18.5077 18.4003 18.8578 18.2387 19.2052L19.0093 19.5638L19.78 19.9224C20.0463 19.35 20.1786 18.7473 20.1699 18.1226L19.32 18.1345ZM19.0093 19.5638L18.2387 19.2052C18.0572 19.5952 17.8361 19.9336 17.5775 20.2253L18.2135 20.7892L18.8496 21.353C19.224 20.9307 19.5335 20.4522 19.78 19.9224L19.0093 19.5638ZM18.2135 20.7892L17.5775 20.2253C17.4387 20.3818 17.2869 20.4514 17.0412 20.4393L16.9993 21.2882L16.9574 22.1372C17.6976 22.1737 18.3553 21.9106 18.8496 21.353L18.2135 20.7892ZM16.9993 21.2882L17.0412 20.4393C16.5815 20.4166 16.1646 20.3684 15.7886 20.2969L15.6299 21.132L15.4711 21.967C15.935 22.0552 16.431 22.1112 16.9574 22.1372L16.9993 21.2882ZM15.6299 21.132L15.7886 20.2969C15.5792 20.2571 15.425 20.2273 15.324 20.2071C15.2727 20.1969 15.2397 20.19 15.2214 20.186C15.2107 20.1837 15.2133 20.1841 15.2224 20.1864C15.2239 20.1868 15.2452 20.1922 15.2732 20.2016C15.2826 20.2048 15.3247 20.2188 15.3757 20.2439C15.3969 20.2543 15.4611 20.2864 15.5324 20.3437C15.5683 20.3725 15.6338 20.4296 15.696 20.5182C15.7575 20.606 15.85 20.7745 15.85 21.0061H15H14.15C14.15 21.2378 14.2425 21.4064 14.3041 21.4943C14.3663 21.583 14.4319 21.6401 14.4679 21.669C14.5394 21.7265 14.6039 21.7587 14.6255 21.7694C14.6774 21.7949 14.7207 21.8094 14.7317 21.8131C14.763 21.8236 14.7892 21.8303 14.7973 21.8324C14.8196 21.8382 14.8418 21.8432 14.8573 21.8466C14.8916 21.8541 14.9372 21.8635 14.9909 21.8742C15.0999 21.896 15.2606 21.927 15.4711 21.967L15.6299 21.132ZM15 21.0061L15.5637 21.6423L15.6415 21.5734L15.0778 20.9372L14.5141 20.301L14.4363 20.3699L15 21.0061ZM15.0778 20.9372L14.5439 20.2758L14.4661 20.3386L15 21L15.5339 21.6614L15.6117 21.5986L15.0778 20.9372ZM9 21L9.81847 21.2293L9.84546 21.1331L9.02698 20.9037L8.20851 20.6744L8.18153 20.7707L9 21ZM9.02698 20.9037L9.69569 21.4284C10.1714 20.8222 10.5332 20.2211 10.7479 19.6267L9.94841 19.338L9.14894 19.0493C9.01439 19.4218 8.76197 19.8645 8.35827 20.379L9.02698 20.9037ZM9.94841 19.338L10.7479 19.6267C10.9938 18.9456 10.9803 18.2468 10.7203 17.5689L9.92668 17.8733L9.13305 18.1777C9.25121 18.4857 9.25217 18.7634 9.14894 19.0493L9.94841 19.338ZM9.92668 17.8733L10.7203 17.5689C10.5994 17.2535 10.596 16.9704 10.6932 16.6841L9.8882 16.411L9.08325 16.138C8.85351 16.8153 8.87582 17.507 9.13305 18.1777L9.92668 17.8733ZM9.8882 16.411L10.6932 16.6841C10.7989 16.3724 10.9167 16.312 10.9781 16.2902L10.6934 15.4893L10.4088 14.6883C9.72342 14.9319 9.3044 15.486 9.08325 16.138L9.8882 16.411ZM10.6934 15.4893L10.9781 16.2902C11.3639 16.153 11.8072 15.9848 12.3069 15.7862L11.993 14.9963L11.679 14.2064C11.1927 14.3997 10.7697 14.5601 10.4088 14.6883L10.6934 15.4893ZM11.993 14.9963L12.3069 15.7862C12.5333 15.6962 12.6733 15.7206 12.8432 15.8481L13.3534 15.1682L13.8635 14.4883C13.2056 13.9947 12.4387 13.9045 11.679 14.2064L11.993 14.9963ZM13.3534 15.1682L12.8432 15.8481C13.0342 15.9914 13.0795 16.1151 13.0632 16.3037L13.9101 16.3769L14.7569 16.4501C14.8262 15.6483 14.5004 14.9662 13.8635 14.4883L13.3534 15.1682ZM13.9101 16.3769L13.0632 16.3037C13.0173 16.8359 13.0063 17.3673 13.0305 17.8979L13.8796 17.8592L14.7287 17.8205C14.708 17.3651 14.7173 16.9084 14.7569 16.4501L13.9101 16.3769ZM13.8796 17.8592L13.0305 17.8979C13.0517 18.3643 13.0511 18.8329 13.0286 19.3039L13.8776 19.3444L14.7267 19.385C14.7517 18.8617 14.7524 18.3402 14.7287 17.8205L13.8796 17.8592ZM13.8776 19.3444L13.0286 19.3039C12.9921 20.0674 13.2847 20.7335 13.8909 21.2069L14.4141 20.537L14.9373 19.8671C14.7807 19.7448 14.7156 19.6158 14.7267 19.385L13.8776 19.3444ZM14.4141 20.537L13.8909 21.2069C14.0814 21.3557 14.2243 21.4674 14.3197 21.5425C14.3677 21.5801 14.4027 21.6077 14.4254 21.6258C14.4371 21.6351 14.4438 21.6405 14.4468 21.6429C14.4487 21.6445 14.4467 21.6429 14.4427 21.6395C14.4411 21.6382 14.4352 21.6332 14.4275 21.6264C14.4238 21.6231 14.4162 21.6163 14.4068 21.6073C14.4027 21.6034 14.3759 21.5782 14.3456 21.5426L14.9931 20.9919L15.6405 20.4411C15.6101 20.4054 15.5831 20.38 15.5787 20.3757C15.5689 20.3665 15.5609 20.3593 15.5567 20.3555C15.5479 20.3478 15.5407 20.3416 15.5373 20.3388C15.5298 20.3325 15.5228 20.3267 15.5182 20.323C15.5083 20.315 15.4962 20.3053 15.4832 20.295C15.4566 20.2738 15.4186 20.2439 15.37 20.2057C15.2725 20.1291 15.1281 20.0161 14.9373 19.8671L14.4141 20.537ZM14.9931 20.9919L15.8219 20.8032L15.8018 20.715L14.973 20.9037L14.1442 21.0924L14.1643 21.1805L14.9931 20.9919ZM14.973 20.9037L14.1545 21.1331L14.1815 21.2293L15 21L15.8185 20.7707L15.7915 20.6744L14.973 20.9037ZM9 21V21.85H9.1V21V20.15H9V21ZM9.1 21L8.91161 21.8289C9.85598 22.0435 10.6756 22.1465 11.3145 22.074L11.2185 21.2294L11.1225 20.3848C10.7754 20.4243 10.1827 20.3744 9.28839 20.1711L9.1 21ZM11.2185 21.2294L11.3145 22.074C11.8287 22.0155 12.3426 21.9375 12.8562 21.8399L12.6975 21.0048L12.5388 20.1698C12.0664 20.2596 11.5943 20.3312 11.1225 20.3848L11.2185 21.2294ZM12.6975 21.0048L12.8562 21.8399C13.3408 21.7478 13.8253 21.6633 14.3098 21.5864L14.1765 20.7469L14.0432 19.9074C13.5417 19.987 13.0402 20.0745 12.5388 20.1698L12.6975 21.0048ZM14.1765 20.7469L14.3098 21.5864C14.5378 21.5502 14.6436 21.5499 14.6681 21.552C14.6836 21.5533 14.6116 21.5511 14.5094 21.4993C14.4527 21.4707 14.373 21.4197 14.2973 21.3334C14.218 21.2428 14.1578 21.1297 14.129 21.0027L14.958 20.8148L15.787 20.6268C15.7091 20.2836 15.4717 20.0811 15.2774 19.9828C15.1031 19.8944 14.9299 19.8683 14.8151 19.8584C14.5792 19.8379 14.3082 19.8654 14.0432 19.9074L14.1765 20.7469ZM14.958 20.8148L14.1468 20.5608L14.0888 20.746L14.9 21L15.7112 21.254L15.7692 21.0687L14.958 20.8148ZM14.9 21V21.85H15V21V20.15H14.9V21Z" fill="#D8F789" />

</svg>