<svg width="24" height="24" viewBox="0 0 24 24" fill="none" xmlns="http://www.w3.org/2000/svg">
<path xmlns="http://www.w3.org/2000/svg" id="Vector" d="M17.1435 19.03L17.643 19.7178L17.1435 19.03ZM16.8867 19.2166L16.3872 18.5288L16.8867 19.2166ZM16.3511 19.5465L15.9622 18.7907L16.3511 19.5465ZM15.7936 19.8334L16.1826 20.5892L15.7936 19.8334ZM15.2157 20.0589L15.4405 20.8787L15.2157 20.0589ZM14.6174 20.223L14.3926 19.4032L14.6174 20.223ZM14.0375 20.4838L13.5808 19.7669L14.0375 20.4838ZM13.7567 20.6627L13.3001 19.9457L13.7567 20.6627ZM13.4759 20.8415L13.9326 21.5584L13.4759 20.8415ZM12.8726 21.0858L13.0416 21.9188L12.8726 21.0858ZM12.5501 21.1512L12.3811 20.3181L12.5501 21.1512ZM12.2276 21.2166L12.0586 20.3836L12.2276 21.2166ZM11.5694 21.2953L11.6029 22.1446L11.5694 21.2953ZM10.8979 21.3218L10.8644 20.4724L10.8979 21.3218ZM10.266 21.164L9.84096 21.9001L10.266 21.164ZM9.67375 20.822L9.2487 21.5581L9.67375 20.822ZM9.10204 20.4858L8.66499 21.2149L9.10204 20.4858ZM8.55089 20.1554L8.98794 19.4264L8.55089 20.1554ZM7.65268 19.7711L7.93487 18.9693L7.65268 19.7711ZM7.34137 19.6615L7.05918 20.4633L7.34137 19.6615ZM6.77209 19.3471L6.24353 20.0128L6.77209 19.3471ZM6.51413 19.1423L7.04269 18.4766L6.51413 19.1423ZM6.25617 18.9375L6.78473 18.2718L6.25617 18.9375ZM5.52046 17.8621L4.77531 18.2711L5.52046 17.8621ZM5.24535 17.2729L4.45277 17.5801L5.24535 17.2729ZM5.01361 16.6749L4.22103 16.982L5.01361 16.6749ZM4.79662 15.4303L3.95143 15.5206L4.79662 15.4303ZM4.50523 14.8459L3.89126 15.4337L4.50523 14.8459ZM3.98987 14.3076L4.60383 13.7198L3.98987 14.3076ZM3.7795 13.0477L2.93046 13.0071L3.7795 13.0477ZM3.84959 12.3961L4.68769 12.5378L3.84959 12.3961ZM4.15528 11.1407L3.39182 10.7671L4.15528 11.1407ZM4.70028 9.97185L3.91035 9.658L4.70028 9.97185ZM4.93399 9.38364L5.72392 9.6975L4.93399 9.38364ZM5.45864 8.2012L4.68615 7.84658L5.45864 8.2012ZM5.75492 7.88452L5.64679 7.04143L5.75492 7.88452ZM6.0756 7.8434L5.96748 7.0003L6.0756 7.8434ZM6.4408 8.08838L5.76778 8.60756L6.4408 8.08838ZM6.64564 8.35393L5.97262 8.87311L6.64564 8.35393ZM6.85049 8.61948L7.52351 8.10031L6.85049 8.61948ZM7.3392 9.05681L6.89913 9.78402L7.3392 9.05681ZM7.90692 9.40037L8.34699 8.67316L7.90692 9.40037ZM8.37601 9.58766L8.3051 10.4347L8.37601 9.58766ZM8.56125 9.60316L8.63216 8.75613L8.56125 9.60316ZM8.90757 9.30736L9.75526 9.24474L8.90757 9.30736ZM8.88343 8.98055L8.03574 9.04317L8.88343 8.98055ZM8.85928 8.65373L8.01159 8.71636L8.85928 8.65373ZM9.49933 7.49216L8.83419 6.96293L9.49933 7.49216ZM9.77511 6.24146L10.6238 6.28892L9.77511 6.24146ZM9.89057 5.60321L10.7025 5.85479L9.89057 5.60321ZM10.0852 4.975L9.27331 4.72342L10.0852 4.975ZM10.4447 4.45684L10.9668 5.1276L10.4447 4.45684ZM10.7069 4.25278L10.1848 3.58202L10.7069 4.25278ZM10.9691 4.04872L10.447 3.37796L10.9691 4.04872ZM11.3712 3.73332L11.9004 4.39849L11.3712 3.73332ZM11.6511 3.51063L12.1803 4.1758L11.6511 3.51063ZM12.4918 3.57569L12.2843 4.39997L12.4918 3.57569ZM12.8422 3.66389L13.0497 2.8396L12.8422 3.66389ZM13.3878 4.02109L12.6999 4.52033L13.3878 4.02109ZM13.583 4.29008L14.271 3.79084L13.583 4.29008ZM13.7782 4.55908L13.0903 5.05832L13.7782 4.55908ZM14.2165 5.04048L13.6572 5.68051L14.2165 5.04048ZM14.4596 5.25289L15.0189 4.61286L14.4596 5.25289ZM14.7026 5.4653L14.1433 6.10533L14.7026 5.4653ZM15.2553 5.78726L14.9718 6.58859L15.2553 5.78726ZM15.5649 5.89681L15.8484 5.09549V5.09549L15.5649 5.89681ZM15.8745 6.00636L16.1581 5.20504L15.8745 6.00636ZM17.1058 6.51L16.7717 7.29155L17.1058 6.51ZM17.6112 6.90712L16.9297 7.41514L17.6112 6.90712ZM17.8093 7.17288L17.1278 7.6809L17.8093 7.17288ZM18.0074 7.43864L18.6889 6.93061L18.0074 7.43864ZM18.4351 7.94351L19.0483 7.35487L18.4351 7.94351ZM18.8942 8.42174L18.281 9.01038L18.8942 8.42174ZM19.1002 9.0279L19.9485 9.08217L19.1002 9.0279ZM19.0533 9.762L18.205 9.70774L19.0533 9.762ZM19.2488 10.3874L19.8972 9.83776L19.2488 10.3874ZM19.4678 10.6457L18.8194 11.1954L19.4678 10.6457ZM19.6867 10.9041L19.0383 11.4537L19.6867 10.9041ZM20.2516 12.1069L19.4535 12.3992L20.2516 12.1069ZM20.329 12.7523L19.4845 12.6553L20.329 12.7523ZM20.253 13.4133L21.0975 13.5103L20.253 13.4133ZM20.021 14.0321L19.3158 13.5575L20.021 14.0321ZM19.827 14.3204L20.5322 14.7949L19.827 14.3204ZM19.633 14.6087L20.3382 15.0833L19.633 14.6087ZM19.4205 15.2208L18.5719 15.1724L19.4205 15.2208ZM19.3836 15.8685L20.2322 15.9169L19.3836 15.8685ZM19.2586 16.5021L20.0625 16.7784L19.2586 16.5021ZM19.0457 17.1218L18.2418 16.8456L19.0457 17.1218ZM18.6885 17.6456L18.1368 16.999L18.6885 17.6456ZM18.4377 17.8596L17.886 17.2129L18.4377 17.8596ZM18.1869 18.0735L18.7386 18.7201L18.1869 18.0735ZM17.8664 18.3799L18.5448 18.892L17.8664 18.3799ZM17.7269 18.5646L17.0485 18.0525L17.7269 18.5646ZM17.4004 18.8435L17.8998 19.5313L17.4004 18.8435ZM17.1435 19.03L16.6441 18.3423L16.3872 18.5288L16.8867 19.2166L17.3862 19.9043L17.643 19.7178L17.1435 19.03ZM16.8867 19.2166L16.3872 18.5288C16.2506 18.628 16.109 18.7152 15.9622 18.7907L16.3511 19.5465L16.7401 20.3023C16.9649 20.1866 17.1803 20.0538 17.3862 19.9043L16.8867 19.2166ZM16.3511 19.5465L15.9622 18.7907L15.6834 18.9342L16.0724 19.69L16.4613 20.4458L16.7401 20.3023L16.3511 19.5465ZM16.0724 19.69L15.6834 18.9342L15.4047 19.0776L15.7936 19.8334L16.1826 20.5892L16.4613 20.4458L16.0724 19.69ZM15.7936 19.8334L15.4047 19.0776C15.2706 19.1466 15.133 19.2002 14.9909 19.2392L15.2157 20.0589L15.4405 20.8787C15.6973 20.8082 15.9449 20.7115 16.1826 20.5892L15.7936 19.8334ZM15.2157 20.0589L14.9909 19.2392L14.6918 19.3212L14.9166 20.1409L15.1413 20.9607L15.4405 20.8787L15.2157 20.0589ZM14.9166 20.1409L14.6918 19.3212L14.3926 19.4032L14.6174 20.223L14.8422 21.0427L15.1413 20.9607L14.9166 20.1409ZM14.6174 20.223L14.3926 19.4032C14.1054 19.482 13.8345 19.6053 13.5808 19.7669L14.0375 20.4838L14.4941 21.2007C14.6148 21.1239 14.7305 21.0733 14.8422 21.0427L14.6174 20.223ZM14.0375 20.4838L13.5808 19.7669L13.3001 19.9457L13.7567 20.6627L14.2133 21.3796L14.4941 21.2007L14.0375 20.4838ZM13.7567 20.6627L13.3001 19.9457L13.0193 20.1246L13.4759 20.8415L13.9326 21.5584L14.2133 21.3796L13.7567 20.6627ZM13.4759 20.8415L13.0193 20.1246C12.919 20.1884 12.8153 20.2301 12.7037 20.2527L12.8726 21.0858L13.0416 21.9188C13.36 21.8542 13.6585 21.733 13.9326 21.5584L13.4759 20.8415ZM12.8726 21.0858L12.7037 20.2527L12.3811 20.3181L12.5501 21.1512L12.7191 21.9842L13.0416 21.9188L12.8726 21.0858ZM12.5501 21.1512L12.3811 20.3181L12.0586 20.3836L12.2276 21.2166L12.3966 22.0496L12.7191 21.9842L12.5501 21.1512ZM12.2276 21.2166L12.0586 20.3836C11.8892 20.4179 11.7151 20.4389 11.5358 20.4459L11.5694 21.2953L11.6029 22.1446C11.8713 22.134 12.136 22.1025 12.3966 22.0496L12.2276 21.2166ZM11.5694 21.2953L11.5358 20.4459L11.2001 20.4592L11.2336 21.3085L11.2671 22.1579L11.6029 22.1446L11.5694 21.2953ZM11.2336 21.3085L11.2001 20.4592L10.8644 20.4724L10.8979 21.3218L10.9314 22.1711L11.2671 22.1579L11.2336 21.3085ZM10.8979 21.3218L10.8644 20.4724C10.804 20.4748 10.752 20.4631 10.6911 20.4279L10.266 21.164L9.84096 21.9001C10.1749 22.0929 10.5441 22.1864 10.9314 22.1711L10.8979 21.3218ZM10.266 21.164L10.6911 20.4279L10.3949 20.2569L9.96988 20.993L9.54483 21.7291L9.84096 21.9001L10.266 21.164ZM9.96988 20.993L10.3949 20.2569L10.0988 20.0859L9.67375 20.822L9.2487 21.5581L9.54483 21.7291L9.96988 20.993ZM9.67375 20.822L10.0988 20.0859C9.90514 19.9741 9.71858 19.8644 9.53909 19.7568L9.10204 20.4858L8.66499 21.2149C8.85293 21.3275 9.04751 21.4419 9.2487 21.5581L9.67375 20.822ZM9.10204 20.4858L9.53909 19.7568L9.26352 19.5916L8.82646 20.3206L8.38941 21.0496L8.66499 21.2149L9.10204 20.4858ZM8.82646 20.3206L9.26352 19.5916L8.98794 19.4264L8.55089 20.1554L8.11384 20.8844L8.38941 21.0496L8.82646 20.3206ZM8.55089 20.1554L8.98794 19.4264C8.75387 19.2861 8.5062 19.1704 8.24619 19.0788L7.964 19.8806L7.68181 20.6824C7.83688 20.737 7.98048 20.8045 8.11384 20.8844L8.55089 20.1554ZM7.964 19.8806L8.24619 19.0788L7.93487 18.9693L7.65268 19.7711L7.37049 20.5729L7.68181 20.6824L7.964 19.8806ZM7.65268 19.7711L7.93487 18.9693L7.62356 18.8597L7.34137 19.6615L7.05918 20.4633L7.37049 20.5729L7.65268 19.7711ZM7.34137 19.6615L7.62356 18.8597C7.50495 18.818 7.39849 18.7591 7.30065 18.6814L6.77209 19.3471L6.24353 20.0128C6.48964 20.2082 6.76269 20.3589 7.05918 20.4633L7.34137 19.6615ZM6.77209 19.3471L7.30065 18.6814L7.04269 18.4766L6.51413 19.1423L5.98557 19.808L6.24353 20.0128L6.77209 19.3471ZM6.51413 19.1423L7.04269 18.4766L6.78473 18.2718L6.25617 18.9375L5.72761 19.6031L5.98557 19.808L6.51413 19.1423ZM6.25617 18.9375L6.78473 18.2718C6.70175 18.2059 6.63615 18.1283 6.58411 18.0335L5.83896 18.4425L5.0938 18.8514C5.2541 19.1435 5.46664 19.3959 5.72761 19.6031L6.25617 18.9375ZM5.83896 18.4425L6.58411 18.0335L6.42487 17.7433L5.67971 18.1523L4.93455 18.5613L5.0938 18.8514L5.83896 18.4425ZM5.67971 18.1523L6.42487 17.7433L6.26562 17.4532L5.52046 17.8621L4.77531 18.2711L4.93455 18.5613L5.67971 18.1523ZM5.52046 17.8621L6.26562 17.4532C6.17691 17.2915 6.1012 17.1291 6.03792 16.9658L5.24535 17.2729L4.45277 17.5801C4.54398 17.8155 4.65168 18.0458 4.77531 18.2711L5.52046 17.8621ZM5.24535 17.2729L6.03792 16.9658L5.92205 16.6668L5.12948 16.9739L4.3369 17.281L4.45277 17.5801L5.24535 17.2729ZM5.12948 16.9739L5.92205 16.6668L5.80618 16.3678L5.01361 16.6749L4.22103 16.982L4.3369 17.281L5.12948 16.9739ZM5.01361 16.6749L5.80618 16.3678C5.7556 16.2372 5.72365 16.1053 5.70921 15.9703L4.86403 16.0607L4.01885 16.151C4.04935 16.4363 4.11712 16.7139 4.22103 16.982L5.01361 16.6749ZM4.86403 16.0607L5.70921 15.9703L5.6755 15.6551L4.83032 15.7455L3.98514 15.8358L4.01885 16.151L4.86403 16.0607ZM4.83032 15.7455L5.6755 15.6551L5.6418 15.3399L4.79662 15.4303L3.95143 15.5206L3.98514 15.8358L4.83032 15.7455ZM4.79662 15.4303L5.6418 15.3399C5.59599 14.9115 5.39724 14.5485 5.11919 14.2581L4.50523 14.8459L3.89126 15.4337C3.92625 15.4703 3.94077 15.4949 3.94625 15.5059C3.95105 15.5155 3.95128 15.5192 3.95143 15.5206L4.79662 15.4303ZM4.50523 14.8459L5.11919 14.2581L4.86151 13.9889L4.24755 14.5768L3.63358 15.1646L3.89126 15.4337L4.50523 14.8459ZM4.24755 14.5768L4.86151 13.9889L4.60383 13.7198L3.98987 14.3076L3.3759 14.8955L3.63358 15.1646L4.24755 14.5768ZM3.98987 14.3076L4.60383 13.7198C4.59239 13.7079 4.58718 13.7005 4.5857 13.6983C4.58433 13.6962 4.58612 13.6985 4.58878 13.7051C4.59149 13.7118 4.59401 13.7203 4.59555 13.7296C4.59709 13.7388 4.59714 13.7456 4.59699 13.7488L3.74795 13.7082L2.89892 13.6677C2.87583 14.1513 3.06541 14.5712 3.3759 14.8955L3.98987 14.3076ZM3.74795 13.7082L4.59699 13.7488L4.61276 13.4185L3.76373 13.3779L2.91469 13.3374L2.89892 13.6677L3.74795 13.7082ZM3.76373 13.3779L4.61276 13.4185L4.62853 13.0882L3.7795 13.0477L2.93046 13.0071L2.91469 13.3374L3.76373 13.3779ZM3.7795 13.0477L4.62853 13.0882C4.63745 12.9014 4.65722 12.7181 4.68769 12.5378L3.84959 12.3961L3.01149 12.2544C2.96953 12.5026 2.94257 12.7535 2.93046 13.0071L3.7795 13.0477ZM3.84959 12.3961L4.68769 12.5378L4.74202 12.2166L3.90392 12.0749L3.06581 11.9331L3.01149 12.2544L3.84959 12.3961ZM3.90392 12.0749L4.74202 12.2166L4.79634 11.8953L3.95824 11.7536L3.12014 11.6119L3.06581 11.9331L3.90392 12.0749ZM3.95824 11.7536L4.79634 11.8953C4.819 11.7613 4.85962 11.6352 4.91874 11.5144L4.15528 11.1407L3.39182 10.7671C3.26066 11.0351 3.16992 11.3175 3.12014 11.6119L3.95824 11.7536ZM4.15528 11.1407L4.91874 11.5144L5.06146 11.2228L4.298 10.8491L3.53454 10.4755L3.39182 10.7671L4.15528 11.1407ZM4.298 10.8491L5.06146 11.2228L5.20418 10.9312L4.44072 10.5575L3.67726 10.1839L3.53454 10.4755L4.298 10.8491ZM4.44072 10.5575L5.20418 10.9312C5.30866 10.7177 5.40406 10.5026 5.49022 10.2857L4.70028 9.97185L3.91035 9.658C3.84071 9.83329 3.76306 10.0086 3.67726 10.1839L4.44072 10.5575ZM4.70028 9.97185L5.49022 10.2857L5.60707 9.9916L4.81714 9.67775L4.0272 9.3639L3.91035 9.658L4.70028 9.97185ZM4.81714 9.67775L5.60707 9.9916L5.72392 9.6975L4.93399 9.38364L4.14406 9.06979L4.0272 9.3639L4.81714 9.67775ZM4.93399 9.38364L5.72392 9.6975C5.79621 9.51556 5.87463 9.33241 5.95927 9.14804L5.18678 8.79342L4.41428 8.43881C4.31767 8.64926 4.22757 8.85958 4.14406 9.06979L4.93399 9.38364ZM5.18678 8.79342L5.95927 9.14804L6.0952 8.85193L5.32271 8.49731L4.55021 8.14269L4.41428 8.43881L5.18678 8.79342ZM5.32271 8.49731L6.0952 8.85193L6.23113 8.55582L5.45864 8.2012L4.68615 7.84658L4.55021 8.14269L5.32271 8.49731ZM5.45864 8.2012L6.23113 8.55582C6.2555 8.50274 6.25741 8.51618 6.22138 8.55469C6.1819 8.59689 6.06383 8.70187 5.86304 8.72762L5.75492 7.88452L5.64679 7.04143C5.33911 7.08089 5.11821 7.2455 4.97998 7.39326C4.84519 7.53733 4.7524 7.70225 4.68615 7.84658L5.45864 8.2012ZM5.75492 7.88452L5.86304 8.72762L6.02338 8.70705L5.91526 7.86396L5.80714 7.02086L5.64679 7.04143L5.75492 7.88452ZM5.91526 7.86396L6.02338 8.70705L6.18373 8.68649L6.0756 7.8434L5.96748 7.0003L5.80714 7.02086L5.91526 7.86396ZM6.0756 7.8434L6.18373 8.68649C5.96962 8.71395 5.82166 8.63252 5.77354 8.60024C5.72935 8.5706 5.72927 8.55765 5.76778 8.60756L6.4408 8.08838L7.11382 7.56921C7.01575 7.44209 6.88653 7.29979 6.72061 7.18848C6.55076 7.07454 6.28849 6.95913 5.96748 7.0003L6.0756 7.8434ZM6.4408 8.08838L5.76778 8.60756L5.97262 8.87311L6.64564 8.35393L7.31867 7.83476L7.11382 7.56921L6.4408 8.08838ZM6.64564 8.35393L5.97262 8.87311L6.17747 9.13866L6.85049 8.61948L7.52351 8.10031L7.31867 7.83476L6.64564 8.35393ZM6.85049 8.61948L6.17747 9.13866C6.37746 9.39791 6.61907 9.61454 6.89913 9.78402L7.3392 9.05681L7.77928 8.3296C7.68086 8.27004 7.59666 8.19512 7.52351 8.10031L6.85049 8.61948ZM7.3392 9.05681L6.89913 9.78402L7.18299 9.9558L7.62306 9.22859L8.06313 8.50138L7.77928 8.3296L7.3392 9.05681ZM7.62306 9.22859L7.18299 9.9558L7.46685 10.1276L7.90692 9.40037L8.34699 8.67316L8.06313 8.50138L7.62306 9.22859ZM7.90692 9.40037L7.46685 10.1276C7.69332 10.2646 7.98523 10.4079 8.3051 10.4347L8.37601 9.58766L8.44693 8.74062C8.49295 8.74447 8.50734 8.75407 8.4813 8.74367C8.45738 8.73412 8.41336 8.71332 8.34699 8.67316L7.90692 9.40037ZM8.37601 9.58766L8.3051 10.4347L8.49033 10.4502L8.56125 9.60316L8.63216 8.75613L8.44693 8.74062L8.37601 9.58766ZM8.56125 9.60316L8.49033 10.4502L8.67557 10.4657L8.74648 9.61867L8.8174 8.77164L8.63216 8.75613L8.56125 9.60316ZM8.74648 9.61867L8.67557 10.4657C8.82973 10.4786 9.02616 10.4604 9.22248 10.3569C9.42256 10.2514 9.55475 10.093 9.63429 9.93924C9.77262 9.67192 9.76636 9.39494 9.75526 9.24474L8.90757 9.30736L8.05988 9.36999C8.06488 9.43767 8.03983 9.32151 8.12446 9.15796C8.17715 9.05613 8.27376 8.9353 8.42955 8.85316C8.58157 8.773 8.72499 8.7639 8.8174 8.77164L8.74648 9.61867ZM8.90757 9.30736L9.75526 9.24474L9.73112 8.91792L8.88343 8.98055L8.03574 9.04317L8.05988 9.36999L8.90757 9.30736ZM8.88343 8.98055L9.73112 8.91792L9.70697 8.59111L8.85928 8.65373L8.01159 8.71636L8.03574 9.04317L8.88343 8.98055ZM8.85928 8.65373L9.70697 8.59111C9.70682 8.58895 9.70706 8.58996 9.70667 8.59326C9.70627 8.59662 9.7055 8.59996 9.70467 8.60251C9.70386 8.60498 9.70369 8.60459 9.70565 8.60104C9.70767 8.59736 9.71239 8.58957 9.72168 8.5779L9.05654 8.04867L8.3914 7.51943C8.12302 7.85673 7.97834 8.26628 8.01159 8.71636L8.85928 8.65373ZM9.05654 8.04867L9.72168 8.5779L9.94307 8.29965L9.27794 7.77041L8.6128 7.24118L8.3914 7.51943L9.05654 8.04867ZM9.27794 7.77041L9.94307 8.29965L10.1645 8.0214L9.49933 7.49216L8.83419 6.96293L8.6128 7.24118L9.27794 7.77041ZM9.49933 7.49216L10.1645 8.0214C10.4107 7.71195 10.5647 7.34583 10.5875 6.93722L9.73886 6.88976L8.89018 6.8423C8.88886 6.86589 8.88317 6.90138 8.83419 6.96293L9.49933 7.49216ZM9.73886 6.88976L10.5875 6.93722L10.6057 6.61307L9.75699 6.56561L8.90831 6.51815L8.89018 6.8423L9.73886 6.88976ZM9.75699 6.56561L10.6057 6.61307L10.6238 6.28892L9.77511 6.24146L8.92644 6.194L8.90831 6.51815L9.75699 6.56561ZM9.77511 6.24146L10.6238 6.28892C10.6319 6.143 10.6579 5.99877 10.7025 5.85479L9.89057 5.60321L9.07866 5.35162C8.9935 5.62645 8.94245 5.90772 8.92644 6.194L9.77511 6.24146ZM9.89057 5.60321L10.7025 5.85479L10.7998 5.54069L9.9879 5.28911L9.17599 5.03752L9.07866 5.35162L9.89057 5.60321ZM9.9879 5.28911L10.7998 5.54069L10.8971 5.22659L10.0852 4.975L9.27331 4.72342L9.17599 5.03752L9.9879 5.28911ZM10.0852 4.975L10.8971 5.22659C10.91 5.18509 10.9277 5.15803 10.9668 5.1276L10.4447 4.45684L9.92264 3.78608C9.61217 4.02774 9.39023 4.34611 9.27331 4.72342L10.0852 4.975ZM10.4447 4.45684L10.9668 5.1276L11.229 4.92354L10.7069 4.25278L10.1848 3.58202L9.92264 3.78608L10.4447 4.45684ZM10.7069 4.25278L11.229 4.92354L11.4912 4.71948L10.9691 4.04872L10.447 3.37796L10.1848 3.58202L10.7069 4.25278ZM10.9691 4.04872L11.4912 4.71948C11.6667 4.58287 11.8035 4.47555 11.9004 4.39849L11.3712 3.73332L10.842 3.06815C10.7523 3.13954 10.621 3.24249 10.447 3.37796L10.9691 4.04872ZM11.3712 3.73332L11.9004 4.39849L12.0403 4.28714L11.5111 3.62197L10.9819 2.9568L10.842 3.06815L11.3712 3.73332ZM11.5111 3.62197L12.0403 4.28714L12.1803 4.1758L11.6511 3.51063L11.1219 2.84546L10.9819 2.9568L11.5111 3.62197ZM11.6511 3.51063L12.1803 4.1758C12.0438 4.28442 11.9153 4.29673 11.8837 4.29822C11.8529 4.29968 11.8636 4.29407 11.9339 4.31177L12.1414 3.48748L12.3489 2.6632C12.1857 2.6221 11.9978 2.59095 11.8036 2.60011C11.6085 2.60932 11.3517 2.6626 11.1219 2.84546L11.6511 3.51063ZM12.1414 3.48748L11.9339 4.31177L12.2843 4.39997L12.4918 3.57569L12.6993 2.7514L12.3489 2.6632L12.1414 3.48748ZM12.4918 3.57569L12.2843 4.39997L12.6347 4.48817L12.8422 3.66389L13.0497 2.8396L12.6993 2.7514L12.4918 3.57569ZM12.8422 3.66389L12.6347 4.48817C12.6697 4.49697 12.6845 4.506 12.6882 4.50844C12.6911 4.51032 12.6943 4.51257 12.6999 4.52033L13.3878 4.02109L14.0758 3.52185C13.818 3.16671 13.4585 2.94251 13.0497 2.8396L12.8422 3.66389ZM13.3878 4.02109L12.6999 4.52033L12.8951 4.78932L13.583 4.29008L14.271 3.79084L14.0758 3.52185L13.3878 4.02109ZM13.583 4.29008L12.8951 4.78932L13.0903 5.05832L13.7782 4.55908L14.4662 4.05984L14.271 3.79084L13.583 4.29008ZM13.7782 4.55908L13.0903 5.05832C13.2568 5.28772 13.4457 5.49572 13.6572 5.68051L14.2165 5.04048L14.7758 4.40045C14.6632 4.30203 14.56 4.1891 14.4662 4.05984L13.7782 4.55908ZM14.2165 5.04048L13.6572 5.68051L13.9002 5.89292L14.4596 5.25289L15.0189 4.61286L14.7758 4.40045L14.2165 5.04048ZM14.4596 5.25289L13.9002 5.89292L14.1433 6.10533L14.7026 5.4653L15.2619 4.82527L15.0189 4.61286L14.4596 5.25289ZM14.7026 5.4653L14.1433 6.10533C14.3877 6.31891 14.6659 6.48035 14.9718 6.58859L15.2553 5.78726L15.5388 4.98594C15.4319 4.94811 15.3416 4.89491 15.2619 4.82527L14.7026 5.4653ZM15.2553 5.78726L14.9718 6.58859L15.2814 6.69814L15.5649 5.89681L15.8484 5.09549L15.5388 4.98594L15.2553 5.78726ZM15.5649 5.89681L15.2814 6.69814L15.591 6.80769L15.8745 6.00636L16.1581 5.20504L15.8484 5.09549L15.5649 5.89681ZM15.8745 6.00636L15.591 6.80769C15.7801 6.87457 15.9688 6.94826 16.1572 7.02883L16.4914 6.24727L16.8256 5.46572C16.6044 5.37114 16.3819 5.28423 16.1581 5.20504L15.8745 6.00636ZM16.4914 6.24727L16.1572 7.02883L16.4644 7.16019L16.7986 6.37863L17.1328 5.59708L16.8256 5.46572L16.4914 6.24727ZM16.7986 6.37863L16.4644 7.16019L16.7717 7.29155L17.1058 6.51L17.44 5.72844L17.1328 5.59708L16.7986 6.37863ZM17.1058 6.51L16.7717 7.29155C16.8398 7.32067 16.888 7.35919 16.9297 7.41514L17.6112 6.90712L18.2927 6.39909C18.0702 6.1007 17.7815 5.87447 17.44 5.72844L17.1058 6.51ZM17.6112 6.90712L16.9297 7.41514L17.1278 7.6809L17.8093 7.17288L18.4908 6.66485L18.2927 6.39909L17.6112 6.90712ZM17.8093 7.17288L17.1278 7.6809L17.3259 7.94667L18.0074 7.43864L18.6889 6.93061L18.4908 6.66485L17.8093 7.17288ZM18.0074 7.43864L17.3259 7.94667C17.4791 8.1521 17.6445 8.34732 17.8219 8.53216L18.4351 7.94351L19.0483 7.35487C18.9197 7.22089 18.7999 7.07952 18.6889 6.93061L18.0074 7.43864ZM18.4351 7.94351L17.8219 8.53216L18.0514 8.77127L18.6646 8.18262L19.2778 7.59398L19.0483 7.35487L18.4351 7.94351ZM18.6646 8.18262L18.0514 8.77127L18.281 9.01038L18.8942 8.42174L19.5074 7.83309L19.2778 7.59398L18.6646 8.18262ZM18.8942 8.42174L18.281 9.01038C18.2788 9.00814 18.274 9.0026 18.2686 8.99372C18.2631 8.98475 18.2587 8.97525 18.2557 8.96641C18.2493 8.94754 18.2537 8.94596 18.252 8.97363L19.1002 9.0279L19.9485 9.08217C19.9775 8.62867 19.8445 8.18427 19.5074 7.83309L18.8942 8.42174ZM19.1002 9.0279L18.252 8.97363L18.2285 9.34069L19.0767 9.39495L19.925 9.44922L19.9485 9.08217L19.1002 9.0279ZM19.0767 9.39495L18.2285 9.34069L18.205 9.70774L19.0533 9.762L19.9015 9.81627L19.925 9.44922L19.0767 9.39495ZM19.0533 9.762L18.205 9.70774C18.1766 10.1513 18.2992 10.5818 18.6004 10.937L19.2488 10.3874L19.8972 9.83776C19.8954 9.83567 19.8961 9.83615 19.8977 9.83913C19.8994 9.84217 19.9008 9.8455 19.9017 9.84826C19.9025 9.85092 19.9021 9.85071 19.9017 9.84641C19.9012 9.84195 19.9005 9.83223 19.9015 9.81627L19.0533 9.762ZM19.2488 10.3874L18.6004 10.937L18.8194 11.1954L19.4678 10.6457L20.1161 10.0961L19.8972 9.83776L19.2488 10.3874ZM19.4678 10.6457L18.8194 11.1954L19.0383 11.4537L19.6867 10.9041L20.3351 10.3544L20.1161 10.0961L19.4678 10.6457ZM19.6867 10.9041L19.0383 11.4537C19.1203 11.5504 19.1807 11.6545 19.2229 11.7695L20.021 11.4772L20.8192 11.1849C20.7076 10.8802 20.5451 10.6022 20.3351 10.3544L19.6867 10.9041ZM20.021 11.4772L19.2229 11.7695L19.3382 12.0844L20.1363 11.7921L20.9345 11.4998L20.8192 11.1849L20.021 11.4772ZM20.1363 11.7921L19.3382 12.0844L19.4535 12.3992L20.2516 12.1069L21.0498 11.8146L20.9345 11.4998L20.1363 11.7921ZM20.2516 12.1069L19.4535 12.3992C19.4852 12.4858 19.4946 12.5676 19.4845 12.6553L20.329 12.7523L21.1734 12.8493C21.214 12.4963 21.1718 12.1479 21.0498 11.8146L20.2516 12.1069ZM20.329 12.7523L19.4845 12.6553L19.4465 12.9858L20.291 13.0828L21.1354 13.1798L21.1734 12.8493L20.329 12.7523ZM20.291 13.0828L19.4465 12.9858L19.4086 13.3163L20.253 13.4133L21.0975 13.5103L21.1354 13.1798L20.291 13.0828ZM20.253 13.4133L19.4086 13.3163C19.3995 13.3953 19.3727 13.473 19.3158 13.5575L20.021 14.0321L20.7262 14.5066C20.928 14.2067 21.0559 13.8719 21.0975 13.5103L20.253 13.4133ZM20.021 14.0321L19.3158 13.5575L19.1218 13.8458L19.827 14.3204L20.5322 14.7949L20.7262 14.5066L20.021 14.0321ZM19.827 14.3204L19.1218 13.8458L18.9278 14.1341L19.633 14.6087L20.3382 15.0833L20.5322 14.7949L19.827 14.3204ZM19.633 14.6087L18.9278 14.1341C18.7196 14.4436 18.5935 14.7933 18.5719 15.1724L19.4205 15.2208L20.2691 15.2692C20.2721 15.2166 20.2877 15.1582 20.3382 15.0833L19.633 14.6087ZM19.4205 15.2208L18.5719 15.1724L18.5534 15.4963L19.402 15.5447L20.2506 15.5931L20.2691 15.2692L19.4205 15.2208ZM19.402 15.5447L18.5534 15.4963L18.5349 15.8201L19.3836 15.8685L20.2322 15.9169L20.2506 15.5931L19.402 15.5447ZM19.3836 15.8685L18.5349 15.8201C18.5271 15.9576 18.5007 16.0922 18.4548 16.2259L19.2586 16.5021L20.0625 16.7784C20.1585 16.499 20.2154 16.2112 20.2322 15.9169L19.3836 15.8685ZM19.2586 16.5021L18.4548 16.2259L18.3483 16.5357L19.1522 16.812L19.956 17.0882L20.0625 16.7784L19.2586 16.5021ZM19.1522 16.812L18.3483 16.5357L18.2418 16.8456L19.0457 17.1218L19.8496 17.398L19.956 17.0882L19.1522 16.812ZM19.0457 17.1218L18.2418 16.8456C18.2206 16.9074 18.189 16.9544 18.1368 16.999L18.6885 17.6456L19.2402 18.2922C19.5223 18.0515 19.7288 17.7493 19.8496 17.398L19.0457 17.1218ZM18.6885 17.6456L18.1368 16.999L17.886 17.2129L18.4377 17.8596L18.9894 18.5062L19.2402 18.2922L18.6885 17.6456ZM18.4377 17.8596L17.886 17.2129L17.6352 17.4269L18.1869 18.0735L18.7386 18.7201L18.9894 18.5062L18.4377 17.8596ZM18.1869 18.0735L17.6352 17.4269C17.4774 17.5615 17.2991 17.7206 17.188 17.8677L17.8664 18.3799L18.5448 18.892C18.5323 18.9086 18.526 18.9145 18.533 18.9071C18.5387 18.901 18.55 18.8894 18.5687 18.8715C18.6065 18.8354 18.662 18.7855 18.7386 18.7201L18.1869 18.0735ZM17.8664 18.3799L17.188 17.8677L17.1183 17.9601L17.7967 18.4722L18.4751 18.9843L18.5448 18.892L17.8664 18.3799ZM17.7967 18.4722L17.1183 17.9601L17.0485 18.0525L17.7269 18.5646L18.4054 19.0767L18.4751 18.9843L17.7967 18.4722ZM17.7269 18.5646L17.0485 18.0525C17.0594 18.0381 17.0681 18.028 17.0729 18.0226C17.0779 18.017 17.0808 18.0142 17.0809 18.0141C17.081 18.014 17.0793 18.0157 17.0753 18.0193C17.0714 18.0229 17.0658 18.0278 17.0584 18.0342C17.0269 18.0611 16.9761 18.1011 16.9009 18.1557L17.4004 18.8435L17.8998 19.5313C18.0599 19.415 18.2715 19.254 18.4054 19.0767L17.7269 18.5646ZM17.4004 18.8435L16.9009 18.1557L16.6441 18.3423L17.1435 19.03L17.643 19.7178L17.8998 19.5313L17.4004 18.8435Z" fill="#D8F789" />
<path xmlns="http://www.w3.org/2000/svg" id="Vector_2" d="M10.4962 16.2372L10.3389 17.0725V17.0725L10.4962 16.2372ZM10.8048 16.2953L10.962 15.46L10.8048 16.2953ZM11.3878 16.5801L11.9291 15.9247L11.3878 16.5801ZM11.6622 16.8067L11.1209 17.4621L11.6622 16.8067ZM11.9367 17.0334L11.3954 17.6888L11.9367 17.0334ZM13.7344 16.6846L14.5492 16.9267L13.7344 16.6846ZM13.8432 16.3186L13.0284 16.0765V16.0765L13.8432 16.3186ZM13.952 15.9526L13.1372 15.7105L13.952 15.9526ZM14.2944 15.3663L14.8775 15.9849L14.2944 15.3663ZM14.5282 15.146L13.9451 14.5275L14.5282 15.146ZM14.7619 14.9257L15.3449 15.5442L14.7619 14.9257ZM15.0204 14.3773L14.1728 14.3132L15.0204 14.3773ZM15.07 13.7211L15.9176 13.7852L15.07 13.7211ZM14.8848 13.1436L14.2346 13.691L14.8848 13.1436ZM14.6747 12.8941L15.3249 12.3466L14.6747 12.8941ZM14.4647 12.6447L13.8145 13.1921L14.4647 12.6447ZM14.1061 12.0834L13.3387 12.4491L14.1061 12.0834ZM13.3327 11.0095L13.0016 11.7924L13.3327 11.0095ZM12.6773 10.7323L12.3462 11.5151L12.6773 10.7323ZM12.2219 10.9398L11.4244 10.6456L12.2219 10.9398ZM11.7642 12.2895L10.9376 12.0916L11.7642 12.2895ZM11.3139 13.4783L11.9492 14.0431L11.3139 13.4783ZM11.0873 13.7333L10.452 13.1686L11.0873 13.7333ZM10.8606 13.9883L10.2253 13.4235L10.8606 13.9883ZM9.67767 14.1571L9.60139 15.0037L9.67767 14.1571ZM9.38169 14.2973L8.5393 14.4108V14.4108L9.38169 14.2973ZM9.59228 15.0463L8.85939 15.4768L9.59228 15.0463ZM9.73458 15.2885L10.4675 14.8579L9.73458 15.2885ZM9.98413 15.8599L10.7726 16.1775L9.98413 15.8599ZM9.91404 16.034L9.12558 15.7165V15.7165L9.91404 16.034ZM10.1876 16.1791L10.3449 15.3438L10.1876 16.1791ZM10.4962 16.2372L10.3389 17.0725L10.6475 17.1306L10.8048 16.2953L10.962 15.46L10.6534 15.4019L10.4962 16.2372ZM10.8048 16.2953L10.6475 17.1306C10.6941 17.1394 10.7593 17.1634 10.8465 17.2354L11.3878 16.5801L11.9291 15.9247C11.6504 15.6945 11.3269 15.5287 10.962 15.46L10.8048 16.2953ZM11.3878 16.5801L10.8465 17.2354L11.1209 17.4621L11.6622 16.8067L12.2035 16.1513L11.9291 15.9247L11.3878 16.5801ZM11.6622 16.8067L11.1209 17.4621L11.3954 17.6888L11.9367 17.0334L12.4779 16.378L12.2035 16.1513L11.6622 16.8067ZM11.9367 17.0334L11.3954 17.6888C11.7649 17.994 12.2165 18.1185 12.6893 18.0485L12.5647 17.2077L12.4402 16.3668C12.4333 16.3679 12.4326 16.3673 12.4371 16.3676C12.4417 16.3678 12.4492 16.3687 12.4582 16.3712C12.4671 16.3737 12.4742 16.3768 12.4788 16.3792C12.4831 16.3816 12.4828 16.382 12.4779 16.378L11.9367 17.0334ZM12.5647 17.2077L12.6893 18.0485L13.0429 17.9961L12.9184 17.1553L12.7939 16.3144L12.4402 16.3668L12.5647 17.2077ZM12.9184 17.1553L13.0429 17.9961L13.3966 17.9437L13.272 17.1029L13.1475 16.2621L12.7939 16.3144L12.9184 17.1553ZM13.272 17.1029L13.3966 17.9437C13.6555 17.9054 13.9156 17.8007 14.1347 17.6025C14.3508 17.407 14.4786 17.1645 14.5492 16.9267L13.7344 16.6846L12.9197 16.4424C12.9178 16.4486 12.9323 16.3978 12.9942 16.3418C13.0592 16.283 13.1244 16.2655 13.1475 16.2621L13.272 17.1029ZM13.7344 16.6846L14.5492 16.9267L14.658 16.5607L13.8432 16.3186L13.0284 16.0765L12.9197 16.4424L13.7344 16.6846ZM13.8432 16.3186L14.658 16.5607L14.7667 16.1948L13.952 15.9526L13.1372 15.7105L13.0284 16.0765L13.8432 16.3186ZM13.952 15.9526L14.7667 16.1948C14.8046 16.0673 14.8497 16.011 14.8775 15.9849L14.2944 15.3663L13.7114 14.7478C13.4275 15.0154 13.2443 15.3501 13.1372 15.7105L13.952 15.9526ZM14.2944 15.3663L14.8775 15.9849L15.1112 15.7645L14.5282 15.146L13.9451 14.5275L13.7114 14.7478L14.2944 15.3663ZM14.5282 15.146L15.1112 15.7645L15.3449 15.5442L14.7619 14.9257L14.1788 14.3072L13.9451 14.5275L14.5282 15.146ZM14.7619 14.9257L15.3449 15.5442C15.6591 15.2481 15.8359 14.8657 15.868 14.4413L15.0204 14.3773L14.1728 14.3132C14.1722 14.3213 14.1713 14.3245 14.1715 14.3239C14.1717 14.3232 14.1725 14.3202 14.1745 14.316C14.1766 14.3117 14.1788 14.3081 14.1805 14.3058C14.1821 14.3036 14.1821 14.3041 14.1788 14.3072L14.7619 14.9257ZM15.0204 14.3773L15.868 14.4413L15.8928 14.1133L15.0452 14.0492L14.1976 13.9851L14.1728 14.3132L15.0204 14.3773ZM15.0452 14.0492L15.8928 14.1133L15.9176 13.7852L15.07 13.7211L14.2224 13.657L14.1976 13.9851L15.0452 14.0492ZM15.07 13.7211L15.9176 13.7852C15.9507 13.3468 15.8197 12.9342 15.535 12.5961L14.8848 13.1436L14.2346 13.691C14.2372 13.6942 14.2365 13.6939 14.2342 13.6898C14.2319 13.6857 14.2291 13.6796 14.2267 13.6723C14.2244 13.6649 14.2233 13.6588 14.2228 13.6549C14.2224 13.6511 14.2229 13.6515 14.2224 13.657L15.07 13.7211ZM14.8848 13.1436L15.535 12.5961L15.3249 12.3466L14.6747 12.8941L14.0245 13.4416L14.2346 13.691L14.8848 13.1436ZM14.6747 12.8941L15.3249 12.3466L15.1149 12.0972L14.4647 12.6447L13.8145 13.1921L14.0245 13.4416L14.6747 12.8941ZM14.4647 12.6447L15.1149 12.0972C15.0242 11.9894 14.9432 11.8641 14.8734 11.7178L14.1061 12.0834L13.3387 12.4491C13.4671 12.7184 13.6252 12.9673 13.8145 13.1921L14.4647 12.6447ZM14.1061 12.0834L14.8734 11.7178L14.7249 11.406L13.9575 11.7717L13.1902 12.1373L13.3387 12.4491L14.1061 12.0834ZM13.9575 11.7717L14.7249 11.406L14.5763 11.0943L13.809 11.4599L13.0416 11.8255L13.1902 12.1373L13.9575 11.7717ZM13.809 11.4599L14.5763 11.0943C14.3849 10.6925 14.0675 10.3974 13.6638 10.2266L13.3327 11.0095L13.0016 11.7924C13.0141 11.7976 13.0217 11.802 13.0257 11.8046C13.0296 11.8071 13.0313 11.8087 13.0316 11.809C13.032 11.8093 13.0326 11.8099 13.0338 11.8115C13.035 11.8132 13.0378 11.8175 13.0416 11.8255L13.809 11.4599ZM13.3327 11.0095L13.6638 10.2266L13.3361 10.088L13.005 10.8709L12.6739 11.6537L13.0016 11.7924L13.3327 11.0095ZM13.005 10.8709L13.3361 10.088L13.0084 9.94942L12.6773 10.7323L12.3462 11.5151L12.6739 11.6537L13.005 10.8709ZM12.6773 10.7323L13.0084 9.94942C12.7746 9.85052 12.418 9.77236 12.0471 9.94138C11.6844 10.1067 11.5083 10.4181 11.4244 10.6456L12.2219 10.9398L13.0193 11.234C13.0181 11.2374 13.0044 11.2744 12.9652 11.3239C12.9234 11.3769 12.8539 11.4419 12.752 11.4883C12.533 11.5882 12.3615 11.5216 12.3462 11.5151L12.6773 10.7323ZM12.2219 10.9398L11.4244 10.6456L11.2967 10.9918L12.0942 11.286L12.8916 11.5801L13.0193 11.234L12.2219 10.9398ZM12.0942 11.286L11.2967 10.9918L11.169 11.3379L11.9665 11.6321L12.7639 11.9263L12.8916 11.5801L12.0942 11.286ZM11.9665 11.6321L11.169 11.3379C11.074 11.5955 10.9962 11.847 10.9376 12.0916L11.7642 12.2895L12.5909 12.4875C12.6317 12.3171 12.6887 12.1302 12.7639 11.9263L11.9665 11.6321ZM11.7642 12.2895L10.9376 12.0916L10.8631 12.4028L11.6897 12.6008L12.5163 12.7988L12.5909 12.4875L11.7642 12.2895ZM11.6897 12.6008L10.8631 12.4028L10.7885 12.7141L11.6151 12.9121L12.4418 13.1101L12.5163 12.7988L11.6897 12.6008ZM11.6151 12.9121L10.7885 12.7141C10.7736 12.7765 10.7431 12.8412 10.6787 12.9136L11.3139 13.4783L11.9492 14.0431C12.187 13.7756 12.3573 13.4627 12.4418 13.1101L11.6151 12.9121ZM11.3139 13.4783L10.6787 12.9136L10.452 13.1686L11.0873 13.7333L11.7225 14.2981L11.9492 14.0431L11.3139 13.4783ZM11.0873 13.7333L10.452 13.1686L10.2253 13.4235L10.8606 13.9883L11.4959 14.553L11.7225 14.2981L11.0873 13.7333ZM10.8606 13.9883L10.2253 13.4235C10.2218 13.4275 10.2405 13.4058 10.2852 13.3872C10.3318 13.3679 10.3725 13.3663 10.3914 13.368L10.3152 14.2145L10.2389 15.0611C10.7399 15.1062 11.1795 14.9089 11.4959 14.553L10.8606 13.9883ZM10.3152 14.2145L10.3914 13.368L10.0727 13.3392L9.99642 14.1858L9.92014 15.0324L10.2389 15.0611L10.3152 14.2145ZM9.99642 14.1858L10.0727 13.3392L9.75395 13.3105L9.67767 14.1571L9.60139 15.0037L9.92014 15.0324L9.99642 14.1858ZM9.67767 14.1571L9.75395 13.3105C9.61578 13.2981 9.34497 13.2843 9.08044 13.4096C8.92551 13.483 8.75188 13.6147 8.63873 13.8307C8.52732 14.0433 8.51821 14.2543 8.5393 14.4108L9.38169 14.2973L10.2241 14.1838C10.2376 14.2839 10.2351 14.4469 10.1446 14.6197C10.0523 14.7958 9.91375 14.896 9.80816 14.946C9.71192 14.9916 9.63642 14.9998 9.6147 15.0018C9.58879 15.0041 9.58173 15.0019 9.60139 15.0037L9.67767 14.1571ZM9.38169 14.2973L8.5393 14.4108L8.56207 14.5797L9.40445 14.4662L10.2468 14.3527L10.2241 14.1838L9.38169 14.2973ZM9.40445 14.4662L8.56207 14.5797L8.58483 14.7487L9.42722 14.6351L10.2696 14.5216L10.2468 14.3527L9.40445 14.4662ZM9.42722 14.6351L8.58483 14.7487C8.62176 15.0226 8.73967 15.273 8.85939 15.4768L9.59228 15.0463L10.3252 14.6157C10.2938 14.5623 10.2769 14.5261 10.2687 14.5057C10.26 14.4841 10.2655 14.4911 10.2696 14.5216L9.42722 14.6351ZM9.59228 15.0463L8.85939 15.4768L9.00169 15.719L9.73458 15.2885L10.4675 14.8579L10.3252 14.6157L9.59228 15.0463ZM9.73458 15.2885L9.00169 15.719L9.14399 15.9613L9.87688 15.5307L10.6098 15.1001L10.4675 14.8579L9.73458 15.2885ZM9.87688 15.5307L9.14399 15.9613C9.177 16.0174 9.17578 16.0254 9.16664 15.9974C9.16164 15.982 9.14784 15.9366 9.14288 15.8693C9.138 15.8033 9.13922 15.6826 9.19567 15.5424L9.98413 15.8599L10.7726 16.1775C10.9001 15.8608 10.8167 15.5741 10.783 15.4708C10.7381 15.333 10.6716 15.2054 10.6098 15.1001L9.87688 15.5307ZM9.98413 15.8599L9.19567 15.5424L9.16062 15.6294L9.94909 15.947L10.7376 16.2645L10.7726 16.1775L9.98413 15.8599ZM9.94909 15.947L9.16062 15.6294L9.12558 15.7165L9.91404 16.034L10.7025 16.3515L10.7376 16.2645L9.94909 15.947ZM9.91404 16.034L9.12558 15.7165C9.01616 15.9882 9.04676 16.2902 9.20124 16.5326C9.32385 16.7249 9.48767 16.8228 9.56655 16.8646C9.73112 16.952 9.9112 16.992 10.0303 17.0144L10.1876 16.1791L10.3449 15.3438C10.2582 15.3275 10.2899 15.324 10.3633 15.3629C10.3966 15.3806 10.5291 15.453 10.6348 15.6188C10.6934 15.7108 10.7432 15.8315 10.7569 15.975C10.7705 16.1189 10.7442 16.248 10.7025 16.3515L9.91404 16.034ZM10.1876 16.1791L10.0303 17.0144L10.3389 17.0725L10.4962 16.2372L10.6534 15.4019L10.3449 15.3438L10.1876 16.1791Z" fill="#D8F789" />

</svg>