<svg width="24" height="24" viewBox="0 0 24 24" fill="none" xmlns="http://www.w3.org/2000/svg">
<path xmlns="http://www.w3.org/2000/svg" id="Vector" d="M8.6831 13.2424L7.87763 12.9709L7.8331 13.103V13.2424H8.6831ZM8.73787 13.0799L9.54335 13.3514L8.73787 13.0799ZM9.07132 11.7687L9.91043 11.9044L9.07132 11.7687ZM8.98682 11.0525L8.23157 11.4425L8.98682 11.0525ZM8.91526 10.9139L9.67051 10.5239L8.91526 10.9139ZM8.73048 10.6347L9.11062 11.3949L8.73048 10.6347ZM8.72292 10.6385L8.34279 9.87819L8.02736 10.0359L7.91623 10.3706L8.72292 10.6385ZM8.6831 10.7584H7.8331L9.48979 11.0262L8.6831 10.7584ZM8.58314 13.3397L8.60552 12.49L8.10181 12.4767L7.84843 12.9123L8.58314 13.3397ZM8.49243 13.4956L9.22714 13.9231L8.49243 13.4956ZM7.8085 14.4708L8.4225 15.0586L7.8085 14.4708ZM7.73878 14.5436L7.12477 13.9559L7.73878 14.5436ZM6.95461 15.0673L7.22567 15.873L6.95461 15.0673ZM6.75887 15.1332L7.02993 15.9388L6.75887 15.1332ZM5.89369 15.2681L5.90403 14.4182L5.89369 15.2681ZM5.68353 15.2656L5.67318 16.1155L5.68353 15.2656ZM4.9136 14.9369L4.3114 15.5368L4.9136 14.9369ZM4.76255 14.7852L4.16035 15.3851L4.76255 14.7852ZM4.2209 14.1419L3.52005 14.6229L4.2209 14.1419ZM4.11784 13.9917L3.41699 14.4727L4.11784 13.9917ZM3.48516 13.4383L3.06711 14.1784L3.48516 13.4383ZM3.38828 13.3836L3.80632 12.6435L3.38828 13.3836ZM3.2914 13.3289L2.87335 14.069L3.2914 13.3289ZM2.9509 12.6557L3.78958 12.794L2.9509 12.6557ZM2.98493 12.4494L2.14625 12.3111L2.98493 12.4494ZM3.24266 11.6596L3.99389 12.0573V12.0573L3.24266 11.6596ZM3.32955 11.4955L2.57833 11.0978V11.0978L3.32955 11.4955ZM3.68326 10.8339L2.93548 10.4298L3.68326 10.8339ZM3.72278 10.7608L4.47056 11.1649L3.72278 10.7608ZM3.7623 10.6876L3.01453 10.2835L3.7623 10.6876ZM4.19272 10.1367L3.61957 9.50902L4.19272 10.1367ZM4.31559 10.0245L4.88874 10.6522L4.31559 10.0245ZM4.972 9.57881L5.36627 10.3318L4.972 9.57881ZM5.04695 9.53956L5.44122 10.2926L5.04695 9.53956ZM5.7556 9.08575L6.25959 9.77021L5.7556 9.08575ZM5.84688 9.01854L5.34289 8.33407L5.84688 9.01854ZM5.93815 8.95133L6.44214 9.6358L5.93815 8.95133ZM6.73654 8.84094L7.07253 8.06016L6.73654 8.84094ZM6.83254 8.88225L6.49656 9.66303L6.83254 8.88225ZM6.92855 8.92356L7.26453 8.14278L6.92855 8.92356ZM7.60946 9.42962L6.95325 9.96989L7.60946 9.42962ZM7.67318 9.50701L8.32939 8.96675L7.67318 9.50701ZM7.7369 9.58441L7.08069 10.1247L7.7369 9.58441ZM8.23068 10.2332L8.92809 9.74723L8.23068 10.2332ZM8.28279 10.3079L7.58538 10.7939L8.28279 10.3079ZM8.33489 10.3827L7.63749 10.8686L8.33489 10.3827ZM8.60809 10.684L8.3327 9.8799L8.60809 10.684ZM8.62007 10.6799L8.89546 11.4841L10.7866 10.8365L9.00819 9.92373L8.62007 10.6799ZM8.58314 10.661L8.56075 9.81129L8.19502 11.4172L8.58314 10.661ZM8.77254 13.3871L9.40494 12.8191L9.29707 12.699L9.15268 12.6268L8.77254 13.3871ZM8.89576 13.5243L9.52816 12.9563L8.89576 13.5243ZM9.87817 14.1033L9.86725 13.2534L9.87817 14.1033ZM9.98539 14.1019L9.99631 14.9519L9.98539 14.1019ZM10.0926 14.1006L10.0817 13.2506L10.0926 14.1006ZM10.8644 14.3736L11.4282 13.7375L10.8644 14.3736ZM10.9382 14.439L10.3745 15.0752L10.9382 14.439ZM11.0121 14.5044L11.5758 13.8683L11.0121 14.5044ZM11.6698 15.0057L12.1321 14.2924L11.6698 15.0057ZM11.7502 15.0578L11.288 15.7711L11.7502 15.0578ZM11.8307 15.1099L12.293 14.3966L11.8307 15.1099ZM12.6246 15.3387L12.6125 16.1886L12.6246 15.3387ZM12.8362 15.3417L12.8484 14.4918L12.8362 15.3417ZM13.6587 15.5133L14.0038 14.7365L13.6587 15.5133ZM13.7459 15.552L13.4009 16.3288L13.7459 15.552ZM13.8331 15.5907L14.1781 14.8139L13.8331 15.5907ZM14.5673 15.9389L14.9505 15.1802L14.5673 15.9389ZM14.6524 15.9819L14.2692 16.7406L14.6524 15.9819ZM14.7374 16.0248L15.1206 15.2661L14.7374 16.0248ZM15.1871 16.3904L14.4201 16.7567V16.7567L15.1871 16.3904ZM15.2076 16.4332L16.0533 16.3483L16.0385 16.2007L15.9746 16.0669L15.2076 16.4332ZM15.2257 16.6136L14.3799 16.6985L14.4267 17.1645L14.8455 17.3739L15.2257 16.6136ZM14.935 17.4186C15.3549 17.6286 15.8654 17.4584 16.0754 17.0385C16.2853 16.6186 16.1151 16.108 15.6952 15.8981L15.3151 16.6584L14.935 17.4186ZM8.77254 10.6136L9.15268 11.3739L9.24718 11.3266L9.32724 11.2577L8.77254 10.6136ZM8.90663 10.4982L9.46132 11.1422L8.90663 10.4982ZM9.92901 9.99907L9.9418 10.849L9.92901 9.99907ZM10.0347 9.99748L10.022 9.14758V9.14758L10.0347 9.99748ZM10.1405 9.99589L10.1533 10.8458L10.1405 9.99589ZM10.8791 9.65655L10.2365 9.10022L10.8791 9.65655ZM10.9467 9.57854L11.5893 10.1349L10.9467 9.57854ZM11.0142 9.50053L10.3715 8.94421L11.0142 9.50053ZM11.6409 8.93723L12.1194 9.63976L11.6409 8.93723ZM11.7998 8.82898L11.3213 8.12645L11.7998 8.82898ZM12.529 8.47068L12.265 7.66271L12.529 8.47068ZM13.4532 8.07634L13.8852 8.80839L13.4532 8.07634ZM13.5355 8.0278L13.1035 7.29575L13.5355 8.0278ZM13.6177 7.97926L14.0497 8.71131L13.6177 7.97926ZM14.3704 7.66794L14.1567 6.84522L14.3704 7.66794ZM14.559 7.61897L14.7726 8.44168L14.559 7.61897ZM15.1044 7.44483L14.7327 6.68042L15.1044 7.44483ZM15.138 7.42847L14.775 6.65983L14.7663 6.66406L15.138 7.42847ZM15.2257 7.38708L15.5887 8.15567L15.5973 8.1516L15.6058 8.14734L15.2257 7.38708ZM15.6952 8.10262C16.1151 7.89268 16.2853 7.38211 16.0754 6.96223C15.8654 6.54235 15.3549 6.37215 14.935 6.5821L15.3151 7.34236L15.6952 8.10262ZM15.1304 17.1307L14.3388 16.8212L15.1304 17.1307ZM15.0953 17.2205L15.887 17.53L15.0953 17.2205ZM15.0143 18.0066L15.8523 17.8642L15.0143 18.0066ZM15.0304 18.1013L14.1924 18.2437L15.0304 18.1013ZM15.0465 18.196L14.2085 18.3384L15.0465 18.196ZM15.3391 18.9216L14.6412 19.4069L15.3391 18.9216ZM15.3916 18.9972L16.0895 18.5119L15.3916 18.9972ZM15.4441 19.0727L14.7463 19.558L15.4441 19.0727ZM15.7424 19.868L16.5821 19.7361L15.7424 19.868ZM15.7599 19.979L14.9202 20.1109L15.7599 19.979ZM15.7773 20.09L16.617 19.9581L15.7773 20.09ZM16.2866 20.6691L16.0855 21.495L16.2866 20.6691ZM16.4907 20.7188L16.6918 19.893L16.4907 20.7188ZM17.3219 21.0136L17.6876 20.2463L17.3219 21.0136ZM17.4148 21.0579L17.0491 21.8252L17.4148 21.0579ZM17.5077 21.1022L17.8734 20.3348L17.5077 21.1022ZM18.2965 21.0817L18.6963 21.8317L18.2965 21.0817ZM18.3886 21.0326L17.9887 20.2825L18.3886 21.0326ZM18.4807 20.9835L18.8805 21.7336L18.4807 20.9835ZM19.2237 20.5978L18.8416 19.8385L19.2237 20.5978ZM19.3881 20.5151L19.7702 21.2743L19.3881 20.5151ZM20.1444 20.1464L20.5084 20.9145L20.1444 20.1464ZM20.2396 20.1013L19.8756 19.3332L20.2396 20.1013ZM20.3348 20.0562L20.6988 20.8243L20.3348 20.0562ZM20.8146 19.4276L21.6526 19.5695L20.8146 19.4276ZM20.8492 19.223L20.0111 19.081L20.8492 19.223ZM20.9961 18.3782L20.1593 18.2287L20.9961 18.3782ZM21.0132 18.2823L21.8499 18.4318L21.0132 18.2823ZM21.0303 18.1865L21.8671 18.336L21.0303 18.1865ZM20.9345 17.4004L21.7105 17.0535L20.9345 17.4004ZM20.8949 17.3118L20.1189 17.6587L20.8949 17.3118ZM20.5044 16.4859L21.2627 16.1019L20.5044 16.4859ZM20.4616 16.4014L19.7033 16.7854L20.4616 16.4014ZM20.4189 16.317L19.6605 16.701L20.4189 16.317ZM19.9722 15.6002L20.6551 15.0942L19.9722 15.6002ZM19.9101 15.5165L19.2272 16.0225L19.9101 15.5165ZM19.8481 15.4328L20.531 14.9267L19.8481 15.4328ZM19.1539 14.965L19.3662 14.1419L19.1539 14.965ZM19.0531 14.939L18.8408 15.7621L19.0531 14.939ZM18.9523 14.913L19.1646 14.0899L18.9523 14.913ZM18.0939 14.8495L18.0007 14.0046L18.0939 14.8495ZM17.9933 14.8606L18.0864 15.7054L17.9933 14.8606ZM17.8927 14.8716L17.7995 14.0268L17.8927 14.8716ZM17.1208 15.1572L16.6359 14.4591L17.1208 15.1572ZM16.9599 15.269L17.4449 15.9671L16.9599 15.269ZM16.2932 15.7259L15.8175 15.0214L16.2932 15.7259ZM16.2173 15.7771L16.693 16.4816L16.2173 15.7771ZM16.1414 15.8284L15.6657 15.124L16.1414 15.8284ZM15.6977 16.3363L14.9125 16.0107L15.6977 16.3363ZM15.6414 16.4721L16.4265 16.7978L15.6414 16.4721ZM15.4378 16.7197L15.0577 17.48L15.4378 16.7197ZM15.4182 16.7099L15.7983 15.9497L15.4182 16.7099ZM15.3986 16.7001L15.0185 17.4604L15.3986 16.7001ZM15.1655 17.041L15.9571 17.3505L15.1655 17.041ZM15.6728 7.81452L16.3503 7.30124L15.6728 7.81452ZM16.2279 8.4049L15.6725 9.04834L16.2279 8.4049ZM16.3741 8.5311L16.9295 7.88766L16.3741 8.5311ZM17.0908 8.87707L17.2495 8.04202L17.0908 8.87707ZM17.1858 8.89513L17.0272 9.73019L17.1858 8.89513ZM17.2809 8.91319L17.4395 8.07813L17.2809 8.91319ZM18.0713 8.88356L17.8446 8.06434L18.0713 8.88356ZM18.1617 8.85856L18.3883 9.67778L18.1617 8.85856ZM18.252 8.83356L18.0254 8.01433L18.252 8.83356ZM18.9792 8.57127L18.6269 7.79771L18.9792 8.57127ZM19.0594 8.53476L19.4117 9.30832L19.0594 8.53476ZM19.1396 8.49824L18.7873 7.72467L19.1396 8.49824ZM19.861 8.1738L20.2063 8.95049L19.861 8.1738ZM19.95 8.13422L19.6047 7.35753L19.95 8.13422ZM20.0391 8.09464L20.3844 8.87133L20.0391 8.09464ZM20.5332 7.53056L19.7167 7.29399L20.5332 7.53056ZM20.56 7.43783L21.3764 7.6744L20.56 7.43783ZM20.5869 7.3451L19.7705 7.10853L20.5869 7.3451ZM20.7364 6.56922L21.5828 6.64684L20.7364 6.56922ZM20.7445 6.47995L19.8981 6.40234L20.7445 6.47995ZM20.7527 6.39069L21.5992 6.46831L20.7527 6.39069ZM20.8288 5.60412L19.9832 5.51827L20.8288 5.60412ZM20.8482 5.41365L21.6938 5.4995L20.8482 5.41365ZM20.6681 4.665L19.9541 5.12613L20.6681 4.665ZM20.6162 4.58463L21.3303 4.1235L20.6162 4.58463ZM20.5643 4.50426L21.2784 4.04313L20.5643 4.50426ZM20.1238 3.77053L19.3823 4.18616L20.1238 3.77053ZM20.0724 3.67879L19.3309 4.09442V4.09442L20.0724 3.67879ZM20.021 3.58705L20.7624 3.17142L20.021 3.58705ZM19.3486 3.18489L19.3278 4.03464L19.3486 3.18489ZM17.0867 3.12319L16.9956 3.9683L17.0867 3.12319ZM16.2816 3.30798L16.7319 4.02889L16.2816 3.30798ZM16.1076 3.41663L15.6573 2.69571L16.1076 3.41663ZM15.1484 4.96428L14.3077 5.08936L15.1484 4.96428ZM15.1797 5.17451L16.0204 5.04943L15.1797 5.17451ZM15.16 6.01646L15.9902 6.19862L15.16 6.01646ZM15.1397 6.10884L14.3094 5.92669L15.1397 6.10884ZM15.1194 6.20122L15.9497 6.38338L15.1194 6.20122ZM15.2283 6.85718L15.9099 6.34937L15.2283 6.85718ZM15.3199 6.98016L16.0016 6.47234L15.3199 6.98016ZM15.4342 7.28282L15.8144 8.04305L15.4342 7.28282ZM15.4152 7.29232L15.035 6.53209L15.4152 7.29232ZM15.3961 7.30183L15.7763 8.06206L15.3961 7.30183ZM15.5586 7.66375L14.8811 8.17703L15.5586 7.66375ZM8.6831 13.3424H9.5331V13.2424H8.6831H7.8331V13.3424H8.6831ZM8.6831 13.2424L9.48858 13.5139L9.54335 13.3514L8.73787 13.0799L7.9324 12.8084L7.87763 12.9709L8.6831 13.2424ZM8.73787 13.0799L9.54335 13.3514C9.70501 12.8717 9.82228 12.4498 9.87851 12.1018L9.0394 11.9662L8.20029 11.8306C8.16582 12.0438 8.08207 12.3643 7.9324 12.8084L8.73787 13.0799ZM9.0394 11.9662L9.87851 12.1018L9.89447 12.0031L9.05536 11.8675L8.21625 11.7319L8.20029 11.8306L9.0394 11.9662ZM9.05536 11.8675L9.89447 12.0031L9.91043 11.9044L9.07132 11.7687L8.23221 11.6331L8.21625 11.7319L9.05536 11.8675ZM9.07132 11.7687L9.91043 11.9044C9.97657 11.4951 9.9482 11.0617 9.74206 10.6625L8.98682 11.0525L8.23157 11.4425C8.23176 11.4429 8.23692 11.4522 8.24006 11.4788C8.24341 11.5072 8.24453 11.5569 8.23221 11.6331L9.07132 11.7687ZM8.98682 11.0525L9.74206 10.6625L9.70629 10.5932L8.95104 10.9832L8.19579 11.3732L8.23157 11.4425L8.98682 11.0525ZM8.95104 10.9832L9.70629 10.5932L9.67051 10.5239L8.91526 10.9139L8.16001 11.3039L8.19579 11.3732L8.95104 10.9832ZM8.91526 10.9139L9.67051 10.5239C9.61645 10.4192 9.55865 10.3135 9.50167 10.2274C9.47751 10.1908 9.42614 10.1153 9.35239 10.0423C9.31892 10.0091 9.23641 9.93103 9.10975 9.86993C8.9815 9.80806 8.68161 9.70877 8.35035 9.8744L8.73048 10.6347L9.11062 11.3949C8.78473 11.5579 8.49147 11.4591 8.3711 11.4011C8.25233 11.3438 8.17895 11.2728 8.15586 11.2499C8.12484 11.2191 8.10507 11.194 8.09755 11.1842C8.0887 11.1727 8.08403 11.1656 8.08394 11.1655C8.08354 11.1649 8.08531 11.1675 8.08943 11.1744C8.09345 11.1811 8.09889 11.1904 8.10585 11.2027C8.11991 11.2277 8.13786 11.261 8.16001 11.3039L8.91526 10.9139ZM8.73048 10.6347L8.35035 9.8744L8.34279 9.87819L8.72292 10.6385L9.10305 11.3987L9.11062 11.3949L8.73048 10.6347ZM8.72292 10.6385L7.91623 10.3706L7.87641 10.4905L8.6831 10.7584L9.48979 11.0262L9.52961 10.9063L8.72292 10.6385ZM8.6831 10.7584H9.5331V10.6584H8.6831H7.8331V10.7584H8.6831ZM8.6831 13.3424L8.70549 12.4927L8.60552 12.49L8.58314 13.3397L8.56075 14.1894L8.66072 14.1921L8.6831 13.3424ZM8.58314 13.3397L7.84843 12.9123L7.75772 13.0682L8.49243 13.4956L9.22714 13.9231L9.31785 13.7672L8.58314 13.3397ZM8.49243 13.4956L7.75772 13.0682C7.51165 13.4912 7.32343 13.7483 7.19449 13.883L7.8085 14.4708L8.4225 15.0586C8.68986 14.7793 8.95759 14.3864 9.22714 13.9231L8.49243 13.4956ZM7.8085 14.4708L7.19449 13.883L7.12477 13.9559L7.73878 14.5436L8.35278 15.1314L8.4225 15.0586L7.8085 14.4708ZM7.73878 14.5436L7.12477 13.9559L7.05506 14.0287L7.66906 14.6165L8.28307 15.2043L8.35278 15.1314L7.73878 14.5436ZM7.66906 14.6165L7.05506 14.0287C6.9543 14.1339 6.83474 14.2108 6.68355 14.2617L6.95461 15.0673L7.22567 15.873C7.63079 15.7366 7.98753 15.513 8.28307 15.2043L7.66906 14.6165ZM6.95461 15.0673L6.68355 14.2617L6.58568 14.2946L6.85674 15.1003L7.1278 15.9059L7.22567 15.873L6.95461 15.0673ZM6.85674 15.1003L6.58568 14.2946L6.48781 14.3276L6.75887 15.1332L7.02993 15.9388L7.1278 15.9059L6.85674 15.1003ZM6.75887 15.1332L6.48781 14.3276C6.30191 14.3901 6.10876 14.4207 5.90403 14.4182L5.89369 15.2681L5.88334 16.1181C6.27588 16.1228 6.65952 16.0634 7.02993 15.9388L6.75887 15.1332ZM5.89369 15.2681L5.90403 14.4182L5.79896 14.4169L5.78861 15.2668L5.77826 16.1168L5.88334 16.1181L5.89369 15.2681ZM5.78861 15.2668L5.79896 14.4169L5.69388 14.4156L5.68353 15.2656L5.67318 16.1155L5.77826 16.1168L5.78861 15.2668ZM5.68353 15.2656L5.69388 14.4156C5.62219 14.4148 5.57672 14.3982 5.5158 14.337L4.9136 14.9369L4.3114 15.5368C4.67979 15.9066 5.14761 16.1091 5.67318 16.1155L5.68353 15.2656ZM4.9136 14.9369L5.5158 14.337L5.44027 14.2612L4.83807 14.8611L4.23587 15.4609L4.3114 15.5368L4.9136 14.9369ZM4.83807 14.8611L5.44027 14.2612L5.36475 14.1854L4.76255 14.7852L4.16035 15.3851L4.23587 15.4609L4.83807 14.8611ZM4.76255 14.7852L5.36475 14.1854C5.18038 14.0003 5.03444 13.8252 4.92174 13.661L4.2209 14.1419L3.52005 14.6229C3.70024 14.8854 3.91541 15.1392 4.16035 15.3851L4.76255 14.7852ZM4.2209 14.1419L4.92174 13.661L4.87022 13.5859L4.16937 14.0668L3.46852 14.5478L3.52005 14.6229L4.2209 14.1419ZM4.16937 14.0668L4.87022 13.5859L4.81869 13.5108L4.11784 13.9917L3.41699 14.4727L3.46852 14.5478L4.16937 14.0668ZM4.11784 13.9917L4.81869 13.5108C4.5845 13.1695 4.26674 12.9036 3.9032 12.6982L3.48516 13.4383L3.06711 14.1784C3.25426 14.2841 3.3583 14.3872 3.41699 14.4727L4.11784 13.9917ZM3.48516 13.4383L3.9032 12.6982L3.80632 12.6435L3.38828 13.3836L2.97023 14.1237L3.06711 14.1784L3.48516 13.4383ZM3.38828 13.3836L3.80632 12.6435L3.70944 12.5888L3.2914 13.3289L2.87335 14.069L2.97023 14.1237L3.38828 13.3836ZM3.2914 13.3289L3.70944 12.5888C3.68032 12.5723 3.72181 12.5882 3.75826 12.6603C3.7755 12.6944 3.78477 12.7283 3.78833 12.7566C3.79173 12.7836 3.789 12.7975 3.78958 12.794L2.9509 12.6557L2.11223 12.5174C2.06419 12.8088 2.08901 13.1266 2.24127 13.4276C2.39122 13.7241 2.62713 13.9299 2.87335 14.069L3.2914 13.3289ZM2.9509 12.6557L3.78958 12.794L3.80659 12.6908L2.96792 12.5525L2.12924 12.4143L2.11223 12.5174L2.9509 12.6557ZM2.96792 12.5525L3.80659 12.6908L3.8236 12.5876L2.98493 12.4494L2.14625 12.3111L2.12924 12.4143L2.96792 12.5525ZM2.98493 12.4494L3.8236 12.5876C3.85887 12.3737 3.91844 12.1998 3.99389 12.0573L3.24266 11.6596L2.49144 11.2619C2.31994 11.5859 2.20768 11.9385 2.14625 12.3111L2.98493 12.4494ZM3.24266 11.6596L3.99389 12.0573L4.03733 11.9753L3.28611 11.5776L2.53489 11.1799L2.49144 11.2619L3.24266 11.6596ZM3.28611 11.5776L4.03733 11.9753L4.08077 11.8932L3.32955 11.4955L2.57833 11.0978L2.53489 11.1799L3.28611 11.5776ZM3.32955 11.4955L4.08077 11.8932C4.20324 11.6619 4.31999 11.4435 4.43104 11.238L3.68326 10.8339L2.93548 10.4298C2.82187 10.64 2.70281 10.8627 2.57833 11.0978L3.32955 11.4955ZM3.68326 10.8339L4.43104 11.238L4.47056 11.1649L3.72278 10.7608L2.975 10.3566L2.93548 10.4298L3.68326 10.8339ZM3.72278 10.7608L4.47056 11.1649L4.51008 11.0918L3.7623 10.6876L3.01453 10.2835L2.975 10.3566L3.72278 10.7608ZM3.7623 10.6876L4.51008 11.0918C4.5771 10.9678 4.66152 10.8597 4.76587 10.7644L4.19272 10.1367L3.61957 9.50902C3.3747 9.73261 3.17217 9.99181 3.01453 10.2835L3.7623 10.6876ZM4.19272 10.1367L4.76587 10.7644L4.8273 10.7083L4.25415 10.0806L3.681 9.45292L3.61957 9.50902L4.19272 10.1367ZM4.25415 10.0806L4.8273 10.7083L4.88874 10.6522L4.31559 10.0245L3.74244 9.39682L3.681 9.45292L4.25415 10.0806ZM4.31559 10.0245L4.88874 10.6522C5.00845 10.5429 5.14196 10.4493 5.29132 10.3711L4.89705 9.61805L4.50277 8.86502C4.22609 9.00989 3.97196 9.18725 3.74244 9.39682L4.31559 10.0245ZM4.89705 9.61805L5.29132 10.3711L5.36627 10.3318L4.972 9.57881L4.57773 8.82578L4.50277 8.86502L4.89705 9.61805ZM4.972 9.57881L5.36627 10.3318L5.44122 10.2926L5.04695 9.53956L4.65268 8.78654L4.57773 8.82578L4.972 9.57881ZM5.04695 9.53956L5.44122 10.2926C5.70286 10.1556 5.97628 9.97882 6.25959 9.77021L5.7556 9.08575L5.25161 8.40128C5.0161 8.57469 4.81709 8.70045 4.65268 8.78654L5.04695 9.53956ZM5.7556 9.08575L6.25959 9.77021L6.35087 9.703L5.84688 9.01854L5.34289 8.33407L5.25161 8.40128L5.7556 9.08575ZM5.84688 9.01854L6.35087 9.703L6.44214 9.6358L5.93815 8.95133L5.43416 8.26686L5.34289 8.33407L5.84688 9.01854ZM5.93815 8.95133L6.44214 9.6358C6.46175 9.62136 6.47182 9.61696 6.47203 9.61687C6.4721 9.61684 6.46997 9.61776 6.46575 9.61897C6.46149 9.62018 6.45573 9.6215 6.44873 9.62246C6.43374 9.62454 6.41914 9.62419 6.40743 9.62244C6.39625 9.62077 6.39356 9.6187 6.40055 9.62171L6.73654 8.84094L7.07253 8.06016C6.49512 7.81169 5.91167 7.91526 5.43416 8.26686L5.93815 8.95133ZM6.73654 8.84094L6.40055 9.62171L6.49656 9.66303L6.83254 8.88225L7.16853 8.10147L7.07253 8.06016L6.73654 8.84094ZM6.83254 8.88225L6.49656 9.66303L6.59256 9.70434L6.92855 8.92356L7.26453 8.14278L7.16853 8.10147L6.83254 8.88225ZM6.92855 8.92356L6.59256 9.70434C6.7465 9.77058 6.86193 9.85896 6.95325 9.96989L7.60946 9.42962L8.26567 8.88935C7.99481 8.56036 7.65629 8.31137 7.26453 8.14278L6.92855 8.92356ZM7.60946 9.42962L6.95325 9.96989L7.01697 10.0473L7.67318 9.50701L8.32939 8.96675L8.26567 8.88935L7.60946 9.42962ZM7.67318 9.50701L7.01697 10.0473L7.08069 10.1247L7.7369 9.58441L8.39311 9.04414L8.32939 8.96675L7.67318 9.50701ZM7.7369 9.58441L7.08069 10.1247C7.24874 10.3288 7.39939 10.5269 7.53328 10.7191L8.23068 10.2332L8.92809 9.74723C8.76579 9.51429 8.58725 9.27994 8.39311 9.04414L7.7369 9.58441ZM8.23068 10.2332L7.53328 10.7191L7.58538 10.7939L8.28279 10.3079L8.98019 9.82201L8.92809 9.74723L8.23068 10.2332ZM8.28279 10.3079L7.58538 10.7939L7.63749 10.8686L8.33489 10.3827L9.0323 9.89679L8.98019 9.82201L8.28279 10.3079ZM8.33489 10.3827L7.63749 10.8686C7.71722 10.9831 7.80177 11.0971 7.88455 11.1884C7.92233 11.2301 7.98988 11.301 8.07993 11.365C8.12472 11.3967 8.207 11.45 8.31983 11.4882C8.43137 11.526 8.64083 11.5713 8.88348 11.4882L8.60809 10.684L8.3327 9.8799C8.56684 9.79971 8.76601 9.84443 8.86548 9.87814C8.96623 9.91228 9.03466 9.95791 9.06381 9.97859C9.09746 10.0025 9.11963 10.0227 9.12884 10.0314C9.13428 10.0365 9.13817 10.0405 9.14044 10.0428C9.14274 10.0452 9.14393 10.0465 9.14398 10.0465C9.14404 10.0466 9.14327 10.0458 9.14164 10.0438C9.14001 10.042 9.13773 10.0393 9.13477 10.0356C9.12876 10.0283 9.12076 10.0182 9.11067 10.005C9.09025 9.9783 9.06428 9.94269 9.0323 9.89679L8.33489 10.3827ZM8.60809 10.684L8.88348 11.4882L8.89546 11.4841L8.62007 10.6799L8.34467 9.8758L8.3327 9.8799L8.60809 10.684ZM8.62007 10.6799L9.00819 9.92373L8.97126 9.90478L8.58314 10.661L8.19502 11.4172L8.23195 11.4362L8.62007 10.6799ZM8.58314 10.661L8.60552 11.5107L8.70549 11.5081L8.6831 10.6584L8.66072 9.80865L8.56075 9.81129L8.58314 10.661ZM8.6831 13.3424L8.30297 14.1026L8.39241 14.1473L8.77254 13.3871L9.15268 12.6268L9.06323 12.5821L8.6831 13.3424ZM8.77254 13.3871L8.14015 13.955L8.26337 14.0922L8.89576 13.5243L9.52816 12.9563L9.40494 12.8191L8.77254 13.3871ZM8.89576 13.5243L8.26337 14.0922C8.66512 14.5396 9.2105 14.962 9.88909 14.9532L9.87817 14.1033L9.86725 13.2534C9.90459 13.2529 9.89829 13.2662 9.83563 13.2292C9.76919 13.1901 9.66547 13.1092 9.52816 12.9563L8.89576 13.5243ZM9.87817 14.1033L9.88909 14.9532L9.99631 14.9519L9.98539 14.1019L9.97447 13.252L9.86725 13.2534L9.87817 14.1033ZM9.98539 14.1019L9.99631 14.9519L10.1035 14.9505L10.0926 14.1006L10.0817 13.2506L9.97447 13.252L9.98539 14.1019ZM10.0926 14.1006L10.1035 14.9505C10.2168 14.949 10.2635 14.9768 10.3006 15.0097L10.8644 14.3736L11.4282 13.7375C11.0457 13.3985 10.5779 13.2443 10.0817 13.2506L10.0926 14.1006ZM10.8644 14.3736L10.3006 15.0097L10.3745 15.0752L10.9382 14.439L11.502 13.8029L11.4282 13.7375L10.8644 14.3736ZM10.9382 14.439L10.3745 15.0752L10.4483 15.1406L11.0121 14.5044L11.5758 13.8683L11.502 13.8029L10.9382 14.439ZM11.0121 14.5044L10.4483 15.1406C10.689 15.3539 10.9421 15.547 11.2075 15.719L11.6698 15.0057L12.1321 14.2924C11.9401 14.168 11.7547 14.0268 11.5758 13.8683L11.0121 14.5044ZM11.6698 15.0057L11.2075 15.719L11.288 15.7711L11.7502 15.0578L12.2125 14.3445L12.1321 14.2924L11.6698 15.0057ZM11.7502 15.0578L11.288 15.7711L11.3684 15.8233L11.8307 15.1099L12.293 14.3966L12.2125 14.3445L11.7502 15.0578ZM11.8307 15.1099L11.3684 15.8233C11.7449 16.0673 12.169 16.1823 12.6125 16.1886L12.6246 15.3387L12.6368 14.4888C12.479 14.4865 12.3738 14.449 12.293 14.3966L11.8307 15.1099ZM12.6246 15.3387L12.6125 16.1886L12.7182 16.1901L12.7304 15.3402L12.7426 14.4903L12.6368 14.4888L12.6246 15.3387ZM12.7304 15.3402L12.7182 16.1901L12.824 16.1917L12.8362 15.3417L12.8484 14.4918L12.7426 14.4903L12.7304 15.3402ZM12.8362 15.3417L12.824 16.1917C13.0224 16.1945 13.1817 16.2315 13.3137 16.2901L13.6587 15.5133L14.0038 14.7365C13.6403 14.575 13.2512 14.4976 12.8484 14.4918L12.8362 15.3417ZM13.6587 15.5133L13.3137 16.2901L13.4009 16.3288L13.7459 15.552L14.091 14.7752L14.0038 14.7365L13.6587 15.5133ZM13.7459 15.552L13.4009 16.3288L13.488 16.3675L13.8331 15.5907L14.1781 14.8139L14.091 14.7752L13.7459 15.552ZM13.8331 15.5907L13.488 16.3675C13.7229 16.4719 13.9549 16.5819 14.1841 16.6977L14.5673 15.9389L14.9505 15.1802C14.6962 15.0518 14.4387 14.9297 14.1781 14.8139L13.8331 15.5907ZM14.5673 15.9389L14.1841 16.6977L14.2692 16.7406L14.6524 15.9819L15.0356 15.2232L14.9505 15.1802L14.5673 15.9389ZM14.6524 15.9819L14.2692 16.7406L14.3542 16.7836L14.7374 16.0248L15.1206 15.2661L15.0356 15.2232L14.6524 15.9819ZM14.7374 16.0248L14.3542 16.7836C14.3958 16.8046 14.428 16.8228 14.4521 16.8379C14.4765 16.853 14.4898 16.8632 14.495 16.8674C14.5005 16.8718 14.4935 16.8669 14.4801 16.8512C14.4666 16.8355 14.4429 16.8044 14.4201 16.7567L15.1871 16.3904L15.9541 16.0241C15.7662 15.6305 15.3883 15.4013 15.1206 15.2661L14.7374 16.0248ZM15.1871 16.3904L14.4201 16.7567L14.4405 16.7995L15.2076 16.4332L15.9746 16.0669L15.9541 16.0241L15.1871 16.3904ZM15.2076 16.4332L14.3618 16.518L14.3799 16.6985L15.2257 16.6136L16.0714 16.5288L16.0533 16.3483L15.2076 16.4332ZM15.2257 16.6136L14.8455 17.3739L14.935 17.4186L15.3151 16.6584L15.6952 15.8981L15.6058 15.8534L15.2257 16.6136ZM8.6831 10.6584L9.06323 11.4186L9.15268 11.3739L8.77254 10.6136L8.39241 9.85337L8.30297 9.8981L8.6831 10.6584ZM8.77254 10.6136L9.32724 11.2577L9.46132 11.1422L8.90663 10.4982L8.35193 9.8541L8.21785 9.96958L8.77254 10.6136ZM8.90663 10.4982L9.46132 11.1422C9.61342 11.0112 9.73329 10.9339 9.82091 10.8911C9.90756 10.8488 9.94468 10.8489 9.9418 10.849L9.92901 9.99907L9.91622 9.14917C9.32063 9.15813 8.79038 9.47648 8.35193 9.8541L8.90663 10.4982ZM9.92901 9.99907L9.9418 10.849L10.0475 10.8474L10.0347 9.99748L10.022 9.14758L9.91622 9.14917L9.92901 9.99907ZM10.0347 9.99748L10.0475 10.8474L10.1533 10.8458L10.1405 9.99589L10.1277 9.14599L10.022 9.14758L10.0347 9.99748ZM10.1405 9.99589L10.1533 10.8458C10.6891 10.8377 11.1669 10.6229 11.5218 10.2129L10.8791 9.65655L10.2365 9.10022C10.2133 9.12698 10.1997 9.13343 10.1957 9.13527C10.1912 9.13735 10.1728 9.14531 10.1277 9.14599L10.1405 9.99589ZM10.8791 9.65655L11.5218 10.2129L11.5893 10.1349L10.9467 9.57854L10.304 9.02222L10.2365 9.10022L10.8791 9.65655ZM10.9467 9.57854L11.5893 10.1349L11.6568 10.0569L11.0142 9.50053L10.3715 8.94421L10.304 9.02222L10.9467 9.57854ZM11.0142 9.50053L11.6568 10.0569C11.8041 9.88674 11.9586 9.74926 12.1194 9.63976L11.6409 8.93723L11.1624 8.2347C10.8714 8.43286 10.6081 8.67091 10.3715 8.94421L11.0142 9.50053ZM11.6409 8.93723L12.1194 9.63976L12.1988 9.58563L11.7203 8.8831L11.2418 8.18057L11.1624 8.2347L11.6409 8.93723ZM11.7203 8.8831L12.1988 9.58563L12.2783 9.53151L11.7998 8.82898L11.3213 8.12645L11.2418 8.18057L11.7203 8.8831ZM11.7998 8.82898L12.2783 9.53151C12.4378 9.42283 12.6087 9.33886 12.793 9.27864L12.529 8.47068L12.265 7.66271C11.9288 7.77256 11.6135 7.92745 11.3213 8.12645L11.7998 8.82898ZM12.529 8.47068L12.793 9.27864L12.8845 9.24872L12.6205 8.44076L12.3566 7.63279L12.265 7.66271L12.529 8.47068ZM12.6205 8.44076L12.8845 9.24872L12.9761 9.2188L12.7121 8.41084L12.4481 7.60287L12.3566 7.63279L12.6205 8.44076ZM12.7121 8.41084L12.9761 9.2188C13.2944 9.11479 13.5978 8.97794 13.8852 8.80839L13.4532 8.07634L13.0212 7.34429C12.841 7.45066 12.6503 7.53681 12.4481 7.60287L12.7121 8.41084ZM13.4532 8.07634L13.8852 8.80839L13.9674 8.75985L13.5355 8.0278L13.1035 7.29575L13.0212 7.34429L13.4532 8.07634ZM13.5355 8.0278L13.9674 8.75985L14.0497 8.71131L13.6177 7.97926L13.1857 7.24721L13.1035 7.29575L13.5355 8.0278ZM13.6177 7.97926L14.0497 8.71131C14.2139 8.61439 14.3911 8.54074 14.584 8.49065L14.3704 7.66794L14.1567 6.84522C13.8137 6.93431 13.4891 7.0682 13.1857 7.24721L13.6177 7.97926ZM14.3704 7.66794L14.584 8.49065L14.6783 8.46617L14.4647 7.64345L14.251 6.82074L14.1567 6.84522L14.3704 7.66794ZM14.4647 7.64345L14.6783 8.46617L14.7726 8.44168L14.559 7.61897L14.3453 6.79625L14.251 6.82074L14.4647 7.64345ZM14.559 7.61897L14.7726 8.44168C15.0354 8.37344 15.2946 8.29752 15.4761 8.20924L15.1044 7.44483L14.7327 6.68042C14.7394 6.67716 14.7152 6.6888 14.6378 6.71351C14.5667 6.73621 14.4703 6.7638 14.3453 6.79625L14.559 7.61897ZM15.1044 7.44483L15.4761 8.20924L15.5097 8.19288L15.138 7.42847L14.7663 6.66406L14.7327 6.68042L15.1044 7.44483ZM15.138 7.42847L15.501 8.19707L15.5887 8.15567L15.2257 7.38708L14.8627 6.61849L14.775 6.65988L15.138 7.42847ZM15.2257 7.38708L15.6058 8.14734L15.6952 8.10262L15.3151 7.34236L14.935 6.5821L14.8455 6.62682L15.2257 7.38708ZM15.1304 17.1307L14.3388 16.8212L14.3037 16.9109L15.0953 17.2205L15.887 17.53L15.9221 17.4402L15.1304 17.1307ZM15.0953 17.2205L14.3037 16.9109C14.148 17.3091 14.1047 17.7274 14.1763 18.1491L15.0143 18.0066L15.8523 17.8642C15.8325 17.7478 15.8432 17.6419 15.887 17.53L15.0953 17.2205ZM15.0143 18.0066L14.1763 18.1491L14.1924 18.2437L15.0304 18.1013L15.8684 17.9589L15.8523 17.8642L15.0143 18.0066ZM15.0304 18.1013L14.1924 18.2437L14.2085 18.3384L15.0465 18.196L15.8845 18.0536L15.8684 17.9589L15.0304 18.1013ZM15.0465 18.196L14.2085 18.3384C14.2743 18.7251 14.4174 19.0851 14.6412 19.4069L15.3391 18.9216L16.0369 18.4364C15.9621 18.3287 15.9102 18.2049 15.8845 18.0536L15.0465 18.196ZM15.3391 18.9216L14.6412 19.4069L14.6937 19.4825L15.3916 18.9972L16.0895 18.5119L16.0369 18.4364L15.3391 18.9216ZM15.3916 18.9972L14.6937 19.4825L14.7463 19.558L15.4441 19.0727L16.142 18.5875L16.0895 18.5119L15.3916 18.9972ZM15.4441 19.0727L14.7463 19.558C14.8078 19.6464 14.8688 19.7839 14.9027 19.9999L15.7424 19.868L16.5821 19.7361C16.5169 19.3212 16.3791 18.9285 16.142 18.5875L15.4441 19.0727ZM15.7424 19.868L14.9027 19.9999L14.9202 20.1109L15.7599 19.979L16.5996 19.8471L16.5821 19.7361L15.7424 19.868ZM15.7599 19.979L14.9202 20.1109L14.9376 20.2219L15.7773 20.09L16.617 19.9581L16.5996 19.8471L15.7599 19.979ZM15.7773 20.09L14.9376 20.2219C14.9814 20.5005 15.089 20.7888 15.3035 21.0327C15.5213 21.2803 15.7992 21.4253 16.0855 21.495L16.2866 20.6691L16.4878 19.8433C16.4833 19.8422 16.4945 19.8444 16.5145 19.8559C16.5355 19.8679 16.559 19.886 16.5801 19.91C16.6248 19.9609 16.6228 19.995 16.617 19.9581L15.7773 20.09ZM16.2866 20.6691L16.0855 21.495L16.1875 21.5198L16.3887 20.694L16.5898 19.8681L16.4878 19.8433L16.2866 20.6691ZM16.3887 20.694L16.1875 21.5198L16.2896 21.5447L16.4907 20.7188L16.6918 19.893L16.5898 19.8681L16.3887 20.694ZM16.4907 20.7188L16.2896 21.5447C16.524 21.6018 16.7458 21.6806 16.9562 21.7809L17.3219 21.0136L17.6876 20.2463C17.3697 20.0948 17.0374 19.9771 16.6918 19.893L16.4907 20.7188ZM17.3219 21.0136L16.9562 21.7809L17.0491 21.8252L17.4148 21.0579L17.7805 20.2906L17.6876 20.2463L17.3219 21.0136ZM17.4148 21.0579L17.0491 21.8252L17.142 21.8695L17.5077 21.1022L17.8734 20.3348L17.7805 20.2906L17.4148 21.0579ZM17.5077 21.1022L17.142 21.8695C17.6535 22.1133 18.2005 22.0961 18.6963 21.8317L18.2965 21.0817L17.8966 20.3316C17.8809 20.34 17.8727 20.3424 17.8716 20.3427C17.8708 20.3429 17.8744 20.3419 17.8809 20.3417C17.8874 20.3416 17.8919 20.3424 17.8928 20.3426C17.8934 20.3427 17.8871 20.3414 17.8734 20.3348L17.5077 21.1022ZM18.2965 21.0817L18.6963 21.8317L18.7884 21.7826L18.3886 21.0326L17.9887 20.2825L17.8966 20.3316L18.2965 21.0817ZM18.3886 21.0326L18.7884 21.7826L18.8805 21.7336L18.4807 20.9835L18.0808 20.2334L17.9887 20.2825L18.3886 21.0326ZM18.4807 20.9835L18.8805 21.7336C19.1372 21.5967 19.3789 21.4713 19.6059 21.3571L19.2237 20.5978L18.8416 19.8385C18.6013 19.9595 18.3477 20.0911 18.0808 20.2334L18.4807 20.9835ZM19.2237 20.5978L19.6059 21.3571L19.688 21.3157L19.3059 20.5564L18.9238 19.7972L18.8416 19.8385L19.2237 20.5978ZM19.3059 20.5564L19.688 21.3157L19.7702 21.2743L19.3881 20.5151L19.006 19.7558L18.9238 19.7972L19.3059 20.5564ZM19.3881 20.5151L19.7702 21.2743C19.9971 21.1602 20.2431 21.0402 20.5084 20.9145L20.1444 20.1464L19.7804 19.3783C19.5046 19.509 19.2464 19.6348 19.006 19.7558L19.3881 20.5151ZM20.1444 20.1464L20.5084 20.9145L20.6036 20.8694L20.2396 20.1013L19.8756 19.3332L19.7804 19.3783L20.1444 20.1464ZM20.2396 20.1013L20.6036 20.8694L20.6988 20.8243L20.3348 20.0562L19.9708 19.288L19.8756 19.3332L20.2396 20.1013ZM20.3348 20.0562L20.6988 20.8243C21.2156 20.5794 21.5562 20.1389 21.6526 19.5695L20.8146 19.4276L19.9765 19.2857C19.974 19.3001 19.9717 19.3048 19.9726 19.3026C19.973 19.3016 19.974 19.2995 19.9757 19.2966C19.9774 19.2936 19.9795 19.2904 19.982 19.2871C19.9873 19.2802 19.9917 19.2765 19.9923 19.276C19.9926 19.2758 19.9867 19.2805 19.9708 19.288L20.3348 20.0562ZM20.8146 19.4276L21.6526 19.5695L21.6699 19.4672L20.8319 19.3253L19.9938 19.1833L19.9765 19.2857L20.8146 19.4276ZM20.8319 19.3253L21.6699 19.4672L21.6873 19.3649L20.8492 19.223L20.0111 19.081L19.9938 19.1833L20.8319 19.3253ZM20.8492 19.223L21.6873 19.3649C21.7361 19.0764 21.7847 18.7973 21.8328 18.5276L20.9961 18.3782L20.1593 18.2287C20.1102 18.5037 20.0608 18.7879 20.0111 19.081L20.8492 19.223ZM20.9961 18.3782L21.8328 18.5276L21.8499 18.4318L21.0132 18.2823L20.1764 18.1329L20.1593 18.2287L20.9961 18.3782ZM21.0132 18.2823L21.8499 18.4318L21.8671 18.336L21.0303 18.1865L20.1935 18.037L20.1764 18.1329L21.0132 18.2823ZM21.0303 18.1865L21.8671 18.336C21.9456 17.8964 21.8928 17.4614 21.7105 17.0535L20.9345 17.4004L20.1585 17.7473C20.2012 17.8428 20.2123 17.9318 20.1935 18.037L21.0303 18.1865ZM20.9345 17.4004L21.7105 17.0535L21.6709 16.965L20.8949 17.3118L20.1189 17.6587L20.1585 17.7473L20.9345 17.4004ZM20.8949 17.3118L21.6709 16.965L21.6313 16.8764L20.8553 17.2233L20.0793 17.5702L20.1189 17.6587L20.8949 17.3118ZM20.8553 17.2233L21.6313 16.8764C21.5134 16.6125 21.3905 16.3543 21.2627 16.1019L20.5044 16.4859L19.746 16.8698C19.8612 17.0972 19.9723 17.3307 20.0793 17.5702L20.8553 17.2233ZM20.5044 16.4859L21.2627 16.1019L21.2199 16.0175L20.4616 16.4014L19.7033 16.7854L19.746 16.8698L20.5044 16.4859ZM20.4616 16.4014L21.2199 16.0175L21.1772 15.9331L20.4189 16.317L19.6605 16.701L19.7033 16.7854L20.4616 16.4014ZM20.4189 16.317L21.1772 15.9331C21.032 15.6464 20.8571 15.3668 20.6551 15.0942L19.9722 15.6002L19.2892 16.1063C19.4398 16.3096 19.5627 16.5079 19.6605 16.701L20.4189 16.317ZM19.9722 15.6002L20.6551 15.0942L20.5931 15.0104L19.9101 15.5165L19.2272 16.0225L19.2892 16.1063L19.9722 15.6002ZM19.9101 15.5165L20.5931 15.0104L20.531 14.9267L19.8481 15.4328L19.1651 15.9388L19.2272 16.0225L19.9101 15.5165ZM19.8481 15.4328L20.531 14.9267C20.2389 14.5325 19.8415 14.2645 19.3662 14.1419L19.1539 14.965L18.9416 15.7881C19.0393 15.8132 19.1046 15.8571 19.1651 15.9388L19.8481 15.4328ZM19.1539 14.965L19.3662 14.1419L19.2654 14.1159L19.0531 14.939L18.8408 15.7621L18.9416 15.7881L19.1539 14.965ZM19.0531 14.939L19.2654 14.1159L19.1646 14.0899L18.9523 14.913L18.7401 15.7361L18.8408 15.7621L19.0531 14.939ZM18.9523 14.913L19.1646 14.0899C18.7814 13.9911 18.3918 13.9615 18.0007 14.0046L18.0939 14.8495L18.187 15.6943C18.3677 15.6744 18.5504 15.6871 18.7401 15.7361L18.9523 14.913ZM18.0939 14.8495L18.0007 14.0046L17.9001 14.0157L17.9933 14.8606L18.0864 15.7054L18.187 15.6943L18.0939 14.8495ZM17.9933 14.8606L17.9001 14.0157L17.7995 14.0268L17.8927 14.8716L17.9858 15.7165L18.0864 15.7054L17.9933 14.8606ZM17.8927 14.8716L17.7995 14.0268C17.3777 14.0733 16.9848 14.2167 16.6359 14.4591L17.1208 15.1572L17.6058 15.8553C17.7142 15.78 17.8359 15.7331 17.9858 15.7165L17.8927 14.8716ZM17.1208 15.1572L16.6359 14.4591L16.5554 14.515L17.0404 15.2131L17.5253 15.9112L17.6058 15.8553L17.1208 15.1572ZM17.0404 15.2131L16.5554 14.515L16.475 14.5709L16.9599 15.269L17.4449 15.9671L17.5253 15.9112L17.0404 15.2131ZM16.9599 15.269L16.475 14.5709C16.2492 14.7278 16.03 14.8779 15.8175 15.0214L16.2932 15.7259L16.7689 16.4303C16.988 16.2823 17.2133 16.1279 17.4449 15.9671L16.9599 15.269ZM16.2932 15.7259L15.8175 15.0214L15.7416 15.0727L16.2173 15.7771L16.693 16.4816L16.7689 16.4303L16.2932 15.7259ZM16.2173 15.7771L15.7416 15.0727L15.6657 15.124L16.1414 15.8284L16.6171 16.5328L16.693 16.4816L16.2173 15.7771ZM16.1414 15.8284L15.6657 15.124C15.346 15.3398 15.0705 15.6298 14.9125 16.0107L15.6977 16.3363L16.4828 16.662C16.4849 16.657 16.5052 16.6083 16.6171 16.5328L16.1414 15.8284ZM15.6977 16.3363L14.9125 16.0107L14.8844 16.0785L15.6695 16.4042L16.4547 16.7299L16.4828 16.662L15.6977 16.3363ZM15.6695 16.4042L14.8844 16.0785L14.8562 16.1464L15.6414 16.4721L16.4265 16.7978L16.4547 16.7299L15.6695 16.4042ZM15.6414 16.4721L14.8562 16.1464C14.8238 16.2245 14.8254 16.1979 14.8738 16.1389C14.8972 16.1106 14.9814 16.0119 15.1377 15.9427C15.3317 15.8568 15.584 15.8425 15.8179 15.9595L15.4378 16.7197L15.0577 17.48C15.3195 17.6109 15.6011 17.5967 15.826 17.4971C16.0131 17.4142 16.1298 17.2881 16.1871 17.2185C16.3034 17.077 16.3789 16.9126 16.4265 16.7978L15.6414 16.4721ZM15.4378 16.7197L15.8179 15.9595L15.7983 15.9497L15.4182 16.7099L15.0381 17.4702L15.0577 17.48L15.4378 16.7197ZM15.4182 16.7099L15.7983 15.9497L15.7788 15.9399L15.3986 16.7001L15.0185 17.4604L15.0381 17.4702L15.4182 16.7099ZM15.3986 16.7001L15.7788 15.9399C15.4216 15.7613 15.0825 15.869 14.893 15.9908C14.735 16.0924 14.6403 16.2213 14.597 16.2846C14.5015 16.4242 14.4289 16.5906 14.3739 16.7314L15.1655 17.041L15.9571 17.3505C16.0018 17.2362 16.018 17.2183 16.0002 17.2443C15.9958 17.2508 15.9371 17.3406 15.8125 17.4207C15.743 17.4654 15.6305 17.5215 15.4804 17.54C15.3204 17.5596 15.1595 17.5309 15.0185 17.4604L15.3986 16.7001ZM15.1655 17.041L14.3739 16.7314L14.3388 16.8212L15.1304 17.1307L15.9221 17.4402L15.9571 17.3505L15.1655 17.041ZM15.6157 7.73913L14.9382 8.25242L14.9953 8.3278L15.6728 7.81452L16.3503 7.30124L16.2932 7.22585L15.6157 7.73913ZM15.6728 7.81452L14.9953 8.3278C15.1944 8.5906 15.4205 8.83085 15.6725 9.04834L16.2279 8.4049L16.7833 7.76147C16.6198 7.6203 16.4759 7.46696 16.3503 7.30124L15.6728 7.81452ZM16.2279 8.4049L15.6725 9.04834L15.7456 9.11144L16.301 8.468L16.8564 7.82457L16.7833 7.76147L16.2279 8.4049ZM16.301 8.468L15.7456 9.11144L15.8187 9.17454L16.3741 8.5311L16.9295 7.88766L16.8564 7.82457L16.301 8.468ZM16.3741 8.5311L15.8187 9.17454C16.1397 9.45167 16.5155 9.63297 16.9321 9.71213L17.0908 8.87707L17.2495 8.04202C17.126 8.01854 17.024 7.96919 16.9295 7.88766L16.3741 8.5311ZM17.0908 8.87707L16.9321 9.71213L17.0272 9.73019L17.1858 8.89513L17.3445 8.06007L17.2495 8.04202L17.0908 8.87707ZM17.1858 8.89513L17.0272 9.73019L17.1222 9.74824L17.2809 8.91319L17.4395 8.07813L17.3445 8.06007L17.1858 8.89513ZM17.2809 8.91319L17.1222 9.74824C17.5161 9.82309 17.9115 9.8097 18.2979 9.70279L18.0713 8.88356L17.8446 8.06434C17.7173 8.09956 17.5858 8.10592 17.4395 8.07813L17.2809 8.91319ZM18.0713 8.88356L18.2979 9.70279L18.3883 9.67778L18.1617 8.85856L17.935 8.03933L17.8446 8.06434L18.0713 8.88356ZM18.1617 8.85856L18.3883 9.67778L18.4787 9.65278L18.252 8.83356L18.0254 8.01433L17.935 8.03933L18.1617 8.85856ZM18.252 8.83356L18.4787 9.65278C18.7758 9.57057 19.0604 9.46826 19.3315 9.34484L18.9792 8.57127L18.6269 7.79771C18.4421 7.88186 18.242 7.95441 18.0254 8.01433L18.252 8.83356ZM18.9792 8.57127L19.3315 9.34484L19.4117 9.30832L19.0594 8.53476L18.7071 7.76119L18.6269 7.79771L18.9792 8.57127ZM19.0594 8.53476L19.4117 9.30832L19.4919 9.2718L19.1396 8.49824L18.7873 7.72467L18.7071 7.76119L19.0594 8.53476ZM19.1396 8.49824L19.4919 9.2718C19.7172 9.16917 19.9554 9.06207 20.2063 8.95049L19.861 8.1738L19.5157 7.39711C19.2606 7.51054 19.0178 7.61973 18.7873 7.72467L19.1396 8.49824ZM19.861 8.1738L20.2063 8.95049L20.2954 8.91091L19.95 8.13422L19.6047 7.35753L19.5157 7.39711L19.861 8.1738ZM19.95 8.13422L20.2954 8.91091L20.3844 8.87133L20.0391 8.09464L19.6937 7.31794L19.6047 7.35753L19.95 8.13422ZM20.0391 8.09464L20.3844 8.87133C20.8639 8.65811 21.2027 8.27391 21.3496 7.76713L20.5332 7.53056L19.7167 7.29399C19.7129 7.30718 19.7099 7.31302 19.7095 7.31376C19.7092 7.31429 19.7103 7.31219 19.713 7.30917C19.7156 7.30616 19.7172 7.30516 19.7159 7.30611C19.7143 7.30721 19.7078 7.31169 19.6937 7.31794L20.0391 8.09464ZM20.5332 7.53056L21.3496 7.76713L21.3764 7.6744L20.56 7.43783L19.7436 7.20126L19.7167 7.29399L20.5332 7.53056ZM20.56 7.43783L21.3764 7.6744L21.4033 7.58167L20.5869 7.3451L19.7705 7.10853L19.7436 7.20126L20.56 7.43783ZM20.5869 7.3451L21.4033 7.58167C21.4936 7.27016 21.5542 6.95831 21.5828 6.64684L20.7364 6.56922L19.8899 6.4916C19.8719 6.68754 19.833 6.89294 19.7705 7.10853L20.5869 7.3451ZM20.7364 6.56922L21.5828 6.64684L21.591 6.55757L20.7445 6.47995L19.8981 6.40234L19.8899 6.4916L20.7364 6.56922ZM20.7445 6.47995L21.591 6.55757L21.5992 6.46831L20.7527 6.39069L19.9063 6.31307L19.8981 6.40234L20.7445 6.47995ZM20.7527 6.39069L21.5992 6.46831C21.6222 6.21753 21.6473 5.95809 21.6745 5.68997L20.8288 5.60412L19.9832 5.51827C19.9554 5.7915 19.9298 6.05644 19.9063 6.31307L20.7527 6.39069ZM20.8288 5.60412L21.6745 5.68997L21.6842 5.59474L20.8385 5.50888L19.9929 5.42303L19.9832 5.51827L20.8288 5.60412ZM20.8385 5.50888L21.6842 5.59474L21.6938 5.4995L20.8482 5.41365L20.0025 5.32779L19.9929 5.42303L20.8385 5.50888ZM20.8482 5.41365L21.6938 5.4995C21.7408 5.03696 21.6344 4.59449 21.3822 4.20387L20.6681 4.665L19.9541 5.12613C19.9968 5.19236 20.0105 5.24899 20.0025 5.32779L20.8482 5.41365ZM20.6681 4.665L21.3822 4.20387L21.3303 4.1235L20.6162 4.58463L19.9022 5.04576L19.9541 5.12613L20.6681 4.665ZM20.6162 4.58463L21.3303 4.1235L21.2784 4.04313L20.5643 4.50426L19.8503 4.96539L19.9022 5.04576L20.6162 4.58463ZM20.5643 4.50426L21.2784 4.04313C21.1413 3.83096 21.0036 3.60168 20.8653 3.3549L20.1238 3.77053L19.3823 4.18616C19.5363 4.46085 19.6923 4.72072 19.8503 4.96539L20.5643 4.50426ZM20.1238 3.77053L20.8653 3.3549L20.8138 3.26316L20.0724 3.67879L19.3309 4.09442L19.3823 4.18616L20.1238 3.77053ZM20.0724 3.67879L20.8138 3.26316L20.7624 3.17142L20.021 3.58705L19.2795 4.00268L19.3309 4.09442L20.0724 3.67879ZM20.021 3.58705L20.7624 3.17142C20.4675 2.64538 19.9674 2.34975 19.3693 2.33514L19.3486 3.18489L19.3278 4.03464C19.3431 4.03501 19.346 4.03669 19.3399 4.03504C19.3332 4.03324 19.3211 4.02891 19.3069 4.02043C19.2927 4.01194 19.2825 4.00292 19.2767 3.99675C19.2714 3.99102 19.2731 3.99133 19.2795 4.00268L20.021 3.58705ZM19.3486 3.18489L19.3693 2.33514L19.263 2.33255L19.2423 3.18229L19.2215 4.03204L19.3278 4.03464L19.3486 3.18489ZM19.2423 3.18229L19.263 2.33255L19.1567 2.32995L19.136 3.1797L19.1152 4.02945L19.2215 4.03204L19.2423 3.18229ZM19.136 3.1797L19.1567 2.32995C18.8431 2.32229 18.5487 2.32165 18.2742 2.32833L18.2948 3.17808L18.3155 4.02782C18.5583 4.02192 18.8247 4.02235 19.1152 4.02945L19.136 3.1797ZM18.2948 3.17808L18.2742 2.32833L18.1831 2.33054L18.2038 3.18029L18.2245 4.03004L18.3155 4.02782L18.2948 3.17808ZM18.2038 3.18029L18.1831 2.33054L18.0921 2.33276L18.1128 3.1825L18.1335 4.03225L18.2245 4.03004L18.2038 3.18029ZM18.1128 3.1825L18.0921 2.33276C17.875 2.33804 17.6385 2.32773 17.3815 2.30004L17.2904 3.14515L17.1994 3.99026C17.5215 4.02497 17.8332 4.03956 18.1335 4.03225L18.1128 3.1825ZM17.2904 3.14515L17.3815 2.30004L17.2796 2.28906L17.1885 3.13417L17.0975 3.97928L17.1994 3.99026L17.2904 3.14515ZM17.1885 3.13417L17.2796 2.28906L17.1777 2.27808L17.0867 3.12319L16.9956 3.9683L17.0975 3.97928L17.1885 3.13417ZM17.0867 3.12319L17.1777 2.27808C16.6987 2.22647 16.2398 2.33189 15.8312 2.58707L16.2816 3.30798L16.7319 4.02889C16.8177 3.97528 16.8954 3.95751 16.9956 3.9683L17.0867 3.12319ZM16.2816 3.30798L15.8312 2.58707L15.7443 2.64139L16.1946 3.3623L16.6449 4.08322L16.7319 4.02889L16.2816 3.30798ZM16.1946 3.3623L15.7443 2.64139L15.6573 2.69571L16.1076 3.41663L16.5579 4.13754L16.6449 4.08322L16.1946 3.3623ZM16.1076 3.41663L15.6573 2.69571C15.3213 2.9056 15.0322 3.17096 14.7931 3.48764L15.4716 3.99973L16.15 4.51182C16.2647 4.35981 16.3996 4.23644 16.5579 4.13754L16.1076 3.41663ZM15.4716 3.99973L14.7931 3.48764L14.7309 3.5701L15.4093 4.08218L16.0877 4.59427L16.15 4.51182L15.4716 3.99973ZM15.4093 4.08218L14.7309 3.5701L14.6686 3.65255L15.3471 4.16464L16.0255 4.67672L16.0877 4.59427L15.4093 4.08218ZM15.3471 4.16464L14.6686 3.65255C14.35 4.07469 14.2308 4.57231 14.3077 5.08936L15.1484 4.96428L15.9892 4.8392C15.9772 4.75874 15.9904 4.72327 16.0255 4.67672L15.3471 4.16464ZM15.1484 4.96428L14.3077 5.08936L14.3233 5.19447L15.1641 5.06939L16.0048 4.94431L15.9892 4.8392L15.1484 4.96428ZM15.1641 5.06939L14.3233 5.19447L14.339 5.29959L15.1797 5.17451L16.0204 5.04943L16.0048 4.94431L15.1641 5.06939ZM15.1797 5.17451L14.339 5.29959C14.3701 5.5087 14.3626 5.68438 14.3297 5.83431L15.16 6.01646L15.9902 6.19862C16.0725 5.82345 16.0782 5.43782 16.0204 5.04943L15.1797 5.17451ZM15.16 6.01646L14.3297 5.83431L14.3094 5.92669L15.1397 6.10884L15.9699 6.291L15.9902 6.19862L15.16 6.01646ZM15.1397 6.10884L14.3094 5.92669L14.2892 6.01907L15.1194 6.20122L15.9497 6.38338L15.9699 6.291L15.1397 6.10884ZM15.1194 6.20122L14.2892 6.01907C14.1922 6.46126 14.2357 6.94754 14.5467 7.36499L15.2283 6.85718L15.9099 6.34937C15.9172 6.35915 15.9248 6.37184 15.9311 6.38662C15.9373 6.40134 15.9405 6.4141 15.942 6.42294C15.9449 6.44034 15.9392 6.43091 15.9497 6.38338L15.1194 6.20122ZM15.2283 6.85718L14.5467 7.36499L14.5925 7.42648L15.2741 6.91867L15.9557 6.41086L15.9099 6.34937L15.2283 6.85718ZM15.2741 6.91867L14.5925 7.42648L14.6383 7.48797L15.3199 6.98016L16.0016 6.47234L15.9557 6.41086L15.2741 6.91867ZM15.3199 6.98016L14.6383 7.48797C14.6939 7.56268 14.6758 7.55302 14.6509 7.48706C14.6405 7.45954 14.591 7.32754 14.6139 7.14354C14.6268 7.04044 14.6636 6.91397 14.7477 6.79051C14.8333 6.66501 14.944 6.57757 15.054 6.52258L15.4342 7.28282L15.8144 8.04305C16.1017 7.89935 16.2665 7.62949 16.3009 7.35387C16.3278 7.13789 16.2708 6.96468 16.2414 6.88671C16.1784 6.71986 16.0761 6.57238 16.0016 6.47234L15.3199 6.98016ZM15.4342 7.28282L15.054 6.52258L15.035 6.53209L15.4152 7.29232L15.7953 8.05256L15.8144 8.04305L15.4342 7.28282ZM15.4152 7.29232L15.035 6.53209L15.016 6.54159L15.3961 7.30183L15.7763 8.06206L15.7953 8.05256L15.4152 7.29232ZM15.3961 7.30183L15.016 6.54159C14.8613 6.61893 14.7227 6.74495 14.6315 6.91528C14.5456 7.07592 14.5258 7.23055 14.5259 7.34032C14.5261 7.53867 14.5909 7.69419 14.6208 7.76062C14.6891 7.91296 14.7923 8.05987 14.8811 8.17703L15.5586 7.66375L16.2361 7.15046C16.1625 7.05336 16.1575 7.03283 16.1717 7.06452C16.1745 7.07064 16.2258 7.17754 16.2259 7.33898C16.226 7.43028 16.2096 7.56939 16.1304 7.71742C16.046 7.87514 15.9175 7.99148 15.7763 8.06206L15.3961 7.30183ZM15.5586 7.66375L14.8811 8.17703L14.9382 8.25242L15.6157 7.73913L16.2932 7.22585L16.2361 7.15046L15.5586 7.66375Z" fill="#D8F789" />

</svg>