<svg width="24" height="24" viewBox="0 0 24 24" fill="none" xmlns="http://www.w3.org/2000/svg">
<path xmlns="http://www.w3.org/2000/svg" id="Vector" d="M6.5015 21.0224L6.53947 20.1733H6.53947L6.5015 21.0224ZM7.5045 21.2389L7.1977 22.0316L7.5045 21.2389ZM9.5105 20.8695L9.16916 20.091L9.5105 20.8695ZM11.5165 20.6566L11.6281 19.814L11.5165 20.6566ZM13.5225 21.2203L13.6557 20.3808L13.5225 21.2203ZM14.5255 20.9926L14.0815 20.2678L14.5255 20.9926ZM18.5753 20.8974L18.6632 20.052V20.052L18.5753 20.8974ZM19.8669 17.592L20.6516 17.2652L19.8669 17.592ZM20.0533 16.589L20.7209 17.1152L20.0533 16.589ZM19.9907 14.583L20.8277 14.4351L19.9907 14.583ZM18.5692 11.2681L17.9087 11.803L18.5692 11.2681ZM17.718 11.0853L18.078 11.8553L17.718 11.0853ZM15.7035 10.8773L15.388 11.6666L15.7035 10.8773ZM14.7005 10.8659L15.0004 11.6613L14.7005 10.8659ZM12.6945 10.9414L12.3084 10.1842L12.6945 10.9414ZM11.6915 11.1107L11.5471 11.9483L11.6915 11.1107ZM8.68254 11.0573L8.49824 11.887L8.68254 11.0573ZM7.67954 11.1307L7.38562 10.3331L7.67954 11.1307ZM6.67654 11.2281L6.53058 12.0655L6.67654 11.2281ZM5.65837 11.0936L5.73546 10.2471L5.65837 11.0936ZM4.8012 11.4317L5.43805 11.9947L4.8012 11.4317ZM4.42284 12.2833L3.57563 12.2145L4.42284 12.2833ZM3.86189 19.2188L3.06421 19.5124L3.86189 19.2188ZM4.33977 20.1561L5.04338 19.6792L4.33977 20.1561ZM16.0915 9.4955L15.3297 9.87258L16.0915 9.4955ZM15.8012 6.54524L16.4735 6.02516L15.8012 6.54524ZM15.6823 5.4732L16.4834 5.75724L15.6823 5.4732ZM15.3421 4.61368L15.0211 5.40073L15.3421 4.61368ZM14.4397 4.03426L13.8295 4.626L14.4397 4.03426ZM13.6553 3.47962L13.2999 4.25175L13.6553 3.47962ZM10.6563 2.88347L10.5307 2.0428L10.6563 2.88347ZM9.71176 3.35232L10.3049 3.96116L9.71176 3.35232ZM8.96075 4.13013L8.33058 3.55971L8.96075 4.13013ZM7.95289 5.92543L8.80255 5.90127L7.95289 5.92543ZM7.89114 7.98642L7.1521 8.40632L7.89114 7.98642ZM8.45207 10.7104L9.28441 10.5381L8.45207 10.7104ZM11.0044 10.7441L10.646 9.97338L11.0044 10.7441ZM12.0074 10.8114L11.5706 11.5405L12.0074 10.8114ZM15.0164 11.4078L14.9181 12.2521L15.0164 11.4078ZM15.759 11.2331L16.3498 11.8441L15.759 11.2331ZM6.5015 21.0224L6.46353 21.8716C6.69944 21.8821 6.94319 21.9331 7.1977 22.0316L7.5045 21.2389L7.8113 20.4462C7.39714 20.2859 6.97223 20.1926 6.53947 20.1733L6.5015 21.0224ZM7.5045 21.2389L7.1977 22.0316C7.71579 22.2322 8.25631 22.2458 8.783 22.0653L8.5075 21.2612L8.232 20.4571C8.09002 20.5058 7.96188 20.5045 7.8113 20.4462L7.5045 21.2389ZM8.5075 21.2612L8.783 22.0653C9.14034 21.9429 9.49663 21.8037 9.85184 21.648L9.5105 20.8695L9.16916 20.091C8.8557 20.2285 8.54332 20.3504 8.232 20.4571L8.5075 21.2612ZM9.5105 20.8695L9.85184 21.648C10.1023 21.5381 10.3385 21.4818 10.5637 21.4684L10.5135 20.6199L10.4633 19.7714C10.0199 19.7976 9.58732 19.9077 9.16916 20.091L9.5105 20.8695ZM10.5135 20.6199L10.5637 21.4684C10.8437 21.4519 11.1239 21.4621 11.4049 21.4993L11.5165 20.6566L11.6281 19.814C11.2405 19.7627 10.852 19.7484 10.4633 19.7714L10.5135 20.6199ZM11.5165 20.6566L11.4049 21.4993C11.6601 21.533 11.9222 21.6039 12.1927 21.7165L12.5195 20.9319L12.8463 20.1472C12.4481 19.9814 12.0416 19.8687 11.6281 19.814L11.5165 20.6566ZM12.5195 20.9319L12.1927 21.7165C12.5849 21.8798 12.9841 21.9955 13.3893 22.0598L13.5225 21.2203L13.6557 20.3808C13.3923 20.339 13.1228 20.2623 12.8463 20.1472L12.5195 20.9319ZM13.5225 21.2203L13.3893 22.0598C13.9546 22.1494 14.4914 22.0103 14.9695 21.7174L14.5255 20.9926L14.0815 20.2678C13.8909 20.3846 13.759 20.3972 13.6557 20.3808L13.5225 21.2203ZM14.5255 20.9926L14.9695 21.7174C15.0408 21.6738 15.0789 21.6689 15.0899 21.6681C15.0985 21.6674 15.1215 21.6664 15.1706 21.6892L15.5285 20.9182L15.8864 20.1472C15.2749 19.8634 14.6401 19.9256 14.0815 20.2678L14.5255 20.9926ZM15.5285 20.9182L15.1706 21.6892C15.648 21.9108 16.1576 21.9916 16.6776 21.9009L16.5315 21.0635L16.3854 20.2262C16.2367 20.2521 16.0776 20.236 15.8864 20.1472L15.5285 20.9182ZM16.5315 21.0635L16.6776 21.9009C17.0013 21.8444 17.3243 21.7944 17.6467 21.7509L17.5331 20.9085L17.4194 20.0662C17.0751 20.1126 16.7304 20.1659 16.3854 20.2262L16.5315 21.0635ZM17.5331 20.9085L17.6467 21.7509C17.9082 21.7156 18.1877 21.7117 18.4874 21.7429L18.5753 20.8974L18.6632 20.052C18.24 20.008 17.8247 20.0115 17.4194 20.0662L17.5331 20.9085ZM18.5753 20.8974L18.4874 21.7429C19.0795 21.8044 19.6275 21.6338 20.0945 21.2757L19.5774 20.6011L19.0602 19.9266C18.914 20.0387 18.7938 20.0656 18.6632 20.052L18.5753 20.8974ZM19.5774 20.6011L20.0945 21.2757C20.3506 21.0794 20.5634 20.8242 20.6899 20.5047C20.8162 20.1857 20.836 19.8546 20.7861 19.5372L19.9464 19.669L19.1067 19.8009C19.1123 19.8367 19.1118 19.8585 19.1109 19.8688C19.11 19.8784 19.1086 19.8806 19.1093 19.8789C19.11 19.8771 19.1099 19.8787 19.1051 19.8848C19.0998 19.8915 19.0869 19.9061 19.0602 19.9266L19.5774 20.6011ZM19.9464 19.669L20.7861 19.5372C20.7395 19.2402 20.7482 18.9893 20.7956 18.7751L19.9656 18.5916L19.1357 18.408C19.0362 18.858 19.0321 19.3253 19.1067 19.8009L19.9464 19.669ZM19.9656 18.5916L20.7956 18.7751C20.9093 18.261 20.8534 17.7499 20.6516 17.2652L19.8669 17.592L19.0822 17.9188C19.1589 18.1028 19.1688 18.2581 19.1357 18.408L19.9656 18.5916ZM19.8669 17.592L20.6516 17.2652C20.645 17.2494 20.6445 17.2428 20.6446 17.2439C20.6448 17.2454 20.6445 17.247 20.6448 17.2458C20.6451 17.2439 20.6533 17.2009 20.7209 17.1152L20.0533 16.589L19.3857 16.0629C18.9715 16.5885 18.8015 17.2449 19.0822 17.9188L19.8669 17.592ZM20.0533 16.589L20.7209 17.1152C21.1256 16.6016 21.308 15.9618 21.0616 15.2924L20.2639 15.586L19.4663 15.8796C19.4719 15.8948 19.4725 15.9023 19.4727 15.9037C19.4727 15.9049 19.4729 15.9071 19.4717 15.9128C19.4694 15.9241 19.4559 15.9739 19.3857 16.0629L20.0533 16.589ZM20.2639 15.586L21.0616 15.2924C20.9551 15.003 20.8776 14.7174 20.8277 14.4351L19.9907 14.583L19.1537 14.7309C19.222 15.1173 19.3266 15.5003 19.4663 15.8796L20.2639 15.586ZM19.9907 14.583L20.8277 14.4351C20.7777 14.1521 20.7546 13.8706 20.7579 13.59L19.908 13.58L19.058 13.5701C19.0535 13.9581 19.0855 14.3453 19.1537 14.7309L19.9907 14.583ZM19.908 13.58L20.7579 13.59C20.7618 13.2549 20.7654 12.9143 20.7686 12.568L19.9186 12.5601L19.0687 12.5522C19.0655 12.8972 19.0619 13.2364 19.058 13.5701L19.908 13.58ZM19.9186 12.5601L20.7686 12.568C20.7715 12.2528 20.6952 11.9211 20.4846 11.6295C20.2758 11.3404 19.9879 11.1641 19.6961 11.0626L19.4169 11.8654L19.1376 12.6683C19.1613 12.6765 19.1642 12.6806 19.1549 12.6742C19.1444 12.6669 19.1254 12.6511 19.1066 12.6249C19.0875 12.5985 19.0767 12.5729 19.0715 12.5546C19.0667 12.5378 19.0688 12.535 19.0687 12.5522L19.9186 12.5601ZM19.4169 11.8654L19.6961 11.0626C19.5097 10.9978 19.3586 10.8922 19.2297 10.7331L18.5692 11.2681L17.9087 11.803C18.2346 12.2055 18.6487 12.4982 19.1376 12.6683L19.4169 11.8654ZM18.5692 11.2681L19.2297 10.7331C19.0246 10.4798 18.7387 10.2611 18.3643 10.1807C17.9941 10.1012 17.6465 10.1804 17.3581 10.3153L17.718 11.0853L18.078 11.8553C18.1296 11.8312 18.0939 11.8614 18.0074 11.8428C17.9672 11.8342 17.9357 11.8187 17.9157 11.8053C17.8974 11.7931 17.8964 11.7879 17.9087 11.803L18.5692 11.2681ZM17.718 11.0853L17.3581 10.3153C17.1768 10.4001 17.0376 10.4068 16.909 10.3752L16.7065 11.2008L16.5041 12.0263C17.0442 12.1587 17.5793 12.0885 18.078 11.8553L17.718 11.0853ZM16.7065 11.2008L16.909 10.3752C16.6148 10.3031 16.3183 10.2077 16.0191 10.0881L15.7035 10.8773L15.388 11.6666C15.7575 11.8143 16.1296 11.9345 16.5041 12.0263L16.7065 11.2008ZM15.7035 10.8773L16.0191 10.0881C15.4892 9.87624 14.9354 9.86896 14.4006 10.0706L14.7005 10.8659L15.0004 11.6613C15.1344 11.6108 15.2492 11.6111 15.388 11.6666L15.7035 10.8773ZM14.7005 10.8659L14.4006 10.0706C14.2569 10.1248 14.1332 10.125 13.9912 10.0727L13.6975 10.8704L13.4039 11.668C13.9305 11.8619 14.4756 11.8592 15.0004 11.6613L14.7005 10.8659ZM13.6975 10.8704L13.9912 10.0727C13.4215 9.86298 12.8411 9.91257 12.3084 10.1842L12.6945 10.9414L13.0806 11.6987C13.2166 11.6294 13.3049 11.6316 13.4039 11.668L13.6975 10.8704ZM12.6945 10.9414L12.3084 10.1842C12.1193 10.2806 11.9702 10.2962 11.836 10.273L11.6915 11.1107L11.5471 11.9483C12.0816 12.0405 12.6011 11.9432 13.0806 11.6987L12.6945 10.9414ZM11.6915 11.1107L11.836 10.273C11.4624 10.2086 11.0879 10.1709 10.7127 10.1603L10.6885 11.0099L10.6644 11.8596C10.9578 11.8679 11.252 11.8974 11.5471 11.9483L11.6915 11.1107ZM10.6885 11.0099L10.7127 10.1603C10.3211 10.1492 9.93029 10.1774 9.54112 10.2445L9.68554 11.0822L9.82996 11.9198C10.1095 11.8716 10.3873 11.8517 10.6644 11.8596L10.6885 11.0099ZM9.68554 11.0822L9.54112 10.2445C9.31689 10.2832 9.09421 10.278 8.86685 10.2275L8.68254 11.0573L8.49824 11.887C8.93954 11.985 9.38553 11.9964 9.82996 11.9198L9.68554 11.0822ZM8.68254 11.0573L8.86685 10.2275C8.36667 10.1164 7.86646 10.1559 7.38562 10.3331L7.67954 11.1307L7.97346 11.9282C8.16129 11.859 8.32974 11.8496 8.49824 11.887L8.68254 11.0573ZM7.67954 11.1307L7.38562 10.3331C7.18454 10.4072 7.00178 10.422 6.8225 10.3907L6.67654 11.2281L6.53058 12.0655C7.01997 12.1508 7.50587 12.1006 7.97346 11.9282L7.67954 11.1307ZM6.67654 11.2281L6.8225 10.3907C6.46491 10.3284 6.10253 10.2805 5.73546 10.2471L5.65837 11.0936L5.58128 11.9401C5.9031 11.9694 6.2195 12.0112 6.53058 12.0655L6.67654 11.2281ZM5.65837 11.0936L5.73546 10.2471C5.12439 10.1915 4.57255 10.407 4.16435 10.8688L4.8012 11.4317L5.43805 11.9947C5.47314 11.955 5.49341 11.947 5.49765 11.9453C5.50217 11.9435 5.52447 11.9349 5.58128 11.9401L5.65837 11.0936ZM4.8012 11.4317L4.16435 10.8688C3.82836 11.2489 3.61723 11.7022 3.57563 12.2145L4.42284 12.2833L5.27005 12.3521C5.27895 12.2425 5.32006 12.1282 5.43805 11.9947L4.8012 11.4317ZM4.42284 12.2833L3.57563 12.2145C3.54868 12.5463 3.53393 12.8802 3.53133 13.216L4.3813 13.2225L5.23128 13.2291C5.23356 12.9344 5.2465 12.6421 5.27005 12.3521L4.42284 12.2833ZM4.3813 13.2225L3.53133 13.216C3.53081 13.283 3.50313 13.4287 3.3131 13.6668L3.97755 14.1969L4.64201 14.727C4.98544 14.2966 5.22692 13.7926 5.23128 13.2291L4.3813 13.2225ZM3.97755 14.1969L3.3131 13.6668C3.10145 13.9321 2.93807 14.2598 2.91279 14.6424C2.88713 15.0308 3.01016 15.3802 3.20371 15.6709L3.91129 15.1999L4.61886 14.7289C4.60292 14.705 4.60205 14.6971 4.60444 14.7051C4.60563 14.7091 4.6073 14.7159 4.60838 14.7252C4.60947 14.7345 4.60976 14.7445 4.60909 14.7545C4.60843 14.7645 4.60696 14.7726 4.60551 14.7784C4.60409 14.7842 4.60301 14.7863 4.6037 14.7847C4.60525 14.7811 4.61439 14.7617 4.64201 14.727L3.97755 14.1969ZM3.91129 15.1999L3.20371 15.6709C3.37177 15.9234 3.45722 16.1462 3.48965 16.3419L4.32822 16.2029L5.16678 16.064C5.08841 15.591 4.8959 15.1451 4.61886 14.7289L3.91129 15.1999ZM4.32822 16.2029L3.48965 16.3419C3.52566 16.5592 3.51705 16.7758 3.46103 16.999L4.28546 17.2059L5.10989 17.4128C5.22169 16.9674 5.24158 16.5154 5.16678 16.064L4.32822 16.2029ZM4.28546 17.2059L3.46103 16.999C3.39226 17.273 3.29021 17.5529 3.1519 17.839L3.91719 18.2089L4.68247 18.5789C4.86737 18.1963 5.01084 17.8075 5.10989 17.4128L4.28546 17.2059ZM3.91719 18.2089L3.1519 17.839C2.89313 18.3744 2.8573 18.9503 3.06421 19.5124L3.86189 19.2188L4.65956 18.9251C4.61699 18.8095 4.61803 18.7122 4.68247 18.5789L3.91719 18.2089ZM3.86189 19.2188L3.06421 19.5124C3.21169 19.913 3.40194 20.2874 3.63616 20.633L4.33977 20.1561L5.04338 19.6792C4.88991 19.4527 4.76157 19.2023 4.65956 18.9251L3.86189 19.2188ZM4.33977 20.1561L3.63616 20.633C3.8821 20.9958 4.18609 21.3177 4.5408 21.6003L5.07041 20.9355L5.60002 20.2706C5.36823 20.086 5.18512 19.8883 5.04338 19.6792L4.33977 20.1561ZM5.07041 20.9355L4.5408 21.6003C4.72886 21.7501 4.95622 21.8976 5.21504 21.976C5.4923 22.06 5.84712 22.0734 6.18363 21.877L5.75514 21.1429L5.32665 20.4088C5.40368 20.3639 5.48687 20.3406 5.56392 20.3354C5.63669 20.3306 5.68748 20.3428 5.70801 20.349C5.72784 20.355 5.72743 20.3578 5.70492 20.3447C5.6831 20.3321 5.64828 20.3091 5.60002 20.2706L5.07041 20.9355ZM5.75514 21.1429L6.18363 21.877C6.15029 21.8965 6.14612 21.8891 6.19964 21.8805C6.25158 21.8721 6.33674 21.8659 6.46353 21.8716L6.5015 21.0224L6.53947 20.1733C6.1516 20.1559 5.70284 20.1892 5.32665 20.4088L5.75514 21.1429ZM16.1699 10.4985L16.9749 10.7712C17.165 10.21 17.1125 9.64222 16.8532 9.11842L16.0915 9.4955L15.3297 9.87258C15.4014 10.0174 15.4012 10.1184 15.3648 10.2258L16.1699 10.4985ZM16.0915 9.4955L16.8532 9.11842C16.7299 8.86918 16.6664 8.63816 16.6483 8.42165L15.8013 8.4925L14.9542 8.56335C14.992 9.01551 15.1221 9.45315 15.3297 9.87258L16.0915 9.4955ZM15.8013 8.4925L16.6483 8.42165C16.6317 8.2231 16.6597 8.01649 16.7452 7.79309L15.9513 7.48928L15.1575 7.18546C14.987 7.63103 14.9149 8.09323 14.9542 8.56335L15.8013 8.4925ZM15.9513 7.48928L16.7452 7.79309C16.9844 7.16803 16.874 6.54294 16.4735 6.02516L15.8012 6.54524L15.1289 7.06532C15.1503 7.09309 15.1608 7.11246 15.1656 7.12298C15.168 7.12826 15.1692 7.13175 15.1697 7.13353C15.17 7.13446 15.1702 7.13508 15.1702 7.13542C15.1703 7.13576 15.1703 7.13591 15.1704 7.13592C15.1704 7.13592 15.1703 7.13589 15.1703 7.13584C15.1703 7.1358 15.1703 7.13586 15.1703 7.13606C15.1704 7.13636 15.1704 7.13785 15.17 7.14078C15.1693 7.14639 15.1669 7.16087 15.1575 7.18546L15.9513 7.48928ZM15.8012 6.54524L16.4735 6.02516C16.4513 5.99651 16.4471 5.97986 16.4452 5.96237C16.4425 5.93807 16.4419 5.8744 16.4834 5.75724L15.6823 5.4732L14.8811 5.18916C14.6575 5.82001 14.6873 6.49455 15.1289 7.06532L15.8012 6.54524ZM15.6823 5.4732L16.4834 5.75724C16.5964 5.43847 16.6592 5.03477 16.4992 4.63069C16.3327 4.20984 15.9946 3.96181 15.6632 3.82663L15.3421 4.61368L15.0211 5.40073C15.0447 5.41035 15.0329 5.40949 15.0063 5.38562C14.9765 5.35878 14.9417 5.31488 14.9185 5.25623C14.872 5.13865 14.917 5.08811 14.8811 5.18916L15.6823 5.4732ZM15.3421 4.61368L15.6632 3.82663C15.3701 3.70711 15.1764 3.57295 15.0499 3.44253L14.4397 4.03426L13.8295 4.626C14.1551 4.96174 14.563 5.21386 15.0211 5.40073L15.3421 4.61368ZM14.4397 4.03426L15.0499 3.44253C14.7503 3.13358 14.4023 2.88775 14.0107 2.70749L13.6553 3.47962L13.2999 4.25175C13.5021 4.34485 13.6771 4.46878 13.8295 4.626L14.4397 4.03426ZM13.6553 3.47962L14.0107 2.70749C13.7879 2.60495 13.5432 2.45283 13.2773 2.24014L12.7464 2.90398L12.2155 3.56782C12.5675 3.8493 12.9288 4.08095 13.2999 4.25175L13.6553 3.47962ZM12.7464 2.90398L13.2773 2.24014C12.7776 1.84051 12.1743 1.68449 11.5381 1.84265L11.7432 2.66754L11.9483 3.49243C12.0318 3.47168 12.0973 3.47328 12.2155 3.56782L12.7464 2.90398ZM11.7432 2.66754L11.5381 1.84265C11.2044 1.92563 10.8686 1.99232 10.5307 2.0428L10.6563 2.88347L10.7819 3.72414C11.1735 3.66563 11.5624 3.58838 11.9483 3.49243L11.7432 2.66754ZM10.6563 2.88347L10.5307 2.0428C9.98911 2.1237 9.51084 2.36138 9.11862 2.74349L9.71176 3.35232L10.3049 3.96116C10.4425 3.82711 10.5939 3.75222 10.7819 3.72414L10.6563 2.88347ZM9.71176 3.35232L9.11862 2.74349C8.84163 3.01333 8.57889 3.28539 8.33058 3.55971L8.96075 4.13013L9.59092 4.70056C9.81414 4.45396 10.0521 4.20748 10.3049 3.96116L9.71176 3.35232ZM8.96075 4.13013L8.33058 3.55971C8.08086 3.83557 7.83837 4.1238 7.60302 4.42426L8.27219 4.9484L8.94135 5.47254C9.15256 5.20289 9.3691 4.94561 9.59092 4.70056L8.96075 4.13013ZM8.27219 4.9484L7.60302 4.42426C7.25587 4.86747 7.08726 5.38767 7.10324 5.94958L7.95289 5.92543L8.80255 5.90127C8.7977 5.73059 8.84195 5.59943 8.94135 5.47254L8.27219 4.9484ZM7.95289 5.92543L7.10324 5.94958C7.11071 6.21262 7.07139 6.4584 6.98727 6.6929L7.78736 6.9799L8.58744 7.26689C8.74486 6.82803 8.8159 6.37082 8.80255 5.90127L7.95289 5.92543ZM7.78736 6.9799L6.98727 6.6929C6.77596 7.28199 6.85013 7.87485 7.1521 8.40632L7.89114 7.98642L8.63018 7.56652C8.55223 7.42932 8.55721 7.35117 8.58744 7.26689L7.78736 6.9799ZM7.89114 7.98642L7.1521 8.40632C7.16905 8.43616 7.17606 8.45602 7.17895 8.46634C7.18167 8.47604 7.18158 8.48018 7.18158 8.48094C7.18157 8.48172 7.18157 8.48641 7.1784 8.49711C7.17505 8.50843 7.16722 8.52943 7.14909 8.56043L7.8829 8.98942L8.61671 9.4184C8.96383 8.82461 8.97125 8.16681 8.63018 7.56652L7.89114 7.98642ZM7.8829 8.98942L7.14909 8.56043C6.97309 8.8615 6.87738 9.21152 6.92079 9.58822C6.96322 9.95638 7.12936 10.2715 7.3396 10.5294L7.99847 9.99242L8.65735 9.4554C8.62643 9.41747 8.6133 9.39312 8.60867 9.38318C8.60454 9.37429 8.60788 9.37853 8.60962 9.39362C8.61043 9.4007 8.61068 9.40842 8.61021 9.41622C8.60975 9.42399 8.60868 9.4302 8.6077 9.43437C8.60566 9.44305 8.60523 9.43803 8.61671 9.4184L7.8829 8.98942ZM7.99847 9.99242L7.3396 10.5294C7.46419 10.6823 7.54706 10.7966 7.59763 10.8766C7.62261 10.9162 7.63435 10.939 7.63822 10.9472C7.64356 10.9585 7.63039 10.9343 7.61974 10.8828L8.45207 10.7104L9.28441 10.5381C9.23752 10.3117 9.12429 10.1103 9.03487 9.96871C8.93424 9.80942 8.80526 9.63687 8.65735 9.4554L7.99847 9.99242ZM8.45207 10.7104L7.61974 10.8828C7.66419 11.0975 7.78233 11.3173 7.99539 11.4759C8.19191 11.6223 8.40084 11.6656 8.54818 11.6765C8.82055 11.6967 9.08667 11.6208 9.27987 11.553L8.99842 10.751L8.71696 9.94894C8.65879 9.96936 8.62401 9.97804 8.6087 9.98112C8.58959 9.98496 8.61667 9.97693 8.67399 9.98118C8.73027 9.98536 8.86716 10.0056 9.01069 10.1124C9.17074 10.2316 9.25491 10.3956 9.28441 10.5381L8.45207 10.7104ZM8.99842 10.751L9.27987 11.553C9.41636 11.5051 9.53826 11.5062 9.68497 11.5651L10.0014 10.7762L10.3179 9.98727C9.79591 9.7779 9.24914 9.76219 8.71696 9.94894L8.99842 10.751ZM10.0014 10.7762L9.68497 11.5651C10.2429 11.7889 10.8214 11.7667 11.3628 11.5149L11.0044 10.7441L10.646 9.97338C10.5188 10.0325 10.4286 10.0317 10.3179 9.98727L10.0014 10.7762ZM11.0044 10.7441L11.3628 11.5149C11.4136 11.4912 11.4386 11.4917 11.4491 11.4924C11.4616 11.4933 11.5 11.4982 11.5706 11.5405L12.0074 10.8114L12.4443 10.0822C11.8845 9.74686 11.2528 9.6912 10.646 9.97338L11.0044 10.7441ZM12.0074 10.8114L11.5706 11.5405C11.9864 11.7897 12.4262 11.9588 12.8871 12.0264L13.0104 11.1853L13.1337 10.3443C12.9259 10.3139 12.6971 10.2337 12.4443 10.0822L12.0074 10.8114ZM13.0104 11.1853L12.8871 12.0264C13.2369 12.0776 13.5869 12.1191 13.937 12.1507L14.0134 11.3041L14.0898 10.4576C13.7713 10.4288 13.4526 10.3911 13.1337 10.3443L13.0104 11.1853ZM14.0134 11.3041L13.937 12.1507C14.264 12.1802 14.5911 12.214 14.9181 12.2521L15.0164 11.4078L15.1147 10.5635C14.7731 10.5237 14.4315 10.4884 14.0898 10.4576L14.0134 11.3041ZM15.0164 11.4078L14.9181 12.2521C15.3751 12.3053 15.9288 12.2512 16.3498 11.8441L15.759 11.2331L15.1681 10.622C15.1881 10.6026 15.2092 10.5881 15.228 10.5783C15.2463 10.5688 15.2578 10.566 15.2581 10.5659C15.2582 10.5659 15.2555 10.5665 15.2496 10.5673C15.2437 10.568 15.2348 10.5688 15.2227 10.5692C15.1981 10.57 15.1627 10.5691 15.1147 10.5635L15.0164 11.4078ZM15.759 11.2331L16.3498 11.8441C16.6483 11.5555 16.8409 11.167 16.9749 10.7712L16.1699 10.4985L15.3648 10.2258C15.2724 10.4987 15.191 10.5999 15.1681 10.622L15.759 11.2331Z" fill="#D8F789" />
<path xmlns="http://www.w3.org/2000/svg" id="Vector_2" d="M12 15V17" stroke="#D8F789" stroke-width="1.7" stroke-linecap="round" />

</svg>