<svg width="24" height="24" viewBox="0 0 24 24" fill="none" xmlns="http://www.w3.org/2000/svg">
<path xmlns="http://www.w3.org/2000/svg" id="Vector" d="M12.4901 21.3743L12.7013 22.1977L12.4901 21.3743ZM17.2205 19.9553L17.675 20.6736L17.2205 19.9553ZM18.5824 18.4928L18.0654 17.8181L18.5824 18.4928ZM19.5128 17.9739L19.8327 18.7614L19.5128 17.9739ZM20.2553 16.1051L19.6152 15.5459L20.2553 16.1051ZM21.0376 14.3016L21.6367 14.9045L21.0376 14.3016ZM21.2916 10.3698L22.0226 10.8035L21.2916 10.3698ZM21.0834 9.44192L20.6098 10.1478L21.0834 9.44192ZM20.251 7.62754L20.8755 7.05086L20.251 7.62754ZM19.9081 6.64155L19.0581 6.63696L19.9081 6.64155ZM19.2481 5.93576L19.1281 6.77723L19.2481 5.93576ZM18.3243 5.41602L17.5996 5.86019L18.3243 5.41602ZM17.7072 4.64841L18.296 4.03538L17.7072 4.64841ZM8.40847 3.39245L8.76156 4.16564V4.16564L8.40847 3.39245ZM6.58768 4.15848L5.76435 3.94722L6.58768 4.15848ZM5.78372 4.83085L5.82044 5.68005L5.78372 4.83085ZM4.83529 5.27947L4.15075 4.77557L4.83529 5.27947ZM4.51882 6.31787L5.36877 6.3269L4.51882 6.31787ZM2.55118 10.868L1.72745 10.6583L2.55118 10.868ZM2.36853 11.8676L1.52393 11.772L2.36853 11.8676ZM2.65663 13.849L3.2699 13.2604L2.65663 13.849ZM4.9184 18.2742L4.2873 18.8436L4.9184 18.2742ZM7.27665 20.0852L7.77667 19.3978L7.27665 20.0852ZM8.12189 20.6087L7.72897 21.3624L8.12189 20.6087ZM9.06227 20.9153L9.19011 20.075L9.06227 20.9153ZM11.7525 21.2288L11.5801 22.0611L11.7525 21.2288ZM12.4901 21.3743L12.7013 22.1977C12.8564 22.1579 13.0361 22.1581 13.2608 22.2295L13.518 21.4193L13.7751 20.6091C13.2828 20.4529 12.7772 20.4231 12.2789 20.551L12.4901 21.3743ZM13.518 21.4193L13.2608 22.2295C13.8919 22.4298 14.5172 22.3122 15.0283 21.8841L14.4824 21.2325L13.9365 20.581C13.8899 20.62 13.8676 20.6232 13.8664 20.6234C13.8646 20.6238 13.8393 20.6295 13.7751 20.6091L13.518 21.4193ZM14.4824 21.2325L15.0283 21.8841C15.2875 21.6669 15.5396 21.4815 15.7845 21.326L15.3288 20.6085L14.8731 19.891C14.5583 20.0909 14.2462 20.3215 13.9365 20.581L14.4824 21.2325ZM15.3288 20.6085L15.7845 21.326C15.9489 21.2216 16.1385 21.1534 16.367 21.1277L16.272 20.283L16.1771 19.4383C15.7076 19.4911 15.2684 19.6399 14.8731 19.891L15.3288 20.6085ZM16.272 20.283L16.367 21.1277C16.8376 21.0748 17.2778 20.9249 17.675 20.6736L17.2205 19.9553L16.766 19.237C16.5967 19.3442 16.4045 19.4128 16.1771 19.4383L16.272 20.283ZM17.2205 19.9553L17.675 20.6736C18.0731 20.4217 18.3967 20.0871 18.6437 19.6825L17.9181 19.2396L17.1926 18.7968C17.0759 18.988 16.9345 19.1304 16.766 19.237L17.2205 19.9553ZM17.9181 19.2396L18.6437 19.6825C18.7742 19.4686 18.9266 19.2999 19.0994 19.1675L18.5824 18.4928L18.0654 17.8181C17.7161 18.0858 17.4257 18.415 17.1926 18.7968L17.9181 19.2396ZM18.5824 18.4928L19.0994 19.1675C19.2904 19.0211 19.5317 18.8837 19.8327 18.7614L19.5128 17.9739L19.193 17.1864C18.7755 17.3559 18.3964 17.5644 18.0654 17.8181L18.5824 18.4928ZM19.5128 17.9739L19.8327 18.7614C20.1563 18.63 20.4534 18.4065 20.6439 18.064C20.8298 17.7297 20.867 17.3666 20.8336 17.0347L19.9879 17.1197L19.1421 17.2047C19.1467 17.2499 19.1437 17.2712 19.1433 17.2742C19.143 17.2757 19.1455 17.2606 19.1582 17.2378C19.1642 17.2269 19.1715 17.2163 19.1795 17.2067C19.1875 17.1971 19.1951 17.1899 19.201 17.185C19.2128 17.1751 19.2138 17.1779 19.193 17.1864L19.5128 17.9739ZM19.9879 17.1197L20.8336 17.0347C20.8079 16.7785 20.8684 16.6953 20.8954 16.6644L20.2553 16.1051L19.6152 15.5459C19.2005 16.0206 19.0827 16.6138 19.1421 17.2047L19.9879 17.1197ZM20.2553 16.1051L20.8954 16.6644C21.2452 16.264 21.435 15.7826 21.4578 15.2526L20.6086 15.2159L19.7594 15.1793C19.7529 15.3292 19.7072 15.4406 19.6152 15.5459L20.2553 16.1051ZM20.6086 15.2159L21.4578 15.2526C21.4621 15.153 21.4967 15.0436 21.6367 14.9045L21.0376 14.3016L20.4385 13.6986C20.0358 14.0987 19.7845 14.5989 19.7594 15.1793L20.6086 15.2159ZM21.0376 14.3016L21.6367 14.9045C22.0485 14.4953 22.2954 13.9774 22.2894 13.3785L21.4395 13.387L20.5895 13.3954C20.5903 13.4768 20.5693 13.5686 20.4385 13.6986L21.0376 14.3016ZM21.4395 13.387L22.2894 13.3785C22.2858 13.009 22.263 12.6429 22.2211 12.2804L21.3767 12.3781L20.5323 12.4759C20.5673 12.7781 20.5864 13.0846 20.5895 13.3954L21.4395 13.387ZM21.3767 12.3781L22.2211 12.2804C22.1744 11.8768 22.0777 11.4838 21.932 11.1028L21.1381 11.4065L20.3442 11.7101C20.4397 11.9598 20.5021 12.2145 20.5323 12.4759L21.3767 12.3781ZM21.1381 11.4065L21.932 11.1028C21.9302 11.0981 21.8898 11.0273 22.0226 10.8035L21.2916 10.3698L20.5606 9.93604C20.2475 10.4638 20.1047 11.0842 20.3442 11.7101L21.1381 11.4065ZM21.2916 10.3698L22.0226 10.8035C22.2024 10.5005 22.3339 10.1052 22.2361 9.6698C22.1383 9.23389 21.85 8.93268 21.5569 8.73607L21.0834 9.44192L20.6098 10.1478C20.643 10.1701 20.6431 10.1764 20.63 10.1597C20.6147 10.1401 20.5904 10.1 20.5774 10.0421C20.5644 9.9843 20.5693 9.93805 20.5746 9.91448C20.5791 9.89452 20.5814 9.90099 20.5606 9.93604L21.2916 10.3698ZM21.0834 9.44192L21.5569 8.73607C21.4576 8.6694 21.4277 8.6238 21.4217 8.61323C21.4188 8.6081 21.4186 8.60643 21.4185 8.60633C21.4185 8.60599 21.4169 8.59983 21.4177 8.58474L20.5689 8.54009L19.7201 8.49545C19.6819 9.22047 20.0616 9.77998 20.6098 10.1478L21.0834 9.44192ZM20.5689 8.54009L21.4177 8.58474C21.4479 8.0115 21.2711 7.47926 20.8755 7.05086L20.251 7.62754L19.6266 8.20421C19.6925 8.27563 19.7276 8.35176 19.7201 8.49545L20.5689 8.54009ZM20.251 7.62754L20.8755 7.05086C20.8187 6.98944 20.7568 6.88334 20.7581 6.64613L19.9081 6.64155L19.0581 6.63696C19.055 7.21459 19.2217 7.76582 19.6266 8.20421L20.251 7.62754ZM19.9081 6.64155L20.7581 6.64613C20.7601 6.28527 20.6604 5.89421 20.3656 5.57898C20.0803 5.2739 19.7078 5.14275 19.3682 5.09429L19.2481 5.93576L19.1281 6.77723C19.2306 6.79187 19.1892 6.80991 19.1239 6.74009C19.092 6.70591 19.0725 6.66901 19.0631 6.64108C19.0547 6.6162 19.0583 6.61106 19.0581 6.63696L19.9081 6.64155ZM19.2481 5.93576L19.3682 5.09429C19.225 5.07384 19.1438 5.04102 19.1023 5.01769C19.0664 4.99746 19.0554 4.98224 19.0491 4.97185L18.3243 5.41602L17.5996 5.86019C17.9474 6.42757 18.5268 6.69143 19.1281 6.77723L19.2481 5.93576ZM18.3243 5.41602L19.0491 4.97185C18.8378 4.62713 18.5865 4.31441 18.296 4.03538L17.7072 4.64841L17.1184 5.26143C17.3034 5.43912 17.4635 5.63815 17.5996 5.86019L18.3243 5.41602ZM17.7072 4.64841L18.296 4.03538C17.9986 3.74975 17.6655 3.51213 17.2987 3.3241L16.9109 4.08051L16.5232 4.83692C16.7426 4.94937 16.9403 5.09034 17.1184 5.26143L17.7072 4.64841ZM16.9109 4.08051L17.2987 3.3241C17.1572 3.2516 17.0049 3.12298 16.8527 2.89464L16.1454 3.36595L15.438 3.83726C15.7205 4.2612 16.0785 4.60896 16.5232 4.83692L16.9109 4.08051ZM16.1454 3.36595L16.8527 2.89464C16.4791 2.33392 15.9045 2.01963 15.2111 2.06362L15.2649 2.91192L15.3187 3.76021C15.3461 3.75847 15.3612 3.76062 15.3669 3.76172C15.3699 3.7623 15.3714 3.7628 15.3718 3.76295C15.3723 3.76309 15.3724 3.76317 15.3727 3.76331C15.373 3.76345 15.3742 3.76408 15.3764 3.76564C15.3786 3.76722 15.3824 3.77014 15.3877 3.77507C15.3982 3.78492 15.4158 3.80386 15.438 3.83726L16.1454 3.36595ZM15.2649 2.91192L15.2111 2.06362C14.9078 2.08286 14.6361 2.06445 14.3922 2.01473L14.2224 2.84759L14.0526 3.68045C14.4593 3.7634 14.8826 3.78787 15.3187 3.76021L15.2649 2.91192ZM14.2224 2.84759L14.3922 2.01473C14.2019 1.97592 13.9915 1.88638 13.7594 1.71979L13.2638 2.4104L12.7683 3.10101C13.1636 3.38466 13.5923 3.58658 14.0526 3.68045L14.2224 2.84759ZM13.2638 2.4104L13.7594 1.71979C13.482 1.52077 13.1482 1.39026 12.773 1.39419C12.4036 1.39807 12.0759 1.53132 11.802 1.71607L12.2773 2.42075L12.7526 3.12542C12.7878 3.10167 12.808 3.09369 12.8132 3.09188C12.8156 3.09103 12.8145 3.0916 12.8102 3.09239C12.8058 3.0932 12.7991 3.09401 12.7908 3.0941C12.7824 3.09419 12.774 3.09352 12.766 3.0922C12.758 3.09089 12.7521 3.08918 12.7485 3.08795C12.7412 3.08543 12.7479 3.08633 12.7683 3.10101L13.2638 2.4104ZM12.2773 2.42075L11.802 1.71607C11.5937 1.85656 11.4684 1.86225 11.3921 1.85026L11.2601 2.68994L11.128 3.52961C11.7201 3.62274 12.2729 3.44898 12.7526 3.12542L12.2773 2.42075ZM11.2601 2.68994L11.3921 1.85026C11.0361 1.79426 10.6732 1.75144 10.3035 1.72167L10.2353 2.56892L10.167 3.41618C10.4954 3.44263 10.8157 3.4805 11.128 3.52961L11.2601 2.68994ZM10.2353 2.56892L10.3035 1.72167C9.73695 1.67603 9.21151 1.83904 8.76441 2.18475L9.28435 2.85718L9.80429 3.52961C9.92698 3.43474 10.0355 3.40558 10.167 3.41618L10.2353 2.56892ZM9.28435 2.85718L8.76441 2.18475C8.52623 2.36892 8.28977 2.51222 8.05538 2.61926L8.40847 3.39245L8.76156 4.16564C9.12522 3.99957 9.47269 3.78602 9.80429 3.52961L9.28435 2.85718ZM8.40847 3.39245L8.05538 2.61926C7.91134 2.68504 7.70784 2.72779 7.41524 2.70754L7.35653 3.55551L7.29782 4.40348C7.80976 4.43892 8.30756 4.37297 8.76156 4.16564L8.40847 3.39245ZM7.35653 3.55551L7.41524 2.70754C7.05635 2.68269 6.66873 2.7572 6.33807 3.01652C6.01745 3.26797 5.84935 3.61597 5.76435 3.94722L6.58768 4.15848L7.41101 4.36975C7.4363 4.27116 7.4515 4.30375 7.38716 4.35421C7.35583 4.37878 7.323 4.3931 7.29833 4.39959C7.27629 4.40539 7.27308 4.40176 7.29782 4.40348L7.35653 3.55551ZM6.58768 4.15848L5.76435 3.94722C5.75278 3.9923 5.74201 4.01255 5.73962 4.01668C5.73853 4.01857 5.73938 4.01677 5.74285 4.01259C5.74638 4.00834 5.75165 4.00279 5.75866 3.99692C5.7657 3.99103 5.77297 3.9861 5.77977 3.98228C5.7865 3.9785 5.79123 3.97667 5.79287 3.9761C5.79607 3.97498 5.78324 3.98007 5.74699 3.98164L5.78372 4.83085L5.82044 5.68005C6.17783 5.6646 6.54278 5.5573 6.84927 5.30098C7.15271 5.04721 7.32363 4.71027 7.41101 4.36975L6.58768 4.15848ZM5.78372 4.83085L5.74699 3.98164C5.12736 4.00844 4.54378 4.24165 4.15075 4.77557L4.83529 5.27947L5.51982 5.78336C5.54001 5.75595 5.58871 5.69007 5.82044 5.68005L5.78372 4.83085ZM4.83529 5.27947L4.15075 4.77557C3.82038 5.22438 3.67478 5.75221 3.66886 6.30884L4.51882 6.31787L5.36877 6.3269C5.3716 6.06034 5.43698 5.89591 5.51982 5.78336L4.83529 5.27947ZM4.51882 6.31787L3.66886 6.30884C3.66567 6.60892 3.60327 6.78505 3.53843 6.88851L4.25869 7.33988L4.97894 7.79125C5.25219 7.35522 5.36321 6.85001 5.36877 6.3269L4.51882 6.31787ZM4.25869 7.33988L3.53843 6.88851C3.46159 7.01114 3.31865 7.15744 3.05558 7.30742L3.47658 8.04584L3.89758 8.78426C4.33924 8.53245 4.7177 8.20812 4.97894 7.79125L4.25869 7.33988ZM3.47658 8.04584L3.05558 7.30742C2.50151 7.62332 2.11111 8.1309 2.06338 8.81216L2.9113 8.87157L3.75922 8.93097C3.76146 8.89901 3.76794 8.88958 3.77238 8.8831C3.77987 8.87215 3.80945 8.8345 3.89758 8.78426L3.47658 8.04584ZM2.9113 8.87157L2.06338 8.81216C2.04132 9.12696 2.00074 9.42869 1.94228 9.71779L2.77542 9.88626L3.60856 10.0547C3.68229 9.69009 3.73229 9.31535 3.75922 8.93097L2.9113 8.87157ZM2.77542 9.88626L1.94228 9.71779C1.87902 10.0307 1.80742 10.3442 1.72745 10.6583L2.55118 10.868L3.37491 11.0777C3.46174 10.7366 3.53963 10.3956 3.60856 10.0547L2.77542 9.88626ZM2.55118 10.868L1.72745 10.6583C1.63443 11.0237 1.56662 11.395 1.52393 11.772L2.36853 11.8676L3.21313 11.9633C3.24719 11.6626 3.30114 11.3674 3.37491 11.0777L2.55118 10.868ZM2.36853 11.8676L1.52393 11.772C1.484 12.1246 1.45234 12.4813 1.42893 12.8421L2.27715 12.8971L3.12537 12.9522C3.14705 12.618 3.17632 12.2884 3.21313 11.9633L2.36853 11.8676ZM2.27715 12.8971L1.42893 12.8421C1.38867 13.4626 1.62868 14.0054 2.04336 14.4375L2.65663 13.849L3.2699 13.2604C3.1335 13.1183 3.12054 13.0266 3.12537 12.9522L2.27715 12.8971ZM2.65663 13.849L2.04336 14.4375C2.20657 14.6076 2.24907 14.7389 2.25607 14.8423L3.10413 14.7849L3.95219 14.7275C3.91358 14.1572 3.65775 13.6645 3.2699 13.2604L2.65663 13.849ZM3.10413 14.7849L2.25607 14.8423C2.29338 15.3935 2.52289 15.877 2.91146 16.2637L3.51108 15.6613L4.1107 15.0588C4.00228 14.9509 3.96049 14.8501 3.95219 14.7275L3.10413 14.7849ZM3.51108 15.6613L2.91146 16.2637C2.98762 16.3395 3.03496 16.4298 3.03544 16.5997L3.88544 16.5972L4.73543 16.5948C4.73377 16.0114 4.53153 15.4777 4.1107 15.0588L3.51108 15.6613ZM3.88544 16.5972L3.03544 16.5997C3.03705 17.1658 3.21931 17.6929 3.61598 18.1148L4.23528 17.5326L4.85457 16.9504C4.78694 16.8785 4.73597 16.7819 4.73543 16.5948L3.88544 16.5972ZM4.23528 17.5326L3.61598 18.1148C3.84422 18.3576 4.06799 18.6005 4.2873 18.8436L4.9184 18.2742L5.54951 17.7048C5.32228 17.453 5.09064 17.2015 4.85457 16.9504L4.23528 17.5326ZM4.9184 18.2742L4.2873 18.8436C4.57465 19.1621 4.90895 19.4263 5.28626 19.6348L5.69744 18.8909L6.10862 18.147C5.89374 18.0282 5.70869 17.8813 5.54951 17.7048L4.9184 18.2742ZM5.69744 18.8909L5.28626 19.6348C5.52817 19.7685 5.74582 19.923 5.94104 20.0978L6.50805 19.4645L7.07506 18.8313C6.78164 18.5685 6.45888 18.3406 6.10862 18.147L5.69744 18.8909ZM6.50805 19.4645L5.94104 20.0978C6.20699 20.3359 6.48557 20.5608 6.77663 20.7726L7.27665 20.0852L7.77667 19.3978C7.53157 19.2195 7.29775 19.0307 7.07506 18.8313L6.50805 19.4645ZM7.27665 20.0852L6.77663 20.7726C7.07888 20.9924 7.39644 21.1891 7.72897 21.3624L8.12189 20.6087L8.5148 19.855C8.2565 19.7203 8.01057 19.568 7.77667 19.3978L7.27665 20.0852ZM8.12189 20.6087L7.72897 21.3624C8.10792 21.56 8.51102 21.6913 8.93443 21.7557L9.06227 20.9153L9.19011 20.075C8.95051 20.0386 8.72668 19.9654 8.5148 19.855L8.12189 20.6087ZM9.06227 20.9153L8.93443 21.7557C9.29314 21.8102 9.65115 21.8469 10.0084 21.8655L10.0526 21.0167L10.0968 20.1678C9.79663 20.1522 9.49442 20.1213 9.19011 20.075L9.06227 20.9153ZM10.0526 21.0167L10.0084 21.8655C10.3127 21.8814 10.6121 21.9101 10.9067 21.9516L11.0253 21.1099L11.1439 20.2683C10.799 20.2197 10.4499 20.1862 10.0968 20.1678L10.0526 21.0167ZM11.0253 21.1099L10.9067 21.9516C11.2216 21.996 11.4424 22.0326 11.5801 22.0611L11.7525 21.2288L11.9248 20.3964C11.7325 20.3566 11.4685 20.314 11.1439 20.2683L11.0253 21.1099ZM11.7525 21.2288L11.5801 22.0611C11.622 22.0698 11.5633 22.065 11.4742 22.0069C11.4239 21.9741 11.3423 21.9104 11.2716 21.8016C11.1956 21.6845 11.15 21.5416 11.15 21.39H12H12.85C12.85 20.9714 12.5925 20.7065 12.4021 20.5825C12.2304 20.4707 12.048 20.4219 11.9248 20.3964L11.7525 21.2288ZM12 21.39H11.15C11.15 21.5679 11.2035 21.7607 11.3312 21.9285C11.451 22.086 11.5971 22.1704 11.7036 22.2148C11.8948 22.2945 12.0732 22.2931 12.1497 22.2906C12.3294 22.2849 12.5272 22.2423 12.7013 22.1977L12.4901 21.3743L12.2789 20.551C12.1263 20.5901 12.079 20.592 12.0953 20.5915C12.1044 20.5912 12.1306 20.5908 12.1682 20.5952C12.2029 20.5993 12.2728 20.6103 12.3577 20.6457C12.4438 20.6816 12.5746 20.7551 12.6842 20.8992C12.8016 21.0535 12.85 21.2304 12.85 21.39H12Z" fill="#D8F789" />
<path xmlns="http://www.w3.org/2000/svg" id="Vector_2" d="M8.3046 14.8116L7.70606 14.2081L8.3046 14.8116ZM9.04453 11.8866L9.70611 12.4203L9.04453 11.8866ZM15.9195 9.01316L15.0814 8.87138L15.9195 9.01316ZM15.8186 10.0366L16.6682 10.0631L15.8186 10.0366ZM15.2395 10.901L15.6803 11.6278L15.2395 10.901ZM14.25 13.8063L15.0624 14.0563L14.25 13.8063ZM12.5237 14.6817L13.2609 15.1049L12.5237 14.6817ZM10.6657 15.4513L10.4816 14.6215L10.6657 15.4513ZM9.71029 15.7568L9.37852 14.9743L9.71029 15.7568ZM8.67668 15.8273L8.49349 16.6573L8.67668 15.8273ZM7.94229 15.9618L8.66151 16.4148L7.94229 15.9618ZM7.84193 15.7147L8.68533 15.8204C8.70171 15.6898 8.75789 15.5592 8.90314 15.4151L8.3046 14.8116L7.70606 14.2081C7.31923 14.5917 7.06696 15.0632 6.99853 15.609L7.84193 15.7147ZM8.3046 14.8116L8.90314 15.4151C9.35106 14.9709 9.55734 14.3985 9.48422 13.7681L8.63988 13.8661L7.79554 13.964C7.80745 14.0667 7.79021 14.1246 7.70606 14.2081L8.3046 14.8116ZM8.63988 13.8661L9.48422 13.7681C9.44906 13.4651 9.45073 13.1831 9.48509 12.9199L8.64225 12.8098L7.79941 12.6998C7.74558 13.1119 7.74567 13.5341 7.79554 13.964L8.63988 13.8661ZM8.64225 12.8098L9.48509 12.9199C9.50793 12.745 9.57535 12.5824 9.70611 12.4203L9.04453 11.8866L8.38296 11.3529C8.06553 11.7464 7.86476 12.1992 7.79941 12.6998L8.64225 12.8098ZM9.04453 11.8866L9.70611 12.4203C9.98689 12.0722 10.2038 11.6912 10.3489 11.2784L9.54689 10.9967L8.74493 10.715C8.66832 10.9331 8.55036 11.1454 8.38296 11.3529L9.04453 11.8866ZM9.54689 10.9967L10.3489 11.2784C10.4524 10.9837 10.5755 10.6701 10.7189 10.3374L9.93836 10.0009L9.1578 9.66445C9.00088 10.0285 8.86304 10.3787 8.74493 10.715L9.54689 10.9967ZM9.93836 10.0009L10.7189 10.3374C10.7514 10.262 10.7785 10.237 10.785 10.2315C10.7891 10.2281 10.8007 10.2178 10.841 10.2098L10.6743 9.37627L10.5076 8.54277C9.8648 8.67132 9.40649 9.08753 9.1578 9.66445L9.93836 10.0009ZM10.6743 9.37627L10.841 10.2098C11.0607 10.1658 11.3063 10.1646 11.5859 10.22L11.7509 9.38613L11.9159 8.5523C11.4409 8.45831 10.9687 8.45055 10.5076 8.54277L10.6743 9.37627ZM11.7509 9.38613L11.5859 10.22C11.9241 10.2869 12.2805 10.2643 12.6187 10.1085C12.95 9.95587 13.1969 9.7062 13.3781 9.43013L12.6674 8.96383L11.9567 8.49754C11.9305 8.53751 11.9113 8.55751 11.9026 8.56555C11.8946 8.57287 11.896 8.56973 11.9073 8.56456C11.9191 8.55911 11.9309 8.55641 11.9385 8.55569C11.9449 8.55506 11.9386 8.5568 11.9159 8.5523L11.7509 9.38613ZM12.6674 8.96383L13.3781 9.43013C13.5044 9.23755 13.5774 9.24115 13.5956 9.23983L13.5341 8.39206L13.4725 7.5443C12.8025 7.59296 12.2977 7.97774 11.9567 8.49754L12.6674 8.96383ZM13.5341 8.39206L13.5956 9.23983C14.0998 9.20321 14.5645 9.03157 14.9743 8.73518L14.4761 8.04647L13.9779 7.35777C13.8198 7.47217 13.6565 7.53093 13.4725 7.5443L13.5341 8.39206ZM14.4761 8.04647L14.9743 8.73518C15.0419 8.68629 15.1226 8.65395 15.2947 8.6904L15.4708 7.85886L15.647 7.02731C15.0607 6.90311 14.4783 6.99585 13.9779 7.35777L14.4761 8.04647ZM15.4708 7.85886L15.2947 8.6904C15.3597 8.70417 15.4003 8.71677 15.4222 8.7249C15.4457 8.73366 15.434 8.73227 15.4043 8.71138C15.3739 8.69 15.308 8.63632 15.2525 8.5372C15.1924 8.42995 15.166 8.3072 15.1738 8.18975L16.0219 8.24607L16.87 8.30239C16.9008 7.83842 16.6438 7.50462 16.3817 7.32043C16.1512 7.1585 15.879 7.07647 15.647 7.02731L15.4708 7.85886ZM16.0219 8.24607L15.1738 8.18975C15.1648 8.3239 15.1365 8.5458 15.0814 8.87138L15.9195 9.01316L16.7576 9.15493C16.8154 8.81336 16.8553 8.52387 16.87 8.30239L16.0219 8.24607ZM15.9195 9.01316L15.0814 8.87138C15.0184 9.24427 14.981 9.62399 14.969 10.0102L15.8186 10.0366L16.6682 10.0631C16.6779 9.7518 16.7078 9.4492 16.7576 9.15493L15.9195 9.01316ZM15.8186 10.0366L14.969 10.0102C14.9686 10.0218 14.9671 10.0266 14.9668 10.0277C14.9664 10.0287 14.9651 10.0328 14.9595 10.0412C14.9477 10.0589 14.9077 10.1082 14.7988 10.1742L15.2395 10.901L15.6803 11.6278C16.2295 11.2948 16.646 10.7745 16.6682 10.0631L15.8186 10.0366ZM15.2395 10.901L14.7988 10.1742C14.4939 10.3591 14.2075 10.6371 14.0726 11.0385C13.9375 11.4403 13.9981 11.835 14.1304 12.1667L14.9199 11.8517L15.7094 11.5368C15.6944 11.4992 15.6954 11.4878 15.6962 11.4987C15.6972 11.5122 15.6966 11.5425 15.6839 11.5802C15.6713 11.6179 15.6536 11.6421 15.6451 11.6517C15.6383 11.6594 15.645 11.6492 15.6803 11.6278L15.2395 10.901ZM14.9199 11.8517L14.1304 12.1667C14.1727 12.2727 14.1645 12.3108 14.1658 12.3011C14.1664 12.2961 14.1685 12.2882 14.1719 12.2811C14.175 12.2746 14.1753 12.2771 14.1652 12.288L14.7891 12.8653L15.413 13.4426C15.6478 13.1888 15.8056 12.8765 15.8518 12.5186C15.8966 12.171 15.8292 11.837 15.7094 11.5368L14.9199 11.8517ZM14.7891 12.8653L14.1652 12.288C13.8275 12.653 13.5844 13.0791 13.4376 13.5564L14.25 13.8063L15.0624 14.0563C15.1358 13.8176 15.2521 13.6164 15.413 13.4426L14.7891 12.8653ZM14.25 13.8063L13.4376 13.5564C13.4328 13.572 13.4352 13.5561 13.4577 13.5259C13.4825 13.4926 13.5215 13.4558 13.5731 13.4283C13.6765 13.3732 13.7285 13.4056 13.6377 13.3875L13.4716 14.2211L13.3055 15.0547C13.6235 15.118 14.0097 15.122 14.3725 14.9287C14.751 14.727 14.9603 14.3883 15.0624 14.0563L14.25 13.8063ZM13.4716 14.2211L13.6377 13.3875C13.2865 13.3175 12.9109 13.3384 12.5565 13.5106C12.2079 13.68 11.9597 13.9569 11.7866 14.2584L12.5237 14.6817L13.2609 15.1049C13.2859 15.0614 13.3041 15.0408 13.3112 15.0337C13.3172 15.0276 13.3136 15.0328 13.2995 15.0396C13.285 15.0467 13.272 15.0493 13.2665 15.0499C13.2625 15.0503 13.274 15.0484 13.3055 15.0547L13.4716 14.2211ZM12.5237 14.6817L11.7866 14.2584C11.7185 14.3769 11.6653 14.4254 11.6422 14.4423C11.626 14.4541 11.6203 14.4549 11.6096 14.4557L11.6735 15.3033L11.7374 16.1509C12.4443 16.0976 12.9444 15.6561 13.2609 15.1049L12.5237 14.6817ZM11.6735 15.3033L11.6096 14.4557C11.2265 14.4846 10.8504 14.5397 10.4816 14.6215L10.6657 15.4513L10.8497 16.2812C11.1373 16.2174 11.433 16.1738 11.7374 16.1509L11.6735 15.3033ZM10.6657 15.4513L10.4816 14.6215C10.103 14.7055 9.73512 14.8231 9.37852 14.9743L9.71029 15.7568L10.0421 16.5394C10.3031 16.4288 10.5721 16.3427 10.8497 16.2812L10.6657 15.4513ZM9.71029 15.7568L9.37852 14.9743C9.25738 15.0256 9.0964 15.0495 8.85987 14.9973L8.67668 15.8273L8.49349 16.6573C9.0175 16.773 9.5456 16.7499 10.0421 16.5394L9.71029 15.7568ZM8.67668 15.8273L8.85987 14.9973C8.61482 14.9432 8.33352 14.9109 8.05482 14.9619C7.75238 15.0172 7.43108 15.1785 7.22308 15.5087L7.94229 15.9618L8.66151 16.4148C8.61865 16.4828 8.56042 16.5394 8.49583 16.5792C8.43448 16.6171 8.38366 16.6299 8.36093 16.6341C8.33934 16.638 8.33775 16.6352 8.36379 16.6369C8.38912 16.6384 8.4314 16.6436 8.49349 16.6573L8.67668 15.8273ZM7.94229 15.9618L7.22308 15.5087C7.22101 15.512 7.22974 15.4975 7.24904 15.4741C7.2615 15.459 7.31738 15.3912 7.41694 15.3276C7.51005 15.2681 7.78537 15.1252 8.13247 15.2469C8.46362 15.363 8.58916 15.6277 8.62271 15.7102C8.68692 15.8683 8.67303 15.9915 8.67416 15.9385C8.67439 15.9275 8.67644 15.8914 8.68533 15.8204L7.84193 15.7147L6.99853 15.609C6.98622 15.7072 6.97654 15.8082 6.97454 15.9023C6.97343 15.9545 6.96678 16.1509 7.04772 16.3501C7.08963 16.4532 7.2259 16.7305 7.57017 16.8512C7.93037 16.9774 8.22117 16.8311 8.33212 16.7603C8.52731 16.6356 8.63659 16.4543 8.66151 16.4148L7.94229 15.9618Z" fill="#D8F789" />

</svg>