<svg width="24" height="24" viewBox="0 0 24 24" fill="none" xmlns="http://www.w3.org/2000/svg">
<path xmlns="http://www.w3.org/2000/svg" id="Vector" d="M20.7929 12.8337L21.6178 13.0386L20.7929 12.8337ZM20.7272 14.1645L19.8813 14.2479L20.7272 14.1645ZM20.7415 14.3096L21.5874 14.2262L20.7415 14.3096ZM20.4962 15.4455L21.2277 15.8784L20.4962 15.4455ZM20.3525 15.6884L19.6209 15.2555L20.3525 15.6884ZM19.6941 16.6768L19.0134 16.1677L19.6941 16.6768ZM19.5289 16.8976L20.2096 17.4067L19.5289 16.8976ZM18.7512 17.7629L18.1734 17.1396L18.7512 17.7629ZM18.5515 17.948L19.1293 18.5714L18.5515 17.948ZM17.7527 18.806L17.0906 18.2729L17.7527 18.806ZM17.6651 18.9147L17.0031 18.3816L17.6651 18.9147ZM17.5776 19.0234L18.2396 19.5566L17.5776 19.0234ZM16.6138 19.6205L16.8014 20.4495L16.6138 19.6205ZM16.4753 19.6519L16.2877 18.8228L16.4753 19.6519ZM16.3367 19.6832L16.5244 20.5122L16.3367 19.6832ZM15.2391 20.0818L15.6327 20.8351L15.2391 20.0818ZM15.1201 20.1439L14.7266 19.3905L15.1201 20.1439ZM15.0012 20.206L15.3948 20.9594L15.0012 20.206ZM13.9525 20.7453L13.5685 19.987L13.9525 20.7453ZM13.8255 20.8096L14.2096 21.5679L13.8255 20.8096ZM13.6985 20.874L13.3144 20.1157V20.1157L13.6985 20.874ZM12.5569 21.2217L12.4537 20.378V20.378L12.5569 21.2217ZM12.2754 21.2561L12.3787 22.0999V22.0999L12.2754 21.2561ZM11.1216 21.0151L10.702 21.7543L11.1216 21.0151ZM10.9916 20.9414L10.572 21.6806L10.9916 20.9414ZM10.8617 20.8676L11.2813 20.1284L10.8617 20.8676ZM9.77249 20.373L9.50127 21.1786L9.77249 20.373ZM9.64693 20.3307L9.91815 19.5251L9.64693 20.3307ZM9.52137 20.2884L9.25016 21.094L9.52137 20.2884ZM8.33439 20.1217L8.35194 20.9715L8.33439 20.1217ZM8.02864 20.128L8.01109 19.2782L8.02864 20.128ZM7.06032 19.5677L6.31612 19.9784L7.06032 19.5677ZM6.98606 19.4332L7.73026 19.0225L6.98606 19.4332ZM6.91179 19.2986L6.16759 19.7093L6.91179 19.2986ZM6.03267 18.4798L6.37222 17.7005V17.7005L6.03267 18.4798ZM5.76877 18.3648L6.10832 17.5855L5.76877 18.3648ZM4.96251 17.5724L5.73897 17.2266L4.96251 17.5724ZM4.90533 17.444L4.12887 17.7899L4.90533 17.444ZM4.84816 17.3157L5.62462 16.9698L4.84816 17.3157ZM4.20289 16.3222L4.83477 15.7536L4.20289 16.3222ZM4.10871 16.2175L3.47683 16.786L4.10871 16.2175ZM4.01452 16.1128L4.6464 15.5443L4.01452 16.1128ZM3.18465 13.6572L3.99876 13.4128L3.18465 13.6572ZM3.10509 13.3922L2.29098 13.6366L3.10509 13.3922ZM3.38112 9.40405L2.73091 8.85657L3.38112 9.40405ZM3.57149 9.17796L4.22169 9.72544L3.57149 9.17796ZM4.58376 6.74651L5.27899 7.23554L4.58376 6.74651ZM4.74368 6.51917L4.04844 6.03014L4.74368 6.51917ZM5.63171 5.7666L5.25786 5.00323V5.00323L5.63171 5.7666ZM5.76006 5.70374L6.13392 6.46711L5.76006 5.70374ZM5.88841 5.64088L5.51455 4.87752L5.88841 5.64088ZM6.88651 5.03523L6.37701 4.35486L6.88651 5.03523ZM8.04359 4.2604L7.62629 3.51989L8.04359 4.2604ZM8.27563 4.12964L8.69294 4.87015L8.27563 4.12964ZM9.27947 3.52433L9.73834 4.23983L9.27947 3.52433ZM9.51836 3.37112L9.05949 2.65562V2.65562L9.51836 3.37112ZM10.6146 2.90785L10.4218 2.08L10.6146 2.90785ZM10.7523 2.87579L10.945 3.70364L10.7523 2.87579ZM10.8899 2.84373L10.6972 2.01588L10.8899 2.84373ZM13.5207 3.00296L13.9131 2.24892L13.5207 3.00296ZM13.6495 3.06993L13.2571 3.82396L13.6495 3.06993ZM13.7782 3.13689L14.1705 2.38286L13.7782 3.13689ZM15.1957 3.55324L15.0691 4.39376L15.1957 3.55324ZM16.2272 4.05356L15.6468 4.6746L16.2272 4.05356ZM16.3304 4.15003L16.9108 3.529L16.3304 4.15003ZM16.4337 4.2465L15.8533 4.86754L16.4337 4.2465ZM17.3985 4.93073L17.0063 5.68481L17.3985 4.93073ZM17.6447 5.05878L18.037 4.3047L17.6447 5.05878ZM18.5255 5.80004L17.8489 6.3145L18.5255 5.80004ZM19.4333 6.93766L18.7873 7.49018L19.4333 6.93766ZM19.5235 7.04313L20.1694 6.49061L19.5235 7.04313ZM19.6137 7.1486L20.2596 6.59608L19.6137 7.1486ZM20.0844 8.19509L19.2431 8.31645L20.0844 8.19509ZM20.1248 8.47511L20.9661 8.35376L20.1248 8.47511ZM20.7709 9.81203L20.0931 10.325L20.7709 9.81203ZM21.0272 10.9211L21.8596 11.0929L21.0272 10.9211ZM20.9979 11.0631L20.1654 10.8913L20.9979 11.0631ZM20.9686 11.2051L20.1361 11.0333L20.9686 11.2051ZM20.907 11.8872L20.2513 12.4281L20.907 11.8872ZM20.9367 11.9232L20.281 12.4641L20.9367 11.9232ZM20.859 12.5675L20.0341 12.3626L20.859 12.5675ZM20.826 12.7006L20.001 12.4957L19.968 12.6288L20.7929 12.8337L21.6178 13.0386L21.6509 12.9055L20.826 12.7006ZM20.7929 12.8337L19.968 12.6288C19.8492 13.1071 19.8174 13.6002 19.867 14.1029L20.7129 14.0195L21.5588 13.9361C21.5271 13.6144 21.5487 13.317 21.6178 13.0386L20.7929 12.8337ZM20.7129 14.0195L19.867 14.1029L19.8813 14.2479L20.7272 14.1645L21.5731 14.0812L21.5588 13.9361L20.7129 14.0195ZM20.7272 14.1645L19.8813 14.2479L19.8956 14.393L20.7415 14.3096L21.5874 14.2262L21.5731 14.0812L20.7272 14.1645ZM20.7415 14.3096L19.8956 14.393C19.9191 14.6317 19.8736 14.8286 19.7646 15.0127L20.4962 15.4455L21.2277 15.8784C21.5271 15.3724 21.6451 14.8119 21.5874 14.2262L20.7415 14.3096ZM20.4962 15.4455L19.7646 15.0127L19.6928 15.1341L20.4243 15.567L21.1558 15.9998L21.2277 15.8784L20.4962 15.4455ZM20.4243 15.567L19.6928 15.1341L19.6209 15.2555L20.3525 15.6884L21.084 16.1212L21.1558 15.9998L20.4243 15.567ZM20.3525 15.6884L19.6209 15.2555C19.432 15.5749 19.2294 15.8789 19.0134 16.1677L19.6941 16.6768L20.3748 17.1859C20.6282 16.847 20.8646 16.492 21.084 16.1212L20.3525 15.6884ZM19.6941 16.6768L19.0134 16.1677L18.9308 16.2781L19.6115 16.7872L20.2922 17.2963L20.3748 17.1859L19.6941 16.6768ZM19.6115 16.7872L18.9308 16.2781L18.8483 16.3885L19.5289 16.8976L20.2096 17.4067L20.2922 17.2963L19.6115 16.7872ZM19.5289 16.8976L18.8483 16.3885C18.6439 16.6618 18.419 16.9119 18.1734 17.1396L18.7512 17.7629L19.329 18.3863C19.651 18.0879 19.9445 17.7611 20.2096 17.4067L19.5289 16.8976ZM18.7512 17.7629L18.1734 17.1396L18.0735 17.2321L18.6513 17.8555L19.2292 18.4789L19.329 18.3863L18.7512 17.7629ZM18.6513 17.8555L18.0735 17.2321L17.9737 17.3247L18.5515 17.948L19.1293 18.5714L19.2292 18.4789L18.6513 17.8555ZM18.5515 17.948L17.9737 17.3247C17.6589 17.6164 17.3646 17.9327 17.0906 18.2729L17.7527 18.806L18.4147 19.3392C18.6383 19.0615 18.8765 18.8058 19.1293 18.5714L18.5515 17.948ZM17.7527 18.806L17.0906 18.2729L17.0031 18.3816L17.6651 18.9147L18.3272 19.4479L18.4147 19.3392L17.7527 18.806ZM17.6651 18.9147L17.0031 18.3816L16.9156 18.4903L17.5776 19.0234L18.2396 19.5566L18.3272 19.4479L17.6651 18.9147ZM17.5776 19.0234L16.9156 18.4903C16.7893 18.6471 16.6365 18.7439 16.4262 18.7915L16.6138 19.6205L16.8014 20.4495C17.3785 20.3189 17.8683 20.0177 18.2396 19.5566L17.5776 19.0234ZM16.6138 19.6205L16.4262 18.7915L16.2877 18.8228L16.4753 19.6519L16.6629 20.4809L16.8014 20.4495L16.6138 19.6205ZM16.4753 19.6519L16.2877 18.8228L16.1491 18.8542L16.3367 19.6832L16.5244 20.5122L16.6629 20.4809L16.4753 19.6519ZM16.3367 19.6832L16.1491 18.8542C15.6879 18.9585 15.2523 19.1158 14.8455 19.3284L15.2391 20.0818L15.6327 20.8351C15.9019 20.6945 16.1981 20.5861 16.5244 20.5122L16.3367 19.6832ZM15.2391 20.0818L14.8455 19.3284L14.7266 19.3905L15.1201 20.1439L15.5137 20.8973L15.6327 20.8351L15.2391 20.0818ZM15.1201 20.1439L14.7266 19.3905L14.6076 19.4527L15.0012 20.206L15.3948 20.9594L15.5137 20.8973L15.1201 20.1439ZM15.0012 20.206L14.6076 19.4527C14.2729 19.6275 13.9265 19.8056 13.5685 19.987L13.9525 20.7453L14.3366 21.5036C14.7007 21.3192 15.0534 21.1378 15.3948 20.9594L15.0012 20.206ZM13.9525 20.7453L13.5685 19.987L13.4414 20.0514L13.8255 20.8096L14.2096 21.5679L14.3366 21.5036L13.9525 20.7453ZM13.8255 20.8096L13.4414 20.0514L13.3144 20.1157L13.6985 20.874L14.0825 21.6323L14.2096 21.5679L13.8255 20.8096ZM13.6985 20.874L13.3144 20.1157C13.0409 20.2542 12.7553 20.3411 12.4537 20.378L12.5569 21.2217L12.6601 22.0654C13.1584 22.0045 13.6339 21.8595 14.0825 21.6323L13.6985 20.874ZM12.5569 21.2217L12.4537 20.378L12.313 20.3952L12.4162 21.2389L12.5194 22.0826L12.6601 22.0654L12.5569 21.2217ZM12.4162 21.2389L12.313 20.3952L12.1722 20.4124L12.2754 21.2561L12.3787 22.0999L12.5194 22.0826L12.4162 21.2389ZM12.2754 21.2561L12.1722 20.4124C11.9633 20.438 11.761 20.4007 11.5412 20.2759L11.1216 21.0151L10.702 21.7543C11.2207 22.0488 11.7876 22.1722 12.3787 22.0999L12.2754 21.2561ZM11.1216 21.0151L11.5412 20.2759L11.4112 20.2022L10.9916 20.9414L10.572 21.6806L10.702 21.7543L11.1216 21.0151ZM10.9916 20.9414L11.4112 20.2022L11.2813 20.1284L10.8617 20.8676L10.4421 21.6068L10.572 21.6806L10.9916 20.9414ZM10.8617 20.8676L11.2813 20.1284C10.8707 19.8953 10.4581 19.7069 10.0437 19.5674L9.77249 20.373L9.50127 21.1786C9.80062 21.2793 10.1142 21.4207 10.4421 21.6068L10.8617 20.8676ZM9.77249 20.373L10.0437 19.5674L9.91815 19.5251L9.64693 20.3307L9.37571 21.1363L9.50127 21.1786L9.77249 20.373ZM9.64693 20.3307L9.91815 19.5251L9.79259 19.4829L9.52137 20.2884L9.25016 21.094L9.37571 21.1363L9.64693 20.3307ZM9.52137 20.2884L9.79259 19.4829C9.32964 19.327 8.83453 19.2612 8.31683 19.2719L8.33439 20.1217L8.35194 20.9715C8.7032 20.9642 8.99941 21.0096 9.25016 21.094L9.52137 20.2884ZM8.33439 20.1217L8.31683 19.2719L8.16396 19.275L8.18151 20.1248L8.19907 20.9747L8.35194 20.9715L8.33439 20.1217ZM8.18151 20.1248L8.16396 19.275L8.01109 19.2782L8.02864 20.128L8.0462 20.9778L8.19907 20.9747L8.18151 20.1248ZM8.02864 20.128L8.01109 19.2782C7.92318 19.28 7.89233 19.2624 7.88638 19.2589C7.88019 19.2554 7.84836 19.2365 7.80452 19.1571L7.06032 19.5677L6.31612 19.9784C6.48335 20.2815 6.71844 20.5472 7.03503 20.7304C7.35186 20.9137 7.69963 20.985 8.0462 20.9778L8.02864 20.128ZM7.06032 19.5677L7.80452 19.1571L7.73026 19.0225L6.98606 19.4332L6.24186 19.8439L6.31612 19.9784L7.06032 19.5677ZM6.98606 19.4332L7.73026 19.0225L7.65599 18.8879L6.91179 19.2986L6.16759 19.7093L6.24186 19.8439L6.98606 19.4332ZM6.91179 19.2986L7.65599 18.8879C7.36093 18.3532 6.93111 17.9441 6.37222 17.7005L6.03267 18.4798L5.69311 19.259C5.88425 19.3423 6.04052 19.479 6.16759 19.7093L6.91179 19.2986ZM6.03267 18.4798L6.37222 17.7005L6.24027 17.643L5.90072 18.4223L5.56117 19.2015L5.69311 19.259L6.03267 18.4798ZM5.90072 18.4223L6.24027 17.643L6.10832 17.5855L5.76877 18.3648L5.42922 19.144L5.56117 19.2015L5.90072 18.4223ZM5.76877 18.3648L6.10832 17.5855C5.92274 17.5047 5.81278 17.3923 5.73897 17.2266L4.96251 17.5724L4.18604 17.9182C4.43721 18.4822 4.86476 18.898 5.42922 19.144L5.76877 18.3648ZM4.96251 17.5724L5.73897 17.2266L5.6818 17.0982L4.90533 17.444L4.12887 17.7899L4.18604 17.9182L4.96251 17.5724ZM4.90533 17.444L5.6818 17.0982L5.62462 16.9698L4.84816 17.3157L4.07169 17.6615L4.12887 17.7899L4.90533 17.444ZM4.84816 17.3157L5.62462 16.9698C5.42582 16.5235 5.16189 16.1172 4.83477 15.7536L4.20289 16.3222L3.57101 16.8907C3.77926 17.1221 3.94551 17.3782 4.07169 17.6615L4.84816 17.3157ZM4.20289 16.3222L4.83477 15.7536L4.74058 15.6489L4.10871 16.2175L3.47683 16.786L3.57101 16.8907L4.20289 16.3222ZM4.10871 16.2175L4.74058 15.6489L4.6464 15.5443L4.01452 16.1128L3.38264 16.6813L3.47683 16.786L4.10871 16.2175ZM4.01452 16.1128L4.6464 15.5443C4.48351 15.3632 4.38651 15.1641 4.34487 14.9317L3.50819 15.0816L2.67151 15.2314C2.76961 15.779 3.01015 16.2673 3.38264 16.6813L4.01452 16.1128ZM3.50819 15.0816L4.34487 14.9317L4.32029 14.7944L3.48361 14.9443L2.64693 15.0942L2.67151 15.2314L3.50819 15.0816ZM3.48361 14.9443L4.32029 14.7944L4.2957 14.6572L3.45902 14.8071L2.62235 14.957L2.64693 15.0942L3.48361 14.9443ZM3.45902 14.8071L4.2957 14.6572C4.22016 14.2356 4.1212 13.8207 3.99876 13.4128L3.18465 13.6572L2.37054 13.9016C2.4742 14.2469 2.55815 14.5987 2.62235 14.957L3.45902 14.8071ZM3.18465 13.6572L3.99876 13.4128L3.95898 13.2803L3.14487 13.5247L2.33076 13.7691L2.37054 13.9016L3.18465 13.6572ZM3.14487 13.5247L3.95898 13.2803L3.91921 13.1478L3.10509 13.3922L2.29098 13.6366L2.33076 13.7691L3.14487 13.5247ZM3.10509 13.3922L3.91921 13.1478C3.83074 12.8531 3.78808 12.553 3.79092 12.2448L2.94096 12.2369L2.091 12.2291C2.08658 12.708 2.15335 13.1781 2.29098 13.6366L3.10509 13.3922ZM2.94096 12.2369L3.79092 12.2448L3.7922 12.1063L2.94224 12.0984L2.09227 12.0906L2.091 12.2291L2.94096 12.2369ZM2.94224 12.0984L3.7922 12.1063L3.79348 11.9678L2.94351 11.9599L2.09355 11.9521L2.09227 12.0906L2.94224 12.0984ZM2.94351 11.9599L3.79348 11.9678C3.79708 11.5766 3.80242 11.182 3.80951 10.7838L2.95964 10.7687L2.10978 10.7536C2.10261 11.1565 2.0972 11.556 2.09355 11.9521L2.94351 11.9599ZM2.95964 10.7687L3.80951 10.7838L3.81201 10.6429L2.96215 10.6278L2.11228 10.6126L2.10978 10.7536L2.95964 10.7687ZM2.96215 10.6278L3.81201 10.6429L3.81452 10.5019L2.96466 10.4868L2.11479 10.4717L2.11228 10.6126L2.96215 10.6278ZM2.96466 10.4868L3.81452 10.5019C3.818 10.3064 3.87993 10.1313 4.03133 9.95152L3.38112 9.40405L2.73091 8.85657C2.34127 9.31932 2.12556 9.86606 2.11479 10.4717L2.96466 10.4868ZM3.38112 9.40405L4.03133 9.95152L4.12651 9.83848L3.4763 9.291L2.8261 8.74353L2.73091 8.85657L3.38112 9.40405ZM3.4763 9.291L4.12651 9.83848L4.22169 9.72544L3.57149 9.17796L2.92128 8.63048L2.8261 8.74353L3.4763 9.291ZM3.57149 9.17796L4.22169 9.72544C4.58327 9.29601 4.82182 8.80251 4.92121 8.2544L4.08484 8.10274L3.24848 7.95109C3.20443 8.19404 3.10074 8.41735 2.92128 8.63048L3.57149 9.17796ZM4.08484 8.10274L4.92121 8.2544L4.94644 8.11523L4.11008 7.96357L3.27372 7.81192L3.24848 7.95109L4.08484 8.10274ZM4.11008 7.96357L4.94644 8.11523L4.97168 7.97606L4.13531 7.82441L3.29895 7.67275L3.27372 7.81192L4.11008 7.96357ZM4.13531 7.82441L4.97168 7.97606C5.02179 7.69968 5.124 7.45589 5.27899 7.23554L4.58376 6.74651L3.88853 6.25748C3.58903 6.68326 3.39228 7.15807 3.29895 7.67275L4.13531 7.82441ZM4.58376 6.74651L5.27899 7.23554L5.35895 7.12187L4.66372 6.63284L3.96849 6.14381L3.88853 6.25748L4.58376 6.74651ZM4.66372 6.63284L5.35895 7.12187L5.43891 7.0082L4.74368 6.51917L4.04844 6.03014L3.96849 6.14381L4.66372 6.63284ZM4.74368 6.51917L5.43891 7.0082C5.58143 6.80558 5.76551 6.64754 6.00557 6.52997L5.63171 5.7666L5.25786 5.00323C4.76836 5.24296 4.36041 5.58663 4.04844 6.03014L4.74368 6.51917ZM5.63171 5.7666L6.00557 6.52997L6.13392 6.46711L5.76006 5.70374L5.38621 4.94037L5.25786 5.00323L5.63171 5.7666ZM5.76006 5.70374L6.13392 6.46711L6.26227 6.40425L5.88841 5.64088L5.51455 4.87752L5.38621 4.94037L5.76006 5.70374ZM5.88841 5.64088L6.26227 6.40425C6.67092 6.20412 7.04958 5.97503 7.39601 5.71561L6.88651 5.03523L6.37701 4.35486C6.1222 4.54567 5.83546 4.72035 5.51455 4.87752L5.88841 5.64088ZM6.88651 5.03523L7.39601 5.71561L7.50178 5.6364L6.99228 4.95602L6.48279 4.27565L6.37701 4.35486L6.88651 5.03523ZM6.99228 4.95602L7.50178 5.6364L7.60756 5.55719L7.09806 4.87681L6.58856 4.19644L6.48279 4.27565L6.99228 4.95602ZM7.09806 4.87681L7.60756 5.55719C7.87855 5.35426 8.16291 5.16884 8.4609 5.00091L8.04359 4.2604L7.62629 3.51989C7.2648 3.72361 6.91881 3.94913 6.58856 4.19644L7.09806 4.87681ZM8.04359 4.2604L8.4609 5.00091L8.57692 4.93553L8.15961 4.19502L7.74231 3.45451L7.62629 3.51989L8.04359 4.2604ZM8.15961 4.19502L8.57692 4.93553L8.69294 4.87015L8.27563 4.12964L7.85833 3.38913L7.74231 3.45451L8.15961 4.19502ZM8.27563 4.12964L8.69294 4.87015C9.03765 4.6759 9.38612 4.46572 9.73834 4.23983L9.27947 3.52433L8.8206 2.80883C8.49385 3.01838 8.17309 3.21175 7.85833 3.38913L8.27563 4.12964ZM9.27947 3.52433L9.73834 4.23983L9.85778 4.16322L9.39892 3.44772L8.94005 2.73223L8.8206 2.80883L9.27947 3.52433ZM9.39892 3.44772L9.85778 4.16322L9.97723 4.08662L9.51836 3.37112L9.05949 2.65562L8.94005 2.73223L9.39892 3.44772ZM9.51836 3.37112L9.97723 4.08662C10.2354 3.92105 10.5108 3.80475 10.8073 3.7357L10.6146 2.90785L10.4218 2.08C9.93566 2.1932 9.48031 2.38574 9.05949 2.65562L9.51836 3.37112ZM10.6146 2.90785L10.8073 3.7357L10.945 3.70364L10.7523 2.87579L10.5595 2.04794L10.4218 2.08L10.6146 2.90785ZM10.7523 2.87579L10.945 3.70364L11.0827 3.67158L10.8899 2.84373L10.6972 2.01588L10.5595 2.04794L10.7523 2.87579ZM10.8899 2.84373L11.0827 3.67158C11.4086 3.5957 11.7394 3.55889 12.0765 3.56124L12.0825 2.71126L12.0884 1.86128C11.6181 1.85801 11.1539 1.90952 10.6972 2.01588L10.8899 2.84373ZM12.0825 2.71126L12.0765 3.56124L12.2186 3.56223L12.2245 2.71225L12.2304 1.86227L12.0884 1.86128L12.0825 2.71126ZM12.2245 2.71225L12.2186 3.56223L12.3606 3.56322L12.3665 2.71324L12.3724 1.86326L12.2304 1.86227L12.2245 2.71225ZM12.3665 2.71324L12.3606 3.56322C12.6267 3.56507 12.8793 3.6274 13.1284 3.75699L13.5207 3.00296L13.9131 2.24892C13.4306 1.99785 12.9137 1.86703 12.3724 1.86326L12.3665 2.71324ZM13.5207 3.00296L13.1284 3.75699L13.2571 3.82396L13.6495 3.06993L14.0418 2.31589L13.9131 2.24892L13.5207 3.00296ZM13.6495 3.06993L13.2571 3.82396L13.3858 3.89093L13.7782 3.13689L14.1705 2.38286L14.0418 2.31589L13.6495 3.06993ZM13.7782 3.13689L13.3858 3.89093C13.8319 4.12306 14.3015 4.27816 14.7917 4.35198L14.9183 3.51146L15.0448 2.67094C14.7465 2.626 14.456 2.5314 14.1705 2.38286L13.7782 3.13689ZM14.9183 3.51146L14.7917 4.35198L14.9304 4.37287L15.057 3.53235L15.1836 2.69183L15.0448 2.67094L14.9183 3.51146ZM15.057 3.53235L14.9304 4.37287L15.0691 4.39376L15.1957 3.55324L15.3223 2.71272L15.1836 2.69183L15.057 3.53235ZM15.1957 3.55324L15.0691 4.39376C15.2921 4.42735 15.4781 4.51689 15.6468 4.6746L16.2272 4.05356L16.8076 3.43253C16.3895 3.04189 15.8878 2.79789 15.3223 2.71272L15.1957 3.55324ZM16.2272 4.05356L15.6468 4.6746L15.7501 4.77107L16.3304 4.15003L16.9108 3.529L16.8076 3.43253L16.2272 4.05356ZM16.3304 4.15003L15.7501 4.77107L15.8533 4.86754L16.4337 4.2465L17.014 3.62547L16.9108 3.529L16.3304 4.15003ZM16.4337 4.2465L15.8533 4.86754C16.202 5.19342 16.5867 5.46658 17.0063 5.68481L17.3985 4.93073L17.7908 4.17664C17.5106 4.03092 17.2521 3.84793 17.014 3.62547L16.4337 4.2465ZM17.3985 4.93073L17.0063 5.68481L17.1294 5.74884L17.5216 4.99475L17.9139 4.24067L17.7908 4.17664L17.3985 4.93073ZM17.5216 4.99475L17.1294 5.74884L17.2525 5.81287L17.6447 5.05878L18.037 4.3047L17.9139 4.24067L17.5216 4.99475ZM17.6447 5.05878L17.2525 5.81287C17.4916 5.93727 17.6879 6.10276 17.8489 6.3145L18.5255 5.80004L19.2022 5.28558C18.8884 4.87293 18.4975 4.54425 18.037 4.3047L17.6447 5.05878ZM18.5255 5.80004L17.8489 6.3145L17.9324 6.42435L18.6091 5.90989L19.2857 5.39543L19.2022 5.28558L18.5255 5.80004ZM18.6091 5.90989L17.9324 6.42435L18.016 6.5342L18.6926 6.01974L19.3692 5.50527L19.2857 5.39543L18.6091 5.90989ZM18.6926 6.01974L18.016 6.5342C18.2632 6.85945 18.5204 7.17811 18.7873 7.49018L19.4333 6.93766L20.0792 6.38514C19.8333 6.0977 19.5967 5.80442 19.3692 5.50527L18.6926 6.01974ZM19.4333 6.93766L18.7873 7.49018L18.8775 7.59565L19.5235 7.04313L20.1694 6.49061L20.0792 6.38514L19.4333 6.93766ZM19.5235 7.04313L18.8775 7.59565L18.9678 7.70112L19.6137 7.1486L20.2596 6.59608L20.1694 6.49061L19.5235 7.04313ZM19.6137 7.1486L18.9678 7.70112C19.1174 7.87609 19.2082 8.07463 19.2431 8.31645L20.0844 8.19509L20.9257 8.07374C20.8458 7.51974 20.6228 7.02061 20.2596 6.59608L19.6137 7.1486ZM20.0844 8.19509L19.2431 8.31645L19.2633 8.45645L20.1046 8.3351L20.9459 8.21375L20.9257 8.07374L20.0844 8.19509ZM20.1046 8.3351L19.2633 8.45645L19.2835 8.59646L20.1248 8.47511L20.9661 8.35376L20.9459 8.21375L20.1046 8.3351ZM20.1248 8.47511L19.2835 8.59646C19.3624 9.14347 19.5777 9.64387 19.9143 10.0886L20.5921 9.57571L21.2699 9.06277C21.0982 8.8359 21.002 8.60256 20.9661 8.35376L20.1248 8.47511ZM20.5921 9.57571L19.9143 10.0886L20.0037 10.2068L20.6815 9.69387L21.3593 9.18093L21.2699 9.06277L20.5921 9.57571ZM20.6815 9.69387L20.0037 10.2068L20.0931 10.325L20.7709 9.81203L21.4487 9.29909L21.3593 9.18093L20.6815 9.69387ZM20.7709 9.81203L20.0931 10.325C20.2032 10.4704 20.2273 10.5916 20.1947 10.7493L21.0272 10.9211L21.8596 11.0929C21.9937 10.4435 21.8469 9.82529 21.4487 9.29909L20.7709 9.81203ZM21.0272 10.9211L20.1947 10.7493L20.1654 10.8913L20.9979 11.0631L21.8303 11.2349L21.8596 11.0929L21.0272 10.9211ZM20.9979 11.0631L20.1654 10.8913L20.1361 11.0333L20.9686 11.2051L21.801 11.3769L21.8303 11.2349L20.9979 11.0631ZM20.9686 11.2051L20.1361 11.0333C20.0923 11.2458 20.0587 11.4403 20.0441 11.6018C20.0371 11.6803 20.0317 11.7793 20.0396 11.8817C20.0438 11.9349 20.0599 12.1962 20.2513 12.4281L20.907 11.8872L21.5627 11.3463C21.6139 11.4084 21.6474 11.4679 21.6692 11.5143C21.691 11.5608 21.7045 11.6015 21.7129 11.6316C21.729 11.6894 21.7332 11.7329 21.7345 11.7498C21.737 11.7826 21.7341 11.7899 21.7372 11.7548C21.7432 11.6889 21.7616 11.5679 21.801 11.3769L20.9686 11.2051ZM20.907 11.8872L20.2513 12.4281L20.2661 12.4461L20.9218 11.9052L21.5775 11.3643L21.5627 11.3463L20.907 11.8872ZM20.9218 11.9052L20.2661 12.4461L20.281 12.4641L20.9367 11.9232L21.5924 11.3823L21.5775 11.3643L20.9218 11.9052ZM20.9367 11.9232L20.281 12.4641C20.1839 12.3464 20.1452 12.2319 20.1295 12.1744C20.1125 12.1125 20.1084 12.0651 20.1072 12.0444C20.1047 12.0047 20.1086 11.991 20.105 12.021C20.0983 12.0765 20.0782 12.1851 20.0341 12.3626L20.859 12.5675L21.684 12.7724C21.7339 12.5716 21.7736 12.3836 21.7928 12.2244C21.8022 12.1469 21.8105 12.0463 21.804 11.9401C21.8001 11.878 21.7855 11.6165 21.5924 11.3823L20.9367 11.9232ZM20.859 12.5675L20.0341 12.3626L20.001 12.4957L20.826 12.7006L21.6509 12.9055L21.684 12.7724L20.859 12.5675Z" fill="#D8F789" />
<path xmlns="http://www.w3.org/2000/svg" id="Vector_2" d="M12.2397 16.3801C12.4497 16.8 12.9602 16.9702 13.3801 16.7603C13.8 16.5503 13.9702 16.0398 13.7603 15.6199L13 16L12.2397 16.3801ZM12.9553 15.9106L13.7155 15.5304L13.4988 15.0969L13.0152 15.0627L12.9553 15.9106ZM12.8507 15.9032L12.7908 16.751L12.8507 15.9032ZM12.1799 15.8467L12.0862 16.6915L12.1799 15.8467ZM12.1271 15.8408L12.2207 14.996L12.1271 15.8408ZM12.0743 15.835L11.9806 16.6798L12.0743 15.835ZM11.903 15.5125L11.0665 15.3611L11.903 15.5125ZM11.9132 15.456L12.7496 15.6074L11.9132 15.456ZM11.9826 14.974L11.1374 14.8836L11.9826 14.974ZM11.9947 14.861L12.8398 14.9514L11.9947 14.861ZM12.0524 14.379L12.895 14.4908L12.0524 14.379ZM12.033 13.784L11.2135 14.0096L12.033 13.784ZM12.0175 13.7275L12.837 13.502L12.0175 13.7275ZM12.0019 13.671L11.1824 13.8965L12.0019 13.671ZM12.035 13.189L12.8208 13.5131V13.5131L12.035 13.189ZM12.0583 13.1325L11.2725 12.8084L12.0583 13.1325ZM12.0816 13.076L12.8674 13.4001L12.0816 13.076ZM12.1283 12.481L12.9691 12.3559L12.1283 12.481ZM11.9112 12.1917L11.6922 13.0129L11.9112 12.1917ZM11.8262 12.169L11.6071 12.9903L11.8262 12.169ZM11.291 12.1576L11.2026 11.3122L11.291 12.1576ZM11.0297 12.1088L11.8496 11.8846L11.0297 12.1088ZM11.025 12.0914L10.9404 11.2456L9.93985 11.3457L10.2051 12.3156L11.025 12.0914ZM11.0447 12.0894L11.1293 12.9352L12.3566 12.8125L11.805 11.7093L11.0447 12.0894ZM11.7603 11.6199C11.5503 11.2 11.0398 11.0298 10.6199 11.2397C10.2 11.4497 10.0298 11.9602 10.2397 12.3801L11 12L11.7603 11.6199ZM13 16L13.7603 15.6199L13.7155 15.5304L12.9553 15.9106L12.195 16.2907L12.2397 16.3801L13 16ZM12.9553 15.9106L13.0152 15.0627L12.9107 15.0553L12.8507 15.9032L12.7908 16.751L12.8953 16.7584L12.9553 15.9106ZM12.8507 15.9032L12.9107 15.0553C12.6162 15.0345 12.4063 15.0166 12.2735 15.0019L12.1799 15.8467L12.0862 16.6915C12.2536 16.7101 12.4909 16.7298 12.7908 16.751L12.8507 15.9032ZM12.1799 15.8467L12.2735 15.0019L12.2207 14.996L12.1271 15.8408L12.0334 16.6856L12.0862 16.6915L12.1799 15.8467ZM12.1271 15.8408L12.2207 14.996L12.1679 14.9901L12.0743 15.835L11.9806 16.6798L12.0334 16.6856L12.1271 15.8408ZM12.0743 15.835L12.1679 14.9901C12.2352 14.9976 12.459 15.0433 12.6184 15.2768C12.7662 15.4935 12.734 15.6933 12.7291 15.7204L11.8927 15.569L11.0563 15.4176C11.0223 15.6054 11.0059 15.9299 11.2143 16.2352C11.4341 16.5573 11.7632 16.6557 11.9806 16.6798L12.0743 15.835ZM11.8927 15.569L12.7291 15.7204L12.7394 15.6639L11.903 15.5125L11.0665 15.3611L11.0563 15.4176L11.8927 15.569ZM11.903 15.5125L12.7394 15.6639L12.7496 15.6074L11.9132 15.456L11.0768 15.3046L11.0665 15.3611L11.903 15.5125ZM11.9132 15.456L12.7496 15.6074C12.7823 15.4267 12.8084 15.2457 12.8278 15.0644L11.9826 14.974L11.1374 14.8836C11.1224 15.0236 11.1022 15.1639 11.0768 15.3046L11.9132 15.456ZM11.9826 14.974L12.8278 15.0644L12.8338 15.0079L11.9886 14.9175L11.1434 14.8271L11.1374 14.8836L11.9826 14.974ZM11.9886 14.9175L12.8338 15.0079L12.8398 14.9514L11.9947 14.861L11.1495 14.7706L11.1434 14.8271L11.9886 14.9175ZM11.9947 14.861L12.8398 14.9514C12.8563 14.7979 12.8747 14.6443 12.895 14.4908L12.0524 14.379L11.2098 14.2673C11.1875 14.435 11.1674 14.6028 11.1495 14.7706L11.9947 14.861ZM12.0524 14.379L12.895 14.4908L12.9025 14.4342L12.0599 14.3225L11.2173 14.2108L11.2098 14.2673L12.0524 14.379ZM12.0599 14.3225L12.9025 14.4342L12.91 14.3777L12.0674 14.266L11.2248 14.1542L11.2173 14.2108L12.0599 14.3225ZM12.0674 14.266L12.91 14.3777C12.9467 14.101 12.9261 13.8257 12.8526 13.5585L12.033 13.784L11.2135 14.0096C11.2284 14.0636 11.2307 14.1096 11.2248 14.1542L12.0674 14.266ZM12.033 13.784L12.8526 13.5585L12.837 13.502L12.0175 13.7275L11.1979 13.953L11.2135 14.0096L12.033 13.784ZM12.0175 13.7275L12.837 13.502L12.8215 13.4454L12.0019 13.671L11.1824 13.8965L11.1979 13.953L12.0175 13.7275ZM12.0019 13.671L12.8215 13.4454C12.8239 13.4542 12.8263 13.4697 12.825 13.4882C12.8238 13.5062 12.8198 13.5154 12.8208 13.5131L12.035 13.189L11.2492 12.8649C11.1143 13.1919 11.0859 13.5458 11.1824 13.8965L12.0019 13.671ZM12.035 13.189L12.8208 13.5131L12.8441 13.4566L12.0583 13.1325L11.2725 12.8084L11.2492 12.8649L12.035 13.189ZM12.0583 13.1325L12.8441 13.4566L12.8674 13.4001L12.0816 13.076L11.2958 12.7519L11.2725 12.8084L12.0583 13.1325ZM12.0816 13.076L12.8674 13.4001C12.988 13.1077 13.034 12.7922 12.9859 12.4689L12.1451 12.594L11.3044 12.7191C11.3047 12.7214 11.3047 12.7222 11.3045 12.7239C11.3042 12.726 11.3028 12.7349 11.2958 12.7519L12.0816 13.076ZM12.1451 12.594L12.9859 12.4689L12.9775 12.4124L12.1367 12.5375L11.296 12.6626L11.3044 12.7191L12.1451 12.594ZM12.1367 12.5375L12.9775 12.4124L12.9691 12.3559L12.1283 12.481L11.2876 12.6061L11.296 12.6626L12.1367 12.5375ZM12.1283 12.481L12.9691 12.3559C12.9432 12.1823 12.8813 11.9716 12.736 11.778C12.581 11.5714 12.3675 11.4336 12.1303 11.3704L11.9112 12.1917L11.6922 13.0129C11.5758 12.9819 11.4589 12.9085 11.3762 12.7983C11.3033 12.7011 11.2895 12.619 11.2876 12.6061L12.1283 12.481ZM11.9112 12.1917L12.1303 11.3704L12.0878 11.359L11.8687 12.1803L11.6497 13.0016L11.6922 13.0129L11.9112 12.1917ZM11.8687 12.1803L12.0878 11.359L12.0453 11.3477L11.8262 12.169L11.6071 12.9903L11.6497 13.0016L11.8687 12.1803ZM11.8262 12.169L12.0453 11.3477C11.7999 11.2822 11.5508 11.2759 11.3157 11.3004L11.404 12.1458L11.4924 12.9912C11.5786 12.9822 11.611 12.9913 11.6071 12.9903L11.8262 12.169ZM11.404 12.1458L11.3157 11.3004L11.2591 11.3063L11.3475 12.1517L11.4359 12.9971L11.4924 12.9912L11.404 12.1458ZM11.3475 12.1517L11.2591 11.3063L11.2026 11.3122L11.291 12.1576L11.3793 13.003L11.4359 12.9971L11.3475 12.1517ZM11.291 12.1576L11.2026 11.3122C11.1485 11.3179 11.1836 11.3079 11.2615 11.3225C11.302 11.3301 11.4038 11.3531 11.5183 11.4278C11.6478 11.5124 11.7889 11.6624 11.8496 11.8846L11.0297 12.1088L10.2099 12.333C10.3531 12.8566 10.8315 12.9716 10.9489 12.9935C11.1139 13.0244 11.2728 13.0142 11.3793 13.003L11.291 12.1576ZM11.0297 12.1088L11.8496 11.8846L11.8449 11.8672L11.025 12.0914L10.2051 12.3156L10.2099 12.333L11.0297 12.1088ZM11.025 12.0914L11.1096 12.9372L11.1293 12.9352L11.0447 12.0894L10.9601 11.2437L10.9404 11.2456L11.025 12.0914ZM11.0447 12.0894L11.805 11.7093L11.7603 11.6199L11 12L10.2397 12.3801L10.2845 12.4696L11.0447 12.0894Z" fill="#D8F789" />
<path xmlns="http://www.w3.org/2000/svg" id="Vector_3" d="M12 8H12.01" stroke="#D8F789" stroke-width="1.7" stroke-linecap="round" />

</svg>