<svg width="24" height="24" viewBox="0 0 24 24" fill="none" xmlns="http://www.w3.org/2000/svg">
<path opacity="0.3" d="M17.4999 8C17.9599 8 18.4099 7.95 18.8399 7.88C17.4399 5.56 14.8999 4 11.9999 4C11.5399 4 11.0899 4.05 10.6599 4.12C12.0599 6.44 14.5999 8 17.4999 8ZM8.07992 5.03C6.35458 6.00854 5.05125 7.58963 4.41992 9.47C6.14527 8.49146 7.44859 6.91037 8.07992 5.03Z" fill="#D8F789"/>
<path d="M12 2C6.48 2 2 6.48 2 12C2 17.52 6.48 22 12 22C17.52 22 22 17.52 22 12C22 6.48 17.52 2 12 2ZM12 4C14.9 4 17.44 5.56 18.84 7.88C18.41 7.95 17.96 8 17.5 8C14.6 8 12.06 6.44 10.66 4.12C11.09 4.05 11.54 4 12 4ZM8.08 5.03C7.44867 6.91037 6.14534 8.49146 4.42 9.47C5.05133 7.58963 6.35466 6.00854 8.08 5.03ZM12 20C7.59 20 4 16.41 4 12C4 11.95 4.01 11.9 4.01 11.85C6.61 10.87 8.69 8.86 9.75 6.3C10.9153 7.74574 12.4622 8.83616 14.2155 9.44769C15.9688 10.0592 17.8584 10.1674 19.67 9.76C19.88 10.47 20 11.22 20 12C20 16.41 16.41 20 12 20Z" fill="#D8F789"/>
<path d="M12 2L12.0486 2.34661L12.1541 2.33182L12.2335 2.26076L12 2ZM11.901 2.01388L11.8524 1.66727L11.8403 1.66896L11.8284 1.67149L11.901 2.01388ZM11.4591 2.10756L11.3525 2.44093L11.4409 2.46919L11.5316 2.44995L11.4591 2.10756ZM10.8955 1.92737L11.002 1.59399L10.919 1.56745L10.8332 1.58295L10.8955 1.92737ZM10.3511 2.02571L10.2889 1.68129L10.2103 1.69548L10.1457 1.74235L10.3511 2.02571ZM9.86413 2.37878L9.76825 2.71539L9.93185 2.76199L10.0696 2.66214L9.86413 2.37878ZM9.25742 2.20597L9.3533 1.86935L9.19649 1.82469L9.0614 1.91601L9.25742 2.20597ZM8.78077 2.52819L8.84693 2.87188L8.91737 2.85832L8.97679 2.81815L8.78077 2.52819ZM8.2347 2.6333L8.16854 2.28961L8.05023 2.31238L7.971 2.40316L8.2347 2.6333ZM7.83882 3.08688L7.80707 3.43543L7.98502 3.45165L8.10251 3.31702L7.83882 3.08688ZM7.19846 3.02854L7.23021 2.67998L7.04873 2.66345L6.93111 2.80264L7.19846 3.02854ZM6.82066 3.47566L7.08478 3.70537L7.08801 3.70155L6.82066 3.47566ZM6.45162 3.89999L6.57195 4.22865L6.65657 4.19767L6.71571 4.12967L6.45162 3.89999ZM5.924 4.09317L5.80367 3.7645L5.79393 3.76807L5.78441 3.77221L5.924 4.09317ZM5.40153 4.3204L5.26194 3.99944L5.22173 4.01693L5.18708 4.04379L5.40153 4.3204ZM4.96238 4.66087L4.74793 4.38426L4.63888 4.46881L4.61686 4.60503L4.96238 4.66087ZM4.8557 5.32096L5.04911 5.61266L5.17677 5.52801L5.20121 5.3768L4.8557 5.32096ZM4.39165 5.62865L4.19823 5.33695L4.18656 5.34468L4.17555 5.35333L4.39165 5.62865ZM3.95047 5.97493L3.73437 5.69961L3.70152 5.7254L3.67565 5.75819L3.95047 5.97493ZM3.60959 6.40716L3.33477 6.19042L3.31355 6.21732L3.29796 6.24783L3.60959 6.40716ZM3.35862 6.89806L3.04698 6.73874L3.03109 6.76982L3.02166 6.80342L3.35862 6.89806ZM3.20733 7.43667L3.48778 7.64606L3.5267 7.59394L3.54429 7.53131L3.20733 7.43667ZM2.87622 7.88013L2.59577 7.67073L2.55133 7.73025L2.5349 7.80269L2.87622 7.88013ZM2.75404 8.41865L2.98537 8.68131L3.07032 8.60649L3.09536 8.4961L2.75404 8.41865ZM2.28246 8.83399L2.05113 8.57134L1.96313 8.64885L1.93959 8.76374L2.28246 8.83399ZM2.1703 9.38139L1.82743 9.31114L1.81812 9.35655L1.82096 9.40281L2.1703 9.38139ZM2.20552 9.95585L2.55041 10.0154L2.55736 9.97518L2.55487 9.93443L2.20552 9.95585ZM2.11257 10.494L1.76767 10.4344L1.76565 10.4462L1.76442 10.458L2.11257 10.494ZM2.05643 11.0368L2.38767 11.1498L2.40049 11.1122L2.40457 11.0728L2.05643 11.0368ZM1.87284 11.5747L1.5416 11.4616L1.51835 11.5298L1.52388 11.6015L1.87284 11.5747ZM1.91546 12.1283L2.26446 12.1019L2.26443 12.1014L1.91546 12.1283ZM1.95698 12.6771L1.60797 12.7035L1.61403 12.7835L1.65434 12.8529L1.95698 12.6771ZM2.25727 13.194L2.60308 13.248L2.6222 13.1254L2.55991 13.0182L2.25727 13.194ZM2.16997 13.7535L1.82416 13.6995L1.81793 13.7394L1.82096 13.7797L2.16997 13.7535ZM2.21127 14.3034L1.86225 14.3296L1.86536 14.371L1.87807 14.4105L2.21127 14.3034ZM2.37927 14.8259L2.04607 14.933L2.06895 15.0042L2.11891 15.0598L2.37927 14.8259ZM2.77477 15.2661L3.0981 15.1321L3.07517 15.0768L3.03513 15.0322L2.77477 15.2661ZM2.97914 15.7593L3.31933 15.677L3.31292 15.6505L3.30247 15.6253L2.97914 15.7593ZM3.10736 16.2895L2.76717 16.3717L2.77747 16.4144L2.79796 16.4531L3.10736 16.2895ZM3.3593 16.7659L3.69168 16.6562L3.68246 16.6283L3.6687 16.6023L3.3593 16.7659ZM3.53308 17.2925L3.2007 17.4022L3.21764 17.4536L3.24928 17.4974L3.53308 17.2925ZM3.85204 17.7344L3.56824 17.9393L3.60438 17.9894L3.65548 18.024L3.85204 17.7344ZM4.32388 18.0547L4.65837 17.9516L4.62217 17.8342L4.52044 17.7651L4.32388 18.0547ZM4.49629 18.6143L4.16181 18.7174L4.18011 18.7768L4.21776 18.8262L4.49629 18.6143ZM4.82959 19.0523L4.55106 19.2642L4.61668 19.3505L4.71954 19.3846L4.82959 19.0523ZM5.40021 19.2413L5.66705 19.0148L5.60349 18.9399L5.51025 18.909L5.40021 19.2413ZM5.75213 19.6559L5.48529 19.8824L5.49516 19.894L5.50602 19.9048L5.75213 19.6559ZM6.13994 20.0394L5.89383 20.2883L5.9319 20.326L5.97949 20.3505L6.13994 20.0394ZM6.62493 20.2896L6.9188 20.0995L6.86819 20.0213L6.78537 19.9785L6.62493 20.2896ZM6.95422 20.7986L6.66036 20.9887L6.72565 21.0896L6.83916 21.1291L6.95422 20.7986ZM7.48159 20.9822L7.64884 20.6747L7.62369 20.661L7.59665 20.6516L7.48159 20.9822ZM7.96539 21.2454L7.79814 21.5528L7.8229 21.5663L7.84949 21.5756L7.96539 21.2454ZM8.48497 21.4277L8.36907 21.7579L8.40366 21.7701L8.44001 21.7748L8.48497 21.4277ZM9.03788 21.4993L9.22249 21.2019L9.15805 21.1619L9.08284 21.1522L9.03788 21.4993ZM9.52188 21.7998L9.33727 22.0971L9.46379 22.1757L9.60812 22.139L9.52188 21.7998ZM10.1129 21.6495L10.3245 21.3707L10.1902 21.2687L10.0267 21.3103L10.1129 21.6495ZM10.603 22.0214L10.3914 22.3002L10.4526 22.3467L10.5277 22.3632L10.603 22.0214ZM11.147 22.1412L11.0717 22.483L11.2081 22.513L11.3277 22.4409L11.147 22.1412ZM11.7122 21.8004L11.7464 21.4521L11.6309 21.4408L11.5315 21.5007L11.7122 21.8004ZM12.2504 21.8532L12.2162 22.2016L12.2366 22.2036L12.2571 22.2032L12.2504 21.8532ZM12.7892 21.843L12.8444 21.4974L12.8137 21.4925L12.7826 21.4931L12.7892 21.843ZM13.3448 21.9317L13.4088 21.5875L13.4 21.5861L13.3448 21.9317ZM13.9219 22.039L13.858 22.3831L14.0628 22.4212L14.1939 22.2593L13.9219 22.039ZM14.3617 21.4958L14.4409 21.1549L14.2276 21.1054L14.0897 21.2756L14.3617 21.4958ZM14.963 21.6354L14.8839 21.9764L15.0664 22.0187L15.2029 21.8903L14.963 21.6354ZM15.3982 21.2259L15.342 20.8804L15.2363 20.8976L15.1584 20.971L15.3982 21.2259ZM15.9443 21.1369L16.0006 21.4824L16.031 21.4774L16.0601 21.4672L15.9443 21.1369ZM16.4609 20.9558L16.5767 21.2861L16.6569 21.258L16.7153 21.1963L16.4609 20.9558ZM16.853 20.5411L16.6826 20.2354L16.6356 20.2616L16.5987 20.3006L16.853 20.5411ZM17.3222 20.2795L17.4927 20.5851L17.5022 20.5798L17.5115 20.5739L17.3222 20.2795ZM17.7748 19.9885L17.7089 19.6448L17.6424 19.6575L17.5855 19.6941L17.7748 19.9885ZM18.3742 19.8736L18.4401 20.2173L18.6032 20.1861L18.6822 20.0399L18.3742 19.8736ZM18.6529 19.3576L18.5616 19.0197L18.4165 19.059L18.345 19.1913L18.6529 19.3576ZM19.2572 19.1942L19.3486 19.5321L19.4452 19.506L19.5134 19.4328L19.2572 19.1942ZM19.6375 18.786L19.8936 19.0245L19.9366 18.9783L19.9608 18.9199L19.6375 18.786ZM19.8594 18.25L19.6589 17.9631L19.5752 18.0217L19.5361 18.1161L19.8594 18.25ZM20.3363 17.9166L20.5368 18.2034L20.6633 18.115L20.6833 17.962L20.3363 17.9166ZM20.4161 17.307L20.0896 17.1807L20.0745 17.2199L20.069 17.2616L20.4161 17.307ZM20.6139 16.7955L20.3201 16.6053L20.3004 16.6356L20.2874 16.6692L20.6139 16.7955ZM20.9084 16.3405L21.2022 16.5308L21.2358 16.4789L21.2496 16.4186L20.9084 16.3405ZM21.0309 15.8052L20.7615 15.5819L20.7083 15.646L20.6897 15.7272L21.0309 15.8052ZM21.3938 15.3675L21.6632 15.5909L21.6684 15.5846L21.6733 15.5781L21.3938 15.3675ZM21.7433 14.9036L22.0229 15.1142L22.1314 14.9701L22.0771 14.7981L21.7433 14.9036ZM21.5483 14.2867L21.3179 14.0232L21.1456 14.1739L21.2146 14.3922L21.5483 14.2867ZM22.0638 13.8359L22.2942 14.0994L22.5082 13.9123L22.369 13.6644L22.0638 13.8359ZM21.7237 13.2307L21.4213 13.0544L21.3204 13.2275L21.4186 13.4021L21.7237 13.2307ZM22.0239 12.7156L22.3263 12.8918L22.3455 12.8588L22.3572 12.8225L22.0239 12.7156ZM22.1988 12.17L22.5321 12.2768L22.5478 12.228L22.5488 12.1768L22.1988 12.17ZM22.2097 11.6114L22.5597 11.6183L22.562 11.4989L22.4909 11.403L22.2097 11.6114ZM21.8212 11.0874L21.4719 11.064L21.4633 11.1925L21.54 11.2959L21.8212 11.0874ZM21.858 10.538L22.2072 10.5615L22.21 10.5197L22.2029 10.4785L21.858 10.538ZM21.7654 10.0021L22.1103 9.94249L22.098 9.87145L22.0586 9.81105L21.7654 10.0021ZM21.4524 9.52168L21.1313 9.38259L21.0565 9.55515L21.1592 9.71271L21.4524 9.52168ZM21.7342 8.871L22.0554 9.01009L22.1294 8.83931L22.0291 8.6825L21.7342 8.871ZM21.4274 8.39096L21.7223 8.20246L21.7037 8.17333L21.6797 8.1484L21.4274 8.39096ZM21.0218 7.96904L20.6746 7.92486L20.6535 8.09092L20.7695 8.2116L21.0218 7.96904ZM21.1044 7.31992L21.4516 7.36409L21.4736 7.19076L21.3483 7.06897L21.1044 7.31992ZM20.6889 6.91602L20.4027 7.1175L20.4215 7.14421L20.4449 7.16698L20.6889 6.91602ZM20.3725 6.46664L20.6588 6.26513L20.6552 6.26018L20.3725 6.46664ZM20.0494 6.02438L20.3321 5.81792L20.3048 5.78057L20.2687 5.7516L20.0494 6.02438ZM19.6143 5.67457L19.3937 5.9463L19.395 5.94735L19.6143 5.67457ZM19.1906 5.33058L18.8643 5.457L18.8978 5.5437L18.97 5.6023L19.1906 5.33058ZM18.9776 4.78062L19.304 4.6542L19.2846 4.60419L19.2511 4.56227L18.9776 4.78062ZM18.6299 4.34506L18.9035 4.12671L18.8273 4.03133L18.7084 4.00397L18.6299 4.34506ZM18.0363 4.20847L17.8338 4.49397L17.8903 4.53402L17.9578 4.54955L18.0363 4.20847ZM17.5974 3.89724L17.7998 3.61173L17.7834 3.60008L17.7657 3.5904L17.5974 3.89724ZM17.1255 3.63834L17.2939 3.33146L17.2891 3.32889L17.1255 3.63834ZM16.6522 3.38824L16.8158 3.07879L16.8073 3.0743L16.7985 3.07028L16.6522 3.38824ZM16.1671 3.165L15.9224 3.4153L15.9657 3.45763L16.0208 3.48295L16.1671 3.165ZM15.7555 2.76275L16.0001 2.51245L15.931 2.4449L15.837 2.42238L15.7555 2.76275ZM15.224 2.63542L15.3055 2.29505L15.2786 2.28861L15.251 2.28647L15.224 2.63542ZM14.6744 2.59285L14.4512 2.86248L14.5367 2.93324L14.6473 2.94181L14.6744 2.59285ZM14.2135 2.21136L14.4366 1.94173L14.3541 1.87345L14.2475 1.86302L14.2135 2.21136ZM13.6671 2.1579L13.7012 1.80955L13.6983 1.80929L13.6671 2.1579ZM13.1244 2.10938L13.1555 1.76077L13.1046 1.75621L13.0544 1.76643L13.1244 2.10938ZM12.5736 2.22167L12.4217 2.53697L12.528 2.58819L12.6435 2.56462L12.5736 2.22167ZM12.0398 1.9644L12.1917 1.6491L11.9808 1.54744L11.8063 1.70364L12.0398 1.9644ZM12 4L12.0612 3.6554L11.7491 3.59994L11.6631 3.90511L12 4ZM12.0985 4.01749L12.0372 4.3621L12.1096 4.37496L12.1811 4.3576L12.0985 4.01749ZM12.5532 3.90703L12.613 3.56218L12.5413 3.54975L12.4706 3.56692L12.5532 3.90703ZM13.0987 4.0016L13.318 3.72878L13.2475 3.67218L13.1585 3.65674L13.0987 4.0016ZM13.5805 4.38877L13.3612 4.66159L13.4696 4.74872L13.6083 4.73766L13.5805 4.38877ZM14.1438 4.34384L14.2144 4.00104L14.1656 3.99099L14.1159 3.99495L14.1438 4.34384ZM14.6801 4.45437L14.9121 4.19231L14.8422 4.13042L14.7508 4.11157L14.6801 4.45437ZM15.1098 4.83476L14.8778 5.09682L14.9478 5.15873L15.0392 5.17757L15.1098 4.83476ZM15.6527 4.94655L15.8903 4.68955L15.8187 4.6234L15.7233 4.60375L15.6527 4.94655ZM16.0585 5.32172L15.8209 5.57872L15.8666 5.62092L15.9239 5.64482L16.0585 5.32172ZM16.5636 5.53206L16.7557 5.23951L16.7284 5.22154L16.6981 5.20896L16.5636 5.53206ZM17.0179 5.83045L16.8257 6.1232L16.8367 6.12986L17.0179 5.83045ZM17.493 6.11802L17.8274 6.01456L17.788 5.88749L17.6743 5.81861L17.493 6.11802ZM17.6734 6.70115L17.3391 6.80461L17.4032 7.01175L17.6172 7.0466L17.6734 6.70115ZM18.3745 6.8153L18.7231 6.78424L18.699 6.51354L18.4307 6.46985L18.3745 6.8153ZM18.4321 7.46164L18.0834 7.4927L18.0926 7.59502L18.1555 7.67618L18.4321 7.46164ZM18.7639 7.88942L18.6441 8.21827L19.7845 8.63384L19.0405 7.67488L18.7639 7.88942ZM18.3047 7.72207L18.4246 7.39322L18.2196 7.31854L18.0623 7.46962L18.3047 7.72207ZM17.7956 8.21101L17.6636 8.5352L17.8741 8.62083L18.038 8.46346L17.7956 8.21101ZM17.2407 7.98523L17.0928 8.30245L17.1007 8.30613L17.1087 8.30942L17.2407 7.98523ZM16.7176 7.74138L16.8655 7.42417L16.6995 7.34676L16.5413 7.43906L16.7176 7.74138ZM16.1197 8.09017L15.9388 8.38976L16.1166 8.49719L16.2961 8.39249L16.1197 8.09017ZM15.6173 7.78669L15.7983 7.48701L15.7908 7.4827L15.6173 7.78669ZM15.132 7.50975L15.3055 7.20577L15.2937 7.19903L15.2814 7.19323L15.132 7.50975ZM14.6454 7.28009L14.7948 6.96357L14.696 6.91697L14.5883 6.93477L14.6454 7.28009ZM14.0036 7.38616L13.7826 7.65761L13.905 7.75719L14.0606 7.73147L14.0036 7.38616ZM13.5648 7.02904L13.7857 6.75759L13.7633 6.73932L13.7382 6.72498L13.5648 7.02904ZM13.0862 6.75616L12.9007 7.0533L12.9128 7.06021L13.0862 6.75616ZM12.6168 6.46317L12.8021 6.16626L12.7901 6.15874L12.7774 6.15222L12.6168 6.46317ZM12.1107 6.20168L11.7659 6.26163L11.7956 6.43285L11.95 6.51263L12.1107 6.20168ZM11.9932 5.5259L12.338 5.46595L12.314 5.32771L12.2011 5.24436L11.9932 5.5259ZM11.554 5.20155L11.3362 5.47578L11.3461 5.48309L11.554 5.20155ZM11.1178 4.85504L10.848 5.07797L10.8714 5.10627L10.9001 5.1291L11.1178 4.85504ZM10.7668 4.43016L10.4265 4.34837L10.3856 4.51833L10.4969 4.65309L10.7668 4.43016ZM10.8722 3.99154L11.0117 3.67057L10.6293 3.50429L10.5319 3.90975L10.8722 3.99154ZM11.4457 4.24089L11.3061 4.56186L11.4202 4.61145L11.5399 4.57795L11.4457 4.24089ZM11.9737 4.0932L12.068 4.43026L12.2573 4.37731L12.3106 4.18809L11.9737 4.0932ZM8.08 5.03L8.38752 5.19713L8.48032 5.02638L8.38444 4.85733L8.08 5.03ZM8.03225 5.11786L8.28173 5.36334L8.31626 5.32825L8.33976 5.285L8.03225 5.11786ZM7.69453 5.46109L7.44505 5.21561L7.33915 5.32324L7.34477 5.47411L7.69453 5.46109ZM7.71702 6.06508L7.97378 6.30293L8.07216 6.19673L8.06678 6.05206L7.71702 6.06508ZM7.33428 6.47824L7.07752 6.24038L7.05441 6.26532L7.03654 6.29425L7.33428 6.47824ZM7.05013 6.93805L7.31439 7.16754L7.33297 7.14615L7.34787 7.12204L7.05013 6.93805ZM6.69536 7.34659L6.43109 7.1171L6.37065 7.1867L6.35234 7.27704L6.69536 7.34659ZM6.57157 7.95708L6.68811 8.28711L6.87517 8.22106L6.91459 8.02663L6.57157 7.95708ZM5.9927 8.16149L5.87616 7.83146L5.75393 7.87462L5.6893 7.98698L5.9927 8.16149ZM5.7074 8.65753L5.98137 8.87534L5.9977 8.85479L6.01079 8.83203L5.7074 8.65753ZM5.35267 9.10373L5.44892 9.44023L5.55681 9.40937L5.62664 9.32154L5.35267 9.10373ZM4.79158 9.26423L4.83962 9.61091L4.86408 9.60752L4.88783 9.60073L4.79158 9.26423ZM4.36923 9.32275L4.10855 9.0892L3.47123 9.80053L4.41727 9.66944L4.36923 9.32275ZM4.75781 8.88904L5.01849 9.12259L5.07327 9.06145L5.09515 8.98234L4.75781 8.88904ZM4.90436 8.35917L4.58641 8.21287L4.57457 8.23859L4.56703 8.26587L4.90436 8.35917ZM5.13343 7.86135L5.45139 8.00765L5.45196 8.0064L5.13343 7.86135ZM5.36419 7.35463L5.13007 7.09446L5.07588 7.14323L5.04566 7.20958L5.36419 7.35463ZM5.78063 6.97989L5.6171 6.67044L5.57875 6.69071L5.54651 6.71972L5.78063 6.97989ZM6.29222 6.70953L6.45575 7.01898L6.49913 6.99606L6.53454 6.96209L6.29222 6.70953ZM6.67576 6.34156L6.91807 6.59411L6.96641 6.54773L6.99421 6.48676L6.67576 6.34156ZM6.92066 5.80444L6.81725 5.47007L6.66732 5.51644L6.60221 5.65924L6.92066 5.80444ZM7.4713 5.63415L7.57471 5.96852L7.66972 5.93914L7.73508 5.8642L7.4713 5.63415ZM7.83822 5.21344L8.102 5.44349L8.14159 5.3981L8.16373 5.34208L7.83822 5.21344ZM7.98023 4.85409L8.28467 4.68142L7.92367 4.0449L7.65473 4.72546L7.98023 4.85409ZM12 20H12.35V19.7064L12.0609 19.6553L12 20ZM11.9015 19.9826L11.9624 19.6379L11.916 19.6297L11.8689 19.6341L11.9015 19.9826ZM11.451 20.0247L11.4553 20.3747L11.4694 20.3745L11.4836 20.3732L11.451 20.0247ZM10.8964 20.0315L10.8922 19.6813L10.8806 19.6818L10.8964 20.0315ZM10.3267 20.0573L10.1009 20.3247L10.2056 20.4131L10.3425 20.4069L10.3267 20.0573ZM9.85512 19.6592L10.0809 19.3918L10.0052 19.3279L9.90732 19.3131L9.85512 19.6592ZM9.3088 19.5768L9.21726 19.9146L9.23669 19.9199L9.2566 19.9229L9.3088 19.5768ZM8.77379 19.4319L8.52289 19.6759L8.58973 19.7446L8.68225 19.7697L8.77379 19.4319ZM8.3679 19.0146L8.6188 18.7705L8.61046 18.7619L8.60156 18.754L8.3679 19.0146ZM7.95998 18.6488L8.19364 18.3882L8.12755 18.3289L8.04121 18.3083L7.95998 18.6488ZM7.40354 18.516L7.16035 18.7677L7.2292 18.8343L7.32232 18.8565L7.40354 18.516ZM7.01087 18.1367L7.25405 17.8849L7.18615 17.8193L7.09447 17.7968L7.01087 18.1367ZM6.41032 17.9889L6.17494 18.248L6.24058 18.3076L6.32671 18.3288L6.41032 17.9889ZM5.99531 17.6118L5.67276 17.7477L5.70276 17.8189L5.75994 17.8709L5.99531 17.6118ZM5.76844 17.0733L5.43828 17.1895L5.44179 17.1994L5.44589 17.2092L5.76844 17.0733ZM5.5792 16.5354L5.90937 16.4193L5.89257 16.3715L5.86294 16.3305L5.5792 16.5354ZM5.26417 16.0992L4.93145 16.2078L4.94842 16.2598L4.98043 16.3041L5.26417 16.0992ZM5.095 15.5809L5.42772 15.4723L5.41533 15.4343L5.3947 15.4001L5.095 15.5809ZM4.8186 15.1227L4.48969 15.2423L4.50132 15.2743L4.5189 15.3034L4.8186 15.1227ZM4.63604 14.6208L4.96495 14.5011L4.92965 14.4041L4.84735 14.3418L4.63604 14.6208ZM4.10311 14.2172L3.76525 14.1258L3.70362 14.3537L3.8918 14.4962L4.10311 14.2172ZM4.26698 13.6113L4.60484 13.7027L4.61618 13.6608L4.61693 13.6174L4.26698 13.6113ZM4.2764 13.0666L4.62634 13.0727L4.6278 12.9881L4.5905 12.9122L4.2764 13.0666ZM4.02297 12.5511L3.67447 12.5187L3.66536 12.617L3.70887 12.7055L4.02297 12.5511ZM4.07362 12.0053L3.90506 11.6985L3.74228 11.788L3.72512 11.9729L4.07362 12.0053ZM4.41904 11.8154L4.58761 12.1222L4.59132 12.1201L4.41904 11.8154ZM4.90062 11.5431L5.0729 11.8478L5.09528 11.8351L5.11556 11.8193L4.90062 11.5431ZM5.33952 11.2016L5.5545 11.4779L5.55942 11.4739L5.33952 11.2016ZM5.76579 10.8574L5.74754 10.5078L5.6342 10.5138L5.5459 10.5851L5.76579 10.8574ZM6.40364 10.824L6.42189 11.1736L6.57694 11.1655L6.675 11.0451L6.40364 10.824ZM6.76426 10.3814L6.61744 10.0636L6.544 10.0976L6.4929 10.1603L6.76426 10.3814ZM7.28564 10.1404L7.43245 10.4581L7.5582 10.4L7.61012 10.2716L7.28564 10.1404ZM7.51357 9.57665L7.29501 9.30329L7.22343 9.36051L7.18909 9.44547L7.51357 9.57665ZM7.94414 9.23241L8.16282 9.50594L8.17181 9.49824L7.94414 9.23241ZM8.36733 8.86995L8.59501 9.13577L8.60236 9.12947L8.60935 9.12278L8.36733 8.86995ZM8.77316 8.48147L9.01519 8.7343L9.11801 8.63588L9.12295 8.49363L8.77316 8.48147ZM8.79575 7.83207L8.57353 7.56167L8.45145 7.66199L8.44596 7.81991L8.79575 7.83207ZM9.24079 7.46633L9.46302 7.73673L9.5807 7.64001L9.59012 7.48798L9.24079 7.46633ZM9.2777 6.87085L8.98372 6.68091L8.93403 6.75782L8.92837 6.8492L9.2777 6.87085ZM9.57207 6.41525L9.83144 6.18025L9.52543 5.8425L9.27809 6.22531L9.57207 6.41525ZM9.84009 6.71106L9.58072 6.94607L9.65439 7.02738L9.76129 7.05208L9.84009 6.71106ZM10.4854 6.86017L10.7395 6.61944L10.6669 6.54289L10.5642 6.51915L10.4854 6.86017ZM10.8548 7.25003L11.1314 7.03555L11.1207 7.02187L11.1088 7.00931L10.8548 7.25003ZM11.1921 7.68497L10.9155 7.89945L10.9481 7.94156L10.9918 7.97204L11.1921 7.68497ZM11.6375 7.9956L11.8526 7.71956L11.8453 7.71384L11.8377 7.70852L11.6375 7.9956ZM12.0657 8.32946L11.8505 8.6055L11.8893 8.6357L11.9348 8.65406L12.0657 8.32946ZM12.5743 8.53456L12.8862 8.37571L12.8267 8.25896L12.7052 8.20996L12.5743 8.53456ZM12.8761 9.12713L12.5643 9.28598L12.6546 9.46336L12.8533 9.47638L12.8761 9.12713ZM13.4694 9.16602L13.5985 8.84071L13.5473 8.82037L13.4923 8.81676L13.4694 9.16602ZM13.9773 9.36764L13.8482 9.69294L13.9108 9.71781L13.9782 9.71764L13.9773 9.36764ZM14.5504 9.36622L14.7577 9.08418L14.6648 9.01594L14.5496 9.01623L14.5504 9.36622ZM15.0158 9.70814L14.8085 9.99019L14.9228 10.0742L15.0634 10.0549L15.0158 9.70814ZM15.5888 9.6295L15.8134 9.36112L15.6947 9.26169L15.5412 9.28275L15.5888 9.6295ZM16.0722 10.0342L15.8476 10.3025L15.9449 10.384L16.0719 10.3842L16.0722 10.0342ZM16.6272 10.0347L16.704 9.69319L16.6662 9.6847L16.6275 9.68466L16.6272 10.0347ZM17.1732 10.1575L17.0964 10.4989L17.1394 10.5086L17.1834 10.5073L17.1732 10.1575ZM17.7275 10.1413L17.7551 9.79237L17.7362 9.79087L17.7173 9.79143L17.7275 10.1413ZM18.2862 10.1855L18.2586 10.5344L18.3949 10.5452L18.5024 10.4608L18.2862 10.1855ZM18.795 9.78576L18.7046 9.44765L18.6352 9.4662L18.5788 9.51054L18.795 9.78576ZM19.3168 9.64618L19.4813 9.33729L19.3596 9.27241L19.2263 9.30807L19.3168 9.64618ZM19.862 9.93667L20.1858 9.80394L20.138 9.68714L20.0266 9.62778L19.862 9.93667ZM20.0764 10.4599L20.3867 10.6218L20.462 10.4776L20.4003 10.3272L20.0764 10.4599ZM19.7605 11.0653L19.4502 10.9034L19.3628 11.0709L19.4549 11.2359L19.7605 11.0653ZM20.0496 11.5831L20.3926 11.6527L20.4183 11.5257L20.3552 11.4126L20.0496 11.5831ZM19.9383 12.1318L19.5953 12.0622L19.5915 12.0809L19.5897 12.0998L19.9383 12.1318ZM19.8889 12.671L19.5403 12.6391L19.5376 12.6687L19.5399 12.6984L19.8889 12.671ZM19.9322 13.2235L20.2409 13.3885L20.2892 13.2982L20.2812 13.1962L19.9322 13.2235ZM19.6644 13.7247L19.3557 13.5597L19.2902 13.6824L19.3267 13.8166L19.6644 13.7247ZM19.83 14.333L20.1164 14.5342L20.2109 14.3997L20.1677 14.2411L19.83 14.333ZM19.4992 14.804L19.2128 14.6028L19.177 14.6539L19.1609 14.7141L19.4992 14.804ZM19.3569 15.3393L19.0187 15.2495L19.0163 15.2584L19.0144 15.2675L19.3569 15.3393ZM19.2389 15.902L19.4313 16.1944L19.5518 16.1151L19.5815 15.9738L19.2389 15.902ZM18.7245 16.2403L18.5322 15.9479L18.508 15.9638L18.4867 15.9835L18.7245 16.2403ZM18.3191 16.6157L18.0813 16.3589L17.9929 16.4407L17.9737 16.5597L18.3191 16.6157ZM18.2195 17.23L18.3351 17.5604L18.5317 17.4916L18.565 17.286L18.2195 17.23ZM17.6336 17.4351L17.518 17.1047L17.3423 17.1662L17.295 17.3463L17.6336 17.4351ZM17.4718 18.0525L17.5017 18.4012L17.7477 18.3801L17.8103 18.1412L17.4718 18.0525ZM16.8077 18.1095L16.7778 17.7608L16.5292 17.7821L16.4683 18.0241L16.8077 18.1095ZM16.6349 18.7965L16.6354 19.1465L16.9078 19.1461L16.9743 18.8819L16.6349 18.7965ZM15.9843 18.7975L15.9838 18.4475L15.853 18.4477L15.7544 18.5336L15.9843 18.7975ZM15.5657 19.1623L15.7173 19.4777L15.76 19.4572L15.7957 19.4261L15.5657 19.1623ZM15.0731 19.3989L14.9215 19.0834L14.8925 19.0974L14.8664 19.1164L15.0731 19.3989ZM14.6108 19.7371L14.6257 20.0867L14.7317 20.0822L14.8174 20.0195L14.6108 19.7371ZM14.041 19.7613L14.0262 19.4116L14.0136 19.4121L14.0011 19.4136L14.041 19.7613ZM13.496 19.8239L13.4561 19.4762L13.4483 19.4771L13.4407 19.4783L13.496 19.8239ZM12.9593 19.9098L12.904 19.5642L12.8643 19.5706L12.827 19.5858L12.9593 19.9098ZM12.4261 20.1275L12.3325 20.4648L12.4477 20.4967L12.5584 20.4516L12.4261 20.1275ZM12 20.0093H11.65V20.2755L11.9064 20.3466L12 20.0093ZM12 2L11.9514 1.65339L11.8524 1.66727L11.901 2.01388L11.9496 2.36049L12.0486 2.34661L12 2ZM11.901 2.01388L11.8284 1.67149L11.3865 1.76517L11.4591 2.10756L11.5316 2.44995L11.9735 2.35627L11.901 2.01388ZM11.4591 2.10756L11.5656 1.77418L11.002 1.59399L10.8955 1.92737L10.7889 2.26075L11.3525 2.44093L11.4591 2.10756ZM10.8955 1.92737L10.8332 1.58295L10.2889 1.68129L10.3511 2.02571L10.4133 2.37014L10.9577 2.27179L10.8955 1.92737ZM10.3511 2.02571L10.1457 1.74235L9.65869 2.09542L9.86413 2.37878L10.0696 2.66214L10.5566 2.30907L10.3511 2.02571ZM9.86413 2.37878L9.96001 2.04217L9.3533 1.86935L9.25742 2.20597L9.16154 2.54258L9.76825 2.71539L9.86413 2.37878ZM9.25742 2.20597L9.0614 1.91601L8.58475 2.23823L8.78077 2.52819L8.97679 2.81815L9.45344 2.49593L9.25742 2.20597ZM8.78077 2.52819L8.71462 2.1845L8.16854 2.28961L8.2347 2.6333L8.30085 2.97699L8.84693 2.87188L8.78077 2.52819ZM8.2347 2.6333L7.971 2.40316L7.57513 2.85673L7.83882 3.08688L8.10251 3.31702L8.49839 2.86345L8.2347 2.6333ZM7.83882 3.08688L7.87058 2.73832L7.23021 2.67998L7.19846 3.02854L7.1667 3.37709L7.80707 3.43543L7.83882 3.08688ZM7.19846 3.02854L6.93111 2.80264L6.55332 3.24977L6.82066 3.47566L7.08801 3.70155L7.4658 3.25443L7.19846 3.02854ZM6.82066 3.47566L6.55657 3.24597L6.18752 3.6703L6.45162 3.89999L6.71571 4.12967L7.08475 3.70534L6.82066 3.47566ZM6.45162 3.89999L6.33128 3.57133L5.80367 3.7645L5.924 4.09317L6.04434 4.42183L6.57195 4.22865L6.45162 3.89999ZM5.924 4.09317L5.78441 3.77221L5.26194 3.99944L5.40153 4.3204L5.54112 4.64136L6.06359 4.41413L5.924 4.09317ZM5.40153 4.3204L5.18708 4.04379L4.74793 4.38426L4.96238 4.66087L5.17683 4.93747L5.61598 4.59701L5.40153 4.3204ZM4.96238 4.66087L4.61686 4.60503L4.51018 5.26511L4.8557 5.32096L5.20121 5.3768L5.3079 4.71671L4.96238 4.66087ZM4.8557 5.32096L4.66228 5.02925L4.19823 5.33695L4.39165 5.62865L4.58507 5.92035L5.04911 5.61266L4.8557 5.32096ZM4.39165 5.62865L4.17555 5.35333L3.73437 5.69961L3.95047 5.97493L4.16657 6.25025L4.60775 5.90397L4.39165 5.62865ZM3.95047 5.97493L3.67565 5.75819L3.33477 6.19042L3.60959 6.40716L3.88441 6.6239L4.22529 6.19167L3.95047 5.97493ZM3.60959 6.40716L3.29796 6.24783L3.04698 6.73874L3.35862 6.89806L3.67025 7.05739L3.92123 6.56648L3.60959 6.40716ZM3.35862 6.89806L3.02166 6.80342L2.87037 7.34202L3.20733 7.43667L3.54429 7.53131L3.69558 6.99271L3.35862 6.89806ZM3.20733 7.43667L2.92688 7.22727L2.59577 7.67073L2.87622 7.88013L3.15668 8.08953L3.48778 7.64606L3.20733 7.43667ZM2.87622 7.88013L2.5349 7.80269L2.41271 8.34121L2.75404 8.41865L3.09536 8.4961L3.21755 7.95757L2.87622 7.88013ZM2.75404 8.41865L2.52271 8.156L2.05113 8.57134L2.28246 8.83399L2.51379 9.09664L2.98537 8.68131L2.75404 8.41865ZM2.28246 8.83399L1.93959 8.76374L1.82743 9.31114L2.1703 9.38139L2.51318 9.45165L2.62534 8.90424L2.28246 8.83399ZM2.1703 9.38139L1.82096 9.40281L1.85618 9.97726L2.20552 9.95585L2.55487 9.93443L2.51965 9.35998L2.1703 9.38139ZM2.20552 9.95585L1.86063 9.89628L1.76767 10.4344L2.11257 10.494L2.45746 10.5536L2.55041 10.0154L2.20552 9.95585ZM2.11257 10.494L1.76442 10.458L1.70829 11.0007L2.05643 11.0368L2.40457 11.0728L2.46071 10.53L2.11257 10.494ZM2.05643 11.0368L1.72519 10.9237L1.5416 11.4616L1.87284 11.5747L2.20408 11.6877L2.38767 11.1498L2.05643 11.0368ZM1.87284 11.5747L1.52388 11.6015L1.56649 12.1551L1.91546 12.1283L2.26443 12.1014L2.22181 11.5478L1.87284 11.5747ZM1.91546 12.1283L1.56645 12.1547L1.60797 12.7035L1.95698 12.6771L2.30598 12.6507L2.26446 12.1019L1.91546 12.1283ZM1.95698 12.6771L1.65434 12.8529L1.95463 13.3698L2.25727 13.194L2.55991 13.0182L2.25961 12.5013L1.95698 12.6771ZM2.25727 13.194L1.91145 13.1401L1.82416 13.6995L2.16997 13.7535L2.51579 13.8074L2.60308 13.248L2.25727 13.194ZM2.16997 13.7535L1.82096 13.7797L1.86225 14.3296L2.21127 14.3034L2.56028 14.2772L2.51899 13.7273L2.16997 13.7535ZM2.21127 14.3034L1.87807 14.4105L2.04607 14.933L2.37927 14.8259L2.71247 14.7188L2.54447 14.1963L2.21127 14.3034ZM2.37927 14.8259L2.11891 15.0598L2.51441 15.5L2.77477 15.2661L3.03513 15.0322L2.63963 14.592L2.37927 14.8259ZM2.77477 15.2661L2.45144 15.4001L2.65581 15.8933L2.97914 15.7593L3.30247 15.6253L3.0981 15.1321L2.77477 15.2661ZM2.97914 15.7593L2.63895 15.8415L2.76717 16.3717L3.10736 16.2895L3.44755 16.2072L3.31933 15.677L2.97914 15.7593ZM3.10736 16.2895L2.79796 16.4531L3.0499 16.9295L3.3593 16.7659L3.6687 16.6023L3.41676 16.1259L3.10736 16.2895ZM3.3593 16.7659L3.02693 16.8756L3.2007 17.4022L3.53308 17.2925L3.86545 17.1829L3.69168 16.6562L3.3593 16.7659ZM3.53308 17.2925L3.24928 17.4974L3.56824 17.9393L3.85204 17.7344L4.13583 17.5296L3.81687 17.0877L3.53308 17.2925ZM3.85204 17.7344L3.65548 18.024L4.12733 18.3443L4.32388 18.0547L4.52044 17.7651L4.04859 17.4448L3.85204 17.7344ZM4.32388 18.0547L3.9894 18.1578L4.16181 18.7174L4.49629 18.6143L4.83078 18.5113L4.65837 17.9516L4.32388 18.0547ZM4.49629 18.6143L4.21776 18.8262L4.55106 19.2642L4.82959 19.0523L5.10812 18.8404L4.77482 18.4024L4.49629 18.6143ZM4.82959 19.0523L4.71954 19.3846L5.29017 19.5735L5.40021 19.2413L5.51025 18.909L4.93963 18.7201L4.82959 19.0523ZM5.40021 19.2413L5.13337 19.4678L5.48529 19.8824L5.75213 19.6559L6.01897 19.4294L5.66705 19.0148L5.40021 19.2413ZM5.75213 19.6559L5.50602 19.9048L5.89383 20.2883L6.13994 20.0394L6.38605 19.7906L5.99824 19.4071L5.75213 19.6559ZM6.13994 20.0394L5.97949 20.3505L6.46449 20.6007L6.62493 20.2896L6.78537 19.9785L6.30038 19.7284L6.13994 20.0394ZM6.62493 20.2896L6.33107 20.4797L6.66036 20.9887L6.95422 20.7986L7.24809 20.6085L6.9188 20.0995L6.62493 20.2896ZM6.95422 20.7986L6.83916 21.1291L7.36652 21.3127L7.48159 20.9822L7.59665 20.6516L7.06929 20.4681L6.95422 20.7986ZM7.48159 20.9822L7.31434 21.2896L7.79814 21.5528L7.96539 21.2454L8.13264 20.9379L7.64884 20.6747L7.48159 20.9822ZM7.96539 21.2454L7.84949 21.5756L8.36907 21.7579L8.48497 21.4277L8.60086 21.0974L8.08128 20.9151L7.96539 21.2454ZM8.48497 21.4277L8.44001 21.7748L8.99293 21.8464L9.03788 21.4993L9.08284 21.1522L8.52993 21.0806L8.48497 21.4277ZM9.03788 21.4993L8.85328 21.7967L9.33727 22.0971L9.52188 21.7998L9.70648 21.5024L9.22249 21.2019L9.03788 21.4993ZM9.52188 21.7998L9.60812 22.139L10.1992 21.9887L10.1129 21.6495L10.0267 21.3103L9.43564 21.4606L9.52188 21.7998ZM10.1129 21.6495L9.90135 21.9283L10.3914 22.3002L10.603 22.0214L10.8146 21.7426L10.3245 21.3707L10.1129 21.6495ZM10.603 22.0214L10.5277 22.3632L11.0717 22.483L11.147 22.1412L11.2222 21.7994L10.6782 21.6796L10.603 22.0214ZM11.147 22.1412L11.3277 22.4409L11.8929 22.1002L11.7122 21.8004L11.5315 21.5007L10.9662 21.8415L11.147 22.1412ZM11.7122 21.8004L11.678 22.1487L12.2162 22.2016L12.2504 21.8532L12.2846 21.5049L11.7464 21.4521L11.7122 21.8004ZM12.2504 21.8532L12.2571 22.2032L12.7959 22.193L12.7892 21.843L12.7826 21.4931L12.2438 21.5033L12.2504 21.8532ZM12.7892 21.843L12.734 22.1886L13.2896 22.2774L13.3448 21.9317L13.4 21.5861L12.8444 21.4974L12.7892 21.843ZM13.3448 21.9317L13.2809 22.2759L13.858 22.3831L13.9219 22.039L13.9859 21.6949L13.4088 21.5876L13.3448 21.9317ZM13.9219 22.039L14.1939 22.2593L14.6338 21.7161L14.3617 21.4958L14.0897 21.2756L13.6499 21.8188L13.9219 22.039ZM14.3617 21.4958L14.2826 21.8368L14.8839 21.9764L14.963 21.6354L15.0422 21.2945L14.4409 21.1549L14.3617 21.4958ZM14.963 21.6354L15.2029 21.8903L15.6381 21.4807L15.3982 21.2259L15.1584 20.971L14.7232 21.3806L14.963 21.6354ZM15.3982 21.2259L15.4545 21.5713L16.0006 21.4824L15.9443 21.1369L15.8881 20.7915L15.342 20.8804L15.3982 21.2259ZM15.9443 21.1369L16.0601 21.4672L16.5767 21.2861L16.4609 20.9558L16.3452 20.6255L15.8286 20.8066L15.9443 21.1369ZM16.4609 20.9558L16.7153 21.1963L17.1074 20.7815L16.853 20.5411L16.5987 20.3006L16.2066 20.7154L16.4609 20.9558ZM16.853 20.5411L17.0235 20.8468L17.4927 20.5851L17.3222 20.2795L17.1518 19.9738L16.6826 20.2354L16.853 20.5411ZM17.3222 20.2795L17.5115 20.5739L17.964 20.2829L17.7748 19.9885L17.5855 19.6941L17.1329 19.985L17.3222 20.2795ZM17.7748 19.9885L17.8407 20.3323L18.4401 20.2173L18.3742 19.8736L18.3083 19.5299L17.7089 19.6448L17.7748 19.9885ZM18.3742 19.8736L18.6822 20.0399L18.9609 19.524L18.6529 19.3576L18.345 19.1913L18.0663 19.7072L18.3742 19.8736ZM18.6529 19.3576L18.7443 19.6955L19.3486 19.5321L19.2572 19.1942L19.1659 18.8563L18.5616 19.0197L18.6529 19.3576ZM19.2572 19.1942L19.5134 19.4328L19.8936 19.0245L19.6375 18.786L19.3813 18.5475L19.0011 18.9557L19.2572 19.1942ZM19.6375 18.786L19.9608 18.9199L20.1828 18.3839L19.8594 18.25L19.5361 18.1161L19.3141 18.6521L19.6375 18.786ZM19.8594 18.25L20.06 18.5368L20.5368 18.2034L20.3363 17.9166L20.1358 17.6297L19.6589 17.9631L19.8594 18.25ZM20.3363 17.9166L20.6833 17.962L20.7631 17.3524L20.4161 17.307L20.069 17.2616L19.9893 17.8712L20.3363 17.9166ZM20.4161 17.307L20.7425 17.4332L20.9403 16.9217L20.6139 16.7955L20.2874 16.6692L20.0896 17.1807L20.4161 17.307ZM20.6139 16.7955L20.9077 16.9857L21.2022 16.5308L20.9084 16.3405L20.6146 16.1503L20.3201 16.6053L20.6139 16.7955ZM20.9084 16.3405L21.2496 16.4186L21.3721 15.8833L21.0309 15.8052L20.6897 15.7272L20.5672 16.2625L20.9084 16.3405ZM21.0309 15.8052L21.3004 16.0286L21.6632 15.5909L21.3938 15.3675L21.1244 15.1441L20.7615 15.5819L21.0309 15.8052ZM21.3938 15.3675L21.6733 15.5781L22.0229 15.1142L21.7433 14.9036L21.4638 14.693L21.1143 15.1569L21.3938 15.3675ZM21.7433 14.9036L22.0771 14.7981L21.882 14.1812L21.5483 14.2867L21.2146 14.3922L21.4096 15.0091L21.7433 14.9036ZM21.5483 14.2867L21.7787 14.5502L22.2942 14.0994L22.0638 13.8359L21.8334 13.5724L21.3179 14.0232L21.5483 14.2867ZM22.0638 13.8359L22.369 13.6644L22.0288 13.0592L21.7237 13.2307L21.4186 13.4021L21.7587 14.0074L22.0638 13.8359ZM21.7237 13.2307L22.0261 13.4069L22.3263 12.8918L22.0239 12.7156L21.7215 12.5394L21.4213 13.0544L21.7237 13.2307ZM22.0239 12.7156L22.3572 12.8225L22.5321 12.2768L22.1988 12.17L21.8656 12.0631L21.6906 12.6087L22.0239 12.7156ZM22.1988 12.17L22.5488 12.1768L22.5597 11.6183L22.2097 11.6114L21.8598 11.6046L21.8489 12.1632L22.1988 12.17ZM22.2097 11.6114L22.4909 11.403L22.1023 10.8789L21.8212 11.0874L21.54 11.2959L21.9286 11.8199L22.2097 11.6114ZM21.8212 11.0874L22.1704 11.1108L22.2072 10.5615L21.858 10.538L21.5088 10.5146L21.4719 11.064L21.8212 11.0874ZM21.858 10.538L22.2029 10.4785L22.1103 9.94249L21.7654 10.0021L21.4205 10.0617L21.5131 10.5976L21.858 10.538ZM21.7654 10.0021L22.0586 9.81105L21.7457 9.33065L21.4524 9.52168L21.1592 9.71271L21.4721 10.1931L21.7654 10.0021ZM21.4524 9.52168L21.7736 9.66077L22.0554 9.01009L21.7342 8.871L21.4131 8.7319L21.1313 9.38259L21.4524 9.52168ZM21.7342 8.871L22.0291 8.6825L21.7223 8.20246L21.4274 8.39096L21.1325 8.57946L21.4393 9.0595L21.7342 8.871ZM21.4274 8.39096L21.6797 8.1484L21.2741 7.72647L21.0218 7.96904L20.7695 8.2116L21.1751 8.63353L21.4274 8.39096ZM21.0218 7.96904L21.369 8.01321L21.4516 7.36409L21.1044 7.31992L20.7572 7.27575L20.6746 7.92486L21.0218 7.96904ZM21.1044 7.31992L21.3483 7.06897L20.9329 6.66506L20.6889 6.91602L20.4449 7.16698L20.8604 7.57088L21.1044 7.31992ZM20.6889 6.91602L20.9751 6.71454L20.6587 6.26516L20.3725 6.46664L20.0863 6.66812L20.4027 7.1175L20.6889 6.91602ZM20.3725 6.46664L20.6552 6.26018L20.3321 5.81792L20.0494 6.02438L19.7668 6.23084L20.0899 6.6731L20.3725 6.46664ZM20.0494 6.02438L20.2687 5.7516L19.8336 5.40179L19.6143 5.67457L19.395 5.94735L19.8301 6.29716L20.0494 6.02438ZM19.6143 5.67457L19.8349 5.40285L19.4112 5.05885L19.1906 5.33058L18.97 5.6023L19.3937 5.9463L19.6143 5.67457ZM19.1906 5.33058L19.517 5.20416L19.304 4.6542L18.9776 4.78062L18.6512 4.90704L18.8643 5.457L19.1906 5.33058ZM18.9776 4.78062L19.2511 4.56227L18.9035 4.12671L18.6299 4.34506L18.3564 4.56341L18.7041 4.99897L18.9776 4.78062ZM18.6299 4.34506L18.7084 4.00397L18.1148 3.86738L18.0363 4.20847L17.9578 4.54955L18.5514 4.68614L18.6299 4.34506ZM18.0363 4.20847L18.2387 3.92296L17.7998 3.61173L17.5974 3.89724L17.3949 4.18275L17.8338 4.49397L18.0363 4.20847ZM17.5974 3.89724L17.7657 3.5904L17.2939 3.3315L17.1255 3.63834L16.9572 3.94519L17.429 4.20409L17.5974 3.89724ZM17.1255 3.63834L17.2891 3.32889L16.8158 3.07879L16.6522 3.38824L16.4887 3.69769L16.962 3.94779L17.1255 3.63834ZM16.6522 3.38824L16.7985 3.07028L16.3134 2.84704L16.1671 3.165L16.0208 3.48295L16.5059 3.70619L16.6522 3.38824ZM16.1671 3.165L16.4117 2.91469L16.0001 2.51245L15.7555 2.76275L15.5109 3.01306L15.9224 3.4153L16.1671 3.165ZM15.7555 2.76275L15.837 2.42238L15.3055 2.29505L15.224 2.63542L15.1424 2.97579L15.674 3.10312L15.7555 2.76275ZM15.224 2.63542L15.251 2.28647L14.7014 2.2439L14.6744 2.59285L14.6473 2.94181L15.1969 2.98438L15.224 2.63542ZM14.6744 2.59285L14.8975 2.32323L14.4366 1.94173L14.2135 2.21136L13.9903 2.48098L14.4512 2.86248L14.6744 2.59285ZM14.2135 2.21136L14.2475 1.86302L13.7012 1.80957L13.6671 2.1579L13.633 2.50624L14.1794 2.55969L14.2135 2.21136ZM13.6671 2.1579L13.6983 1.80929L13.1555 1.76077L13.1244 2.10938L13.0932 2.45799L13.6359 2.50651L13.6671 2.1579ZM13.1244 2.10938L13.0544 1.76643L12.5037 1.87873L12.5736 2.22167L12.6435 2.56462L13.1943 2.45232L13.1244 2.10938ZM12.5736 2.22167L12.7256 1.90637L12.1917 1.6491L12.0398 1.9644L11.8878 2.2797L12.4217 2.53697L12.5736 2.22167ZM12.0398 1.9644L11.8063 1.70364L11.7665 1.73924L12 2L12.2335 2.26076L12.2732 2.22516L12.0398 1.9644ZM12 4L11.9388 4.3446L12.0372 4.3621L12.0985 4.01749L12.1597 3.67289L12.0612 3.6554L12 4ZM12.0985 4.01749L12.1811 4.3576L12.6358 4.24714L12.5532 3.90703L12.4706 3.56692L12.0158 3.67738L12.0985 4.01749ZM12.5532 3.90703L12.4934 4.25189L13.0389 4.34646L13.0987 4.0016L13.1585 3.65674L12.613 3.56218L12.5532 3.90703ZM13.0987 4.0016L12.8795 4.27442L13.3612 4.66159L13.5805 4.38877L13.7997 4.11596L13.318 3.72878L13.0987 4.0016ZM13.5805 4.38877L13.6083 4.73766L14.1716 4.69273L14.1438 4.34384L14.1159 3.99495L13.5526 4.03988L13.5805 4.38877ZM14.1438 4.34384L14.0731 4.68664L14.6095 4.79717L14.6801 4.45437L14.7508 4.11157L14.2144 4.00104L14.1438 4.34384ZM14.6801 4.45437L14.4482 4.71643L14.8778 5.09682L15.1098 4.83476L15.3418 4.5727L14.9121 4.19231L14.6801 4.45437ZM15.1098 4.83476L15.0392 5.17757L15.5821 5.28936L15.6527 4.94655L15.7233 4.60375L15.1804 4.49195L15.1098 4.83476ZM15.6527 4.94655L15.4151 5.20356L15.8209 5.57872L16.0585 5.32172L16.2961 5.06471L15.8903 4.68955L15.6527 4.94655ZM16.0585 5.32172L15.9239 5.64482L16.429 5.85516L16.5636 5.53206L16.6981 5.20896L16.1931 4.99862L16.0585 5.32172ZM16.5636 5.53206L16.3715 5.82461L16.8258 6.123L17.0179 5.83045L17.2101 5.5379L16.7557 5.23951L16.5636 5.53206ZM17.0179 5.83045L16.8367 6.12986L17.3118 6.41744L17.493 6.11802L17.6743 5.81861L17.1992 5.53103L17.0179 5.83045ZM17.493 6.11802L17.1586 6.22148L17.3391 6.80461L17.6734 6.70115L18.0078 6.59768L17.8274 6.01456L17.493 6.11802ZM17.6734 6.70115L17.6172 7.0466L18.3182 7.16075L18.3745 6.8153L18.4307 6.46985L17.7297 6.3557L17.6734 6.70115ZM18.3745 6.8153L18.0259 6.84636L18.0834 7.4927L18.4321 7.46164L18.7807 7.43058L18.7231 6.78424L18.3745 6.8153ZM18.4321 7.46164L18.1555 7.67618L18.4874 8.10396L18.7639 7.88942L19.0405 7.67488L18.7086 7.24709L18.4321 7.46164ZM18.7639 7.88942L18.8838 7.56058L18.4246 7.39322L18.3047 7.72207L18.1849 8.05091L18.6441 8.21827L18.7639 7.88942ZM18.3047 7.72207L18.0623 7.46962L17.5531 7.95856L17.7956 8.21101L18.038 8.46346L18.5471 7.97452L18.3047 7.72207ZM17.7956 8.21101L17.9275 7.88682L17.3726 7.66104L17.2407 7.98523L17.1087 8.30942L17.6636 8.5352L17.7956 8.21101ZM17.2407 7.98523L17.3886 7.66802L16.8655 7.42417L16.7176 7.74138L16.5697 8.0586L17.0928 8.30245L17.2407 7.98523ZM16.7176 7.74138L16.5413 7.43906L15.9434 7.78785L16.1197 8.09017L16.2961 8.39249L16.894 8.0437L16.7176 7.74138ZM16.1197 8.09017L16.3007 7.79058L15.7983 7.4871L15.6173 7.78669L15.4364 8.08628L15.9388 8.38976L16.1197 8.09017ZM15.6173 7.78669L15.7908 7.4827L15.3055 7.20577L15.132 7.50975L14.9585 7.81374L15.4438 8.09068L15.6173 7.78669ZM15.132 7.50975L15.2814 7.19323L14.7948 6.96357L14.6454 7.28009L14.496 7.59661L14.9826 7.82628L15.132 7.50975ZM14.6454 7.28009L14.5883 6.93477L13.9465 7.04084L14.0036 7.38616L14.0606 7.73147L14.7024 7.62541L14.6454 7.28009ZM14.0036 7.38616L14.2245 7.1147L13.7857 6.75759L13.5648 7.02904L13.3439 7.30049L13.7826 7.65761L14.0036 7.38616ZM13.5648 7.02904L13.7382 6.72498L13.2595 6.4521L13.0862 6.75616L12.9128 7.06021L13.3915 7.3331L13.5648 7.02904ZM13.0862 6.75616L13.2715 6.45925L12.8021 6.16626L12.6168 6.46317L12.4314 6.76008L12.9008 7.05306L13.0862 6.75616ZM12.6168 6.46317L12.7774 6.15222L12.2713 5.89073L12.1107 6.20168L11.95 6.51263L12.4561 6.77412L12.6168 6.46317ZM12.1107 6.20168L12.4555 6.14173L12.338 5.46595L11.9932 5.5259L11.6484 5.58584L11.7659 6.26163L12.1107 6.20168ZM11.9932 5.5259L12.2011 5.24436L11.762 4.92001L11.554 5.20155L11.3461 5.48309L11.7853 5.80744L11.9932 5.5259ZM11.554 5.20155L11.7717 4.92749L11.3355 4.58098L11.1178 4.85504L10.9001 5.1291L11.3363 5.47561L11.554 5.20155ZM11.1178 4.85504L11.3876 4.63211L11.0366 4.20723L10.7668 4.43016L10.4969 4.65309L10.848 5.07797L11.1178 4.85504ZM10.7668 4.43016L11.1071 4.51195L11.2125 4.07333L10.8722 3.99154L10.5319 3.90975L10.4265 4.34837L10.7668 4.43016ZM10.8722 3.99154L10.7326 4.31251L11.3061 4.56186L11.4457 4.24089L11.5852 3.91991L11.0117 3.67057L10.8722 3.99154ZM11.4457 4.24089L11.5399 4.57795L12.068 4.43026L11.9737 4.0932L11.8795 3.75613L11.3514 3.90382L11.4457 4.24089ZM11.9737 4.0932L12.3106 4.18809L12.3369 4.09489L12 4L11.6631 3.90511L11.6369 3.9983L11.9737 4.0932ZM8.08 5.03L7.77248 4.86287L7.72473 4.95073L8.03225 5.11786L8.33976 5.285L8.38752 5.19713L8.08 5.03ZM8.03225 5.11786L7.78276 4.87239L7.44505 5.21561L7.69453 5.46109L7.94401 5.70657L8.28173 5.36334L8.03225 5.11786ZM7.69453 5.46109L7.34477 5.47411L7.36726 6.0781L7.71702 6.06508L8.06678 6.05206L8.04429 5.44807L7.69453 5.46109ZM7.71702 6.06508L7.46026 5.82722L7.07752 6.24038L7.33428 6.47824L7.59104 6.71609L7.97378 6.30293L7.71702 6.06508ZM7.33428 6.47824L7.03654 6.29425L6.75239 6.75407L7.05013 6.93805L7.34787 7.12204L7.63202 6.66222L7.33428 6.47824ZM7.05013 6.93805L6.78587 6.70856L6.43109 7.1171L6.69536 7.34659L6.95962 7.57608L7.31439 7.16754L7.05013 6.93805ZM6.69536 7.34659L6.35234 7.27704L6.22855 7.88753L6.57157 7.95708L6.91459 8.02663L7.03838 7.41614L6.69536 7.34659ZM6.57157 7.95708L6.45504 7.62705L5.87616 7.83146L5.9927 8.16149L6.10923 8.49152L6.68811 8.28711L6.57157 7.95708ZM5.9927 8.16149L5.6893 7.98698L5.404 8.48303L5.7074 8.65753L6.01079 8.83203L6.2961 8.33599L5.9927 8.16149ZM5.7074 8.65753L5.43342 8.43972L5.0787 8.88592L5.35267 9.10373L5.62664 9.32154L5.98137 8.87534L5.7074 8.65753ZM5.35267 9.10373L5.25641 8.76723L4.69532 8.92772L4.79158 9.26423L4.88783 9.60073L5.44892 9.44023L5.35267 9.10373ZM4.79158 9.26423L4.74354 8.91754L4.32119 8.97606L4.36923 9.32275L4.41727 9.66944L4.83962 9.61091L4.79158 9.26423ZM4.36923 9.32275L4.6299 9.55631L5.01849 9.12259L4.75781 8.88904L4.49714 8.65548L4.10855 9.0892L4.36923 9.32275ZM4.75781 8.88904L5.09515 8.98234L5.2417 8.45247L4.90436 8.35917L4.56703 8.26587L4.42048 8.79574L4.75781 8.88904ZM4.90436 8.35917L5.22232 8.50547L5.45139 8.00765L5.13343 7.86135L4.81548 7.71504L4.58641 8.21287L4.90436 8.35917ZM5.13343 7.86135L5.45196 8.0064L5.68271 7.49969L5.36419 7.35463L5.04566 7.20958L4.81491 7.71629L5.13343 7.86135ZM5.36419 7.35463L5.59831 7.6148L6.01475 7.24006L5.78063 6.97989L5.54651 6.71972L5.13007 7.09446L5.36419 7.35463ZM5.78063 6.97989L5.94416 7.28934L6.45575 7.01898L6.29222 6.70953L6.12869 6.40009L5.6171 6.67044L5.78063 6.97989ZM6.29222 6.70953L6.53454 6.96209L6.91807 6.59411L6.67576 6.34156L6.43344 6.089L6.04991 6.45698L6.29222 6.70953ZM6.67576 6.34156L6.99421 6.48676L7.23912 5.94965L6.92066 5.80444L6.60221 5.65924L6.3573 6.19635L6.67576 6.34156ZM6.92066 5.80444L7.02407 6.13882L7.57471 5.96852L7.4713 5.63415L7.36789 5.29978L6.81725 5.47007L6.92066 5.80444ZM7.4713 5.63415L7.73508 5.8642L8.102 5.44349L7.83822 5.21344L7.57445 4.98339L7.20753 5.4041L7.4713 5.63415ZM7.83822 5.21344L8.16373 5.34208L8.30574 4.98272L7.98023 4.85409L7.65473 4.72546L7.51272 5.08481L7.83822 5.21344ZM7.98023 4.85409L7.67579 5.02676L7.77556 5.20267L8.08 5.03L8.38444 4.85733L8.28467 4.68142L7.98023 4.85409ZM12 20L12.0609 19.6553L11.9624 19.6379L11.9015 19.9826L11.8406 20.3273L11.9391 20.3447L12 20ZM11.9015 19.9826L11.8689 19.6341L11.4184 19.6762L11.451 20.0247L11.4836 20.3732L11.9341 20.3311L11.9015 19.9826ZM11.451 20.0247L11.4467 19.6747L10.8922 19.6815L10.8964 20.0315L10.9007 20.3815L11.4553 20.3747L11.451 20.0247ZM10.8964 20.0315L10.8806 19.6818L10.3109 19.7076L10.3267 20.0573L10.3425 20.4069L10.9123 20.3811L10.8964 20.0315ZM10.3267 20.0573L10.5525 19.7898L10.0809 19.3918L9.85512 19.6592L9.62936 19.9267L10.1009 20.3247L10.3267 20.0573ZM9.85512 19.6592L9.90732 19.3131L9.361 19.2307L9.3088 19.5768L9.2566 19.9229L9.80291 20.0053L9.85512 19.6592ZM9.3088 19.5768L9.40033 19.239L8.86533 19.094L8.77379 19.4319L8.68225 19.7697L9.21726 19.9146L9.3088 19.5768ZM8.77379 19.4319L9.02469 19.1878L8.6188 18.7705L8.3679 19.0146L8.117 19.2586L8.52289 19.6759L8.77379 19.4319ZM8.3679 19.0146L8.60156 18.754L8.19364 18.3882L7.95998 18.6488L7.72633 18.9094L8.13424 19.2751L8.3679 19.0146ZM7.95998 18.6488L8.04121 18.3083L7.48477 18.1756L7.40354 18.516L7.32232 18.8565L7.87876 18.9892L7.95998 18.6488ZM7.40354 18.516L7.64673 18.2643L7.25405 17.8849L7.01087 18.1367L6.76768 18.3884L7.16035 18.7677L7.40354 18.516ZM7.01087 18.1367L7.09447 17.7968L6.49392 17.6491L6.41032 17.9889L6.32671 18.3288L6.92726 18.4765L7.01087 18.1367ZM6.41032 17.9889L6.64569 17.7299L6.23069 17.3528L5.99531 17.6118L5.75994 17.8709L6.17494 18.248L6.41032 17.9889ZM5.99531 17.6118L6.31786 17.4759L6.09098 16.9374L5.76844 17.0733L5.44589 17.2092L5.67276 17.7477L5.99531 17.6118ZM5.76844 17.0733L6.0986 16.9571L5.90937 16.4193L5.5792 16.5354L5.24904 16.6516L5.43828 17.1895L5.76844 17.0733ZM5.5792 16.5354L5.86294 16.3305L5.54791 15.8943L5.26417 16.0992L4.98043 16.3041L5.29546 16.7403L5.5792 16.5354ZM5.26417 16.0992L5.5969 15.9906L5.42772 15.4723L5.095 15.5809L4.76227 15.6895L4.93145 16.2078L5.26417 16.0992ZM5.095 15.5809L5.3947 15.4001L5.11831 14.9419L4.8186 15.1227L4.5189 15.3034L4.79529 15.7617L5.095 15.5809ZM4.8186 15.1227L5.14752 15.003L4.96495 14.5011L4.63604 14.6208L4.30712 14.7404L4.48969 15.2423L4.8186 15.1227ZM4.63604 14.6208L4.84735 14.3418L4.31442 13.9382L4.10311 14.2172L3.8918 14.4962L4.42473 14.8998L4.63604 14.6208ZM4.10311 14.2172L4.44097 14.3086L4.60484 13.7027L4.26698 13.6113L3.92912 13.52L3.76525 14.1258L4.10311 14.2172ZM4.26698 13.6113L4.61693 13.6174L4.62634 13.0727L4.2764 13.0666L3.92645 13.0606L3.91703 13.6053L4.26698 13.6113ZM4.2764 13.0666L4.5905 12.9122L4.33708 12.3967L4.02297 12.5511L3.70887 12.7055L3.96229 13.221L4.2764 13.0666ZM4.02297 12.5511L4.37148 12.5834L4.42212 12.0376L4.07362 12.0053L3.72512 11.9729L3.67447 12.5187L4.02297 12.5511ZM4.07362 12.0053L4.24217 12.312L4.5876 12.1222L4.41904 11.8154L4.25049 11.5087L3.90506 11.6985L4.07362 12.0053ZM4.41904 11.8154L4.59132 12.1201L5.0729 11.8478L4.90062 11.5431L4.72834 11.2385L4.24676 11.5108L4.41904 11.8154ZM4.90062 11.5431L5.11556 11.8193L5.55446 11.4778L5.33952 11.2016L5.12458 10.9254L4.68568 11.2669L4.90062 11.5431ZM5.33952 11.2016L5.55942 11.4739L5.98569 11.1297L5.76579 10.8574L5.5459 10.5851L5.11962 10.9293L5.33952 11.2016ZM5.76579 10.8574L5.78405 11.2069L6.42189 11.1736L6.40364 10.824L6.38539 10.4745L5.74754 10.5078L5.76579 10.8574ZM6.40364 10.824L6.675 11.0451L7.03562 10.6024L6.76426 10.3814L6.4929 10.1603L6.13228 10.603L6.40364 10.824ZM6.76426 10.3814L6.91108 10.6991L7.43245 10.4581L7.28564 10.1404L7.13882 9.82271L6.61744 10.0636L6.76426 10.3814ZM7.28564 10.1404L7.61012 10.2716L7.83805 9.70784L7.51357 9.57665L7.18909 9.44547L6.96115 10.0092L7.28564 10.1404ZM7.51357 9.57665L7.73213 9.85002L8.1627 9.50578L7.94414 9.23241L7.72557 8.95904L7.29501 9.30329L7.51357 9.57665ZM7.94414 9.23241L8.17181 9.49824L8.59501 9.13577L8.36733 8.86995L8.13965 8.60412L7.71646 8.96659L7.94414 9.23241ZM8.36733 8.86995L8.60935 9.12278L9.01519 8.7343L8.77316 8.48147L8.53114 8.22863L8.12531 8.61711L8.36733 8.86995ZM8.77316 8.48147L9.12295 8.49363L9.14554 7.84424L8.79575 7.83207L8.44596 7.81991L8.42338 8.4693L8.77316 8.48147ZM8.79575 7.83207L9.01797 8.10248L9.46302 7.73673L9.24079 7.46633L9.01857 7.19592L8.57353 7.56167L8.79575 7.83207ZM9.24079 7.46633L9.59012 7.48798L9.62703 6.8925L9.2777 6.87085L8.92837 6.8492L8.89146 7.44468L9.24079 7.46633ZM9.2777 6.87085L9.57168 7.0608L9.86605 6.60519L9.57207 6.41525L9.27809 6.22531L8.98372 6.68091L9.2777 6.87085ZM9.57207 6.41525L9.3127 6.65025L9.58072 6.94607L9.84009 6.71106L10.0995 6.47606L9.83144 6.18025L9.57207 6.41525ZM9.84009 6.71106L9.76129 7.05208L10.4066 7.20118L10.4854 6.86017L10.5642 6.51915L9.91889 6.37005L9.84009 6.71106ZM10.4854 6.86017L10.2313 7.1009L10.6007 7.49076L10.8548 7.25003L11.1088 7.00931L10.7395 6.61944L10.4854 6.86017ZM10.8548 7.25003L10.5782 7.46451L10.9155 7.89945L11.1921 7.68497L11.4686 7.47049L11.1314 7.03555L10.8548 7.25003ZM11.1921 7.68497L10.9918 7.97204L11.4372 8.28268L11.6375 7.9956L11.8377 7.70852L11.3923 7.39789L11.1921 7.68497ZM11.6375 7.9956L11.4223 8.27164L11.8505 8.6055L12.0657 8.32946L12.2809 8.05343L11.8526 7.71956L11.6375 7.9956ZM12.0657 8.32946L11.9348 8.65406L12.4434 8.85916L12.5743 8.53456L12.7052 8.20996L12.1966 8.00486L12.0657 8.32946ZM12.5743 8.53456L12.2624 8.69341L12.5643 9.28598L12.8761 9.12713L13.188 8.96828L12.8862 8.37571L12.5743 8.53456ZM12.8761 9.12713L12.8533 9.47638L13.4465 9.51527L13.4694 9.16602L13.4923 8.81676L12.899 8.77788L12.8761 9.12713ZM13.4694 9.16602L13.3403 9.49132L13.8482 9.69294L13.9773 9.36764L14.1064 9.04234L13.5985 8.84071L13.4694 9.16602ZM13.9773 9.36764L13.9782 9.71764L14.5513 9.71622L14.5504 9.36622L14.5496 9.01623L13.9764 9.01764L13.9773 9.36764ZM14.5504 9.36622L14.3432 9.64827L14.8085 9.99019L15.0158 9.70814L15.223 9.4261L14.7577 9.08418L14.5504 9.36622ZM15.0158 9.70814L15.0634 10.0549L15.6364 9.97625L15.5888 9.6295L15.5412 9.28275L14.9682 9.36139L15.0158 9.70814ZM15.5888 9.6295L15.3641 9.89789L15.8476 10.3025L16.0722 10.0342L16.2969 9.76578L15.8134 9.36112L15.5888 9.6295ZM16.0722 10.0342L16.0719 10.3842L16.6269 10.3847L16.6272 10.0347L16.6275 9.68466L16.0725 9.68416L16.0722 10.0342ZM16.6272 10.0347L16.5504 10.3761L17.0964 10.4989L17.1732 10.1575L17.25 9.81599L16.704 9.69319L16.6272 10.0347ZM17.1732 10.1575L17.1834 10.5073L17.7377 10.4911L17.7275 10.1413L17.7173 9.79143L17.163 9.80761L17.1732 10.1575ZM17.7275 10.1413L17.6998 10.4902L18.2586 10.5344L18.2862 10.1855L18.3138 9.83664L17.7551 9.79237L17.7275 10.1413ZM18.2862 10.1855L18.5024 10.4608L19.0113 10.061L18.795 9.78576L18.5788 9.51054L18.07 9.91033L18.2862 10.1855ZM18.795 9.78576L18.8855 10.1239L19.4072 9.98429L19.3168 9.64618L19.2263 9.30807L18.7046 9.44765L18.795 9.78576ZM19.3168 9.64618L19.1522 9.95507L19.6974 10.2456L19.862 9.93667L20.0266 9.62778L19.4813 9.33729L19.3168 9.64618ZM19.862 9.93667L19.5381 10.0694L19.7526 10.5926L20.0764 10.4599L20.4003 10.3272L20.1858 9.80394L19.862 9.93667ZM20.0764 10.4599L19.7661 10.298L19.4502 10.9034L19.7605 11.0653L20.0708 11.2272L20.3867 10.6218L20.0764 10.4599ZM19.7605 11.0653L19.4549 11.2359L19.744 11.7537L20.0496 11.5831L20.3552 11.4126L20.0661 10.8947L19.7605 11.0653ZM20.0496 11.5831L19.7066 11.5136L19.5953 12.0622L19.9383 12.1318L20.2813 12.2014L20.3926 11.6527L20.0496 11.5831ZM19.9383 12.1318L19.5897 12.0998L19.5403 12.6391L19.8889 12.671L20.2374 12.7029L20.2868 12.1637L19.9383 12.1318ZM19.8889 12.671L19.5399 12.6984L19.5833 13.2509L19.9322 13.2235L20.2812 13.1962L20.2378 12.6436L19.8889 12.671ZM19.9322 13.2235L19.6235 13.0586L19.3557 13.5597L19.6644 13.7247L19.9731 13.8896L20.2409 13.3885L19.9322 13.2235ZM19.6644 13.7247L19.3267 13.8166L19.4923 14.425L19.83 14.333L20.1677 14.2411L20.0021 13.6327L19.6644 13.7247ZM19.83 14.333L19.5436 14.1319L19.2128 14.6028L19.4992 14.804L19.7856 15.0052L20.1164 14.5342L19.83 14.333ZM19.4992 14.804L19.1609 14.7141L19.0187 15.2495L19.3569 15.3393L19.6952 15.4292L19.8375 14.8939L19.4992 14.804ZM19.3569 15.3393L19.0144 15.2675L18.8964 15.8301L19.2389 15.902L19.5815 15.9738L19.6995 15.4112L19.3569 15.3393ZM19.2389 15.902L19.0466 15.6095L18.5322 15.9479L18.7245 16.2403L18.9169 16.5327L19.4313 16.1944L19.2389 15.902ZM18.7245 16.2403L18.4867 15.9835L18.0813 16.3589L18.3191 16.6157L18.5569 16.8725L18.9623 16.4971L18.7245 16.2403ZM18.3191 16.6157L17.9737 16.5597L17.874 17.174L18.2195 17.23L18.565 17.286L18.6646 16.6717L18.3191 16.6157ZM18.2195 17.23L18.1039 16.8996L17.518 17.1047L17.6336 17.4351L17.7492 17.7654L18.3351 17.5604L18.2195 17.23ZM17.6336 17.4351L17.295 17.3463L17.1332 17.9637L17.4718 18.0525L17.8103 18.1412L17.9722 17.5238L17.6336 17.4351ZM17.4718 18.0525L17.4418 17.7038L16.7778 17.7608L16.8077 18.1095L16.8377 18.4582L17.5017 18.4012L17.4718 18.0525ZM16.8077 18.1095L16.4683 18.0241L16.2955 18.7111L16.6349 18.7965L16.9743 18.8819L17.1472 18.1949L16.8077 18.1095ZM16.6349 18.7965L16.6343 18.4465L15.9838 18.4475L15.9843 18.7975L15.9849 19.1475L16.6354 19.1465L16.6349 18.7965ZM15.9843 18.7975L15.7544 18.5336L15.3358 18.8984L15.5657 19.1623L15.7957 19.4261L16.2142 19.0614L15.9843 18.7975ZM15.5657 19.1623L15.4142 18.8468L14.9215 19.0834L15.0731 19.3989L15.2246 19.7144L15.7173 19.4777L15.5657 19.1623ZM15.0731 19.3989L14.8664 19.1164L14.4042 19.4546L14.6108 19.7371L14.8174 20.0195L15.2797 19.6814L15.0731 19.3989ZM14.6108 19.7371L14.5959 19.3874L14.0262 19.4116L14.041 19.7613L14.0559 20.111L14.6257 20.0867L14.6108 19.7371ZM14.041 19.7613L14.0011 19.4136L13.4561 19.4762L13.496 19.8239L13.5359 20.1716L14.081 20.109L14.041 19.7613ZM13.496 19.8239L13.4407 19.4783L12.904 19.5642L12.9593 19.9098L13.0146 20.2554L13.5513 20.1695L13.496 19.8239ZM12.9593 19.9098L12.827 19.5858L12.2938 19.8035L12.4261 20.1275L12.5584 20.4516L13.0916 20.2339L12.9593 19.9098ZM12.4261 20.1275L12.5196 19.7903L12.0936 19.6721L12 20.0093L11.9064 20.3466L12.3325 20.4648L12.4261 20.1275ZM12 20.0093H12.35V20H12H11.65V20.0093H12Z" fill="#D8F789"/>
<path d="M9 14.25C9.69036 14.25 10.25 13.6904 10.25 13C10.25 12.3096 9.69036 11.75 9 11.75C8.30964 11.75 7.75 12.3096 7.75 13C7.75 13.6904 8.30964 14.25 9 14.25Z" fill="#D8F789"/>
<path d="M10.2647 13.233L10.4643 13.2204L10.2647 13.233ZM10.203 13.3636L10.0786 13.2069L10.203 13.3636ZM10.0698 13.4693L9.94545 13.3127L10.0698 13.4693ZM9.97333 13.5853L9.79259 13.4997L9.97333 13.5853ZM9.91347 13.7117L10.0942 13.7973L9.91347 13.7117ZM9.85037 13.8492L10.033 13.9307L9.85037 13.8492ZM9.78402 13.998L9.60137 13.9165L9.78402 13.998ZM9.68406 14.1152L9.79207 14.2835L9.68406 14.1152ZM9.61726 14.158L9.50925 13.9897L9.61726 14.158ZM9.40398 14.246L9.39844 14.0461L9.40398 14.246ZM9.3243 14.2482L9.32984 14.4481L9.3243 14.2482ZM9.08891 14.2568L9.10001 14.4565L9.08891 14.2568ZM9.0129 14.2611L9.0018 14.0614L9.0129 14.2611ZM8.93689 14.2653L8.94799 14.465L8.93689 14.2653ZM8.78282 14.2621L8.80177 14.063L8.78282 14.2621ZM8.62671 14.2472L8.64565 14.0481L8.62671 14.2472ZM8.47248 14.2127L8.40533 14.401L8.47248 14.2127ZM8.32012 14.1584L8.38727 13.97L8.32012 14.1584ZM8.18473 14.0758L8.32132 13.9297L8.18473 14.0758ZM8.06629 13.9651L8.20288 13.819L8.06629 13.9651ZM7.99022 13.8277L7.79431 13.8679L7.99022 13.8277ZM7.91482 13.5138L7.72704 13.5827L7.91482 13.5138ZM7.88999 13.4461L8.07777 13.3773L7.88999 13.4461ZM7.82697 13.2396L7.63042 13.2766L7.82697 13.2396ZM7.80024 13.0975L7.9968 13.0605L7.80024 13.0975ZM7.93056 12.3957L7.80861 12.2372L7.93056 12.3957ZM7.99133 12.349L7.86937 12.1905L7.99133 12.349ZM8.05209 12.3022L8.17405 12.4607L8.05209 12.3022ZM8.19926 12.0241L8.0119 11.9541L8.19926 12.0241ZM8.29371 11.9027L8.1819 11.7369L8.29371 11.9027ZM8.71995 11.6989L8.66077 11.5078L8.71995 11.6989ZM8.873 11.7136L8.78349 11.8924L8.873 11.7136ZM9.02622 11.7902L8.93671 11.9691L9.02622 11.7902ZM9.32371 11.8298L9.32257 12.0298L9.32371 11.8298ZM9.46726 11.8571L9.53894 11.6704L9.46726 11.8571ZM9.5372 11.8839L9.46552 12.0706L9.5372 11.8839ZM9.60713 11.9108L9.53545 12.0975L9.60713 11.9108ZM9.8961 12.0388L9.98 11.8573L9.8961 12.0388ZM10.008 12.1422L9.83343 12.2397L10.008 12.1422ZM10.0858 12.2813L10.2604 12.1837L10.0858 12.2813ZM10.1942 12.5717L10.0035 12.6318L10.1942 12.5717ZM10.2227 12.7205L10.4222 12.7064L10.2227 12.7205ZM10.2281 12.7957L10.0286 12.8099L10.2281 12.7957ZM10.2334 12.8709L10.0339 12.8851L10.2334 12.8709ZM10.2415 12.9596L10.0458 13.0005L10.2415 12.9596ZM10.2472 12.9865L10.4429 12.9456L10.2472 12.9865ZM10.2549 13.0777L10.0553 13.0902L10.2549 13.0777ZM10.2598 13.1553L10.0602 13.1679L10.0651 13.2456L10.2647 13.233L10.4643 13.2204L10.4594 13.1428L10.2598 13.1553ZM10.2647 13.233L10.0651 13.2456C10.0647 13.2404 10.0656 13.2302 10.0709 13.219C10.0758 13.2085 10.081 13.205 10.0786 13.2069L10.203 13.3636L10.3274 13.5202C10.4174 13.4486 10.4721 13.3443 10.4643 13.2204L10.2647 13.233ZM10.203 13.3636L10.0786 13.2069L10.012 13.2598L10.1364 13.4164L10.2608 13.573L10.3274 13.5202L10.203 13.3636ZM10.1364 13.4164L10.012 13.2598L9.94545 13.3127L10.0698 13.4693L10.1942 13.6259L10.2608 13.573L10.1364 13.4164ZM10.0698 13.4693L9.94545 13.3127C9.8822 13.3629 9.82818 13.4246 9.79259 13.4997L9.97333 13.5853L10.1541 13.671C10.1584 13.6619 10.1687 13.6462 10.1942 13.6259L10.0698 13.4693ZM9.97333 13.5853L9.79259 13.4997L9.76266 13.5629L9.9434 13.6485L10.1241 13.7341L10.1541 13.671L9.97333 13.5853ZM9.9434 13.6485L9.76266 13.5629L9.73273 13.626L9.91347 13.7117L10.0942 13.7973L10.1241 13.7341L9.9434 13.6485ZM9.91347 13.7117L9.73273 13.626C9.71203 13.6697 9.69035 13.717 9.66771 13.7677L9.85037 13.8492L10.033 13.9307C10.0546 13.8823 10.075 13.8378 10.0942 13.7973L9.91347 13.7117ZM9.85037 13.8492L9.66771 13.7677L9.63454 13.8421L9.81719 13.9236L9.99985 14.005L10.033 13.9307L9.85037 13.8492ZM9.81719 13.9236L9.63454 13.8421L9.60137 13.9165L9.78402 13.998L9.96668 14.0794L9.99985 14.005L9.81719 13.9236ZM9.78402 13.998L9.60137 13.9165C9.59469 13.9314 9.58686 13.9399 9.57604 13.9469L9.68406 14.1152L9.79207 14.2835C9.87031 14.2333 9.92912 14.1636 9.96668 14.0794L9.78402 13.998ZM9.68406 14.1152L9.57604 13.9469L9.50925 13.9897L9.61726 14.158L9.72527 14.3264L9.79207 14.2835L9.68406 14.1152ZM9.61726 14.158L9.50925 13.9897L9.44245 14.0326L9.55047 14.2009L9.65848 14.3692L9.72527 14.3264L9.61726 14.158ZM9.55047 14.2009L9.44245 14.0326C9.42871 14.0414 9.41534 14.0456 9.39844 14.0461L9.40398 14.246L9.40953 14.4459C9.49888 14.4434 9.58316 14.4176 9.65848 14.3692L9.55047 14.2009ZM9.40398 14.246L9.39844 14.0461L9.31876 14.0483L9.3243 14.2482L9.32984 14.4481L9.40953 14.4459L9.40398 14.246ZM9.3243 14.2482L9.31876 14.0483L9.23907 14.0505L9.24461 14.2504L9.25015 14.4503L9.32984 14.4481L9.3243 14.2482ZM9.24461 14.2504L9.23907 14.0505C9.18417 14.052 9.13042 14.0542 9.07781 14.0571L9.08891 14.2568L9.10001 14.4565C9.14875 14.4538 9.19879 14.4517 9.25015 14.4503L9.24461 14.2504ZM9.08891 14.2568L9.07781 14.0571L9.0018 14.0614L9.0129 14.2611L9.024 14.4607L9.10001 14.4565L9.08891 14.2568ZM9.0129 14.2611L9.0018 14.0614L8.92579 14.0656L8.93689 14.2653L8.94799 14.465L9.024 14.4607L9.0129 14.2611ZM8.93689 14.2653L8.92579 14.0656C8.88543 14.0678 8.84412 14.067 8.80177 14.063L8.78282 14.2621L8.76388 14.4612C8.82561 14.4671 8.88701 14.4684 8.94799 14.465L8.93689 14.2653ZM8.78282 14.2621L8.80177 14.063L8.72371 14.0556L8.70477 14.2547L8.68583 14.4538L8.76388 14.4612L8.78282 14.2621ZM8.70477 14.2547L8.72371 14.0556L8.64565 14.0481L8.62671 14.2472L8.60777 14.4463L8.68583 14.4538L8.70477 14.2547ZM8.62671 14.2472L8.64565 14.0481C8.61057 14.0448 8.57533 14.037 8.53962 14.0243L8.47248 14.2127L8.40533 14.401C8.47119 14.4245 8.53877 14.4398 8.60777 14.4463L8.62671 14.2472ZM8.47248 14.2127L8.53962 14.0243L8.46344 13.9971L8.3963 14.1855L8.32916 14.3739L8.40533 14.401L8.47248 14.2127ZM8.3963 14.1855L8.46344 13.9971L8.38727 13.97L8.32012 14.1584L8.25298 14.3467L8.32916 14.3739L8.3963 14.1855ZM8.32012 14.1584L8.38727 13.97C8.36235 13.9611 8.34084 13.948 8.32132 13.9297L8.18473 14.0758L8.04814 14.2219C8.10757 14.2775 8.17633 14.3194 8.25298 14.3467L8.32012 14.1584ZM8.18473 14.0758L8.32132 13.9297L8.2621 13.8744L8.12551 14.0205L7.98892 14.1666L8.04814 14.2219L8.18473 14.0758ZM8.12551 14.0205L8.2621 13.8744L8.20288 13.819L8.06629 13.9651L7.9297 14.1112L7.98892 14.1666L8.12551 14.0205ZM8.06629 13.9651L8.20288 13.819C8.19471 13.8114 8.18932 13.803 8.18612 13.7874L7.99022 13.8277L7.79431 13.8679C7.81359 13.9618 7.85891 14.045 7.9297 14.1112L8.06629 13.9651ZM7.99022 13.8277L8.18612 13.7874L8.16927 13.7054L7.97336 13.7456L7.77745 13.7859L7.79431 13.8679L7.99022 13.8277ZM7.97336 13.7456L8.16927 13.7054L8.15241 13.6233L7.9565 13.6636L7.76059 13.7039L7.77745 13.7859L7.97336 13.7456ZM7.9565 13.6636L8.15241 13.6233C8.13948 13.5604 8.12305 13.5008 8.10259 13.445L7.91482 13.5138L7.72704 13.5827C7.73968 13.6172 7.75104 13.6574 7.76059 13.7039L7.9565 13.6636ZM7.91482 13.5138L8.10259 13.445L8.07777 13.3773L7.88999 13.4461L7.70221 13.515L7.72704 13.5827L7.91482 13.5138ZM7.88999 13.4461L8.07777 13.3773L8.05294 13.3096L7.86516 13.3784L7.67739 13.4472L7.70221 13.515L7.88999 13.4461ZM7.86516 13.3784L8.05294 13.3096C8.0402 13.2748 8.0304 13.2392 8.02353 13.2027L7.82697 13.2396L7.63042 13.2766C7.64136 13.3348 7.65702 13.3917 7.67739 13.4472L7.86516 13.3784ZM7.82697 13.2396L8.02353 13.2027L8.01016 13.1316L7.81361 13.1686L7.61705 13.2055L7.63042 13.2766L7.82697 13.2396ZM7.81361 13.1686L8.01016 13.1316L7.9968 13.0605L7.80024 13.0975L7.60369 13.1345L7.61705 13.2055L7.81361 13.1686ZM7.80024 13.0975L7.9968 13.0605C7.99272 13.0388 7.99293 13.018 7.99739 12.9966L7.80159 12.9558L7.60579 12.915C7.59064 12.9878 7.58996 13.0614 7.60369 13.1345L7.80024 13.0975ZM7.80159 12.9558L7.99739 12.9966L8.0121 12.9259L7.8163 12.8852L7.6205 12.8444L7.60579 12.915L7.80159 12.9558ZM7.8163 12.8852L8.0121 12.9259L8.02681 12.8553L7.83101 12.8145L7.63521 12.7737L7.6205 12.8444L7.8163 12.8852ZM7.83101 12.8145L8.02681 12.8553C8.0384 12.7996 8.04646 12.7426 8.05111 12.6844L7.85174 12.6685L7.65238 12.6526C7.649 12.6948 7.64323 12.7352 7.63521 12.7737L7.83101 12.8145ZM7.85174 12.6685L8.05111 12.6844L8.05713 12.6091L7.85776 12.5932L7.6584 12.5772L7.65238 12.6526L7.85174 12.6685ZM7.85776 12.5932L8.05713 12.6091L8.06315 12.5338L7.86378 12.5178L7.66442 12.5019L7.6584 12.5772L7.85776 12.5932ZM7.86378 12.5178L8.06315 12.5338C8.06315 12.5337 8.06303 12.5351 8.06235 12.5375C8.06166 12.5399 8.06055 12.5427 8.05895 12.5456C8.05548 12.552 8.05199 12.5547 8.05252 12.5542L7.93056 12.3957L7.80861 12.2372C7.72405 12.3023 7.673 12.3944 7.66442 12.5019L7.86378 12.5178ZM7.93056 12.3957L8.05252 12.5542L8.11328 12.5075L7.99133 12.349L7.86937 12.1905L7.80861 12.2372L7.93056 12.3957ZM7.99133 12.349L8.11328 12.5075L8.17405 12.4607L8.05209 12.3022L7.93014 12.1437L7.86937 12.1905L7.99133 12.349ZM8.05209 12.3022L8.17405 12.4607C8.24641 12.4051 8.29773 12.3321 8.32902 12.2483L8.14166 12.1784L7.95429 12.1084C7.94717 12.1275 7.93879 12.1371 7.93014 12.1437L8.05209 12.3022ZM8.14166 12.1784L8.32902 12.2483L8.35782 12.1712L8.17046 12.1012L7.9831 12.0313L7.95429 12.1084L8.14166 12.1784ZM8.17046 12.1012L8.35782 12.1712L8.38662 12.0941L8.19926 12.0241L8.0119 11.9541L7.9831 12.0313L8.17046 12.1012ZM8.19926 12.0241L8.38662 12.0941C8.39186 12.08 8.39775 12.0738 8.40552 12.0685L8.29371 11.9027L8.1819 11.7369C8.10214 11.7907 8.04506 11.8653 8.0119 11.9541L8.19926 12.0241ZM8.29371 11.9027L8.40552 12.0685L8.47116 12.0243L8.35935 11.8584L8.24754 11.6926L8.1819 11.7369L8.29371 11.9027ZM8.35935 11.8584L8.47116 12.0243L8.53681 11.98L8.425 11.8142L8.31319 11.6484L8.24754 11.6926L8.35935 11.8584ZM8.425 11.8142L8.53681 11.98C8.56418 11.9616 8.59378 11.9474 8.62626 11.9373L8.56708 11.7462L8.5079 11.5552C8.43846 11.5767 8.37334 11.6078 8.31319 11.6484L8.425 11.8142ZM8.56708 11.7462L8.62626 11.9373L8.70269 11.9136L8.64352 11.7226L8.58434 11.5315L8.5079 11.5552L8.56708 11.7462ZM8.64352 11.7226L8.70269 11.9136L8.77913 11.8899L8.71995 11.6989L8.66077 11.5078L8.58434 11.5315L8.64352 11.7226ZM8.71995 11.6989L8.77913 11.8899C8.78037 11.8896 8.77929 11.89 8.77736 11.8898C8.77569 11.8896 8.77747 11.8894 8.78349 11.8924L8.873 11.7136L8.9625 11.5347C8.86888 11.4878 8.76471 11.4757 8.66077 11.5078L8.71995 11.6989ZM8.873 11.7136L8.78349 11.8924L8.8601 11.9307L8.94961 11.7519L9.03911 11.573L8.9625 11.5347L8.873 11.7136ZM8.94961 11.7519L8.8601 11.9307L8.93671 11.9691L9.02622 11.7902L9.11572 11.6114L9.03911 11.573L8.94961 11.7519ZM9.02622 11.7902L8.93671 11.9691C9.01075 12.0061 9.0909 12.0285 9.17532 12.029L9.17645 11.829L9.17759 11.629C9.16384 11.6289 9.14383 11.6254 9.11572 11.6114L9.02622 11.7902ZM9.17645 11.829L9.17532 12.029L9.24895 12.0294L9.25008 11.8294L9.25121 11.6294L9.17759 11.629L9.17645 11.829ZM9.25008 11.8294L9.24895 12.0294L9.32257 12.0298L9.32371 11.8298L9.32484 11.6298L9.25121 11.6294L9.25008 11.8294ZM9.32371 11.8298L9.32257 12.0298C9.34711 12.03 9.37109 12.0344 9.39559 12.0438L9.46726 11.8571L9.53894 11.6704C9.4702 11.644 9.39847 11.6302 9.32484 11.6298L9.32371 11.8298ZM9.46726 11.8571L9.39559 12.0438L9.46552 12.0706L9.5372 11.8839L9.60887 11.6972L9.53894 11.6704L9.46726 11.8571ZM9.5372 11.8839L9.46552 12.0706L9.53545 12.0975L9.60713 11.9108L9.67881 11.7241L9.60887 11.6972L9.5372 11.8839ZM9.60713 11.9108L9.53545 12.0975C9.57765 12.1137 9.62123 12.1321 9.66618 12.1529L9.75007 11.9714L9.83397 11.7898C9.78157 11.7656 9.72984 11.7437 9.67881 11.7241L9.60713 11.9108ZM9.75007 11.9714L9.66618 12.1529L9.73919 12.1867L9.82309 12.0051L9.90698 11.8236L9.83397 11.7898L9.75007 11.9714ZM9.82309 12.0051L9.73919 12.1867L9.81221 12.2204L9.8961 12.0388L9.98 11.8573L9.90698 11.8236L9.82309 12.0051ZM9.8961 12.0388L9.81221 12.2204C9.82292 12.2254 9.82831 12.2306 9.83343 12.2397L10.008 12.1422L10.1826 12.0446C10.1359 11.961 10.0666 11.8973 9.98 11.8573L9.8961 12.0388ZM10.008 12.1422L9.83343 12.2397L9.87232 12.3093L10.0469 12.2117L10.2215 12.1142L10.1826 12.0446L10.008 12.1422ZM10.0469 12.2117L9.87232 12.3093L9.91121 12.3789L10.0858 12.2813L10.2604 12.1837L10.2215 12.1142L10.0469 12.2117ZM10.0858 12.2813L9.91121 12.3789C9.93069 12.4138 9.94587 12.449 9.9571 12.4846L10.1479 12.4245L10.3386 12.3644C10.3189 12.3019 10.2927 12.2417 10.2604 12.1837L10.0858 12.2813ZM10.1479 12.4245L9.9571 12.4846L9.98029 12.5582L10.171 12.4981L10.3618 12.4381L10.3386 12.3644L10.1479 12.4245ZM10.171 12.4981L9.98029 12.5582L10.0035 12.6318L10.1942 12.5717L10.385 12.5117L10.3618 12.4381L10.171 12.4981ZM10.1942 12.5717L10.0035 12.6318C10.0143 12.6663 10.0208 12.7005 10.0232 12.7347L10.2227 12.7205L10.4222 12.7064C10.4176 12.6403 10.405 12.5753 10.385 12.5117L10.1942 12.5717ZM10.2227 12.7205L10.0232 12.7347L10.0286 12.8099L10.2281 12.7957L10.4276 12.7816L10.4222 12.7064L10.2227 12.7205ZM10.2281 12.7957L10.0286 12.8099L10.0339 12.8851L10.2334 12.8709L10.4329 12.8568L10.4276 12.7816L10.2281 12.7957ZM10.2334 12.8709L10.0339 12.8851C10.0369 12.9274 10.0404 12.9747 10.0458 13.0005L10.2415 12.9596L10.4373 12.9186C10.4387 12.9255 10.439 12.9292 10.4386 12.9253C10.4383 12.923 10.4379 12.9188 10.4373 12.9124C10.4361 12.8996 10.4346 12.8813 10.4329 12.8568L10.2334 12.8709ZM10.2415 12.9596L10.0458 13.0005L10.0486 13.014L10.2444 12.9731L10.4401 12.9321L10.4373 12.9186L10.2415 12.9596ZM10.2444 12.9731L10.0486 13.014L10.0514 13.0275L10.2472 12.9865L10.4429 12.9456L10.4401 12.9321L10.2444 12.9731ZM10.2472 12.9865L10.0514 13.0275C10.0504 13.0228 10.05 13.0196 10.0499 13.0192C10.0498 13.0185 10.0499 13.0186 10.05 13.0197C10.0503 13.0221 10.0507 13.0263 10.0512 13.0329C10.0523 13.046 10.0537 13.0649 10.0553 13.0902L10.2549 13.0777L10.4545 13.0651C10.4528 13.0386 10.4513 13.0165 10.4498 12.9992C10.4488 12.987 10.4469 12.9643 10.4429 12.9456L10.2472 12.9865ZM10.2549 13.0777L10.0553 13.0902L10.0602 13.1679L10.2598 13.1553L10.4594 13.1428L10.4545 13.0651L10.2549 13.0777Z" fill="#D8F789"/>
<path d="M15 14.25C15.6904 14.25 16.25 13.6904 16.25 13C16.25 12.3096 15.6904 11.75 15 11.75C14.3096 11.75 13.75 12.3096 13.75 13C13.75 13.6904 14.3096 14.25 15 14.25Z" fill="#D8F789"/>
<path d="M16.2912 13.2395L16.0941 13.2734L16.2912 13.2395ZM16.2808 13.3968L16.4717 13.4562L16.2808 13.3968ZM16.2325 13.5517L16.4235 13.6112L16.2325 13.5517ZM16.1204 13.6596L16.1858 13.8486L16.1204 13.6596ZM16.0324 13.6901L15.967 13.5011L16.0324 13.6901ZM15.9444 13.7206L15.879 13.5316L15.9444 13.7206ZM15.827 13.827L15.6405 13.7549L15.827 13.827ZM15.7976 13.9031L15.9841 13.9752L15.7976 13.9031ZM15.7682 13.9791L15.5816 13.9069L15.7682 13.9791ZM15.6725 14.0959L15.5676 13.9256L15.6725 14.0959ZM15.54 14.1775L15.6449 14.3478L15.54 14.1775ZM15.3969 14.2295L15.368 14.0316V14.0316L15.3969 14.2295ZM15.32 14.2407L15.3489 14.4386L15.32 14.2407ZM15.2432 14.2519L15.2143 14.054L15.2432 14.2519ZM15.0927 14.2393L15.031 14.4295L15.0927 14.2393ZM14.9455 14.1915L15.0072 14.0013L14.9455 14.1915ZM14.7968 14.1701L14.7904 13.9702L14.7968 14.1701ZM14.6465 14.1749L14.6401 13.975L14.6465 14.1749ZM14.5117 14.1327L14.3919 14.2928L14.5117 14.1327ZM14.3923 14.0434L14.5121 13.8832L14.3923 14.0434ZM14.2082 13.8222L14.0447 13.9374L14.2082 13.8222ZM14.0374 13.6811L13.9301 13.8499L14.0374 13.6811ZM13.9727 13.64L14.0801 13.4713L13.9727 13.64ZM13.8982 13.525L13.7 13.5514L13.8982 13.525ZM13.8103 12.9477L13.6253 13.0238L13.8103 12.9477ZM13.7464 12.7925L13.5614 12.8686L13.7464 12.7925ZM13.8984 12.3796L13.7962 12.2078L13.8984 12.3796ZM13.9691 12.3376L14.0714 12.5095L13.9691 12.3376ZM14.0398 12.2955L13.9375 12.1237L14.0398 12.2955ZM14.1779 11.9953L13.9844 11.9448L14.1779 11.9953ZM14.2898 11.9151L14.2769 12.1147L14.2898 11.9151ZM14.6181 11.8715L14.4757 11.7311L14.6181 11.8715ZM14.6782 11.8105L14.8207 11.9509L14.6782 11.8105ZM14.7383 11.7495L14.8808 11.8899L14.7383 11.7495ZM15.1804 11.7444L15.0654 11.908L15.1804 11.7444ZM15.4551 11.8951L15.4262 12.093L15.4551 11.8951ZM15.718 11.9993L15.8974 11.9108L15.718 11.9993ZM15.8777 12.259L15.7476 12.411L15.8777 12.259ZM15.9322 12.3057L15.8022 12.4577L15.9322 12.3057ZM15.9868 12.3524L16.1168 12.2004L15.9868 12.3524ZM16.0927 12.4585L16.2441 12.3278L16.0927 12.4585ZM16.1953 12.5774L16.044 12.7081L16.1953 12.5774ZM16.2495 12.714L16.4494 12.7066L16.2495 12.714ZM16.2551 12.8682L16.0553 12.8755L16.2551 12.8682ZM16.256 12.959L16.4539 12.9878L16.256 12.959ZM16.2637 13.0798L16.4608 13.0459L16.2637 13.0798ZM16.2775 13.1597L16.0804 13.1935L16.0941 13.2734L16.2912 13.2395L16.4883 13.2056L16.4746 13.1258L16.2775 13.1597ZM16.2912 13.2395L16.0941 13.2734C16.0979 13.2954 16.0965 13.3158 16.0898 13.3373L16.2808 13.3968L16.4717 13.4562C16.4972 13.3745 16.5028 13.29 16.4883 13.2056L16.2912 13.2395ZM16.2808 13.3968L16.0898 13.3373L16.0657 13.4148L16.2567 13.4742L16.4476 13.5337L16.4717 13.4562L16.2808 13.3968ZM16.2567 13.4742L16.0657 13.4148L16.0416 13.4922L16.2325 13.5517L16.4235 13.6112L16.4476 13.5337L16.2567 13.4742ZM16.2325 13.5517L16.0416 13.4922C16.0422 13.4903 16.0434 13.4871 16.0457 13.4833C16.0481 13.4795 16.0509 13.4761 16.0537 13.4733C16.0596 13.4677 16.0622 13.4681 16.055 13.4706L16.1204 13.6596L16.1858 13.8486C16.2944 13.8111 16.3855 13.7331 16.4235 13.6112L16.2325 13.5517ZM16.1204 13.6596L16.055 13.4706L15.967 13.5011L16.0324 13.6901L16.0978 13.8791L16.1858 13.8486L16.1204 13.6596ZM16.0324 13.6901L15.967 13.5011L15.879 13.5316L15.9444 13.7206L16.0098 13.9096L16.0978 13.8791L16.0324 13.6901ZM15.9444 13.7206L15.879 13.5316C15.7736 13.568 15.6845 13.6412 15.6405 13.7549L15.827 13.827L16.0135 13.8992C16.0131 13.9002 16.0122 13.9021 16.0106 13.9045C16.009 13.9069 16.0071 13.909 16.0054 13.9106C16.0018 13.9138 16.0016 13.9124 16.0098 13.9096L15.9444 13.7206ZM15.827 13.827L15.6405 13.7549L15.6111 13.8309L15.7976 13.9031L15.9841 13.9752L16.0135 13.8992L15.827 13.827ZM15.7976 13.9031L15.6111 13.8309L15.5816 13.9069L15.7682 13.9791L15.9547 14.0512L15.9841 13.9752L15.7976 13.9031ZM15.7682 13.9791L15.5816 13.9069C15.577 13.9189 15.5727 13.9224 15.5676 13.9256L15.6725 14.0959L15.7774 14.2662C15.8606 14.2149 15.9201 14.1406 15.9547 14.0512L15.7682 13.9791ZM15.6725 14.0959L15.5676 13.9256L15.5014 13.9664L15.6063 14.1367L15.7111 14.307L15.7774 14.2662L15.6725 14.0959ZM15.6063 14.1367L15.5014 13.9664L15.4351 14.0072L15.54 14.1775L15.6449 14.3478L15.7111 14.307L15.6063 14.1367ZM15.54 14.1775L15.4351 14.0072C15.4141 14.0201 15.3923 14.028 15.368 14.0316L15.3969 14.2295L15.4257 14.4274C15.504 14.416 15.5776 14.3892 15.6449 14.3478L15.54 14.1775ZM15.3969 14.2295L15.368 14.0316L15.2912 14.0428L15.32 14.2407L15.3489 14.4386L15.4257 14.4274L15.3969 14.2295ZM15.32 14.2407L15.2912 14.0428L15.2143 14.054L15.2432 14.2519L15.272 14.4498L15.3489 14.4386L15.32 14.2407ZM15.2432 14.2519L15.2143 14.054C15.1933 14.0571 15.1741 14.0554 15.1544 14.049L15.0927 14.2393L15.031 14.4295C15.1094 14.4549 15.1905 14.4617 15.272 14.4498L15.2432 14.2519ZM15.0927 14.2393L15.1544 14.049L15.0808 14.0251L15.0191 14.2154L14.9574 14.4057L15.031 14.4295L15.0927 14.2393ZM15.0191 14.2154L15.0808 14.0251L15.0072 14.0013L14.9455 14.1915L14.8838 14.3818L14.9574 14.4057L15.0191 14.2154ZM14.9455 14.1915L15.0072 14.0013C14.9368 13.9785 14.8642 13.9678 14.7904 13.9702L14.7968 14.1701L14.8032 14.37C14.8295 14.3692 14.8561 14.3728 14.8838 14.3818L14.9455 14.1915ZM14.7968 14.1701L14.7904 13.9702L14.7152 13.9726L14.7217 14.1725L14.7281 14.3724L14.8032 14.37L14.7968 14.1701ZM14.7217 14.1725L14.7152 13.9726L14.6401 13.975L14.6465 14.1749L14.6529 14.3748L14.7281 14.3724L14.7217 14.1725ZM14.6465 14.1749L14.6401 13.975C14.6379 13.9751 14.6366 13.975 14.6359 13.9749C14.6353 13.9748 14.6351 13.9747 14.6351 13.9747C14.635 13.9747 14.6349 13.9747 14.6344 13.9745C14.634 13.9742 14.633 13.9737 14.6315 13.9726L14.5117 14.1327L14.3919 14.2928C14.4684 14.3501 14.5579 14.3779 14.6529 14.3748L14.6465 14.1749ZM14.5117 14.1327L14.6315 13.9726L14.5718 13.9279L14.452 14.088L14.3322 14.2482L14.3919 14.2928L14.5117 14.1327ZM14.452 14.088L14.5718 13.9279L14.5121 13.8832L14.3923 14.0434L14.2725 14.2035L14.3322 14.2482L14.452 14.088ZM14.3923 14.0434L14.5121 13.8832C14.4886 13.8656 14.4698 13.8461 14.4546 13.8247L14.2912 13.9399L14.1277 14.0551C14.1679 14.1121 14.2165 14.1616 14.2725 14.2035L14.3923 14.0434ZM14.2912 13.9399L14.4546 13.8247L14.4132 13.7658L14.2497 13.8811L14.0862 13.9963L14.1277 14.0551L14.2912 13.9399ZM14.2497 13.8811L14.4132 13.7658L14.3717 13.707L14.2082 13.8222L14.0447 13.9374L14.0862 13.9963L14.2497 13.8811ZM14.2082 13.8222L14.3717 13.707C14.328 13.6451 14.2731 13.594 14.2094 13.5535L14.1021 13.7223L13.9948 13.891C14.0173 13.9053 14.0331 13.9209 14.0447 13.9374L14.2082 13.8222ZM14.1021 13.7223L14.2094 13.5535L14.1447 13.5124L14.0374 13.6811L13.9301 13.8499L13.9948 13.891L14.1021 13.7223ZM14.0374 13.6811L14.1447 13.5124L14.0801 13.4713L13.9727 13.64L13.8654 13.8088L13.9301 13.8499L14.0374 13.6811ZM13.9727 13.64L14.0801 13.4713C14.0799 13.4711 14.0847 13.4743 14.0897 13.482C14.0947 13.4898 14.0962 13.4965 14.0965 13.4985L13.8982 13.525L13.7 13.5514C13.7146 13.661 13.774 13.7507 13.8654 13.8088L13.9727 13.64ZM13.8982 13.525L14.0965 13.4985L14.0866 13.4246L13.8884 13.451L13.6901 13.4774L13.7 13.5514L13.8982 13.525ZM13.8884 13.451L14.0866 13.4246L14.0768 13.3506L13.8785 13.3771L13.6803 13.4035L13.6901 13.4774L13.8884 13.451ZM13.8785 13.3771L14.0768 13.3506C14.0705 13.3037 14.0653 13.2583 14.0611 13.2147L13.8621 13.2337L13.663 13.2526C13.6676 13.3016 13.6734 13.3519 13.6803 13.4035L13.8785 13.3771ZM13.8621 13.2337L14.0611 13.2147L14.0545 13.1452L13.8554 13.1642L13.6563 13.1832L13.663 13.2526L13.8621 13.2337ZM13.8554 13.1642L14.0545 13.1452L14.0479 13.0757L13.8488 13.0947L13.6497 13.1137L13.6563 13.1832L13.8554 13.1642ZM13.8488 13.0947L14.0479 13.0757C14.0413 13.0063 14.0225 12.938 13.9952 12.8716L13.8103 12.9477L13.6253 13.0238C13.6405 13.0608 13.6475 13.0905 13.6497 13.1137L13.8488 13.0947ZM13.8103 12.9477L13.9952 12.8716L13.9633 12.794L13.7783 12.8701L13.5934 12.9462L13.6253 13.0238L13.8103 12.9477ZM13.7783 12.8701L13.9633 12.794L13.9314 12.7164L13.7464 12.7925L13.5614 12.8686L13.5934 12.9462L13.7783 12.8701ZM13.7464 12.7925L13.9314 12.7164C13.929 12.7106 13.9294 12.7092 13.9295 12.7112C13.9295 12.7133 13.929 12.7146 13.9294 12.7136L13.7428 12.6416L13.5562 12.5695C13.5176 12.6696 13.5221 12.773 13.5614 12.8686L13.7464 12.7925ZM13.7428 12.6416L13.9294 12.7136L13.9577 12.6404L13.7711 12.5683L13.5845 12.4962L13.5562 12.5695L13.7428 12.6416ZM13.7711 12.5683L13.9577 12.6404L13.986 12.5671L13.7994 12.495L13.6129 12.4229L13.5845 12.4962L13.7711 12.5683ZM13.7994 12.495L13.986 12.5671C13.9879 12.562 13.9901 12.5578 14.0007 12.5515L13.8984 12.3796L13.7962 12.2078C13.7125 12.2575 13.6487 12.3302 13.6129 12.4229L13.7994 12.495ZM13.8984 12.3796L14.0007 12.5515L14.0714 12.5095L13.9691 12.3376L13.8668 12.1657L13.7962 12.2078L13.8984 12.3796ZM13.9691 12.3376L14.0714 12.5095L14.142 12.4674L14.0398 12.2955L13.9375 12.1237L13.8668 12.1657L13.9691 12.3376ZM14.0398 12.2955L14.142 12.4674C14.2382 12.4102 14.2994 12.3217 14.3265 12.218L14.133 12.1674L13.9394 12.1169C13.9375 12.1244 13.9358 12.126 13.9367 12.1248C13.937 12.1244 13.9375 12.1239 13.9379 12.1235C13.9384 12.123 13.9384 12.1232 13.9375 12.1237L14.0398 12.2955ZM14.133 12.1674L14.3265 12.218L14.3489 12.1319L14.1554 12.0814L13.9619 12.0308L13.9394 12.1169L14.133 12.1674ZM14.1554 12.0814L14.3489 12.1319L14.3714 12.0459L14.1779 11.9953L13.9844 11.9448L13.9619 12.0308L14.1554 12.0814ZM14.1779 11.9953L14.3714 12.0459C14.3706 12.049 14.3629 12.0738 14.3337 12.0948C14.3047 12.1156 14.2791 12.1148 14.2769 12.1147L14.2898 11.9151L14.3027 11.7155C14.2409 11.7115 14.1668 11.7222 14.1006 11.7697C14.0341 11.8174 14.0002 11.8843 13.9844 11.9448L14.1779 11.9953ZM14.2898 11.9151L14.2769 12.1147L14.3663 12.1205L14.3792 11.9209L14.3921 11.7213L14.3027 11.7155L14.2898 11.9151ZM14.3792 11.9209L14.3663 12.1205L14.4557 12.1262L14.4686 11.9267L14.4815 11.7271L14.3921 11.7213L14.3792 11.9209ZM14.4686 11.9267L14.4557 12.1262C14.5701 12.1337 14.6776 12.096 14.7606 12.0119L14.6181 11.8715L14.4757 11.7311C14.475 11.7318 14.4752 11.7315 14.4764 11.7306C14.4777 11.7298 14.4795 11.7289 14.4814 11.7281C14.4859 11.7265 14.4869 11.7274 14.4815 11.7271L14.4686 11.9267ZM14.6181 11.8715L14.7606 12.0119L14.8207 11.9509L14.6782 11.8105L14.5358 11.6701L14.4757 11.7311L14.6181 11.8715ZM14.6782 11.8105L14.8207 11.9509L14.8808 11.8899L14.7383 11.7495L14.5959 11.6091L14.5358 11.6701L14.6782 11.8105ZM14.7383 11.7495L14.8808 11.8899C14.8848 11.8858 14.885 11.8869 14.8809 11.8886C14.879 11.8894 14.8769 11.89 14.8749 11.8904C14.8729 11.8908 14.8716 11.8908 14.8715 11.8908L14.8774 11.6909L14.8832 11.4909C14.77 11.4876 14.6713 11.5326 14.5959 11.6091L14.7383 11.7495ZM14.8774 11.6909L14.8715 11.8908L14.9504 11.8931L14.9563 11.6932L14.9622 11.4933L14.8832 11.4909L14.8774 11.6909ZM14.9563 11.6932L14.9504 11.8931L15.0293 11.8954L15.0352 11.6955L15.0411 11.4956L14.9622 11.4933L14.9563 11.6932ZM15.0352 11.6955L15.0293 11.8954C15.0418 11.8958 15.0524 11.8989 15.0654 11.908L15.1804 11.7444L15.2954 11.5807C15.22 11.5278 15.1339 11.4983 15.0411 11.4956L15.0352 11.6955ZM15.1804 11.7444L15.0654 11.908L15.1316 11.9545L15.2466 11.7909L15.3616 11.6273L15.2954 11.5807L15.1804 11.7444ZM15.2466 11.7909L15.1316 11.9545L15.1978 12.0011L15.3128 11.8375L15.4278 11.6738L15.3616 11.6273L15.2466 11.7909ZM15.3128 11.8375L15.1978 12.0011C15.2662 12.0491 15.3429 12.0808 15.4262 12.093L15.4551 11.8951L15.4839 11.6972C15.4659 11.6946 15.4478 11.6878 15.4278 11.6738L15.3128 11.8375ZM15.4551 11.8951L15.4262 12.093L15.5022 12.1041L15.531 11.9062L15.5599 11.7082L15.4839 11.6972L15.4551 11.8951ZM15.531 11.9062L15.5022 12.1041L15.5782 12.1151L15.607 11.9172L15.6359 11.7193L15.5599 11.7082L15.531 11.9062ZM15.607 11.9172L15.5782 12.1151C15.5746 12.1146 15.5647 12.1121 15.5539 12.1041C15.5432 12.0962 15.539 12.0885 15.5387 12.0878L15.718 11.9993L15.8974 11.9108C15.846 11.8067 15.754 11.7365 15.6359 11.7193L15.607 11.9172ZM15.718 11.9993L15.5387 12.0878L15.5737 12.1588L15.7531 12.0703L15.9324 11.9819L15.8974 11.9108L15.718 11.9993ZM15.7531 12.0703L15.5737 12.1588L15.6087 12.2298L15.7881 12.1413L15.9675 12.0529L15.9324 11.9819L15.7531 12.0703ZM15.7881 12.1413L15.6087 12.2298C15.6428 12.2989 15.6887 12.3605 15.7476 12.411L15.8777 12.259L16.0077 12.1071C15.9939 12.0953 15.9801 12.0784 15.9675 12.0529L15.7881 12.1413ZM15.8777 12.259L15.7476 12.411L15.8022 12.4577L15.9322 12.3057L16.0623 12.1538L16.0077 12.1071L15.8777 12.259ZM15.9322 12.3057L15.8022 12.4577L15.8568 12.5044L15.9868 12.3524L16.1168 12.2004L16.0623 12.1538L15.9322 12.3057ZM15.9868 12.3524L15.8568 12.5044C15.8848 12.5284 15.9131 12.5565 15.9413 12.5892L16.0927 12.4585L16.2441 12.3278C16.2039 12.2813 16.1615 12.2387 16.1168 12.2004L15.9868 12.3524ZM16.0927 12.4585L15.9413 12.5892L15.9926 12.6487L16.144 12.518L16.2954 12.3873L16.2441 12.3278L16.0927 12.4585ZM16.144 12.518L15.9926 12.6487L16.044 12.7081L16.1953 12.5774L16.3467 12.4467L16.2954 12.3873L16.144 12.518ZM16.1953 12.5774L16.044 12.7081C16.0475 12.7122 16.0484 12.7144 16.0486 12.715C16.0488 12.7155 16.0495 12.7172 16.0496 12.7213L16.2495 12.714L16.4494 12.7066C16.4458 12.6089 16.4101 12.5201 16.3467 12.4467L16.1953 12.5774ZM16.2495 12.714L16.0496 12.7213L16.0525 12.7984L16.2523 12.7911L16.4522 12.7838L16.4494 12.7066L16.2495 12.714ZM16.2523 12.7911L16.0525 12.7984L16.0553 12.8755L16.2551 12.8682L16.455 12.8609L16.4522 12.7838L16.2523 12.7911ZM16.2551 12.8682L16.0553 12.8755C16.0562 12.9004 16.0567 12.9188 16.0568 12.9313C16.0568 12.9375 16.0568 12.9412 16.0567 12.9428C16.0567 12.9436 16.0567 12.9431 16.0568 12.9417C16.0569 12.9408 16.0572 12.9364 16.0581 12.9301L16.256 12.959L16.4539 12.9878C16.4572 12.9651 16.4569 12.9391 16.4568 12.9276C16.4566 12.9098 16.456 12.8873 16.455 12.8609L16.2551 12.8682ZM16.256 12.959L16.0581 12.9301L16.0561 12.9438L16.254 12.9726L16.4519 13.0015L16.4539 12.9878L16.256 12.959ZM16.254 12.9726L16.0561 12.9438L16.0541 12.9575L16.252 12.9863L16.4499 13.0151L16.4519 13.0015L16.254 12.9726ZM16.252 12.9863L16.0541 12.9575C16.0505 12.982 16.052 13.0036 16.0524 13.0101C16.0531 13.0207 16.0542 13.0316 16.0555 13.0414C16.058 13.0614 16.0618 13.0859 16.0666 13.1137L16.2637 13.0798L16.4608 13.0459C16.4565 13.0205 16.4538 13.0028 16.4524 12.9916C16.4517 12.9859 16.4515 12.9839 16.4516 12.9845C16.4516 12.9848 16.4517 12.9872 16.4517 12.991C16.4517 12.993 16.4517 12.9959 16.4515 12.9996C16.4513 13.0031 16.4509 13.0085 16.4499 13.0151L16.252 12.9863ZM16.2637 13.0798L16.0666 13.1137L16.0804 13.1935L16.2775 13.1597L16.4746 13.1258L16.4608 13.0459L16.2637 13.0798Z" fill="#D8F789"/>
</svg>
