<svg width="24" height="24" viewBox="0 0 24 24" fill="none" xmlns="http://www.w3.org/2000/svg">
<path xmlns="http://www.w3.org/2000/svg" id="Vector" d="M5.85 3C5.85 2.53056 5.46944 2.15 5 2.15C4.53056 2.15 4.15 2.53056 4.15 3H5H5.85ZM5 3.1L5.84656 3.17637L5.85 3.13826V3.1H5ZM4.947 3.6875L4.10044 3.61113L4.947 3.6875ZM4.94462 4.59375L4.10515 4.72708L4.94462 4.59375ZM4.99525 4.9125L5.83473 4.77917L4.99525 4.9125ZM5.04587 5.23125L4.20639 5.36458L5.04587 5.23125ZM5.18009 5.86875L4.35789 6.08437H4.35789L5.18009 5.86875ZM5.34727 6.50625L6.16947 6.29063V6.29063L5.34727 6.50625ZM5.32315 6.86875L5.00329 6.08123L5.32315 6.86875ZM5.21543 6.9125L5.1662 7.76107L5.35763 7.77218L5.53529 7.70002L5.21543 6.9125ZM5 6.9L5.04924 6.05143L4.15 5.99925V6.9H5ZM4.15 7C4.15 7.46944 4.53056 7.85 5 7.85C5.46944 7.85 5.85 7.46944 5.85 7H5H4.15ZM3 4.15C2.53056 4.15 2.15 4.53056 2.15 5C2.15 5.46944 2.53056 5.85 3 5.85V5V4.15ZM3.1 5L3.27511 4.16823L3.1885 4.15H3.1V5ZM3.6875 5.12368L3.86261 4.29192L3.6875 5.12368ZM6.50625 5.43827L6.4701 4.58904L6.50625 5.43827ZM6.86875 5.31853L6.08285 4.9947L6.86875 5.31853ZM6.9125 5.21235L7.6984 5.53618L7.77245 5.35645L7.76103 5.1624L6.9125 5.21235ZM6.9 5V4.15H5.99849L6.05147 5.04995L6.9 5ZM7 5.85C7.46944 5.85 7.85 5.46944 7.85 5C7.85 4.53056 7.46944 4.15 7 4.15V5V5.85ZM6.85 17C6.85 16.5306 6.46944 16.15 6 16.15C5.53056 16.15 5.15 16.5306 5.15 17H6H6.85ZM6 17.1H5.15V17.1084L5.15017 17.1168L6 17.1ZM6.01163 17.6875L5.1618 17.7043L6.01163 17.6875ZM6.00587 18.5938L6.8546 18.6401L6.00587 18.5938ZM5.97107 19.2313L5.12233 19.1849L5.97107 19.2313ZM6.03087 19.8687L5.20475 20.0688L6.03087 19.8687ZM6.10806 20.1875L6.93418 19.9874L6.10806 20.1875ZM6.18525 20.5063L5.35914 20.7063L6.18525 20.5063ZM6.19684 20.8687L6.6684 21.576L6.19684 20.8687ZM6.13122 20.9125L6.05062 21.7587L6.3514 21.7873L6.60278 21.6197L6.13122 20.9125ZM6 20.9L6.0806 20.0538L5.15 19.9652V20.9H6ZM5.15 21C5.15 21.4694 5.53056 21.85 6 21.85C6.46944 21.85 6.85 21.4694 6.85 21H6H5.15ZM4 18.15C3.53056 18.15 3.15 18.5306 3.15 19C3.15 19.4694 3.53056 19.85 4 19.85V19V18.15ZM4.1 19L4.4041 18.2063L4.25725 18.15H4.1V19ZM4.6875 19.2251L4.9916 18.4313L4.6875 19.2251ZM5.59375 19.314L5.92769 20.0956L5.59375 19.314ZM6.23125 19.0416L5.89731 18.26L6.23125 19.0416ZM6.86875 18.9617L6.72114 19.7988L6.86875 18.9617ZM7.1875 19.0179L7.33511 18.1808L7.1875 19.0179ZM7.50625 19.0741L7.35864 19.9112L7.50625 19.0741ZM7.86875 19.0977L8.37637 19.7795L7.86875 19.0977ZM7.9125 19.0651L8.42012 19.7469L8.84773 19.4285L8.74727 18.905L7.9125 19.0651ZM7.9 19V18.15H6.8714L7.06523 19.1602L7.9 19ZM8 19.85C8.46944 19.85 8.85 19.4694 8.85 19C8.85 18.5306 8.46944 18.15 8 18.15V19V19.85ZM13.1109 3.97102L13.9554 3.87458L13.1109 3.97102ZM13.332 4.5693L12.626 5.04272L13.332 4.5693ZM13.7003 5.11851L14.4063 4.64509L13.7003 5.11851ZM14.0407 5.67704L13.2959 6.08674L14.0407 5.67704ZM14.353 6.24489L13.6083 6.65459L14.353 6.24489ZM14.6459 6.81926L15.415 6.45747L14.6459 6.81926ZM14.9191 7.40016L14.1499 7.76195L14.9191 7.40016ZM15.0345 8.03369L15.8829 8.08621L15.0345 8.03369ZM14.992 8.71985L14.1436 8.66732L14.992 8.71985ZM15.1359 9.3316L15.86 8.88644L15.1359 9.3316ZM15.4663 9.86895L14.7422 10.3141L15.4663 9.86895ZM16.6672 10.099L16.6356 9.24961L16.6672 10.099ZM17.2657 10.3187L17.8406 9.69256L17.2657 10.3187ZM17.5189 10.5512L16.944 11.1773L17.5189 10.5512ZM17.7721 10.7837L17.1973 11.4098L17.7721 10.7837ZM18.3499 11.0586L18.2398 11.9014L18.3499 11.0586ZM18.999 11.1434L19.109 10.3005L18.999 11.1434ZM19.5831 11.4013L19.04 12.0552L19.5831 11.4013ZM20.1023 11.8325L20.6453 11.1786L20.1023 11.8325ZM20.3771 12.1456L21.2169 12.0143L20.3771 12.1456ZM20.3923 12.2432L19.5525 12.3745L20.3923 12.2432ZM20.4076 12.3408L19.5678 12.4721L20.4076 12.3408ZM20.1229 12.5464L20.4109 13.3461L20.1229 12.5464ZM19.5231 12.7624L19.2351 11.9626L19.5231 12.7624ZM18.9096 12.9422L18.7198 12.1136L18.9096 12.9422ZM18.2827 13.0858L18.4725 13.9144L18.2827 13.0858ZM17.6617 13.2456L17.8955 14.0628L17.6617 13.2456ZM17.0468 13.4215L16.813 12.6043L17.0468 13.4215ZM15.4373 14.5545L15.7758 15.3342L15.4373 14.5545ZM14.8658 14.8026L14.5273 14.0229L14.8658 14.8026ZM14.5672 15.2584L15.4165 15.2915L14.5672 15.2584ZM14.5413 15.9217L13.6919 15.8886L14.5413 15.9217ZM14.3998 16.5465L15.1782 16.888L14.3998 16.5465ZM14.2712 16.8397L13.4928 16.4982L14.2712 16.8397ZM14.0109 17.7609L14.8609 17.7688L14.0109 17.7609ZM14.0047 18.4308L13.1548 18.4229L14.0047 18.4308ZM13.7309 19.0115L13.1596 18.3822L13.7309 19.0115ZM13.4602 19.2573L14.0315 19.8866L13.4602 19.2573ZM12.8353 20.0662L12.0133 19.85L12.8353 20.0662ZM12.7518 20.3837L13.5738 20.5999L12.7518 20.3837ZM12.6683 20.7011L11.8462 20.4849L12.6683 20.7011ZM12.531 20.7005L13.3692 20.559L12.531 20.7005ZM12.4236 20.0643L11.5855 20.2059L12.4236 20.0643ZM12.3881 19.4042L13.2369 19.4495L12.3881 19.4042ZM12.4064 19.0621L13.2552 19.1074L12.4064 19.0621ZM12.4247 18.72L11.5759 18.6746L12.4247 18.72ZM12.3286 18.08L13.1221 17.7753L12.3286 18.08ZM12.2142 17.7822L11.4207 18.0869L12.2142 17.7822ZM12.0998 17.4843L12.8933 17.1796L12.0998 17.4843ZM11.7575 16.9264L12.3966 16.3661L11.7575 16.9264ZM11.5295 16.6664L12.1686 16.1061V16.1061L11.5295 16.6664ZM11.3016 16.4064L10.6624 16.9668L11.3016 16.4064ZM11.0283 15.8255L10.1866 15.9443L11.0283 15.8255ZM10.983 15.5047L11.8247 15.3859L10.983 15.5047ZM10.7385 14.5929L11.4769 14.1719L10.7385 14.5929ZM10.4307 14.0531L9.69233 14.4741L10.4307 14.0531ZM9.96315 13.7119L10.1516 12.883L9.96315 13.7119ZM9.33578 13.5693L9.14736 14.3981L9.33578 13.5693ZM8.49473 13.0887L9.01586 12.4172L8.49473 13.0887ZM8.23105 12.8841L7.70992 13.5556L8.23105 12.8841ZM7.664 12.5806L7.40069 13.3888L7.664 12.5806ZM7.36064 12.4818L7.62395 11.6736L7.36064 12.4818ZM7.05728 12.3829L6.79396 13.1911L7.05728 12.3829ZM6.44613 12.197L6.21483 13.015L6.44613 12.197ZM5.83056 12.023L6.06186 11.205L5.83056 12.023ZM5.5488 11.7946L6.38474 11.9485L5.5488 11.7946ZM5.57484 11.6532L4.7389 11.4993L5.57484 11.6532ZM5.60087 11.5119L6.43681 11.6659L5.60087 11.5119ZM5.91612 11.234L6.27901 12.0026L5.91612 11.234ZM6.20534 11.0974L5.84246 10.3288V10.3288L6.20534 11.0974ZM6.49456 10.9609L6.13168 10.1923L6.49456 10.9609ZM7.15248 10.8997L6.98224 11.7325L7.15248 10.8997ZM7.52118 10.9751L7.35094 11.8079L7.52118 10.9751ZM8.53849 10.9645L8.96298 11.7009L8.53849 10.9645ZM9.09832 10.6418L9.52281 11.3782L9.09832 10.6418ZM9.63554 10.2588L9.0808 9.61477L9.63554 10.2588ZM9.89285 10.0371L10.4476 10.6812L9.89285 10.0371ZM10.1502 9.81551L10.7049 10.4595L10.1502 9.81551ZM10.6081 9.41628L10.0447 8.77981L10.6081 9.41628ZM10.8087 9.23869L11.3721 9.87516L10.8087 9.23869ZM11.0093 9.0611L10.4459 8.42463L11.0093 9.0611ZM11.2253 8.55263L10.3762 8.51325L11.2253 8.55263ZM11.256 7.89086L12.1051 7.93024L11.256 7.89086ZM11.3106 7.23708L12.1544 7.33974L11.3106 7.23708ZM11.3499 6.91418L10.5061 6.81152L11.3499 6.91418ZM11.3892 6.59128L12.233 6.69394L11.3892 6.59128ZM12.1034 5.48541L11.4596 4.93042L12.1034 5.48541ZM12.2948 4.87723L13.1409 4.79541L12.2948 4.87723ZM12.2277 4.18285L11.3816 4.26467L12.2277 4.18285ZM12.3555 3.61339L13.0433 4.11292L12.3555 3.61339ZM12.6784 3.16887L11.9907 2.66935L12.6784 3.16887ZM12.8799 2.95996L13.1487 2.15359L12.8799 2.95996ZM12.96 2.98665L12.6911 3.79302L12.96 2.98665ZM13.037 3.32367L12.1925 3.42012L13.037 3.32367ZM5 3H4.15V3.1H5H5.85V3H5ZM5 3.1L4.15344 3.02363L4.10044 3.61113L4.947 3.6875L5.79356 3.76387L5.84656 3.17637L5 3.1ZM4.947 3.6875L4.10044 3.61113C4.06308 4.02528 4.05482 4.41021 4.10515 4.72708L4.94462 4.59375L5.7841 4.46042C5.76693 4.35229 5.76026 4.13305 5.79356 3.76387L4.947 3.6875ZM4.94462 4.59375L4.10515 4.72708L4.15577 5.04583L4.99525 4.9125L5.83473 4.77917L5.7841 4.46042L4.94462 4.59375ZM4.99525 4.9125L4.15577 5.04583L4.20639 5.36458L5.04587 5.23125L5.88535 5.09792L5.83473 4.77917L4.99525 4.9125ZM5.04587 5.23125L4.20639 5.36458C4.24463 5.60535 4.2952 5.84531 4.35789 6.08437L5.18009 5.86875L6.00229 5.65313C5.95352 5.46719 5.91461 5.28215 5.88535 5.09792L5.04587 5.23125ZM5.18009 5.86875L4.35789 6.08437L4.44149 6.40312L5.26368 6.1875L6.08588 5.97188L6.00229 5.65313L5.18009 5.86875ZM5.26368 6.1875L4.44149 6.40312L4.52508 6.72187L5.34727 6.50625L6.16947 6.29063L6.08588 5.97188L5.26368 6.1875ZM5.34727 6.50625L4.52508 6.72187C4.54537 6.79926 4.52978 6.77702 4.53492 6.69981C4.53774 6.65736 4.54955 6.55274 4.61475 6.43026C4.68871 6.29133 4.81857 6.15626 5.00329 6.08123L5.32315 6.86875L5.64301 7.65627C6.13063 7.45822 6.21894 6.99643 6.23116 6.81269C6.24434 6.61465 6.2049 6.42574 6.16947 6.29063L5.34727 6.50625ZM5.32315 6.86875L5.00329 6.08123L4.89558 6.12498L5.21543 6.9125L5.53529 7.70002L5.64301 7.65627L5.32315 6.86875ZM5.21543 6.9125L5.26467 6.06393L5.04924 6.05143L5 6.9L4.95076 7.74857L5.1662 7.76107L5.21543 6.9125ZM5 6.9H4.15V7H5H5.85V6.9H5ZM3 5V5.85H3.1V5V4.15H3V5ZM3.1 5L2.92489 5.83177L3.51239 5.95545L3.6875 5.12368L3.86261 4.29192L3.27511 4.16823L3.1 5ZM3.6875 5.12368L3.51239 5.95545C3.90646 6.03842 4.21763 6.10086 4.44183 6.14159L4.59375 5.30527L4.74567 4.46896C4.54487 4.43248 4.25187 4.37387 3.86261 4.29192L3.6875 5.12368ZM4.59375 5.30527L4.44183 6.14159L4.76058 6.19949L4.9125 5.36318L5.06442 4.52686L4.74567 4.46896L4.59375 5.30527ZM4.9125 5.36318L4.76058 6.19949L5.07933 6.25739L5.23125 5.42108L5.38317 4.58477L5.06442 4.52686L4.9125 5.36318ZM5.23125 5.42108L5.07933 6.25739C5.35288 6.30709 5.62846 6.32641 5.9049 6.31465L5.86875 5.46541L5.8326 4.61618C5.68404 4.62251 5.53462 4.61228 5.38317 4.58477L5.23125 5.42108ZM5.86875 5.46541L5.9049 6.31465L6.22365 6.30108L6.1875 5.45184L6.15135 4.60261L5.8326 4.61618L5.86875 5.46541ZM6.1875 5.45184L6.22365 6.30108L6.5424 6.28751L6.50625 5.43827L6.4701 4.58904L6.15135 4.60261L6.1875 5.45184ZM6.50625 5.43827L6.5424 6.28751C6.68208 6.28156 6.85474 6.26419 7.02286 6.20866C7.1675 6.16088 7.49844 6.02145 7.65465 5.64236L6.86875 5.31853L6.08285 4.9947C6.14633 4.84065 6.24605 4.74014 6.32496 4.68191C6.39957 4.62684 6.46339 4.60312 6.48964 4.59445C6.53693 4.57883 6.54292 4.58594 6.4701 4.58904L6.50625 5.43827ZM6.86875 5.31853L7.65465 5.64236L7.6984 5.53618L6.9125 5.21235L6.1266 4.88852L6.08285 4.9947L6.86875 5.31853ZM6.9125 5.21235L7.76103 5.1624L7.74853 4.95005L6.9 5L6.05147 5.04995L6.06397 5.2623L6.9125 5.21235ZM6.9 5V5.85H7V5V4.15H6.9V5ZM6 17H5.15V17.1H6H6.85V17H6ZM6 17.1L5.15017 17.1168L5.1618 17.7043L6.01163 17.6875L6.86146 17.6707L6.84983 17.0832L6 17.1ZM6.01163 17.6875L5.1618 17.7043C5.16942 18.0893 5.167 18.3666 5.15713 18.5474L6.00587 18.5938L6.8546 18.6401C6.86793 18.3959 6.86935 18.0691 6.86146 17.6707L6.01163 17.6875ZM6.00587 18.5938L5.15713 18.5474L5.13973 18.8662L5.98847 18.9125L6.8372 18.9588L6.8546 18.6401L6.00587 18.5938ZM5.98847 18.9125L5.13973 18.8662L5.12233 19.1849L5.97107 19.2313L6.81981 19.2776L6.8372 18.9588L5.98847 18.9125ZM5.97107 19.2313L5.12233 19.1849C5.10609 19.4825 5.13431 19.778 5.20475 20.0688L6.03087 19.8687L6.85699 19.6687C6.8245 19.5345 6.81285 19.405 6.81981 19.2776L5.97107 19.2313ZM6.03087 19.8687L5.20475 20.0688L5.28194 20.3876L6.10806 20.1875L6.93418 19.9874L6.85699 19.6687L6.03087 19.8687ZM6.10806 20.1875L5.28194 20.3876L5.35914 20.7063L6.18525 20.5063L7.01137 20.3062L6.93418 19.9874L6.10806 20.1875ZM6.18525 20.5063L5.35914 20.7063C5.38025 20.7935 5.37804 20.8102 5.37718 20.7834C5.3768 20.7715 5.37456 20.7042 5.39926 20.6113C5.42274 20.523 5.49787 20.3132 5.72528 20.1616L6.19684 20.8687L6.6684 21.576C6.91767 21.4097 7.00873 21.1739 7.04218 21.0481C7.07684 20.9177 7.07862 20.8014 7.07631 20.7291C7.0716 20.5814 7.04172 20.4315 7.01137 20.3062L6.18525 20.5063ZM6.19684 20.8687L5.72528 20.1616L5.65967 20.2053L6.13122 20.9125L6.60278 21.6197L6.6684 21.576L6.19684 20.8687ZM6.13122 20.9125L6.21183 20.0663L6.0806 20.0538L6 20.9L5.9194 21.7462L6.05062 21.7587L6.13122 20.9125ZM6 20.9H5.15V21H6H6.85V20.9H6ZM4 19V19.85H4.1V19V18.15H4V19ZM4.1 19L3.7959 19.7937L4.3834 20.0188L4.6875 19.2251L4.9916 18.4313L4.4041 18.2063L4.1 19ZM4.6875 19.2251L4.3834 20.0188C4.82907 20.1896 5.40008 20.321 5.92769 20.0956L5.59375 19.314L5.25981 18.5323C5.31973 18.5067 5.34281 18.519 5.2908 18.5139C5.23809 18.5087 5.14133 18.4887 4.9916 18.4313L4.6875 19.2251ZM5.59375 19.314L5.92769 20.0956L6.24644 19.9595L5.9125 19.1778L5.57856 18.3962L5.25981 18.5323L5.59375 19.314ZM5.9125 19.1778L6.24644 19.9595L6.56519 19.8233L6.23125 19.0416L5.89731 18.26L5.57856 18.3962L5.9125 19.1778ZM6.23125 19.0416L6.56519 19.8233C6.63722 19.7925 6.68279 19.792 6.72114 19.7988L6.86875 18.9617L7.01636 18.1246C6.62971 18.0564 6.25028 18.1092 5.89731 18.26L6.23125 19.0416ZM6.86875 18.9617L6.72114 19.7988L7.03989 19.855L7.1875 19.0179L7.33511 18.1808L7.01636 18.1246L6.86875 18.9617ZM7.1875 19.0179L7.03989 19.855L7.35864 19.9112L7.50625 19.0741L7.65386 18.237L7.33511 18.1808L7.1875 19.0179ZM7.50625 19.0741L7.35864 19.9112C7.47581 19.9318 7.5946 19.9494 7.70095 19.9563C7.75237 19.9597 7.82634 19.9624 7.90777 19.9549C7.94783 19.9512 8.16765 19.9349 8.37637 19.7795L7.86875 19.0977L7.36113 18.4159C7.47284 18.3328 7.57767 18.2988 7.62821 18.2849C7.68454 18.2694 7.72906 18.2641 7.7516 18.2621C7.79554 18.258 7.82055 18.2605 7.81155 18.2599C7.79707 18.259 7.74919 18.2538 7.65386 18.237L7.50625 19.0741ZM7.86875 19.0977L8.37637 19.7795L8.42012 19.7469L7.9125 19.0651L7.40488 18.3834L7.36113 18.4159L7.86875 19.0977ZM7.9125 19.0651L8.74727 18.905L8.73477 18.8398L7.9 19L7.06523 19.1602L7.07773 19.2253L7.9125 19.0651ZM7.9 19V19.85H8V19V18.15H7.9V19ZM13.0739 3.64735L12.2294 3.74379L12.2664 4.06746L13.1109 3.97102L13.9554 3.87458L13.9184 3.55091L13.0739 3.64735ZM13.1109 3.97102L12.2664 4.06746C12.3067 4.42025 12.4288 4.74861 12.626 5.04272L13.332 4.5693L14.038 4.09588C13.9897 4.02385 13.9644 3.95336 13.9554 3.87458L13.1109 3.97102ZM13.332 4.5693L12.626 5.04272L12.8102 5.31732L13.5162 4.8439L14.2221 4.37049L14.038 4.09588L13.332 4.5693ZM13.5162 4.8439L12.8102 5.31732L12.9944 5.59193L13.7003 5.11851L14.4063 4.64509L14.2221 4.37049L13.5162 4.8439ZM13.7003 5.11851L12.9944 5.59193C13.1035 5.75476 13.204 5.91969 13.2959 6.08674L14.0407 5.67704L14.7854 5.26733C14.669 5.05582 14.5426 4.8484 14.4063 4.64509L13.7003 5.11851ZM14.0407 5.67704L13.2959 6.08674L13.4521 6.37067L14.1968 5.96096L14.9416 5.55126L14.7854 5.26733L14.0407 5.67704ZM14.1968 5.96096L13.4521 6.37067L13.6083 6.65459L14.353 6.24489L15.0978 5.83518L14.9416 5.55126L14.1968 5.96096ZM14.353 6.24489L13.6083 6.65459C13.7039 6.82831 13.7933 7.0038 13.8767 7.18105L14.6459 6.81926L15.415 6.45747C15.3162 6.24746 15.2105 6.04003 15.0978 5.83518L14.353 6.24489ZM14.6459 6.81926L13.8767 7.18105L14.0133 7.4715L14.7825 7.10971L15.5516 6.74792L15.415 6.45747L14.6459 6.81926ZM14.7825 7.10971L14.0133 7.4715L14.1499 7.76195L14.9191 7.40016L15.6883 7.03837L15.5516 6.74792L14.7825 7.10971ZM14.9191 7.40016L14.1499 7.76195C14.1759 7.81721 14.1921 7.8846 14.1861 7.98117L15.0345 8.03369L15.8829 8.08621C15.9052 7.72534 15.8444 7.37038 15.6883 7.03837L14.9191 7.40016ZM15.0345 8.03369L14.1861 7.98117L14.1649 8.32425L15.0132 8.37677L15.8616 8.42929L15.8829 8.08621L15.0345 8.03369ZM15.0132 8.37677L14.1649 8.32425L14.1436 8.66732L14.992 8.71985L15.8404 8.77237L15.8616 8.42929L15.0132 8.37677ZM14.992 8.71985L14.1436 8.66732C14.1197 9.05428 14.2017 9.43501 14.4118 9.77675L15.1359 9.3316L15.86 8.88644C15.8499 8.86995 15.836 8.84285 15.8404 8.77237L14.992 8.71985ZM15.1359 9.3316L14.4118 9.77675L14.577 10.0454L15.3011 9.60027L16.0252 9.15512L15.86 8.88644L15.1359 9.3316ZM15.3011 9.60027L14.577 10.0454L14.7422 10.3141L15.4663 9.86895L16.1904 9.42379L16.0252 9.15512L15.3011 9.60027ZM15.4663 9.86895L14.7422 10.3141C15.0307 10.7835 15.5075 10.9928 16.0084 10.9742L15.9767 10.1248L15.945 9.27534C15.9429 9.27542 15.9903 9.27375 16.0573 9.30733C16.1283 9.3429 16.1715 9.39311 16.1904 9.42379L15.4663 9.86895ZM15.9767 10.1248L16.0084 10.9742L16.3536 10.9613L16.322 10.1119L16.2903 9.26248L15.945 9.27534L15.9767 10.1248ZM16.322 10.1119L16.3536 10.9613L16.6989 10.9484L16.6672 10.099L16.6356 9.24961L16.2903 9.26248L16.322 10.1119ZM16.6672 10.099L16.6989 10.9484C16.7067 10.9481 16.7093 10.9487 16.7076 10.9485C16.7058 10.9482 16.7018 10.9474 16.6966 10.9455C16.6914 10.9435 16.6875 10.9415 16.6856 10.9403C16.6838 10.9392 16.6856 10.94 16.6908 10.9448L17.2657 10.3187L17.8406 9.69256C17.5059 9.38531 17.0882 9.23274 16.6356 9.24961L16.6672 10.099ZM17.2657 10.3187L16.6908 10.9448L16.944 11.1773L17.5189 10.5512L18.0938 9.92507L17.8406 9.69256L17.2657 10.3187ZM17.5189 10.5512L16.944 11.1773L17.1973 11.4098L17.7721 10.7837L18.347 10.1576L18.0938 9.92507L17.5189 10.5512ZM17.7721 10.7837L17.1973 11.4098C17.4881 11.6769 17.8409 11.8493 18.2398 11.9014L18.3499 11.0586L18.46 10.2157C18.4262 10.2113 18.3938 10.2005 18.347 10.1576L17.7721 10.7837ZM18.3499 11.0586L18.2398 11.9014L18.5644 11.9438L18.6744 11.101L18.7845 10.2581L18.46 10.2157L18.3499 11.0586ZM18.6744 11.101L18.5644 11.9438L18.8889 11.9862L18.999 11.1434L19.109 10.3005L18.7845 10.2581L18.6744 11.101ZM18.999 11.1434L18.8889 11.9862C18.9409 11.993 18.9865 12.0108 19.04 12.0552L19.5831 11.4013L20.1261 10.7474C19.8335 10.5044 19.4898 10.3502 19.109 10.3005L18.999 11.1434ZM19.5831 11.4013L19.04 12.0552L19.2996 12.2708L19.8427 11.6169L20.3857 10.963L20.1261 10.7474L19.5831 11.4013ZM19.8427 11.6169L19.2996 12.2708L19.5592 12.4864L20.1023 11.8325L20.6453 11.1786L20.3857 10.963L19.8427 11.6169ZM20.1023 11.8325L19.5592 12.4864C19.5923 12.5139 19.6173 12.536 19.6354 12.553C19.6444 12.5614 19.651 12.5679 19.6556 12.5726C19.6602 12.5773 19.6621 12.5795 19.6619 12.5792C19.6617 12.579 19.6582 12.575 19.6524 12.5674C19.6468 12.5599 19.6371 12.5464 19.6255 12.5271C19.6142 12.5082 19.5981 12.479 19.5823 12.4403C19.5667 12.4019 19.5482 12.3466 19.5373 12.2769L20.3771 12.1456L21.2169 12.0143C21.1715 11.7238 20.9973 11.5236 20.9396 11.4579C20.852 11.3581 20.7479 11.2638 20.6453 11.1786L20.1023 11.8325ZM20.3771 12.1456L19.5373 12.2769L19.5525 12.3745L20.3923 12.2432L21.2321 12.1119L21.2169 12.0143L20.3771 12.1456ZM20.3923 12.2432L19.5525 12.3745L19.5678 12.4721L20.4076 12.3408L21.2474 12.2095L21.2321 12.1119L20.3923 12.2432ZM20.4076 12.3408L19.5678 12.4721C19.5323 12.2453 19.6011 12.0558 19.6777 11.935C19.7458 11.8277 19.8207 11.7704 19.8464 11.7519C19.8957 11.7163 19.9105 11.7195 19.835 11.7466L20.1229 12.5464L20.4109 13.3461C20.5353 13.3013 20.6975 13.2342 20.8417 13.1301C20.9407 13.0586 21.3318 12.7495 21.2474 12.2095L20.4076 12.3408ZM20.1229 12.5464L19.835 11.7466L19.5351 11.8546L19.823 12.6544L20.1109 13.4541L20.4109 13.3461L20.1229 12.5464ZM19.823 12.6544L19.5351 11.8546L19.2351 11.9626L19.5231 12.7624L19.811 13.5621L20.1109 13.4541L19.823 12.6544ZM19.5231 12.7624L19.2351 11.9626C19.0675 12.0229 18.8958 12.0733 18.7198 12.1136L18.9096 12.9422L19.0995 13.7707C19.3414 13.7153 19.5787 13.6458 19.811 13.5621L19.5231 12.7624ZM18.9096 12.9422L18.7198 12.1136L18.4063 12.1855L18.5961 13.014L18.786 13.8425L19.0995 13.7707L18.9096 12.9422ZM18.5961 13.014L18.4063 12.1855L18.0928 12.2573L18.2827 13.0858L18.4725 13.9144L18.786 13.8425L18.5961 13.014ZM18.2827 13.0858L18.0928 12.2573C17.8692 12.3085 17.6475 12.3656 17.4279 12.4284L17.6617 13.2456L17.8955 14.0628C18.0859 14.0084 18.2782 13.9589 18.4725 13.9144L18.2827 13.0858ZM17.6617 13.2456L17.4279 12.4284L17.1205 12.5164L17.3543 13.3336L17.5881 14.1508L17.8955 14.0628L17.6617 13.2456ZM17.3543 13.3336L17.1205 12.5164L16.813 12.6043L17.0468 13.4215L17.2807 14.2388L17.5881 14.1508L17.3543 13.3336ZM17.0468 13.4215L16.813 12.6043C16.474 12.7014 16.1733 12.8754 15.9146 13.1099L16.4853 13.7397L17.0561 14.3696C17.1361 14.2971 17.2098 14.259 17.2807 14.2388L17.0468 13.4215ZM16.4853 13.7397L15.9146 13.1099L15.6605 13.3401L16.2312 13.97L16.802 14.5999L17.0561 14.3696L16.4853 13.7397ZM16.2312 13.97L15.6605 13.3401L15.4064 13.5703L15.9772 14.2002L16.5479 14.8301L16.802 14.5999L16.2312 13.97ZM15.9772 14.2002L15.4064 13.5703C15.2989 13.6678 15.1961 13.7326 15.0988 13.7748L15.4373 14.5545L15.7758 15.3342C16.0595 15.211 16.3167 15.0396 16.5479 14.8301L15.9772 14.2002ZM15.4373 14.5545L15.0988 13.7748L14.8131 13.8989L15.1516 14.6786L15.4901 15.4582L15.7758 15.3342L15.4373 14.5545ZM15.1516 14.6786L14.8131 13.8989L14.5273 14.0229L14.8658 14.8026L15.2043 15.5823L15.4901 15.4582L15.1516 14.6786ZM14.8658 14.8026L14.5273 14.0229C14.3024 14.1206 14.0906 14.2789 13.9374 14.5126C13.7863 14.7432 13.7268 14.9942 13.7178 15.2252L14.5672 15.2584L15.4165 15.2915C15.4161 15.3014 15.4107 15.3659 15.3592 15.4445C15.3056 15.5263 15.2388 15.5674 15.2043 15.5823L14.8658 14.8026ZM14.5672 15.2584L13.7178 15.2252L13.7049 15.5569L14.5542 15.59L15.4036 15.6232L15.4165 15.2915L14.5672 15.2584ZM14.5542 15.59L13.7049 15.5569L13.6919 15.8886L14.5413 15.9217L15.3906 15.9549L15.4036 15.6232L14.5542 15.59ZM14.5413 15.9217L13.6919 15.8886C13.6873 16.0074 13.6628 16.1107 13.6214 16.2051L14.3998 16.5465L15.1782 16.888C15.3082 16.5915 15.378 16.2783 15.3906 15.9549L14.5413 15.9217ZM14.3998 16.5465L13.6214 16.2051L13.4928 16.4982L14.2712 16.8397L15.0496 17.1811L15.1782 16.888L14.3998 16.5465ZM14.2712 16.8397L13.4928 16.4982L13.3642 16.7914L14.1426 17.1328L14.921 17.4742L15.0496 17.1811L14.2712 16.8397ZM14.1426 17.1328L13.3642 16.7914C13.2302 17.0969 13.1641 17.4203 13.161 17.753L14.0109 17.7609L14.8609 17.7688C14.862 17.6549 14.8836 17.5596 14.921 17.4742L14.1426 17.1328ZM14.0109 17.7609L13.161 17.753L13.1579 18.088L14.0078 18.0959L14.8578 18.1037L14.8609 17.7688L14.0109 17.7609ZM14.0078 18.0959L13.1579 18.088L13.1548 18.4229L14.0047 18.4308L14.8547 18.4387L14.8578 18.1037L14.0078 18.0959ZM14.0047 18.4308L13.1548 18.4229C13.1548 18.4216 13.155 18.4159 13.157 18.407C13.159 18.398 13.1621 18.389 13.1659 18.381C13.1696 18.3731 13.1727 18.3689 13.1729 18.3686C13.173 18.3685 13.1694 18.3733 13.1596 18.3822L13.7309 19.0115L14.3022 19.6409C14.6403 19.334 14.8502 18.9221 14.8547 18.4387L14.0047 18.4308ZM13.7309 19.0115L13.1596 18.3822L12.8889 18.6279L13.4602 19.2573L14.0315 19.8866L14.3022 19.6409L13.7309 19.0115ZM13.4602 19.2573L12.8889 18.6279L12.6182 18.8737L13.1895 19.503L13.7608 20.1324L14.0315 19.8866L13.4602 19.2573ZM13.1895 19.503L12.6182 18.8737C12.3303 19.135 12.1155 19.4615 12.0133 19.85L12.8353 20.0662L13.6573 20.2825C13.6665 20.2476 13.6878 20.1987 13.7608 20.1324L13.1895 19.503ZM12.8353 20.0662L12.0133 19.85L11.9298 20.1674L12.7518 20.3837L13.5738 20.5999L13.6573 20.2825L12.8353 20.0662ZM12.7518 20.3837L11.9298 20.1674L11.8462 20.4849L12.6683 20.7011L13.4903 20.9174L13.5738 20.5999L12.7518 20.3837ZM12.6683 20.7011L11.8462 20.4849C11.8364 20.5222 11.8393 20.4998 11.862 20.4525C11.8718 20.4321 11.908 20.3578 11.9825 20.2763C12.0485 20.2041 12.2549 20.0082 12.5961 20.0097C12.9508 20.0114 13.1614 20.223 13.2349 20.3132C13.3111 20.407 13.3444 20.4919 13.3532 20.515C13.374 20.569 13.3755 20.5962 13.3692 20.559L12.531 20.7005L11.6929 20.8421C11.7045 20.9109 11.7252 21.0176 11.7663 21.1247C11.7854 21.1743 11.8291 21.2791 11.9162 21.3862C12.0005 21.4897 12.2222 21.708 12.5883 21.7097C12.941 21.7113 13.1591 21.5088 13.2372 21.4234C13.3237 21.3287 13.3723 21.2346 13.3948 21.1878C13.4428 21.0877 13.4723 20.9859 13.4903 20.9174L12.6683 20.7011ZM12.531 20.7005L13.3692 20.559L13.3154 20.2409L12.4773 20.3824L11.6392 20.524L11.6929 20.8421L12.531 20.7005ZM12.4773 20.3824L13.3154 20.2409L13.2617 19.9228L12.4236 20.0643L11.5855 20.2059L11.6392 20.524L12.4773 20.3824ZM12.4236 20.0643L13.2617 19.9228C13.237 19.7761 13.2279 19.6189 13.2369 19.4495L12.3881 19.4042L11.5394 19.3588C11.524 19.6455 11.5386 19.9284 11.5855 20.2059L12.4236 20.0643ZM12.3881 19.4042L13.2369 19.4495L13.2552 19.1074L12.4064 19.0621L11.5576 19.0167L11.5394 19.3588L12.3881 19.4042ZM12.4064 19.0621L13.2552 19.1074L13.2735 18.7653L12.4247 18.72L11.5759 18.6746L11.5576 19.0167L12.4064 19.0621ZM12.4247 18.72L13.2735 18.7653C13.2916 18.4269 13.2443 18.0934 13.1221 17.7753L12.3286 18.08L11.5351 18.3848C11.5654 18.4638 11.5822 18.5569 11.5759 18.6746L12.4247 18.72ZM12.3286 18.08L13.1221 17.7753L13.0077 17.4774L12.2142 17.7822L11.4207 18.0869L11.5351 18.3848L12.3286 18.08ZM12.2142 17.7822L13.0077 17.4774L12.8933 17.1796L12.0998 17.4843L11.3063 17.789L11.4207 18.0869L12.2142 17.7822ZM12.0998 17.4843L12.8933 17.1796C12.7782 16.8798 12.6092 16.6085 12.3966 16.3661L11.7575 16.9264L11.1183 17.4868C11.2097 17.591 11.2689 17.6917 11.3063 17.789L12.0998 17.4843ZM11.7575 16.9264L12.3966 16.3661L12.1686 16.1061L11.5295 16.6664L10.8904 17.2268L11.1183 17.4868L11.7575 16.9264ZM11.5295 16.6664L12.1686 16.1061L11.9407 15.8461L11.3016 16.4064L10.6624 16.9668L10.8904 17.2268L11.5295 16.6664ZM11.3016 16.4064L11.9407 15.8461C11.8901 15.7884 11.8755 15.7458 11.87 15.7068L11.0283 15.8255L10.1866 15.9443C10.2415 16.3332 10.4091 16.6779 10.6624 16.9668L11.3016 16.4064ZM11.0283 15.8255L11.87 15.7068L11.8247 15.3859L10.983 15.5047L10.1414 15.6234L10.1866 15.9443L11.0283 15.8255ZM10.983 15.5047L11.8247 15.3859L11.7794 15.065L10.9377 15.1838L10.0961 15.3025L10.1414 15.6234L10.983 15.5047ZM10.9377 15.1838L11.7794 15.065C11.7348 14.7493 11.635 14.4492 11.4769 14.1719L10.7385 14.5929L10.0001 15.014C10.0472 15.0966 10.0802 15.1903 10.0961 15.3025L10.9377 15.1838ZM10.7385 14.5929L11.4769 14.1719L11.323 13.902L10.5846 14.323L9.84623 14.7441L10.0001 15.014L10.7385 14.5929ZM10.5846 14.323L11.323 13.902L11.1691 13.6321L10.4307 14.0531L9.69233 14.4741L9.84623 14.7441L10.5846 14.323ZM10.4307 14.0531L11.1691 13.6321C10.9439 13.237 10.5838 12.9813 10.1516 12.883L9.96315 13.7119L9.77473 14.5408C9.7791 14.5417 9.76126 14.538 9.73583 14.5195C9.70979 14.5005 9.69606 14.4807 9.69233 14.4741L10.4307 14.0531ZM9.96315 13.7119L10.1516 12.883L9.83789 12.8117L9.64947 13.6406L9.46105 14.4694L9.77473 14.5408L9.96315 13.7119ZM9.64947 13.6406L9.83789 12.8117L9.52421 12.7404L9.33578 13.5693L9.14736 14.3981L9.46105 14.4694L9.64947 13.6406ZM9.33578 13.5693L9.52421 12.7404C9.44073 12.7214 9.36103 12.6851 9.27954 12.6218L8.75841 13.2933L8.23729 13.9648C8.50737 14.1744 8.81259 14.322 9.14736 14.3981L9.33578 13.5693ZM8.75841 13.2933L9.27954 12.6218L9.01586 12.4172L8.49473 13.0887L7.9736 13.7602L8.23729 13.9648L8.75841 13.2933ZM8.49473 13.0887L9.01586 12.4172L8.75217 12.2126L8.23105 12.8841L7.70992 13.5556L7.9736 13.7602L8.49473 13.0887ZM8.23105 12.8841L8.75217 12.2126C8.50258 12.0189 8.22698 11.87 7.92731 11.7724L7.664 12.5806L7.40069 13.3888C7.50551 13.4229 7.60794 13.4764 7.70992 13.5556L8.23105 12.8841ZM7.664 12.5806L7.92731 11.7724L7.62395 11.6736L7.36064 12.4818L7.09733 13.2899L7.40069 13.3888L7.664 12.5806ZM7.36064 12.4818L7.62395 11.6736L7.32059 11.5747L7.05728 12.3829L6.79396 13.1911L7.09733 13.2899L7.36064 12.4818ZM7.05728 12.3829L7.32059 11.5747C7.10772 11.5054 6.89333 11.4402 6.67743 11.3791L6.44613 12.197L6.21483 13.015C6.40931 13.07 6.60235 13.1287 6.79396 13.1911L7.05728 12.3829ZM6.44613 12.197L6.67743 11.3791L6.36964 11.2921L6.13834 12.11L5.90704 12.9279L6.21483 13.015L6.44613 12.197ZM6.13834 12.11L6.36964 11.2921L6.06186 11.205L5.83056 12.023L5.59925 12.8409L5.90704 12.9279L6.13834 12.11ZM5.83056 12.023L6.06186 11.205C5.99833 11.1871 6.0549 11.1919 6.14147 11.262C6.1919 11.3029 6.27336 11.383 6.33195 11.5134C6.39507 11.6539 6.4108 11.8071 6.38474 11.9485L5.5488 11.7946L4.71286 11.6406C4.6324 12.0775 4.85657 12.4089 5.07098 12.5827C5.25146 12.729 5.45759 12.8008 5.59925 12.8409L5.83056 12.023ZM5.5488 11.7946L6.38474 11.9485L6.41078 11.8072L5.57484 11.6532L4.7389 11.4993L4.71286 11.6406L5.5488 11.7946ZM5.57484 11.6532L6.41078 11.8072L6.43681 11.6659L5.60087 11.5119L4.76493 11.3579L4.7389 11.4993L5.57484 11.6532ZM5.60087 11.5119L6.43681 11.6659C6.39823 11.8753 6.2814 11.9859 6.25477 12.0094C6.22484 12.0358 6.22135 12.0299 6.27901 12.0026L5.91612 11.234L5.55324 10.4654C5.41809 10.5292 5.26565 10.6151 5.13063 10.7341C4.99892 10.8502 4.82087 11.0542 4.76493 11.3579L5.60087 11.5119ZM5.91612 11.234L6.27901 12.0026L6.56823 11.8661L6.20534 11.0974L5.84246 10.3288L5.55324 10.4654L5.91612 11.234ZM6.20534 11.0974L6.56823 11.8661L6.85745 11.7295L6.49456 10.9609L6.13168 10.1923L5.84246 10.3288L6.20534 11.0974ZM6.49456 10.9609L6.85745 11.7295C6.86143 11.7277 6.86793 11.725 6.88235 11.7237C6.89817 11.7222 6.93004 11.7218 6.98224 11.7325L7.15248 10.8997L7.32272 10.0669C6.92983 9.98664 6.51858 10.0096 6.13168 10.1923L6.49456 10.9609ZM7.15248 10.8997L6.98224 11.7325L7.35094 11.8079L7.52118 10.9751L7.69141 10.1423L7.32272 10.0669L7.15248 10.8997ZM7.52118 10.9751L7.35094 11.8079L7.71964 11.8832L7.88987 11.0505L8.06011 10.2177L7.69141 10.1423L7.52118 10.9751ZM7.88987 11.0505L7.71964 11.8832C8.13325 11.9678 8.56741 11.9289 8.96298 11.7009L8.53849 10.9645L8.114 10.2281C8.11505 10.2275 8.11747 10.2262 8.12067 10.2252C8.12384 10.2241 8.12551 10.2239 8.12467 10.224C8.12338 10.2242 8.10394 10.2266 8.06011 10.2177L7.88987 11.0505ZM8.53849 10.9645L8.96298 11.7009L9.24289 11.5395L8.8184 10.8031L8.39391 10.0667L8.114 10.2281L8.53849 10.9645ZM8.8184 10.8031L9.24289 11.5395L9.52281 11.3782L9.09832 10.6418L8.67383 9.90536L8.39391 10.0667L8.8184 10.8031ZM9.09832 10.6418L9.52281 11.3782C9.75793 11.2427 9.98038 11.0836 10.1903 10.9028L9.63554 10.2588L9.0808 9.61477C8.94763 9.72948 8.81193 9.82576 8.67383 9.90536L9.09832 10.6418ZM9.63554 10.2588L10.1903 10.9028L10.4476 10.6812L9.89285 10.0371L9.3381 9.39313L9.0808 9.61477L9.63554 10.2588ZM9.89285 10.0371L10.4476 10.6812L10.7049 10.4595L10.1502 9.81551L9.59541 9.17149L9.3381 9.39313L9.89285 10.0371ZM10.1502 9.81551L10.7049 10.4595C10.8786 10.3099 11.0342 10.1742 11.1715 10.0527L10.6081 9.41628L10.0447 8.77981C9.91444 8.89511 9.76477 9.02561 9.59541 9.17149L10.1502 9.81551ZM10.6081 9.41628L11.1715 10.0527L11.3721 9.87516L10.8087 9.23869L10.2453 8.60222L10.0447 8.77981L10.6081 9.41628ZM10.8087 9.23869L11.3721 9.87516L11.5727 9.69757L11.0093 9.0611L10.4459 8.42463L10.2453 8.60222L10.8087 9.23869ZM11.0093 9.0611L11.5727 9.69757C11.9174 9.39246 12.0562 8.98431 12.0744 8.592L11.2253 8.55263L10.3762 8.51325C10.3749 8.54227 10.3708 8.5375 10.3813 8.51289C10.3866 8.50046 10.3947 8.48503 10.4065 8.4685C10.4184 8.45189 10.4319 8.43706 10.4459 8.42463L11.0093 9.0611ZM11.2253 8.55263L12.0744 8.592L12.0897 8.26112L11.2407 8.22174L10.3916 8.18237L10.3762 8.51325L11.2253 8.55263ZM11.2407 8.22174L12.0897 8.26112L12.1051 7.93024L11.256 7.89086L10.4069 7.85149L10.3916 8.18237L11.2407 8.22174ZM11.256 7.89086L12.1051 7.93024C12.1143 7.73042 12.1308 7.53361 12.1544 7.33974L11.3106 7.23708L10.4668 7.13442C10.4381 7.37109 10.4181 7.61013 10.4069 7.85149L11.256 7.89086ZM11.3106 7.23708L12.1544 7.33974L12.1937 7.01684L11.3499 6.91418L10.5061 6.81152L10.4668 7.13442L11.3106 7.23708ZM11.3499 6.91418L12.1937 7.01684L12.233 6.69394L11.3892 6.59128L10.5454 6.48862L10.5061 6.81152L11.3499 6.91418ZM11.3892 6.59128L12.233 6.69394C12.2376 6.65609 12.2504 6.61672 12.2973 6.56238L11.6535 6.00739L11.0097 5.4524C10.7565 5.74605 10.5932 6.09594 10.5454 6.48862L11.3892 6.59128ZM11.6535 6.00739L12.2973 6.56238L12.5223 6.30139L11.8784 5.7464L11.2346 5.19141L11.0097 5.4524L11.6535 6.00739ZM11.8784 5.7464L12.5223 6.30139L12.7472 6.0404L12.1034 5.48541L11.4596 4.93042L11.2346 5.19141L11.8784 5.7464ZM12.1034 5.48541L12.7472 6.0404C13.0508 5.68821 13.1853 5.25463 13.1409 4.79541L12.2948 4.87723L11.4488 4.95905C11.4495 4.96641 11.449 4.96794 11.4493 4.96472C11.4496 4.96131 11.4506 4.95523 11.453 4.94769C11.4554 4.94014 11.4582 4.93402 11.4605 4.92999C11.4627 4.92612 11.4631 4.92634 11.4596 4.93042L12.1034 5.48541ZM12.2948 4.87723L13.1409 4.79541L13.1073 4.44822L12.2613 4.53004L11.4152 4.61186L11.4488 4.95905L12.2948 4.87723ZM12.2613 4.53004L13.1073 4.44822L13.0737 4.10102L12.2277 4.18285L11.3816 4.26467L11.4152 4.61186L12.2613 4.53004ZM12.2277 4.18285L13.0737 4.10102C13.0696 4.05798 13.0741 4.04489 13.0722 4.0531C13.0712 4.05745 13.0688 4.06612 13.0637 4.0776C13.0586 4.08921 13.0517 4.10133 13.0433 4.11292L12.3555 3.61339L11.6678 3.11387C11.4081 3.4715 11.3448 3.88411 11.3816 4.26467L12.2277 4.18285ZM12.3555 3.61339L13.0433 4.11292L13.2047 3.89066L12.517 3.39113L11.8293 2.89161L11.6678 3.11387L12.3555 3.61339ZM12.517 3.39113L13.2047 3.89066L13.3662 3.6684L12.6784 3.16887L11.9907 2.66935L11.8293 2.89161L12.517 3.39113ZM12.6784 3.16887L13.3662 3.6684C13.4134 3.6034 13.4295 3.58714 13.4213 3.59556C13.4207 3.59627 13.3825 3.63735 13.3141 3.68159C13.2794 3.70408 13.2078 3.74662 13.106 3.7763C13.0034 3.80622 12.8216 3.83651 12.6111 3.76633L12.8799 2.95996L13.1487 2.15359C12.7406 2.01755 12.4262 2.23127 12.3904 2.25443C12.2986 2.31386 12.2319 2.37994 12.1977 2.41547C12.1224 2.49353 12.0511 2.58617 11.9907 2.66935L12.6784 3.16887ZM12.8799 2.95996L12.6111 3.76633L12.6511 3.77968L12.9199 2.97331L13.1888 2.16694L13.1487 2.15359L12.8799 2.95996ZM12.9199 2.97331L12.6511 3.77968L12.6911 3.79302L12.96 2.98665L13.2288 2.18028L13.1888 2.16694L12.9199 2.97331ZM12.96 2.98665L12.6911 3.79302C12.4654 3.71777 12.3405 3.57139 12.2934 3.50937C12.2396 3.43869 12.2111 3.37661 12.1994 3.34971C12.1859 3.3183 12.1784 3.29456 12.1754 3.28436C12.1736 3.27836 12.1723 3.27388 12.1717 3.27121C12.1709 3.2685 12.1706 3.267 12.1706 3.2669C12.1706 3.26677 12.1708 3.26765 12.1712 3.26965C12.1716 3.27163 12.1721 3.27448 12.1728 3.27826C12.1742 3.28595 12.176 3.29642 12.1781 3.31005C12.1823 3.33762 12.1872 3.3739 12.1925 3.42012L13.037 3.32367L13.8815 3.22723C13.8681 3.11025 13.8514 2.99102 13.8279 2.88826C13.8171 2.84097 13.797 2.76103 13.7601 2.67574C13.742 2.63368 13.7069 2.55968 13.6465 2.4803C13.5927 2.4096 13.4612 2.25776 13.2288 2.18028L12.96 2.98665ZM13.037 3.32367L12.1925 3.42012L12.2294 3.74379L13.0739 3.64735L13.9184 3.55091L13.8815 3.22723L13.037 3.32367Z" fill="#D8F789" />

</svg>