<svg width="24" height="24" viewBox="0 0 24 24" fill="none" xmlns="http://www.w3.org/2000/svg">
<path xmlns="http://www.w3.org/2000/svg" id="Vector" d="M21.0749 12.7409L21.9206 12.6554L21.0749 12.7409ZM21.0891 12.8817L21.9348 12.7962L21.0891 12.8817ZM20.9927 14.062L21.8132 14.2841L20.9927 14.062ZM20.9191 14.3342L20.0986 14.1121L20.9191 14.3342ZM20.5516 15.4791L19.7551 15.1824L20.5516 15.4791ZM20.453 15.744L21.2495 16.0408L20.453 15.744ZM19.8373 16.7575L19.2064 16.1878L19.8373 16.7575ZM19.7422 16.8628L20.373 17.4325L19.7422 16.8628ZM19.6471 16.9681L19.0163 16.3984L19.6471 16.9681ZM18.8125 17.8153L19.3908 18.4383L18.8125 17.8153ZM18.7118 17.9088L18.1336 17.2858L18.7118 17.9088ZM18.6111 18.0022L19.1894 18.6252L18.6111 18.0022ZM17.7623 18.8065L18.3534 19.4174L17.7623 18.8065ZM17.5655 18.9969L16.9745 18.386L17.5655 18.9969ZM16.6761 19.773L17.2021 20.4407L16.6761 19.773ZM16.5659 19.8598L16.0399 19.1922L16.5659 19.8598ZM16.4557 19.9467L16.9817 20.6144L16.4557 19.9467ZM15.3696 20.3382L15.399 21.1877L15.3696 20.3382ZM15.0805 20.3482L15.0511 19.4988L15.0805 20.3482ZM13.815 20.7938L14.2799 21.5054L13.815 20.7938ZM13.6916 20.8744L13.2267 20.1628L13.6916 20.8744ZM12.5673 21.1153L12.4235 21.9531L12.5673 21.1153ZM12.2866 21.0671L12.1427 21.9049L12.2866 21.0671ZM11.1315 20.7857L11.3914 19.9763L11.1315 20.7857ZM10.8704 20.7018L10.6105 21.5111L10.8704 20.7018ZM9.69766 20.5659L9.63873 19.718L9.69766 20.5659ZM9.40865 20.586L9.46758 21.4339L9.40865 20.586ZM8.29474 20.2985L7.82481 21.0068L8.29474 20.2985ZM8.17796 20.221L7.70803 20.9293L8.17796 20.221ZM8.06118 20.1435L8.53111 19.4352L8.06118 20.1435ZM7.05473 19.5174L6.62737 20.2521L7.05473 19.5174ZM6.93543 19.448L7.36278 18.7132L6.93543 19.448ZM6.81612 19.3786L6.38877 20.1134L6.81612 19.3786ZM5.86428 18.6902L6.42784 18.0539L5.86428 18.6902ZM5.65633 18.5061L5.09277 19.1424L5.65633 18.5061ZM4.90209 17.4453L4.13146 17.8039L4.90209 17.4453ZM4.843 17.3183L5.61362 16.9596L4.843 17.3183ZM4.14408 16.3495L3.55659 16.9638L4.14408 16.3495ZM3.93437 16.149L4.52186 15.5347L3.93437 16.149ZM3.57032 14.7877L2.72366 14.7125L3.57032 14.7877ZM3.40668 13.6101L2.61915 13.9299L3.40668 13.6101ZM3.35505 13.483L4.14258 13.1631L3.35505 13.483ZM3.30342 13.3558L2.51589 13.6757L3.30342 13.3558ZM2.93131 12.2221L3.75458 12.0106L2.93131 12.2221ZM2.86 11.9445L2.03673 12.156L2.86 11.9445ZM2.82028 10.7596L1.98511 10.6016L2.82028 10.7596ZM2.84662 10.6205L3.68178 10.7786L2.84662 10.6205ZM2.87295 10.4814L2.03778 10.3233L2.87295 10.4814ZM3.33309 9.38322L4.03312 9.86536L3.33309 9.38322ZM3.41468 9.26475L2.71465 8.78261L3.41468 9.26475ZM3.49628 9.14628L4.19631 9.62842L3.49628 9.14628ZM3.97259 8.04981L3.14195 7.8694L3.97259 8.04981ZM4.65305 6.81833L5.15751 7.50245L4.65305 6.81833ZM4.76841 6.73327L4.26394 6.04915L4.76841 6.73327ZM4.88376 6.64821L5.38822 7.33233L4.88376 6.64821ZM6.71299 4.80301L6.23375 4.10099L6.71299 4.80301ZM7.90366 3.97286L7.40772 3.28253L7.90366 3.97286ZM8.01736 3.89117L8.51329 4.5815L8.01736 3.89117ZM8.13106 3.80949L7.63513 3.11916L8.13106 3.80949ZM9.19104 3.30822L8.97251 2.48679L9.19104 3.30822ZM10.6206 2.94702L10.8137 3.77478L10.6206 2.94702ZM10.7577 2.91503L10.5645 2.08726L10.7577 2.91503ZM12.3281 3.10526L11.9973 3.88827L12.3281 3.10526ZM13.521 3.23292L13.3629 2.39775L13.521 3.23292ZM13.6653 3.20561L13.8234 4.04078L13.6653 3.20561ZM13.8096 3.1783L13.6515 2.34313L13.8096 3.1783ZM14.9289 3.40187L14.4537 4.10662L14.9289 3.40187ZM15.0472 3.48162L15.5224 2.77686L15.0472 3.48162ZM15.1655 3.56137L14.6903 4.26613L15.1655 3.56137ZM16.2609 4.05179L16.0513 4.87554L16.2609 4.05179ZM16.3995 4.08707L16.6091 3.26332L16.3995 4.08707ZM16.5382 4.12235L16.3286 4.9461L16.5382 4.12235ZM17.4987 4.75772L18.1749 4.24268L17.4987 4.75772ZM17.5853 4.87148L16.9092 5.38653L17.5853 4.87148ZM17.672 4.98524L18.3482 4.47019L17.672 4.98524ZM18.4436 5.88692L19.0552 5.29663L18.4436 5.88692ZM18.6323 6.08241L18.0206 6.6727L18.6323 6.08241ZM19.3051 7.01011L20.0563 6.6122L19.3051 7.01011ZM19.4321 7.24984L18.681 7.64775L19.4321 7.24984ZM20.0038 8.25788L20.7309 7.81763L20.0038 8.25788ZM20.145 8.49107L19.4179 8.93132L20.145 8.49107ZM20.5995 9.5502L21.4195 9.3262L20.5995 9.5502ZM20.6355 9.68204L19.8156 9.90604L20.6355 9.68204ZM20.6715 9.81388L21.4915 9.58989V9.58989L20.6715 9.81388ZM20.9222 10.955L20.084 11.0956L20.9222 10.955ZM20.945 11.0908L21.7833 10.9502L20.945 11.0908ZM20.9678 11.2267L20.1295 11.3673L20.9678 11.2267ZM21.0387 11.8844L21.8448 12.154L21.0387 11.8844ZM21.0263 11.9213L20.2202 11.6517L21.0263 11.9213ZM21.0607 12.6001L20.215 12.6856L21.0607 12.6001ZM21.0749 12.7409L20.2292 12.8264L20.2434 12.9672L21.0891 12.8817L21.9348 12.7962L21.9206 12.6554L21.0749 12.7409ZM21.0891 12.8817L20.2434 12.9672C20.2735 13.2644 20.2498 13.5536 20.1723 13.8399L20.9927 14.062L21.8132 14.2841C21.9451 13.7968 21.9857 13.2991 21.9348 12.7962L21.0891 12.8817ZM20.9927 14.062L20.1723 13.8399L20.1354 13.976L20.9559 14.1981L21.7764 14.4202L21.8132 14.2841L20.9927 14.062ZM20.9559 14.1981L20.1354 13.976L20.0986 14.1121L20.9191 14.3342L21.7395 14.5563L21.7764 14.4202L20.9559 14.1981ZM20.9191 14.3342L20.0986 14.1121C20.0007 14.4737 19.8863 14.8304 19.7551 15.1824L20.5516 15.4791L21.3482 15.7759C21.4975 15.375 21.628 14.9684 21.7395 14.5563L20.9191 14.3342ZM20.5516 15.4791L19.7551 15.1824L19.7058 15.3148L20.5023 15.6116L21.2988 15.9083L21.3482 15.7759L20.5516 15.4791ZM20.5023 15.6116L19.7058 15.3148L19.6564 15.4473L20.453 15.744L21.2495 16.0408L21.2988 15.9083L20.5023 15.6116ZM20.453 15.744L19.6564 15.4473C19.5538 15.7227 19.4049 15.968 19.2064 16.1878L19.8373 16.7575L20.4681 17.3272C20.81 16.9486 21.0716 16.5182 21.2495 16.0408L20.453 15.744ZM19.8373 16.7575L19.2064 16.1878L19.1114 16.2931L19.7422 16.8628L20.373 17.4325L20.4681 17.3272L19.8373 16.7575ZM19.7422 16.8628L19.1114 16.2931L19.0163 16.3984L19.6471 16.9681L20.2779 17.5378L20.373 17.4325L19.7422 16.8628ZM19.6471 16.9681L19.0163 16.3984C18.7622 16.6797 18.5015 16.9442 18.2343 17.1923L18.8125 17.8153L19.3908 18.4383C19.6958 18.1552 19.9915 17.8549 20.2779 17.5378L19.6471 16.9681ZM18.8125 17.8153L18.2343 17.1923L18.1336 17.2858L18.7118 17.9088L19.2901 18.5318L19.3908 18.4383L18.8125 17.8153ZM18.7118 17.9088L18.1336 17.2858L18.0329 17.3792L18.6111 18.0022L19.1894 18.6252L19.2901 18.5318L18.7118 17.9088ZM18.6111 18.0022L18.0329 17.3792C17.7424 17.6488 17.4553 17.921 17.1713 18.1956L17.7623 18.8065L18.3534 19.4174C18.6288 19.1509 18.9075 18.8869 19.1894 18.6252L18.6111 18.0022ZM17.7623 18.8065L17.1713 18.1956L17.0729 18.2908L17.6639 18.9017L18.2549 19.5126L18.3534 19.4174L17.7623 18.8065ZM17.6639 18.9017L17.0729 18.2908L16.9745 18.386L17.5655 18.9969L18.1565 19.6078L18.2549 19.5126L17.6639 18.9017ZM17.5655 18.9969L16.9745 18.386C16.716 18.6361 16.4413 18.8759 16.1501 19.1053L16.6761 19.773L17.2021 20.4407C17.5374 20.1765 17.8557 19.8989 18.1565 19.6078L17.5655 18.9969ZM16.6761 19.773L16.1501 19.1053L16.0399 19.1922L16.5659 19.8598L17.0919 20.5275L17.2021 20.4407L16.6761 19.773ZM16.5659 19.8598L16.0399 19.1922L15.9296 19.279L16.4557 19.9467L16.9817 20.6144L17.0919 20.5275L16.5659 19.8598ZM16.4557 19.9467L15.9296 19.279C15.763 19.4103 15.5762 19.4806 15.3401 19.4887L15.3696 20.3382L15.399 21.1877C15.9845 21.1674 16.5218 20.9767 16.9817 20.6144L16.4557 19.9467ZM15.3696 20.3382L15.3401 19.4887L15.1956 19.4938L15.225 20.3432L15.2545 21.1927L15.399 21.1877L15.3696 20.3382ZM15.225 20.3432L15.1956 19.4938L15.0511 19.4988L15.0805 20.3482L15.1099 21.1977L15.2545 21.1927L15.225 20.3432ZM15.0805 20.3482L15.0511 19.4988C14.4822 19.5185 13.9513 19.6894 13.4734 20.0016L13.9384 20.7132L14.4033 21.4248C14.6266 21.2789 14.8572 21.2065 15.1099 21.1977L15.0805 20.3482ZM13.9384 20.7132L13.4734 20.0016L13.3501 20.0822L13.815 20.7938L14.2799 21.5054L14.4033 21.4248L13.9384 20.7132ZM13.815 20.7938L13.3501 20.0822L13.2267 20.1628L13.6916 20.8744L14.1565 21.586L14.2799 21.5054L13.815 20.7938ZM13.6916 20.8744L13.2267 20.1628C13.0489 20.279 12.8905 20.3084 12.7111 20.2776L12.5673 21.1153L12.4235 21.9531C13.0419 22.0592 13.6331 21.928 14.1565 21.586L13.6916 20.8744ZM12.5673 21.1153L12.7111 20.2776L12.5708 20.2535L12.4269 21.0912L12.2831 21.929L12.4235 21.9531L12.5673 21.1153ZM12.4269 21.0912L12.5708 20.2535L12.4304 20.2294L12.2866 21.0671L12.1427 21.9049L12.2831 21.929L12.4269 21.0912ZM12.2866 21.0671L12.4304 20.2294C12.0693 20.1674 11.7231 20.0829 11.3914 19.9763L11.1315 20.7857L10.8717 21.595C11.2822 21.7268 11.706 21.8299 12.1427 21.9049L12.2866 21.0671ZM11.1315 20.7857L11.3914 19.9763L11.2608 19.9344L11.001 20.7437L10.7411 21.553L10.8717 21.595L11.1315 20.7857ZM11.001 20.7437L11.2608 19.9344L11.1302 19.8925L10.8704 20.7018L10.6105 21.5111L10.7411 21.553L11.001 20.7437ZM10.8704 20.7018L11.1302 19.8925C10.6506 19.7385 10.151 19.6823 9.63873 19.718L9.69766 20.5659L9.75659 21.4139C10.0657 21.3924 10.348 21.4268 10.6105 21.5111L10.8704 20.7018ZM9.69766 20.5659L9.63873 19.718L9.49423 19.728L9.55316 20.5759L9.61209 21.4239L9.75659 21.4139L9.69766 20.5659ZM9.55316 20.5759L9.49423 19.728L9.34972 19.738L9.40865 20.586L9.46758 21.4339L9.61209 21.4239L9.55316 20.5759ZM9.40865 20.586L9.34972 19.738C9.11912 19.7541 8.93494 19.7032 8.76467 19.5902L8.29474 20.2985L7.82481 21.0068C8.31835 21.3342 8.87677 21.475 9.46758 21.4339L9.40865 20.586ZM8.29474 20.2985L8.76467 19.5902L8.64789 19.5127L8.17796 20.221L7.70803 20.9293L7.82481 21.0068L8.29474 20.2985ZM8.17796 20.221L8.64789 19.5127L8.53111 19.4352L8.06118 20.1435L7.59125 20.8518L7.70803 20.9293L8.17796 20.221ZM8.06118 20.1435L8.53111 19.4352C8.18549 19.2059 7.83582 18.9884 7.48208 18.7826L7.05473 19.5174L6.62737 20.2521C6.95177 20.4408 7.27306 20.6407 7.59125 20.8518L8.06118 20.1435ZM7.05473 19.5174L7.48208 18.7826L7.36278 18.7132L6.93543 19.448L6.50807 20.1828L6.62737 20.2521L7.05473 19.5174ZM6.93543 19.448L7.36278 18.7132L7.24348 18.6439L6.81612 19.3786L6.38877 20.1134L6.50807 20.1828L6.93543 19.448ZM6.81612 19.3786L7.24348 18.6439C6.95327 18.4751 6.68157 18.2786 6.42784 18.0539L5.86428 18.6902L5.30072 19.3265C5.63799 19.6253 6.00085 19.8878 6.38877 20.1134L6.81612 19.3786ZM5.86428 18.6902L6.42784 18.0539L6.32387 17.9618L5.7603 18.5981L5.19674 19.2345L5.30072 19.3265L5.86428 18.6902ZM5.7603 18.5981L6.32387 17.9618L6.21989 17.8697L5.65633 18.5061L5.09277 19.1424L5.19674 19.2345L5.7603 18.5981ZM5.65633 18.5061L6.21989 17.8697C6.01249 17.6861 5.85093 17.4695 5.7318 17.2136L4.96117 17.5722L4.19055 17.9309C4.4073 18.3966 4.70918 18.8026 5.09277 19.1424L5.65633 18.5061ZM4.96117 17.5722L5.7318 17.2136L5.67271 17.0866L4.90209 17.4453L4.13146 17.8039L4.19055 17.9309L4.96117 17.5722ZM4.90209 17.4453L5.67271 17.0866L5.61362 16.9596L4.843 17.3183L4.07237 17.6769L4.13146 17.8039L4.90209 17.4453ZM4.843 17.3183L5.61362 16.9596C5.39946 16.4995 5.10319 16.0906 4.73157 15.7352L4.14408 16.3495L3.55659 16.9638C3.78098 17.1784 3.95065 17.4154 4.07237 17.6769L4.843 17.3183ZM4.14408 16.3495L4.73157 15.7352L4.62672 15.6349L4.03922 16.2492L3.45173 16.8635L3.55659 16.9638L4.14408 16.3495ZM4.03922 16.2492L4.62672 15.6349L4.52186 15.5347L3.93437 16.149L3.34688 16.7633L3.45173 16.8635L4.03922 16.2492ZM3.93437 16.149L4.52186 15.5347C4.41727 15.4346 4.37487 15.337 4.3905 15.1611L3.54383 15.0859L2.69717 15.0106C2.6375 15.6822 2.85546 16.2933 3.34688 16.7633L3.93437 16.149ZM3.54383 15.0859L4.3905 15.1611L4.40374 15.012L3.55708 14.9368L2.71041 14.8615L2.69717 15.0106L3.54383 15.0859ZM3.55708 14.9368L4.40374 15.012L4.41699 14.8629L3.57032 14.7877L2.72366 14.7125L2.71041 14.8615L3.55708 14.9368ZM3.57032 14.7877L4.41699 14.8629C4.46548 14.3171 4.39627 13.7878 4.19421 13.2903L3.40668 13.6101L2.61915 13.9299C2.71057 14.155 2.75046 14.4108 2.72366 14.7125L3.57032 14.7877ZM3.40668 13.6101L4.19421 13.2903L4.14258 13.1631L3.35505 13.483L2.56752 13.8028L2.61915 13.9299L3.40668 13.6101ZM3.35505 13.483L4.14258 13.1631L4.09095 13.036L3.30342 13.3558L2.51589 13.6757L2.56752 13.8028L3.35505 13.483ZM3.30342 13.3558L4.09095 13.036C3.95915 12.7115 3.84686 12.3699 3.75458 12.0106L2.93131 12.2221L2.10804 12.4336C2.21842 12.8633 2.3542 13.2775 2.51589 13.6757L3.30342 13.3558ZM2.93131 12.2221L3.75458 12.0106L3.71893 11.8718L2.89565 12.0833L2.07238 12.2948L2.10804 12.4336L2.93131 12.2221ZM2.89565 12.0833L3.71893 11.8718L3.68327 11.733L2.86 11.9445L2.03673 12.156L2.07238 12.2948L2.89565 12.0833ZM2.86 11.9445L3.68327 11.733C3.61259 11.4579 3.60409 11.1891 3.65545 10.9177L2.82028 10.7596L1.98511 10.6016C1.88677 11.1211 1.90475 11.6422 2.03673 12.156L2.86 11.9445ZM2.82028 10.7596L3.65545 10.9177L3.68178 10.7786L2.84662 10.6205L2.01145 10.4624L1.98511 10.6016L2.82028 10.7596ZM2.84662 10.6205L3.68178 10.7786L3.70812 10.6395L2.87295 10.4814L2.03778 10.3233L2.01145 10.4624L2.84662 10.6205ZM2.87295 10.4814L3.70812 10.6395C3.76061 10.3622 3.86722 10.1062 4.03312 9.86536L3.33309 9.38322L2.63306 8.90108C2.33515 9.33362 2.135 9.80976 2.03778 10.3233L2.87295 10.4814ZM3.33309 9.38322L4.03312 9.86536L4.11471 9.74689L3.41468 9.26475L2.71465 8.78261L2.63306 8.90108L3.33309 9.38322ZM3.41468 9.26475L4.11471 9.74689L4.19631 9.62842L3.49628 9.14628L2.79625 8.66414L2.71465 8.78261L3.41468 9.26475ZM3.49628 9.14628L4.19631 9.62842C4.49011 9.20184 4.69379 8.73407 4.80322 8.23021L3.97259 8.04981L3.14195 7.8694C3.08012 8.15409 2.96626 8.4173 2.79625 8.66414L3.49628 9.14628ZM3.97259 8.04981L4.80322 8.23021L4.83335 8.09149L4.00272 7.91108L3.17208 7.73067L3.14195 7.8694L3.97259 8.04981ZM4.00272 7.91108L4.83335 8.09149L4.86348 7.95276L4.03285 7.77235L3.20221 7.59195L3.17208 7.73067L4.00272 7.91108ZM4.03285 7.77235L4.86348 7.95276C4.90478 7.76259 4.99427 7.62282 5.15751 7.50245L4.65305 6.81833L4.14859 6.13421C3.65616 6.49732 3.33217 6.99357 3.20221 7.59195L4.03285 7.77235ZM4.65305 6.81833L5.15751 7.50245L5.27287 7.41739L4.76841 6.73327L4.26394 6.04915L4.14859 6.13421L4.65305 6.81833ZM4.76841 6.73327L5.27287 7.41739L5.38822 7.33233L4.88376 6.64821L4.3793 5.96409L4.26394 6.04915L4.76841 6.73327ZM4.88376 6.64821L5.38822 7.33233C5.78053 7.04304 6.12109 6.70727 6.40512 6.3246L5.72258 5.818L5.04005 5.31139C4.86133 5.55218 4.64266 5.76989 4.3793 5.96409L4.88376 6.64821ZM5.72258 5.818L6.40512 6.3246L6.48653 6.21492L5.804 5.70831L5.12146 5.20171L5.04005 5.31139L5.72258 5.818ZM5.804 5.70831L6.48653 6.21492L6.56794 6.10524L5.88541 5.59863L5.20287 5.09203L5.12146 5.20171L5.804 5.70831ZM5.88541 5.59863L6.56794 6.10524C6.74296 5.86944 6.95013 5.6703 7.19223 5.50503L6.71299 4.80301L6.23375 4.10099C5.83516 4.37309 5.49061 4.70436 5.20287 5.09203L5.88541 5.59863ZM6.71299 4.80301L7.19223 5.50503L7.30494 5.42808L6.8257 4.72607L6.34646 4.02405L6.23375 4.10099L6.71299 4.80301ZM6.8257 4.72607L7.30494 5.42808L7.41765 5.35114L6.93841 4.64912L6.45917 3.9471L6.34646 4.02405L6.8257 4.72607ZM6.93841 4.64912L7.41765 5.35114C7.74374 5.12853 8.07106 4.89921 8.39959 4.66319L7.90366 3.97286L7.40772 3.28253C7.08994 3.51083 6.77376 3.73235 6.45917 3.9471L6.93841 4.64912ZM7.90366 3.97286L8.39959 4.66319L8.51329 4.5815L8.01736 3.89117L7.52143 3.20085L7.40772 3.28253L7.90366 3.97286ZM8.01736 3.89117L8.51329 4.5815L8.627 4.49981L8.13106 3.80949L7.63513 3.11916L7.52143 3.20085L8.01736 3.89117ZM8.13106 3.80949L8.627 4.49981C8.86664 4.32766 9.12601 4.20508 9.40957 4.12965L9.19104 3.30822L8.97251 2.48679C8.48909 2.6154 8.04181 2.827 7.63513 3.11916L8.13106 3.80949ZM9.19104 3.30822L9.40957 4.12965L9.5445 4.09375L9.32598 3.27232L9.10745 2.45089L8.97251 2.48679L9.19104 3.30822ZM9.32598 3.27232L9.5445 4.09375L9.67944 4.05785L9.46091 3.23642L9.24238 2.41499L9.10745 2.45089L9.32598 3.27232ZM9.46091 3.23642L9.67944 4.05785C10.0544 3.95809 10.4325 3.86373 10.8137 3.77478L10.6206 2.94702L10.4274 2.11925C10.0294 2.21213 9.63437 2.31071 9.24238 2.41499L9.46091 3.23642ZM10.6206 2.94702L10.8137 3.77478L10.9508 3.74279L10.7577 2.91503L10.5645 2.08726L10.4274 2.11925L10.6206 2.94702ZM10.7577 2.91503L10.9508 3.74279L11.0879 3.7108L10.8947 2.88304L10.7016 2.05527L10.5645 2.08726L10.7577 2.91503ZM10.8947 2.88304L11.0879 3.7108C11.2943 3.66264 11.4985 3.67758 11.7262 3.77376L12.057 2.99075L12.3877 2.20775C11.845 1.97847 11.2744 1.9216 10.7016 2.05527L10.8947 2.88304ZM12.057 2.99075L11.7262 3.77376L11.8618 3.83101L12.1925 3.04801L12.5233 2.265L12.3877 2.20775L12.057 2.99075ZM12.1925 3.04801L11.8618 3.83101L11.9973 3.88827L12.3281 3.10526L12.6588 2.32226L12.5233 2.265L12.1925 3.04801ZM12.3281 3.10526L11.9973 3.88827C12.5365 4.11602 13.1041 4.17692 13.6791 4.06809L13.521 3.23292L13.3629 2.39775C13.1177 2.44416 12.8901 2.41996 12.6588 2.32226L12.3281 3.10526ZM13.521 3.23292L13.6791 4.06809L13.8234 4.04078L13.6653 3.20561L13.5072 2.37044L13.3629 2.39775L13.521 3.23292ZM13.6653 3.20561L13.8234 4.04078L13.9677 4.01347L13.8096 3.1783L13.6515 2.34313L13.5072 2.37044L13.6653 3.20561ZM13.8096 3.1783L13.9677 4.01347C14.1649 3.97613 14.3092 4.0092 14.4537 4.10662L14.9289 3.40187L15.4041 2.69711C14.8763 2.3412 14.2744 2.22522 13.6515 2.34313L13.8096 3.1783ZM14.9289 3.40187L14.4537 4.10662L14.572 4.18638L15.0472 3.48162L15.5224 2.77686L15.4041 2.69711L14.9289 3.40187ZM15.0472 3.48162L14.572 4.18638L14.6903 4.26613L15.1655 3.56137L15.6407 2.85662L15.5224 2.77686L15.0472 3.48162ZM15.1655 3.56137L14.6903 4.26613C15.1077 4.5476 15.5627 4.75124 16.0513 4.87554L16.2609 4.05179L16.4705 3.22804C16.1708 3.15179 15.8956 3.02848 15.6407 2.85662L15.1655 3.56137ZM16.2609 4.05179L16.0513 4.87554L16.1899 4.91082L16.3995 4.08707L16.6091 3.26332L16.4705 3.22804L16.2609 4.05179ZM16.3995 4.08707L16.1899 4.91082L16.3286 4.9461L16.5382 4.12235L16.7478 3.2986L16.6091 3.26332L16.3995 4.08707ZM16.5382 4.12235L16.3286 4.9461C16.5369 4.9991 16.6926 5.10216 16.8225 5.27277L17.4987 4.75772L18.1749 4.24268C17.8123 3.76667 17.3277 3.44615 16.7478 3.2986L16.5382 4.12235ZM17.4987 4.75772L16.8225 5.27277L16.9092 5.38653L17.5853 4.87148L18.2615 4.35644L18.1749 4.24268L17.4987 4.75772ZM17.5853 4.87148L16.9092 5.38653L16.9958 5.50028L17.672 4.98524L18.3482 4.47019L18.2615 4.35644L17.5853 4.87148ZM17.672 4.98524L16.9958 5.50028C17.2611 5.84854 17.5397 6.17438 17.832 6.4772L18.4436 5.88692L19.0552 5.29663C18.8112 5.04383 18.5754 4.76855 18.3482 4.47019L17.672 4.98524ZM18.4436 5.88692L17.832 6.4772L17.9263 6.57495L18.5379 5.98466L19.1495 5.39438L19.0552 5.29663L18.4436 5.88692ZM18.5379 5.98466L17.9263 6.57495L18.0206 6.6727L18.6323 6.08241L19.2439 5.49213L19.1495 5.39438L18.5379 5.98466ZM18.6323 6.08241L18.0206 6.6727C18.2336 6.89332 18.4109 7.13782 18.554 7.40802L19.3051 7.01011L20.0563 6.6122C19.8385 6.2011 19.5672 5.82713 19.2439 5.49213L18.6323 6.08241ZM19.3051 7.01011L18.554 7.40802L18.6175 7.52789L19.3686 7.12997L20.1198 6.73206L20.0563 6.6122L19.3051 7.01011ZM19.3686 7.12997L18.6175 7.52789L18.681 7.64775L19.4321 7.24984L20.1833 6.85193L20.1198 6.73206L19.3686 7.12997ZM19.4321 7.24984L18.681 7.64775C18.8691 8.00281 19.0677 8.35295 19.2767 8.69813L20.0038 8.25788L20.7309 7.81763C20.5386 7.50007 20.3561 7.17817 20.1833 6.85193L19.4321 7.24984ZM20.0038 8.25788L19.2767 8.69813L19.3473 8.81473L20.0744 8.37448L20.8015 7.93422L20.7309 7.81763L20.0038 8.25788ZM20.0744 8.37448L19.3473 8.81473L19.4179 8.93132L20.145 8.49107L20.8721 8.05082L20.8015 7.93422L20.0744 8.37448ZM20.145 8.49107L19.4179 8.93132C19.5776 9.19508 19.6979 9.47532 19.7796 9.7742L20.5995 9.5502L21.4195 9.3262C21.2964 8.87566 21.1137 8.44981 20.8721 8.05082L20.145 8.49107ZM20.5995 9.5502L19.7796 9.7742L19.8156 9.90604L20.6355 9.68204L21.4555 9.45804L21.4195 9.3262L20.5995 9.5502ZM20.6355 9.68204L19.8156 9.90604L19.8516 10.0379L20.6715 9.81388L21.4915 9.58989L21.4555 9.45804L20.6355 9.68204ZM20.6715 9.81388L19.8516 10.0379C19.9464 10.3849 20.0239 10.7375 20.084 11.0956L20.9222 10.955L21.7605 10.8144C21.6911 10.4005 21.6014 9.99226 21.4915 9.58989L20.6715 9.81388ZM20.9222 10.955L20.084 11.0956L20.1068 11.2315L20.945 11.0908L21.7833 10.9502L21.7605 10.8144L20.9222 10.955ZM20.945 11.0908L20.1068 11.2315L20.1295 11.3673L20.9678 11.2267L21.8061 11.086L21.7833 10.9502L20.945 11.0908ZM20.9678 11.2267L20.1295 11.3673C20.1609 11.5543 20.1798 11.6866 20.189 11.7716C20.1937 11.8152 20.1943 11.8329 20.1943 11.8327C20.1943 11.8327 20.1939 11.8171 20.1958 11.7916C20.1968 11.7783 20.1989 11.7573 20.2034 11.7308C20.2076 11.7058 20.2159 11.6646 20.2325 11.6148L21.0387 11.8844L21.8448 12.154C21.9013 11.9848 21.8946 11.8248 21.8939 11.7948C21.8924 11.7267 21.8863 11.6556 21.8792 11.5896C21.8648 11.4554 21.8395 11.285 21.8061 11.086L20.9678 11.2267ZM21.0387 11.8844L20.2325 11.6148L20.2264 11.6333L21.0325 11.9028L21.8386 12.1724L21.8448 12.154L21.0387 11.8844ZM21.0325 11.9028L20.2264 11.6333L20.2202 11.6517L21.0263 11.9213L21.8324 12.1909L21.8386 12.1724L21.0325 11.9028ZM21.0263 11.9213L20.2202 11.6517C20.1701 11.8015 20.1694 11.9454 20.1688 11.9747C20.1674 12.0386 20.1695 12.1072 20.1728 12.1733C20.1796 12.3075 20.1942 12.4805 20.215 12.6856L21.0607 12.6001L21.9064 12.5146C21.8867 12.3197 21.8753 12.1795 21.8707 12.0874C21.8683 12.0404 21.8683 12.0175 21.8684 12.0118C21.8685 12.0089 21.8684 12.0199 21.8662 12.0398C21.8651 12.0502 21.863 12.0677 21.8588 12.0899C21.8549 12.1108 21.8472 12.1467 21.8324 12.1909L21.0263 11.9213ZM21.0607 12.6001L20.215 12.6856L20.2292 12.8264L21.0749 12.7409L21.9206 12.6554L21.9064 12.5146L21.0607 12.6001Z" fill="#D8F789" />
<path xmlns="http://www.w3.org/2000/svg" id="Vector_2" d="M9 10H9.01M15 10H15.01" stroke="#D8F789" stroke-width="1.7" stroke-linecap="round" />
<path xmlns="http://www.w3.org/2000/svg" id="Vector_3" d="M14.8279 15.6779C15.2973 15.6779 15.6779 15.2973 15.6779 14.8279C15.6779 14.3584 15.2973 13.9779 14.8279 13.9779V14.8279V15.6779ZM14.7279 14.8279V13.9779H14.1362L13.9308 14.5327L14.7279 14.8279ZM14.6889 14.9332L13.8918 14.638L14.6889 14.9332ZM14.3091 15.5047L13.8857 14.7677L14.3091 15.5047ZM14.209 15.5623L14.6324 16.2993L14.209 15.5623ZM13.7798 15.8065L14.1971 16.547L13.7798 15.8065ZM13.6785 15.8636L13.2612 15.1231L13.6785 15.8636ZM13.0864 15.9633L13.037 16.8118L13.0864 15.9633ZM12.5934 15.9321L12.5354 16.7801L12.5934 15.9321ZM12.5378 15.9283L12.5959 15.0803L12.5378 15.9283ZM12.4823 15.9245L12.4243 16.7725L12.4823 15.9245ZM12.0132 15.9448L11.8812 15.1051L12.0132 15.9448ZM11.9588 15.9534L12.0908 16.7931L11.9588 15.9534ZM11.4248 16.0293L11.3197 15.1858L11.4248 16.0293ZM11.3088 16.0438L11.414 16.8872L11.3088 16.0438ZM10.8876 15.8489L10.2144 16.3678L10.8876 15.8489ZM10.8468 15.796L11.52 15.277L10.8468 15.796ZM10.806 15.743L10.1328 16.262L10.806 15.743ZM10.3401 15.5861L10.1453 14.7588L10.3401 15.5861ZM9.7703 15.4656L9.05309 15.9218L9.7703 15.4656ZM9.47775 14.9406L8.69646 15.2754L9.47775 14.9406ZM9.27915 14.7206L8.67802 14.1196L9.27915 14.7206ZM9.26203 14.7377L8.66089 14.1368L8.37281 14.4249L8.41705 14.83L9.26203 14.7377ZM9.27188 14.8279V15.6779H10.2198L10.1169 14.7356L9.27188 14.8279ZM9.17188 13.9779C8.70243 13.9779 8.32187 14.3584 8.32187 14.8279C8.32187 15.2973 8.70243 15.6779 9.17188 15.6779V14.8279V13.9779ZM14.8279 14.8279V13.9779H14.7279V14.8279V15.6779H14.8279V14.8279ZM14.7279 14.8279L13.9308 14.5327L13.8918 14.638L14.6889 14.9332L15.486 15.2284L15.525 15.1231L14.7279 14.8279ZM14.6889 14.9332L13.8918 14.638C13.851 14.7482 13.8186 14.8064 13.8028 14.8302C13.7958 14.8408 13.7968 14.8373 13.8082 14.8258C13.8197 14.814 13.8449 14.7912 13.8857 14.7677L14.3091 15.5047L14.7326 16.2418C15.1486 16.0028 15.3621 15.5629 15.486 15.2284L14.6889 14.9332ZM14.3091 15.5047L13.8857 14.7677L13.8357 14.7965L14.2591 15.5335L14.6825 16.2705L14.7326 16.2418L14.3091 15.5047ZM14.2591 15.5335L13.8357 14.7965L13.7856 14.8252L14.209 15.5623L14.6324 16.2993L14.6825 16.2705L14.2591 15.5335ZM14.209 15.5623L13.7856 14.8252C13.6453 14.9058 13.5042 14.9861 13.3624 15.066L13.7798 15.8065L14.1971 16.547C14.343 16.4648 14.4881 16.3822 14.6324 16.2993L14.209 15.5623ZM13.7798 15.8065L13.3624 15.066L13.3118 15.0946L13.7292 15.835L14.1465 16.5755L14.1971 16.547L13.7798 15.8065ZM13.7292 15.835L13.3118 15.0946L13.2612 15.1231L13.6785 15.8636L14.0959 16.604L14.1465 16.5755L13.7292 15.835ZM13.6785 15.8636L13.2612 15.1231C13.2599 15.1238 13.26 15.1237 13.2612 15.1232C13.2624 15.1227 13.2638 15.1223 13.2653 15.122C13.2667 15.1217 13.2671 15.1217 13.266 15.1218C13.265 15.1218 13.2617 15.122 13.256 15.1217L13.2066 15.9703L13.1572 16.8188C13.4845 16.8379 13.8047 16.7682 14.0959 16.604L13.6785 15.8636ZM13.2066 15.9703L13.256 15.1217L13.196 15.1182L13.1465 15.9668L13.0971 16.8153L13.1572 16.8188L13.2066 15.9703ZM13.1465 15.9668L13.196 15.1182L13.1359 15.1147L13.0864 15.9633L13.037 16.8118L13.0971 16.8153L13.1465 15.9668ZM13.0864 15.9633L13.1359 15.1147C12.9677 15.1049 12.8062 15.0947 12.6514 15.0841L12.5934 15.9321L12.5354 16.7801C12.6963 16.7912 12.8636 16.8017 13.037 16.8118L13.0864 15.9633ZM12.5934 15.9321L12.6514 15.0841L12.5959 15.0803L12.5378 15.9283L12.4798 16.7763L12.5354 16.7801L12.5934 15.9321ZM12.5378 15.9283L12.5959 15.0803L12.5403 15.0765L12.4823 15.9245L12.4243 16.7725L12.4798 16.7763L12.5378 15.9283ZM12.4823 15.9245L12.5403 15.0765C12.3196 15.0614 12.0995 15.0708 11.8812 15.1051L12.0132 15.9448L12.1453 16.7845C12.2366 16.7702 12.3292 16.766 12.4243 16.7725L12.4823 15.9245ZM12.0132 15.9448L11.8812 15.1051L11.8267 15.1137L11.9588 15.9534L12.0908 16.7931L12.1453 16.7845L12.0132 15.9448ZM11.9588 15.9534L11.8267 15.1137L11.7723 15.1223L11.9043 15.962L12.0363 16.8016L12.0908 16.7931L11.9588 15.9534ZM11.9043 15.962L11.7723 15.1223C11.6269 15.1451 11.4761 15.1663 11.3197 15.1858L11.4248 16.0293L11.53 16.8728C11.7033 16.8512 11.8721 16.8275 12.0363 16.8016L11.9043 15.962ZM11.4248 16.0293L11.3197 15.1858L11.2617 15.1931L11.3668 16.0365L11.472 16.88L11.53 16.8728L11.4248 16.0293ZM11.3668 16.0365L11.2617 15.1931L11.2037 15.2003L11.3088 16.0438L11.414 16.8872L11.472 16.88L11.3668 16.0365ZM11.3088 16.0438L11.2037 15.2003C11.2669 15.1924 11.352 15.1998 11.4368 15.239C11.516 15.2757 11.554 15.3211 11.5608 15.33L10.8876 15.8489L10.2144 16.3678C10.4826 16.7158 10.9027 16.951 11.414 16.8872L11.3088 16.0438ZM10.8876 15.8489L11.5608 15.33L11.52 15.277L10.8468 15.796L10.1736 16.3149L10.2144 16.3678L10.8876 15.8489ZM10.8468 15.796L11.52 15.277L11.4792 15.2241L10.806 15.743L10.1328 16.262L10.1736 16.3149L10.8468 15.796ZM10.806 15.743L11.4792 15.2241C11.3354 15.0375 11.1351 14.8734 10.8739 14.7854C10.6159 14.6986 10.3629 14.7075 10.1453 14.7588L10.3401 15.5861L10.535 16.4135C10.512 16.4189 10.434 16.4311 10.3313 16.3965C10.2254 16.3609 10.1607 16.2982 10.1328 16.262L10.806 15.743ZM10.3401 15.5861L10.1453 14.7588L10.0768 14.7749L10.2717 15.6023L10.4665 16.4296L10.535 16.4135L10.3401 15.5861ZM10.2717 15.6023L10.0768 14.7749L10.0083 14.791L10.2032 15.6184L10.398 16.4458L10.4665 16.4296L10.2717 15.6023ZM10.2032 15.6184L10.0083 14.791C10.0217 14.7879 10.1101 14.77 10.232 14.8131C10.3645 14.8598 10.4479 14.9471 10.4875 15.0094L9.7703 15.4656L9.05309 15.9218C9.18669 16.1318 9.38923 16.3184 9.66601 16.4161C9.9322 16.5101 10.19 16.4947 10.398 16.4458L10.2032 15.6184ZM9.7703 15.4656L10.4875 15.0094L10.4544 14.9574L9.73723 15.4136L9.02003 15.8698L9.05309 15.9218L9.7703 15.4656ZM9.73723 15.4136L10.4544 14.9574L10.4214 14.9054L9.70417 15.3616L8.98697 15.8178L9.02003 15.8698L9.73723 15.4136ZM9.70417 15.3616L10.4214 14.9054C10.3471 14.7886 10.2947 14.6889 10.259 14.6058L9.47775 14.9406L8.69646 15.2754C8.77479 15.4581 8.87333 15.6391 8.98697 15.8178L9.70417 15.3616ZM9.47775 14.9406L10.259 14.6058L10.239 14.559L9.4577 14.8938L8.67642 15.2286L8.69646 15.2754L9.47775 14.9406ZM9.4577 14.8938L10.239 14.559L10.2189 14.5122L9.43765 14.847L8.65637 15.1818L8.67642 15.2286L9.4577 14.8938ZM9.43765 14.847L10.2189 14.5122C10.1846 14.4321 10.0894 14.2139 9.8853 14.0511C9.76219 13.9529 9.54674 13.8344 9.26164 13.8528C8.97961 13.8711 8.78413 14.0135 8.67802 14.1196L9.27915 14.7206L9.88029 15.3215C9.79852 15.4033 9.6279 15.5327 9.37124 15.5493C9.11153 15.5661 8.92197 15.4573 8.82528 15.3802C8.7349 15.3081 8.68873 15.2369 8.67558 15.2159C8.65875 15.189 8.65317 15.1743 8.65637 15.1818L9.43765 14.847ZM9.27915 14.7206L8.67802 14.1196L8.66089 14.1368L9.26203 14.7377L9.86316 15.3387L9.88029 15.3215L9.27915 14.7206ZM9.26203 14.7377L8.41705 14.83L8.4269 14.9202L9.27188 14.8279L10.1169 14.7356L10.107 14.6454L9.26203 14.7377ZM9.27188 14.8279V13.9779H9.17188V14.8279V15.6779H9.27188V14.8279Z" fill="#D8F789" />

</svg>