<svg width="24" height="24" viewBox="0 0 24 24" fill="none" xmlns="http://www.w3.org/2000/svg">
<path d="M19.6703 2.60994C18.8603 1.79994 17.5303 1.79994 16.7203 2.60994L3.38032 15.9499C3.25032 16.0799 3.16032 16.2399 3.12032 16.4099L2.03032 20.7499C1.95032 21.0899 2.04032 21.4499 2.29032 21.6999C2.48032 21.8899 2.74032 21.9899 3.00032 21.9899C3.08032 21.9899 3.16032 21.9899 3.24032 21.9599L7.58032 20.8699C7.76032 20.8299 7.92032 20.7399 8.04032 20.6099L21.3803 7.26994C22.1903 6.45994 22.1903 5.12994 21.3803 4.31994L19.6603 2.59994L19.6703 2.60994ZM6.83032 19.0099L4.37032 19.6199L4.98032 17.1599L14.9403 7.21994L16.7803 9.05994L6.83032 19.0099ZM19.9803 5.85994L18.2003 7.63994L16.3603 5.79994L18.1403 4.01994C18.1403 4.01994 18.2303 3.98994 18.2603 4.01994L19.9803 5.73994C19.9803 5.73994 20.0103 5.82994 19.9803 5.85994Z" fill="currentColor"/>
</svg>
