<svg width="24" height="24" viewBox="0 0 24 24" fill="none" xmlns="http://www.w3.org/2000/svg">
<path xmlns="http://www.w3.org/2000/svg" id="Vector" d="M3.10249 4.26947L2.26074 4.15137L3.10249 4.26947ZM3.71678 3.23845L4.14713 3.97146L3.71678 3.23845ZM3.95688 3.09749L3.52653 2.36448L3.95688 3.09749ZM4.92203 2.36971L4.33903 1.75116L4.92203 2.36971ZM6.3279 1.91233L6.13714 2.74065L6.3279 1.91233ZM10.5429 2.12291L10.6638 2.96428L10.5429 2.12291ZM14.8779 2.01436L14.9174 1.16527L14.8779 2.01436ZM15.1525 2.02712L15.113 2.8762L15.1525 2.02712ZM16.0917 2.33606L15.5623 3.0011L16.0917 2.33606ZM16.1747 2.40215L16.704 1.73711L16.1747 2.40215ZM16.2577 2.46823L15.7283 3.13327L16.2577 2.46823ZM16.5768 3.22021L15.7292 3.15744L16.5768 3.22021ZM16.5605 3.44082L17.4082 3.50359L16.5605 3.44082ZM16.2213 4.41435L16.9487 4.85418L16.2213 4.41435ZM16.15 4.5324L15.4226 4.09257L16.15 4.5324ZM16.0786 4.65046L16.8059 5.09029L16.0786 4.65046ZM15.282 5.51608L15.7859 6.20062L15.282 5.51608ZM15.1665 5.60107L14.6626 4.91652L15.1665 5.60107ZM15.051 5.68606L15.5549 6.37061L15.051 5.68606ZM14.4957 6.64415L13.6504 6.55459L14.4957 6.64415ZM14.466 6.92364L13.6208 6.83408L14.466 6.92364ZM14.8913 8.05322L14.2642 8.62699L14.8913 8.05322ZM14.9841 8.15464L15.6112 7.58087L14.9841 8.15464ZM15.8502 8.95792L16.3764 8.29037L15.8502 8.95792ZM15.9606 9.04492L15.4344 9.71246L15.9606 9.04492ZM16.071 9.13191L16.5972 8.46437L16.071 9.13191ZM16.793 10.0715L16.0157 10.4153L16.793 10.0715ZM16.852 10.2049L17.6294 9.8611L16.852 10.2049ZM16.911 10.3383L16.1337 10.6821L16.911 10.3383ZM16.6731 11.2455L17.1565 11.9447L16.6731 11.2455ZM16.5582 11.3249L17.0417 12.0241L16.5582 11.3249ZM16.4434 11.4043L15.96 10.7052L16.4434 11.4043ZM15.3687 11.7646L15.337 10.9152L15.3687 11.7646ZM15.0941 11.7749L15.1258 12.6243L15.0941 11.7749ZM13.9237 11.8675L13.8217 11.0236L13.9237 11.8675ZM13.7864 11.884L13.8884 12.7279L13.7864 11.884ZM13.6491 11.9006L13.5471 11.0568L13.6491 11.9006ZM12.4787 11.8632L12.6332 11.0274L12.4787 11.8632ZM12.3414 11.8379L12.187 12.6737L12.3414 11.8379ZM12.2041 11.8125L12.3586 10.9767L12.2041 11.8125ZM11.0337 11.6134L11.1643 10.7735L11.0337 11.6134ZM10.7591 11.5707L10.8897 10.7308L10.7591 11.5707ZM9.5887 11.7088L9.2788 10.9174L9.5887 11.7088ZM9.45142 11.7626L9.76132 12.5541L9.45142 11.7626ZM9.31415 11.8163L9.00425 11.0248L9.31415 11.8163ZM8.1437 11.9744L8.04125 12.8182L8.1437 11.9744ZM6.70545 11.8484L6.73721 10.999L6.70545 11.8484ZM6.43407 11.8383L6.40231 12.6877L6.43407 11.8383ZM5.53589 12.1908L4.88964 11.6387L5.53589 12.1908ZM5.3859 12.3664L6.03214 12.9185L5.3859 12.3664ZM5.12866 13.6004L4.2809 13.662L5.12866 13.6004ZM5.17457 14.7708L6.02455 14.7659L5.17457 14.7708ZM5.17536 14.9081L4.32537 14.913L5.17536 14.9081ZM5.17615 15.0454L6.02614 15.0404L5.17615 15.0454ZM5.09417 16.2149L5.93524 16.3378L5.09417 16.2149ZM5.07415 16.352L4.23307 16.2291L5.07415 16.352ZM5.05412 16.489L4.21305 16.3662L5.05412 16.489ZM4.59226 17.359L4.07852 16.6818L4.59226 17.359ZM4.50394 17.426L5.01768 18.1032L4.50394 17.426ZM4.41563 17.493L3.90188 16.8158L4.41563 17.493ZM3.55303 17.5469L3.18724 18.3142L3.55303 17.5469ZM3.32499 17.4382L3.69079 16.6709L3.32499 17.4382ZM2.84874 15.1457L2.00925 15.0124L2.84874 15.1457ZM2.8352 11.9812L2.00284 12.1534L2.8352 11.9812ZM2.81493 6.33844L1.97297 6.22184L2.81493 6.33844ZM3.10249 4.26947L3.94425 4.38756L3.96372 4.24876L3.12197 4.13066L2.28021 4.01256L2.26074 4.15137L3.10249 4.26947ZM3.12197 4.13066L3.96372 4.24876C3.9833 4.10925 4.03154 4.03932 4.14713 3.97146L3.71678 3.23845L3.28643 2.50545C2.71963 2.83822 2.37133 3.3631 2.28021 4.01256L3.12197 4.13066ZM3.71678 3.23845L4.14713 3.97146L4.26718 3.90098L3.83683 3.16797L3.40648 2.43497L3.28643 2.50545L3.71678 3.23845ZM3.83683 3.16797L4.26718 3.90098L4.38723 3.83049L3.95688 3.09749L3.52653 2.36448L3.40648 2.43497L3.83683 3.16797ZM3.95688 3.09749L4.38723 3.83049C4.78611 3.59631 5.15867 3.31472 5.50503 2.98827L4.92203 2.36971L4.33903 1.75116C4.08092 1.99444 3.81004 2.19803 3.52653 2.36448L3.95688 3.09749ZM4.92203 2.36971L5.50503 2.98827L5.61138 2.88804L5.02838 2.26948L4.44538 1.65093L4.33903 1.75116L4.92203 2.36971ZM5.02838 2.26948L5.61138 2.88804L5.71772 2.78781L5.13472 2.16925L4.55172 1.55069L4.44538 1.65093L5.02838 2.26948ZM5.13472 2.16925L5.71772 2.78781C5.81655 2.69466 5.87819 2.68101 5.99658 2.70827L6.18734 1.87996L6.37809 1.05164C5.69748 0.894895 5.05738 1.07411 4.55172 1.55069L5.13472 2.16925ZM6.18734 1.87996L5.99658 2.70827L6.13714 2.74065L6.3279 1.91233L6.51866 1.08401L6.37809 1.05164L6.18734 1.87996ZM6.3279 1.91233L6.13714 2.74065L6.27771 2.77302L6.46847 1.9447L6.65923 1.11638L6.51866 1.08401L6.3279 1.91233ZM6.46847 1.9447L6.27771 2.77302C6.7209 2.87508 7.16244 2.93995 7.60185 2.96641L7.65294 2.11795L7.70404 1.26948C7.36315 1.24896 7.01504 1.19832 6.65923 1.11638L6.46847 1.9447ZM7.65294 2.11795L7.60185 2.96641L7.73913 2.97468L7.79022 2.12621L7.84131 1.27775L7.70404 1.26948L7.65294 2.11795ZM7.79022 2.12621L7.73913 2.97468L7.8764 2.98294L7.92749 2.13448L7.97859 1.28602L7.84131 1.27775L7.79022 2.12621ZM7.92749 2.13448L7.8764 2.98294C8.27626 3.00702 8.67615 3.02421 9.07605 3.03452L9.09794 2.1848L9.11983 1.33508C8.73944 1.32528 8.35902 1.30893 7.97859 1.28602L7.92749 2.13448ZM9.09794 2.1848L9.07605 3.03452L9.21333 3.03805L9.23522 2.18833L9.25711 1.33862L9.11983 1.33508L9.09794 2.1848ZM9.23522 2.18833L9.21333 3.03805L9.3506 3.04159L9.37249 2.19187L9.39438 1.34215L9.25711 1.33862L9.23522 2.18833ZM9.37249 2.19187L9.3506 3.04159C9.78894 3.05288 10.2268 3.02702 10.6638 2.96428L10.5429 2.12291L10.4221 1.28154C10.0788 1.33085 9.73634 1.35096 9.39438 1.34215L9.37249 2.19187ZM10.5429 2.12291L10.6638 2.96428L10.801 2.94457L10.6802 2.1032L10.5594 1.26183L10.4221 1.28154L10.5429 2.12291ZM10.6802 2.1032L10.801 2.94457L10.9383 2.92486L10.8175 2.08349L10.6967 1.24212L10.5594 1.26183L10.6802 2.1032ZM10.8175 2.08349L10.9383 2.92486C11.2784 2.87603 11.6174 2.85814 11.956 2.87089L11.9879 2.02149L12.0199 1.17209C11.5782 1.15546 11.1369 1.1789 10.6967 1.24212L10.8175 2.08349ZM11.9879 2.02149L11.956 2.87089L12.0932 2.87605L12.1252 2.02665L12.1572 1.17726L12.0199 1.17209L11.9879 2.02149ZM12.1252 2.02665L12.0932 2.87605L12.2305 2.88122L12.2625 2.03182L12.2945 1.18242L12.1572 1.17726L12.1252 2.02665ZM12.2625 2.03182L12.2305 2.88122C12.6444 2.8968 13.0583 2.89504 13.4721 2.87593L13.4329 2.02684L13.3937 1.17774C13.0273 1.19466 12.6609 1.19622 12.2945 1.18242L12.2625 2.03182ZM13.4329 2.02684L13.4721 2.87593L13.6094 2.8696L13.5702 2.0205L13.531 1.1714L13.3937 1.17774L13.4329 2.02684ZM13.5702 2.0205L13.6094 2.8696L13.7467 2.86326L13.7075 2.01416L13.6683 1.16507L13.531 1.1714L13.5702 2.0205ZM13.7075 2.01416L13.7467 2.86326C14.1106 2.84646 14.4745 2.84652 14.8385 2.86344L14.8779 2.01436L14.9174 1.16527C14.5011 1.14592 14.0847 1.14585 13.6683 1.16507L13.7075 2.01416ZM14.8779 2.01436L14.8385 2.86344L14.9757 2.86982L15.0152 2.02074L15.0547 1.17165L14.9174 1.16527L14.8779 2.01436ZM15.0152 2.02074L14.9757 2.86982L15.113 2.8762L15.1525 2.02712L15.192 1.17804L15.0547 1.17165L15.0152 2.02074ZM15.1525 2.02712L15.113 2.8762C15.3772 2.88848 15.5025 2.95347 15.5623 3.0011L16.0917 2.33606L16.621 1.67102C16.2089 1.34301 15.7081 1.20203 15.192 1.17804L15.1525 2.02712ZM16.0917 2.33606L15.5623 3.0011L15.6453 3.06718L16.1747 2.40215L16.704 1.73711L16.621 1.67102L16.0917 2.33606ZM16.1747 2.40215L15.6453 3.06718L15.7283 3.13327L16.2577 2.46823L16.7871 1.80319L16.704 1.73711L16.1747 2.40215ZM16.2577 2.46823L15.7283 3.13327C15.7394 3.14207 15.742 3.14605 15.7404 3.14396C15.7385 3.14154 15.735 3.13626 15.732 3.12915C15.729 3.12215 15.7287 3.1185 15.729 3.12083C15.7294 3.12361 15.7308 3.13509 15.7292 3.15744L16.5768 3.22021L17.4245 3.28298C17.4674 2.70332 17.2538 2.17472 16.7871 1.80319L16.2577 2.46823ZM16.5768 3.22021L15.7292 3.15744L15.721 3.26775L16.5687 3.33052L17.4163 3.39328L17.4245 3.28298L16.5768 3.22021ZM16.5687 3.33052L15.721 3.26775L15.7128 3.37805L16.5605 3.44082L17.4082 3.50359L17.4163 3.39328L16.5687 3.33052ZM16.5605 3.44082L15.7128 3.37805C15.7016 3.52922 15.6444 3.72576 15.494 3.97452L16.2213 4.41435L16.9487 4.85418C17.2041 4.43189 17.3729 3.97941 17.4082 3.50359L16.5605 3.44082ZM16.2213 4.41435L15.494 3.97452L15.4226 4.09257L16.15 4.5324L16.8773 4.97223L16.9487 4.85418L16.2213 4.41435ZM16.15 4.5324L15.4226 4.09257L15.3512 4.21063L16.0786 4.65046L16.8059 5.09029L16.8773 4.97223L16.15 4.5324ZM16.0786 4.65046L15.3512 4.21063C15.2083 4.44696 15.02 4.65344 14.7781 4.83153L15.282 5.51608L15.7859 6.20062C16.2003 5.89559 16.5431 5.525 16.8059 5.09029L16.0786 4.65046ZM15.282 5.51608L14.7781 4.83153L14.6626 4.91652L15.1665 5.60107L15.6704 6.28562L15.7859 6.20062L15.282 5.51608ZM15.1665 5.60107L14.6626 4.91652L14.5472 5.00151L15.051 5.68606L15.5549 6.37061L15.6704 6.28562L15.1665 5.60107ZM15.051 5.68606L14.5472 5.00151C14.0311 5.38137 13.7182 5.91452 13.6504 6.55459L14.4957 6.64415L15.3409 6.73372C15.3573 6.57945 15.4146 6.47387 15.5549 6.37061L15.051 5.68606ZM14.4957 6.64415L13.6504 6.55459L13.6356 6.69434L14.4809 6.7839L15.3261 6.87346L15.3409 6.73372L14.4957 6.64415ZM14.4809 6.7839L13.6356 6.69434L13.6208 6.83408L14.466 6.92364L15.3113 7.01321L15.3261 6.87346L14.4809 6.7839ZM14.466 6.92364L13.6208 6.83408C13.5537 7.46725 13.7392 8.05313 14.1714 8.52556L14.7985 7.95179L15.4257 7.37802C15.3304 7.27393 15.2942 7.17438 15.3113 7.01321L14.466 6.92364ZM14.7985 7.95179L14.1714 8.52556L14.2642 8.62699L14.8913 8.05322L15.5185 7.47944L15.4257 7.37802L14.7985 7.95179ZM14.8913 8.05322L14.2642 8.62699L14.357 8.72841L14.9841 8.15464L15.6112 7.58087L15.5185 7.47944L14.8913 8.05322ZM14.9841 8.15464L14.357 8.72841C14.6525 9.05136 14.9751 9.35037 15.324 9.62546L15.8502 8.95792L16.3764 8.29037C16.0981 8.07096 15.8433 7.83445 15.6112 7.58087L14.9841 8.15464ZM15.8502 8.95792L15.324 9.62546L15.4344 9.71246L15.9606 9.04492L16.4868 8.37737L16.3764 8.29037L15.8502 8.95792ZM15.9606 9.04492L15.4344 9.71246L15.5448 9.79946L16.071 9.13191L16.5972 8.46437L16.4868 8.37737L15.9606 9.04492ZM16.071 9.13191L15.5448 9.79946C15.7454 9.95759 15.9018 10.158 16.0157 10.4153L16.793 10.0715L17.5704 9.7277C17.3488 9.22677 17.0239 8.80075 16.5972 8.46437L16.071 9.13191ZM16.793 10.0715L16.0157 10.4153L16.0747 10.5487L16.852 10.2049L17.6294 9.8611L17.5704 9.7277L16.793 10.0715ZM16.852 10.2049L16.0747 10.5487L16.1337 10.6821L16.911 10.3383L17.6884 9.99451L17.6294 9.8611L16.852 10.2049ZM16.911 10.3383L16.1337 10.6821C16.1492 10.7172 16.1489 10.728 16.1475 10.7176C16.1459 10.7049 16.1445 10.6742 16.1551 10.6338C16.1659 10.5928 16.1837 10.562 16.1974 10.5441C16.2096 10.5282 16.2121 10.5308 16.1896 10.5464L16.6731 11.2455L17.1565 11.9447C17.4405 11.7483 17.6957 11.461 17.7995 11.0652C17.9019 10.6749 17.8246 10.3026 17.6884 9.99451L16.911 10.3383ZM16.6731 11.2455L16.1896 10.5464L16.0748 10.6258L16.5582 11.3249L17.0417 12.0241L17.1565 11.9447L16.6731 11.2455ZM16.5582 11.3249L16.0748 10.6258L15.96 10.7052L16.4434 11.4043L16.9269 12.1035L17.0417 12.0241L16.5582 11.3249ZM16.4434 11.4043L15.96 10.7052C15.7646 10.8403 15.5626 10.9068 15.337 10.9152L15.3687 11.7646L15.4004 12.614C15.9551 12.5934 16.4696 12.4196 16.9269 12.1035L16.4434 11.4043ZM15.3687 11.7646L15.337 10.9152L15.1997 10.9203L15.2314 11.7698L15.2631 12.6192L15.4004 12.614L15.3687 11.7646ZM15.2314 11.7698L15.1997 10.9203L15.0625 10.9255L15.0941 11.7749L15.1258 12.6243L15.2631 12.6192L15.2314 11.7698ZM15.0941 11.7749L15.0625 10.9255C14.6487 10.9409 14.235 10.9736 13.8217 11.0236L13.9237 11.8675L14.0257 12.7113C14.3927 12.6669 14.7593 12.6379 15.1258 12.6243L15.0941 11.7749ZM13.9237 11.8675L13.8217 11.0236L13.6844 11.0402L13.7864 11.884L13.8884 12.7279L14.0257 12.7113L13.9237 11.8675ZM13.7864 11.884L13.6844 11.0402L13.5471 11.0568L13.6491 11.9006L13.7512 12.7445L13.8884 12.7279L13.7864 11.884ZM13.6491 11.9006L13.5471 11.0568C13.2432 11.0935 12.9395 11.084 12.6332 11.0274L12.4787 11.8632L12.3242 12.6991C12.7982 12.7867 13.2748 12.8021 13.7512 12.7445L13.6491 11.9006ZM12.4787 11.8632L12.6332 11.0274L12.4959 11.002L12.3414 11.8379L12.187 12.6737L12.3242 12.6991L12.4787 11.8632ZM12.3414 11.8379L12.4959 11.002L12.3586 10.9767L12.2041 11.8125L12.0497 12.6484L12.187 12.6737L12.3414 11.8379ZM12.2041 11.8125L12.3586 10.9767C11.9606 10.9031 11.5624 10.8354 11.1643 10.7735L11.0337 11.6134L10.9031 12.4533C11.2852 12.5127 11.6674 12.5777 12.0497 12.6484L12.2041 11.8125ZM11.0337 11.6134L11.1643 10.7735L11.027 10.7521L10.8964 11.592L10.7658 12.4319L10.9031 12.4533L11.0337 11.6134ZM10.8964 11.592L11.027 10.7521L10.8897 10.7308L10.7591 11.5707L10.6286 12.4106L10.7658 12.4319L10.8964 11.592ZM10.7591 11.5707L10.8897 10.7308C10.3419 10.6456 9.80002 10.7133 9.2788 10.9174L9.5887 11.7088L9.89859 12.5003C10.1577 12.3989 10.3961 12.3745 10.6286 12.4106L10.7591 11.5707ZM9.5887 11.7088L9.2788 10.9174L9.14152 10.9711L9.45142 11.7626L9.76132 12.5541L9.89859 12.5003L9.5887 11.7088ZM9.45142 11.7626L9.14152 10.9711L9.00425 11.0248L9.31415 11.8163L9.62404 12.6078L9.76132 12.5541L9.45142 11.7626ZM9.31415 11.8163L9.00425 11.0248C8.73618 11.1298 8.48743 11.1599 8.24615 11.1306L8.1437 11.9744L8.04125 12.8182C8.58026 12.8837 9.11181 12.8084 9.62404 12.6078L9.31415 11.8163ZM8.1437 11.9744L8.24615 11.1306L8.10887 11.114L8.00642 11.9578L7.90397 12.8016L8.04125 12.8182L8.1437 11.9744ZM8.00642 11.9578L8.10887 11.114L7.9716 11.0973L7.86915 11.9411L7.7667 12.7849L7.90397 12.8016L8.00642 11.9578ZM7.86915 11.9411L7.9716 11.0973C7.5584 11.0471 7.14692 11.0143 6.73721 10.999L6.70545 11.8484L6.67369 12.6978C7.03527 12.7113 7.39959 12.7403 7.7667 12.7849L7.86915 11.9411ZM6.70545 11.8484L6.73721 10.999L6.60152 10.9939L6.56976 11.8433L6.538 12.6927L6.67369 12.6978L6.70545 11.8484ZM6.56976 11.8433L6.60152 10.9939L6.46583 10.9888L6.43407 11.8383L6.40231 12.6877L6.538 12.6927L6.56976 11.8433ZM6.43407 11.8383L6.46583 10.9888C5.87185 10.9666 5.3022 11.1558 4.88964 11.6387L5.53589 12.1908L6.18213 12.743C6.19585 12.7269 6.22499 12.681 6.40231 12.6877L6.43407 11.8383ZM5.53589 12.1908L4.88964 11.6387L4.81465 11.7265L5.46089 12.2786L6.10714 12.8307L6.18213 12.743L5.53589 12.1908ZM5.46089 12.2786L4.81465 11.7265L4.73965 11.8142L5.3859 12.3664L6.03214 12.9185L6.10714 12.8307L5.46089 12.2786ZM5.3859 12.3664L4.73965 11.8142C4.35379 12.2658 4.21971 12.82 4.26095 13.3874L5.10871 13.3258L5.95647 13.2642C5.941 13.0513 5.99171 12.9658 6.03214 12.9185L5.3859 12.3664ZM5.10871 13.3258L4.26095 13.3874L4.27092 13.5247L5.11869 13.4631L5.96645 13.4015L5.95647 13.2642L5.10871 13.3258ZM5.11869 13.4631L4.27092 13.5247L4.2809 13.662L5.12866 13.6004L5.97643 13.5387L5.96645 13.4015L5.11869 13.4631ZM5.12866 13.6004L4.2809 13.662C4.30788 14.0333 4.32244 14.4045 4.32458 14.7757L5.17457 14.7708L6.02455 14.7659C6.02219 14.3568 6.00615 13.9477 5.97643 13.5387L5.12866 13.6004ZM5.17457 14.7708L4.32458 14.7757L4.32537 14.913L5.17536 14.9081L6.02534 14.9032L6.02455 14.7659L5.17457 14.7708ZM5.17536 14.9081L4.32537 14.913L4.32616 15.0503L5.17615 15.0454L6.02614 15.0404L6.02534 14.9032L5.17536 14.9081ZM5.17615 15.0454L4.32616 15.0503C4.32817 15.3973 4.30388 15.7444 4.25309 16.092L5.09417 16.2149L5.93524 16.3378C5.99827 15.9063 6.02863 15.4737 6.02614 15.0404L5.17615 15.0454ZM5.09417 16.2149L4.25309 16.092L4.23307 16.2291L5.07415 16.352L5.91522 16.4748L5.93524 16.3378L5.09417 16.2149ZM5.07415 16.352L4.23307 16.2291L4.21305 16.3662L5.05412 16.489L5.8952 16.6119L5.91522 16.4748L5.07415 16.352ZM5.05412 16.489L4.21305 16.3662C4.17989 16.5932 4.11018 16.6578 4.07852 16.6818L4.59226 17.359L5.106 18.0362C5.57635 17.6793 5.81455 17.164 5.8952 16.6119L5.05412 16.489ZM4.59226 17.359L4.07852 16.6818L3.9902 16.7488L4.50394 17.426L5.01768 18.1032L5.106 18.0362L4.59226 17.359ZM4.50394 17.426L3.9902 16.7488L3.90188 16.8158L4.41563 17.493L4.92937 18.1702L5.01768 18.1032L4.50394 17.426ZM4.41563 17.493L3.90188 16.8158C3.89667 16.8198 3.90062 16.8159 3.91378 16.8108C3.92751 16.8054 3.94348 16.8019 3.95872 16.8009C3.97338 16.8 3.97954 16.802 3.97442 16.8008C3.96859 16.7995 3.95035 16.7947 3.91883 16.7796L3.55303 17.5469L3.18724 18.3142C3.44805 18.4385 3.74538 18.5176 4.06473 18.4976C4.39118 18.4772 4.68351 18.3567 4.92937 18.1702L4.41563 17.493ZM3.55303 17.5469L3.91883 16.7796L3.80481 16.7253L3.43901 17.4925L3.07322 18.2598L3.18724 18.3142L3.55303 17.5469ZM3.43901 17.4925L3.80481 16.7253L3.69079 16.6709L3.32499 17.4382L2.9592 18.2054L3.07322 18.2598L3.43901 17.4925ZM3.32499 17.4382L3.69079 16.6709C3.68147 16.6665 3.67535 16.6629 3.67176 16.6605C3.66995 16.6594 3.66871 16.6585 3.66796 16.6579C3.66758 16.6576 3.6673 16.6574 3.66713 16.6573C3.66696 16.6571 3.66687 16.6571 3.66687 16.6571C3.66687 16.6571 3.66693 16.6571 3.66706 16.6572C3.66719 16.6574 3.66737 16.6575 3.6676 16.6578C3.66805 16.6582 3.66862 16.6588 3.66924 16.6595C3.67058 16.6611 3.67162 16.6626 3.67226 16.6636C3.67703 16.6712 3.65884 16.6487 3.6539 16.5611L2.80525 16.6089L1.95659 16.6567C1.99411 17.3229 2.31867 17.9001 2.9592 18.2054L3.32499 17.4382ZM2.80525 16.6089L3.6539 16.5611L3.64601 16.4209L2.79736 16.4687L1.9487 16.5165L1.95659 16.6567L2.80525 16.6089ZM2.79736 16.4687L3.64601 16.4209L3.63812 16.2807L2.78946 16.3285L1.94081 16.3763L1.9487 16.5165L2.79736 16.4687ZM2.78946 16.3285L3.63812 16.2807C3.61905 15.9422 3.63587 15.6087 3.68822 15.279L2.84874 15.1457L2.00925 15.0124C1.9377 15.463 1.915 15.918 1.94081 16.3763L2.78946 16.3285ZM2.84874 15.1457L3.68822 15.279L3.71002 15.1418L2.87054 15.0084L2.03105 14.8751L2.00925 15.0124L2.84874 15.1457ZM2.87054 15.0084L3.71002 15.1418L3.73182 15.0045L2.89233 14.8712L2.05285 14.7379L2.03105 14.8751L2.87054 15.0084ZM2.89233 14.8712L3.73182 15.0045C3.79984 14.5761 3.8381 14.1469 3.84639 13.7171L2.99655 13.7007L2.14671 13.6843C2.13995 14.0348 2.10874 14.3859 2.05285 14.7379L2.89233 14.8712ZM2.99655 13.7007L3.84639 13.7171L3.84904 13.5798L2.9992 13.5634L2.14936 13.5471L2.14671 13.6843L2.99655 13.7007ZM2.9992 13.5634L3.84904 13.5798L3.85169 13.4426L3.00185 13.4262L2.15201 13.4098L2.14936 13.5471L2.9992 13.5634ZM3.00185 13.4262L3.85169 13.4426C3.86046 12.9877 3.81769 12.5343 3.72438 12.0835L2.89202 12.2557L2.05966 12.428C2.12783 12.7574 2.15828 13.0843 2.15201 13.4098L3.00185 13.4262ZM2.89202 12.2557L3.72438 12.0835L3.69597 11.9462L2.86361 12.1184L2.03125 12.2907L2.05966 12.428L2.89202 12.2557ZM2.86361 12.1184L3.69597 11.9462L3.66756 11.8089L2.8352 11.9812L2.00284 12.1534L2.03125 12.2907L2.86361 12.1184ZM2.8352 11.9812L3.66756 11.8089C3.6054 11.5086 3.59341 11.2119 3.63018 10.9153L2.78664 10.8107L1.9431 10.7061C1.88313 11.1898 1.9035 11.6735 2.00284 12.1534L2.8352 11.9812ZM2.78664 10.8107L3.63018 10.9153L3.64721 10.778L2.80367 10.6734L1.96013 10.5689L1.9431 10.7061L2.78664 10.8107ZM2.80367 10.6734L3.64721 10.778L3.66423 10.6408L2.82069 10.5362L1.97715 10.4316L1.96013 10.5689L2.80367 10.6734ZM2.82069 10.5362L3.66423 10.6408C3.71326 10.2453 3.75851 9.84985 3.79999 9.45437L2.95462 9.36572L2.10926 9.27707C2.0689 9.66189 2.02487 10.0467 1.97715 10.4316L2.82069 10.5362ZM2.95462 9.36572L3.79999 9.45437L3.81438 9.3171L2.96902 9.22845L2.12365 9.13979L2.10926 9.27707L2.95462 9.36572ZM2.96902 9.22845L3.81438 9.3171L3.82878 9.17982L2.98341 9.09117L2.13805 9.00252L2.12365 9.13979L2.96902 9.22845ZM2.98341 9.09117L3.82878 9.17982C3.87963 8.69489 3.84929 8.21088 3.73984 7.73152L2.91117 7.92072L2.08249 8.10992C2.1512 8.41086 2.16902 8.70716 2.13805 9.00252L2.98341 9.09117ZM2.91117 7.92072L3.73984 7.73152L3.7085 7.59425L2.87983 7.78344L2.05115 7.97264L2.08249 8.10992L2.91117 7.92072ZM2.87983 7.78344L3.7085 7.59425L3.67716 7.45697L2.84848 7.64617L2.01981 7.83537L2.05115 7.97264L2.87983 7.78344ZM2.84848 7.64617L3.67716 7.45697C3.6106 7.16547 3.59819 6.87892 3.63788 6.59233L2.79592 6.47572L1.95395 6.35911C1.88558 6.85282 1.90821 7.34657 2.01981 7.83537L2.84848 7.64617ZM2.79592 6.47572L3.63788 6.59233L3.65689 6.45505L2.81493 6.33844L1.97297 6.22184L1.95395 6.35911L2.79592 6.47572ZM2.81493 6.33844L3.65689 6.45505L3.6759 6.31778L2.83394 6.20117L1.99198 6.08456L1.97297 6.22184L2.81493 6.33844ZM2.83394 6.20117L3.6759 6.31778C3.72994 5.92762 3.76846 5.64922 3.79144 5.4827L2.94942 5.36649L2.1074 5.25028C2.08448 5.41636 2.04601 5.69442 1.99198 6.08456L2.83394 6.20117ZM2.94942 5.36649L3.79144 5.4827L3.79951 5.42418L2.9575 5.30797L2.11548 5.19176L2.1074 5.25028L2.94942 5.36649ZM2.9575 5.30797L3.79951 5.42418L3.80759 5.36567L2.96557 5.24946L2.12355 5.13325L2.11548 5.19176L2.9575 5.30797ZM2.96557 5.24946L3.80759 5.36567C3.8304 5.2004 3.86943 4.92084 3.92478 4.52637L3.08302 4.40827L2.24127 4.29017C2.18592 4.68467 2.14665 4.9659 2.12355 5.13325L2.96557 5.24946ZM3.08302 4.40827L3.92478 4.52637L3.94425 4.38756L3.10249 4.26947L2.26074 4.15137L2.24127 4.29017L3.08302 4.40827Z" fill="#D8F789" />

</svg>