<svg width="24" height="24" viewBox="0 0 24 24" fill="none" xmlns="http://www.w3.org/2000/svg">
<path xmlns="http://www.w3.org/2000/svg" id="Vector" d="M4.59449 15.3925C4.25896 15.0641 3.7208 15.07 3.39248 15.4055C3.06415 15.741 3.06999 16.2792 3.40551 16.6075L4 16L4.59449 15.3925ZM4.07147 16.0699L4.90434 16.2398L4.99683 15.7862L4.66596 15.4624L4.07147 16.0699ZM4.01682 16.338L3.18396 16.1681L4.01682 16.338ZM4.07521 18.0232L4.82407 17.6211L4.07521 18.0232ZM4.14356 18.1505L3.39471 18.5526L4.14356 18.1505ZM4.21191 18.2778L4.96077 17.8757L4.21191 18.2778ZM4.96193 19.2009L5.50464 18.5467L4.96193 19.2009ZM5.06951 19.2901L4.5268 19.9443L5.06951 19.2901ZM5.17709 19.3794L5.7198 18.7252L5.17709 19.3794ZM6.21568 19.7624L6.21948 18.9125L6.21568 19.7624ZM6.48776 19.7637L6.48396 20.6137L6.48776 19.7637ZM7.65294 19.7742L7.64148 20.6241L7.65294 19.7742ZM7.79022 19.776L7.80169 18.9261L7.79022 19.776ZM7.92749 19.7779L7.91603 20.6278L7.92749 19.7779ZM9.09794 19.9151L9.28144 19.0852L9.09794 19.9151ZM9.37249 19.9758L9.189 20.8058L9.37249 19.9758ZM10.5429 20.2076L10.6895 19.3704L10.5429 20.2076ZM10.6802 20.2317L10.5337 21.0689L10.6802 20.2317ZM10.8175 20.2557L10.964 19.4184V19.4184L10.8175 20.2557ZM11.9879 20.2765L12.1054 21.1183L11.9879 20.2765ZM12.2625 20.2382L12.1451 19.3963L12.2625 20.2382ZM13.4329 20.0053L13.2203 19.1824L13.4329 20.0053ZM13.5702 19.9699L13.7828 20.7929L13.5702 19.9699ZM13.7075 19.9344L13.4949 19.1114L13.7075 19.9344ZM14.8779 19.9669L15.1324 19.1559L14.8779 19.9669ZM16.3238 20.1526L16.4445 20.994L16.3238 20.1526ZM16.4612 20.1328L16.3405 19.2915L16.4612 20.1328ZM16.5987 20.1131L16.7195 20.9545L16.5987 20.1131ZM17.7753 19.9058L17.9489 20.7379L17.7753 19.9058ZM17.9138 19.8769L17.7402 19.0448L17.9138 19.8769ZM18.0523 19.848L18.2259 20.6801L18.0523 19.848ZM18.891 19.177L19.6653 19.5276L18.891 19.177ZM18.9492 19.0484L18.1749 18.6978L18.9492 19.0484ZM19.0074 18.9199L19.7817 19.2706L19.0074 18.9199ZM19.4151 17.8861L18.6076 17.6209L19.4151 17.8861ZM19.49 17.6581L20.2976 17.9234L19.49 17.6581ZM19.7569 16.5861L18.9208 16.433L19.7569 16.5861ZM19.7773 16.4747L20.6134 16.6278L19.7773 16.4747ZM19.9321 16L20.781 16.0434L20.8266 15.15H19.9321V16ZM19.9285 16.0699L19.0796 16.0266L18.9687 18.1984L20.523 16.6775L19.9285 16.0699ZM20.5945 16.6075C20.93 16.2792 20.9359 15.741 20.6075 15.4055C20.2792 15.07 19.741 15.0641 19.4055 15.3925L20 16L20.5945 16.6075ZM15.399 8.60104C15.7309 8.93299 16.2691 8.93299 16.601 8.60104C16.933 8.26909 16.933 7.7309 16.601 7.39896L16 8L15.399 8.60104ZM15.9293 7.92929L15.2039 8.37235L15.2567 8.45875L15.3282 8.53033L15.9293 7.92929ZM15.7922 7.70493L15.0669 8.14799L15.7922 7.70493ZM14.7908 6.33798L14.1947 6.9439L14.7908 6.33798ZM14.693 6.24171L14.0969 6.84762L14.693 6.24171ZM14.5951 6.14543L15.1913 5.53951L14.5951 6.14543ZM13.6093 5.47601L13.257 6.24958L13.6093 5.47601ZM13.4759 5.41527L13.8282 4.6417L13.4759 5.41527ZM13.3425 5.35452L12.9902 6.12809L13.3425 5.35452ZM12.4002 4.71208L11.7914 5.30525L12.4002 4.71208ZM12.3126 4.62213L11.7038 5.2153L12.3126 4.62213ZM12.2249 4.53218L12.8337 3.93901L12.2249 4.53218ZM11.9115 4.08848L11.3105 3.48744L11.9115 4.08848ZM11.9256 4.07435L11.9043 3.22462L11.5648 3.23314L11.3246 3.47331L11.9256 4.07435ZM12.0707 4.07071L12.092 4.92044L14.0728 4.87072L12.6718 3.46967L12.0707 4.07071ZM12 4L12.601 3.39896L12 2.79792L11.399 3.39896L12 4ZM11.9293 4.07071L11.3282 3.46967L11.2489 3.54905L11.1928 3.6463L11.9293 4.07071ZM11.7972 4.29999L11.0607 3.87558L11.7972 4.29999ZM10.689 5.56019L10.2975 4.80574V4.80574L10.689 5.56019ZM10.5612 5.62652L10.9527 6.38098L10.5612 5.62652ZM10.4334 5.69285L10.0419 4.93839L10.4334 5.69285ZM9.52107 6.43578L10.1853 6.96618L9.52107 6.43578ZM9.43488 6.54372L8.77066 6.01333L9.43488 6.54372ZM9.34868 6.65166L10.0129 7.18206L9.34868 6.65166ZM8.66302 7.55074L9.3512 8.04965L8.66302 7.55074ZM8.51375 7.75665L7.82557 7.25774L8.51375 7.75665ZM8.09778 8.09778L7.25854 8.2326L7.30218 8.50426L7.49674 8.69882L8.09778 8.09778ZM8.07071 7.92929L8.90995 7.79447L8.64607 6.15185L7.46967 7.32825L8.07071 7.92929ZM7.39896 7.39896C7.06701 7.7309 7.06701 8.26909 7.39896 8.60104C7.7309 8.93299 8.26909 8.93299 8.60104 8.60104L8 8L7.39896 7.39896ZM12 4.1L12.8447 4.19457L12.85 4.14743V4.1H12ZM11.9714 4.35555L11.1267 4.26098L11.9714 4.35555ZM12.024 6.03023L12.8385 5.78725L12.024 6.03023ZM12.1059 6.30477L11.2914 6.54775L12.1059 6.30477ZM12.0445 7.47523L11.2561 7.15733L12.0445 7.47523ZM11.9891 7.6125L12.7774 7.93039L11.9891 7.6125ZM11.9338 7.74978L11.1454 7.43188L11.9338 7.74978ZM11.8663 8.92023L11.0495 9.15546L11.8663 8.92023ZM11.9454 9.19478L11.1286 9.43001L11.9454 9.19478ZM12.1595 10.3652L13.0069 10.2993L12.1595 10.3652ZM12.1808 10.6398L11.3334 10.7057L12.1808 10.6398ZM12.2033 11.8102L11.354 11.7767L12.2033 11.8102ZM12.1925 12.0848L13.0418 12.1183L12.1925 12.0848ZM12.0034 13.3925L12.8318 13.5829L12.0034 13.3925ZM11.9718 13.5298L11.1434 13.3394L11.9718 13.5298ZM11.8455 14.7002L10.9956 14.7121L11.8455 14.7002ZM11.8494 14.9748L12.6993 14.9629L11.8494 14.9748ZM11.9153 15.7382L12.7239 15.4764L11.9153 15.7382ZM11.9288 15.78L11.1201 16.0418L11.1493 16.1321L11.1978 16.2138L11.9288 15.78ZM12 15.9H12.85V15.6668L12.731 15.4662L12 15.9ZM11.15 16C11.15 16.4694 11.5306 16.85 12 16.85C12.4694 16.85 12.85 16.4694 12.85 16H12H11.15ZM4 16L3.40551 16.6075L3.47699 16.6775L4.07147 16.0699L4.66596 15.4624L4.59449 15.3925L4 16ZM4.07147 16.0699L3.23861 15.9001L3.18396 16.1681L4.01682 16.338L4.84968 16.5078L4.90434 16.2398L4.07147 16.0699ZM4.01682 16.338L3.18396 16.1681C3.01978 16.9733 2.9846 17.7889 3.32636 18.4254L4.07521 18.0232L4.82407 17.6211C4.77731 17.534 4.70321 17.2261 4.84968 16.5078L4.01682 16.338ZM4.07521 18.0232L3.32636 18.4254L3.39471 18.5526L4.14356 18.1505L4.89242 17.7484L4.82407 17.6211L4.07521 18.0232ZM4.14356 18.1505L3.39471 18.5526L3.46306 18.6799L4.21191 18.2778L4.96077 17.8757L4.89242 17.7484L4.14356 18.1505ZM4.21191 18.2778L3.46306 18.6799C3.70737 19.1349 4.02631 19.5291 4.41922 19.8551L4.96193 19.2009L5.50464 18.5467C5.28604 18.3654 5.10497 18.1442 4.96077 17.8757L4.21191 18.2778ZM4.96193 19.2009L4.41922 19.8551L4.5268 19.9443L5.06951 19.2901L5.61222 18.6359L5.50464 18.5467L4.96193 19.2009ZM5.06951 19.2901L4.5268 19.9443L4.63438 20.0336L5.17709 19.3794L5.7198 18.7252L5.61222 18.6359L5.06951 19.2901ZM5.17709 19.3794L4.63438 20.0336C5.08714 20.4092 5.62254 20.6098 6.21188 20.6124L6.21568 19.7624L6.21948 18.9125C6.03553 18.9116 5.87854 18.8569 5.7198 18.7252L5.17709 19.3794ZM6.21568 19.7624L6.21188 20.6124L6.34792 20.613L6.35172 19.7631L6.35552 18.9131L6.21948 18.9125L6.21568 19.7624ZM6.35172 19.7631L6.34792 20.613L6.48396 20.6137L6.48776 19.7637L6.49156 18.9137L6.35552 18.9131L6.35172 19.7631ZM6.48776 19.7637L6.48396 20.6137C6.86802 20.6154 7.25386 20.6188 7.64148 20.6241L7.65294 19.7742L7.66441 18.9242C7.27173 18.9189 6.88078 18.9154 6.49156 18.9137L6.48776 19.7637ZM7.65294 19.7742L7.64148 20.6241L7.77875 20.6259L7.79022 19.776L7.80169 18.9261L7.66441 18.9242L7.65294 19.7742ZM7.79022 19.776L7.77875 20.6259L7.91603 20.6278L7.92749 19.7779L7.93896 18.9279L7.80169 18.9261L7.79022 19.776ZM7.92749 19.7779L7.91603 20.6278C8.24693 20.6322 8.57945 20.671 8.91445 20.7451L9.09794 19.9151L9.28144 19.0852C8.83614 18.9867 8.38836 18.934 7.93896 18.9279L7.92749 19.7779ZM9.09794 19.9151L8.91445 20.7451L9.05173 20.7754L9.23522 19.9455L9.41871 19.1155L9.28144 19.0852L9.09794 19.9151ZM9.23522 19.9455L9.05173 20.7754L9.189 20.8058L9.37249 19.9758L9.55599 19.1459L9.41871 19.1155L9.23522 19.9455ZM9.37249 19.9758L9.189 20.8058C9.59131 20.8947 9.99378 20.9745 10.3964 21.0449L10.5429 20.2076L10.6895 19.3704C10.3118 19.3043 9.93398 19.2294 9.55599 19.1459L9.37249 19.9758ZM10.5429 20.2076L10.3964 21.0449L10.5337 21.0689L10.6802 20.2317L10.8267 19.3944L10.6895 19.3704L10.5429 20.2076ZM10.6802 20.2317L10.5337 21.0689L10.671 21.093L10.8175 20.2557L10.964 19.4184L10.8267 19.3944L10.6802 20.2317ZM10.8175 20.2557L10.671 21.093C11.1478 21.1764 11.6271 21.185 12.1054 21.1183L11.9879 20.2765L11.8705 19.4346C11.5685 19.4767 11.2674 19.4715 10.964 19.4184L10.8175 20.2557ZM11.9879 20.2765L12.1054 21.1183L12.2427 21.0992L12.1252 20.2573L12.0078 19.4155L11.8705 19.4346L11.9879 20.2765ZM12.1252 20.2573L12.2427 21.0992L12.3799 21.08L12.2625 20.2382L12.1451 19.3963L12.0078 19.4155L12.1252 20.2573ZM12.2625 20.2382L12.3799 21.08C12.8029 21.021 13.2248 20.937 13.6455 20.8283L13.4329 20.0053L13.2203 19.1824C12.8608 19.2752 12.5024 19.3465 12.1451 19.3963L12.2625 20.2382ZM13.4329 20.0053L13.6455 20.8283L13.7828 20.7929L13.5702 19.9699L13.3576 19.1469L13.2203 19.1824L13.4329 20.0053ZM13.5702 19.9699L13.7828 20.7929L13.9201 20.7574L13.7075 19.9344L13.4949 19.1114L13.3576 19.1469L13.5702 19.9699ZM13.7075 19.9344L13.9201 20.7574C14.1541 20.697 14.3824 20.7023 14.6234 20.7779L14.8779 19.9669L15.1324 19.1559C14.5931 18.9866 14.0412 18.9703 13.4949 19.1114L13.7075 19.9344ZM14.8779 19.9669L14.6234 20.7779L14.7607 20.821L15.0152 20.01L15.2697 19.199L15.1324 19.1559L14.8779 19.9669ZM15.0152 20.01L14.7607 20.821L14.898 20.8641L15.1525 20.0531L15.407 19.242L15.2697 19.199L15.0152 20.01ZM15.1525 20.0531L14.898 20.8641C15.4049 21.0231 15.9235 21.0688 16.4445 20.994L16.3238 20.1526L16.203 19.3112C15.9427 19.3486 15.6804 19.3278 15.407 19.242L15.1525 20.0531ZM16.3238 20.1526L16.4445 20.994L16.582 20.9742L16.4612 20.1328L16.3405 19.2915L16.203 19.3112L16.3238 20.1526ZM16.4612 20.1328L16.582 20.9742L16.7195 20.9545L16.5987 20.1131L16.4779 19.2717L16.3405 19.2915L16.4612 20.1328ZM16.5987 20.1131L16.7195 20.9545C17.1282 20.8958 17.538 20.8236 17.9489 20.7379L17.7753 19.9058L17.6017 19.0737C17.2252 19.1523 16.8506 19.2182 16.4779 19.2717L16.5987 20.1131ZM17.7753 19.9058L17.9489 20.7379L18.0874 20.709L17.9138 19.8769L17.7402 19.0448L17.6017 19.0737L17.7753 19.9058ZM17.9138 19.8769L18.0874 20.709L18.2259 20.6801L18.0523 19.848L17.8787 19.0159L17.7402 19.0448L17.9138 19.8769ZM18.0523 19.848L18.2259 20.6801C18.8842 20.5427 19.3875 20.1409 19.6653 19.5276L18.891 19.177L18.1167 18.8263C18.0636 18.9434 18.0078 18.989 17.8787 19.0159L18.0523 19.848ZM18.891 19.177L19.6653 19.5276L19.7235 19.3991L18.9492 19.0484L18.1749 18.6978L18.1167 18.8263L18.891 19.177ZM18.9492 19.0484L19.7235 19.3991L19.7817 19.2706L19.0074 18.9199L18.2331 18.5693L18.1749 18.6978L18.9492 19.0484ZM19.0074 18.9199L19.7817 19.2706C19.9576 18.8822 20.1052 18.5089 20.2227 18.1514L19.4151 17.8861L18.6076 17.6209C18.5122 17.9113 18.388 18.2272 18.2331 18.5693L19.0074 18.9199ZM19.4151 17.8861L20.2227 18.1514L20.2601 18.0374L19.4526 17.7721L18.645 17.5069L18.6076 17.6209L19.4151 17.8861ZM19.4526 17.7721L20.2601 18.0374L20.2976 17.9234L19.49 17.6581L18.6824 17.3929L18.645 17.5069L19.4526 17.7721ZM19.49 17.6581L20.2976 17.9234C20.4153 17.5648 20.5073 17.2071 20.5726 16.8505L19.7365 16.6974L18.9004 16.5443C18.8498 16.8206 18.7775 17.1034 18.6824 17.3929L19.49 17.6581ZM19.7365 16.6974L20.5726 16.8505L20.593 16.7391L19.7569 16.5861L18.9208 16.433L18.9004 16.5443L19.7365 16.6974ZM19.7569 16.5861L20.593 16.7391L20.6134 16.6278L19.7773 16.4747L18.9412 16.3216L18.9208 16.433L19.7569 16.5861ZM19.7773 16.4747L20.6134 16.6278C20.641 16.4772 20.6606 16.3955 20.6706 16.3621C20.6774 16.3394 20.6696 16.3733 20.6405 16.4281C20.6273 16.4531 20.5864 16.5276 20.5078 16.6067C20.4349 16.6799 20.2352 16.85 19.9192 16.85V16V15.15C19.594 15.15 19.3848 15.325 19.3021 15.4082C19.2137 15.4972 19.1626 15.5864 19.1389 15.6312C19.0888 15.7256 19.0587 15.8188 19.0418 15.8752C19.0045 16.0001 18.9716 16.1557 18.9412 16.3216L19.7773 16.4747ZM19.9192 16V16.85H19.9321V16V15.15H19.9192V16ZM19.9321 16L19.0832 15.9566L19.0796 16.0266L19.9285 16.0699L20.7774 16.1133L20.781 16.0434L19.9321 16ZM19.9285 16.0699L20.523 16.6775L20.5945 16.6075L20 16L19.4055 15.3925L19.334 15.4624L19.9285 16.0699ZM16 8L16.601 7.39896L16.5303 7.32825L15.9293 7.92929L15.3282 8.53033L15.399 8.60104L16 8ZM15.9293 7.92929L16.6547 7.48623L16.5176 7.26186L15.7922 7.70493L15.0669 8.14799L15.2039 8.37235L15.9293 7.92929ZM15.7922 7.70493L16.5176 7.26186C16.1185 6.60841 15.7412 6.08059 15.387 5.73207L14.7908 6.33798L14.1947 6.9439C14.3967 7.14264 14.687 7.52612 15.0669 8.14799L15.7922 7.70493ZM14.7908 6.33798L15.387 5.73207L15.2891 5.63579L14.693 6.24171L14.0969 6.84762L14.1947 6.9439L14.7908 6.33798ZM14.693 6.24171L15.2891 5.63579L15.1913 5.53951L14.5951 6.14543L13.999 6.75134L14.0969 6.84762L14.693 6.24171ZM14.5951 6.14543L15.1913 5.53951C14.8376 5.19158 14.425 4.91348 13.9616 4.70245L13.6093 5.47601L13.257 6.24958C13.5518 6.38383 13.7964 6.55202 13.999 6.75134L14.5951 6.14543ZM13.6093 5.47601L13.9616 4.70245L13.8282 4.6417L13.4759 5.41527L13.1236 6.18883L13.257 6.24958L13.6093 5.47601ZM13.4759 5.41527L13.8282 4.6417L13.6948 4.58096L13.3425 5.35452L12.9902 6.12809L13.1236 6.18883L13.4759 5.41527ZM13.3425 5.35452L13.6948 4.58096C13.3958 4.44483 13.1733 4.28755 13.009 4.11891L12.4002 4.71208L11.7914 5.30525C12.1253 5.64792 12.5309 5.91893 12.9902 6.12809L13.3425 5.35452ZM12.4002 4.71208L13.009 4.11891L12.9214 4.02896L12.3126 4.62213L11.7038 5.2153L11.7914 5.30525L12.4002 4.71208ZM12.3126 4.62213L12.9214 4.02896L12.8337 3.93901L12.2249 4.53218L11.6161 5.12535L11.7038 5.2153L12.3126 4.62213ZM12.2249 4.53218L12.8337 3.93901C12.7165 3.81873 12.6664 3.7566 12.654 3.73913C12.643 3.72351 12.6814 3.77187 12.7128 3.86372C12.729 3.91104 12.7602 4.01753 12.7517 4.15913C12.7423 4.31809 12.6808 4.52128 12.5126 4.68952L11.9115 4.08848L11.3105 3.48744C10.9342 3.8637 11.0735 4.32399 11.1043 4.41387C11.1518 4.55273 11.2243 4.66157 11.2655 4.71991C11.3576 4.85033 11.4842 4.98998 11.6161 5.12535L12.2249 4.53218ZM11.9115 4.08848L12.5126 4.68952L12.5267 4.67539L11.9256 4.07435L11.3246 3.47331L11.3105 3.48744L11.9115 4.08848ZM11.9256 4.07435L11.947 4.92408L12.092 4.92044L12.0707 4.07071L12.0494 3.22098L11.9043 3.22462L11.9256 4.07435ZM12.0707 4.07071L12.6718 3.46967L12.601 3.39896L12 4L11.399 4.60104L11.4697 4.67175L12.0707 4.07071ZM12 4L11.399 3.39896L11.3282 3.46967L11.9293 4.07071L12.5303 4.67175L12.601 4.60104L12 4ZM11.9293 4.07071L11.1928 3.6463L11.0607 3.87558L11.7972 4.29999L12.5336 4.72439L12.6658 4.49512L11.9293 4.07071ZM11.7972 4.29999L11.0607 3.87558C10.7081 4.48752 10.4397 4.73195 10.2975 4.80574L10.689 5.56019L11.0806 6.31465C11.6649 6.01142 12.1352 5.41571 12.5336 4.72439L11.7972 4.29999ZM10.689 5.56019L10.2975 4.80574L10.1697 4.87206L10.5612 5.62652L10.9527 6.38098L11.0806 6.31465L10.689 5.56019ZM10.5612 5.62652L10.1697 4.87206L10.0419 4.93839L10.4334 5.69285L10.8249 6.4473L10.9527 6.38098L10.5612 5.62652ZM10.4334 5.69285L10.0419 4.93839C9.57764 5.17931 9.1792 5.50171 8.85686 5.90538L9.52107 6.43578L10.1853 6.96618C10.3529 6.75629 10.5627 6.5834 10.8249 6.4473L10.4334 5.69285ZM9.52107 6.43578L8.85686 5.90538L8.77066 6.01333L9.43488 6.54372L10.0991 7.07412L10.1853 6.96618L9.52107 6.43578ZM9.43488 6.54372L8.77066 6.01333L8.68447 6.12127L9.34868 6.65166L10.0129 7.18206L10.0991 7.07412L9.43488 6.54372ZM9.34868 6.65166L8.68447 6.12127C8.43196 6.43749 8.19535 6.74768 7.97485 7.05183L8.66302 7.55074L9.3512 8.04965C9.55496 7.76859 9.77546 7.4794 10.0129 7.18206L9.34868 6.65166ZM8.66302 7.55074L7.97485 7.05183L7.90021 7.15479L8.58839 7.65369L9.27657 8.1526L9.3512 8.04965L8.66302 7.55074ZM8.58839 7.65369L7.90021 7.15479L7.82557 7.25774L8.51375 7.75665L9.20193 8.25556L9.27657 8.1526L8.58839 7.65369ZM8.51375 7.75665L7.82557 7.25774C7.72652 7.39436 7.68266 7.43786 7.68489 7.43585C7.68885 7.43226 7.70437 7.41844 7.73057 7.40057C7.75467 7.38415 7.80609 7.35167 7.88143 7.32438C7.95601 7.29737 8.08698 7.26364 8.25142 7.28541C8.4312 7.3092 8.5944 7.39232 8.7174 7.51531L8.11635 8.11635L7.51531 8.7174C7.83892 9.04101 8.24481 9.00084 8.46036 8.92277C8.63997 8.85771 8.76642 8.74989 8.82572 8.69621C8.96041 8.57429 9.08884 8.41154 9.20193 8.25556L8.51375 7.75665ZM8.11635 8.11635L8.7174 7.51531L8.69882 7.49674L8.09778 8.09778L7.49674 8.69882L7.51531 8.7174L8.11635 8.11635ZM8.09778 8.09778L8.93702 7.96296L8.90995 7.79447L8.07071 7.92929L7.23147 8.06411L7.25854 8.2326L8.09778 8.09778ZM8.07071 7.92929L7.46967 7.32825L7.39896 7.39896L8 8L8.60104 8.60104L8.67175 8.53033L8.07071 7.92929ZM12 4H11.15V4.1H12H12.85V4H12ZM12 4.1L11.1553 4.00543L11.1267 4.26098L11.9714 4.35555L12.8161 4.45012L12.8447 4.19457L12 4.1ZM11.9714 4.35555L11.1267 4.26098C11.0411 5.02484 11.0441 5.71877 11.2095 6.2732L12.024 6.03023L12.8385 5.78725C12.7711 5.56138 12.739 5.13886 12.8161 4.45012L11.9714 4.35555ZM12.024 6.03023L11.2095 6.2732L11.2504 6.41047L12.0649 6.1675L12.8795 5.92453L12.8385 5.78725L12.024 6.03023ZM12.0649 6.1675L11.2504 6.41047L11.2914 6.54775L12.1059 6.30477L12.9204 6.0618L12.8795 5.92453L12.0649 6.1675ZM12.1059 6.30477L11.2914 6.54775C11.3507 6.74684 11.3441 6.93935 11.2561 7.15733L12.0445 7.47523L12.8328 7.79312C13.0595 7.2308 13.0938 6.64301 12.9204 6.0618L12.1059 6.30477ZM12.0445 7.47523L11.2561 7.15733L11.2008 7.29461L11.9891 7.6125L12.7774 7.93039L12.8328 7.79312L12.0445 7.47523ZM11.9891 7.6125L11.2008 7.29461L11.1454 7.43188L11.9338 7.74978L12.7221 8.06767L12.7774 7.93039L11.9891 7.6125ZM11.9338 7.74978L11.1454 7.43188C10.9199 7.9912 10.8826 8.57595 11.0495 9.15546L11.8663 8.92023L12.6831 8.68499C12.6253 8.4842 12.633 8.28865 12.7221 8.06767L11.9338 7.74978ZM11.8663 8.92023L11.0495 9.15546L11.089 9.29274L11.9058 9.0575L12.7226 8.82226L12.6831 8.68499L11.8663 8.92023ZM11.9058 9.0575L11.089 9.29274L11.1286 9.43001L11.9454 9.19478L12.7622 8.95954L12.7226 8.82226L11.9058 9.0575ZM11.9454 9.19478L11.1286 9.43001C11.2256 9.76699 11.2863 10.1005 11.312 10.4312L12.1595 10.3652L13.0069 10.2993C12.9719 9.84968 12.8898 9.40286 12.7622 8.95954L11.9454 9.19478ZM12.1595 10.3652L11.312 10.4312L11.3227 10.5685L12.1702 10.5025L13.0176 10.4365L13.0069 10.2993L12.1595 10.3652ZM12.1702 10.5025L11.3227 10.5685L11.3334 10.7057L12.1808 10.6398L13.0283 10.5738L13.0176 10.4365L12.1702 10.5025ZM12.1808 10.6398L11.3334 10.7057C11.3612 11.0629 11.3681 11.4198 11.354 11.7767L12.2033 11.8102L13.0527 11.8437C13.0694 11.4203 13.0612 10.997 13.0283 10.5738L12.1808 10.6398ZM12.2033 11.8102L11.354 11.7767L11.3486 11.914L12.1979 11.9475L13.0472 11.981L13.0527 11.8437L12.2033 11.8102ZM12.1979 11.9475L11.3486 11.914L11.3431 12.0513L12.1925 12.0848L13.0418 12.1183L13.0472 11.981L12.1979 11.9475ZM12.1925 12.0848L11.3431 12.0513C11.3299 12.3873 11.2846 12.7249 11.2065 13.0649L12.0349 13.2552L12.8633 13.4456C12.9645 13.0052 13.0243 12.5626 13.0418 12.1183L12.1925 12.0848ZM12.0349 13.2552L11.2065 13.0649L11.175 13.2021L12.0034 13.3925L12.8318 13.5829L12.8633 13.4456L12.0349 13.2552ZM12.0034 13.3925L11.175 13.2021L11.1434 13.3394L11.9718 13.5298L12.8002 13.7201L12.8318 13.5829L12.0034 13.3925ZM11.9718 13.5298L11.1434 13.3394C11.0389 13.7942 10.9892 14.2522 10.9956 14.7121L11.8455 14.7002L12.6955 14.6883C12.691 14.368 12.7254 14.0457 12.8002 13.7201L11.9718 13.5298ZM11.8455 14.7002L10.9956 14.7121L10.9976 14.8494L11.8475 14.8375L12.6974 14.8256L12.6955 14.6883L11.8455 14.7002ZM11.8475 14.8375L10.9976 14.8494L10.9995 14.9867L11.8494 14.9748L12.6993 14.9629L12.6974 14.8256L11.8475 14.8375ZM11.8494 14.9748L10.9995 14.9867C11.0024 15.1927 11.0097 15.3761 11.0231 15.5313C11.0351 15.6706 11.0561 15.8442 11.1066 16L11.9153 15.7382L12.7239 15.4764C12.7326 15.5031 12.7324 15.5112 12.7286 15.4879C12.7253 15.4678 12.7211 15.4345 12.7168 15.3852C12.7082 15.2859 12.7019 15.147 12.6993 14.9629L11.8494 14.9748ZM11.9153 15.7382L11.1066 16L11.1201 16.0418L11.9288 15.78L12.7375 15.5182L12.7239 15.4764L11.9153 15.7382ZM11.9288 15.78L11.1978 16.2138L11.269 16.3338L12 15.9L12.731 15.4662L12.6598 15.3462L11.9288 15.78ZM12 15.9H11.15V16H12H12.85V15.9H12Z" fill="white" />

</svg>