<svg preserveAspectRatio="none" width="100%" height="100%" overflow="visible" style="display: block;" viewBox="0 0 18.4756 18.4756" fill="none" xmlns="http://www.w3.org/2000/svg">
<g id="easy">
<path id="Vector" d="M16.2238 9.80816L16.8748 9.74234L16.2238 9.80816ZM16.2348 9.91653L16.8858 9.85071L16.2348 9.91653ZM16.1606 10.8252L16.7922 10.9962L16.1606 10.8252ZM16.1322 10.93L15.5006 10.759L16.1322 10.93ZM16.1038 11.0347L16.7354 11.2057L16.1038 11.0347ZM15.821 11.9161L16.4342 12.1445L15.821 11.9161ZM15.745 12.12L15.1318 11.8916L15.745 12.12ZM15.271 12.9002L15.7567 13.3388L15.271 12.9002ZM15.1978 12.9813L14.7122 12.5427L15.1978 12.9813ZM15.1247 13.0623L15.6103 13.5009L15.1247 13.0623ZM14.4822 13.7145L14.037 13.2349L14.4822 13.7145ZM14.3272 13.8584L14.7723 14.338L14.3272 13.8584ZM13.6737 14.4776L13.2188 14.0073L13.6737 14.4776ZM13.598 14.5509L14.053 15.0211L13.598 14.5509ZM13.5222 14.6242L13.0673 14.1539L13.5222 14.6242ZM12.8375 15.2216L13.2425 15.7356L12.8375 15.2216ZM12.7527 15.2884L12.3477 14.7744L12.7527 15.2884ZM12.6678 15.3553L13.0728 15.8693L12.6678 15.3553ZM11.8317 15.6567L11.8544 16.3107L11.8317 15.6567ZM11.7205 15.6606L11.6978 15.0066L11.7205 15.6606ZM11.6092 15.6644L11.5866 15.0105L11.6092 15.6644ZM10.73 15.9454L10.3721 15.3976L10.73 15.9454ZM10.635 16.0074L10.9929 16.5552L10.635 16.0074ZM10.54 16.0695L10.1821 15.5217L10.54 16.0695ZM9.6745 16.2549L9.78522 15.61L9.6745 16.2549ZM9.56645 16.2364L9.45573 16.8813L9.56645 16.2364ZM8.56923 16.0011L8.3692 16.6242L8.56923 16.0011ZM8.46871 15.9689L8.66874 15.3458L8.46871 15.9689ZM8.36819 15.9366L8.16816 16.5596L8.36819 15.9366ZM7.46542 15.832L7.42005 15.1792V15.1792L7.46542 15.832ZM7.24293 15.8474L7.19757 15.1947V15.1947L7.24293 15.8474ZM6.38543 15.6261L6.02367 16.1714L6.38543 15.6261ZM6.29553 15.5665L5.93377 16.1117L6.29553 15.5665ZM6.20563 15.5068L6.56739 14.9616L6.20563 15.5068ZM5.43084 15.0248L5.75983 14.4592L5.43084 15.0248ZM5.339 14.9714L5.66799 14.4058L5.339 14.9714ZM5.24716 14.918L4.91818 15.4836L5.24716 14.918ZM4.51442 14.388L4.94825 13.8982L4.51442 14.388ZM4.43438 14.3172L4.00054 14.807L4.43438 14.3172ZM3.81919 13.5274L3.22595 13.8035L3.81919 13.5274ZM3.7737 13.4296L4.36695 13.1535L3.7737 13.4296ZM3.72822 13.3319L3.13497 13.608L3.72822 13.3319ZM3.19018 12.5861L3.64244 12.1132L3.19018 12.5861ZM3.10946 12.5089L3.56172 12.036L3.10946 12.5089ZM3.02874 12.4317L2.57648 12.9046L3.02874 12.4317ZM2.7281 11.6133L2.07632 11.5554L2.7281 11.6133ZM2.62252 10.4773L2.01626 10.7235L2.62252 10.4773ZM2.58277 10.3794L3.18903 10.1332V10.1332L2.58277 10.3794ZM2.54302 10.2815L1.93677 10.5277L2.54302 10.2815ZM2.20167 9.19507L1.56791 9.35787L2.20167 9.19507ZM2.1711 8.28295L1.52817 8.16125L2.1711 8.28295ZM2.19137 8.17585L2.8343 8.29756L2.19137 8.17585ZM2.21164 8.06875L1.56872 7.94704L2.21164 8.06875ZM2.69149 7.04095L2.1526 6.66979L2.69149 7.04095ZM3.05816 6.19687L2.41872 6.05799L3.05816 6.19687ZM3.08135 6.09008L3.72079 6.22896L3.08135 6.09008ZM3.10455 5.98328L2.46511 5.84441V5.84441L3.10455 5.98328ZM3.67079 5.18338L4.05914 5.71003L3.67079 5.18338ZM3.75959 5.1179L3.37125 4.59125L3.75959 5.1179ZM4.40534 4.47879L3.87991 4.0888L4.40534 4.47879ZM4.46801 4.39435L4.99343 4.78435L4.46801 4.39435ZM4.53068 4.30992L4.00525 3.91993L4.53068 4.30992ZM6.08436 3.05837L5.70258 2.52695L6.08436 3.05837ZM6.17189 2.99549L6.55367 3.52691L6.17189 2.99549ZM6.25942 2.93261L5.87764 2.40118L6.25942 2.93261ZM7.28316 2.49145L7.11493 1.8591L7.28316 2.49145ZM8.38694 2.21941L8.53564 2.85663L8.38694 2.21941ZM9.28166 2.30233L9.02704 2.9051L9.28166 2.30233ZM10.4087 2.48875L10.5304 3.13168L10.4087 2.48875ZM10.6308 2.4467L10.5091 1.80378L10.6308 2.4467ZM11.4925 2.61881L11.8583 2.07628L11.4925 2.61881ZM11.5836 2.68021L11.2178 3.22274L11.5836 2.68021ZM11.6746 2.7416L12.0404 2.19907L11.6746 2.7416ZM12.5179 3.11913L12.6792 2.48499L12.5179 3.11913ZM12.6246 3.14629L12.4633 3.78043L12.6246 3.14629ZM12.7314 3.17345L12.57 3.80759L12.7314 3.17345ZM13.4708 3.66257L12.9502 4.05906L13.4708 3.66257ZM13.5375 3.75014L14.058 3.35365L13.5375 3.75014ZM13.6042 3.83771L14.1247 3.44122L13.6042 3.83771ZM14.1982 4.53184L14.669 4.07743L14.1982 4.53184ZM14.3434 4.68234L13.8726 5.13675L14.3434 4.68234ZM14.8614 5.3965L14.2832 5.70281L14.8614 5.3965ZM14.9103 5.48877L15.4885 5.18245L14.9103 5.48877ZM14.9592 5.58104L14.381 5.88736L14.9592 5.58104ZM15.3993 6.35705L14.8395 6.69596L15.3993 6.35705ZM15.4536 6.4468L16.0133 6.10789L15.4536 6.4468ZM15.5079 6.53656L14.9482 6.87547L15.5079 6.53656ZM15.8578 7.35189L15.2266 7.52433V7.52433L15.8578 7.35189ZM15.8856 7.45339L16.5168 7.28095V7.28095L15.8856 7.45339ZM15.9133 7.55488L15.2821 7.72732L15.9133 7.55488ZM16.1063 8.43333L15.461 8.5416L16.1063 8.43333ZM16.1238 8.53789L16.7692 8.42962L16.1238 8.53789ZM16.1414 8.64245L15.496 8.75073L16.1414 8.64245ZM16.1959 9.14879L15.5753 8.94127L16.1959 9.14879ZM16.1911 9.163L16.8117 9.37053L16.1911 9.163ZM16.1864 9.17721L15.5658 8.96969L16.1864 9.17721ZM16.2128 9.69979L15.5618 9.76561L16.2128 9.69979ZM16.2238 9.80816L15.5728 9.87397L15.5837 9.98234L16.2348 9.91653L16.8858 9.85071L16.8748 9.74234L16.2238 9.80816ZM16.2348 9.91653L15.5837 9.98234C15.6069 10.2112 15.5886 10.4338 15.5289 10.6542L16.1606 10.8252L16.7922 10.9962C16.8937 10.621 16.9249 10.2379 16.8858 9.85071L16.2348 9.91653ZM16.1606 10.8252L15.5289 10.6542L15.5006 10.759L16.1322 10.93L16.7638 11.1009L16.7922 10.9962L16.1606 10.8252ZM16.1322 10.93L15.5006 10.759L15.4722 10.8638L16.1038 11.0347L16.7354 11.2057L16.7638 11.1009L16.1322 10.93ZM16.1038 11.0347L15.4722 10.8638C15.3969 11.1421 15.3088 11.4167 15.2078 11.6876L15.821 11.9161L16.4342 12.1445C16.5491 11.8359 16.6496 11.523 16.7354 11.2057L16.1038 11.0347ZM15.821 11.9161L15.2078 11.6876L15.1698 11.7896L15.783 12.018L16.3962 12.2465L16.4342 12.1445L15.821 11.9161ZM15.783 12.018L15.1698 11.7896L15.1318 11.8916L15.745 12.12L16.3582 12.3484L16.3962 12.2465L15.783 12.018ZM15.745 12.12L15.1318 11.8916C15.0528 12.1036 14.9382 12.2924 14.7854 12.4616L15.271 12.9002L15.7567 13.3388C16.0199 13.0473 16.2213 12.716 16.3582 12.3484L15.745 12.12ZM15.271 12.9002L14.7854 12.4616L14.7122 12.5427L15.1978 12.9813L15.6835 13.4198L15.7567 13.3388L15.271 12.9002ZM15.1978 12.9813L14.7122 12.5427L14.639 12.6237L15.1247 13.0623L15.6103 13.5009L15.6835 13.4198L15.1978 12.9813ZM15.1247 13.0623L14.639 12.6237C14.4435 12.8403 14.2428 13.0439 14.037 13.2349L14.4822 13.7145L14.9273 14.1941C15.1622 13.9762 15.3898 13.745 15.6103 13.5009L15.1247 13.0623ZM14.4822 13.7145L14.037 13.2349L13.9595 13.3069L14.4047 13.7865L14.8498 14.2661L14.9273 14.1941L14.4822 13.7145ZM14.4047 13.7865L13.9595 13.3069L13.882 13.3788L14.3272 13.8584L14.7723 14.338L14.8498 14.2661L14.4047 13.7865ZM14.3272 13.8584L13.882 13.3788C13.6584 13.5863 13.4373 13.7958 13.2188 14.0073L13.6737 14.4776L14.1287 14.9479C14.3408 14.7427 14.5553 14.5394 14.7723 14.338L14.3272 13.8584ZM13.6737 14.4776L13.2188 14.0073L13.143 14.0806L13.598 14.5509L14.053 15.0211L14.1287 14.9479L13.6737 14.4776ZM13.598 14.5509L13.143 14.0806L13.0673 14.1539L13.5222 14.6242L13.9772 15.0944L14.053 15.0211L13.598 14.5509ZM13.5222 14.6242L13.0673 14.1539C12.8683 14.3464 12.6568 14.531 12.4326 14.7076L12.8375 15.2216L13.2425 15.7356C13.5006 15.5322 13.7456 15.3185 13.9772 15.0944L13.5222 14.6242ZM12.8375 15.2216L12.4326 14.7076L12.3477 14.7744L12.7527 15.2884L13.1576 15.8024L13.2425 15.7356L12.8375 15.2216ZM12.7527 15.2884L12.3477 14.7744L12.2629 14.8413L12.6678 15.3553L13.0728 15.8693L13.1576 15.8024L12.7527 15.2884ZM12.6678 15.3553L12.2629 14.8413C12.1346 14.9424 11.9908 14.9965 11.8091 15.0027L11.8317 15.6567L11.8544 16.3107C12.3051 16.295 12.7188 16.1482 13.0728 15.8693L12.6678 15.3553ZM11.8317 15.6567L11.8091 15.0027L11.6978 15.0066L11.7205 15.6606L11.7431 16.3145L11.8544 16.3107L11.8317 15.6567ZM11.7205 15.6606L11.6978 15.0066L11.5866 15.0105L11.6092 15.6644L11.6319 16.3184L11.7431 16.3145L11.7205 15.6606ZM11.6092 15.6644L11.5866 15.0105C11.1486 15.0256 10.74 15.1572 10.3721 15.3976L10.73 15.9454L11.0879 16.4932C11.2598 16.3808 11.4373 16.3251 11.6319 16.3184L11.6092 15.6644ZM10.73 15.9454L10.3721 15.3976L10.2771 15.4596L10.635 16.0074L10.9929 16.5552L11.0879 16.4932L10.73 15.9454ZM10.635 16.0074L10.2771 15.4596L10.1821 15.5217L10.54 16.0695L10.8979 16.6173L10.9929 16.5552L10.635 16.0074ZM10.54 16.0695L10.1821 15.5217C10.0452 15.6111 9.9233 15.6337 9.78522 15.61L9.6745 16.2549L9.56378 16.8998C10.0399 16.9816 10.495 16.8805 10.8979 16.6173L10.54 16.0695ZM9.6745 16.2549L9.78522 15.61L9.67717 15.5914L9.56645 16.2364L9.45573 16.8813L9.56378 16.8998L9.6745 16.2549ZM9.56645 16.2364L9.67717 15.5914L9.56912 15.5729L9.4584 16.2178L9.34768 16.8627L9.45573 16.8813L9.56645 16.2364ZM9.4584 16.2178L9.56912 15.5729C9.29111 15.5252 9.02463 15.4601 8.76926 15.3781L8.56923 16.0011L8.3692 16.6242C8.6852 16.7256 9.01149 16.805 9.34768 16.8627L9.4584 16.2178ZM8.56923 16.0011L8.76926 15.3781L8.66874 15.3458L8.46871 15.9689L8.26868 16.5919L8.3692 16.6242L8.56923 16.0011ZM8.46871 15.9689L8.66874 15.3458L8.56822 15.3136L8.36819 15.9366L8.16816 16.5596L8.26868 16.5919L8.46871 15.9689ZM8.36819 15.9366L8.56822 15.3136C8.19898 15.195 7.81444 15.1518 7.42005 15.1792L7.46542 15.832L7.51078 16.4847C7.74873 16.4682 7.96604 16.4947 8.16816 16.5596L8.36819 15.9366ZM7.46542 15.832L7.42005 15.1792L7.30881 15.1869L7.35418 15.8397L7.39954 16.4925L7.51078 16.4847L7.46542 15.832ZM7.35418 15.8397L7.30881 15.1869L7.19757 15.1947L7.24293 15.8474L7.2883 16.5002L7.39954 16.4925L7.35418 15.8397ZM7.24293 15.8474L7.19757 15.1947C7.02005 15.207 6.87826 15.1678 6.74719 15.0809L6.38543 15.6261L6.02367 16.1714C6.4036 16.4234 6.83349 16.5318 7.2883 16.5002L7.24293 15.8474ZM6.38543 15.6261L6.74719 15.0809L6.65729 15.0212L6.29553 15.5665L5.93377 16.1117L6.02367 16.1714L6.38543 15.6261ZM6.29553 15.5665L6.65729 15.0212L6.56739 14.9616L6.20563 15.5068L5.84387 16.0521L5.93377 16.1117L6.29553 15.5665ZM6.20563 15.5068L6.56739 14.9616C6.30133 14.785 6.03214 14.6176 5.75983 14.4592L5.43084 15.0248L5.10186 15.5904C5.35158 15.7357 5.59892 15.8895 5.84387 16.0521L6.20563 15.5068ZM5.43084 15.0248L5.75983 14.4592L5.66799 14.4058L5.339 14.9714L5.01002 15.537L5.10186 15.5904L5.43084 15.0248ZM5.339 14.9714L5.66799 14.4058L5.57615 14.3523L5.24716 14.918L4.91818 15.4836L5.01002 15.537L5.339 14.9714ZM5.24716 14.918L5.57615 14.3523C5.35274 14.2224 5.14358 14.0712 4.94825 13.8982L4.51442 14.388L4.08058 14.8779C4.34021 15.1078 4.61955 15.3099 4.91818 15.4836L5.24716 14.918ZM4.51442 14.388L4.94825 13.8982L4.86822 13.8273L4.43438 14.3172L4.00054 14.807L4.08058 14.8779L4.51442 14.388ZM4.43438 14.3172L4.86822 13.8273L4.78818 13.7564L4.35434 14.2463L3.9205 14.7361L4.00054 14.807L4.43438 14.3172ZM4.35434 14.2463L4.78818 13.7564C4.62851 13.615 4.50414 13.4483 4.41244 13.2513L3.81919 13.5274L3.22595 13.8035C3.39281 14.162 3.6252 14.4746 3.9205 14.7361L4.35434 14.2463ZM3.81919 13.5274L4.41244 13.2513L4.36695 13.1535L3.7737 13.4296L3.18046 13.7057L3.22595 13.8035L3.81919 13.5274ZM3.7737 13.4296L4.36695 13.1535L4.32146 13.0558L3.72822 13.3319L3.13497 13.608L3.18046 13.7057L3.7737 13.4296ZM3.72822 13.3319L4.32146 13.0558C4.1566 12.7016 3.92852 12.3868 3.64244 12.1132L3.19018 12.5861L2.73792 13.059C2.91066 13.2242 3.04127 13.4067 3.13497 13.608L3.72822 13.3319ZM3.19018 12.5861L3.64244 12.1132L3.56172 12.036L3.10946 12.5089L2.6572 12.9818L2.73792 13.059L3.19018 12.5861ZM3.10946 12.5089L3.56172 12.036L3.481 11.9588L3.02874 12.4317L2.57648 12.9046L2.6572 12.9818L3.10946 12.5089ZM3.02874 12.4317L3.481 11.9588C3.40049 11.8818 3.36784 11.8067 3.37988 11.6712L2.7281 11.6133L2.07632 11.5554C2.03039 12.0724 2.19818 12.5428 2.57648 12.9046L3.02874 12.4317ZM2.7281 11.6133L3.37988 11.6712L3.39007 11.5565L2.7383 11.4986L2.08652 11.4407L2.07632 11.5554L2.7281 11.6133ZM2.7383 11.4986L3.39007 11.5565L3.40027 11.4417L2.74849 11.3838L2.09672 11.3259L2.08652 11.4407L2.7383 11.4986ZM2.74849 11.3838L3.40027 11.4417C3.4376 11.0215 3.38432 10.6141 3.22877 10.2311L2.62252 10.4773L2.01626 10.7235C2.08664 10.8968 2.11735 11.0936 2.09672 11.3259L2.74849 11.3838ZM2.62252 10.4773L3.22877 10.2311L3.18903 10.1332L2.58277 10.3794L1.97652 10.6256L2.01626 10.7235L2.62252 10.4773ZM2.58277 10.3794L3.18903 10.1332L3.14928 10.0353L2.54302 10.2815L1.93677 10.5277L1.97652 10.6256L2.58277 10.3794ZM2.54302 10.2815L3.14928 10.0353C3.04782 9.78549 2.96137 9.52252 2.89034 9.24598L2.25657 9.40877L1.6228 9.57157C1.70778 9.90239 1.8123 10.2213 1.93677 10.5277L2.54302 10.2815ZM2.25657 9.40877L2.89034 9.24598L2.86289 9.13912L2.22912 9.30192L1.59535 9.46472L1.6228 9.57157L2.25657 9.40877ZM2.22912 9.30192L2.86289 9.13912L2.83544 9.03227L2.20167 9.19507L1.56791 9.35787L1.59535 9.46472L2.22912 9.30192ZM2.20167 9.19507L2.83544 9.03227C2.78103 8.82044 2.77448 8.61352 2.81402 8.40466L2.1711 8.28295L1.52817 8.16125C1.45247 8.56117 1.4663 8.96233 1.56791 9.35787L2.20167 9.19507ZM2.1711 8.28295L2.81402 8.40466L2.8343 8.29756L2.19137 8.17585L1.54844 8.05415L1.52817 8.16125L2.1711 8.28295ZM2.19137 8.17585L2.8343 8.29756L2.85457 8.19045L2.21164 8.06875L1.56872 7.94704L1.54844 8.05415L2.19137 8.17585ZM2.21164 8.06875L2.85457 8.19045C2.89498 7.977 2.97705 7.77994 3.10476 7.59451L2.56586 7.22335L2.02697 6.85219C1.79763 7.18517 1.64355 7.55171 1.56872 7.94704L2.21164 8.06875ZM2.56586 7.22335L3.10476 7.59451L3.16757 7.50331L2.62868 7.13215L2.08978 6.76099L2.02697 6.85219L2.56586 7.22335ZM2.62868 7.13215L3.16757 7.50331L3.23039 7.41211L2.69149 7.04095L2.1526 6.66979L2.08978 6.76099L2.62868 7.13215ZM2.69149 7.04095L3.23039 7.41211C3.45656 7.08372 3.61335 6.72363 3.6976 6.33575L3.05816 6.19687L2.41872 6.05799C2.37113 6.27715 2.28347 6.47978 2.1526 6.66979L2.69149 7.04095ZM3.05816 6.19687L3.6976 6.33575L3.72079 6.22896L3.08135 6.09008L2.44192 5.9512L2.41872 6.05799L3.05816 6.19687ZM3.08135 6.09008L3.72079 6.22896L3.74399 6.12216L3.10455 5.98328L2.46511 5.84441L2.44192 5.9512L3.08135 6.09008ZM3.10455 5.98328L3.74399 6.12216C3.77578 5.97577 3.84467 5.86817 3.97034 5.77551L3.58199 5.24886L3.19365 4.72221C2.81457 5.00174 2.56516 5.38377 2.46511 5.84441L3.10455 5.98328ZM3.58199 5.24886L3.97034 5.77551L4.05914 5.71003L3.67079 5.18338L3.28245 4.65673L3.19365 4.72221L3.58199 5.24886ZM3.67079 5.18338L4.05914 5.71003L4.14794 5.64455L3.75959 5.1179L3.37125 4.59125L3.28245 4.65673L3.67079 5.18338ZM3.75959 5.1179L4.14794 5.64455C4.44995 5.42185 4.71211 5.16337 4.93076 4.86878L4.40534 4.47879L3.87991 4.0888C3.74233 4.27416 3.57399 4.44176 3.37125 4.59125L3.75959 5.1179ZM4.40534 4.47879L4.93076 4.86878L4.99343 4.78435L4.46801 4.39435L3.94258 4.00436L3.87991 4.0888L4.40534 4.47879ZM4.46801 4.39435L4.99343 4.78435L5.05611 4.69991L4.53068 4.30992L4.00525 3.91993L3.94258 4.00436L4.46801 4.39435ZM4.53068 4.30992L5.05611 4.69991C5.19084 4.51839 5.35032 4.36509 5.53669 4.23786L5.16776 3.69744L4.79884 3.15701C4.492 3.36648 4.22676 3.6215 4.00525 3.91993L4.53068 4.30992ZM5.16776 3.69744L5.53669 4.23786L5.62346 4.17863L5.25453 3.6382L4.8856 3.09778L4.79884 3.15701L5.16776 3.69744ZM5.25453 3.6382L5.62346 4.17863L5.71023 4.11939L5.3413 3.57897L4.97237 3.03855L4.8856 3.09778L5.25453 3.6382ZM5.3413 3.57897L5.71023 4.11939C5.96126 3.94802 6.21323 3.77149 6.46614 3.5898L6.08436 3.05837L5.70258 2.52695C5.45795 2.70269 5.21454 2.87322 4.97237 3.03855L5.3413 3.57897ZM6.08436 3.05837L6.46614 3.5898L6.55367 3.52691L6.17189 2.99549L5.79011 2.46407L5.70258 2.52695L6.08436 3.05837ZM6.17189 2.99549L6.55367 3.52691L6.6412 3.46403L6.25942 2.93261L5.87764 2.40118L5.79011 2.46407L6.17189 2.99549ZM6.25942 2.93261L6.6412 3.46403C6.82568 3.3315 7.02534 3.23714 7.24364 3.17907L7.07541 2.54672L6.90718 1.91437C6.53504 2.01337 6.19071 2.17627 5.87764 2.40118L6.25942 2.93261ZM7.07541 2.54672L7.24364 3.17907L7.34751 3.15143L7.17928 2.51909L7.01106 1.88674L6.90718 1.91437L7.07541 2.54672ZM7.17928 2.51909L7.34751 3.15143L7.45138 3.1238L7.28316 2.49145L7.11493 1.8591L7.01106 1.88674L7.17928 2.51909ZM7.28316 2.49145L7.45138 3.1238C7.74007 3.047 8.03113 2.97436 8.32458 2.90588L8.17588 2.26866L8.02718 1.63144C7.72077 1.70294 7.41669 1.77882 7.11493 1.8591L7.28316 2.49145ZM8.17588 2.26866L8.32458 2.90588L8.43011 2.88126L8.28141 2.24403L8.13271 1.60681L8.02718 1.63144L8.17588 2.26866ZM8.28141 2.24403L8.43011 2.88126L8.53564 2.85663L8.38694 2.21941L8.23825 1.58218L8.13271 1.60681L8.28141 2.24403ZM8.38694 2.21941L8.53564 2.85663C8.69451 2.81956 8.85176 2.83106 9.02704 2.9051L9.28166 2.30233L9.53629 1.69956C9.11847 1.52306 8.67924 1.47928 8.23825 1.58218L8.38694 2.21941ZM9.28166 2.30233L9.02704 2.9051L9.13138 2.94918L9.386 2.34641L9.64063 1.74363L9.53629 1.69956L9.28166 2.30233ZM9.386 2.34641L9.13138 2.94918L9.23572 2.99325L9.49035 2.39048L9.74497 1.78771L9.64063 1.74363L9.386 2.34641ZM9.49035 2.39048L9.23572 2.99325C9.65076 3.16858 10.0878 3.21546 10.5304 3.13168L10.4087 2.48875L10.287 1.84583C10.0982 1.88156 9.92302 1.86293 9.74497 1.78771L9.49035 2.39048ZM10.4087 2.48875L10.5304 3.13168L10.6415 3.11065L10.5198 2.46773L10.3981 1.8248L10.287 1.84583L10.4087 2.48875ZM10.5198 2.46773L10.6415 3.11065L10.7525 3.08963L10.6308 2.4467L10.5091 1.80378L10.3981 1.8248L10.5198 2.46773ZM10.6308 2.4467L10.7525 3.08963C10.9044 3.06089 11.0155 3.08634 11.1267 3.16134L11.4925 2.61881L11.8583 2.07628C11.452 1.80229 10.9886 1.71301 10.5091 1.80378L10.6308 2.4467ZM11.4925 2.61881L11.1267 3.16134L11.2178 3.22274L11.5836 2.68021L11.9494 2.13767L11.8583 2.07628L11.4925 2.61881ZM11.5836 2.68021L11.2178 3.22274L11.3088 3.28414L11.6746 2.7416L12.0404 2.19907L11.9494 2.13767L11.5836 2.68021ZM11.6746 2.7416L11.3088 3.28414C11.6302 3.50082 11.9804 3.65758 12.3565 3.75327L12.5179 3.11913L12.6792 2.48499C12.4485 2.4263 12.2367 2.33137 12.0404 2.19907L11.6746 2.7416ZM12.5179 3.11913L12.3565 3.75327L12.4633 3.78043L12.6246 3.14629L12.786 2.51215L12.6792 2.48499L12.5179 3.11913ZM12.6246 3.14629L12.4633 3.78043L12.57 3.80759L12.7314 3.17345L12.8927 2.53931L12.786 2.51215L12.6246 3.14629ZM12.7314 3.17345L12.57 3.80759C12.7303 3.84839 12.8502 3.92772 12.9502 4.05906L13.4708 3.66257L13.9913 3.26608C13.7122 2.89964 13.3391 2.6529 12.8927 2.53931L12.7314 3.17345ZM13.4708 3.66257L12.9502 4.05906L13.0169 4.14663L13.5375 3.75014L14.058 3.35365L13.9913 3.26608L13.4708 3.66257ZM13.5375 3.75014L13.0169 4.14663L13.0836 4.2342L13.6042 3.83771L14.1247 3.44122L14.058 3.35365L13.5375 3.75014ZM13.6042 3.83771L13.0836 4.2342C13.2878 4.5023 13.5023 4.75314 13.7273 4.98625L14.1982 4.53184L14.669 4.07743C14.4812 3.88282 14.2997 3.67091 14.1247 3.44122L13.6042 3.83771ZM14.1982 4.53184L13.7273 4.98625L13.8 5.0615L14.2708 4.60709L14.7416 4.15268L14.669 4.07743L14.1982 4.53184ZM14.2708 4.60709L13.8 5.0615L13.8726 5.13675L14.3434 4.68234L14.8142 4.22792L14.7416 4.15268L14.2708 4.60709ZM14.3434 4.68234L13.8726 5.13675C14.0365 5.30659 14.173 5.49481 14.2832 5.70281L14.8614 5.3965L15.4396 5.09018C15.272 4.7737 15.0631 4.48581 14.8142 4.22792L14.3434 4.68234ZM14.8614 5.3965L14.2832 5.70281L14.3321 5.79509L14.9103 5.48877L15.4885 5.18245L15.4396 5.09018L14.8614 5.3965ZM14.9103 5.48877L14.3321 5.79509L14.381 5.88736L14.9592 5.58104L15.5374 5.27472L15.4885 5.18245L14.9103 5.48877ZM14.9592 5.58104L14.381 5.88736C14.5258 6.16069 14.6786 6.43023 14.8395 6.69596L15.3993 6.35705L15.959 6.01813C15.811 5.77367 15.6704 5.52587 15.5374 5.27472L14.9592 5.58104ZM15.3993 6.35705L14.8395 6.69596L14.8939 6.78572L15.4536 6.4468L16.0133 6.10789L15.959 6.01813L15.3993 6.35705ZM15.4536 6.4468L14.8939 6.78572L14.9482 6.87547L15.5079 6.53656L16.0677 6.19765L16.0133 6.10789L15.4536 6.4468ZM15.5079 6.53656L14.9482 6.87547C15.0712 7.07852 15.1638 7.29425 15.2266 7.52433L15.8578 7.35189L16.4891 7.17946C16.3943 6.83262 16.2537 6.5048 16.0677 6.19765L15.5079 6.53656ZM15.8578 7.35189L15.2266 7.52433L15.2543 7.62583L15.8856 7.45339L16.5168 7.28095L16.4891 7.17946L15.8578 7.35189ZM15.8856 7.45339L15.2543 7.62583L15.2821 7.72732L15.9133 7.55488L16.5445 7.38244L16.5168 7.28095L15.8856 7.45339ZM15.9133 7.55488L15.2821 7.72732C15.3551 7.99448 15.4147 8.26587 15.461 8.5416L16.1063 8.43333L16.7516 8.32506C16.6981 8.00644 16.6291 7.6922 16.5445 7.38244L15.9133 7.55488ZM16.1063 8.43333L15.461 8.5416L15.4785 8.64616L16.1238 8.53789L16.7692 8.42962L16.7516 8.32506L16.1063 8.43333ZM16.1238 8.53789L15.4785 8.64616L15.496 8.75073L16.1414 8.64245L16.7867 8.53418L16.7692 8.42962L16.1238 8.53789ZM16.1414 8.64245L15.496 8.75073C15.5202 8.89471 15.5348 8.99653 15.5418 9.06198C15.5454 9.09555 15.5459 9.10919 15.5459 9.10904C15.5459 9.10898 15.5456 9.09697 15.5471 9.07736C15.5479 9.06715 15.5494 9.05093 15.5529 9.03059C15.5561 9.0113 15.5625 8.97963 15.5753 8.94127L16.1959 9.14879L16.8165 9.35632C16.86 9.22611 16.8548 9.10292 16.8543 9.07982C16.8531 9.02738 16.8485 8.97267 16.843 8.92185C16.8319 8.81853 16.8124 8.68737 16.7867 8.53418L16.1414 8.64245ZM16.1959 9.14879L15.5753 8.94127L15.5706 8.95548L16.1911 9.163L16.8117 9.37053L16.8165 9.35632L16.1959 9.14879ZM16.1911 9.163L15.5706 8.95548L15.5658 8.96969L16.1864 9.17721L16.807 9.38474L16.8117 9.37053L16.1911 9.163ZM16.1864 9.17721L15.5658 8.96969C15.5273 9.08501 15.5268 9.19579 15.5263 9.21829C15.5252 9.26754 15.5268 9.32032 15.5294 9.37122C15.5346 9.47451 15.5459 9.60765 15.5618 9.76561L16.2128 9.69979L16.8639 9.63397C16.8487 9.48393 16.84 9.37598 16.8364 9.30507C16.8346 9.26888 16.8345 9.25128 16.8346 9.24689C16.8347 9.24465 16.8346 9.25313 16.833 9.26846C16.8321 9.27647 16.8305 9.28989 16.8272 9.30702C16.8242 9.32308 16.8183 9.35075 16.807 9.38474L16.1864 9.17721ZM16.2128 9.69979L15.5618 9.76561L15.5728 9.87397L16.2238 9.80816L16.8748 9.74234L16.8639 9.63397L16.2128 9.69979Z" fill="var(--stroke-0, #E8E8E8)"/>
<path id="Vector_2" d="M6.92834 7.69816H6.93604M11.5472 7.69816H11.5549" stroke="var(--stroke-0, #E8E8E8)" stroke-width="1.30869" stroke-linecap="round"/>
<path id="Vector_3" d="M11.4147 12.0691C11.7761 12.0691 12.0691 11.7761 12.0691 11.4147C12.0691 11.0534 11.7761 10.7604 11.4147 10.7604V11.4147V12.0691ZM11.3147 11.4147V10.7604H10.8354L10.6909 11.2174L11.3147 11.4147ZM11.2891 11.4958L11.913 11.6932L11.2891 11.4958ZM11.0154 11.9358L11.3414 12.5032L11.0154 11.9358ZM10.6079 12.1681L10.2866 11.5981L10.6079 12.1681ZM10.5689 12.1901L10.8902 12.7601L10.5689 12.1901ZM10.53 12.212L10.2087 11.642L10.53 12.212ZM10.1667 12.2942L10.2047 11.6409L10.1667 12.2942ZM10.0741 12.2888L10.0361 12.942V12.942L10.0741 12.2888ZM9.6946 12.2648L9.73928 11.612L9.6946 12.2648ZM9.65184 12.2619L9.60717 12.9147L9.65184 12.2619ZM9.60907 12.259L9.65374 11.6061L9.60907 12.259ZM9.24798 12.2746L9.14635 11.6282L9.24798 12.2746ZM9.20605 12.2812L9.30769 12.9276L9.20605 12.2812ZM9.16412 12.2878L9.06248 11.6414L9.16412 12.2878ZM8.38148 12.2008L8.89973 11.8013L8.38148 12.2008ZM8.35007 12.16L7.83182 12.5595L8.35007 12.16ZM8.31866 12.1193L8.8369 11.7198L8.31866 12.1193ZM7.52133 11.9056L6.96921 12.2568L7.52133 11.9056ZM7.49588 11.8656L8.048 11.5144L7.49588 11.8656ZM7.47043 11.8256L6.91831 12.1768L7.47043 11.8256ZM7.13006 11.3453L6.6673 10.8827L6.35066 11.1994L6.5313 11.6092L7.13006 11.3453ZM7.16066 11.4147V12.0691H8.16418L7.75941 11.1508L7.16066 11.4147ZM7.06066 10.7604C6.69927 10.7604 6.40631 11.0534 6.40631 11.4147C6.40631 11.7761 6.69927 12.0691 7.06066 12.0691V11.4147V10.7604ZM11.4147 11.4147V10.7604H11.3147V11.4147V12.0691H11.4147V11.4147ZM11.3147 11.4147L10.6909 11.2174L10.6652 11.2984L11.2891 11.4958L11.913 11.6932L11.9386 11.6121L11.3147 11.4147ZM11.2891 11.4958L10.6652 11.2984C10.6527 11.338 10.6411 11.3687 10.631 11.3918C10.6209 11.415 10.6136 11.4279 10.6104 11.433C10.6071 11.4382 10.6101 11.4322 10.6216 11.4203C10.6334 11.408 10.6554 11.388 10.6895 11.3684L11.0154 11.9358L11.3414 12.5032C11.6761 12.3109 11.8302 11.9548 11.913 11.6932L11.2891 11.4958ZM11.0154 11.9358L10.6895 11.3684L10.6509 11.3906L10.9769 11.9579L11.3028 12.5253L11.3414 12.5032L11.0154 11.9358ZM10.9769 11.9579L10.6509 11.3906L10.6124 11.4127L10.9383 11.9801L11.2643 12.5475L11.3028 12.5253L10.9769 11.9579ZM10.9383 11.9801L10.6124 11.4127C10.5044 11.4748 10.3958 11.5365 10.2866 11.5981L10.6079 12.1681L10.9292 12.7381C11.0415 12.6749 11.1531 12.6113 11.2643 12.5475L10.9383 11.9801ZM10.6079 12.1681L10.2866 11.5981L10.2476 11.62L10.5689 12.1901L10.8902 12.7601L10.9292 12.7381L10.6079 12.1681ZM10.5689 12.1901L10.2476 11.62L10.2087 11.642L10.53 12.212L10.8513 12.7821L10.8902 12.7601L10.5689 12.1901ZM10.53 12.212L10.2087 11.642C10.2077 11.6426 10.2077 11.6425 10.2087 11.6421C10.2096 11.6417 10.2107 11.6414 10.2118 11.6411C10.2146 11.6405 10.213 11.6414 10.2047 11.6409L10.1667 12.2942L10.1286 12.9474C10.3806 12.9621 10.6271 12.9084 10.8513 12.7821L10.53 12.212ZM10.1667 12.2942L10.2047 11.6409L10.1585 11.6382L10.1204 12.2915L10.0823 12.9447L10.1286 12.9474L10.1667 12.2942ZM10.1204 12.2915L10.1585 11.6382L10.1122 11.6355L10.0741 12.2888L10.0361 12.942L10.0823 12.9447L10.1204 12.2915ZM10.0741 12.2888L10.1122 11.6355C9.98275 11.628 9.85845 11.6201 9.73928 11.612L9.6946 12.2648L9.64993 12.9176C9.77385 12.9261 9.90258 12.9342 10.0361 12.942L10.0741 12.2888ZM9.6946 12.2648L9.73928 11.612L9.69651 11.6091L9.65184 12.2619L9.60717 12.9147L9.64993 12.9176L9.6946 12.2648ZM9.65184 12.2619L9.69651 11.6091L9.65374 11.6061L9.60907 12.259L9.5644 12.9118L9.60717 12.9147L9.65184 12.2619ZM9.60907 12.259L9.65374 11.6061C9.48383 11.5945 9.31438 11.6018 9.14635 11.6282L9.24798 12.2746L9.34962 12.921C9.41995 12.9099 9.49122 12.9068 9.5644 12.9118L9.60907 12.259ZM9.24798 12.2746L9.14635 11.6282L9.10441 11.6348L9.20605 12.2812L9.30769 12.9276L9.34962 12.921L9.24798 12.2746ZM9.20605 12.2812L9.10441 11.6348L9.06248 11.6414L9.16412 12.2878L9.26576 12.9342L9.30769 12.9276L9.20605 12.2812ZM9.16412 12.2878L9.06248 11.6414C8.95058 11.659 8.83446 11.6753 8.71407 11.6903L8.79502 12.3396L8.87597 12.9889C9.00936 12.9723 9.13931 12.9541 9.26576 12.9342L9.16412 12.2878ZM8.79502 12.3396L8.71407 11.6903L8.66942 11.6959L8.75037 12.3452L8.83132 12.9945L8.87597 12.9889L8.79502 12.3396ZM8.75037 12.3452L8.66942 11.6959L8.62478 11.7014L8.70573 12.3507L8.78668 13.0001L8.83132 12.9945L8.75037 12.3452ZM8.70573 12.3507L8.62478 11.7014C8.67341 11.6954 8.73899 11.7011 8.80422 11.7312C8.86522 11.7594 8.89448 11.7945 8.89973 11.8013L8.38148 12.2008L7.86324 12.6002C8.0697 12.8681 8.39307 13.0491 8.78668 13.0001L8.70573 12.3507ZM8.38148 12.2008L8.89973 11.8013L8.86832 11.7605L8.35007 12.16L7.83182 12.5595L7.86324 12.6002L8.38148 12.2008ZM8.35007 12.16L8.86832 11.7605L8.8369 11.7198L8.31866 12.1193L7.80041 12.5187L7.83182 12.5595L8.35007 12.16ZM8.31866 12.1193L8.8369 11.7198C8.72614 11.5761 8.57197 11.4498 8.37089 11.3821C8.17228 11.3152 7.97752 11.3221 7.81 11.3615L7.96001 11.9985L8.11001 12.6354C8.09232 12.6395 8.03225 12.6489 7.95319 12.6223C7.87166 12.5949 7.8219 12.5466 7.80041 12.5187L8.31866 12.1193ZM7.96001 11.9985L7.81 11.3615L7.75728 11.374L7.90729 12.0109L8.0573 12.6478L8.11001 12.6354L7.96001 11.9985ZM7.90729 12.0109L7.75728 11.374L7.70457 11.3864L7.85457 12.0233L8.00458 12.6602L8.0573 12.6478L7.90729 12.0109ZM7.85457 12.0233L7.70457 11.3864C7.71487 11.3839 7.7829 11.3702 7.87673 11.4033C7.97873 11.4393 8.04294 11.5065 8.07345 11.5544L7.52133 11.9056L6.96921 12.2568C7.07206 12.4185 7.22798 12.5621 7.44105 12.6374C7.64596 12.7097 7.84446 12.6979 8.00458 12.6602L7.85457 12.0233ZM7.52133 11.9056L8.07345 11.5544L8.048 11.5144L7.49588 11.8656L6.94376 12.2168L6.96921 12.2568L7.52133 11.9056ZM7.49588 11.8656L8.048 11.5144L8.02254 11.4744L7.47043 11.8256L6.91831 12.1768L6.94376 12.2168L7.49588 11.8656ZM7.47043 11.8256L8.02254 11.4744C7.96535 11.3845 7.92501 11.3078 7.89757 11.2437L7.29612 11.5015L6.69468 11.7592C6.75497 11.8999 6.83083 12.0393 6.91831 12.1768L7.47043 11.8256ZM7.29612 11.5015L7.89757 11.2437L7.88214 11.2077L7.28069 11.4655L6.67924 11.7232L6.69468 11.7592L7.29612 11.5015ZM7.28069 11.4655L7.88214 11.2077L7.8667 11.1717L7.26526 11.4294L6.66381 11.6872L6.67924 11.7232L7.28069 11.4655ZM7.26526 11.4294L7.8667 11.1717C7.84029 11.1101 7.76701 10.9421 7.60986 10.8168C7.51509 10.7412 7.34923 10.65 7.12976 10.6641C6.91265 10.6782 6.76217 10.7878 6.68048 10.8695L7.14324 11.3321L7.606 11.7948C7.54306 11.8577 7.41171 11.9573 7.21413 11.9701C7.0142 11.983 6.86828 11.8993 6.79384 11.8399C6.72427 11.7844 6.68873 11.7296 6.6786 11.7134C6.66564 11.6928 6.66135 11.6814 6.66381 11.6872L7.26526 11.4294ZM7.14324 11.3321L6.68048 10.8695L6.6673 10.8827L7.13006 11.3453L7.59282 11.8079L7.606 11.7948L7.14324 11.3321ZM7.13006 11.3453L6.5313 11.6092L6.5619 11.6787L7.16066 11.4147L7.75941 11.1508L7.72881 11.0814L7.13006 11.3453ZM7.16066 11.4147V10.7604H7.06066V11.4147V12.0691H7.16066V11.4147Z" fill="var(--stroke-0, #E8E8E8)"/>
</g>
</svg>
