<svg preserveAspectRatio="none" width="100%" height="100%" overflow="visible" style="display: block;" viewBox="0 0 59 40.8166" fill="none" xmlns="http://www.w3.org/2000/svg">
<g id="&#236;&#149;&#177; &#235;&#161;&#156;&#234;&#179;&#160;">
<rect width="59" height="34" rx="14.025" fill="var(--fill-0, #272727)"/>
<path id="Subtract" d="M30.6878 16.0166C30.7318 16.1057 30.7979 16.186 30.889 16.2451L30.9027 16.2549L30.93 16.2724L30.9593 16.2871C31.172 16.3941 31.3305 16.4859 31.4417 16.5615C31.5465 16.6328 31.5822 16.6716 31.5863 16.6758C31.7085 16.8485 31.8397 17.0117 31.9798 17.165C32.1186 17.317 32.2785 17.4739 32.4574 17.6347C32.691 17.8449 32.9638 17.9959 33.2699 18.082C33.3944 18.1171 33.5157 18.1805 33.6351 18.2832C33.867 18.4827 34.1265 18.6368 34.4134 18.7363C34.7016 18.8362 35.0018 18.8477 35.2982 18.7969C35.3011 18.8056 35.3031 18.8148 35.306 18.8232C35.3206 18.8655 35.349 18.9436 35.3929 19.0156C35.4021 19.0307 35.4753 19.1595 35.6322 19.2422C35.6985 19.2771 35.7913 19.3059 35.8997 19.3096C35.7705 19.49 35.6064 19.6394 35.4115 19.7549C35.319 19.8097 35.2701 19.8712 35.2415 19.9394C35.1639 20.1256 35.0777 20.307 34.9837 20.4824C34.9566 20.5332 34.9354 20.6019 34.93 20.6972V20.915C34.9225 21.0274 34.893 21.14 34.8382 21.2451C35.0365 21.2827 35.1888 21.3952 35.3001 21.5127C35.4526 21.4048 35.6566 21.3126 35.8939 21.3359C36.1665 21.363 36.3585 21.5291 36.4798 21.6982C36.5828 21.8417 36.6548 21.8706 36.68 21.8769C36.8019 21.907 37.0294 21.9339 37.387 21.9463L37.4154 21.9472L37.4427 21.9512L37.4564 21.9541C37.6053 21.9771 37.7267 22.0668 37.7972 22.1875C37.8125 22.1861 37.8318 22.1856 37.8538 22.1816C38.0955 22.1379 38.3281 22.1185 38.5462 22.1318C38.8807 22.1524 39.1512 22.3295 39.3577 22.5625C39.419 22.6315 39.4675 22.6462 39.5296 22.6445C39.725 22.639 39.9347 22.6882 40.1107 22.833C40.2815 22.9738 40.3706 23.1636 40.4144 23.3437C40.4294 23.4055 40.4471 23.433 40.4544 23.4424C40.4593 23.4485 40.4633 23.4528 40.474 23.457C40.7531 23.5668 40.9758 23.7572 41.1234 24.0195C41.2002 24.1562 41.2865 24.2785 41.3812 24.3867C41.4503 24.4656 41.5465 24.5396 41.68 24.6035C41.9354 24.7258 42.1485 24.9041 42.3079 25.1367C42.4986 25.4151 42.5478 25.735 42.4759 26.0566C42.4488 26.1782 42.4586 26.2695 42.4876 26.3447C42.6007 26.6378 42.5923 26.941 42.4788 27.2295C42.4674 27.2586 42.4605 27.2843 42.5013 27.3506C42.6349 27.5672 42.7367 27.7922 42.8001 28.0254C42.9084 28.4242 42.7438 28.7738 42.4935 29.0312C42.4749 29.0504 42.4634 29.0659 42.4564 29.0762C42.5523 29.3099 42.6024 29.5533 42.599 29.8017C42.5959 30.0236 42.566 30.2428 42.5101 30.458C42.4412 30.7225 42.2977 30.9482 42.099 31.1308C42.1042 31.1502 42.1126 31.1766 42.1273 31.2099C42.2016 31.3785 42.2968 31.6894 42.1077 31.9736C41.9237 32.2496 41.6077 32.2909 41.4251 32.2949C41.3112 32.2974 41.2474 32.3139 41.2191 32.3252L41.2161 32.3262C41.0989 32.5088 40.9582 32.6715 40.7943 32.8105C40.7911 32.8141 40.7498 32.8639 40.7376 33.0439C40.714 33.3937 40.5929 33.7389 40.2943 33.9697C40.0203 34.1811 39.6939 34.2414 39.3646 34.1904C39.2362 34.1706 39.1695 34.1946 39.1283 34.2207C38.9644 34.3249 38.7965 34.4263 38.6263 34.5244C38.4507 34.6256 38.2703 34.7207 38.0863 34.8076C37.8135 34.9363 37.5204 34.9649 37.2269 34.9033C37.033 34.8626 36.8428 34.8248 36.6576 34.79C36.4369 34.7485 36.2186 34.6838 36.0042 34.5986C35.8759 34.5476 35.7644 34.5322 35.6663 34.539C35.5801 34.5452 35.4772 34.5762 35.3558 34.6533C35.1167 34.8051 34.853 34.8968 34.5716 34.9043C34.3117 34.911 34.0583 34.8554 33.8177 34.748C33.6931 34.6925 33.582 34.6706 33.4818 34.6719C33.3783 34.6733 33.2567 34.6988 33.1146 34.7607C32.8537 34.8744 32.577 34.9216 32.2962 34.8828C32.0539 34.8491 31.823 34.7709 31.6068 34.6513C31.4351 34.5564 31.2636 34.458 31.0941 34.3564C30.9591 34.2755 30.8215 34.2126 30.6829 34.1679C30.5478 34.1245 30.4044 34.0981 30.2533 34.0888C30.1797 34.0845 30.0806 34.1024 29.9476 34.1826C29.7741 34.2872 29.5557 34.3531 29.3177 34.3027C29.0996 34.2564 28.934 34.1267 28.8138 33.9853C28.5119 34.1448 28.1549 34.1934 27.8177 33.999C27.7267 33.9465 27.6323 33.9211 27.5267 33.9209C27.3235 33.9205 27.1148 33.857 26.9095 33.7607C26.8322 33.832 26.745 33.8941 26.6497 33.9443C26.7501 34.2653 26.7848 34.6321 26.6029 34.9531C26.5104 35.1161 26.4127 35.2766 26.3099 35.4336C26.2201 35.5707 26.1348 35.7131 26.055 35.8603C25.9261 36.0981 25.7371 36.2923 25.5081 36.4463C25.3884 36.5268 25.2854 36.6098 25.1966 36.6914C25.2134 36.7281 25.2265 36.7667 25.2337 36.8066L25.2425 36.8554C25.2889 37.1144 25.1305 37.2842 25.0443 37.3486C25.0265 37.3618 25.007 37.3727 24.9896 37.3828C24.9737 37.4535 24.9555 37.522 24.932 37.5849C24.9033 37.6613 24.8455 37.7967 24.7259 37.8994C24.657 37.9584 24.5543 38.0172 24.4222 38.0303C24.3197 38.0403 24.2284 38.0197 24.1546 37.9883L23.9554 38.1279L23.9427 38.0713C23.8368 38.0928 23.7383 38.0853 23.6595 38.0693L23.6517 38.1054C23.638 38.1672 23.6218 38.228 23.6038 38.2871L23.5628 38.4209C23.5115 38.5895 23.3732 38.7767 23.1283 38.8379C23.0706 38.8522 23.0155 38.8574 22.9652 38.8564C22.9047 38.9141 22.8262 38.9641 22.7249 38.9941C22.6825 39.0066 22.6401 39.0134 22.6009 39.0166C22.5908 39.0486 22.5812 39.0813 22.5716 39.1142L22.5326 39.248C22.495 39.377 22.4039 39.536 22.222 39.6308C22.0938 39.6974 21.9686 39.7068 21.8743 39.6992C21.7873 39.8456 21.6466 39.9603 21.4652 40.0088L21.4076 40.0244L21.3831 40.0312C21.3311 40.1605 21.227 40.3009 21.0286 40.3701C20.9905 40.3834 20.9523 40.3922 20.9163 40.3974C20.8 40.5626 20.6265 40.6347 20.473 40.6494C20.4581 40.6575 20.4447 40.6684 20.43 40.6748C20.4263 40.6763 20.422 40.6772 20.4183 40.6787L20.3949 40.6972L20.3802 40.708C20.1466 40.8816 19.8221 40.842 19.6341 40.626C19.5335 40.5581 19.4562 40.4596 19.4173 40.3437C19.3286 40.3089 19.1831 40.2273 19.098 40.0508C19.008 39.864 19.0415 39.6893 19.0765 39.5928C19.1053 39.5134 19.1466 39.452 19.1771 39.4121C19.148 39.2906 19.1521 39.1586 19.1995 39.0293L19.2396 38.9219C19.2496 38.8947 19.2584 38.8683 19.266 38.8437L19.2816 38.791L19.2982 38.7392L19.3138 38.6943C19.3269 38.6595 19.3425 38.6262 19.3597 38.5947C19.3322 38.4956 19.3228 38.3716 19.3646 38.2441C19.3069 38.1628 19.2183 38.0005 19.2523 37.7871L19.2601 37.7383L19.2679 37.6885L19.2757 37.6474C19.3219 37.4467 19.4564 37.3287 19.5306 37.2763C19.584 37.2387 19.6397 37.2119 19.6888 37.1914C19.693 37.1771 19.6981 37.1626 19.7035 37.1484C19.7359 37.0621 19.7829 36.9931 19.8304 36.9404C19.8197 36.9157 19.8082 36.8906 19.7962 36.8652L19.7406 36.748C19.6786 36.617 19.6532 36.445 19.7161 36.2685C19.7347 36.2167 19.7592 36.1714 19.7855 36.1318C19.7675 36.0419 19.7671 35.9428 19.7952 35.8408C19.6542 35.5357 19.8059 35.2567 19.891 35.1416L19.9105 35.1152C19.9809 34.9732 20.1102 34.8695 20.262 34.8281C20.3371 34.6448 20.4603 34.4857 20.6224 34.3564C20.6955 34.2981 20.7294 34.2384 20.7435 34.165C20.779 33.9789 20.8692 33.808 20.9896 33.6523C20.9126 33.5841 20.834 33.5392 20.7523 33.5127C20.5678 33.4528 20.3994 33.3395 20.2826 33.1631C20.1786 33.006 20.1371 32.8301 20.1283 32.6631C20.1213 32.6614 20.1128 32.6598 20.1038 32.6582C19.9148 32.6239 19.7161 32.5525 19.555 32.4092C19.3832 32.256 19.291 32.0537 19.2708 31.8379C19.2405 31.5114 19.3246 31.2034 19.5003 30.9277C19.5212 30.895 19.5218 30.8795 19.5218 30.8779C19.5219 30.8755 19.5217 30.8572 19.5003 30.8183C19.3403 30.5269 19.2751 30.2025 19.3617 29.8711C19.4262 29.6243 19.5337 29.3963 19.682 29.1904C19.8026 29.023 19.9842 28.8525 20.2044 28.6806C20.1347 28.514 20.0888 28.3401 20.0745 28.1592C20.0589 27.9606 20.0493 27.7571 20.0452 27.5498C20.0388 27.2149 20.1662 26.9177 20.3831 26.6719C20.5243 26.5119 20.6435 26.3647 20.7406 26.2314C20.8869 26.0307 21.1262 25.8286 21.4124 25.626C21.5219 25.5119 21.6848 25.4551 21.849 25.4863C21.8409 25.4477 21.8333 25.4085 21.8304 25.3681C21.8138 25.1359 21.8937 24.923 22.0452 24.7568L22.0794 24.7197C22.2541 24.5384 22.4657 24.3931 22.7035 24.2793C22.7087 24.2767 22.7134 24.2736 22.7171 24.2715C22.6918 23.903 22.8341 23.5687 23.1546 23.3535C23.2946 23.2595 23.4008 23.1675 23.4788 23.081C23.5873 22.9608 23.6966 22.8393 23.805 22.7168C23.9765 22.5232 24.1926 22.3892 24.4417 22.3203C24.4972 22.3049 24.598 22.2543 24.7415 22.1162L24.7826 22.0791C24.9888 21.9041 25.2452 21.8525 25.4974 21.9033C25.6205 21.9282 25.7388 21.9777 25.8519 22.04C25.9417 22.0106 26.0403 22.0081 26.1331 22.0342C26.4478 22.0729 26.799 22.1782 27.0111 22.459C27.1036 22.4176 27.2012 22.3865 27.2982 22.3662C27.5073 22.3224 27.6077 22.2588 27.6517 22.2148C27.6524 22.2141 27.6533 22.2132 27.6536 22.2129V22.2119C27.654 22.211 27.6549 22.2087 27.6556 22.206C27.6586 22.1931 27.6642 22.1555 27.6507 22.084C27.5925 21.7757 27.6045 21.4602 27.7425 21.1758C27.859 20.9359 28.0313 20.7359 28.2474 20.5762C28.3892 20.4714 28.5196 20.3606 28.638 20.2451C28.7477 20.138 28.8418 20.0224 28.9202 19.9004C29.0359 19.7204 29.1688 19.5512 29.3187 19.3945C29.4106 19.2985 29.4829 19.193 29.5355 19.0762C29.599 18.9348 29.6514 18.784 29.6917 18.625C29.7214 18.508 29.7312 18.3608 29.7093 18.1767C29.6694 17.8415 29.7402 17.5028 29.9915 17.2392C30.1228 17.1016 30.2563 16.9642 30.391 16.8291C30.4329 16.7868 30.4641 16.7304 30.471 16.6289C30.4864 16.4018 30.5592 16.1937 30.6878 16.0166ZM20.7874 38.3135C20.7784 38.4852 20.6946 38.6328 20.5794 38.7285C20.5643 38.741 20.5487 38.7524 20.5335 38.7627C20.5132 38.8914 20.4541 39.0062 20.3704 39.0957L20.3343 39.1347L20.3236 39.1689C20.3198 39.1812 20.3158 39.1938 20.3118 39.206C20.3127 39.2079 20.313 39.2101 20.3138 39.2119C20.3876 39.1877 20.4569 39.1807 20.513 39.1816C20.6237 39.0651 20.7647 39.0072 20.8958 38.9922L20.9603 38.9853L20.9632 38.9844C21.0377 38.8036 21.1685 38.5472 21.1243 38.5273C21.0066 38.4742 20.894 38.3984 20.7874 38.3135ZM21.4954 35.2578C21.3758 35.2758 21.2912 35.3059 21.2337 35.3379C21.2276 35.3457 21.2144 35.3649 21.1976 35.4023C21.1795 35.4428 21.1604 35.4969 21.1429 35.5654C21.1467 35.6031 21.1491 35.6402 21.1556 35.6758C21.1661 35.7335 21.174 35.7977 21.1751 35.8623C21.1761 35.9183 21.1739 36.0208 21.1283 36.1279C21.1022 36.1889 21.0575 36.2514 20.9984 36.3066C20.996 36.3294 20.9958 36.3532 20.9906 36.3769C20.9704 36.468 20.9327 36.5428 20.89 36.6025L20.9076 36.6455C20.9327 36.7049 20.9534 36.7684 20.9671 36.8349L20.9788 36.9023L20.9857 36.958L20.9935 37.0146C21.0171 37.1939 20.9645 37.3386 20.8929 37.4482C21.0186 37.4075 21.1605 37.4174 21.2835 37.4892L21.2952 37.4961L21.3294 37.5166L21.3597 37.542C21.4261 37.5972 21.4741 37.6278 21.5033 37.6435C21.6279 37.6229 21.7526 37.6121 21.8763 37.6123L21.9251 37.6133C22.028 37.6202 22.18 37.6538 22.306 37.7724C22.3472 37.7407 22.3952 37.7118 22.4515 37.6894C22.5106 37.6661 22.568 37.6541 22.6214 37.6494C22.6522 37.5493 22.7061 37.4382 22.7992 37.3408L22.8382 37.2998L22.8783 37.2588C22.8964 37.2398 22.9141 37.2193 22.932 37.1982L23.0316 37.082C23.1799 36.924 23.3567 36.8848 23.5023 36.8887C23.4472 36.8094 23.396 36.7266 23.3499 36.6396C23.3195 36.5821 23.2926 36.5221 23.2689 36.4609C23.1317 36.5093 22.9877 36.5251 22.846 36.5156C22.7269 36.5076 22.6185 36.4965 22.5277 36.4814C22.4547 36.4693 22.3307 36.4453 22.223 36.3838C22.1214 36.3256 21.978 36.2082 21.8275 36.0791C21.6746 35.9477 21.566 35.7769 21.5189 35.5752C21.4941 35.4689 21.4878 35.3618 21.4954 35.2578ZM34.6849 22.2637C34.6135 22.3159 34.5356 22.3639 34.4535 22.3984C34.3513 22.4412 34.202 22.4786 34.0394 22.4443C34.0261 22.538 33.9994 22.6318 33.9554 22.7226C33.8659 22.907 33.722 23.0425 33.556 23.1338C33.4819 23.1746 33.4626 23.2118 33.4525 23.2558C33.407 23.4545 33.3384 23.6434 33.2503 23.8222C33.295 23.7922 33.3411 23.762 33.389 23.7363C33.7272 23.5553 34.0858 23.591 34.4007 23.7578C34.4143 23.765 34.4241 23.7681 34.429 23.7695C34.4341 23.7672 34.4451 23.7616 34.4603 23.75C34.7396 23.5361 35.0844 23.4354 35.4486 23.5527C35.5677 23.5911 35.6905 23.6042 35.8187 23.5918L35.8607 23.5879C36.0714 23.5778 36.2708 23.6468 36.4329 23.7871C36.591 23.924 36.689 24.107 36.7533 24.2842C36.7906 24.3871 36.8256 24.443 36.847 24.4697C36.8499 24.4733 36.8529 24.4764 36.8548 24.4785C37.006 24.5258 37.2555 24.5956 37.6087 24.6875L37.6156 24.6894C37.8731 24.7528 38.0313 25.0129 37.9681 25.2705C37.9048 25.5279 37.6445 25.6849 37.387 25.6221L37.3734 25.6191L37.3704 25.6181L37.3665 25.6172C36.9986 25.5214 36.7225 25.4453 36.5472 25.3896C36.1684 25.2691 35.9646 24.9272 35.8499 24.6113C35.8416 24.5883 35.8336 24.5695 35.8265 24.5547C35.5982 24.5668 35.3722 24.5372 35.1536 24.4668C35.1423 24.4632 35.1368 24.4636 35.1312 24.4648C35.1212 24.4672 35.0926 24.4774 35.0452 24.5137C34.8956 24.6282 34.7163 24.7106 34.513 24.7285C34.3091 24.7462 34.1179 24.6951 33.9505 24.6064C33.9006 24.58 33.8731 24.5775 33.8656 24.5771C33.8622 24.577 33.8595 24.5768 33.8577 24.5771C33.8556 24.5777 33.8507 24.5799 33.8431 24.584C33.7461 24.6361 33.6515 24.718 33.5638 24.8437C33.3481 25.1528 33.0224 25.3235 32.6341 25.2929C32.5957 25.29 32.5786 25.2962 32.5745 25.2978C32.5719 25.2988 32.5618 25.3025 32.5462 25.3213C32.3309 25.5814 32.037 25.7193 31.7054 25.7363C31.6243 25.7405 31.5594 25.7568 31.5062 25.7803L31.4993 25.791C31.4417 25.8717 31.363 25.9285 31.2767 25.9609C31.2383 26.0036 31.2019 26.0521 31.1673 26.1054C30.9611 26.4238 30.6371 26.5579 30.2933 26.5566C30.2361 26.8153 30.1375 27.0551 29.9837 27.2578C29.8257 27.4659 29.6247 27.6295 29.39 27.748C29.2774 27.8049 29.1885 27.879 29.1175 27.9687C28.8645 28.2884 28.4862 28.365 28.1351 28.332C28.0753 28.3264 28.0409 28.3307 28.0257 28.334C27.9172 28.4944 27.8052 28.6522 27.6898 28.8056C27.6249 28.8919 27.5678 29.0111 27.5306 29.1767C27.4715 29.4399 27.3628 29.7092 27.1527 29.8994C27.0283 30.0119 26.8627 30.1401 26.6644 30.2812C26.6263 30.3084 26.598 30.3353 26.5765 30.3594C26.5612 30.4439 26.5346 30.5272 26.4954 30.6074C26.4859 30.7063 26.4857 30.8096 26.4974 30.917C26.5077 30.921 26.5232 30.9258 26.5433 30.9306C26.8896 31.0143 27.1755 31.2109 27.348 31.5254C27.5573 31.4654 27.7616 31.4261 27.9574 31.4111C28.2527 31.3888 28.5303 31.4724 28.7786 31.626C28.8439 31.6662 28.8678 31.658 28.891 31.6494C29.1419 31.5558 29.404 31.5259 29.6693 31.5615C29.8082 31.5802 29.9465 31.5776 30.0833 31.5547C30.1522 31.543 30.2111 31.5126 30.2708 31.4443C30.4106 31.284 30.5557 31.1343 30.7044 30.9971C30.8439 30.8683 30.986 30.7417 31.1302 30.6181C31.3758 30.4079 31.6775 30.323 31.9906 30.3281C32.1497 30.3307 32.3081 30.3139 32.4652 30.2773C32.4582 29.9789 32.5122 29.6867 32.6654 29.4346C32.7476 29.2992 32.8213 29.1563 32.8851 29.0068C32.9628 28.8248 33.0477 28.6455 33.14 28.4697C33.2588 28.2434 33.4222 28.0496 33.6243 27.8906C33.7214 27.8143 33.8234 27.7441 33.929 27.6816L34.0941 27.4599L34.1019 27.4482C34.2597 27.2352 34.5605 27.1902 34.7738 27.3476C34.7799 27.3522 34.7864 27.3575 34.7923 27.3623L34.8167 27.374L34.8411 27.3896C34.9197 27.4401 35.0727 27.5695 35.0863 27.7998C35.0985 28.0099 34.9831 28.1497 34.9339 28.2012C34.8685 28.2694 34.7846 28.3186 34.7113 28.3574C34.7405 28.376 34.7708 28.3943 34.7982 28.415L35.891 28.6777C36.0471 28.7272 36.1605 28.8496 36.2054 28.9951L36.2093 29.0029L36.221 29.0332C36.2332 29.0652 36.3391 29.3474 36.1058 29.5732C36.0024 29.6729 35.8847 29.701 35.8187 29.709C35.7522 29.7169 35.6963 29.7104 35.6644 29.7051C35.6031 29.6947 35.5421 29.6731 35.4906 29.6513C35.4707 29.6628 35.3924 29.5882 35.3636 29.6113C35.2163 29.6114 35.2107 29.6373 34.8734 29.4902C34.7107 29.4193 34.6344 29.4541 34.5091 29.3818C34.4557 29.2798 34.2779 29.3454 34.2611 29.249C34.2564 29.2222 34.248 29.2062 34.224 29.1855C34.1912 29.1575 34.1177 29.1134 33.972 29.0781L33.9564 29.0742L33.9398 29.0693L33.9271 29.0654C33.9242 29.0644 33.9211 29.0625 33.9183 29.0615C33.8658 29.1678 33.8153 29.2751 33.7689 29.3838C33.6875 29.5746 33.5931 29.7584 33.4867 29.9336C33.4545 29.9866 33.4203 30.0865 33.4261 30.2666C33.4323 30.4567 33.3964 30.6666 33.2689 30.8506C33.1379 31.0392 32.9491 31.1461 32.7562 31.1963C32.4998 31.2628 32.2384 31.2934 31.9749 31.289C31.8489 31.287 31.7893 31.3195 31.7552 31.3486C31.6201 31.4643 31.4864 31.5825 31.3558 31.7031C31.2343 31.8153 31.1139 31.9403 30.9954 32.0762C30.7973 32.3032 30.5421 32.4524 30.2425 32.5029C30.0102 32.5419 29.7752 32.5451 29.5413 32.5137C29.4339 32.4992 29.3309 32.511 29.2269 32.5498C28.8949 32.6736 28.5619 32.6221 28.2728 32.4433C28.1666 32.3778 28.0887 32.3647 28.0296 32.3691C28 32.3714 27.9689 32.3775 27.9368 32.3818C27.8917 32.5957 27.8096 32.8056 27.6615 32.9678C27.8842 32.9869 28.0966 33.0515 28.2933 33.164C28.3042 33.162 28.3331 33.1543 28.3792 33.1279C28.5549 33.0274 28.7724 32.9643 29.0081 33.0127C29.2244 33.0573 29.3908 33.1827 29.513 33.3242C29.7597 33.1878 30.0291 33.1117 30.3118 33.1289C30.5405 33.1429 30.7634 33.1848 30.9779 33.2539C31.1892 33.322 31.3934 33.4155 31.5882 33.5322C31.7483 33.6281 31.9098 33.721 32.0716 33.8105C32.1886 33.8752 32.307 33.9148 32.4281 33.9316C32.5111 33.9431 32.6099 33.9325 32.7308 33.8799C32.9702 33.7756 33.2177 33.7143 33.4691 33.7109C33.7239 33.7076 33.9732 33.7652 34.2103 33.8711C34.3312 33.9249 34.4421 33.946 34.5462 33.9433C34.6289 33.9411 34.7261 33.9148 34.8411 33.8418C35.0739 33.694 35.3282 33.5992 35.599 33.5801C35.8579 33.5619 36.1131 33.6085 36.3587 33.706C36.5183 33.7694 36.6772 33.8151 36.8343 33.8447C37.0267 33.8809 37.2239 33.9208 37.4242 33.9629C37.5248 33.984 37.6032 33.9723 37.6751 33.9385C37.8356 33.8627 37.9931 33.7804 38.1458 33.6924C38.304 33.6012 38.4599 33.5067 38.6117 33.4101C38.8863 33.2354 39.1994 33.1928 39.512 33.2412C39.6237 33.2584 39.6733 33.2344 39.7064 33.209C39.7153 33.2021 39.7664 33.1609 39.7786 32.9795C39.8006 32.6532 39.8984 32.3099 40.1722 32.0781C40.2644 32 40.3451 31.9063 40.4144 31.7959L40.4359 31.7627C40.6134 31.5056 40.8907 31.3952 41.1634 31.3545C41.1361 31.244 41.1242 31.1275 41.1351 31.0088C41.156 30.7824 41.2602 30.5846 41.431 30.4385L41.4622 30.4101C41.5293 30.3447 41.5637 30.2806 41.5804 30.2168C41.6171 30.0757 41.636 29.9327 41.638 29.7881C41.6395 29.6773 41.6174 29.5587 41.5628 29.4297C41.4852 29.2462 41.465 29.0455 41.5179 28.8447C41.5689 28.652 41.6786 28.4914 41.805 28.3613C41.8507 28.3143 41.8658 28.2835 41.8704 28.2724C41.8339 28.1402 41.774 28.0005 41.6839 27.8545C41.5001 27.5563 41.4525 27.2156 41.5853 26.8779C41.6161 26.7995 41.6123 26.7452 41.5911 26.6904C41.486 26.4178 41.4748 26.1312 41.5384 25.8467C41.5573 25.7622 41.5429 25.7191 41.516 25.6797C41.4576 25.5945 41.3774 25.5246 41.265 25.4707C41.0305 25.3584 40.8238 25.2094 40.6576 25.0195C40.5171 24.859 40.393 24.6824 40.2855 24.4912C40.2487 24.4257 40.2 24.3821 40.1224 24.3515C39.7776 24.216 39.5777 23.9324 39.4896 23.6054C39.1538 23.5967 38.862 23.4516 38.639 23.2002C38.548 23.0975 38.4972 23.0924 38.4876 23.0918C38.3632 23.0842 38.2095 23.0935 38.0247 23.1269C37.758 23.1751 37.4015 23.1734 37.14 22.9131L37.1322 22.9053L37.1224 22.8945C36.8536 22.8787 36.6247 22.8537 36.4495 22.8105C36.1708 22.7416 35.9485 22.5688 35.7738 22.3554C35.6221 22.4565 35.4304 22.5348 35.2103 22.5176C34.9896 22.5001 34.8147 22.393 34.6849 22.2637ZM20.3597 29.9248C20.3318 29.9845 20.3087 30.0477 20.2913 30.1142C20.2783 30.1642 20.277 30.2366 20.3421 30.3554C20.4322 30.5196 20.4879 30.7048 20.4827 30.9033C20.4774 31.1025 20.4122 31.2853 20.3109 31.4443C20.2517 31.5371 20.228 31.6202 20.2269 31.7012C20.2394 31.7047 20.2554 31.7093 20.2747 31.7129C20.4713 31.7486 20.6803 31.8272 20.8421 31.9922C21.0123 32.1659 21.0829 32.3855 21.0872 32.6015C21.0873 32.605 21.0881 32.6083 21.0882 32.6113C21.3487 32.7034 21.5744 32.8597 21.764 33.0664C21.7793 33.0831 21.7905 33.0919 21.7962 33.0957C21.799 33.0953 21.8042 33.0942 21.8099 33.0928C21.9594 33.0545 22.0855 32.9979 22.1917 32.9277C22.3645 32.8135 22.5363 32.7175 22.7054 32.6426C22.7568 32.6197 22.8115 32.5779 22.8685 32.5019C22.7215 32.4464 22.5739 32.401 22.4261 32.3681C22.123 32.3008 21.8747 32.1308 21.6956 31.8808C21.5647 31.698 21.455 31.5089 21.3704 31.3144C21.2919 31.1337 21.2346 30.9446 21.1966 30.749C21.1913 30.7461 21.1848 30.7419 21.1771 30.7383C21.1517 30.7264 21.1145 30.7136 21.0658 30.7002C20.8769 30.6484 20.6632 30.5514 20.516 30.3594C20.412 30.2235 20.3661 30.0724 20.3597 29.9248ZM22.0286 26.3672C21.7267 26.5756 21.5743 26.7183 21.5169 26.7969C21.3987 26.9592 21.2606 27.1301 21.1038 27.3076C21.0231 27.3992 21.005 27.4696 21.0062 27.5312C21.0099 27.7207 21.0185 27.9051 21.0326 28.084C21.0411 28.1918 21.0764 28.306 21.1497 28.4297C21.2868 28.6606 21.3762 28.9093 21.3929 29.1709C21.4052 29.3648 21.3859 29.5697 21.3441 29.7803C21.6663 29.8734 22.031 30.0738 22.1253 30.4912L22.1341 30.5332L22.1439 30.5859C22.1688 30.7071 22.205 30.8219 22.2523 30.9306C22.3069 31.0563 22.3809 31.1872 22.4769 31.3213C22.5244 31.3876 22.5729 31.416 22.6341 31.4297C22.841 31.4756 23.0463 31.538 23.2474 31.6162C23.273 31.6261 23.2989 31.6325 23.3245 31.6367C23.3954 31.607 23.4839 31.5879 23.5843 31.6035C23.8009 31.5557 24.0274 31.5545 24.2562 31.5908C24.2542 31.5102 24.2397 31.4361 24.2152 31.3672C24.1668 31.2315 24.1272 31.0584 24.1595 30.8769C24.1762 30.7836 24.2111 30.6976 24.2601 30.6221L24.2572 30.6211C24.0237 30.5656 23.8079 30.4631 23.6146 30.3183C23.5524 30.2719 23.4482 30.2242 23.2757 30.1992C23.0618 30.1682 22.8343 30.0646 22.6917 29.8359C22.5607 29.6254 22.5531 29.3883 22.5785 29.1953C22.5789 29.1914 22.579 29.1871 22.5794 29.1836C22.4288 29.1285 22.2769 29.0377 22.1634 28.8887C22.0286 28.7115 21.9878 28.5058 22.0003 28.3144C22.0047 28.2476 21.9892 28.1985 21.9359 28.1406C21.8117 28.0061 21.7155 27.8339 21.6917 27.6279C21.6682 27.423 21.7225 27.2338 21.8089 27.0752C21.8928 26.9212 21.9421 26.7869 21.9661 26.6719C21.9884 26.5654 22.0155 26.4591 22.0472 26.3535L22.0286 26.3672ZM25.3509 22.8613C25.1565 23.0376 24.9388 23.1793 24.6976 23.2461C24.6265 23.2658 24.5722 23.3009 24.5247 23.3545C24.4143 23.4792 24.3032 23.6031 24.1927 23.7256C24.0517 23.8818 23.8815 24.0237 23.6898 24.1523C23.6834 24.1567 23.679 24.1603 23.6771 24.1621C23.6758 24.1682 23.6743 24.1824 23.6761 24.207C23.69 24.3963 23.6554 24.5926 23.5472 24.7705C23.4403 24.946 23.2839 25.0668 23.1175 25.1465C22.9926 25.2063 22.8933 25.274 22.8148 25.3457C22.8208 25.3558 22.8285 25.3672 22.8372 25.3799C23.0354 25.6685 23.1805 26.043 23.0355 26.4287C22.9798 26.5768 22.9368 26.7234 22.9066 26.8681C22.8612 27.0855 22.7776 27.3008 22.6644 27.5127C22.8595 27.7349 22.9623 28.0033 22.9613 28.2978C23.1548 28.3646 23.3317 28.4932 23.4398 28.6982C23.5381 28.885 23.5538 29.0876 23.5365 29.2695C23.7757 29.3179 23.9998 29.4059 24.1908 29.5488C24.283 29.6179 24.3787 29.6627 24.4788 29.6865C24.7761 29.7572 25.0118 29.9364 25.1868 30.1738C25.2129 30.2091 25.2307 30.2208 25.2357 30.2236C25.2384 30.2251 25.2437 30.2282 25.2581 30.2285C25.3639 30.2298 25.4773 30.2122 25.599 30.1748C25.6112 30.1347 25.6259 30.0954 25.6419 30.0576C25.6527 29.9106 25.6615 29.7649 25.6644 29.6211C25.6715 29.2688 25.8361 28.976 26.1038 28.7656C26.1161 28.756 26.1246 28.7482 26.1292 28.7431C26.086 28.4848 26.0996 28.2271 26.1751 27.9775C26.1843 27.9471 26.1875 27.9242 26.1536 27.873C26.0221 27.6746 25.9217 27.4662 25.8636 27.248C25.7968 26.9969 25.8052 26.7069 25.8499 26.4092C25.7218 26.4557 25.5752 26.4498 25.4476 26.3769C25.2527 26.2651 25.1657 26.037 25.224 25.8301C25.2759 25.4408 25.4061 25.0363 25.7386 24.8076C25.866 24.7201 25.9611 24.6252 26.0306 24.5273C26.1318 24.3847 26.2298 24.2397 26.3236 24.0928C26.3633 24.0304 26.3934 23.9411 26.3919 23.8047C26.39 23.6257 26.4018 23.4512 26.429 23.2822L26.3138 23.1455C26.2905 23.1128 26.2697 23.0794 26.2513 23.0469C26.2478 23.0449 26.2427 23.0418 26.2367 23.039C26.2148 23.0292 26.182 23.0181 26.137 23.0078C26.1318 23.0115 26.1269 23.017 26.1214 23.0205L25.8216 23.207L25.557 22.9951C25.4874 22.9396 25.4298 22.9021 25.3851 22.8779C25.3724 22.8711 25.3605 22.8656 25.3509 22.8613ZM32.0765 13.7256C32.1018 13.8564 32.1711 13.9793 32.2845 14.0674C32.5604 14.3034 32.5948 14.4439 32.597 14.4834C32.6195 14.8934 32.7875 15.2718 33.1488 15.5195C33.4774 15.7447 33.8595 15.8041 34.2435 15.7549C34.2926 15.7486 34.319 15.7518 34.3294 15.7539C34.3301 15.7547 34.3315 15.7557 34.3324 15.7568C34.5132 16.0097 34.7352 16.2184 35.0003 16.3701C35.2721 16.5255 35.5708 16.6065 35.8851 16.6172C36.0624 16.6232 36.2191 16.6512 36.3577 16.6972C36.3985 16.7108 36.4562 16.7437 36.5228 16.8574C36.5795 16.9542 36.6682 17.099 36.7786 17.1972C36.8109 17.2259 36.8734 17.2776 36.9632 17.3144C37.0115 17.3342 37.0796 17.3521 37.1595 17.3564C37.1166 17.3988 37.0714 17.4403 37.0218 17.4775C36.9611 17.5232 36.9259 17.5768 36.9085 17.6572C36.8508 17.9245 36.71 18.144 36.5052 18.3076C36.4578 18.1742 36.3612 18.0571 36.223 17.9873C36.1531 17.8924 36.0611 17.8049 35.9408 17.7373C35.7592 17.6354 35.569 17.6101 35.3968 17.6221L35.3216 17.6299C35.2691 17.6369 35.2187 17.6471 35.1712 17.6592C35.0003 17.7026 34.8892 17.6902 34.8138 17.664C34.6806 17.6179 34.5503 17.5437 34.4222 17.4336C34.1816 17.2266 33.907 17.0744 33.6009 16.9883C33.4765 16.9532 33.3657 16.8932 33.264 16.8017C33.1073 16.6608 32.9758 16.5307 32.8675 16.4121C32.7606 16.295 32.6587 16.1687 32.5628 16.0332C32.4489 15.8724 32.2837 15.7389 32.1234 15.6299C31.9608 15.5193 31.7618 15.4074 31.5345 15.292C31.4476 15.239 31.3516 15.2117 31.2552 15.206C31.3641 15.0717 31.5021 14.9631 31.6605 14.8799C31.7304 14.8431 31.7396 14.8148 31.7454 14.7822C31.783 14.5732 31.8306 14.3692 31.889 14.1709C31.9351 14.0144 31.9982 13.8658 32.0765 13.7256ZM36.4476 11.3164L36.4876 11.3271L36.5443 11.3428C36.6786 11.3774 36.828 11.4008 36.9915 11.4101C37.2104 11.4226 37.4339 11.5095 37.5921 11.7109C37.7369 11.8956 37.7812 12.1181 37.7874 12.3105C37.7896 12.3787 37.7989 12.4169 37.805 12.4346C38.037 12.5414 38.241 12.6905 38.4124 12.8799C38.6487 13.1411 38.7339 13.4689 38.6585 13.8115C38.6382 13.9043 38.6439 14.0003 38.6878 14.1113C38.8007 14.3961 38.8235 14.6967 38.7337 14.9931C38.6561 15.2489 38.5046 15.4566 38.3011 15.6152C38.3008 15.635 38.302 15.6537 38.3011 15.6689C38.297 15.7356 38.2867 15.8207 38.2738 15.917C38.2302 16.2399 38.0437 16.4654 37.7982 16.6054C37.7963 16.403 37.688 16.2077 37.4964 16.1064L37.4827 16.0996L37.305 16.0058C37.1478 15.8315 36.9523 15.6946 36.7161 15.6162C36.4643 15.5326 36.1985 15.4879 35.9232 15.4785C35.7848 15.4737 35.6692 15.4403 35.5667 15.3818C35.4577 15.3194 35.3542 15.2276 35.2591 15.0947C34.9744 14.6966 34.5387 14.5684 34.098 14.625C33.9256 14.647 33.8406 14.6132 33.7923 14.5801C33.7765 14.5693 33.7417 14.5483 33.7347 14.4209C33.7073 13.923 33.3954 13.5155 33.016 13.1933L33.0062 13.1846L32.9964 13.1767L32.9827 13.167C32.9171 13.1162 32.8437 13.0827 32.7679 13.0644C32.8037 13.0469 32.8391 13.0281 32.8763 13.0127C33.024 12.9514 33.1103 12.8808 33.1615 12.8154C33.1926 12.7754 33.2138 12.7247 33.2064 12.6328C33.1987 12.5381 33.1898 12.3922 33.223 12.2656C33.2319 12.2317 33.2843 12.0328 33.4867 11.9297C33.5278 11.8631 33.584 11.807 33.6507 11.7676C33.8155 11.6231 34.0032 11.5008 34.2122 11.4453C34.4628 11.379 34.7153 11.4173 34.932 11.5605L34.9749 11.5908L35.0374 11.6347C35.1717 11.7257 35.271 11.7622 35.3363 11.7734H35.3382C35.3541 11.7658 35.3936 11.741 35.4515 11.6767C35.6932 11.4081 36.0394 11.2156 36.4476 11.3164Z" fill="var(--fill-0, #D8F789)"/>
</g>
</svg>
