<svg xmlns="http://www.w3.org/2000/svg" width="24" height="24" viewBox="0 0 24 24" fill="none"><path id="Vector" d="M4.13151 14.9148L3.2898 14.7963L4.13151 14.9148ZM4.81089 13.9585L4.19443 13.3733L4.81089 13.9585ZM4.96061 12.2344L4.11948 12.1119L4.96061 12.2344ZM5.04271 11.6704L5.88385 11.7929L5.04271 11.6704ZM5.26449 11.1528L4.59009 10.6355L5.26449 11.1528ZM5.62593 10.6817L6.30033 11.1991L5.62593 10.6817ZM5.90119 10.1822L6.70141 10.4688L5.90119 10.1822ZM5.99573 9.91825L5.1955 9.63164L5.99573 9.91825ZM6.09026 9.65431L6.89048 9.94091L6.09026 9.65431ZM6.20497 9.09319L5.35692 9.03562L6.20497 9.09319ZM6.24531 8.49883L5.39726 8.44127L6.24531 8.49883ZM6.83131 7.49525L6.16789 6.96386L6.83131 7.49525ZM7.56874 7.33782L7.44907 8.17936L7.56874 7.33782ZM8.76461 7.27857L8.58818 6.44709L8.76461 7.27857ZM9.5891 7.37938L8.90755 7.88731L9.5891 7.37938ZM9.94399 7.85557L9.26245 8.36351L9.94399 7.85557ZM10.3806 8.23237L9.97954 8.9818L10.3806 8.23237ZM10.899 8.50977L11.3 7.76034L10.899 8.50977ZM11.2493 8.95465L12.0639 8.71212L11.2493 8.95465ZM11.3404 9.26083L10.5258 9.50336L11.3404 9.26083ZM11.4316 9.56701L10.6169 9.80954L11.4316 9.56701ZM11.75 10.0426L12.258 9.36106L11.75 10.0426ZM11.9773 10.212L12.4852 9.53045L11.9773 10.212ZM12.2046 10.3814L11.6966 11.0629L12.2046 10.3814ZM12.6586 10.7207L13.1683 10.0404L12.6586 10.7207ZM12.8854 10.8906L12.3757 11.5708L12.8854 10.8906ZM13.1122 11.0605L13.6219 10.3803L13.1122 11.0605ZM13.592 11.374L13.1727 12.1133V12.1133L13.592 11.374ZM14.0983 11.6611L14.5176 10.9217V10.9217L14.0983 11.6611ZM14.3939 12.1589L13.5499 12.2602L14.3939 12.1589ZM14.4364 12.5132L15.2803 12.412L14.4364 12.5132ZM14.4789 12.8675L13.6349 12.9687L14.4789 12.8675ZM14.8747 13.2684L14.9859 12.4257L14.8747 13.2684ZM15.5815 13.3617L15.6927 12.519L15.5815 13.3617ZM16.0386 13.6981L15.2382 13.9845L16.0386 13.6981ZM16.1422 13.988L16.9426 13.7016V13.7016L16.1422 13.988ZM16.2459 14.2778L15.4456 14.5641L16.2459 14.2778ZM16.5607 14.7844L15.9515 15.3773L16.5607 14.7844ZM16.7717 15.0013L16.1625 15.5941L16.7717 15.0013ZM16.9827 15.2181L16.3735 15.8109L16.9827 15.2181ZM17.009 15.6711L17.6785 16.1948L17.009 15.6711ZM16.8243 15.9072L16.1548 15.3835L16.8243 15.9072ZM16.6396 16.1434L15.9701 15.6197L16.6396 16.1434ZM16.3866 16.7221L15.553 16.556L16.3866 16.7221ZM16.3183 17.0646L15.4847 16.8985L16.3183 17.0646ZM16.2501 17.4072L17.0837 17.5733L16.2501 17.4072ZM15.8871 17.8044L16.0421 18.6401L15.8871 17.8044ZM15.2978 17.9137L15.1428 17.0779V17.0779L15.2978 17.9137ZM14.728 18.0357L14.9303 18.8613L14.728 18.0357ZM14.1778 18.1705L13.9755 17.345L14.1778 18.1705ZM13.643 18.3465L13.9706 19.1308L13.643 18.3465ZM13.3832 18.455L13.0555 17.6707L13.3832 18.455ZM13.1234 18.5635L13.4511 19.3478L13.1234 18.5635ZM12.5486 18.6138L12.394 19.4496L12.5486 18.6138ZM11.9184 18.4973L12.0729 17.6614L11.9184 18.4973ZM11.3732 18.6358L10.8206 17.9899L11.3732 18.6358ZM11.1431 18.8326L10.5906 18.1867L11.1431 18.8326ZM10.9131 19.0295L11.4656 19.6754L10.9131 19.0295ZM10.4199 19.324L10.1238 18.5273V18.5273L10.4199 19.324ZM9.89375 19.5196L10.1898 20.3163V20.3163L9.89375 19.5196ZM9.31991 19.5721L9.19756 20.4133L9.31991 19.5721ZM9.00916 19.5269L9.13152 18.6858L9.00916 19.5269ZM8.69841 19.4817L8.57606 20.3229L8.69841 19.4817ZM8.18047 19.7029L8.85144 20.2247L8.18047 19.7029ZM7.76609 20.2357L7.09513 19.7139L7.76609 20.2357ZM7.27249 20.5296L7.35362 21.3757L7.27249 20.5296ZM6.69967 20.5845L6.61855 19.7384L6.69967 20.5845ZM6.12656 20.6158L6.11504 19.7659L6.12656 20.6158ZM5.83985 20.6197L5.85137 21.4696L5.83985 20.6197ZM5.55315 20.6236L5.54164 19.7737L5.55315 20.6236ZM4.99953 20.7565L4.62967 19.9912L4.99953 20.7565ZM3.92285 21.0106L4.29175 20.2448V20.2448L3.92285 21.0106ZM3.64694 20.8777L4.01584 20.1119L3.64694 20.8777ZM3.37103 20.7447L3.00214 21.5105L3.37103 20.7447ZM3.19603 20.3253L2.39431 20.043L3.19603 20.3253ZM3.39785 19.7524L2.59613 19.47L3.39785 19.7524ZM3.32716 19.1561L2.5836 19.568L3.32716 19.1561ZM2.98396 18.5365L3.72752 18.1246L2.98396 18.5365ZM3.08834 18.0144L3.60657 18.6882L3.08834 18.0144ZM3.97246 17.1023L4.8053 17.2722L3.97246 17.1023ZM4.08482 16.5516L3.25198 16.3817L4.08482 16.5516ZM4.10882 16.1477L3.28425 16.3541L4.10882 16.1477ZM4.04447 15.8906L4.86904 15.6842L4.04447 15.8906ZM4.05203 15.4796L4.89374 15.5981L4.05203 15.4796ZM4.09177 15.1972L4.93348 15.3156L4.97322 15.0332L4.13151 14.9148L3.2898 14.7963L3.25006 15.0788L4.09177 15.1972ZM4.13151 14.9148L4.97322 15.0332C4.97378 15.0292 4.97428 15.0281 4.97522 15.0262C4.97646 15.0238 4.98246 15.0124 5.00092 14.993L4.38446 14.4077L3.76801 13.8225C3.51502 14.089 3.34309 14.4176 3.2898 14.7963L4.13151 14.9148ZM4.38446 14.4077L5.00092 14.993L5.21413 14.7684L4.59768 14.1831L3.98122 13.5979L3.76801 13.8225L4.38446 14.4077ZM4.59768 14.1831L5.21413 14.7684L5.42735 14.5438L4.81089 13.9585L4.19443 13.3733L3.98122 13.5979L4.59768 14.1831ZM4.81089 13.9585L5.42735 14.5438C5.73422 14.2205 5.88339 13.8057 5.84485 13.3569L4.99797 13.4296L4.15108 13.5023C4.15037 13.494 4.15024 13.4664 4.1629 13.4306C4.17545 13.3951 4.19196 13.3759 4.19443 13.3733L4.81089 13.9585ZM4.99797 13.4296L5.84485 13.3569L5.81872 13.0525L4.97183 13.1252L4.12495 13.1979L4.15108 13.5023L4.99797 13.4296ZM4.97183 13.1252L5.81872 13.0525L5.79258 12.7481L4.9457 12.8208L4.09881 12.8935L4.12495 13.1979L4.97183 13.1252ZM4.9457 12.8208L5.79258 12.7481C5.78034 12.6055 5.78444 12.4758 5.80175 12.3568L4.96061 12.2344L4.11948 12.1119C4.08206 12.369 4.0762 12.6302 4.09881 12.8935L4.9457 12.8208ZM4.96061 12.2344L5.80175 12.3568L5.8428 12.0748L5.00166 11.9524L4.16053 11.83L4.11948 12.1119L4.96061 12.2344ZM5.00166 11.9524L5.8428 12.0748L5.88385 11.7929L5.04271 11.6704L4.20158 11.548L4.16053 11.83L5.00166 11.9524ZM5.04271 11.6704L5.88385 11.7929C5.8894 11.7547 5.90296 11.7171 5.93889 11.6702L5.26449 11.1528L4.59009 10.6355C4.38505 10.9027 4.25076 11.2101 4.20158 11.548L5.04271 11.6704ZM5.26449 11.1528L5.93889 11.6702L6.11961 11.4347L5.44521 10.9173L4.77081 10.3999L4.59009 10.6355L5.26449 11.1528ZM5.44521 10.9173L6.11961 11.4347L6.30033 11.1991L5.62593 10.6817L4.95153 10.1643L4.77081 10.3999L5.44521 10.9173ZM5.62593 10.6817L6.30033 11.1991C6.47129 10.9762 6.60696 10.7325 6.70141 10.4688L5.90119 10.1822L5.10097 9.89559C5.06938 9.98379 5.02154 10.0731 4.95153 10.1643L5.62593 10.6817ZM5.90119 10.1822L6.70141 10.4688L6.79595 10.2049L5.99573 9.91825L5.1955 9.63164L5.10097 9.89559L5.90119 10.1822ZM5.99573 9.91825L6.79595 10.2049L6.89048 9.94091L6.09026 9.65431L5.29004 9.3677L5.1955 9.63164L5.99573 9.91825ZM6.09026 9.65431L6.89048 9.94091C6.98153 9.68671 7.03459 9.42218 7.05302 9.15075L6.20497 9.09319L5.35692 9.03562C5.34845 9.16042 5.32504 9.26997 5.29004 9.3677L6.09026 9.65431ZM6.20497 9.09319L7.05302 9.15075L7.07319 8.85358L6.22514 8.79601L5.37709 8.73844L5.35692 9.03562L6.20497 9.09319ZM6.22514 8.79601L7.07319 8.85358L7.09336 8.5564L6.24531 8.49883L5.39726 8.44127L5.37709 8.73844L6.22514 8.79601ZM6.24531 8.49883L7.09336 8.5564C7.0949 8.53373 7.09873 8.52102 7.11751 8.49758L6.45409 7.96619L5.79067 7.4348C5.55797 7.72531 5.42262 8.0677 5.39726 8.44127L6.24531 8.49883ZM6.45409 7.96619L7.11751 8.49758L7.30612 8.26211L6.6427 7.73072L5.97928 7.19933L5.79067 7.4348L6.45409 7.96619ZM6.6427 7.73072L7.30612 8.26211L7.49473 8.02663L6.83131 7.49525L6.16789 6.96386L5.97928 7.19933L6.6427 7.73072ZM6.83131 7.49525L7.49473 8.02663C7.4871 8.03616 7.44926 8.07868 7.37336 8.11088C7.29387 8.14461 7.22019 8.14681 7.17466 8.14033L7.29433 7.2988L7.414 6.45726C6.90302 6.3846 6.46137 6.59746 6.16789 6.96386L6.83131 7.49525ZM7.29433 7.2988L7.17466 8.14033L7.44907 8.17936L7.56874 7.33782L7.68842 6.49629L7.414 6.45726L7.29433 7.2988ZM7.56874 7.33782L7.44907 8.17936L7.72348 8.21838L7.84316 7.37685L7.96283 6.53531L7.68842 6.49629L7.56874 7.33782ZM7.84316 7.37685L7.72348 8.21838C8.02194 8.26082 8.32281 8.24124 8.61752 8.17871L8.44109 7.34722L8.26466 6.51573C8.12801 6.54473 8.03026 6.5449 7.96283 6.53531L7.84316 7.37685ZM8.44109 7.34722L8.61752 8.17871L8.94104 8.11006L8.76461 7.27857L8.58818 6.44709L8.26466 6.51573L8.44109 7.34722ZM8.76461 7.27857L8.94104 8.11006L9.26456 8.04142L9.08813 7.20993L8.9117 6.37844L8.58818 6.44709L8.76461 7.27857ZM9.08813 7.20993L9.26456 8.04142C9.26021 8.04234 9.1959 8.05465 9.10278 8.02315C9.00317 7.98946 8.93831 7.92858 8.90755 7.88731L9.5891 7.37938L10.2706 6.87144C10.1216 6.67145 9.91408 6.50296 9.64748 6.41278C9.38737 6.3248 9.13173 6.33175 8.9117 6.37844L9.08813 7.20993ZM9.5891 7.37938L8.90755 7.88731L9.085 8.12541L9.76654 7.61747L10.4481 7.10954L10.2706 6.87144L9.5891 7.37938ZM9.76654 7.61747L9.085 8.12541L9.26245 8.36351L9.94399 7.85557L10.6255 7.34763L10.4481 7.10954L9.76654 7.61747ZM9.94399 7.85557L9.26245 8.36351C9.45458 8.62131 9.69551 8.82979 9.97954 8.9818L10.3806 8.23237L10.7817 7.48294C10.7201 7.45001 10.67 7.4073 10.6255 7.34763L9.94399 7.85557ZM10.3806 8.23237L9.97954 8.9818L10.2387 9.1205L10.6398 8.37107L11.0409 7.62164L10.7817 7.48294L10.3806 8.23237ZM10.6398 8.37107L10.2387 9.1205L10.4979 9.2592L10.899 8.50977L11.3 7.76034L11.0409 7.62164L10.6398 8.37107ZM10.899 8.50977L10.4979 9.2592C10.4926 9.25635 10.4843 9.25121 10.4746 9.24317C10.4649 9.23507 10.4559 9.22583 10.4483 9.2162C10.4323 9.19589 10.4309 9.18486 10.4346 9.19718L11.2493 8.95465L12.0639 8.71212C11.9447 8.31145 11.6912 7.96966 11.3 7.76034L10.899 8.50977ZM11.2493 8.95465L10.4346 9.19718L10.5258 9.50336L11.3404 9.26083L12.1551 9.0183L12.0639 8.71212L11.2493 8.95465ZM11.3404 9.26083L10.5258 9.50336L10.6169 9.80954L11.4316 9.56701L12.2462 9.32449L12.1551 9.0183L11.3404 9.26083ZM11.4316 9.56701L10.6169 9.80954C10.723 10.1659 10.9253 10.488 11.2421 10.7241L11.75 10.0426L12.258 9.36106C12.2586 9.3615 12.2599 9.3626 12.2614 9.36416C12.2629 9.36572 12.2634 9.3666 12.2631 9.36608C12.2626 9.36545 12.2551 9.35414 12.2462 9.32449L11.4316 9.56701ZM11.75 10.0426L11.2421 10.7241L11.4693 10.8935L11.9773 10.212L12.4852 9.53045L12.258 9.36106L11.75 10.0426ZM11.9773 10.212L11.4693 10.8935L11.6966 11.0629L12.2046 10.3814L12.7125 9.69984L12.4852 9.53045L11.9773 10.212ZM12.2046 10.3814L11.6966 11.0629C11.8476 11.1754 11.9983 11.2881 12.1489 11.4009L12.6586 10.7207L13.1683 10.0404C13.0166 9.92674 12.8646 9.81321 12.7125 9.69984L12.2046 10.3814ZM12.6586 10.7207L12.1489 11.4009L12.3757 11.5708L12.8854 10.8906L13.3951 10.2104L13.1683 10.0404L12.6586 10.7207ZM12.8854 10.8906L12.3757 11.5708L12.6025 11.7407L13.1122 11.0605L13.6219 10.3803L13.3951 10.2104L12.8854 10.8906ZM13.1122 11.0605L12.6025 11.7407C12.7833 11.8762 12.9735 12.0003 13.1727 12.1133L13.592 11.374L14.0114 10.6346C13.8731 10.5562 13.7434 10.4714 13.6219 10.3803L13.1122 11.0605ZM13.592 11.374L13.1727 12.1133L13.4258 12.2569L13.8452 11.5175L14.2645 10.7782L14.0114 10.6346L13.592 11.374ZM13.8452 11.5175L13.4258 12.2569L13.6789 12.4005L14.0983 11.6611L14.5176 10.9217L14.2645 10.7782L13.8452 11.5175ZM14.0983 11.6611L13.6789 12.4005C13.6596 12.3895 13.638 12.374 13.617 12.3534C13.596 12.3329 13.5797 12.3113 13.5679 12.2913C13.5443 12.2517 13.5467 12.233 13.5499 12.2602L14.3939 12.1589L15.2378 12.0577C15.1855 11.6214 14.975 11.1811 14.5176 10.9217L14.0983 11.6611ZM14.3939 12.1589L13.5499 12.2602L13.5924 12.6144L14.4364 12.5132L15.2803 12.412L15.2378 12.0577L14.3939 12.1589ZM14.4364 12.5132L13.5924 12.6144L13.6349 12.9687L14.4789 12.8675L15.3228 12.7663L15.2803 12.412L14.4364 12.5132ZM14.4789 12.8675L13.6349 12.9687C13.6655 13.2234 13.7638 13.5088 13.9942 13.7421C14.2247 13.9755 14.5089 14.0775 14.7635 14.1111L14.8747 13.2684L14.9859 12.4257C15.0049 12.4282 15.1054 12.4479 15.2039 12.5477C15.3023 12.6474 15.3206 12.7478 15.3228 12.7663L14.4789 12.8675ZM14.8747 13.2684L14.7635 14.1111L15.1169 14.1578L15.2281 13.3151L15.3393 12.4724L14.9859 12.4257L14.8747 13.2684ZM15.2281 13.3151L15.1169 14.1578L15.4703 14.2044L15.5815 13.3617L15.6927 12.519L15.3393 12.4724L15.2281 13.3151ZM15.5815 13.3617L15.4703 14.2044C15.4817 14.2059 15.4338 14.2017 15.3685 14.1537C15.2969 14.1009 15.2556 14.033 15.2382 13.9845L16.0386 13.6981L16.8389 13.4118C16.7524 13.17 16.6003 12.9495 16.3763 12.7846C16.1587 12.6244 15.9168 12.5486 15.6927 12.519L15.5815 13.3617ZM16.0386 13.6981L15.2382 13.9845L15.3419 14.2743L16.1422 13.988L16.9426 13.7016L16.8389 13.4118L16.0386 13.6981ZM16.1422 13.988L15.3419 14.2743L15.4456 14.5641L16.2459 14.2778L17.0463 13.9914L16.9426 13.7016L16.1422 13.988ZM16.2459 14.2778L15.4456 14.5641C15.5551 14.87 15.7244 15.1439 15.9515 15.3773L16.5607 14.7844L17.1698 14.1916C17.1156 14.1359 17.0751 14.072 17.0463 13.9914L16.2459 14.2778ZM16.5607 14.7844L15.9515 15.3773L16.1625 15.5941L16.7717 15.0013L17.3808 14.4085L17.1698 14.1916L16.5607 14.7844ZM16.7717 15.0013L16.1625 15.5941L16.3735 15.8109L16.9827 15.2181L17.5919 14.6253L17.3808 14.4085L16.7717 15.0013ZM16.9827 15.2181L16.3735 15.8109C16.3494 15.7862 16.2571 15.6773 16.2462 15.4891C16.2352 15.2994 16.3153 15.1783 16.3395 15.1474L17.009 15.6711L17.6785 16.1948C17.8258 16.0065 17.9631 15.7312 17.9434 15.3905C17.9237 15.0513 17.7567 14.7947 17.5919 14.6253L16.9827 15.2181ZM17.009 15.6711L16.3395 15.1474L16.1548 15.3835L16.8243 15.9072L17.4938 16.4309L17.6785 16.1948L17.009 15.6711ZM16.8243 15.9072L16.1548 15.3835L15.9701 15.6197L16.6396 16.1434L17.3091 16.6671L17.4938 16.4309L16.8243 15.9072ZM16.6396 16.1434L15.9701 15.6197C15.7525 15.8978 15.6202 16.2187 15.553 16.556L16.3866 16.7221L17.2202 16.8882C17.244 16.7687 17.2804 16.7038 17.3091 16.6671L16.6396 16.1434ZM16.3866 16.7221L15.553 16.556L15.4847 16.8985L16.3183 17.0646L17.1519 17.2308L17.2202 16.8882L16.3866 16.7221ZM16.3183 17.0646L15.4847 16.8985L15.4164 17.2411L16.2501 17.4072L17.0837 17.5733L17.1519 17.2308L16.3183 17.0646ZM16.2501 17.4072L15.4164 17.2411C15.4151 17.2477 15.4268 17.182 15.4977 17.1044C15.5762 17.0185 15.6703 16.9801 15.7322 16.9686L15.8871 17.8044L16.0421 18.6401C16.3003 18.5923 16.5532 18.4694 16.7527 18.2511C16.9446 18.0412 17.0395 17.7951 17.0837 17.5733L16.2501 17.4072ZM15.8871 17.8044L15.7322 16.9686L15.4375 17.0233L15.5925 17.859L15.7474 18.6948L16.0421 18.6401L15.8871 17.8044ZM15.5925 17.859L15.4375 17.0233L15.1428 17.0779L15.2978 17.9137L15.4527 18.7494L15.7474 18.6948L15.5925 17.859ZM15.2978 17.9137L15.1428 17.0779C14.9314 17.1171 14.7257 17.1611 14.5257 17.2101L14.728 18.0357L14.9303 18.8613C15.0972 18.8204 15.2713 18.7831 15.4527 18.7494L15.2978 17.9137ZM14.728 18.0357L14.5257 17.2101L14.2506 17.2775L14.4529 18.1031L14.6552 18.9287L14.9303 18.8613L14.728 18.0357ZM14.4529 18.1031L14.2506 17.2775L13.9755 17.345L14.1778 18.1705L14.3801 18.9961L14.6552 18.9287L14.4529 18.1031ZM14.1778 18.1705L13.9755 17.345C13.7496 17.4003 13.5294 17.4727 13.3153 17.5622L13.643 18.3465L13.9706 19.1308C14.1029 19.0755 14.2393 19.0306 14.3801 18.9961L14.1778 18.1705ZM13.643 18.3465L13.3153 17.5622L13.0555 17.6707L13.3832 18.455L13.7109 19.2393L13.9706 19.1308L13.643 18.3465ZM13.3832 18.455L13.0555 17.6707L12.7957 17.7792L13.1234 18.5635L13.4511 19.3478L13.7109 19.2393L13.3832 18.455ZM13.1234 18.5635L12.7957 17.7792C12.7952 17.7795 12.7739 17.7911 12.7031 17.778L12.5486 18.6138L12.394 19.4496C12.7433 19.5142 13.1053 19.4923 13.4511 19.3478L13.1234 18.5635ZM12.5486 18.6138L12.7031 17.778L12.388 17.7197L12.2335 18.5555L12.0789 19.3914L12.394 19.4496L12.5486 18.6138ZM12.2335 18.5555L12.388 17.7197L12.0729 17.6614L11.9184 18.4973L11.7638 19.3331L12.0789 19.3914L12.2335 18.5555ZM11.9184 18.4973L12.0729 17.6614C11.6275 17.5791 11.1817 17.6811 10.8206 17.9899L11.3732 18.6358L11.9257 19.2817C11.911 19.2944 11.8791 19.3151 11.8339 19.3266C11.7902 19.3377 11.7627 19.3329 11.7638 19.3331L11.9184 18.4973ZM11.3732 18.6358L10.8206 17.9899L10.5906 18.1867L11.1431 18.8326L11.6957 19.4785L11.9257 19.2817L11.3732 18.6358ZM11.1431 18.8326L10.5906 18.1867L10.3605 18.3836L10.9131 19.0295L11.4656 19.6754L11.6957 19.4785L11.1431 18.8326ZM10.9131 19.0295L10.3605 18.3836C10.2771 18.4549 10.1984 18.4996 10.1238 18.5273L10.4199 19.324L10.716 20.1208C10.9922 20.0182 11.2423 19.8664 11.4656 19.6754L10.9131 19.0295ZM10.4199 19.324L10.1238 18.5273L9.86076 18.625L10.1568 19.4218L10.4529 20.2186L10.716 20.1208L10.4199 19.324ZM10.1568 19.4218L9.86076 18.625L9.59768 18.7228L9.89375 19.5196L10.1898 20.3163L10.4529 20.2186L10.1568 19.4218ZM9.89375 19.5196L9.59768 18.7228C9.57111 18.7327 9.52549 18.7431 9.44227 18.731L9.31991 19.5721L9.19756 20.4133C9.52866 20.4614 9.8656 20.4368 10.1898 20.3163L9.89375 19.5196ZM9.31991 19.5721L9.44227 18.731L9.13152 18.6858L9.00916 19.5269L8.88681 20.3681L9.19756 20.4133L9.31991 19.5721ZM9.00916 19.5269L9.13152 18.6858L8.82077 18.6406L8.69841 19.4817L8.57606 20.3229L8.88681 20.3681L9.00916 19.5269ZM8.69841 19.4817L8.82077 18.6406C8.28427 18.5625 7.8182 18.7842 7.50951 19.1811L8.18047 19.7029L8.85144 20.2247C8.84952 20.2272 8.81766 20.2661 8.7474 20.2961C8.6739 20.3275 8.6088 20.3276 8.57606 20.3229L8.69841 19.4817ZM8.18047 19.7029L7.50951 19.1811L7.30232 19.4475L7.97328 19.9693L8.64425 20.4911L8.85144 20.2247L8.18047 19.7029ZM7.97328 19.9693L7.30232 19.4475L7.09513 19.7139L7.76609 20.2357L8.43706 20.7575L8.64425 20.4911L7.97328 19.9693ZM7.76609 20.2357L7.09513 19.7139C7.07993 19.7334 7.0811 19.7258 7.10428 19.712C7.11569 19.7052 7.12999 19.6984 7.14652 19.693C7.16304 19.6876 7.17846 19.6847 7.19137 19.6834L7.27249 20.5296L7.35362 21.3757C7.81788 21.3312 8.18234 21.085 8.43706 20.7575L7.76609 20.2357ZM7.27249 20.5296L7.19137 19.6834L6.90496 19.7109L6.98608 20.557L7.06721 21.4031L7.35362 21.3757L7.27249 20.5296ZM6.98608 20.557L6.90496 19.7109L6.61855 19.7384L6.69967 20.5845L6.78079 21.4306L7.06721 21.4031L6.98608 20.557ZM6.69967 20.5845L6.61855 19.7384C6.45067 19.7545 6.28285 19.7636 6.11504 19.7659L6.12656 20.6158L6.13807 21.4658C6.35253 21.4628 6.56679 21.4511 6.78079 21.4306L6.69967 20.5845ZM6.12656 20.6158L6.11504 19.7659L5.82834 19.7698L5.83985 20.6197L5.85137 21.4696L6.13807 21.4658L6.12656 20.6158ZM5.83985 20.6197L5.82834 19.7698L5.54164 19.7737L5.55315 20.6236L5.56467 21.4735L5.85137 21.4696L5.83985 20.6197ZM5.55315 20.6236L5.54164 19.7737C5.22204 19.778 4.91555 19.853 4.62967 19.9912L4.99953 20.7565L5.36939 21.5218C5.43941 21.488 5.50199 21.4744 5.56467 21.4735L5.55315 20.6236ZM4.99953 20.7565L4.62967 19.9912L4.36274 20.1202L4.7326 20.8855L5.10246 21.6508L5.36939 21.5218L4.99953 20.7565ZM4.7326 20.8855L4.36274 20.1202L4.09582 20.2492L4.46568 21.0145L4.83554 21.7798L5.10246 21.6508L4.7326 20.8855ZM4.46568 21.0145L4.09582 20.2492C4.11305 20.2408 4.15127 20.2277 4.20264 20.228C4.25308 20.2284 4.28509 20.2416 4.29175 20.2448L3.92285 21.0106L3.55395 21.7763C3.96238 21.9731 4.41547 21.9828 4.83554 21.7798L4.46568 21.0145ZM3.92285 21.0106L4.29175 20.2448L4.01584 20.1119L3.64694 20.8777L3.27804 21.6434L3.55395 21.7763L3.92285 21.0106ZM3.64694 20.8777L4.01584 20.1119L3.73993 19.979L3.37103 20.7447L3.00214 21.5105L3.27804 21.6434L3.64694 20.8777ZM3.37103 20.7447L3.73993 19.979C3.76952 19.9932 3.89848 20.0656 3.97378 20.2461C4.0496 20.4278 4.01008 20.5728 3.99775 20.6077L3.19603 20.3253L2.39431 20.043C2.31472 20.2689 2.27072 20.5792 2.40488 20.9008C2.53852 21.221 2.7886 21.4077 3.00214 21.5105L3.37103 20.7447ZM3.19603 20.3253L3.99775 20.6077L4.09866 20.3213L3.29694 20.0389L2.49522 19.7565L2.39431 20.043L3.19603 20.3253ZM3.29694 20.0389L4.09866 20.3213L4.19957 20.0348L3.39785 19.7524L2.59613 19.47L2.49522 19.7565L3.29694 20.0389ZM3.39785 19.7524L4.19957 20.0348C4.36119 19.5759 4.28129 19.1244 4.07071 18.7442L3.32716 19.1561L2.5836 19.568C2.59682 19.5918 2.58985 19.588 2.58654 19.5601C2.58492 19.5465 2.58462 19.5303 2.58657 19.513C2.58851 19.4956 2.59226 19.481 2.59613 19.47L3.39785 19.7524ZM3.32716 19.1561L4.07071 18.7442L3.89912 18.4344L3.15556 18.8463L2.412 19.2582L2.5836 19.568L3.32716 19.1561ZM3.15556 18.8463L3.89912 18.4344L3.72752 18.1246L2.98396 18.5365L2.24041 18.9484L2.412 19.2582L3.15556 18.8463ZM2.98396 18.5365L3.72752 18.1246C3.73533 18.1388 3.79125 18.2502 3.75776 18.4177C3.72378 18.5877 3.62638 18.6729 3.60657 18.6882L3.08834 18.0144L2.57011 17.3407C2.36632 17.4974 2.15953 17.7404 2.09076 18.0844C2.02247 18.426 2.1182 18.7277 2.24041 18.9484L2.98396 18.5365ZM3.08834 18.0144L3.60657 18.6882L3.88255 18.4759L3.36432 17.8022L2.84609 17.1284L2.57011 17.3407L3.08834 18.0144ZM3.36432 17.8022L3.88255 18.4759L4.15853 18.2636L3.6403 17.5899L3.12207 16.9161L2.84609 17.1284L3.36432 17.8022ZM3.6403 17.5899L4.15853 18.2636C4.46438 18.0284 4.71787 17.7007 4.8053 17.2722L3.97246 17.1023L3.13962 16.9323C3.14183 16.9215 3.14518 16.9109 3.14924 16.9015C3.15325 16.8921 3.15701 16.886 3.15884 16.8833C3.16236 16.8781 3.15522 16.8906 3.12207 16.9161L3.6403 17.5899ZM3.97246 17.1023L4.8053 17.2722L4.86148 16.9969L4.02864 16.827L3.1958 16.657L3.13962 16.9323L3.97246 17.1023ZM4.02864 16.827L4.86148 16.9969L4.91766 16.7216L4.08482 16.5516L3.25198 16.3817L3.1958 16.657L4.02864 16.827ZM4.08482 16.5516L4.91766 16.7216C4.95825 16.5226 5.0045 16.2255 4.93339 15.9414L4.10882 16.1477L3.28425 16.3541C3.27426 16.3142 3.27172 16.2853 3.27096 16.273C3.27017 16.26 3.27081 16.2558 3.2704 16.2626C3.27002 16.269 3.2689 16.2821 3.26593 16.3029C3.26297 16.3236 3.25851 16.3497 3.25198 16.3817L4.08482 16.5516ZM4.10882 16.1477L4.93339 15.9414L4.90121 15.8128L4.07664 16.0192L3.25208 16.2255L3.28425 16.3541L4.10882 16.1477ZM4.07664 16.0192L4.90121 15.8128L4.86904 15.6842L4.04447 15.8906L3.2199 16.097L3.25208 16.2255L4.07664 16.0192ZM4.04447 15.8906L4.86904 15.6842C4.87716 15.7167 4.87929 15.7385 4.87982 15.7447C4.88041 15.7517 4.87992 15.7505 4.88013 15.7392C4.88057 15.7154 4.8836 15.6701 4.89374 15.5981L4.05203 15.4796L3.21032 15.3612C3.1821 15.5617 3.1556 15.84 3.2199 16.097L4.04447 15.8906ZM4.05203 15.4796L4.89374 15.5981L4.93348 15.3156L4.09177 15.1972L3.25006 15.0788L3.21032 15.3612L4.05203 15.4796Z" fill="#D8F789" />
<path id="Vector_2" d="M11.3863 18.3807C11.4054 18.8497 11.8011 19.2144 12.2702 19.1953C12.7392 19.1762 13.104 18.7804 13.0849 18.3114L12.2356 18.346L11.3863 18.3807ZM12.2315 18.2461L13.0808 18.2115L13.0726 18.0111L12.9757 17.8355L12.2315 18.2461ZM11.9766 17.7841L12.7208 17.3734L11.9766 17.7841ZM11.7862 17.0202L12.6174 17.198L11.7862 17.0202ZM11.9153 16.4165L11.0842 16.2387L11.9153 16.4165ZM11.8192 15.8564L11.0975 16.3055L11.8192 15.8564ZM11.6584 15.5981L10.9367 16.0472L11.6584 15.5981ZM11.4976 15.3398L12.2193 14.8906L11.4976 15.3398ZM11.2866 13.6433L10.5343 13.2478V13.2478L11.2866 13.6433ZM11.4268 13.3767L12.1792 13.7723V13.7723L11.4268 13.3767ZM11.567 13.1101L10.8146 12.7145L11.567 13.1101ZM11.7762 12.5718L12.6 12.781L11.7762 12.5718ZM11.8451 12.3002L11.0213 12.091L11.8451 12.3002ZM11.9141 12.0286L11.0903 11.8194L11.9141 12.0286ZM12.0462 11.5088L11.2224 11.2993L12.0462 11.5088ZM12.1093 11.2605L11.297 11.0103L11.2908 11.0305L11.2855 11.0511L12.1093 11.2605ZM12.2315 10.8639L13.0438 11.1142L13.0763 11.0088L13.0808 10.8986L12.2315 10.8639ZM13.0849 10.7987C13.104 10.3296 12.7393 9.93387 12.2702 9.91473C11.8012 9.8956 11.4054 10.2603 11.3863 10.7294L12.2356 10.764L13.0849 10.7987ZM7.22064 19.5768C7.27188 20.0434 7.6917 20.3802 8.15834 20.3289C8.62498 20.2777 8.96172 19.8579 8.91048 19.3912L8.06556 19.484L7.22064 19.5768ZM8.05464 19.3846L8.89956 19.2918L8.8891 19.1966L8.8577 19.1061L8.05464 19.3846ZM7.88567 18.8975L8.68873 18.6189L7.88567 18.8975ZM7.79371 18.1112L6.97053 17.8993L7.79371 18.1112ZM7.94771 17.5128L8.77089 17.7247L7.94771 17.5128ZM7.79615 16.9662L8.42052 16.3894L7.79615 16.9662ZM7.33902 16.4713L6.71465 17.0481L7.33902 16.4713ZM7.36288 14.2262L6.54101 14.0093L7.36288 14.2262ZM7.38692 13.661L6.55031 13.8112L7.38692 13.661ZM7.82006 10.3427L7.04232 9.99978L7.82006 10.3427ZM8.08453 9.25069L7.2679 9.48653L8.08453 9.25069ZM7.94618 7.85565L7.12502 7.63609L7.12194 7.64762L7.11918 7.65923L7.94618 7.85565ZM8.05401 7.45236L8.87516 7.67191L8.89117 7.61206L8.89832 7.55053L8.05401 7.45236ZM8.90987 7.4512C8.96409 6.98489 8.63003 6.56293 8.16373 6.50872C7.69742 6.4545 7.27546 6.78856 7.22125 7.25486L8.06556 7.35303L8.90987 7.4512ZM12.2356 18.346L13.0849 18.3114L13.0808 18.2115L12.2315 18.2461L11.3822 18.2807L11.3863 18.3807L12.2356 18.346ZM12.2315 18.2461L12.9757 17.8355L12.7208 17.3734L11.9766 17.7841L11.2323 18.1947L11.4872 18.6567L12.2315 18.2461ZM11.9766 17.7841L12.7208 17.3734C12.6602 17.2636 12.6353 17.1927 12.6263 17.1565C12.6175 17.1213 12.6293 17.1421 12.6174 17.198L11.7862 17.0202L10.955 16.8424C10.8477 17.3439 11.0278 17.824 11.2323 18.1947L11.9766 17.7841ZM11.7862 17.0202L12.6174 17.198L12.682 16.8962L11.8508 16.7184L11.0196 16.5405L10.955 16.8424L11.7862 17.0202ZM11.8508 16.7184L12.682 16.8962L12.7465 16.5944L11.9153 16.4165L11.0842 16.2387L11.0196 16.5405L11.8508 16.7184ZM11.9153 16.4165L12.7465 16.5944C12.8349 16.1814 12.7662 15.7694 12.5408 15.4073L11.8192 15.8564L11.0975 16.3055C11.0978 16.3061 11.0957 16.3027 11.093 16.2957C11.0902 16.2886 11.0876 16.2796 11.0858 16.2695C11.082 16.2473 11.085 16.2348 11.0842 16.2387L11.9153 16.4165ZM11.8192 15.8564L12.5408 15.4073L12.38 15.149L11.6584 15.5981L10.9367 16.0472L11.0975 16.3055L11.8192 15.8564ZM11.6584 15.5981L12.38 15.149L12.2193 14.8906L11.4976 15.3398L10.776 15.7889L10.9367 16.0472L11.6584 15.5981ZM11.4976 15.3398L12.2193 14.8906C12.17 14.8114 12.1415 14.7336 12.1282 14.6522L11.2892 14.7886L10.4503 14.925C10.5005 15.234 10.6109 15.5237 10.776 15.7889L11.4976 15.3398ZM11.2892 14.7886L12.1282 14.6522L12.0806 14.3593L11.2416 14.4957L10.4026 14.6321L10.4503 14.925L11.2892 14.7886ZM11.2416 14.4957L12.0806 14.3593L12.033 14.0665L11.194 14.2029L10.355 14.3392L10.4026 14.6321L11.2416 14.4957ZM11.194 14.2029L12.033 14.0665C12.032 14.0605 12.032 14.0572 12.032 14.0561C12.032 14.0551 12.032 14.055 12.032 14.0553C12.0319 14.0556 12.032 14.0549 12.0327 14.0529C12.0334 14.0507 12.0352 14.0461 12.039 14.0389L11.2866 13.6433L10.5343 13.2478C10.3564 13.5861 10.2932 13.959 10.355 14.3392L11.194 14.2029ZM11.2866 13.6433L12.039 14.0389L12.1792 13.7723L11.4268 13.3767L10.6745 12.9812L10.5343 13.2478L11.2866 13.6433ZM11.4268 13.3767L12.1792 13.7723L12.3193 13.5056L11.567 13.1101L10.8146 12.7145L10.6745 12.9812L11.4268 13.3767ZM11.567 13.1101L12.3193 13.5056C12.4416 13.2732 12.5364 13.0315 12.6 12.781L11.7762 12.5718L10.9523 12.3626C10.9239 12.4743 10.8793 12.5914 10.8146 12.7145L11.567 13.1101ZM11.7762 12.5718L12.6 12.781L12.669 12.5094L11.8451 12.3002L11.0213 12.091L10.9523 12.3626L11.7762 12.5718ZM11.8451 12.3002L12.669 12.5094L12.738 12.2378L11.9141 12.0286L11.0903 11.8194L11.0213 12.091L11.8451 12.3002ZM11.9141 12.0286L12.738 12.2378C12.7839 12.0568 12.8279 11.8836 12.87 11.7182L12.0462 11.5088L11.2224 11.2993C11.1803 11.4649 11.1363 11.6382 11.0903 11.8194L11.9141 12.0286ZM12.0462 11.5088L12.87 11.7182L12.9331 11.47L12.1093 11.2605L11.2855 11.0511L11.2224 11.2993L12.0462 11.5088ZM12.1093 11.2605L12.9217 11.5107L13.0438 11.1142L12.2315 10.8639L11.4191 10.6137L11.297 11.0103L12.1093 11.2605ZM12.2315 10.8639L13.0808 10.8986L13.0849 10.7987L12.2356 10.764L11.3863 10.7294L11.3822 10.8293L12.2315 10.8639ZM8.06556 19.484L8.91048 19.3912L8.89956 19.2918L8.05464 19.3846L7.20972 19.4774L7.22064 19.5768L8.06556 19.484ZM8.05464 19.3846L8.8577 19.1061L8.68873 18.6189L7.88567 18.8975L7.08261 19.1761L7.25158 19.6632L8.05464 19.3846ZM7.88567 18.8975L8.68873 18.6189C8.64691 18.4984 8.62883 18.4133 8.62244 18.3586C8.61601 18.3036 8.62349 18.2974 8.61688 18.3231L7.79371 18.1112L6.97053 17.8993C6.85808 18.3363 6.94808 18.7882 7.08261 19.1761L7.88567 18.8975ZM7.79371 18.1112L8.61688 18.3231L8.69388 18.0239L7.87071 17.812L7.04754 17.6001L6.97053 17.8993L7.79371 18.1112ZM7.87071 17.812L8.69388 18.0239L8.77089 17.7247L7.94771 17.5128L7.12454 17.301L7.04754 17.6001L7.87071 17.812ZM7.94771 17.5128L8.77089 17.7247C8.90158 17.2169 8.74774 16.7436 8.42052 16.3894L7.79615 16.9662L7.17178 17.5429C7.17329 17.5446 7.14631 17.5153 7.12923 17.4537C7.11121 17.3887 7.11651 17.3321 7.12454 17.301L7.94771 17.5128ZM7.79615 16.9662L8.42052 16.3894L8.19196 16.142L7.56759 16.7188L6.94321 17.2955L7.17178 17.5429L7.79615 16.9662ZM7.56759 16.7188L8.19196 16.142L7.96339 15.8946L7.33902 16.4713L6.71465 17.0481L6.94321 17.2955L7.56759 16.7188ZM7.33902 16.4713L7.96339 15.8946C7.94426 15.8738 7.94742 15.8712 7.95462 15.8886C7.95815 15.8971 7.96176 15.9084 7.96424 15.9216C7.96672 15.9349 7.96753 15.9473 7.96728 15.9578L7.11753 15.9368L6.26779 15.9159C6.25669 16.3661 6.44012 16.7509 6.71465 17.0481L7.33902 16.4713ZM7.11753 15.9368L7.96728 15.9578L7.97435 15.6707L7.12461 15.6497L6.27487 15.6288L6.26779 15.9159L7.11753 15.9368ZM7.12461 15.6497L7.97435 15.6707L7.98143 15.3836L7.13169 15.3626L6.28195 15.3417L6.27487 15.6288L7.12461 15.6497ZM7.13169 15.3626L7.98143 15.3836C7.98449 15.2596 8.00209 15.1353 8.03534 15.0093L7.21347 14.7924L6.3916 14.5755C6.32525 14.827 6.28833 15.0828 6.28195 15.3417L7.13169 15.3626ZM7.21347 14.7924L8.03534 15.0093L8.11005 14.7261L7.28818 14.5093L6.46631 14.2924L6.3916 14.5755L7.21347 14.7924ZM7.28818 14.5093L8.11005 14.7261L8.18475 14.443L7.36288 14.2262L6.54101 14.0093L6.46631 14.2924L7.28818 14.5093ZM7.36288 14.2262L8.18475 14.443C8.26547 14.1371 8.2797 13.8234 8.22353 13.5107L7.38692 13.661L6.55031 13.8112C6.56169 13.8746 6.5599 13.9377 6.54101 14.0093L7.36288 14.2262ZM7.38692 13.661L8.22353 13.5107L8.17286 13.2286L7.33625 13.3789L6.49964 13.5292L6.55031 13.8112L7.38692 13.661ZM7.33625 13.3789L8.17286 13.2286L8.1222 12.9465L7.28559 13.0968L6.44898 13.2471L6.49964 13.5292L7.33625 13.3789ZM7.28559 13.0968L8.1222 12.9465C8.11325 12.8967 8.11599 12.8529 8.13229 12.8025L7.32359 12.5408L6.51489 12.279C6.41296 12.594 6.39037 12.9208 6.44898 13.2471L7.28559 13.0968ZM7.32359 12.5408L8.13229 12.8025L8.22096 12.5286L7.41226 12.2668L6.60356 12.0051L6.51489 12.279L7.32359 12.5408ZM7.41226 12.2668L8.22096 12.5286L8.30963 12.2546L7.50093 11.9929L6.69223 11.7311L6.60356 12.0051L7.41226 12.2668ZM7.50093 11.9929L8.30963 12.2546C8.3866 12.0168 8.43838 11.7742 8.4636 11.5276L7.61802 11.4411L6.77243 11.3546C6.75976 11.4784 6.73348 11.6037 6.69223 11.7311L7.50093 11.9929ZM7.61802 11.4411L8.4636 11.5276L8.49202 11.2497L7.64643 11.1633L6.80085 11.0768L6.77243 11.3546L7.61802 11.4411ZM7.64643 11.1633L8.49202 11.2497L8.52044 10.9719L7.67485 10.8854L6.82926 10.7989L6.80085 11.0768L7.64643 11.1633ZM7.67485 10.8854L8.52044 10.9719C8.53 10.8784 8.55452 10.7839 8.5978 10.6857L7.82006 10.3427L7.04232 9.99978C6.92988 10.2548 6.85759 10.522 6.82926 10.7989L7.67485 10.8854ZM7.82006 10.3427L8.5978 10.6857L8.7146 10.4208L7.93686 10.0779L7.15911 9.73493L7.04232 9.99978L7.82006 10.3427ZM7.93686 10.0779L8.7146 10.4208L8.83139 10.156L8.05365 9.81302L7.27591 9.47007L7.15911 9.73493L7.93686 10.0779ZM8.05365 9.81302L8.83139 10.156C8.99553 9.78375 9.00959 9.3903 8.90116 9.01485L8.08453 9.25069L7.2679 9.48653C7.27042 9.49523 7.27099 9.49964 7.27105 9.50015C7.2711 9.50055 7.27079 9.49809 7.27104 9.4934C7.27131 9.48866 7.27205 9.48347 7.27326 9.47849C7.27445 9.47355 7.27566 9.47062 7.27591 9.47007L8.05365 9.81302ZM8.08453 9.25069L8.90116 9.01485L8.81525 8.71738L7.99862 8.95322L7.18199 9.18906L7.2679 9.48653L8.08453 9.25069ZM7.99862 8.95322L8.81525 8.71738L8.72934 8.4199L7.91271 8.65574L7.09608 8.89158L7.18199 9.18906L7.99862 8.95322ZM7.91271 8.65574L8.72934 8.4199C8.71678 8.37644 8.71307 8.34683 8.71223 8.32924C8.71142 8.31237 8.71314 8.30481 8.71348 8.30338L7.88649 8.10696L7.0595 7.91054C6.9797 8.24652 7.00623 8.58045 7.09608 8.89158L7.91271 8.65574ZM7.88649 8.10696L8.71348 8.30338L8.77317 8.05207L7.94618 7.85565L7.11918 7.65923L7.0595 7.91054L7.88649 8.10696ZM7.94618 7.85565L8.76733 8.0752L8.87516 7.67191L8.05401 7.45236L7.23285 7.2328L7.12502 7.63609L7.94618 7.85565ZM8.05401 7.45236L8.89832 7.55053L8.90987 7.4512L8.06556 7.35303L7.22125 7.25486L7.2097 7.35419L8.05401 7.45236Z" fill="#D8F789" />
<path id="Vector_3" d="M13.5611 4.39601C13.7621 4.19601 13.8631 4.09501 13.9791 4.05801C14.0773 4.02688 14.1828 4.02688 14.2811 4.05801C14.3971 4.09501 14.4981 4.19501 14.6991 4.39601C14.8991 4.59801 15.0001 4.69801 15.0371 4.81401C15.0682 4.91227 15.0682 5.01775 15.0371 5.11601C15.0001 5.23301 14.9001 5.33301 14.6991 5.53401C14.4981 5.73501 14.3971 5.83601 14.2811 5.87301C14.1828 5.90413 14.0773 5.90413 13.9791 5.87301C13.8631 5.83601 13.7621 5.73501 13.5611 5.53401C13.3601 5.33401 13.2591 5.23301 13.2231 5.11601C13.192 5.01775 13.192 4.91227 13.2231 4.81401C13.2591 4.69801 13.3601 4.59801 13.5611 4.39601ZM19.4681 7.46801C19.7141 7.22301 19.8361 7.10001 19.9751 7.04701C20.137 6.98469 20.3162 6.98469 20.4781 7.04701C20.6161 7.10001 20.7391 7.22301 20.9851 7.46801C21.2301 7.71401 21.3531 7.83601 21.4061 7.97501C21.4684 8.13688 21.4684 8.31613 21.4061 8.47801C21.3531 8.61601 21.2301 8.73901 20.9851 8.98501C20.7391 9.23001 20.6161 9.35301 20.4781 9.40601C20.3162 9.46833 20.137 9.46833 19.9751 9.40601C19.8361 9.35301 19.7141 9.23001 19.4681 8.98501C19.2231 8.73901 19.1001 8.61601 19.0471 8.47801C18.9848 8.31613 18.9848 8.13688 19.0471 7.97501C19.1001 7.83601 19.2231 7.71401 19.4681 7.46801ZM6.92708 3.94001C6.97698 3.89017 7.03621 3.85065 7.10139 3.8237C7.16656 3.79676 7.23641 3.78291 7.30693 3.78296C7.37746 3.78301 7.44728 3.79694 7.51242 3.82397C7.57756 3.85101 7.63674 3.8906 7.68658 3.94051C7.73642 3.99041 7.77594 4.04964 7.80288 4.11481C7.82983 4.17999 7.84367 4.24983 7.84363 4.32036C7.84358 4.39089 7.82964 4.46071 7.80261 4.52585C7.77558 4.59099 7.73598 4.65017 7.68608 4.70001C7.5853 4.80066 7.44866 4.85715 7.30623 4.85705C7.16379 4.85696 7.02723 4.80029 6.92658 4.69951C6.82593 4.59872 6.76944 4.46209 6.76953 4.31965C6.76963 4.17722 6.8263 4.04066 6.92708 3.94001ZM19.0581 15.313C19.1079 15.2632 19.1671 15.2236 19.2322 15.1967C19.2973 15.1697 19.3671 15.1558 19.4376 15.1558C19.5081 15.1558 19.5778 15.1697 19.643 15.1967C19.7081 15.2236 19.7672 15.2632 19.8171 15.313C19.8669 15.3628 19.9064 15.422 19.9334 15.4871C19.9604 15.5522 19.9743 15.622 19.9743 15.6925C19.9743 15.763 19.9604 15.8328 19.9334 15.8979C19.9064 15.963 19.8669 16.0222 19.8171 16.072C19.7164 16.1727 19.5799 16.2292 19.4376 16.2292C19.2952 16.2292 19.1587 16.1727 19.0581 16.072C18.9574 15.9714 18.9009 15.8348 18.9009 15.6925C18.9009 15.5502 18.9574 15.4137 19.0581 15.313ZM17.5001 9.74101C17.55 9.69117 17.6092 9.65165 17.6744 9.6247C17.7396 9.59776 17.8094 9.58391 17.8799 9.58396C17.9505 9.584 18.0203 9.59794 18.0854 9.62497C18.1506 9.65201 18.2097 9.6916 18.2596 9.74151C18.3094 9.79141 18.3489 9.85064 18.3759 9.91581C18.4028 9.98099 18.4167 10.0508 18.4166 10.1214C18.4166 10.1919 18.4026 10.2617 18.3756 10.3269C18.3486 10.392 18.309 10.4512 18.2591 10.501C18.1583 10.6017 18.0217 10.6581 17.8792 10.6581C17.7368 10.658 17.6002 10.6013 17.4996 10.5005C17.3989 10.3997 17.3424 10.2631 17.3425 10.1207C17.3426 9.97822 17.3993 9.84166 17.5001 9.74101Z" fill="#D8F789" />
</svg>