<svg width="72" height="72" viewBox="0 0 72 72" fill="none" xmlns="http://www.w3.org/2000/svg">
<path d="M12.3945 44.7443L9.86941 44.389L12.3945 44.7443ZM13.1534 43.2232L15.0028 44.9789L13.1534 43.2232ZM14.4327 41.8756L12.5833 40.12L14.4327 41.8756ZM14.9939 40.2887L12.4532 40.5068L14.9939 40.2887ZM14.8371 38.4623L17.3777 38.2442L14.8371 38.4623ZM15.1281 35.0112L12.6047 34.6439L15.1281 35.0112ZM15.7935 33.4585L17.8167 35.0107L15.7935 33.4585ZM16.8778 32.0451L14.8546 30.493L16.8778 32.0451ZM18.6149 27.2796L21.159 27.4523L18.6149 27.2796ZM18.7359 25.4965L16.1918 25.3238L18.7359 25.4965ZM19.3623 23.8986L17.372 22.3044L19.3623 23.8986ZM20.4939 22.4857L22.4842 24.0799L20.4939 22.4857ZM21.883 21.8964L21.524 24.421L21.883 21.8964ZM23.5295 22.1305L23.8885 19.6059L23.5295 22.1305ZM27.2644 21.6298L26.7351 19.1353L27.2644 21.6298ZM28.7673 22.1381L26.7227 23.6619L28.7673 22.1381ZM29.2996 22.8524L27.255 24.3762L29.2996 22.8524ZM29.832 23.5667L31.8766 22.0429L29.832 23.5667ZM31.1418 24.6971L29.9386 26.9454L31.1418 24.6971ZM31.9194 25.1132L33.1226 22.8649L31.9194 25.1132ZM32.6969 25.5293L33.9001 23.281L32.6969 25.5293ZM35.9319 30.636L34.4081 32.6806L35.9319 30.636ZM36.6138 31.1441L38.1376 29.0995L36.6138 31.1441ZM37.9759 32.1621L36.4468 34.2028L37.9759 32.1621ZM38.6562 32.6718L40.1853 30.6311L38.6562 32.6718ZM39.3365 33.1815L37.8074 35.2222L39.3365 33.1815ZM40.7761 34.1219L42.0342 31.9039L40.7761 34.1219ZM41.5355 34.5526L40.2775 36.7707L41.5355 34.5526ZM42.2948 34.9833L41.0368 37.2014L42.2948 34.9833ZM43.1816 36.4768L45.7135 36.1732L43.1816 36.4768ZM43.3091 37.5397L40.7772 37.8433L43.3091 37.5397ZM43.4366 38.6025L45.9684 38.2989L43.4366 38.6025ZM46.7444 40.0851L46.4108 42.6132L46.7444 40.0851ZM48.1157 41.0944L50.5166 40.2354L48.1157 41.0944ZM48.7379 42.8334L46.3369 43.6924L48.7379 42.8334ZM49.682 44.3534L47.8545 46.1318L49.682 44.3534ZM50.9481 45.6544L52.7756 43.876L50.9481 45.6544ZM51.027 47.0133L53.0355 48.5844V48.5844L51.027 47.0133ZM50.4729 47.7217L48.4644 46.1506L50.4729 47.7217ZM49.9187 48.4302L47.9102 46.8591L49.9187 48.4302ZM49.1598 50.1663L46.659 49.6679L49.1598 50.1663ZM48.955 51.1939L46.4542 50.6955L48.955 51.1939ZM48.7502 52.2216L51.251 52.72L48.7502 52.2216ZM47.6614 53.4132L48.1262 55.9204L47.6614 53.4132ZM46.7774 53.5771L47.2422 56.0843L46.7774 53.5771ZM45.8934 53.741L45.4285 51.2337L45.8934 53.741ZM44.1841 54.1071L43.5772 51.6304L44.1841 54.1071ZM42.5335 54.5116L41.9266 52.0349L42.5335 54.5116ZM40.9289 55.0394L41.9119 57.3923L40.9289 55.0394ZM40.1496 55.365L39.1665 53.0121V53.0121L40.1496 55.365ZM39.3703 55.6906L40.3533 58.0435V58.0435L39.3703 55.6906ZM37.6457 55.8414L38.1093 53.3339L37.6457 55.8414ZM35.7551 55.4918L36.2187 52.9843L35.7551 55.4918ZM34.1196 55.9075L35.7772 57.8452L34.1196 55.9075ZM32.7392 57.0884L31.0815 55.1507L32.7392 57.0884ZM31.2597 57.9721L30.3715 55.5818L31.2597 57.9721ZM29.6812 58.5587L30.5694 60.949L29.6812 58.5587ZM27.9597 58.7163L27.5927 61.2398L27.9597 58.7163ZM26.0952 58.4451L26.4623 55.9217L26.0952 58.4451ZM24.5414 59.1087L26.5543 60.6742L24.5414 59.1087ZM23.9198 59.9079L25.9327 61.4734L23.9198 59.9079ZM23.2983 60.7071L21.2854 59.1416L23.2983 60.7071ZM21.8175 61.5887L22.0608 64.1271L21.8175 61.5887ZM20.099 61.7535L19.8556 59.2151L20.099 61.7535ZM18.3797 61.8475L18.3451 59.2977L18.3797 61.8475ZM16.6594 61.8708L16.694 64.4206L16.6594 61.8708ZM14.9986 62.2695L16.1081 64.5654L14.9986 62.2695ZM14.1978 62.6565L13.0882 60.3605L14.1978 62.6565ZM13.397 63.0434L14.5066 65.3394L13.397 63.0434ZM11.7685 63.0317L10.6618 65.329L11.7685 63.0317ZM10.1131 62.2342L9.0064 64.5316L10.1131 62.2342ZM9.5881 60.976L7.18294 60.1289L9.5881 60.976ZM10.1935 59.2571L7.78838 58.41L10.1935 59.2571ZM9.98148 57.4683L7.75081 58.7039L9.98148 57.4683ZM8.95189 55.6095L11.1826 54.3739L8.95189 55.6095ZM9.26503 54.0433L7.71034 52.022L9.26503 54.0433ZM10.093 53.4064L11.6477 55.4277L10.093 53.4064ZM10.9209 52.7696L9.36622 50.7484L10.9209 52.7696ZM11.9174 51.3068L14.4159 51.8166L11.9174 51.3068ZM12.2545 49.6549L9.75593 49.1451L12.2545 49.6549ZM12.3265 48.4432L14.8002 47.8241L12.3265 48.4432ZM12.1334 47.6718L9.6597 48.2909L12.1334 47.6718ZM12.2753 45.5916L14.8004 45.9469L14.9197 45.0996L12.3945 44.7443L9.86941 44.389L9.75019 45.2363L12.2753 45.5916ZM12.3945 44.7443L14.9197 45.0996C14.9213 45.0877 14.9228 45.0844 14.9257 45.0787C14.9294 45.0713 14.9474 45.0372 15.0028 44.9789L13.1534 43.2232L11.304 41.4676C10.5451 42.267 10.0293 43.2528 9.86941 44.389L12.3945 44.7443ZM13.1534 43.2232L15.0028 44.9789L15.6424 44.3051L13.793 42.5494L11.9437 40.7938L11.304 41.4676L13.1534 43.2232ZM13.793 42.5494L15.6424 44.3051L16.282 43.6313L14.4327 41.8756L12.5833 40.12L11.9437 40.7938L13.793 42.5494ZM14.4327 41.8756L16.282 43.6313C17.2026 42.6615 17.6502 41.4171 17.5346 40.0706L14.9939 40.2887L12.4532 40.5068C12.4511 40.482 12.4507 40.3992 12.4887 40.2918C12.5264 40.1853 12.5759 40.1278 12.5833 40.12L14.4327 41.8756ZM14.9939 40.2887L17.5346 40.0706L17.4561 39.1574L14.9155 39.3755L12.3748 39.5936L12.4532 40.5068L14.9939 40.2887ZM14.9155 39.3755L17.4561 39.1574L17.3777 38.2442L14.8371 38.4623L12.2964 38.6805L12.3748 39.5936L14.9155 39.3755ZM14.8371 38.4623L17.3777 38.2442C17.341 37.8166 17.3533 37.4273 17.4052 37.0705L14.8818 36.7032L12.3584 36.3358C12.2462 37.1071 12.2286 37.8905 12.2964 38.6805L14.8371 38.4623ZM14.8818 36.7032L17.4052 37.0705L17.5284 36.2245L15.005 35.8572L12.4816 35.4899L12.3584 36.3358L14.8818 36.7032ZM15.005 35.8572L17.5284 36.2245L17.6515 35.3786L15.1281 35.0112L12.6047 34.6439L12.4816 35.4899L15.005 35.8572ZM15.1281 35.0112L17.6515 35.3786C17.6682 35.2642 17.7089 35.1512 17.8167 35.0107L15.7935 33.4585L13.7703 31.9064C13.1552 32.7082 12.7523 33.6303 12.6047 34.6439L15.1281 35.0112ZM15.7935 33.4585L17.8167 35.0107L18.3588 34.304L16.3356 32.7518L14.3124 31.1997L13.7703 31.9064L15.7935 33.4585ZM16.3356 32.7518L18.3588 34.304L18.901 33.5973L16.8778 32.0451L14.8546 30.493L14.3124 31.1997L16.3356 32.7518ZM16.8778 32.0451L18.901 33.5973C19.4139 32.9287 19.8209 32.1976 20.1042 31.4064L17.7036 30.5466L15.3029 29.6868C15.2081 29.9514 15.0646 30.2192 14.8546 30.493L16.8778 32.0451ZM17.7036 30.5466L20.1042 31.4064L20.3878 30.6146L17.9872 29.7547L15.5865 28.8949L15.3029 29.6868L17.7036 30.5466ZM17.9872 29.7547L20.3878 30.6146L20.6714 29.8227L18.2708 28.9629L15.8701 28.1031L15.5865 28.8949L17.9872 29.7547ZM18.2708 28.9629L20.6714 29.8227C20.9446 29.0601 21.1038 28.2665 21.159 27.4523L18.6149 27.2796L16.0708 27.1069C16.0453 27.4813 15.9751 27.8099 15.8701 28.1031L18.2708 28.9629ZM18.6149 27.2796L21.159 27.4523L21.2196 26.5607L18.6754 26.388L16.1313 26.2153L16.0708 27.1069L18.6149 27.2796ZM18.6754 26.388L21.2196 26.5607L21.2801 25.6692L18.7359 25.4965L16.1918 25.3238L16.1313 26.2153L18.6754 26.388ZM18.7359 25.4965L21.2801 25.6692C21.2847 25.6012 21.2962 25.5631 21.3525 25.4927L19.3623 23.8986L17.372 22.3044C16.6739 23.1759 16.2679 24.2031 16.1918 25.3238L18.7359 25.4965ZM19.3623 23.8986L21.3525 25.4927L21.9184 24.7863L19.9281 23.1921L17.9378 21.598L17.372 22.3044L19.3623 23.8986ZM19.9281 23.1921L21.9184 24.7863L22.4842 24.0799L20.4939 22.4857L18.5037 20.8916L17.9378 21.598L19.9281 23.1921ZM20.4939 22.4857L22.4842 24.0799C22.4613 24.1085 22.3478 24.236 22.1201 24.3327C21.8816 24.4338 21.6606 24.4404 21.524 24.421L21.883 21.8964L22.242 19.3718C20.7091 19.1538 19.3841 19.7924 18.5037 20.8916L20.4939 22.4857ZM21.883 21.8964L21.524 24.421L22.3472 24.5381L22.7062 22.0135L23.0652 19.4889L22.242 19.3718L21.883 21.8964ZM22.7062 22.0135L22.3472 24.5381L23.1705 24.6551L23.5295 22.1305L23.8885 19.6059L23.0652 19.4889L22.7062 22.0135ZM23.5295 22.1305L23.1705 24.6551C24.0658 24.7825 24.9684 24.7237 25.8526 24.5361L25.3233 22.0417L24.794 19.5472C24.384 19.6342 24.0908 19.6347 23.8885 19.6059L23.5295 22.1305ZM25.3233 22.0417L25.8526 24.5361L26.8231 24.3302L26.2938 21.8357L25.7645 19.3413L24.794 19.5472L25.3233 22.0417ZM26.2938 21.8357L26.8231 24.3302L27.7937 24.1242L27.2644 21.6298L26.7351 19.1353L25.7645 19.3413L26.2938 21.8357ZM27.2644 21.6298L27.7937 24.1242C27.7806 24.127 27.5877 24.164 27.3083 24.0695C27.0095 23.9684 26.8149 23.7857 26.7227 23.6619L28.7673 22.1381L30.8119 20.6143C30.3648 20.0143 29.7423 19.5089 28.9424 19.2383C28.1621 18.9744 27.3952 18.9953 26.7351 19.1353L27.2644 21.6298ZM28.7673 22.1381L26.7227 23.6619L27.255 24.3762L29.2996 22.8524L31.3443 21.3286L30.8119 20.6143L28.7673 22.1381ZM29.2996 22.8524L27.255 24.3762L27.7873 25.0905L29.832 23.5667L31.8766 22.0429L31.3443 21.3286L29.2996 22.8524ZM29.832 23.5667L27.7873 25.0905C28.3637 25.8639 29.0865 26.4894 29.9386 26.9454L31.1418 24.6971L32.345 22.4488C32.1604 22.35 32.01 22.2219 31.8766 22.0429L29.832 23.5667ZM31.1418 24.6971L29.9386 26.9454L30.7162 27.3615L31.9194 25.1132L33.1226 22.8649L32.345 22.4488L31.1418 24.6971ZM31.9194 25.1132L30.7162 27.3615L31.4937 27.7776L32.6969 25.5293L33.9001 23.281L33.1226 22.8649L31.9194 25.1132ZM32.6969 25.5293L31.4937 27.7776C31.4777 27.7691 31.4528 27.7536 31.4238 27.7295C31.3946 27.7052 31.3677 27.6775 31.345 27.6486C31.297 27.5877 31.2928 27.5546 31.3038 27.5915L33.7478 26.8639L36.1918 26.1364C35.834 24.9343 35.0735 23.909 33.9001 23.281L32.6969 25.5293ZM33.7478 26.8639L31.3038 27.5915L31.5773 28.5101L34.0213 27.7825L36.4653 27.0549L36.1918 26.1364L33.7478 26.8639ZM34.0213 27.7825L31.5773 28.5101L31.8507 29.4286L34.2947 28.701L36.7387 27.9735L36.4653 27.0549L34.0213 27.7825ZM34.2947 28.701L31.8507 29.4286C32.169 30.4976 32.7758 31.464 33.7262 32.1724L35.25 30.1278L36.7739 28.0832C36.7757 28.0845 36.7797 28.0878 36.7841 28.0925C36.7886 28.0972 36.7902 28.0998 36.7892 28.0982C36.7879 28.0964 36.7652 28.0624 36.7387 27.9735L34.2947 28.701ZM35.25 30.1278L33.7262 32.1724L34.4081 32.6806L35.9319 30.636L37.4557 28.5914L36.7739 28.0832L35.25 30.1278ZM35.9319 30.636L34.4081 32.6806L35.0899 33.1887L36.6138 31.1441L38.1376 29.0995L37.4557 28.5914L35.9319 30.636ZM36.6138 31.1441L35.0899 33.1887C35.5427 33.5262 35.995 33.8642 36.4468 34.2028L37.9759 32.1621L39.505 30.1214C39.0497 29.7802 38.5939 29.4396 38.1376 29.0995L36.6138 31.1441ZM37.9759 32.1621L36.4468 34.2028L37.1271 34.7125L38.6562 32.6718L40.1853 30.6311L39.505 30.1214L37.9759 32.1621ZM38.6562 32.6718L37.1271 34.7125L37.8074 35.2222L39.3365 33.1815L40.8656 31.1408L40.1853 30.6311L38.6562 32.6718ZM39.3365 33.1815L37.8074 35.2222C38.3498 35.6286 38.9204 36.001 39.5181 36.34L40.7761 34.1219L42.0342 31.9039C41.6194 31.6686 41.2303 31.4141 40.8656 31.1408L39.3365 33.1815ZM40.7761 34.1219L39.5181 36.34L40.2775 36.7707L41.5355 34.5526L42.7935 32.3345L42.0342 31.9039L40.7761 34.1219ZM41.5355 34.5526L40.2775 36.7707L41.0368 37.2014L42.2948 34.9833L43.5528 32.7652L42.7935 32.3345L41.5355 34.5526ZM42.2948 34.9833L41.0368 37.2014C40.9789 37.1685 40.9141 37.122 40.8511 37.0603C40.7881 36.9986 40.7391 36.9338 40.7036 36.8739C40.633 36.755 40.64 36.699 40.6498 36.7805L43.1816 36.4768L45.7135 36.1732C45.5565 34.8641 44.9249 33.5434 43.5528 32.7652L42.2948 34.9833ZM43.1816 36.4768L40.6498 36.7805L40.7772 37.8433L43.3091 37.5397L45.841 37.236L45.7135 36.1732L43.1816 36.4768ZM43.3091 37.5397L40.7772 37.8433L40.9047 38.9062L43.4366 38.6025L45.9684 38.2989L45.841 37.236L43.3091 37.5397ZM43.4366 38.6025L40.9047 38.9062C40.9964 39.6703 41.2915 40.5263 41.9827 41.2263C42.6741 41.9266 43.5268 42.2326 44.2906 42.3334L44.6242 39.8053L44.9578 37.2772C45.0148 37.2847 45.3162 37.3437 45.6117 37.643C45.907 37.9421 45.9618 38.2434 45.9684 38.2989L43.4366 38.6025ZM44.6242 39.8053L44.2906 42.3334L45.3507 42.4733L45.6843 39.9452L46.0179 37.4171L44.9578 37.2772L44.6242 39.8053ZM45.6843 39.9452L45.3507 42.4733L46.4108 42.6132L46.7444 40.0851L47.078 37.557L46.0179 37.4171L45.6843 39.9452ZM46.7444 40.0851L46.4108 42.6132C46.4451 42.6177 46.3013 42.605 46.1056 42.461C45.8907 42.3028 45.7668 42.0991 45.7147 41.9535L48.1157 41.0944L50.5166 40.2354C50.2571 39.5101 49.801 38.8484 49.129 38.3537C48.4762 37.8733 47.7505 37.6457 47.078 37.557L46.7444 40.0851ZM48.1157 41.0944L45.7147 41.9535L46.0258 42.823L48.4268 41.9639L50.8277 41.1048L50.5166 40.2354L48.1157 41.0944ZM48.4268 41.9639L46.0258 42.823L46.3369 43.6924L48.7379 42.8334L51.1388 41.9743L50.8277 41.1048L48.4268 41.9639ZM48.7379 42.8334L46.3369 43.6924C46.6652 44.6099 47.1732 45.4316 47.8545 46.1318L49.682 44.3534L51.5095 42.5749C51.3468 42.4077 51.2253 42.2161 51.1388 41.9743L48.7379 42.8334ZM49.682 44.3534L47.8545 46.1318L48.4876 46.7823L50.3151 45.0039L52.1425 43.2254L51.5095 42.5749L49.682 44.3534ZM50.3151 45.0039L48.4876 46.7823L49.1206 47.4328L50.9481 45.6544L52.7756 43.876L52.1425 43.2254L50.3151 45.0039ZM50.9481 45.6544L49.1206 47.4328C49.0483 47.3585 48.7715 47.032 48.7387 46.4672C48.7056 45.8982 48.946 45.5349 49.0185 45.4422L51.027 47.0133L53.0355 48.5844C53.4775 48.0195 53.8894 47.1936 53.8301 46.1716C53.771 45.1538 53.27 44.384 52.7756 43.876L50.9481 45.6544ZM51.027 47.0133L49.0185 45.4422L48.4644 46.1506L50.4729 47.7217L52.4814 49.2929L53.0355 48.5844L51.027 47.0133ZM50.4729 47.7217L48.4644 46.1506L47.9102 46.8591L49.9187 48.4302L51.9272 50.0013L52.4814 49.2929L50.4729 47.7217ZM49.9187 48.4302L47.9102 46.8591C47.2575 47.6935 46.8606 48.6561 46.659 49.6679L49.1598 50.1663L51.6606 50.6647C51.732 50.3062 51.8411 50.1114 51.9272 50.0013L49.9187 48.4302ZM49.1598 50.1663L46.659 49.6679L46.4542 50.6955L48.955 51.1939L51.4558 51.6923L51.6606 50.6647L49.1598 50.1663ZM48.955 51.1939L46.4542 50.6955L46.2493 51.7232L48.7502 52.2216L51.251 52.72L51.4558 51.6923L48.955 51.1939ZM48.7502 52.2216L46.2493 51.7232C46.2454 51.7431 46.2804 51.546 46.4931 51.3132C46.7285 51.0556 47.011 50.9403 47.1965 50.9059L47.6614 53.4132L48.1262 55.9204C48.901 55.7768 49.6597 55.4083 50.258 54.7534C50.8336 54.1235 51.1184 53.3853 51.251 52.72L48.7502 52.2216ZM47.6614 53.4132L47.1965 50.9059L46.3125 51.0698L46.7774 53.5771L47.2422 56.0843L48.1262 55.9204L47.6614 53.4132ZM46.7774 53.5771L46.3125 51.0698L45.4285 51.2337L45.8934 53.741L46.3582 56.2482L47.2422 56.0843L46.7774 53.5771ZM45.8934 53.741L45.4285 51.2337C44.7943 51.3513 44.177 51.4834 43.5772 51.6304L44.1841 54.1071L44.791 56.5838C45.2915 56.4612 45.8138 56.3492 46.3582 56.2482L45.8934 53.741ZM44.1841 54.1071L43.5772 51.6304L42.7519 51.8326L43.3588 54.3093L43.9657 56.7861L44.791 56.5838L44.1841 54.1071ZM43.3588 54.3093L42.7519 51.8326L41.9266 52.0349L42.5335 54.5116L43.1404 56.9883L43.9657 56.7861L43.3588 54.3093ZM42.5335 54.5116L41.9266 52.0349C41.2487 52.2009 40.5881 52.4182 39.9458 52.6865L40.9289 55.0394L41.9119 57.3923C42.3087 57.2265 42.7178 57.0919 43.1404 56.9883L42.5335 54.5116ZM40.9289 55.0394L39.9458 52.6865L39.1665 53.0121L40.1496 55.365L41.1326 57.7179L41.9119 57.3923L40.9289 55.0394ZM40.1496 55.365L39.1665 53.0121L38.3872 53.3377L39.3703 55.6906L40.3533 58.0435L41.1326 57.7179L40.1496 55.365ZM39.3703 55.6906L38.3872 53.3377C38.3856 53.3384 38.3217 53.3732 38.1093 53.3339L37.6457 55.8414L37.1821 58.3489C38.23 58.5426 39.3159 58.4769 40.3533 58.0435L39.3703 55.6906ZM37.6457 55.8414L38.1093 53.3339L37.164 53.1591L36.7004 55.6666L36.2368 58.1741L37.1821 58.3489L37.6457 55.8414ZM36.7004 55.6666L37.164 53.1591L36.2187 52.9843L35.7551 55.4918L35.2915 57.9993L36.2368 58.1741L36.7004 55.6666ZM35.7551 55.4918L36.2187 52.9843C34.8825 52.7373 33.5451 53.0432 32.4619 53.9698L34.1196 55.9075L35.7772 57.8452C35.7329 57.8831 35.6373 57.9453 35.5016 57.9798C35.3706 58.0131 35.2881 57.9987 35.2915 57.9993L35.7551 55.4918ZM34.1196 55.9075L32.4619 53.9698L31.7717 54.5602L33.4294 56.4979L35.087 58.4356L35.7772 57.8452L34.1196 55.9075ZM33.4294 56.4979L31.7717 54.5602L31.0815 55.1507L32.7392 57.0884L34.3968 59.0261L35.087 58.4356L33.4294 56.4979ZM32.7392 57.0884L31.0815 55.1507C30.8313 55.3648 30.5952 55.4987 30.3715 55.5818L31.2597 57.9721L32.148 60.3624C32.9766 60.0545 33.7269 59.5992 34.3968 59.0261L32.7392 57.0884ZM31.2597 57.9721L30.3715 55.5818L29.5823 55.8751L30.4705 58.2654L31.3587 60.6557L32.148 60.3624L31.2597 57.9721ZM30.4705 58.2654L29.5823 55.8751L28.793 56.1683L29.6812 58.5587L30.5694 60.949L31.3587 60.6557L30.4705 58.2654ZM29.6812 58.5587L28.793 56.1683C28.7133 56.198 28.5765 56.2292 28.3268 56.1929L27.9597 58.7163L27.5927 61.2398C28.586 61.3843 29.5968 61.3104 30.5694 60.949L29.6812 58.5587ZM27.9597 58.7163L28.3268 56.1929L27.3945 56.0573L27.0275 58.5807L26.6604 61.1042L27.5927 61.2398L27.9597 58.7163ZM27.0275 58.5807L27.3945 56.0573L26.4623 55.9217L26.0952 58.4451L25.7282 60.9686L26.6604 61.1042L27.0275 58.5807ZM26.0952 58.4451L26.4623 55.9217C24.8528 55.6875 23.4546 56.3525 22.5285 57.5432L24.5414 59.1087L26.5543 60.6742C26.5485 60.6816 26.453 60.7983 26.2422 60.8883C26.0217 60.9825 25.8264 60.9828 25.7282 60.9686L26.0952 58.4451ZM24.5414 59.1087L22.5285 57.5432L21.907 58.3424L23.9198 59.9079L25.9327 61.4734L26.5543 60.6742L24.5414 59.1087ZM23.9198 59.9079L21.907 58.3424L21.2854 59.1416L23.2983 60.7071L25.3112 62.2726L25.9327 61.4734L23.9198 59.9079ZM23.2983 60.7071L21.2854 59.1416C21.2398 59.2003 21.2433 59.1774 21.3128 59.136C21.347 59.1157 21.39 59.0953 21.4396 59.079C21.4891 59.0628 21.5354 59.0541 21.5741 59.0503L21.8175 61.5887L22.0608 64.1271C23.4536 63.9935 24.547 63.2551 25.3112 62.2726L23.2983 60.7071ZM21.8175 61.5887L21.5741 59.0503L20.7149 59.1327L20.9582 61.6711L21.2016 64.2094L22.0608 64.1271L21.8175 61.5887ZM20.9582 61.6711L20.7149 59.1327L19.8556 59.2151L20.099 61.7535L20.3424 64.2918L21.2016 64.2094L20.9582 61.6711ZM20.099 61.7535L19.8556 59.2151C19.352 59.2634 18.8485 59.2909 18.3451 59.2977L18.3797 61.8475L18.4142 64.3973C19.0576 64.3885 19.7004 64.3534 20.3424 64.2918L20.099 61.7535ZM18.3797 61.8475L18.3451 59.2977L17.485 59.3094L17.5196 61.8592L17.5541 64.4089L18.4142 64.3973L18.3797 61.8475ZM17.5196 61.8592L17.485 59.3094L16.6249 59.321L16.6594 61.8708L16.694 64.4206L17.5541 64.4089L17.5196 61.8592ZM16.6594 61.8708L16.6249 59.321C15.6661 59.334 14.7466 59.559 13.889 59.9735L14.9986 62.2695L16.1081 64.5654C16.3182 64.4639 16.506 64.4231 16.694 64.4206L16.6594 61.8708ZM14.9986 62.2695L13.889 59.9735L13.0882 60.3605L14.1978 62.6565L15.3074 64.9524L16.1081 64.5654L14.9986 62.2695ZM14.1978 62.6565L13.0882 60.3605L12.2875 60.7475L13.397 63.0434L14.5066 65.3394L15.3074 64.9524L14.1978 62.6565ZM13.397 63.0434L12.2875 60.7475C12.3391 60.7225 12.4538 60.683 12.6079 60.6841C12.7592 60.6852 12.8553 60.7248 12.8752 60.7344L11.7685 63.0317L10.6618 65.329C11.8871 65.9193 13.2464 65.9484 14.5066 65.3394L13.397 63.0434ZM11.7685 63.0317L12.8752 60.7344L12.0475 60.3356L10.9408 62.633L9.83412 64.9303L10.6618 65.329L11.7685 63.0317ZM10.9408 62.633L12.0475 60.3356L11.2198 59.9369L10.1131 62.2342L9.0064 64.5316L9.83412 64.9303L10.9408 62.633ZM10.1131 62.2342L11.2198 59.9369C11.3086 59.9797 11.6954 60.1969 11.9213 60.7383C12.1488 61.2835 12.0302 61.7183 11.9933 61.8232L9.5881 60.976L7.18294 60.1289C6.94416 60.8068 6.81217 61.7377 7.21464 62.7023C7.61554 63.6631 8.3658 64.223 9.0064 64.5316L10.1131 62.2342ZM9.5881 60.976L11.9933 61.8232L12.296 60.9638L9.89082 60.1166L7.48566 59.2694L7.18294 60.1289L9.5881 60.976ZM9.89082 60.1166L12.296 60.9638L12.5987 60.1043L10.1935 59.2571L7.78838 58.41L7.48566 59.2694L9.89082 60.1166ZM10.1935 59.2571L12.5987 60.1043C13.0836 58.7277 12.8439 57.3733 12.2121 56.2327L9.98148 57.4683L7.75081 58.7039C7.79045 58.7754 7.76954 58.764 7.75962 58.6804C7.75476 58.6394 7.75386 58.5909 7.7597 58.5389C7.76552 58.4869 7.77677 58.443 7.78838 58.41L10.1935 59.2571ZM9.98148 57.4683L12.2121 56.2327L11.6974 55.3033L9.46668 56.5389L7.23601 57.7745L7.75081 58.7039L9.98148 57.4683ZM9.46668 56.5389L11.6974 55.3033L11.1826 54.3739L8.95189 55.6095L6.72122 56.8451L7.23601 57.7745L9.46668 56.5389ZM8.95189 55.6095L11.1826 54.3739C11.206 54.4162 11.3738 54.7506 11.2733 55.2532C11.1713 55.7631 10.8791 56.0188 10.8197 56.0645L9.26503 54.0433L7.71034 52.022C7.09897 52.4923 6.4786 53.2213 6.27227 54.2533C6.06742 55.2779 6.35459 56.1831 6.72122 56.8451L8.95189 55.6095ZM9.26503 54.0433L10.8197 56.0645L11.6477 55.4277L10.093 53.4064L8.53828 51.3852L7.71034 52.022L9.26503 54.0433ZM10.093 53.4064L11.6477 55.4277L12.4756 54.7909L10.9209 52.7696L9.36622 50.7484L8.53828 51.3852L10.093 53.4064ZM10.9209 52.7696L12.4756 54.7909C13.3932 54.0851 14.1536 53.1021 14.4159 51.8166L11.9174 51.3068L9.41886 50.797C9.42551 50.7644 9.43555 50.7327 9.44771 50.7043C9.45975 50.6762 9.47103 50.6579 9.47651 50.6499C9.48709 50.6344 9.46565 50.6719 9.36622 50.7484L10.9209 52.7696ZM11.9174 51.3068L14.4159 51.8166L14.5844 50.9907L12.0859 50.4808L9.5874 49.971L9.41886 50.797L11.9174 51.3068ZM12.0859 50.4808L14.5844 50.9907L14.753 50.1647L12.2545 49.6549L9.75593 49.1451L9.5874 49.971L12.0859 50.4808ZM12.2545 49.6549L14.753 50.1647C14.8747 49.5679 15.0135 48.6765 14.8002 47.8241L12.3265 48.4432L9.85276 49.0623C9.82277 48.9425 9.81515 48.8559 9.8129 48.8189C9.81052 48.78 9.81242 48.7674 9.81121 48.7877C9.81007 48.8069 9.80672 48.8462 9.79778 48.9088C9.78893 48.9708 9.77554 49.049 9.75593 49.1451L12.2545 49.6549ZM12.3265 48.4432L14.8002 47.8241L14.7036 47.4384L12.2299 48.0575L9.75623 48.6766L9.85276 49.0623L12.3265 48.4432ZM12.2299 48.0575L14.7036 47.4384L14.6071 47.0527L12.1334 47.6718L9.6597 48.2909L9.75623 48.6766L12.2299 48.0575ZM12.1334 47.6718L14.6071 47.0527C14.6315 47.1501 14.6379 47.2156 14.6395 47.2342C14.6412 47.255 14.6398 47.2515 14.6404 47.2177C14.6417 47.1462 14.6508 47.0104 14.6812 46.7942L12.1561 46.4389L9.63097 46.0836C9.54631 46.6852 9.46679 47.5201 9.6597 48.2909L12.1334 47.6718ZM12.1561 46.4389L14.6812 46.7942L14.8004 45.9469L12.2753 45.5916L9.75019 45.2363L9.63097 46.0836L12.1561 46.4389Z" fill="#D8F789"/>
<path d="M34.1588 55.142C34.2162 56.5491 35.4034 57.6433 36.8106 57.586C38.2177 57.5286 39.3119 56.3414 39.2546 54.9342L36.7067 55.0381L34.1588 55.142ZM36.7026 54.9382L39.2505 54.8343L39.2274 54.2689L38.9674 53.7664L36.7026 54.9382ZM35.9337 53.4521L33.6689 54.6239L35.9337 53.4521ZM35.3586 51.0606L37.8521 51.5941L35.3586 51.0606ZM35.5523 50.1551L38.0459 50.6886L35.5523 50.1551ZM35.746 49.2497L33.2525 48.7161L35.746 49.2497ZM35.4575 47.5692L33.2925 48.9166L35.4575 47.5692ZM34.9752 46.7943L37.1401 45.4469L34.9752 46.7943ZM34.4928 46.0193L32.3279 47.3667L34.4928 46.0193ZM33.8677 44.3658L31.3508 44.7749L33.8677 44.3658ZM33.5821 42.6086L31.0651 43.0177L33.5821 42.6086ZM33.8598 40.9301L31.6028 39.7434L33.8598 40.9301ZM34.701 39.3302L36.958 40.5169L34.701 39.3302ZM35.3285 37.7154L32.8569 37.0878L35.3285 37.7154ZM35.5354 36.9006L38.007 37.5283L35.5354 36.9006ZM35.7424 36.0858L33.2708 35.4582L35.7424 36.0858ZM36.1386 34.5263L33.6673 33.898L36.1386 34.5263ZM36.328 33.7816L33.8659 33.1178L33.8611 33.1355L33.8566 33.1532L36.328 33.7816ZM36.7026 32.392L39.1647 33.0558L39.2389 32.7806L39.2505 32.4959L36.7026 32.392ZM39.2546 32.396C39.312 30.9889 38.2178 29.8016 36.8106 29.7442C35.4035 29.6868 34.2162 30.781 34.1588 32.1881L36.7067 32.2921L39.2546 32.396ZM21.6619 58.7304C21.8156 60.1303 23.0751 61.1406 24.475 60.9868C25.8749 60.8331 26.8852 59.5736 26.7314 58.1737L24.1967 58.4521L21.6619 58.7304ZM24.1858 58.3527L26.7205 58.0743L26.691 57.8059L26.606 57.5497L24.1858 58.3527ZM23.8431 52.5384L21.3736 51.9029L23.8431 52.5384ZM23.3884 50.8986L25.2616 49.1683L23.3884 50.8986ZM22.7028 50.1563L24.5759 48.426L22.7028 50.1563ZM22.0171 49.414L20.1439 51.1443L22.0171 49.414ZM21.3526 47.8104L18.8034 47.7476L21.3526 47.8104ZM21.6404 44.3772L19.1748 43.7266L21.6404 44.3772ZM21.8645 43.5279L24.3301 44.1784L21.8645 43.5279ZM22.0886 42.6785L19.623 42.0279L22.0886 42.6785ZM22.1608 40.9829L19.6509 41.4337L22.1608 40.9829ZM21.8568 39.2905L19.3469 39.7413L21.8568 39.2905ZM22.5028 35.9786L20.0767 35.1934L22.5028 35.9786ZM22.9393 33.4898L20.4025 33.2303L22.9393 33.4898ZM23.4602 31.0282L25.7934 32.0571L23.4602 31.0282ZM23.9959 26.8597L21.546 27.5672L23.9959 26.8597ZM23.7381 25.9672L21.2883 26.6748V26.6748L23.7381 25.9672ZM23.8385 23.5669L21.3624 22.9577L21.3599 22.9677L21.3576 22.9777L23.8385 23.5669ZM24.1851 22.1584L26.6613 22.7677L26.6996 22.6121L26.7181 22.4529L24.1851 22.1584ZM26.7296 22.3536C26.8923 20.9547 25.8901 19.6888 24.4912 19.5261C23.0923 19.3635 21.8264 20.3657 21.6637 21.7646L24.1967 22.0591L26.7296 22.3536ZM36.7067 55.0381L39.2546 54.9342L39.2505 54.8343L36.7026 54.9382L34.1547 55.0421L34.1588 55.142L36.7067 55.0381ZM36.7026 54.9382L38.9674 53.7664L38.1985 52.2803L35.9337 53.4521L33.6689 54.6239L34.4378 56.11L36.7026 54.9382ZM35.9337 53.4521L38.1985 52.2803C38.0053 51.9068 37.9189 51.6568 37.8848 51.5149C37.8502 51.371 37.8891 51.4216 37.8521 51.5941L35.3586 51.0606L32.865 50.5271C32.5459 52.0186 33.0793 53.4843 33.6689 54.6239L35.9337 53.4521ZM35.3586 51.0606L37.8521 51.5941L38.0459 50.6886L35.5523 50.1551L33.0587 49.6216L32.865 50.5271L35.3586 51.0606ZM35.5523 50.1551L38.0459 50.6886L38.2396 49.7832L35.746 49.2497L33.2525 48.7161L33.0587 49.6216L35.5523 50.1551ZM35.746 49.2497L38.2396 49.7832C38.5047 48.5441 38.2985 47.3082 37.6224 46.2218L35.4575 47.5692L33.2925 48.9166C33.2935 48.9182 33.2872 48.9082 33.279 48.8871C33.2707 48.8657 33.2628 48.8387 33.2575 48.8084C33.2461 48.7419 33.255 48.7043 33.2525 48.7161L35.746 49.2497ZM35.4575 47.5692L37.6224 46.2218L37.1401 45.4469L34.9752 46.7943L32.8102 48.1417L33.2925 48.9166L35.4575 47.5692ZM34.9752 46.7943L37.1401 45.4469L36.6578 44.6719L34.4928 46.0193L32.3279 47.3667L32.8102 48.1417L34.9752 46.7943ZM34.4928 46.0193L36.6578 44.6719C36.5099 44.4342 36.4244 44.2008 36.3847 43.9566L33.8677 44.3658L31.3508 44.7749C31.5015 45.7021 31.8328 46.5711 32.3279 47.3667L34.4928 46.0193ZM33.8677 44.3658L36.3847 43.9566L36.2419 43.078L33.7249 43.4872L31.2079 43.8963L31.3508 44.7749L33.8677 44.3658ZM33.7249 43.4872L36.2419 43.078L36.0991 42.1994L33.5821 42.6086L31.0651 43.0177L31.2079 43.8963L33.7249 43.4872ZM33.5821 42.6086L36.0991 42.1994C36.0961 42.1815 36.0959 42.1716 36.0959 42.1683C36.0959 42.1652 36.0961 42.1649 36.0959 42.1659C36.0958 42.1669 36.096 42.1648 36.0981 42.1586C36.1003 42.1521 36.1056 42.1383 36.1169 42.1167L33.8598 40.9301L31.6028 39.7434C31.0692 40.7582 30.8797 41.877 31.0651 43.0177L33.5821 42.6086ZM33.8598 40.9301L36.1169 42.1167L36.5375 41.3168L34.2804 40.1301L32.0234 38.9435L31.6028 39.7434L33.8598 40.9301ZM34.2804 40.1301L36.5375 41.3168L36.958 40.5169L34.701 39.3302L32.4439 38.1435L32.0234 38.9435L34.2804 40.1301ZM34.701 39.3302L36.958 40.5169C37.3247 39.8195 37.6092 39.0944 37.8 38.3431L35.3285 37.7154L32.8569 37.0878C32.7718 37.4229 32.638 37.7743 32.4439 38.1435L34.701 39.3302ZM35.3285 37.7154L37.8 38.3431L38.007 37.5283L35.5354 36.9006L33.0639 36.273L32.8569 37.0878L35.3285 37.7154ZM35.5354 36.9006L38.007 37.5283L38.2139 36.7135L35.7424 36.0858L33.2708 35.4582L33.0639 36.273L35.5354 36.9006ZM35.7424 36.0858L38.2139 36.7135C38.3518 36.1705 38.4838 35.6509 38.61 35.1546L36.1386 34.5263L33.6673 33.898C33.541 34.3947 33.4088 34.9148 33.2708 35.4582L35.7424 36.0858ZM36.1386 34.5263L38.61 35.1546L38.7994 34.4099L36.328 33.7816L33.8566 33.1532L33.6673 33.898L36.1386 34.5263ZM36.328 33.7816L38.7901 34.4453L39.1647 33.0558L36.7026 32.392L34.2405 31.7282L33.8659 33.1178L36.328 33.7816ZM36.7026 32.392L39.2505 32.4959L39.2546 32.396L36.7067 32.2921L34.1588 32.1881L34.1547 32.2881L36.7026 32.392ZM24.1967 58.4521L26.7314 58.1737L26.7205 58.0743L24.1858 58.3527L21.651 58.631L21.6619 58.7304L24.1967 58.4521ZM24.1858 58.3527L26.606 57.5497L26.0882 55.9889L23.6679 56.7919L21.2477 57.5949L21.7655 59.1557L24.1858 58.3527ZM23.6679 56.7919L26.0882 55.9889C25.9536 55.5833 25.8925 55.293 25.8701 55.1015C25.8472 54.905 25.8732 54.8815 25.8506 54.9692L23.3811 54.3336L20.9116 53.698C20.5733 55.0124 20.8523 56.4032 21.2477 57.5949L23.6679 56.7919ZM23.3811 54.3336L25.8506 54.9692L26.0817 54.0716L23.6121 53.436L21.1426 52.8004L20.9116 53.698L23.3811 54.3336ZM23.6121 53.436L26.0817 54.0716L26.3127 53.174L23.8431 52.5384L21.3736 51.9029L21.1426 52.8004L23.6121 53.436ZM23.8431 52.5384L26.3127 53.174C26.7047 51.6506 26.2432 50.2309 25.2616 49.1683L23.3884 50.8986L21.5153 52.6289C21.5199 52.6338 21.4389 52.5459 21.3877 52.361C21.3336 52.1661 21.3495 51.9964 21.3736 51.9029L23.8431 52.5384ZM23.3884 50.8986L25.2616 49.1683L24.5759 48.426L22.7028 50.1563L20.8296 51.8866L21.5153 52.6289L23.3884 50.8986ZM22.7028 50.1563L24.5759 48.426L23.8902 47.6837L22.0171 49.414L20.1439 51.1443L20.8296 51.8866L22.7028 50.1563ZM22.0171 49.414L23.8902 47.6837C23.8328 47.6215 23.8422 47.6136 23.8639 47.6658C23.8745 47.6914 23.8853 47.7251 23.8927 47.7649C23.9002 47.8047 23.9026 47.8419 23.9018 47.8733L21.3526 47.8104L18.8034 47.7476C18.7701 49.0982 19.3204 50.2527 20.1439 51.1443L22.0171 49.414ZM21.3526 47.8104L23.9018 47.8733L23.9231 47.012L21.3738 46.9491L18.8246 46.8863L18.8034 47.7476L21.3526 47.8104ZM21.3738 46.9491L23.9231 47.012L23.9443 46.1507L21.3951 46.0879L18.8458 46.025L18.8246 46.8863L21.3738 46.9491ZM21.3951 46.0879L23.9443 46.1507C23.9535 45.7789 24.0063 45.4058 24.106 45.0278L21.6404 44.3772L19.1748 43.7266C18.9757 44.4811 18.865 45.2484 18.8458 46.025L21.3951 46.0879ZM21.6404 44.3772L24.106 45.0278L24.3301 44.1784L21.8645 43.5279L19.3989 42.8773L19.1748 43.7266L21.6404 44.3772ZM21.8645 43.5279L24.3301 44.1784L24.5543 43.3291L22.0886 42.6785L19.623 42.0279L19.3989 42.8773L21.8645 43.5279ZM22.0886 42.6785L24.5543 43.3291C24.7964 42.4114 24.8391 41.4703 24.6706 40.5321L22.1608 40.9829L19.6509 41.4337C19.6851 41.6238 19.6797 41.8132 19.623 42.0279L22.0886 42.6785ZM22.1608 40.9829L24.6706 40.5321L24.5186 39.6859L22.0088 40.1367L19.4989 40.5875L19.6509 41.4337L22.1608 40.9829ZM22.0088 40.1367L24.5186 39.6859L24.3666 38.8396L21.8568 39.2905L19.3469 39.7413L19.4989 40.5875L22.0088 40.1367ZM21.8568 39.2905L24.3666 38.8396C24.3397 38.6902 24.348 38.5586 24.3969 38.4076L21.9708 37.6223L19.5447 36.8371C19.2389 37.7819 19.1711 38.7624 19.3469 39.7413L21.8568 39.2905ZM21.9708 37.6223L24.3969 38.4076L24.6629 37.5857L22.2368 36.8005L19.8107 36.0152L19.5447 36.8371L21.9708 37.6223ZM22.2368 36.8005L24.6629 37.5857L24.9289 36.7638L22.5028 35.9786L20.0767 35.1934L19.8107 36.0152L22.2368 36.8005ZM22.5028 35.9786L24.9289 36.7638C25.1598 36.0504 25.3151 35.3225 25.3908 34.5827L22.854 34.3232L20.3173 34.0638C20.2793 34.4353 20.2005 34.811 20.0767 35.1934L22.5028 35.9786ZM22.854 34.3232L25.3908 34.5827L25.4761 33.7492L22.9393 33.4898L20.4025 33.2303L20.3173 34.0638L22.854 34.3232ZM22.9393 33.4898L25.4761 33.7492L25.5613 32.9158L23.0246 32.6563L20.4878 32.3968L20.4025 33.2303L22.9393 33.4898ZM23.0246 32.6563L25.5613 32.9158C25.59 32.6352 25.6636 32.3516 25.7934 32.0571L23.4602 31.0282L21.127 29.9994C20.7896 30.7643 20.5728 31.566 20.4878 32.3968L23.0246 32.6563ZM23.4602 31.0282L25.7934 32.0571L26.1438 31.2625L23.8106 30.2336L21.4773 29.2048L21.127 29.9994L23.4602 31.0282ZM23.8106 30.2336L26.1438 31.2625L26.4942 30.4679L24.1609 29.4391L21.8277 28.4102L21.4773 29.2048L23.8106 30.2336ZM24.1609 29.4391L26.4942 30.4679C26.9866 29.3513 27.0288 28.1709 26.7035 27.0446L24.2536 27.7521L21.8037 28.4596C21.8113 28.4857 21.813 28.4989 21.8132 28.5004C21.8133 28.5017 21.8124 28.4943 21.8131 28.4802C21.8139 28.466 21.8162 28.4504 21.8198 28.4355C21.8234 28.4207 21.827 28.4119 21.8277 28.4102L24.1609 29.4391ZM24.2536 27.7521L26.7035 27.0446L26.4457 26.1521L23.9959 26.8597L21.546 27.5672L21.8037 28.4596L24.2536 27.7521ZM23.9959 26.8597L26.4457 26.1521L26.188 25.2597L23.7381 25.9672L21.2883 26.6748L21.546 27.5672L23.9959 26.8597ZM23.7381 25.9672L26.188 25.2597C26.1504 25.1293 26.1392 25.0405 26.1367 24.9877C26.1343 24.9371 26.1394 24.9144 26.1404 24.9101L23.6595 24.3209L21.1785 23.7316C20.9391 24.7396 21.0187 25.7413 21.2883 26.6748L23.7381 25.9672ZM23.6595 24.3209L26.1404 24.9101L26.3195 24.1562L23.8385 23.5669L21.3576 22.9777L21.1785 23.7316L23.6595 24.3209ZM23.8385 23.5669L26.3147 24.1762L26.6613 22.7677L24.1851 22.1584L21.709 21.5491L21.3624 22.9577L23.8385 23.5669ZM24.1851 22.1584L26.7181 22.4529L26.7296 22.3536L24.1967 22.0591L21.6637 21.7646L21.6522 21.8639L24.1851 22.1584Z" fill="#D8F789"/>
<path d="M40.6832 13.188C41.2862 12.588 41.5892 12.285 41.9372 12.174C42.232 12.0806 42.5485 12.0806 42.8432 12.174C43.1912 12.285 43.4942 12.585 44.0972 13.188C44.6972 13.794 45.0002 14.094 45.1112 14.442C45.2046 14.7368 45.2046 15.0532 45.1112 15.348C45.0002 15.699 44.7002 15.999 44.0972 16.602C43.4942 17.205 43.1912 17.508 42.8432 17.619C42.5485 17.7124 42.232 17.7124 41.9372 17.619C41.5892 17.508 41.2862 17.205 40.6832 16.602C40.0802 16.002 39.7772 15.699 39.6692 15.348C39.5759 15.0532 39.5759 14.7368 39.6692 14.442C39.7772 14.094 40.0802 13.794 40.6832 13.188ZM58.4042 22.404C59.1422 21.669 59.5082 21.3 59.9252 21.141C60.4109 20.9541 60.9486 20.9541 61.4342 21.141C61.8482 21.3 62.2172 21.669 62.9552 22.404C63.6902 23.142 64.0592 23.508 64.2182 23.925C64.4052 24.4106 64.4052 24.9484 64.2182 25.434C64.0592 25.848 63.6902 26.217 62.9552 26.955C62.2172 27.69 61.8482 28.059 61.4342 28.218C60.9486 28.405 60.4109 28.405 59.9252 28.218C59.5082 28.059 59.1422 27.69 58.4042 26.955C57.6692 26.217 57.3002 25.848 57.1412 25.434C56.9543 24.9484 56.9543 24.4106 57.1412 23.925C57.3002 23.508 57.6692 23.142 58.4042 22.404ZM20.7812 11.82C20.9309 11.6705 21.1086 11.552 21.3042 11.4711C21.4997 11.3903 21.7092 11.3487 21.9208 11.3489C22.1324 11.349 22.3419 11.3908 22.5373 11.4719C22.7327 11.553 22.9102 11.6718 23.0597 11.8215C23.2092 11.9712 23.3278 12.1489 23.4086 12.3444C23.4895 12.54 23.531 12.7495 23.5309 12.9611C23.5307 13.1727 23.4889 13.3821 23.4078 13.5776C23.3267 13.773 23.2079 13.9505 23.0582 14.1C22.7559 14.402 22.346 14.5714 21.9187 14.5712C21.4914 14.5709 21.0817 14.4009 20.7797 14.0985C20.4778 13.7962 20.3083 13.3863 20.3086 12.959C20.3089 12.5317 20.4789 12.122 20.7812 11.82ZM57.1742 45.939C57.3237 45.7895 57.5012 45.6709 57.6966 45.59C57.8919 45.5091 58.1013 45.4674 58.3127 45.4674C58.5242 45.4674 58.7335 45.5091 58.9289 45.59C59.1242 45.6709 59.3017 45.7895 59.4512 45.939C59.6007 46.0885 59.7193 46.266 59.8003 46.4614C59.8812 46.6567 59.9228 46.8661 59.9228 47.0775C59.9228 47.289 59.8812 47.4983 59.8003 47.6937C59.7193 47.889 59.6007 48.0665 59.4512 48.216C59.1493 48.518 58.7398 48.6876 58.3127 48.6876C57.8857 48.6876 57.4762 48.518 57.1742 48.216C56.8723 47.9141 56.7027 47.5045 56.7027 47.0775C56.7027 46.6505 56.8723 46.241 57.1742 45.939ZM52.5002 29.223C52.6499 29.0735 52.8276 28.955 53.0232 28.8741C53.2187 28.7933 53.4282 28.7517 53.6398 28.7519C53.8514 28.752 54.0609 28.7938 54.2563 28.8749C54.4517 28.956 54.6292 29.0748 54.7787 29.2245C54.9282 29.3742 55.0468 29.5519 55.1276 29.7474C55.2085 29.943 55.25 30.1525 55.2499 30.3641C55.2497 30.5757 55.2079 30.7851 55.1268 30.9806C55.0457 31.176 54.9269 31.3535 54.7772 31.503C54.4749 31.805 54.065 31.9744 53.6377 31.9742C53.2104 31.9739 52.8007 31.8039 52.4987 31.5015C52.1968 31.1992 52.0273 30.7893 52.0276 30.362C52.0279 29.9347 52.1979 29.525 52.5002 29.223Z" fill="#D8F789"/>
<path d="M42.1779 27.2436C41.3968 28.4155 41.7136 29.9987 42.8855 30.7798C44.0574 31.5608 45.6406 31.244 46.4217 30.0722L44.2998 28.6579L42.1779 27.2436ZM44.3553 28.5747L46.4771 29.989L47.1648 28.9572L46.778 27.7792L44.3553 28.5747ZM44.9346 26.5952L45.9502 28.9342L44.9346 26.5952ZM45.5269 25.1219L47.8253 24.0175L45.5269 25.1219ZM45.2977 23.227L47.7493 23.9285L45.2977 23.227ZM46.6179 22.3937L46.7505 19.8472L46.6179 22.3937ZM48.3625 22.1815L49.2983 24.5536L48.3625 22.1815ZM49.3577 21.0373L46.9593 20.171L49.3577 21.0373ZM50.3176 19.9429L51.1354 22.3582L50.3176 19.9429ZM52.2767 19.7066L52.2408 17.1569L52.2767 19.7066ZM52.5175 18.4496L50.5918 20.1212L52.5175 18.4496ZM52.0491 16.6329L50.2899 14.787L52.0491 16.6329ZM52.5648 14.8447L53.3455 12.4171L53.2073 12.3727L53.0649 12.3442L52.5648 14.8447ZM53.3403 15.0941L52.5596 17.5217L54.3937 18.1115L55.4622 16.5084L53.3403 15.0941ZM55.5177 16.4252C56.2987 15.2533 55.9819 13.6701 54.8101 12.889C53.6382 12.1079 52.055 12.4247 51.2739 13.5966L53.3958 15.0109L55.5177 16.4252ZM53.3314 32.853C51.9254 32.9333 50.8507 34.1382 50.9309 35.5443C51.0112 36.9503 52.2161 38.025 53.6222 37.9447L53.4768 35.3989L53.3314 32.853ZM53.5766 35.3932L54.3289 32.9567L53.8899 32.8211L53.4313 32.8473L53.5766 35.3932ZM55.5219 36.4446L53.6903 38.2187L55.5219 36.4446ZM60.0188 36.2352L62.546 36.5756L60.0188 36.2352ZM60.756 34.4078L62.5603 36.2097L60.756 34.4078ZM62.2574 34.6162L63.8879 32.6556L62.2574 34.6162ZM63.8064 34.6384L61.83 33.0271L63.8064 34.6384ZM65.2954 33.6842L65.8637 36.1701L65.2954 33.6842ZM66.2172 34.6359L68.765 34.53L66.2172 34.6359ZM66.5174 35.2136L68.8516 36.2403L68.9298 36.0625L68.9802 35.8749L66.5174 35.2136ZM66.67 34.6456L66.5246 32.0997L64.685 32.2048L64.2072 33.9843L66.67 34.6456ZM66.9152 37.1857C68.3212 37.1055 69.3959 35.9006 69.3157 34.4945C69.2354 33.0885 68.0305 32.0138 66.6244 32.094L66.7698 34.6399L66.9152 37.1857ZM34.873 7.12852C34.5906 5.7488 33.2431 4.85927 31.8634 5.14169C30.4837 5.42412 29.5942 6.77155 29.8766 8.15126L32.3748 7.63989L34.873 7.12852ZM32.3948 7.73786L34.5231 9.14244L35.1048 8.26106L34.893 7.22649L32.3948 7.73786ZM34.2634 17.3005L31.9786 18.4327L32.0376 18.5518L32.1087 18.6641L34.2634 17.3005ZM34.3947 17.5079L36.8929 16.9966L36.7993 16.5389L36.5495 16.1442L34.3947 17.5079ZM31.9166 18.1173C32.199 19.497 33.5464 20.3865 34.9262 20.1041C36.3059 19.8217 37.1954 18.4742 36.913 17.0945L34.4148 17.6059L31.9166 18.1173ZM44.2998 28.6579L46.4217 30.0722L46.4771 29.989L44.3553 28.5747L42.2334 27.1604L42.1779 27.2436L44.2998 28.6579ZM44.3553 28.5747L46.778 27.7792C46.692 27.5172 46.8065 27.673 46.6992 28.0399C46.6389 28.2457 46.5243 28.4578 46.3554 28.638C46.1933 28.811 46.0351 28.8974 45.9502 28.9342L44.9346 26.5952L43.9189 24.2562C42.9728 24.667 42.1444 25.4459 41.8045 26.6074C41.504 27.6342 41.6875 28.624 41.9325 29.3702L44.3553 28.5747ZM44.9346 26.5952L45.9502 28.9342C46.6326 28.6379 47.54 28.0552 47.9865 26.9446C48.4464 25.8006 48.1672 24.7289 47.8253 24.0175L45.5269 25.1219L43.2285 26.2264C43.2089 26.1857 42.9921 25.695 43.2546 25.0421C43.3753 24.7419 43.552 24.5351 43.6932 24.4112C43.761 24.3517 43.8186 24.3129 43.8563 24.29C43.894 24.2671 43.9169 24.2571 43.9189 24.2562L44.9346 26.5952ZM45.5269 25.1219L47.8253 24.0175C47.765 23.8919 47.759 23.8352 47.7594 23.8389C47.7596 23.8407 47.7608 23.8527 47.7593 23.8722C47.7578 23.8918 47.7542 23.9114 47.7493 23.9285L45.2977 23.227L42.8461 22.5255C42.4707 23.8375 42.6946 25.1153 43.2285 26.2264L45.5269 25.1219ZM45.2977 23.227L47.7493 23.9285C47.6953 24.1175 47.5207 24.4753 47.1159 24.7307C46.9378 24.8432 46.7735 24.8968 46.658 24.921C46.6015 24.9328 46.5576 24.9374 46.5292 24.9393C46.5009 24.9411 46.4856 24.9403 46.4854 24.9403L46.6179 22.3937L46.7505 19.8472C46.0579 19.8111 45.1965 19.9113 44.3939 20.4179C43.5491 20.9511 43.0697 21.7441 42.8461 22.5255L45.2977 23.227ZM46.6179 22.3937L46.4854 24.9403C47.4054 24.9882 48.3867 24.9132 49.2983 24.5536L48.3625 22.1815L47.4267 19.8094C47.4383 19.8048 47.397 19.8227 47.2791 19.8371C47.1616 19.8514 46.9888 19.8596 46.7505 19.8472L46.6179 22.3937ZM48.3625 22.1815L49.2983 24.5536C50.6108 24.0358 51.3701 22.972 51.756 21.9036L49.3577 21.0373L46.9593 20.171C46.937 20.2328 46.9445 20.1824 47.0265 20.0881C47.1183 19.9826 47.2569 19.8764 47.4267 19.8094L48.3625 22.1815ZM49.3577 21.0373L51.756 21.9036C51.7824 21.8306 51.7726 21.8933 51.673 22.0069C51.5594 22.1365 51.3759 22.2768 51.1354 22.3582L50.3176 19.9429L49.4997 17.5277C48.0875 18.0059 47.3299 19.1451 46.9593 20.171L49.3577 21.0373ZM50.3176 19.9429L51.1354 22.3582C51.1273 22.361 51.2114 22.3335 51.4344 22.3066C51.6476 22.2809 51.9363 22.2616 52.3125 22.2564L52.2767 19.7066L52.2408 17.1569C51.2979 17.1701 50.3182 17.2505 49.4997 17.5277L50.3176 19.9429ZM52.2767 19.7066L52.3125 22.2564C52.6774 22.2512 53.2505 22.2083 53.8325 21.9461C54.5122 21.6399 55.2862 20.9748 55.4992 19.8629C55.6754 18.9432 55.362 18.1956 55.176 17.8317C54.9654 17.4199 54.6908 17.0633 54.4432 16.7781L52.5175 18.4496L50.5918 20.1212C50.7025 20.2488 50.6866 20.2541 50.6351 20.1535C50.6082 20.1008 50.3543 19.6135 50.4903 18.9033C50.6632 18.0009 51.2975 17.4945 51.7378 17.2961C52.0804 17.1418 52.3145 17.1558 52.2408 17.1569L52.2767 19.7066ZM52.5175 18.4496L54.4432 16.7781C54.3309 16.6487 54.2788 16.5713 54.2622 16.544C54.2425 16.5117 54.2912 16.5808 54.3321 16.7397C54.3757 16.9088 54.4175 17.2117 54.3244 17.5832C54.2273 17.9709 54.0226 18.2747 53.8084 18.4789L52.0491 16.6329L50.2899 14.787C49.327 15.7047 49.1182 16.9446 49.3936 18.0128C49.6185 18.885 50.141 19.6019 50.5918 20.1212L52.5175 18.4496ZM52.0491 16.6329L53.8084 18.4789C54.305 18.0056 54.8108 17.2873 54.9222 16.3187C55.0342 15.3452 54.7012 14.5262 54.3133 13.9473L52.1948 15.3666L50.0763 16.7859C49.9958 16.6658 49.7922 16.2872 49.8556 15.7358C49.9185 15.1893 50.1978 14.8748 50.2899 14.787L52.0491 16.6329ZM52.1948 15.3666L54.3133 13.9473C54.3156 13.9506 54.337 13.9827 54.3666 14.04C54.3942 14.0936 54.4474 14.2049 54.4936 14.3638C54.5678 14.619 54.7568 15.4927 54.1371 16.3668C53.5373 17.213 52.6877 17.3334 52.4669 17.354C52.316 17.368 52.2046 17.3612 52.1518 17.3565C52.1223 17.3539 52.1003 17.3509 52.0868 17.3489C52.0733 17.3469 52.0657 17.3454 52.0647 17.3452L52.5648 14.8447L53.0649 12.3442C52.8214 12.2955 52.4329 12.235 51.9932 12.276C51.6031 12.3124 50.638 12.4842 49.9765 13.4174C49.2952 14.3785 49.4763 15.3748 49.5965 15.7881C49.7254 16.2313 49.9382 16.5797 50.0763 16.7859L52.1948 15.3666ZM52.5648 14.8447L51.7841 17.2722L52.5596 17.5217L53.3403 15.0941L54.121 12.6665L53.3455 12.4171L52.5648 14.8447ZM53.3403 15.0941L55.4622 16.5084L55.5177 16.4252L53.3958 15.0109L51.2739 13.5966L51.2185 13.6798L53.3403 15.0941ZM53.4768 35.3989L53.6222 37.9447L53.722 37.939L53.5766 35.3932L53.4313 32.8473L53.3314 32.853L53.4768 35.3989ZM53.5766 35.3932L52.8243 37.8297C53.1437 37.9283 53.3654 38.0244 53.5117 38.1035C53.6583 38.1828 53.7006 38.2294 53.6903 38.2187L55.5219 36.4446L57.3536 34.6705C56.5203 33.8102 55.4165 33.2925 54.3289 32.9567L53.5766 35.3932ZM55.5219 36.4446L53.6903 38.2187C54.5737 39.1308 55.7642 39.6667 57.1272 39.5809L56.967 37.036L56.8069 34.491C56.8955 34.4854 57.0251 34.4986 57.1604 34.5539C57.2224 34.5793 57.2708 34.6076 57.305 34.6315C57.3385 34.6548 57.3539 34.6708 57.3536 34.6705L55.5219 36.4446ZM56.967 37.036L57.1272 39.5809C57.3532 39.5667 57.7034 39.59 58.2062 39.7145L58.8192 37.2393L59.4323 34.7641C58.5618 34.5485 57.6772 34.4362 56.8069 34.491L56.967 37.036ZM58.8192 37.2393L58.2062 39.7145C59.0345 39.9197 60.2398 39.9342 61.2709 39.0712C62.1851 38.306 62.4546 37.2544 62.546 36.5756L60.0188 36.2352L57.4916 35.8948C57.47 36.0555 57.483 35.591 57.9974 35.1604C58.6286 34.6321 59.2907 34.729 59.4323 34.7641L58.8192 37.2393ZM60.0188 36.2352L62.546 36.5756C62.5819 36.3091 62.6284 36.1631 62.6528 36.1027C62.6758 36.0455 62.6612 36.1087 62.5603 36.2097L60.756 34.4078L58.9516 32.6059C58.0082 33.5505 57.6388 34.8022 57.4916 35.8948L60.0188 36.2352ZM60.756 34.4078L62.5603 36.2097C62.4252 36.3449 62.2101 36.5071 61.9094 36.613C61.6036 36.7206 61.3075 36.7352 61.0645 36.7015C60.6396 36.6425 60.4813 36.4557 60.6269 36.5768L62.2574 34.6162L63.8879 32.6556C63.4109 32.2589 62.6911 31.7784 61.7657 31.6499C60.6699 31.4978 59.6666 31.8899 58.9516 32.6059L60.756 34.4078ZM62.2574 34.6162L60.6269 36.5768C61.1465 37.0089 61.9838 37.5441 63.075 37.5598C64.308 37.5775 65.224 36.9352 65.7828 36.2498L63.8064 34.6384L61.83 33.0271C61.892 32.9511 62.0334 32.8013 62.2762 32.6714C62.5345 32.5333 62.8377 32.4559 63.1483 32.4604C63.7231 32.4686 63.9909 32.7412 63.8879 32.6556L62.2574 34.6162ZM63.8064 34.6384L65.7828 36.2498C65.8092 36.2174 65.8294 36.1973 65.8421 36.1858C65.8545 36.1745 65.8613 36.1702 65.8621 36.1697C65.8627 36.1692 65.8611 36.1702 65.8585 36.1713C65.856 36.1724 65.857 36.1716 65.8637 36.1701L65.2954 33.6842L64.7272 31.1984C63.5424 31.4692 62.5662 32.1242 61.83 33.0271L63.8064 34.6384ZM65.2954 33.6842L65.8637 36.1701C65.7601 36.1938 65.5053 36.2365 65.1643 36.166C64.7898 36.0885 64.421 35.8957 64.1312 35.5964C63.6254 35.0743 63.6619 34.5612 63.6694 34.7418L66.2172 34.6359L68.765 34.53C68.7406 33.9431 68.6075 32.8875 67.7945 32.0482C66.8088 31.0305 65.5433 31.0118 64.7272 31.1984L65.2954 33.6842ZM66.2172 34.6359L63.6694 34.7418C63.679 34.9737 63.6957 35.2188 63.7277 35.4511C63.7471 35.5924 63.809 36.0615 64.0535 36.532C64.1632 36.743 64.5342 37.4043 65.3761 37.7551C66.4395 38.1983 67.3837 37.8234 67.8773 37.474C68.2938 37.1792 68.5244 36.8325 68.6118 36.6945C68.723 36.519 68.801 36.3553 68.8516 36.2403L66.5174 35.2136L64.1833 34.1869C64.1918 34.1675 64.2299 34.0815 64.3033 33.9657C64.3528 33.8874 64.5478 33.5824 64.9308 33.3113C65.3908 32.9857 66.3036 32.6166 67.3378 33.0475C68.1504 33.3861 68.4942 34.0173 68.5789 34.1802C68.6977 34.4088 68.7446 34.5931 68.7575 34.6457C68.767 34.6842 68.7727 34.713 68.7756 34.7292C68.7787 34.7459 68.78 34.7555 68.7802 34.7566C68.7803 34.7573 68.7778 34.7393 68.7746 34.6974C68.7714 34.6566 68.768 34.6015 68.765 34.53L66.2172 34.6359ZM66.5174 35.2136L68.9802 35.8749L69.1327 35.3069L66.67 34.6456L64.2072 33.9843L64.0547 34.5523L66.5174 35.2136ZM66.67 34.6456L66.8153 37.1914L66.9152 37.1857L66.7698 34.6399L66.6244 32.094L66.5246 32.0997L66.67 34.6456ZM32.3748 7.63989L29.8766 8.15126L29.8966 8.24923L32.3948 7.73786L34.893 7.22649L34.873 7.12852L32.3748 7.63989ZM32.3948 7.73786L30.2665 6.33329C29.6889 7.2086 29.209 8.03879 28.8871 8.79555L31.2337 9.79354L33.5803 10.7915C33.731 10.4372 34.0252 9.89695 34.5231 9.14244L32.3948 7.73786ZM31.2337 9.79354L28.8871 8.79555C28.4783 9.75686 28.333 10.7725 28.4127 11.7971L30.955 11.5991L33.4973 11.4012C33.4762 11.1294 33.5166 10.9413 33.5803 10.7915L31.2337 9.79354ZM30.955 11.5991L28.4127 11.7971C28.4526 12.3091 28.6063 12.8987 28.9848 13.4503C29.3708 14.0127 29.8891 14.3874 30.4203 14.6107C31.3762 15.0126 32.3689 14.9286 33.0503 14.8114L32.6179 12.2983L32.1855 9.78522C32.0385 9.81053 31.9835 9.80778 31.9994 9.80828C32.0099 9.80861 32.1678 9.81303 32.397 9.90937C32.651 10.0162 32.9551 10.2225 33.1899 10.5645C33.4172 10.8958 33.4827 11.2132 33.4973 11.4012L30.955 11.5991ZM32.6179 12.2983L33.0503 14.8114C33.3917 14.7526 33.3633 14.8165 33.1413 14.7476C33.0068 14.706 32.8083 14.6166 32.609 14.4394C32.4052 14.2581 32.269 14.0456 32.1905 13.8502L34.5565 12.8991L36.9225 11.948C36.4947 10.8839 35.6424 10.1835 34.6511 9.87626C33.7829 9.60717 32.9024 9.66189 32.1855 9.78522L32.6179 12.2983ZM34.5565 12.8991L32.1905 13.8502C32.1821 13.8293 32.1716 13.7966 32.1647 13.7544C32.1578 13.7121 32.1561 13.6707 32.1584 13.6341C32.1632 13.558 32.1817 13.5466 32.149 13.6138L34.4415 14.7304L36.734 15.847C37.3148 14.6546 37.462 13.2902 36.9225 11.948L34.5565 12.8991ZM34.4415 14.7304L32.149 13.6138C31.7463 14.4405 31.3903 15.4871 31.5075 16.6069L34.0436 16.3414L36.5798 16.0759C36.5946 16.2172 36.5712 16.2771 36.5845 16.2232C36.5976 16.1701 36.6363 16.0476 36.734 15.847L34.4415 14.7304ZM34.0436 16.3414L31.5075 16.6069C31.561 17.1178 31.6696 17.8092 31.9786 18.4327L34.2634 17.3005L36.5483 16.1682C36.5851 16.2425 36.6045 16.2969 36.6125 16.3207C36.6207 16.3456 36.6217 16.3531 36.6184 16.3383C36.6151 16.3242 36.6092 16.2956 36.602 16.25C36.5949 16.2048 36.5872 16.1472 36.5798 16.0759L34.0436 16.3414ZM34.2634 17.3005L32.1087 18.6641L32.24 18.8716L34.3947 17.5079L36.5495 16.1442L36.4182 15.9368L34.2634 17.3005ZM34.3947 17.5079L31.8965 18.0193L31.9166 18.1173L34.4148 17.6059L36.913 17.0945L36.8929 16.9966L34.3947 17.5079Z" fill="#D8F789"/>
</svg>
